<?xml version="1.0" encoding="UTF-8" standalone="no"?>
<!DOCTYPE svg PUBLIC "-//W3C//DTD SVG 1.1//EN"
 "http://www.w3.org/Graphics/SVG/1.1/DTD/svg11.dtd">
<!-- Generated by graphviz version 2.43.0 (0)
 -->
<!-- Title: %3 Pages: 1 -->
<svg width="373pt" height="461pt"
 viewBox="0.00 0.00 373.00 461.00" xmlns="http://www.w3.org/2000/svg" xmlns:xlink="http://www.w3.org/1999/xlink">
<g id="graph0" class="graph" transform="scale(1 1) rotate(0) translate(4 457)">
<title>%3</title>
<!-- I_0 -->
<g id="node1" class="node">
<title>I_0</title>
<path fill="#aaeeaa" stroke="#888888" d="M72,-453C72,-453 12,-453 12,-453 6,-453 0,-447 0,-441 0,-441 0,-427 0,-427 0,-421 6,-415 12,-415 12,-415 72,-415 72,-415 78,-415 84,-421 84,-427 84,-427 84,-441 84,-441 84,-447 78,-453 72,-453"/>
<text text-anchor="middle" x="42" y="-437.8" font-family="Times,serif" font-size="14.00" fill="#222222">B</text>
<text text-anchor="middle" x="42" y="-422.8" font-family="Times,serif" font-size="14.00" fill="#222222">FLOAT(8)</text>
</g>
<!-- I_1 -->
<g id="node2" class="node">
<title>I_1</title>
<path fill="#aaeeaa" stroke="#888888" d="M210.5,-453C210.5,-453 109.5,-453 109.5,-453 103.5,-453 97.5,-447 97.5,-441 97.5,-441 97.5,-427 97.5,-427 97.5,-421 103.5,-415 109.5,-415 109.5,-415 210.5,-415 210.5,-415 216.5,-415 222.5,-421 222.5,-427 222.5,-427 222.5,-441 222.5,-441 222.5,-447 216.5,-453 210.5,-453"/>
<text text-anchor="middle" x="160" y="-437.8" font-family="Times,serif" font-size="14.00" fill="#222222">X</text>
<text text-anchor="middle" x="160" y="-422.8" font-family="Times,serif" font-size="14.00" fill="#222222">FLOAT(2,2,4,8)</text>
</g>
<!-- Add_3 -->
<g id="node4" class="node">
<title>Add_3</title>
<path fill="#cccccc" stroke="#888888" d="M254.5,-391C254.5,-391 205.5,-391 205.5,-391 199.5,-391 193.5,-385 193.5,-379 193.5,-379 193.5,-367 193.5,-367 193.5,-361 199.5,-355 205.5,-355 205.5,-355 254.5,-355 254.5,-355 260.5,-355 266.5,-361 266.5,-367 266.5,-367 266.5,-379 266.5,-379 266.5,-385 260.5,-391 254.5,-391"/>
<text text-anchor="middle" x="230" y="-369.3" font-family="Times,serif" font-size="14.00" fill="#222222">Add(., .)</text>
</g>
<!-- I_1&#45;&gt;Add_3 -->
<g id="edge1" class="edge">
<title>I_1&#45;&gt;Add_3</title>
<path fill="none" stroke="black" d="M181.38,-414.98C187.86,-409.52 195.07,-403.44 201.91,-397.68"/>
<polygon fill="black" stroke="black" points="209.71,-391.1 204.96,-400.99 205.88,-394.33 202.06,-397.55 202.06,-397.55 202.06,-397.55 205.88,-394.33 199.16,-394.11 209.71,-391.1 209.71,-391.1"/>
<text text-anchor="middle" x="227.5" y="-401.4" font-family="Times,serif" font-size="7.00">FLOAT(2,2,4,8)</text>
</g>
<!-- Constant_2 -->
<g id="node3" class="node">
<title>Constant_2</title>
<path fill="#cccccc" stroke="#888888" d="M353,-452C353,-452 249,-452 249,-452 243,-452 237,-446 237,-440 237,-440 237,-428 237,-428 237,-422 243,-416 249,-416 249,-416 353,-416 353,-416 359,-416 365,-422 365,-428 365,-428 365,-440 365,-440 365,-446 359,-452 353,-452"/>
<text text-anchor="middle" x="301" y="-430.3" font-family="Times,serif" font-size="14.00" fill="#222222">Constant() &#45;&gt; B</text>
</g>
<!-- Constant_2&#45;&gt;Add_3 -->
<g id="edge2" class="edge">
<title>Constant_2&#45;&gt;Add_3</title>
<path fill="none" stroke="black" d="M280.46,-415.93C273.61,-410.24 265.84,-403.78 258.49,-397.67"/>
<polygon fill="black" stroke="black" points="250.74,-391.23 261.3,-394.16 254.58,-394.43 258.43,-397.62 258.43,-397.62 258.43,-397.62 254.58,-394.43 255.55,-401.08 250.74,-391.23 250.74,-391.23"/>
<text text-anchor="middle" x="284.5" y="-401.4" font-family="Times,serif" font-size="7.00">FLOAT(8)</text>
</g>
<!-- Div_4 -->
<g id="node5" class="node">
<title>Div_4</title>
<path fill="#cccccc" stroke="#888888" d="M245,-331C245,-331 117,-331 117,-331 111,-331 105,-325 105,-319 105,-319 105,-307 105,-307 105,-301 111,-295 117,-295 117,-295 245,-295 245,-295 251,-295 257,-301 257,-307 257,-307 257,-319 257,-319 257,-325 251,-331 245,-331"/>
<text text-anchor="middle" x="181" y="-309.3" font-family="Times,serif" font-size="14.00" fill="#222222">Div(., [1.4140625])</text>
</g>
<!-- Add_3&#45;&gt;Div_4 -->
<g id="edge3" class="edge">
<title>Add_3&#45;&gt;Div_4</title>
<path fill="none" stroke="black" d="M215.56,-354.91C211.31,-349.88 206.58,-344.28 202.01,-338.86"/>
<polygon fill="black" stroke="black" points="195.5,-331.17 205.39,-335.9 198.73,-334.99 201.96,-338.81 201.96,-338.81 201.96,-338.81 198.73,-334.99 198.52,-341.71 195.5,-331.17 195.5,-331.17"/>
<text text-anchor="middle" x="236.5" y="-341.4" font-family="Times,serif" font-size="7.00">FLOAT(2,2,4,8)</text>
</g>
<!-- Mul_7 -->
<g id="node8" class="node">
<title>Mul_7</title>
<path fill="#cccccc" stroke="#888888" d="M267.5,-151C267.5,-151 218.5,-151 218.5,-151 212.5,-151 206.5,-145 206.5,-139 206.5,-139 206.5,-127 206.5,-127 206.5,-121 212.5,-115 218.5,-115 218.5,-115 267.5,-115 267.5,-115 273.5,-115 279.5,-121 279.5,-127 279.5,-127 279.5,-139 279.5,-139 279.5,-145 273.5,-151 267.5,-151"/>
<text text-anchor="middle" x="243" y="-129.3" font-family="Times,serif" font-size="14.00" fill="#222222">Mul(., .)</text>
</g>
<!-- Add_3&#45;&gt;Mul_7 -->
<g id="edge6" class="edge">
<title>Add_3&#45;&gt;Mul_7</title>
<path fill="none" stroke="black" d="M259.42,-354.81C262.21,-352.42 264.81,-349.81 267,-347 276.6,-334.7 279,-329.61 279,-314 279,-314 279,-314 279,-192 279,-178.71 276.28,-173.73 266.85,-159.59"/>
<polygon fill="black" stroke="black" points="261.28,-151.26 270.58,-157.08 264.06,-155.42 266.84,-159.58 266.84,-159.58 266.84,-159.58 264.06,-155.42 263.1,-162.08 261.28,-151.26 261.28,-151.26"/>
<text text-anchor="middle" x="306.5" y="-251.4" font-family="Times,serif" font-size="7.00">FLOAT(2,2,4,8)</text>
</g>
<!-- Erf_5 -->
<g id="node6" class="node">
<title>Erf_5</title>
<path fill="#cccccc" stroke="#888888" d="M210,-271C210,-271 180,-271 180,-271 174,-271 168,-265 168,-259 168,-259 168,-247 168,-247 168,-241 174,-235 180,-235 180,-235 210,-235 210,-235 216,-235 222,-241 222,-247 222,-247 222,-259 222,-259 222,-265 216,-271 210,-271"/>
<text text-anchor="middle" x="195" y="-249.3" font-family="Times,serif" font-size="14.00" fill="#222222">Erf(.)</text>
</g>
<!-- Div_4&#45;&gt;Erf_5 -->
<g id="edge4" class="edge">
<title>Div_4&#45;&gt;Erf_5</title>
<path fill="none" stroke="black" d="M185.12,-294.91C186.17,-290.58 187.32,-285.83 188.45,-281.14"/>
<polygon fill="black" stroke="black" points="190.86,-271.17 192.88,-281.94 189.68,-276.03 188.51,-280.89 188.51,-280.89 188.51,-280.89 189.68,-276.03 184.14,-279.83 190.86,-271.17 190.86,-271.17"/>
<text text-anchor="middle" x="216.5" y="-281.4" font-family="Times,serif" font-size="7.00">FLOAT(2,2,4,8)</text>
</g>
<!-- Add_6 -->
<g id="node7" class="node">
<title>Add_6</title>
<path fill="#cccccc" stroke="#888888" d="M242.5,-211C242.5,-211 165.5,-211 165.5,-211 159.5,-211 153.5,-205 153.5,-199 153.5,-199 153.5,-187 153.5,-187 153.5,-181 159.5,-175 165.5,-175 165.5,-175 242.5,-175 242.5,-175 248.5,-175 254.5,-181 254.5,-187 254.5,-187 254.5,-199 254.5,-199 254.5,-205 248.5,-211 242.5,-211"/>
<text text-anchor="middle" x="204" y="-189.3" font-family="Times,serif" font-size="14.00" fill="#222222">Add(., [1.0])</text>
</g>
<!-- Erf_5&#45;&gt;Add_6 -->
<g id="edge5" class="edge">
<title>Erf_5&#45;&gt;Add_6</title>
<path fill="none" stroke="black" d="M197.65,-234.91C198.32,-230.58 199.06,-225.83 199.79,-221.14"/>
<polygon fill="black" stroke="black" points="201.34,-211.17 204.25,-221.74 200.57,-216.11 199.8,-221.05 199.8,-221.05 199.8,-221.05 200.57,-216.11 195.36,-220.36 201.34,-211.17 201.34,-211.17"/>
<text text-anchor="middle" x="228.5" y="-221.4" font-family="Times,serif" font-size="7.00">FLOAT(2,2,4,8)</text>
</g>
<!-- Add_6&#45;&gt;Mul_7 -->
<g id="edge7" class="edge">
<title>Add_6&#45;&gt;Mul_7</title>
<path fill="none" stroke="black" d="M206.63,-174.72C207.61,-170.81 208.96,-166.7 213.28,-159.87"/>
<polygon fill="black" stroke="black" points="219.25,-151.27 217.24,-162.05 216.4,-155.38 213.55,-159.48 213.55,-159.48 213.55,-159.48 216.4,-155.38 209.85,-156.91 219.25,-151.27 219.25,-151.27"/>
<text text-anchor="middle" x="240.5" y="-161.4" font-family="Times,serif" font-size="7.00">FLOAT(2,2,4,8)</text>
</g>
<!-- Mul_8 -->
<g id="node9" class="node">
<title>Mul_8</title>
<path fill="#cccccc" stroke="#888888" d="M281.5,-91C281.5,-91 204.5,-91 204.5,-91 198.5,-91 192.5,-85 192.5,-79 192.5,-79 192.5,-67 192.5,-67 192.5,-61 198.5,-55 204.5,-55 204.5,-55 281.5,-55 281.5,-55 287.5,-55 293.5,-61 293.5,-67 293.5,-67 293.5,-79 293.5,-79 293.5,-85 287.5,-91 281.5,-91"/>
<text text-anchor="middle" x="243" y="-69.3" font-family="Times,serif" font-size="14.00" fill="#222222">Mul(., [0.5])</text>
</g>
<!-- Mul_7&#45;&gt;Mul_8 -->
<g id="edge8" class="edge">
<title>Mul_7&#45;&gt;Mul_8</title>
<path fill="none" stroke="black" d="M243,-114.91C243,-110.7 243,-106.09 243,-101.52"/>
<polygon fill="black" stroke="black" points="243,-91.17 247.5,-101.17 243,-96.17 243,-101.17 243,-101.17 243,-101.17 243,-96.17 238.5,-101.17 243,-91.17 243,-91.17"/>
<text text-anchor="middle" x="270.5" y="-101.4" font-family="Times,serif" font-size="7.00">FLOAT(2,2,4,8)</text>
</g>
<!-- O_9 -->
<g id="node10" class="node">
<title>O_9</title>
<path fill="#aaaaee" stroke="#888888" d="M293.5,-38C293.5,-38 192.5,-38 192.5,-38 186.5,-38 180.5,-32 180.5,-26 180.5,-26 180.5,-12 180.5,-12 180.5,-6 186.5,0 192.5,0 192.5,0 293.5,0 293.5,0 299.5,0 305.5,-6 305.5,-12 305.5,-12 305.5,-26 305.5,-26 305.5,-32 299.5,-38 293.5,-38"/>
<text text-anchor="middle" x="243" y="-22.8" font-family="Times,serif" font-size="14.00" fill="#222222">Y</text>
<text text-anchor="middle" x="243" y="-7.8" font-family="Times,serif" font-size="14.00" fill="#222222">FLOAT(2,2,4,8)</text>
</g>
<!-- Mul_8&#45;&gt;O_9 -->
<g id="edge9" class="edge">
<title>Mul_8&#45;&gt;O_9</title>
<path fill="none" stroke="black" d="M243,-54.97C243,-52.89 243,-50.72 243,-48.53"/>
<polygon fill="black" stroke="black" points="243,-38.32 247.5,-48.32 243,-43.32 243,-48.32 243,-48.32 243,-48.32 243,-43.32 238.5,-48.32 243,-38.32 243,-38.32"/>
</g>
</g>
</svg>
