<?xml version="1.0" encoding="UTF-8" standalone="no"?>
<!DOCTYPE svg PUBLIC "-//W3C//DTD SVG 1.1//EN"
 "http://www.w3.org/Graphics/SVG/1.1/DTD/svg11.dtd">
<!-- Generated by graphviz version 2.43.0 (0)
 -->
<!-- Title: %3 Pages: 1 -->
<svg width="398pt" height="221pt"
 viewBox="0.00 0.00 397.50 221.00" xmlns="http://www.w3.org/2000/svg" xmlns:xlink="http://www.w3.org/1999/xlink">
<g id="graph0" class="graph" transform="scale(1 1) rotate(0) translate(4 217)">
<title>%3</title>
<!-- I_0 -->
<g id="node1" class="node">
<title>I_0</title>
<path fill="#aaeeaa" stroke="#888888" d="M167.5,-213C167.5,-213 69.5,-213 69.5,-213 63.5,-213 57.5,-207 57.5,-201 57.5,-201 57.5,-187 57.5,-187 57.5,-181 63.5,-175 69.5,-175 69.5,-175 167.5,-175 167.5,-175 173.5,-175 179.5,-181 179.5,-187 179.5,-187 179.5,-201 179.5,-201 179.5,-207 173.5,-213 167.5,-213"/>
<text text-anchor="middle" x="118.5" y="-197.8" font-family="Times,serif" font-size="14.00" fill="#222222">X</text>
<text text-anchor="middle" x="118.5" y="-182.8" font-family="Times,serif" font-size="14.00" fill="#222222">FLOAT(a,b,c,d)</text>
</g>
<!-- Transpose_3 -->
<g id="node4" class="node">
<title>Transpose_3</title>
<path fill="#ee99ee" stroke="#888888" d="M225,-151C225,-151 12,-151 12,-151 6,-151 0,-145 0,-139 0,-139 0,-127 0,-127 0,-121 6,-115 12,-115 12,-115 225,-115 225,-115 231,-115 237,-121 237,-127 237,-127 237,-139 237,-139 237,-145 231,-151 225,-151"/>
<text text-anchor="middle" x="118.5" y="-129.3" font-family="Times,serif" font-size="14.00" fill="#222222">Transpose(., perm=[0, 2, 1, 3])</text>
</g>
<!-- I_0&#45;&gt;Transpose_3 -->
<g id="edge1" class="edge">
<title>I_0&#45;&gt;Transpose_3</title>
<path fill="none" stroke="black" d="M118.5,-174.98C118.5,-170.71 118.5,-166.06 118.5,-161.47"/>
<polygon fill="black" stroke="black" points="118.5,-151.1 123,-161.1 118.5,-156.1 118.5,-161.1 118.5,-161.1 118.5,-161.1 118.5,-156.1 114,-161.1 118.5,-151.1 118.5,-151.1"/>
<text text-anchor="middle" x="146" y="-161.4" font-family="Times,serif" font-size="7.00">FLOAT(a,b,c,d)</text>
</g>
<!-- I_1 -->
<g id="node2" class="node">
<title>I_1</title>
<path fill="#aaeeaa" stroke="#888888" d="M265.5,-213C265.5,-213 205.5,-213 205.5,-213 199.5,-213 193.5,-207 193.5,-201 193.5,-201 193.5,-187 193.5,-187 193.5,-181 199.5,-175 205.5,-175 205.5,-175 265.5,-175 265.5,-175 271.5,-175 277.5,-181 277.5,-187 277.5,-187 277.5,-201 277.5,-201 277.5,-207 271.5,-213 265.5,-213"/>
<text text-anchor="middle" x="235.5" y="-197.8" font-family="Times,serif" font-size="14.00" fill="#222222">cst</text>
<text text-anchor="middle" x="235.5" y="-182.8" font-family="Times,serif" font-size="14.00" fill="#222222">FLOAT(1)</text>
</g>
<!-- Constant_2 -->
<g id="node3" class="node">
<title>Constant_2</title>
<path fill="#cccccc" stroke="#888888" d="M377.5,-151C377.5,-151 263.5,-151 263.5,-151 257.5,-151 251.5,-145 251.5,-139 251.5,-139 251.5,-127 251.5,-127 251.5,-121 257.5,-115 263.5,-115 263.5,-115 377.5,-115 377.5,-115 383.5,-115 389.5,-121 389.5,-127 389.5,-127 389.5,-139 389.5,-139 389.5,-145 383.5,-151 377.5,-151"/>
<text text-anchor="middle" x="320.5" y="-129.3" font-family="Times,serif" font-size="14.00" fill="#222222">Constant() &#45;&gt; cst</text>
</g>
<!-- Mul_4 -->
<g id="node5" class="node">
<title>Mul_4</title>
<path fill="#cccccc" stroke="#888888" d="M244,-91C244,-91 195,-91 195,-91 189,-91 183,-85 183,-79 183,-79 183,-67 183,-67 183,-61 189,-55 195,-55 195,-55 244,-55 244,-55 250,-55 256,-61 256,-67 256,-67 256,-79 256,-79 256,-85 250,-91 244,-91"/>
<text text-anchor="middle" x="219.5" y="-69.3" font-family="Times,serif" font-size="14.00" fill="#222222">Mul(., .)</text>
</g>
<!-- Constant_2&#45;&gt;Mul_4 -->
<g id="edge3" class="edge">
<title>Constant_2&#45;&gt;Mul_4</title>
<path fill="none" stroke="black" d="M290.74,-114.91C280.56,-109.06 269.02,-102.43 258.23,-96.24"/>
<polygon fill="black" stroke="black" points="249.39,-91.17 260.31,-92.24 253.73,-93.66 258.07,-96.15 258.07,-96.15 258.07,-96.15 253.73,-93.66 255.82,-100.05 249.39,-91.17 249.39,-91.17"/>
<text text-anchor="middle" x="293" y="-101.4" font-family="Times,serif" font-size="7.00">FLOAT(1)</text>
</g>
<!-- Transpose_3&#45;&gt;Mul_4 -->
<g id="edge2" class="edge">
<title>Transpose_3&#45;&gt;Mul_4</title>
<path fill="none" stroke="black" d="M148.26,-114.91C158.44,-109.06 169.98,-102.43 180.77,-96.24"/>
<polygon fill="black" stroke="black" points="189.61,-91.17 183.18,-100.05 185.27,-93.66 180.93,-96.15 180.93,-96.15 180.93,-96.15 185.27,-93.66 178.69,-92.24 189.61,-91.17 189.61,-91.17"/>
<text text-anchor="middle" x="203" y="-101.4" font-family="Times,serif" font-size="7.00">FLOAT(a,c,b,d)</text>
</g>
<!-- O_5 -->
<g id="node6" class="node">
<title>O_5</title>
<path fill="#aaaaee" stroke="#888888" d="M268.5,-38C268.5,-38 170.5,-38 170.5,-38 164.5,-38 158.5,-32 158.5,-26 158.5,-26 158.5,-12 158.5,-12 158.5,-6 164.5,0 170.5,0 170.5,0 268.5,0 268.5,0 274.5,0 280.5,-6 280.5,-12 280.5,-12 280.5,-26 280.5,-26 280.5,-32 274.5,-38 268.5,-38"/>
<text text-anchor="middle" x="219.5" y="-22.8" font-family="Times,serif" font-size="14.00" fill="#222222">Y</text>
<text text-anchor="middle" x="219.5" y="-7.8" font-family="Times,serif" font-size="14.00" fill="#222222">FLOAT(a,c,b,d)</text>
</g>
<!-- Mul_4&#45;&gt;O_5 -->
<g id="edge4" class="edge">
<title>Mul_4&#45;&gt;O_5</title>
<path fill="none" stroke="black" d="M219.5,-54.97C219.5,-52.89 219.5,-50.72 219.5,-48.53"/>
<polygon fill="black" stroke="black" points="219.5,-38.32 224,-48.32 219.5,-43.32 219.5,-48.32 219.5,-48.32 219.5,-48.32 219.5,-43.32 215,-48.32 219.5,-38.32 219.5,-38.32"/>
</g>
</g>
</svg>
