<?xml version="1.0" encoding="UTF-8" standalone="no"?>
<!DOCTYPE svg PUBLIC "-//W3C//DTD SVG 1.1//EN"
 "http://www.w3.org/Graphics/SVG/1.1/DTD/svg11.dtd">
<!-- Generated by graphviz version 2.43.0 (0)
 -->
<!-- Title: %3 Pages: 1 -->
<svg width="165pt" height="221pt"
 viewBox="0.00 0.00 165.00 221.00" xmlns="http://www.w3.org/2000/svg" xmlns:xlink="http://www.w3.org/1999/xlink">
<g id="graph0" class="graph" transform="scale(1 1) rotate(0) translate(4 217)">
<title>%3</title>
<!-- I_0 -->
<g id="node1" class="node">
<title>I_0</title>
<path fill="#aaeeaa" stroke="#888888" d="M128.5,-213C128.5,-213 28.5,-213 28.5,-213 22.5,-213 16.5,-207 16.5,-201 16.5,-201 16.5,-187 16.5,-187 16.5,-181 22.5,-175 28.5,-175 28.5,-175 128.5,-175 128.5,-175 134.5,-175 140.5,-181 140.5,-187 140.5,-187 140.5,-201 140.5,-201 140.5,-207 134.5,-213 128.5,-213"/>
<text text-anchor="middle" x="78.5" y="-197.8" font-family="Times,serif" font-size="14.00" fill="#222222">X</text>
<text text-anchor="middle" x="78.5" y="-182.8" font-family="Times,serif" font-size="14.00" fill="#222222">FLOAT(a,1,1,d)</text>
</g>
<!-- Unsqueeze_1 -->
<g id="node2" class="node">
<title>Unsqueeze_1</title>
<path fill="#eeeeee" stroke="#888888" d="M145,-151C145,-151 12,-151 12,-151 6,-151 0,-145 0,-139 0,-139 0,-127 0,-127 0,-121 6,-115 12,-115 12,-115 145,-115 145,-115 151,-115 157,-121 157,-127 157,-127 157,-139 157,-139 157,-145 151,-151 145,-151"/>
<text text-anchor="middle" x="78.5" y="-129.3" font-family="Times,serif" font-size="14.00" fill="#222222">Unsqueeze(., [1, 2])</text>
</g>
<!-- I_0&#45;&gt;Unsqueeze_1 -->
<g id="edge1" class="edge">
<title>I_0&#45;&gt;Unsqueeze_1</title>
<path fill="none" stroke="black" d="M78.5,-174.98C78.5,-170.71 78.5,-166.06 78.5,-161.47"/>
<polygon fill="black" stroke="black" points="78.5,-151.1 83,-161.1 78.5,-156.1 78.5,-161.1 78.5,-161.1 78.5,-161.1 78.5,-156.1 74,-161.1 78.5,-151.1 78.5,-151.1"/>
<text text-anchor="middle" x="106" y="-161.4" font-family="Times,serif" font-size="7.00">FLOAT(a,1,1,d)</text>
</g>
<!-- Squeeze_2 -->
<g id="node3" class="node">
<title>Squeeze_2</title>
<path fill="#eeeeee" stroke="#888888" d="M135.5,-91C135.5,-91 21.5,-91 21.5,-91 15.5,-91 9.5,-85 9.5,-79 9.5,-79 9.5,-67 9.5,-67 9.5,-61 15.5,-55 21.5,-55 21.5,-55 135.5,-55 135.5,-55 141.5,-55 147.5,-61 147.5,-67 147.5,-67 147.5,-79 147.5,-79 147.5,-85 141.5,-91 135.5,-91"/>
<text text-anchor="middle" x="78.5" y="-69.3" font-family="Times,serif" font-size="14.00" fill="#222222">Squeeze(., [1, 2])</text>
</g>
<!-- Unsqueeze_1&#45;&gt;Squeeze_2 -->
<g id="edge2" class="edge">
<title>Unsqueeze_1&#45;&gt;Squeeze_2</title>
<path fill="none" stroke="black" d="M78.5,-114.91C78.5,-110.7 78.5,-106.09 78.5,-101.52"/>
<polygon fill="black" stroke="black" points="78.5,-91.17 83,-101.17 78.5,-96.17 78.5,-101.17 78.5,-101.17 78.5,-101.17 78.5,-96.17 74,-101.17 78.5,-91.17 78.5,-91.17"/>
<text text-anchor="middle" x="113" y="-101.4" font-family="Times,serif" font-size="7.00">FLOAT(a,1,1,1,1,d)</text>
</g>
<!-- O_3 -->
<g id="node4" class="node">
<title>O_3</title>
<path fill="#aaaaee" stroke="#888888" d="M128.5,-38C128.5,-38 28.5,-38 28.5,-38 22.5,-38 16.5,-32 16.5,-26 16.5,-26 16.5,-12 16.5,-12 16.5,-6 22.5,0 28.5,0 28.5,0 128.5,0 128.5,0 134.5,0 140.5,-6 140.5,-12 140.5,-12 140.5,-26 140.5,-26 140.5,-32 134.5,-38 128.5,-38"/>
<text text-anchor="middle" x="78.5" y="-22.8" font-family="Times,serif" font-size="14.00" fill="#222222">Y</text>
<text text-anchor="middle" x="78.5" y="-7.8" font-family="Times,serif" font-size="14.00" fill="#222222">FLOAT(a,1,1,d)</text>
</g>
<!-- Squeeze_2&#45;&gt;O_3 -->
<g id="edge3" class="edge">
<title>Squeeze_2&#45;&gt;O_3</title>
<path fill="none" stroke="black" d="M78.5,-54.97C78.5,-52.89 78.5,-50.72 78.5,-48.53"/>
<polygon fill="black" stroke="black" points="78.5,-38.32 83,-48.32 78.5,-43.32 78.5,-48.32 78.5,-48.32 78.5,-48.32 78.5,-43.32 74,-48.32 78.5,-38.32 78.5,-38.32"/>
</g>
</g>
</svg>
