<?xml version="1.0" encoding="UTF-8" standalone="no"?>
<!DOCTYPE svg PUBLIC "-//W3C//DTD SVG 1.1//EN"
 "http://www.w3.org/Graphics/SVG/1.1/DTD/svg11.dtd">
<!-- Generated by graphviz version 2.43.0 (0)
 -->
<!-- Title: %3 Pages: 1 -->
<svg width="288pt" height="178pt"
 viewBox="0.00 0.00 288.00 178.00" xmlns="http://www.w3.org/2000/svg" xmlns:xlink="http://www.w3.org/1999/xlink">
<g id="graph0" class="graph" transform="scale(1 1) rotate(0) translate(4 174)">
<title>%3</title>
<!-- I_0 -->
<g id="node1" class="node">
<title>I_0</title>
<path fill="#aaeeaa" stroke="#888888" d="M72,-170C72,-170 12,-170 12,-170 6,-170 0,-164 0,-158 0,-158 0,-144 0,-144 0,-138 6,-132 12,-132 12,-132 72,-132 72,-132 78,-132 84,-138 84,-144 84,-144 84,-158 84,-158 84,-164 78,-170 72,-170"/>
<text text-anchor="middle" x="42" y="-154.8" font-family="Times,serif" font-size="14.00" fill="#222222">Z</text>
<text text-anchor="middle" x="42" y="-139.8" font-family="Times,serif" font-size="14.00" fill="#222222">FLOAT(d)</text>
</g>
<!-- AddMul_3 -->
<g id="node4" class="node">
<title>AddMul_3</title>
<path fill="#cccccc" stroke="#888888" d="M259.5,-108C259.5,-108 20.5,-108 20.5,-108 14.5,-108 8.5,-102 8.5,-96 8.5,-96 8.5,-67 8.5,-67 8.5,-61 14.5,-55 20.5,-55 20.5,-55 259.5,-55 259.5,-55 265.5,-55 271.5,-61 271.5,-67 271.5,-67 271.5,-96 271.5,-96 271.5,-102 265.5,-108 259.5,-108"/>
<text text-anchor="middle" x="140" y="-92.8" font-family="Times,serif" font-size="14.00" fill="#222222">onnx_extended.ortops.optim.cuda.</text>
<text text-anchor="middle" x="140" y="-77.8" font-family="Times,serif" font-size="14.00" fill="#222222">AddMul</text>
<text text-anchor="middle" x="140" y="-62.8" font-family="Times,serif" font-size="14.00" fill="#222222">(., ., .)</text>
</g>
<!-- I_0&#45;&gt;AddMul_3 -->
<g id="edge3" class="edge">
<title>I_0&#45;&gt;AddMul_3</title>
<path fill="none" stroke="black" d="M68.26,-131.91C76.25,-126.41 85.28,-120.19 94.17,-114.07"/>
<polygon fill="black" stroke="black" points="102.61,-108.25 96.93,-117.63 98.49,-111.09 94.38,-113.92 94.38,-113.92 94.38,-113.92 98.49,-111.09 91.82,-110.22 102.61,-108.25 102.61,-108.25"/>
<text text-anchor="middle" x="108.5" y="-118.4" font-family="Times,serif" font-size="7.00">FLOAT(d)</text>
</g>
<!-- I_1 -->
<g id="node2" class="node">
<title>I_1</title>
<path fill="#aaeeaa" stroke="#888888" d="M170,-170C170,-170 110,-170 110,-170 104,-170 98,-164 98,-158 98,-158 98,-144 98,-144 98,-138 104,-132 110,-132 110,-132 170,-132 170,-132 176,-132 182,-138 182,-144 182,-144 182,-158 182,-158 182,-164 176,-170 170,-170"/>
<text text-anchor="middle" x="140" y="-154.8" font-family="Times,serif" font-size="14.00" fill="#222222">Y</text>
<text text-anchor="middle" x="140" y="-139.8" font-family="Times,serif" font-size="14.00" fill="#222222">FLOAT(d)</text>
</g>
<!-- I_1&#45;&gt;AddMul_3 -->
<g id="edge2" class="edge">
<title>I_1&#45;&gt;AddMul_3</title>
<path fill="none" stroke="black" d="M140,-131.91C140,-127.71 140,-123.1 140,-118.43"/>
<polygon fill="black" stroke="black" points="140,-108.25 144.5,-118.25 140,-113.25 140,-118.25 140,-118.25 140,-118.25 140,-113.25 135.5,-118.25 140,-108.25 140,-108.25"/>
<text text-anchor="middle" x="157.5" y="-118.4" font-family="Times,serif" font-size="7.00">FLOAT(d)</text>
</g>
<!-- I_2 -->
<g id="node3" class="node">
<title>I_2</title>
<path fill="#aaeeaa" stroke="#888888" d="M268,-170C268,-170 208,-170 208,-170 202,-170 196,-164 196,-158 196,-158 196,-144 196,-144 196,-138 202,-132 208,-132 208,-132 268,-132 268,-132 274,-132 280,-138 280,-144 280,-144 280,-158 280,-158 280,-164 274,-170 268,-170"/>
<text text-anchor="middle" x="238" y="-154.8" font-family="Times,serif" font-size="14.00" fill="#222222">X</text>
<text text-anchor="middle" x="238" y="-139.8" font-family="Times,serif" font-size="14.00" fill="#222222">FLOAT(d)</text>
</g>
<!-- I_2&#45;&gt;AddMul_3 -->
<g id="edge1" class="edge">
<title>I_2&#45;&gt;AddMul_3</title>
<path fill="none" stroke="black" d="M211.74,-131.91C203.75,-126.41 194.72,-120.19 185.83,-114.07"/>
<polygon fill="black" stroke="black" points="177.39,-108.25 188.18,-110.22 181.51,-111.09 185.62,-113.92 185.62,-113.92 185.62,-113.92 181.51,-111.09 183.07,-117.63 177.39,-108.25 177.39,-108.25"/>
<text text-anchor="middle" x="214.5" y="-118.4" font-family="Times,serif" font-size="7.00">FLOAT(d)</text>
</g>
<!-- O_4 -->
<g id="node5" class="node">
<title>O_4</title>
<path fill="#aaaaee" stroke="#888888" d="M170,-38C170,-38 110,-38 110,-38 104,-38 98,-32 98,-26 98,-26 98,-12 98,-12 98,-6 104,0 110,0 110,0 170,0 170,0 176,0 182,-6 182,-12 182,-12 182,-26 182,-26 182,-32 176,-38 170,-38"/>
<text text-anchor="middle" x="140" y="-22.8" font-family="Times,serif" font-size="14.00" fill="#222222">F</text>
<text text-anchor="middle" x="140" y="-7.8" font-family="Times,serif" font-size="14.00" fill="#222222">FLOAT(d)</text>
</g>
<!-- AddMul_3&#45;&gt;O_4 -->
<g id="edge4" class="edge">
<title>AddMul_3&#45;&gt;O_4</title>
<path fill="none" stroke="black" d="M140,-54.84C140,-52.77 140,-50.66 140,-48.56"/>
<polygon fill="black" stroke="black" points="140,-38.36 144.5,-48.36 140,-43.36 140,-48.36 140,-48.36 140,-48.36 140,-43.36 135.5,-48.36 140,-38.36 140,-38.36"/>
</g>
</g>
</svg>
