<?xml version="1.0" encoding="UTF-8" standalone="no"?>
<!DOCTYPE svg PUBLIC "-//W3C//DTD SVG 1.1//EN"
 "http://www.w3.org/Graphics/SVG/1.1/DTD/svg11.dtd">
<!-- Generated by graphviz version 2.43.0 (0)
 -->
<!-- Title: %3 Pages: 1 -->
<svg width="173pt" height="163pt"
 viewBox="0.00 0.00 173.00 163.00" xmlns="http://www.w3.org/2000/svg" xmlns:xlink="http://www.w3.org/1999/xlink">
<g id="graph0" class="graph" transform="scale(1 1) rotate(0) translate(4 159)">
<title>%3</title>
<!-- I_0 -->
<g id="node1" class="node">
<title>I_0</title>
<path fill="#aaeeaa" stroke="#888888" d="M153,-155C153,-155 12,-155 12,-155 6,-155 0,-149 0,-143 0,-143 0,-129 0,-129 0,-123 6,-117 12,-117 12,-117 153,-117 153,-117 159,-117 165,-123 165,-129 165,-129 165,-143 165,-143 165,-149 159,-155 153,-155"/>
<text text-anchor="middle" x="82.5" y="-139.8" font-family="Times,serif" font-size="14.00" fill="#222222">linear_73</text>
<text text-anchor="middle" x="82.5" y="-124.8" font-family="Times,serif" font-size="14.00" fill="#222222">FLOAT16(4,512,128)</text>
</g>
<!-- Gelu_1 -->
<g id="node2" class="node">
<title>Gelu_1</title>
<path fill="#cccccc" stroke="#888888" d="M131.5,-93C131.5,-93 33.5,-93 33.5,-93 27.5,-93 21.5,-87 21.5,-81 21.5,-81 21.5,-67 21.5,-67 21.5,-61 27.5,-55 33.5,-55 33.5,-55 131.5,-55 131.5,-55 137.5,-55 143.5,-61 143.5,-67 143.5,-67 143.5,-81 143.5,-81 143.5,-87 137.5,-93 131.5,-93"/>
<text text-anchor="middle" x="82.5" y="-77.8" font-family="Times,serif" font-size="14.00" fill="#222222">com.microsoft.</text>
<text text-anchor="middle" x="82.5" y="-62.8" font-family="Times,serif" font-size="14.00" fill="#222222">Gelu(.)</text>
</g>
<!-- I_0&#45;&gt;Gelu_1 -->
<g id="edge1" class="edge">
<title>I_0&#45;&gt;Gelu_1</title>
<path fill="none" stroke="black" d="M82.5,-117C82.5,-112.8 82.5,-108.24 82.5,-103.71"/>
<polygon fill="black" stroke="black" points="82.5,-93.4 87,-103.4 82.5,-98.4 82.5,-103.4 82.5,-103.4 82.5,-103.4 82.5,-98.4 78,-103.4 82.5,-93.4 82.5,-93.4"/>
<text text-anchor="middle" x="120.5" y="-103.4" font-family="Times,serif" font-size="7.00">FLOAT16(4,512,128)</text>
</g>
<!-- O_2 -->
<g id="node3" class="node">
<title>O_2</title>
<path fill="#aaaaee" stroke="#888888" d="M153,-38C153,-38 12,-38 12,-38 6,-38 0,-32 0,-26 0,-26 0,-12 0,-12 0,-6 6,0 12,0 12,0 153,0 153,0 159,0 165,-6 165,-12 165,-12 165,-26 165,-26 165,-32 159,-38 153,-38"/>
<text text-anchor="middle" x="82.5" y="-22.8" font-family="Times,serif" font-size="14.00" fill="#222222">mul_52</text>
<text text-anchor="middle" x="82.5" y="-7.8" font-family="Times,serif" font-size="14.00" fill="#222222">FLOAT16(4,512,128)</text>
</g>
<!-- Gelu_1&#45;&gt;O_2 -->
<g id="edge2" class="edge">
<title>Gelu_1&#45;&gt;O_2</title>
<path fill="none" stroke="black" d="M82.5,-54.76C82.5,-52.66 82.5,-50.47 82.5,-48.27"/>
<polygon fill="black" stroke="black" points="82.5,-38.09 87,-48.09 82.5,-43.09 82.5,-48.09 82.5,-48.09 82.5,-48.09 82.5,-43.09 78,-48.09 82.5,-38.09 82.5,-38.09"/>
</g>
</g>
</svg>
