<?xml version="1.0" encoding="UTF-8" standalone="no"?>
<!DOCTYPE svg PUBLIC "-//W3C//DTD SVG 1.1//EN"
 "http://www.w3.org/Graphics/SVG/1.1/DTD/svg11.dtd">
<!-- Generated by graphviz version 2.43.0 (0)
 -->
<!-- Title: %3 Pages: 1 -->
<svg width="175pt" height="221pt"
 viewBox="0.00 0.00 175.00 221.00" xmlns="http://www.w3.org/2000/svg" xmlns:xlink="http://www.w3.org/1999/xlink">
<g id="graph0" class="graph" transform="scale(1 1) rotate(0) translate(4 217)">
<title>%3</title>
<!-- I_0 -->
<g id="node1" class="node">
<title>I_0</title>
<path fill="#aaeeaa" stroke="#888888" d="M115.5,-213C115.5,-213 42.5,-213 42.5,-213 36.5,-213 30.5,-207 30.5,-201 30.5,-201 30.5,-187 30.5,-187 30.5,-181 36.5,-175 42.5,-175 42.5,-175 115.5,-175 115.5,-175 121.5,-175 127.5,-181 127.5,-187 127.5,-187 127.5,-201 127.5,-201 127.5,-207 121.5,-213 115.5,-213"/>
<text text-anchor="middle" x="79" y="-197.8" font-family="Times,serif" font-size="14.00" fill="#222222">X</text>
<text text-anchor="middle" x="79" y="-182.8" font-family="Times,serif" font-size="14.00" fill="#222222">FLOAT(a,b)</text>
</g>
<!-- Split_1 -->
<g id="node2" class="node">
<title>Split_1</title>
<path fill="#cccccc" stroke="#888888" d="M131,-151C131,-151 27,-151 27,-151 21,-151 15,-145 15,-139 15,-139 15,-127 15,-127 15,-121 21,-115 27,-115 27,-115 131,-115 131,-115 137,-115 143,-121 143,-127 143,-127 143,-139 143,-139 143,-145 137,-151 131,-151"/>
<text text-anchor="middle" x="79" y="-129.3" font-family="Times,serif" font-size="14.00" fill="#222222">Split(., axis=&#45;1)</text>
</g>
<!-- I_0&#45;&gt;Split_1 -->
<g id="edge1" class="edge">
<title>I_0&#45;&gt;Split_1</title>
<path fill="none" stroke="black" d="M79,-174.98C79,-170.71 79,-166.06 79,-161.47"/>
<polygon fill="black" stroke="black" points="79,-151.1 83.5,-161.1 79,-156.1 79,-161.1 79,-161.1 79,-161.1 79,-156.1 74.5,-161.1 79,-151.1 79,-151.1"/>
<text text-anchor="middle" x="100" y="-161.4" font-family="Times,serif" font-size="7.00">FLOAT(a,b)</text>
</g>
<!-- Concat_2 -->
<g id="node3" class="node">
<title>Concat_2</title>
<path fill="#cccccc" stroke="#888888" d="M146,-91C146,-91 12,-91 12,-91 6,-91 0,-85 0,-79 0,-79 0,-67 0,-67 0,-61 6,-55 12,-55 12,-55 146,-55 146,-55 152,-55 158,-61 158,-67 158,-67 158,-79 158,-79 158,-85 152,-91 146,-91"/>
<text text-anchor="middle" x="79" y="-69.3" font-family="Times,serif" font-size="14.00" fill="#222222">Concat(., ., axis=&#45;1)</text>
</g>
<!-- Split_1&#45;&gt;Concat_2 -->
<g id="edge2" class="edge">
<title>Split_1&#45;&gt;Concat_2</title>
<path fill="none" stroke="black" d="M79,-114.91C79,-110.7 79,-106.09 79,-101.52"/>
<polygon fill="black" stroke="black" points="79,-91.17 83.5,-101.17 79,-96.17 79,-101.17 79,-101.17 79,-101.17 79,-96.17 74.5,-101.17 79,-91.17 79,-91.17"/>
<text text-anchor="middle" x="123" y="-101.4" font-family="Times,serif" font-size="7.00">FLOAT(a,CeilToInt(b,2))</text>
</g>
<!-- O_3 -->
<g id="node4" class="node">
<title>O_3</title>
<path fill="#aaaaee" stroke="#888888" d="M115.5,-38C115.5,-38 42.5,-38 42.5,-38 36.5,-38 30.5,-32 30.5,-26 30.5,-26 30.5,-12 30.5,-12 30.5,-6 36.5,0 42.5,0 42.5,0 115.5,0 115.5,0 121.5,0 127.5,-6 127.5,-12 127.5,-12 127.5,-26 127.5,-26 127.5,-32 121.5,-38 115.5,-38"/>
<text text-anchor="middle" x="79" y="-22.8" font-family="Times,serif" font-size="14.00" fill="#222222">Y</text>
<text text-anchor="middle" x="79" y="-7.8" font-family="Times,serif" font-size="14.00" fill="#222222">FLOAT(a,b)</text>
</g>
<!-- Concat_2&#45;&gt;O_3 -->
<g id="edge3" class="edge">
<title>Concat_2&#45;&gt;O_3</title>
<path fill="none" stroke="black" d="M79,-54.97C79,-52.89 79,-50.72 79,-48.53"/>
<polygon fill="black" stroke="black" points="79,-38.32 83.5,-48.32 79,-43.32 79,-48.32 79,-48.32 79,-48.32 79,-43.32 74.5,-48.32 79,-38.32 79,-38.32"/>
</g>
</g>
</svg>
