<?xml version="1.0" encoding="UTF-8" standalone="no"?>
<!DOCTYPE svg PUBLIC "-//W3C//DTD SVG 1.1//EN"
 "http://www.w3.org/Graphics/SVG/1.1/DTD/svg11.dtd">
<!-- Generated by graphviz version 2.43.0 (0)
 -->
<!-- Title: %3 Pages: 1 -->
<svg width="182pt" height="221pt"
 viewBox="0.00 0.00 182.00 221.00" xmlns="http://www.w3.org/2000/svg" xmlns:xlink="http://www.w3.org/1999/xlink">
<g id="graph0" class="graph" transform="scale(1 1) rotate(0) translate(4 217)">
<title>%3</title>
<!-- I_0 -->
<g id="node1" class="node">
<title>I_0</title>
<path fill="#aaeeaa" stroke="#888888" d="M68,-213C68,-213 12,-213 12,-213 6,-213 0,-207 0,-201 0,-201 0,-187 0,-187 0,-181 6,-175 12,-175 12,-175 68,-175 68,-175 74,-175 80,-181 80,-187 80,-187 80,-201 80,-201 80,-207 74,-213 68,-213"/>
<text text-anchor="middle" x="40" y="-197.8" font-family="Times,serif" font-size="14.00" fill="#222222">S2</text>
<text text-anchor="middle" x="40" y="-182.8" font-family="Times,serif" font-size="14.00" fill="#222222">INT64(1)</text>
</g>
<!-- Add_2 -->
<g id="node3" class="node">
<title>Add_2</title>
<path fill="#cccccc" stroke="#888888" d="M111.5,-151C111.5,-151 62.5,-151 62.5,-151 56.5,-151 50.5,-145 50.5,-139 50.5,-139 50.5,-127 50.5,-127 50.5,-121 56.5,-115 62.5,-115 62.5,-115 111.5,-115 111.5,-115 117.5,-115 123.5,-121 123.5,-127 123.5,-127 123.5,-139 123.5,-139 123.5,-145 117.5,-151 111.5,-151"/>
<text text-anchor="middle" x="87" y="-129.3" font-family="Times,serif" font-size="14.00" fill="#222222">Add(., .)</text>
</g>
<!-- I_0&#45;&gt;Add_2 -->
<g id="edge2" class="edge">
<title>I_0&#45;&gt;Add_2</title>
<path fill="none" stroke="black" d="M54.36,-174.98C58.33,-170 62.71,-164.5 66.93,-159.19"/>
<polygon fill="black" stroke="black" points="73.37,-151.1 70.66,-161.73 70.26,-155.02 67.14,-158.93 67.14,-158.93 67.14,-158.93 70.26,-155.02 63.62,-156.12 73.37,-151.1 73.37,-151.1"/>
<text text-anchor="middle" x="84" y="-161.4" font-family="Times,serif" font-size="7.00">INT64(1)</text>
</g>
<!-- I_1 -->
<g id="node2" class="node">
<title>I_1</title>
<path fill="#aaeeaa" stroke="#888888" d="M162,-213C162,-213 106,-213 106,-213 100,-213 94,-207 94,-201 94,-201 94,-187 94,-187 94,-181 100,-175 106,-175 106,-175 162,-175 162,-175 168,-175 174,-181 174,-187 174,-187 174,-201 174,-201 174,-207 168,-213 162,-213"/>
<text text-anchor="middle" x="134" y="-197.8" font-family="Times,serif" font-size="14.00" fill="#222222">S1</text>
<text text-anchor="middle" x="134" y="-182.8" font-family="Times,serif" font-size="14.00" fill="#222222">INT64(1)</text>
</g>
<!-- I_1&#45;&gt;Add_2 -->
<g id="edge1" class="edge">
<title>I_1&#45;&gt;Add_2</title>
<path fill="none" stroke="black" d="M119.64,-174.98C115.67,-170 111.29,-164.5 107.07,-159.19"/>
<polygon fill="black" stroke="black" points="100.63,-151.1 110.38,-156.12 103.74,-155.02 106.86,-158.93 106.86,-158.93 106.86,-158.93 103.74,-155.02 103.34,-161.73 100.63,-151.1 100.63,-151.1"/>
<text text-anchor="middle" x="128" y="-161.4" font-family="Times,serif" font-size="7.00">INT64(1)</text>
</g>
<!-- Squeeze_3 -->
<g id="node4" class="node">
<title>Squeeze_3</title>
<path fill="#eeeeee" stroke="#888888" d="M121,-91C121,-91 53,-91 53,-91 47,-91 41,-85 41,-79 41,-79 41,-67 41,-67 41,-61 47,-55 53,-55 53,-55 121,-55 121,-55 127,-55 133,-61 133,-67 133,-67 133,-79 133,-79 133,-85 127,-91 121,-91"/>
<text text-anchor="middle" x="87" y="-69.3" font-family="Times,serif" font-size="14.00" fill="#222222">Squeeze(.)</text>
</g>
<!-- Add_2&#45;&gt;Squeeze_3 -->
<g id="edge3" class="edge">
<title>Add_2&#45;&gt;Squeeze_3</title>
<path fill="none" stroke="black" d="M87,-114.91C87,-110.7 87,-106.09 87,-101.52"/>
<polygon fill="black" stroke="black" points="87,-91.17 91.5,-101.17 87,-96.17 87,-101.17 87,-101.17 87,-101.17 87,-96.17 82.5,-101.17 87,-91.17 87,-91.17"/>
<text text-anchor="middle" x="104" y="-101.4" font-family="Times,serif" font-size="7.00">INT64(1)</text>
</g>
<!-- O_4 -->
<g id="node5" class="node">
<title>O_4</title>
<path fill="#aaaaee" stroke="#888888" d="M110.5,-38C110.5,-38 63.5,-38 63.5,-38 57.5,-38 51.5,-32 51.5,-26 51.5,-26 51.5,-12 51.5,-12 51.5,-6 57.5,0 63.5,0 63.5,0 110.5,0 110.5,0 116.5,0 122.5,-6 122.5,-12 122.5,-12 122.5,-26 122.5,-26 122.5,-32 116.5,-38 110.5,-38"/>
<text text-anchor="middle" x="87" y="-22.8" font-family="Times,serif" font-size="14.00" fill="#222222">s</text>
<text text-anchor="middle" x="87" y="-7.8" font-family="Times,serif" font-size="14.00" fill="#222222">INT64()</text>
</g>
<!-- Squeeze_3&#45;&gt;O_4 -->
<g id="edge4" class="edge">
<title>Squeeze_3&#45;&gt;O_4</title>
<path fill="none" stroke="black" d="M87,-54.97C87,-52.89 87,-50.72 87,-48.53"/>
<polygon fill="black" stroke="black" points="87,-38.32 91.5,-48.32 87,-43.32 87,-48.32 87,-48.32 87,-48.32 87,-43.32 82.5,-48.32 87,-38.32 87,-38.32"/>
</g>
</g>
</svg>
