<?xml version="1.0" encoding="UTF-8" standalone="no"?>
<!DOCTYPE svg PUBLIC "-//W3C//DTD SVG 1.1//EN"
 "http://www.w3.org/Graphics/SVG/1.1/DTD/svg11.dtd">
<!-- Generated by graphviz version 2.43.0 (0)
 -->
<!-- Title: %3 Pages: 1 -->
<svg width="230pt" height="161pt"
 viewBox="0.00 0.00 230.00 161.00" xmlns="http://www.w3.org/2000/svg" xmlns:xlink="http://www.w3.org/1999/xlink">
<g id="graph0" class="graph" transform="scale(1 1) rotate(0) translate(4 157)">
<title>%3</title>
<!-- I_0 -->
<g id="node1" class="node">
<title>I_0</title>
<path fill="#aaeeaa" stroke="#888888" d="M68,-153C68,-153 12,-153 12,-153 6,-153 0,-147 0,-141 0,-141 0,-127 0,-127 0,-121 6,-115 12,-115 12,-115 68,-115 68,-115 74,-115 80,-121 80,-127 80,-127 80,-141 80,-141 80,-147 74,-153 68,-153"/>
<text text-anchor="middle" x="40" y="-137.8" font-family="Times,serif" font-size="14.00" fill="#222222">sh2</text>
<text text-anchor="middle" x="40" y="-122.8" font-family="Times,serif" font-size="14.00" fill="#222222">INT64(3)</text>
</g>
<!-- Reshape_2 -->
<g id="node3" class="node">
<title>Reshape_2</title>
<path fill="#eeeeee" stroke="#888888" d="M140,-91C140,-91 58,-91 58,-91 52,-91 46,-85 46,-79 46,-79 46,-67 46,-67 46,-61 52,-55 58,-55 58,-55 140,-55 140,-55 146,-55 152,-61 152,-67 152,-67 152,-79 152,-79 152,-85 146,-91 140,-91"/>
<text text-anchor="middle" x="99" y="-69.3" font-family="Times,serif" font-size="14.00" fill="#222222">Reshape(., .)</text>
</g>
<!-- I_0&#45;&gt;Reshape_2 -->
<g id="edge2" class="edge">
<title>I_0&#45;&gt;Reshape_2</title>
<path fill="none" stroke="black" d="M58.02,-114.98C63.24,-109.76 69.03,-103.97 74.57,-98.43"/>
<polygon fill="black" stroke="black" points="81.9,-91.1 78.01,-101.36 78.36,-94.64 74.82,-98.18 74.82,-98.18 74.82,-98.18 78.36,-94.64 71.64,-94.99 81.9,-91.1 81.9,-91.1"/>
<text text-anchor="middle" x="91" y="-101.4" font-family="Times,serif" font-size="7.00">INT64(3)</text>
</g>
<!-- I_1 -->
<g id="node2" class="node">
<title>I_1</title>
<path fill="#aaeeaa" stroke="#888888" d="M210,-153C210,-153 106,-153 106,-153 100,-153 94,-147 94,-141 94,-141 94,-127 94,-127 94,-121 100,-115 106,-115 106,-115 210,-115 210,-115 216,-115 222,-121 222,-127 222,-127 222,-141 222,-141 222,-147 216,-153 210,-153"/>
<text text-anchor="middle" x="158" y="-137.8" font-family="Times,serif" font-size="14.00" fill="#222222">X</text>
<text text-anchor="middle" x="158" y="-122.8" font-family="Times,serif" font-size="14.00" fill="#222222">FLOAT(a,b,128)</text>
</g>
<!-- I_1&#45;&gt;Reshape_2 -->
<g id="edge1" class="edge">
<title>I_1&#45;&gt;Reshape_2</title>
<path fill="none" stroke="black" d="M139.98,-114.98C134.76,-109.76 128.97,-103.97 123.43,-98.43"/>
<polygon fill="black" stroke="black" points="116.1,-91.1 126.36,-94.99 119.64,-94.64 123.18,-98.18 123.18,-98.18 123.18,-98.18 119.64,-94.64 119.99,-101.36 116.1,-91.1 116.1,-91.1"/>
<text text-anchor="middle" x="159" y="-101.4" font-family="Times,serif" font-size="7.00">FLOAT(a,b,128)</text>
</g>
<!-- O_3 -->
<g id="node4" class="node">
<title>O_3</title>
<path fill="#aaaaee" stroke="#888888" d="M169.5,-38C169.5,-38 28.5,-38 28.5,-38 22.5,-38 16.5,-32 16.5,-26 16.5,-26 16.5,-12 16.5,-12 16.5,-6 22.5,0 28.5,0 28.5,0 169.5,0 169.5,0 175.5,0 181.5,-6 181.5,-12 181.5,-12 181.5,-26 181.5,-26 181.5,-32 175.5,-38 169.5,-38"/>
<text text-anchor="middle" x="99" y="-22.8" font-family="Times,serif" font-size="14.00" fill="#222222">s2</text>
<text text-anchor="middle" x="99" y="-7.8" font-family="Times,serif" font-size="14.00" fill="#222222">FLOAT(4096,49,128)</text>
</g>
<!-- Reshape_2&#45;&gt;O_3 -->
<g id="edge3" class="edge">
<title>Reshape_2&#45;&gt;O_3</title>
<path fill="none" stroke="black" d="M99,-54.97C99,-52.89 99,-50.72 99,-48.53"/>
<polygon fill="black" stroke="black" points="99,-38.32 103.5,-48.32 99,-43.32 99,-48.32 99,-48.32 99,-48.32 99,-43.32 94.5,-48.32 99,-38.32 99,-38.32"/>
</g>
</g>
</svg>
