<?xml version="1.0" encoding="UTF-8" standalone="no"?>
<!DOCTYPE svg PUBLIC "-//W3C//DTD SVG 1.1//EN"
 "http://www.w3.org/Graphics/SVG/1.1/DTD/svg11.dtd">
<!-- Generated by graphviz version 2.43.0 (0)
 -->
<!-- Title: %3 Pages: 1 -->
<svg width="173pt" height="161pt"
 viewBox="0.00 0.00 173.00 161.00" xmlns="http://www.w3.org/2000/svg" xmlns:xlink="http://www.w3.org/1999/xlink">
<g id="graph0" class="graph" transform="scale(1 1) rotate(0) translate(4 157)">
<title>%3</title>
<!-- I_0 -->
<g id="node1" class="node">
<title>I_0</title>
<path fill="#aaeeaa" stroke="#888888" d="M153,-153C153,-153 12,-153 12,-153 6,-153 0,-147 0,-141 0,-141 0,-127 0,-127 0,-121 6,-115 12,-115 12,-115 153,-115 153,-115 159,-115 165,-121 165,-127 165,-127 165,-141 165,-141 165,-147 159,-153 153,-153"/>
<text text-anchor="middle" x="82.5" y="-137.8" font-family="Times,serif" font-size="14.00" fill="#222222">_onx_add02</text>
<text text-anchor="middle" x="82.5" y="-122.8" font-family="Times,serif" font-size="14.00" fill="#222222">FLOAT16(4,512,128)</text>
</g>
<!-- Identity_1 -->
<g id="node2" class="node">
<title>Identity_1</title>
<path fill="#cccccc" stroke="#888888" d="M114.5,-91C114.5,-91 50.5,-91 50.5,-91 44.5,-91 38.5,-85 38.5,-79 38.5,-79 38.5,-67 38.5,-67 38.5,-61 44.5,-55 50.5,-55 50.5,-55 114.5,-55 114.5,-55 120.5,-55 126.5,-61 126.5,-67 126.5,-67 126.5,-79 126.5,-79 126.5,-85 120.5,-91 114.5,-91"/>
<text text-anchor="middle" x="82.5" y="-69.3" font-family="Times,serif" font-size="14.00" fill="#222222">Identity(.)</text>
</g>
<!-- I_0&#45;&gt;Identity_1 -->
<g id="edge1" class="edge">
<title>I_0&#45;&gt;Identity_1</title>
<path fill="none" stroke="black" d="M82.5,-114.98C82.5,-110.71 82.5,-106.06 82.5,-101.47"/>
<polygon fill="black" stroke="black" points="82.5,-91.1 87,-101.1 82.5,-96.1 82.5,-101.1 82.5,-101.1 82.5,-101.1 82.5,-96.1 78,-101.1 82.5,-91.1 82.5,-91.1"/>
<text text-anchor="middle" x="120.5" y="-101.4" font-family="Times,serif" font-size="7.00">FLOAT16(4,512,128)</text>
</g>
<!-- O_2 -->
<g id="node3" class="node">
<title>O_2</title>
<path fill="#aaaaee" stroke="#888888" d="M153,-38C153,-38 12,-38 12,-38 6,-38 0,-32 0,-26 0,-26 0,-12 0,-12 0,-6 6,0 12,0 12,0 153,0 153,0 159,0 165,-6 165,-12 165,-12 165,-26 165,-26 165,-32 159,-38 153,-38"/>
<text text-anchor="middle" x="82.5" y="-22.8" font-family="Times,serif" font-size="14.00" fill="#222222">dropout</text>
<text text-anchor="middle" x="82.5" y="-7.8" font-family="Times,serif" font-size="14.00" fill="#222222">FLOAT16(4,512,128)</text>
</g>
<!-- Identity_1&#45;&gt;O_2 -->
<g id="edge2" class="edge">
<title>Identity_1&#45;&gt;O_2</title>
<path fill="none" stroke="black" d="M82.5,-54.97C82.5,-52.89 82.5,-50.72 82.5,-48.53"/>
<polygon fill="black" stroke="black" points="82.5,-38.32 87,-48.32 82.5,-43.32 82.5,-48.32 82.5,-48.32 82.5,-48.32 82.5,-43.32 78,-48.32 82.5,-38.32 82.5,-38.32"/>
</g>
</g>
</svg>
