<?xml version="1.0" encoding="UTF-8" standalone="no"?>
<!DOCTYPE svg PUBLIC "-//W3C//DTD SVG 1.1//EN"
 "http://www.w3.org/Graphics/SVG/1.1/DTD/svg11.dtd">
<!-- Generated by graphviz version 2.43.0 (0)
 -->
<!-- Title: %3 Pages: 1 -->
<svg width="247pt" height="223pt"
 viewBox="0.00 0.00 246.50 223.00" xmlns="http://www.w3.org/2000/svg" xmlns:xlink="http://www.w3.org/1999/xlink">
<g id="graph0" class="graph" transform="scale(1 1) rotate(0) translate(4 219)">
<title>%3</title>
<!-- I_0 -->
<g id="node1" class="node">
<title>I_0</title>
<path fill="#aaeeaa" stroke="#888888" d="M72,-215C72,-215 12,-215 12,-215 6,-215 0,-209 0,-203 0,-203 0,-189 0,-189 0,-183 6,-177 12,-177 12,-177 72,-177 72,-177 78,-177 84,-183 84,-189 84,-189 84,-203 84,-203 84,-209 78,-215 72,-215"/>
<text text-anchor="middle" x="42" y="-199.8" font-family="Times,serif" font-size="14.00" fill="#222222">scale</text>
<text text-anchor="middle" x="42" y="-184.8" font-family="Times,serif" font-size="14.00" fill="#222222">FLOAT(3)</text>
</g>
<!-- Mul_3 -->
<g id="node4" class="node">
<title>Mul_3</title>
<path fill="#cccccc" stroke="#888888" d="M115.5,-152C115.5,-152 66.5,-152 66.5,-152 60.5,-152 54.5,-146 54.5,-140 54.5,-140 54.5,-128 54.5,-128 54.5,-122 60.5,-116 66.5,-116 66.5,-116 115.5,-116 115.5,-116 121.5,-116 127.5,-122 127.5,-128 127.5,-128 127.5,-140 127.5,-140 127.5,-146 121.5,-152 115.5,-152"/>
<text text-anchor="middle" x="91" y="-130.3" font-family="Times,serif" font-size="14.00" fill="#222222">Mul(., .)</text>
</g>
<!-- I_0&#45;&gt;Mul_3 -->
<g id="edge2" class="edge">
<title>I_0&#45;&gt;Mul_3</title>
<path fill="none" stroke="black" d="M56.7,-177C61.02,-171.71 65.82,-165.83 70.44,-160.18"/>
<polygon fill="black" stroke="black" points="76.98,-152.17 74.14,-162.76 73.82,-156.04 70.66,-159.91 70.66,-159.91 70.66,-159.91 73.82,-156.04 67.17,-157.06 76.98,-152.17 76.98,-152.17"/>
<text text-anchor="middle" x="87.5" y="-163.4" font-family="Times,serif" font-size="7.00">FLOAT(3)</text>
</g>
<!-- I_1 -->
<g id="node2" class="node">
<title>I_1</title>
<path fill="#aaeeaa" stroke="#888888" d="M226.5,-153C226.5,-153 153.5,-153 153.5,-153 147.5,-153 141.5,-147 141.5,-141 141.5,-141 141.5,-127 141.5,-127 141.5,-121 147.5,-115 153.5,-115 153.5,-115 226.5,-115 226.5,-115 232.5,-115 238.5,-121 238.5,-127 238.5,-127 238.5,-141 238.5,-141 238.5,-147 232.5,-153 226.5,-153"/>
<text text-anchor="middle" x="190" y="-137.8" font-family="Times,serif" font-size="14.00" fill="#222222">X</text>
<text text-anchor="middle" x="190" y="-122.8" font-family="Times,serif" font-size="14.00" fill="#222222">FLOAT(a,b)</text>
</g>
<!-- LayerNormalization_4 -->
<g id="node5" class="node">
<title>LayerNormalization_4</title>
<path fill="#cccccc" stroke="#888888" d="M222.5,-91C222.5,-91 59.5,-91 59.5,-91 53.5,-91 47.5,-85 47.5,-79 47.5,-79 47.5,-67 47.5,-67 47.5,-61 53.5,-55 59.5,-55 59.5,-55 222.5,-55 222.5,-55 228.5,-55 234.5,-61 234.5,-67 234.5,-67 234.5,-79 234.5,-79 234.5,-85 228.5,-91 222.5,-91"/>
<text text-anchor="middle" x="141" y="-69.3" font-family="Times,serif" font-size="14.00" fill="#222222">LayerNormalization(., .)</text>
</g>
<!-- I_1&#45;&gt;LayerNormalization_4 -->
<g id="edge3" class="edge">
<title>I_1&#45;&gt;LayerNormalization_4</title>
<path fill="none" stroke="black" d="M175.03,-114.98C170.8,-109.88 166.11,-104.23 161.6,-98.81"/>
<polygon fill="black" stroke="black" points="155.21,-91.1 165.06,-95.92 158.4,-94.95 161.59,-98.8 161.59,-98.8 161.59,-98.8 158.4,-94.95 158.13,-101.67 155.21,-91.1 155.21,-91.1"/>
<text text-anchor="middle" x="187" y="-101.4" font-family="Times,serif" font-size="7.00">FLOAT(a,b)</text>
</g>
<!-- I_2 -->
<g id="node3" class="node">
<title>I_2</title>
<path fill="#aaeeaa" stroke="#888888" d="M170,-215C170,-215 110,-215 110,-215 104,-215 98,-209 98,-203 98,-203 98,-189 98,-189 98,-183 104,-177 110,-177 110,-177 170,-177 170,-177 176,-177 182,-183 182,-189 182,-189 182,-203 182,-203 182,-209 176,-215 170,-215"/>
<text text-anchor="middle" x="140" y="-199.8" font-family="Times,serif" font-size="14.00" fill="#222222">s0</text>
<text text-anchor="middle" x="140" y="-184.8" font-family="Times,serif" font-size="14.00" fill="#222222">FLOAT(3)</text>
</g>
<!-- I_2&#45;&gt;Mul_3 -->
<g id="edge1" class="edge">
<title>I_2&#45;&gt;Mul_3</title>
<path fill="none" stroke="black" d="M125.3,-177C120.98,-171.71 116.18,-165.83 111.56,-160.18"/>
<polygon fill="black" stroke="black" points="105.02,-152.17 114.83,-157.06 108.18,-156.04 111.34,-159.91 111.34,-159.91 111.34,-159.91 108.18,-156.04 107.86,-162.76 105.02,-152.17 105.02,-152.17"/>
<text text-anchor="middle" x="135.5" y="-163.4" font-family="Times,serif" font-size="7.00">FLOAT(3)</text>
</g>
<!-- Mul_3&#45;&gt;LayerNormalization_4 -->
<g id="edge4" class="edge">
<title>Mul_3&#45;&gt;LayerNormalization_4</title>
<path fill="none" stroke="black" d="M105.46,-115.93C109.88,-110.72 114.84,-104.87 119.61,-99.24"/>
<polygon fill="black" stroke="black" points="126.4,-91.23 123.37,-101.77 123.16,-95.05 119.93,-98.86 119.93,-98.86 119.93,-98.86 123.16,-95.05 116.5,-95.95 126.4,-91.23 126.4,-91.23"/>
<text text-anchor="middle" x="135.5" y="-101.4" font-family="Times,serif" font-size="7.00">FLOAT(3)</text>
</g>
<!-- O_5 -->
<g id="node6" class="node">
<title>O_5</title>
<path fill="#aaaaee" stroke="#888888" d="M177.5,-38C177.5,-38 104.5,-38 104.5,-38 98.5,-38 92.5,-32 92.5,-26 92.5,-26 92.5,-12 92.5,-12 92.5,-6 98.5,0 104.5,0 104.5,0 177.5,0 177.5,0 183.5,0 189.5,-6 189.5,-12 189.5,-12 189.5,-26 189.5,-26 189.5,-32 183.5,-38 177.5,-38"/>
<text text-anchor="middle" x="141" y="-22.8" font-family="Times,serif" font-size="14.00" fill="#222222">Y</text>
<text text-anchor="middle" x="141" y="-7.8" font-family="Times,serif" font-size="14.00" fill="#222222">FLOAT(a,b)</text>
</g>
<!-- LayerNormalization_4&#45;&gt;O_5 -->
<g id="edge5" class="edge">
<title>LayerNormalization_4&#45;&gt;O_5</title>
<path fill="none" stroke="black" d="M141,-54.97C141,-52.89 141,-50.72 141,-48.53"/>
<polygon fill="black" stroke="black" points="141,-38.32 145.5,-48.32 141,-43.32 141,-48.32 141,-48.32 141,-48.32 141,-43.32 136.5,-48.32 141,-38.32 141,-38.32"/>
</g>
</g>
</svg>
