<?xml version="1.0" encoding="UTF-8" standalone="no"?>
<!DOCTYPE svg PUBLIC "-//W3C//DTD SVG 1.1//EN"
 "http://www.w3.org/Graphics/SVG/1.1/DTD/svg11.dtd">
<!-- Generated by graphviz version 2.43.0 (0)
 -->
<!-- Title: %3 Pages: 1 -->
<svg width="368pt" height="214pt"
 viewBox="0.00 0.00 368.00 214.00" xmlns="http://www.w3.org/2000/svg" xmlns:xlink="http://www.w3.org/1999/xlink">
<g id="graph0" class="graph" transform="scale(1 1) rotate(0) translate(4 210)">
<title>%3</title>
<!-- I_0 -->
<g id="node1" class="node">
<title>I_0</title>
<path fill="#aaeeaa" stroke="#888888" d="M85,-206C85,-206 12,-206 12,-206 6,-206 0,-200 0,-194 0,-194 0,-180 0,-180 0,-174 6,-168 12,-168 12,-168 85,-168 85,-168 91,-168 97,-174 97,-180 97,-180 97,-194 97,-194 97,-200 91,-206 85,-206"/>
<text text-anchor="middle" x="48.5" y="-190.8" font-family="Times,serif" font-size="14.00" fill="#222222">X</text>
<text text-anchor="middle" x="48.5" y="-175.8" font-family="Times,serif" font-size="14.00" fill="#222222">FLOAT(a,b)</text>
</g>
<!-- TopK_2 -->
<g id="node3" class="node">
<title>TopK_2</title>
<path fill="#cccccc" stroke="#888888" d="M279.5,-144C279.5,-144 163.5,-144 163.5,-144 157.5,-144 151.5,-138 151.5,-132 151.5,-132 151.5,-120 151.5,-120 151.5,-114 157.5,-108 163.5,-108 163.5,-108 279.5,-108 279.5,-108 285.5,-108 291.5,-114 291.5,-120 291.5,-120 291.5,-132 291.5,-132 291.5,-138 285.5,-144 279.5,-144"/>
<text text-anchor="middle" x="221.5" y="-122.3" font-family="Times,serif" font-size="14.00" fill="#222222">TopK(., ., axis=1)</text>
</g>
<!-- I_0&#45;&gt;TopK_2 -->
<g id="edge1" class="edge">
<title>I_0&#45;&gt;TopK_2</title>
<path fill="none" stroke="black" d="M97.15,-169.41C117.26,-162.55 140.76,-154.53 161.89,-147.33"/>
<polygon fill="black" stroke="black" points="171.41,-144.08 163.4,-151.57 166.68,-145.7 161.95,-147.31 161.95,-147.31 161.95,-147.31 166.68,-145.7 160.49,-143.05 171.41,-144.08 171.41,-144.08"/>
<text text-anchor="middle" x="166.5" y="-154.4" font-family="Times,serif" font-size="7.00">FLOAT(a,b)</text>
</g>
<!-- I_1 -->
<g id="node2" class="node">
<title>I_1</title>
<path fill="#aaeeaa" stroke="#888888" d="M249.5,-206C249.5,-206 193.5,-206 193.5,-206 187.5,-206 181.5,-200 181.5,-194 181.5,-194 181.5,-180 181.5,-180 181.5,-174 187.5,-168 193.5,-168 193.5,-168 249.5,-168 249.5,-168 255.5,-168 261.5,-174 261.5,-180 261.5,-180 261.5,-194 261.5,-194 261.5,-200 255.5,-206 249.5,-206"/>
<text text-anchor="middle" x="221.5" y="-190.8" font-family="Times,serif" font-size="14.00" fill="#222222">one</text>
<text text-anchor="middle" x="221.5" y="-175.8" font-family="Times,serif" font-size="14.00" fill="#222222">INT64(1)</text>
</g>
<!-- I_1&#45;&gt;TopK_2 -->
<g id="edge2" class="edge">
<title>I_1&#45;&gt;TopK_2</title>
<path fill="none" stroke="black" d="M221.5,-167.98C221.5,-163.71 221.5,-159.06 221.5,-154.47"/>
<polygon fill="black" stroke="black" points="221.5,-144.1 226,-154.1 221.5,-149.1 221.5,-154.1 221.5,-154.1 221.5,-154.1 221.5,-149.1 217,-154.1 221.5,-144.1 221.5,-144.1"/>
<text text-anchor="middle" x="238.5" y="-154.4" font-family="Times,serif" font-size="7.00">INT64(1)</text>
</g>
<!-- Squeeze_3 -->
<g id="node4" class="node">
<title>Squeeze_3</title>
<path fill="#eeeeee" stroke="#888888" d="M348,-91C348,-91 267,-91 267,-91 261,-91 255,-85 255,-79 255,-79 255,-67 255,-67 255,-61 261,-55 267,-55 267,-55 348,-55 348,-55 354,-55 360,-61 360,-67 360,-67 360,-79 360,-79 360,-85 354,-91 348,-91"/>
<text text-anchor="middle" x="307.5" y="-69.3" font-family="Times,serif" font-size="14.00" fill="#222222">Squeeze(., .)</text>
</g>
<!-- I_1&#45;&gt;Squeeze_3 -->
<g id="edge4" class="edge">
<title>I_1&#45;&gt;Squeeze_3</title>
<path fill="none" stroke="black" d="M261.65,-172.8C275.45,-166.28 289.65,-156.95 298.5,-144 306.99,-131.59 309.4,-114.99 309.62,-101.07"/>
<polygon fill="black" stroke="black" points="309.42,-91.06 314.12,-100.97 309.52,-96.06 309.62,-101.06 309.62,-101.06 309.62,-101.06 309.52,-96.06 305.12,-101.15 309.42,-91.06 309.42,-91.06"/>
<text text-anchor="middle" x="325.5" y="-124.4" font-family="Times,serif" font-size="7.00">INT64(1)</text>
</g>
<!-- Squeeze_4 -->
<g id="node5" class="node">
<title>Squeeze_4</title>
<path fill="#eeeeee" stroke="#888888" d="M205,-91C205,-91 124,-91 124,-91 118,-91 112,-85 112,-79 112,-79 112,-67 112,-67 112,-61 118,-55 124,-55 124,-55 205,-55 205,-55 211,-55 217,-61 217,-67 217,-67 217,-79 217,-79 217,-85 211,-91 205,-91"/>
<text text-anchor="middle" x="164.5" y="-69.3" font-family="Times,serif" font-size="14.00" fill="#222222">Squeeze(., .)</text>
</g>
<!-- I_1&#45;&gt;Squeeze_4 -->
<g id="edge6" class="edge">
<title>I_1&#45;&gt;Squeeze_4</title>
<path fill="none" stroke="black" d="M181.42,-182.11C156.54,-177.39 126.37,-166.97 110.5,-144 101.41,-130.84 102.77,-122.01 110.5,-108 112.61,-104.18 115.35,-100.73 118.47,-97.63"/>
<polygon fill="black" stroke="black" points="126.34,-91.01 121.58,-100.89 122.51,-94.23 118.69,-97.45 118.69,-97.45 118.69,-97.45 122.51,-94.23 115.79,-94 126.34,-91.01 126.34,-91.01"/>
<text text-anchor="middle" x="127.5" y="-124.4" font-family="Times,serif" font-size="7.00">INT64(1)</text>
</g>
<!-- TopK_2&#45;&gt;Squeeze_3 -->
<g id="edge3" class="edge">
<title>TopK_2&#45;&gt;Squeeze_3</title>
<path fill="none" stroke="black" d="M250.62,-107.73C256.85,-104.04 263.51,-100.08 270.01,-96.23"/>
<polygon fill="black" stroke="black" points="278.71,-91.08 272.4,-100.05 274.41,-93.63 270.1,-96.18 270.1,-96.18 270.1,-96.18 274.41,-93.63 267.81,-92.31 278.71,-91.08 278.71,-91.08"/>
</g>
<!-- TopK_2&#45;&gt;Squeeze_4 -->
<g id="edge5" class="edge">
<title>TopK_2&#45;&gt;Squeeze_4</title>
<path fill="none" stroke="black" d="M202.2,-107.73C198.67,-104.58 194.93,-101.23 191.24,-97.92"/>
<polygon fill="black" stroke="black" points="183.78,-91.25 194.23,-94.56 187.5,-94.58 191.23,-97.92 191.23,-97.92 191.23,-97.92 187.5,-94.58 188.23,-101.27 183.78,-91.25 183.78,-91.25"/>
</g>
<!-- O_6 -->
<g id="node7" class="node">
<title>O_6</title>
<path fill="#aaaaee" stroke="#888888" d="M337,-38C337,-38 278,-38 278,-38 272,-38 266,-32 266,-26 266,-26 266,-12 266,-12 266,-6 272,0 278,0 278,0 337,0 337,0 343,0 349,-6 349,-12 349,-12 349,-26 349,-26 349,-32 343,-38 337,-38"/>
<text text-anchor="middle" x="307.5" y="-22.8" font-family="Times,serif" font-size="14.00" fill="#222222">Y1</text>
<text text-anchor="middle" x="307.5" y="-7.8" font-family="Times,serif" font-size="14.00" fill="#222222">FLOAT(a)</text>
</g>
<!-- Squeeze_3&#45;&gt;O_6 -->
<g id="edge8" class="edge">
<title>Squeeze_3&#45;&gt;O_6</title>
<path fill="none" stroke="black" d="M307.5,-54.97C307.5,-52.89 307.5,-50.72 307.5,-48.53"/>
<polygon fill="black" stroke="black" points="307.5,-38.32 312,-48.32 307.5,-43.32 307.5,-48.32 307.5,-48.32 307.5,-48.32 307.5,-43.32 303,-48.32 307.5,-38.32 307.5,-38.32"/>
</g>
<!-- O_5 -->
<g id="node6" class="node">
<title>O_5</title>
<path fill="#aaaaee" stroke="#888888" d="M192.5,-38C192.5,-38 136.5,-38 136.5,-38 130.5,-38 124.5,-32 124.5,-26 124.5,-26 124.5,-12 124.5,-12 124.5,-6 130.5,0 136.5,0 136.5,0 192.5,0 192.5,0 198.5,0 204.5,-6 204.5,-12 204.5,-12 204.5,-26 204.5,-26 204.5,-32 198.5,-38 192.5,-38"/>
<text text-anchor="middle" x="164.5" y="-22.8" font-family="Times,serif" font-size="14.00" fill="#222222">Y2</text>
<text text-anchor="middle" x="164.5" y="-7.8" font-family="Times,serif" font-size="14.00" fill="#222222">INT64(a)</text>
</g>
<!-- Squeeze_4&#45;&gt;O_5 -->
<g id="edge7" class="edge">
<title>Squeeze_4&#45;&gt;O_5</title>
<path fill="none" stroke="black" d="M164.5,-54.97C164.5,-52.89 164.5,-50.72 164.5,-48.53"/>
<polygon fill="black" stroke="black" points="164.5,-38.32 169,-48.32 164.5,-43.32 164.5,-48.32 164.5,-48.32 164.5,-48.32 164.5,-43.32 160,-48.32 164.5,-38.32 164.5,-38.32"/>
</g>
</g>
</svg>
