<?xml version="1.0" encoding="UTF-8" standalone="no"?>
<!DOCTYPE svg PUBLIC "-//W3C//DTD SVG 1.1//EN"
 "http://www.w3.org/Graphics/SVG/1.1/DTD/svg11.dtd">
<!-- Generated by graphviz version 2.43.0 (0)
 -->
<!-- Title: %3 Pages: 1 -->
<svg width="142pt" height="161pt"
 viewBox="0.00 0.00 142.00 161.00" xmlns="http://www.w3.org/2000/svg" xmlns:xlink="http://www.w3.org/1999/xlink">
<g id="graph0" class="graph" transform="scale(1 1) rotate(0) translate(4 157)">
<title>%3</title>
<!-- I_0 -->
<g id="node1" class="node">
<title>I_0</title>
<path fill="#aaeeaa" stroke="#888888" d="M122,-153C122,-153 12,-153 12,-153 6,-153 0,-147 0,-141 0,-141 0,-127 0,-127 0,-121 6,-115 12,-115 12,-115 122,-115 122,-115 128,-115 134,-121 134,-127 134,-127 134,-141 134,-141 134,-147 128,-153 122,-153"/>
<text text-anchor="middle" x="67" y="-137.8" font-family="Times,serif" font-size="14.00" fill="#222222">X</text>
<text text-anchor="middle" x="67" y="-122.8" font-family="Times,serif" font-size="14.00" fill="#222222">FLOAT(1024,16)</text>
</g>
<!-- Identity_1 -->
<g id="node2" class="node">
<title>Identity_1</title>
<path fill="#cccccc" stroke="#888888" d="M99,-91C99,-91 35,-91 35,-91 29,-91 23,-85 23,-79 23,-79 23,-67 23,-67 23,-61 29,-55 35,-55 35,-55 99,-55 99,-55 105,-55 111,-61 111,-67 111,-67 111,-79 111,-79 111,-85 105,-91 99,-91"/>
<text text-anchor="middle" x="67" y="-69.3" font-family="Times,serif" font-size="14.00" fill="#222222">Identity(.)</text>
</g>
<!-- I_0&#45;&gt;Identity_1 -->
<g id="edge1" class="edge">
<title>I_0&#45;&gt;Identity_1</title>
<path fill="none" stroke="black" d="M67,-114.98C67,-110.71 67,-106.06 67,-101.47"/>
<polygon fill="black" stroke="black" points="67,-91.1 71.5,-101.1 67,-96.1 67,-101.1 67,-101.1 67,-101.1 67,-96.1 62.5,-101.1 67,-91.1 67,-91.1"/>
<text text-anchor="middle" x="97" y="-101.4" font-family="Times,serif" font-size="7.00">FLOAT(1024,16)</text>
</g>
<!-- O_2 -->
<g id="node3" class="node">
<title>O_2</title>
<path fill="#aaaaee" stroke="#888888" d="M122,-38C122,-38 12,-38 12,-38 6,-38 0,-32 0,-26 0,-26 0,-12 0,-12 0,-6 6,0 12,0 12,0 122,0 122,0 128,0 134,-6 134,-12 134,-12 134,-26 134,-26 134,-32 128,-38 122,-38"/>
<text text-anchor="middle" x="67" y="-22.8" font-family="Times,serif" font-size="14.00" fill="#222222">Y</text>
<text text-anchor="middle" x="67" y="-7.8" font-family="Times,serif" font-size="14.00" fill="#222222">FLOAT(1024,16)</text>
</g>
<!-- Identity_1&#45;&gt;O_2 -->
<g id="edge2" class="edge">
<title>Identity_1&#45;&gt;O_2</title>
<path fill="none" stroke="black" d="M67,-54.97C67,-52.89 67,-50.72 67,-48.53"/>
<polygon fill="black" stroke="black" points="67,-38.32 71.5,-48.32 67,-43.32 67,-48.32 67,-48.32 67,-48.32 67,-43.32 62.5,-48.32 67,-38.32 67,-38.32"/>
</g>
</g>
</svg>
