<?xml version="1.0" encoding="UTF-8" standalone="no"?>
<!DOCTYPE svg PUBLIC "-//W3C//DTD SVG 1.1//EN"
 "http://www.w3.org/Graphics/SVG/1.1/DTD/svg11.dtd">
<!-- Generated by graphviz version 2.43.0 (0)
 -->
<!-- Title: %3 Pages: 1 -->
<svg width="165pt" height="161pt"
 viewBox="0.00 0.00 165.00 161.00" xmlns="http://www.w3.org/2000/svg" xmlns:xlink="http://www.w3.org/1999/xlink">
<g id="graph0" class="graph" transform="scale(1 1) rotate(0) translate(4 157)">
<title>%3</title>
<!-- I_0 -->
<g id="node1" class="node">
<title>I_0</title>
<path fill="#aaeeaa" stroke="#888888" d="M115,-153C115,-153 42,-153 42,-153 36,-153 30,-147 30,-141 30,-141 30,-127 30,-127 30,-121 36,-115 42,-115 42,-115 115,-115 115,-115 121,-115 127,-121 127,-127 127,-127 127,-141 127,-141 127,-147 121,-153 115,-153"/>
<text text-anchor="middle" x="78.5" y="-137.8" font-family="Times,serif" font-size="14.00" fill="#222222">X</text>
<text text-anchor="middle" x="78.5" y="-122.8" font-family="Times,serif" font-size="14.00" fill="#222222">FLOAT(a,b)</text>
</g>
<!-- Unsqueeze_1 -->
<g id="node2" class="node">
<title>Unsqueeze_1</title>
<path fill="#eeeeee" stroke="#888888" d="M145,-91C145,-91 12,-91 12,-91 6,-91 0,-85 0,-79 0,-79 0,-67 0,-67 0,-61 6,-55 12,-55 12,-55 145,-55 145,-55 151,-55 157,-61 157,-67 157,-67 157,-79 157,-79 157,-85 151,-91 145,-91"/>
<text text-anchor="middle" x="78.5" y="-69.3" font-family="Times,serif" font-size="14.00" fill="#222222">Unsqueeze(., [2, 3])</text>
</g>
<!-- I_0&#45;&gt;Unsqueeze_1 -->
<g id="edge1" class="edge">
<title>I_0&#45;&gt;Unsqueeze_1</title>
<path fill="none" stroke="black" d="M78.5,-114.98C78.5,-110.71 78.5,-106.06 78.5,-101.47"/>
<polygon fill="black" stroke="black" points="78.5,-91.1 83,-101.1 78.5,-96.1 78.5,-101.1 78.5,-101.1 78.5,-101.1 78.5,-96.1 74,-101.1 78.5,-91.1 78.5,-91.1"/>
<text text-anchor="middle" x="99.5" y="-101.4" font-family="Times,serif" font-size="7.00">FLOAT(a,b)</text>
</g>
<!-- O_2 -->
<g id="node3" class="node">
<title>O_2</title>
<path fill="#aaaaee" stroke="#888888" d="M128.5,-38C128.5,-38 28.5,-38 28.5,-38 22.5,-38 16.5,-32 16.5,-26 16.5,-26 16.5,-12 16.5,-12 16.5,-6 22.5,0 28.5,0 28.5,0 128.5,0 128.5,0 134.5,0 140.5,-6 140.5,-12 140.5,-12 140.5,-26 140.5,-26 140.5,-32 134.5,-38 128.5,-38"/>
<text text-anchor="middle" x="78.5" y="-22.8" font-family="Times,serif" font-size="14.00" fill="#222222">Y</text>
<text text-anchor="middle" x="78.5" y="-7.8" font-family="Times,serif" font-size="14.00" fill="#222222">FLOAT(1,1,a,b)</text>
</g>
<!-- Unsqueeze_1&#45;&gt;O_2 -->
<g id="edge2" class="edge">
<title>Unsqueeze_1&#45;&gt;O_2</title>
<path fill="none" stroke="black" d="M78.5,-54.97C78.5,-52.89 78.5,-50.72 78.5,-48.53"/>
<polygon fill="black" stroke="black" points="78.5,-38.32 83,-48.32 78.5,-43.32 78.5,-48.32 78.5,-48.32 78.5,-48.32 78.5,-43.32 74,-48.32 78.5,-38.32 78.5,-38.32"/>
</g>
</g>
</svg>
