<?xml version="1.0" encoding="UTF-8" standalone="no"?>
<!DOCTYPE svg PUBLIC "-//W3C//DTD SVG 1.1//EN"
 "http://www.w3.org/Graphics/SVG/1.1/DTD/svg11.dtd">
<!-- Generated by graphviz version 2.43.0 (0)
 -->
<!-- Title: %3 Pages: 1 -->
<svg width="176pt" height="161pt"
 viewBox="0.00 0.00 176.00 161.00" xmlns="http://www.w3.org/2000/svg" xmlns:xlink="http://www.w3.org/1999/xlink">
<g id="graph0" class="graph" transform="scale(1 1) rotate(0) translate(4 157)">
<title>%3</title>
<!-- I_0 -->
<g id="node1" class="node">
<title>I_0</title>
<path fill="#aaeeaa" stroke="#888888" d="M134.5,-153C134.5,-153 33.5,-153 33.5,-153 27.5,-153 21.5,-147 21.5,-141 21.5,-141 21.5,-127 21.5,-127 21.5,-121 27.5,-115 33.5,-115 33.5,-115 134.5,-115 134.5,-115 140.5,-115 146.5,-121 146.5,-127 146.5,-127 146.5,-141 146.5,-141 146.5,-147 140.5,-153 134.5,-153"/>
<text text-anchor="middle" x="84" y="-137.8" font-family="Times,serif" font-size="14.00" fill="#222222">X</text>
<text text-anchor="middle" x="84" y="-122.8" font-family="Times,serif" font-size="14.00" fill="#222222">FLOAT(2,3,d,1)</text>
</g>
<!-- Expand_1 -->
<g id="node2" class="node">
<title>Expand_1</title>
<path fill="#cccccc" stroke="#888888" d="M156,-91C156,-91 12,-91 12,-91 6,-91 0,-85 0,-79 0,-79 0,-67 0,-67 0,-61 6,-55 12,-55 12,-55 156,-55 156,-55 162,-55 168,-61 168,-67 168,-67 168,-79 168,-79 168,-85 162,-91 156,-91"/>
<text text-anchor="middle" x="84" y="-69.3" font-family="Times,serif" font-size="14.00" fill="#222222">Expand(., [1, 1, 1, 2])</text>
</g>
<!-- I_0&#45;&gt;Expand_1 -->
<g id="edge1" class="edge">
<title>I_0&#45;&gt;Expand_1</title>
<path fill="none" stroke="black" d="M84,-114.98C84,-110.71 84,-106.06 84,-101.47"/>
<polygon fill="black" stroke="black" points="84,-91.1 88.5,-101.1 84,-96.1 84,-101.1 84,-101.1 84,-101.1 84,-96.1 79.5,-101.1 84,-91.1 84,-91.1"/>
<text text-anchor="middle" x="111.5" y="-101.4" font-family="Times,serif" font-size="7.00">FLOAT(2,3,d,1)</text>
</g>
<!-- O_2 -->
<g id="node3" class="node">
<title>O_2</title>
<path fill="#aaaaee" stroke="#888888" d="M134.5,-38C134.5,-38 33.5,-38 33.5,-38 27.5,-38 21.5,-32 21.5,-26 21.5,-26 21.5,-12 21.5,-12 21.5,-6 27.5,0 33.5,0 33.5,0 134.5,0 134.5,0 140.5,0 146.5,-6 146.5,-12 146.5,-12 146.5,-26 146.5,-26 146.5,-32 140.5,-38 134.5,-38"/>
<text text-anchor="middle" x="84" y="-22.8" font-family="Times,serif" font-size="14.00" fill="#222222">Y</text>
<text text-anchor="middle" x="84" y="-7.8" font-family="Times,serif" font-size="14.00" fill="#222222">FLOAT(2,3,d,2)</text>
</g>
<!-- Expand_1&#45;&gt;O_2 -->
<g id="edge2" class="edge">
<title>Expand_1&#45;&gt;O_2</title>
<path fill="none" stroke="black" d="M84,-54.97C84,-52.89 84,-50.72 84,-48.53"/>
<polygon fill="black" stroke="black" points="84,-38.32 88.5,-48.32 84,-43.32 84,-48.32 84,-48.32 84,-48.32 84,-43.32 79.5,-48.32 84,-38.32 84,-38.32"/>
</g>
</g>
</svg>
