<?xml version="1.0" encoding="UTF-8" standalone="no"?>
<!DOCTYPE svg PUBLIC "-//W3C//DTD SVG 1.1//EN"
 "http://www.w3.org/Graphics/SVG/1.1/DTD/svg11.dtd">
<!-- Generated by graphviz version 2.43.0 (0)
 -->
<!-- Title: %3 Pages: 1 -->
<svg width="613pt" height="223pt"
 viewBox="0.00 0.00 613.00 223.00" xmlns="http://www.w3.org/2000/svg" xmlns:xlink="http://www.w3.org/1999/xlink">
<g id="graph0" class="graph" transform="scale(1 1) rotate(0) translate(4 219)">
<title>%3</title>
<!-- I_0 -->
<g id="node1" class="node">
<title>I_0</title>
<path fill="#aaeeaa" stroke="#888888" d="M90,-215C90,-215 12,-215 12,-215 6,-215 0,-209 0,-203 0,-203 0,-189 0,-189 0,-183 6,-177 12,-177 12,-177 90,-177 90,-177 96,-177 102,-183 102,-189 102,-189 102,-203 102,-203 102,-209 96,-215 90,-215"/>
<text text-anchor="middle" x="51" y="-199.8" font-family="Times,serif" font-size="14.00" fill="#222222">scale</text>
<text text-anchor="middle" x="51" y="-184.8" font-family="Times,serif" font-size="14.00" fill="#222222">FLOAT(192)</text>
</g>
<!-- I_1 -->
<g id="node2" class="node">
<title>I_1</title>
<path fill="#aaeeaa" stroke="#888888" d="M295.5,-215C295.5,-215 128.5,-215 128.5,-215 122.5,-215 116.5,-209 116.5,-203 116.5,-203 116.5,-189 116.5,-189 116.5,-183 122.5,-177 128.5,-177 128.5,-177 295.5,-177 295.5,-177 301.5,-177 307.5,-183 307.5,-189 307.5,-189 307.5,-203 307.5,-203 307.5,-209 301.5,-215 295.5,-215"/>
<text text-anchor="middle" x="212" y="-199.8" font-family="Times,serif" font-size="14.00" fill="#222222">skip</text>
<text text-anchor="middle" x="212" y="-184.8" font-family="Times,serif" font-size="14.00" fill="#222222">FLOAT(batch,cache,192)</text>
</g>
<!-- Add_4 -->
<g id="node5" class="node">
<title>Add_4</title>
<path fill="#cccccc" stroke="#888888" d="M338.5,-153C338.5,-153 289.5,-153 289.5,-153 283.5,-153 277.5,-147 277.5,-141 277.5,-141 277.5,-129 277.5,-129 277.5,-123 283.5,-117 289.5,-117 289.5,-117 338.5,-117 338.5,-117 344.5,-117 350.5,-123 350.5,-129 350.5,-129 350.5,-141 350.5,-141 350.5,-147 344.5,-153 338.5,-153"/>
<text text-anchor="middle" x="314" y="-131.3" font-family="Times,serif" font-size="14.00" fill="#222222">Add(., .)</text>
</g>
<!-- I_1&#45;&gt;Add_4 -->
<g id="edge2" class="edge">
<title>I_1&#45;&gt;Add_4</title>
<path fill="none" stroke="black" d="M243.16,-176.98C253.41,-171.05 264.93,-164.38 275.65,-158.18"/>
<polygon fill="black" stroke="black" points="284.43,-153.1 278.03,-162.01 280.1,-155.61 275.77,-158.11 275.77,-158.11 275.77,-158.11 280.1,-155.61 273.52,-154.22 284.43,-153.1 284.43,-153.1"/>
<text text-anchor="middle" x="315" y="-163.4" font-family="Times,serif" font-size="7.00">FLOAT(batch,cache,192)</text>
</g>
<!-- I_2 -->
<g id="node3" class="node">
<title>I_2</title>
<path fill="#aaeeaa" stroke="#888888" d="M500.5,-215C500.5,-215 333.5,-215 333.5,-215 327.5,-215 321.5,-209 321.5,-203 321.5,-203 321.5,-189 321.5,-189 321.5,-183 327.5,-177 333.5,-177 333.5,-177 500.5,-177 500.5,-177 506.5,-177 512.5,-183 512.5,-189 512.5,-189 512.5,-203 512.5,-203 512.5,-209 506.5,-215 500.5,-215"/>
<text text-anchor="middle" x="417" y="-199.8" font-family="Times,serif" font-size="14.00" fill="#222222">X</text>
<text text-anchor="middle" x="417" y="-184.8" font-family="Times,serif" font-size="14.00" fill="#222222">FLOAT(batch,cache,192)</text>
</g>
<!-- I_2&#45;&gt;Add_4 -->
<g id="edge1" class="edge">
<title>I_2&#45;&gt;Add_4</title>
<path fill="none" stroke="black" d="M389.26,-176.87C380.92,-171.59 371.67,-165.93 363,-161 361.26,-160.01 359.47,-159.01 357.66,-158.02"/>
<polygon fill="black" stroke="black" points="348.48,-153.1 359.42,-153.86 352.88,-155.46 357.29,-157.82 357.29,-157.82 357.29,-157.82 352.88,-155.46 355.16,-161.79 348.48,-153.1 348.48,-153.1"/>
<text text-anchor="middle" x="421" y="-163.4" font-family="Times,serif" font-size="7.00">FLOAT(batch,cache,192)</text>
</g>
<!-- Constant_3 -->
<g id="node4" class="node">
<title>Constant_3</title>
<path fill="#cccccc" stroke="#888888" d="M554.5,-153C554.5,-153 425.5,-153 425.5,-153 419.5,-153 413.5,-147 413.5,-141 413.5,-141 413.5,-129 413.5,-129 413.5,-123 419.5,-117 425.5,-117 425.5,-117 554.5,-117 554.5,-117 560.5,-117 566.5,-123 566.5,-129 566.5,-129 566.5,-141 566.5,-141 566.5,-147 560.5,-153 554.5,-153"/>
<text text-anchor="middle" x="490" y="-131.3" font-family="Times,serif" font-size="14.00" fill="#222222">Constant() &#45;&gt; scale</text>
</g>
<!-- SimplifiedLayerNormalization_5 -->
<g id="node6" class="node">
<title>SimplifiedLayerNormalization_5</title>
<path fill="#cccccc" stroke="#888888" d="M593,-93C593,-93 387,-93 387,-93 381,-93 375,-87 375,-81 375,-81 375,-67 375,-67 375,-61 381,-55 387,-55 387,-55 593,-55 593,-55 599,-55 605,-61 605,-67 605,-67 605,-81 605,-81 605,-87 599,-93 593,-93"/>
<text text-anchor="middle" x="490" y="-77.8" font-family="Times,serif" font-size="14.00" fill="#222222">SimplifiedLayerNormalization</text>
<text text-anchor="middle" x="490" y="-62.8" font-family="Times,serif" font-size="14.00" fill="#222222">(., ., axis=&#45;1)</text>
</g>
<!-- Constant_3&#45;&gt;SimplifiedLayerNormalization_5 -->
<g id="edge4" class="edge">
<title>Constant_3&#45;&gt;SimplifiedLayerNormalization_5</title>
<path fill="none" stroke="black" d="M490,-116.93C490,-112.61 490,-107.84 490,-103.12"/>
<polygon fill="black" stroke="black" points="490,-93.06 494.5,-103.06 490,-98.06 490,-103.06 490,-103.06 490,-103.06 490,-98.06 485.5,-103.06 490,-93.06 490,-93.06"/>
<text text-anchor="middle" x="512" y="-103.4" font-family="Times,serif" font-size="7.00">FLOAT(192)</text>
</g>
<!-- Add_4&#45;&gt;SimplifiedLayerNormalization_5 -->
<g id="edge3" class="edge">
<title>Add_4&#45;&gt;SimplifiedLayerNormalization_5</title>
<path fill="none" stroke="black" d="M350.87,-118.37C365.16,-112.57 381.72,-106.16 397,-101 402.06,-99.29 407.31,-97.6 412.61,-95.96"/>
<polygon fill="black" stroke="black" points="422.19,-93.06 413.92,-100.27 417.4,-94.51 412.62,-95.96 412.62,-95.96 412.62,-95.96 417.4,-94.51 411.31,-91.65 422.19,-93.06 422.19,-93.06"/>
<text text-anchor="middle" x="442" y="-103.4" font-family="Times,serif" font-size="7.00">FLOAT(batch,cache,192)</text>
</g>
<!-- O_6 -->
<g id="node7" class="node">
<title>O_6</title>
<path fill="#aaaaee" stroke="#888888" d="M348.5,-93C348.5,-93 181.5,-93 181.5,-93 175.5,-93 169.5,-87 169.5,-81 169.5,-81 169.5,-67 169.5,-67 169.5,-61 175.5,-55 181.5,-55 181.5,-55 348.5,-55 348.5,-55 354.5,-55 360.5,-61 360.5,-67 360.5,-67 360.5,-81 360.5,-81 360.5,-87 354.5,-93 348.5,-93"/>
<text text-anchor="middle" x="265" y="-77.8" font-family="Times,serif" font-size="14.00" fill="#222222">xs</text>
<text text-anchor="middle" x="265" y="-62.8" font-family="Times,serif" font-size="14.00" fill="#222222">FLOAT(batch,cache,192)</text>
</g>
<!-- Add_4&#45;&gt;O_6 -->
<g id="edge5" class="edge">
<title>Add_4&#45;&gt;O_6</title>
<path fill="none" stroke="black" d="M299.83,-116.93C295.65,-111.9 290.98,-106.28 286.45,-100.83"/>
<polygon fill="black" stroke="black" points="279.99,-93.06 289.85,-97.87 283.19,-96.9 286.38,-100.75 286.38,-100.75 286.38,-100.75 283.19,-96.9 282.92,-103.62 279.99,-93.06 279.99,-93.06"/>
</g>
<!-- O_7 -->
<g id="node8" class="node">
<title>O_7</title>
<path fill="#aaaaee" stroke="#888888" d="M573.5,-38C573.5,-38 406.5,-38 406.5,-38 400.5,-38 394.5,-32 394.5,-26 394.5,-26 394.5,-12 394.5,-12 394.5,-6 400.5,0 406.5,0 406.5,0 573.5,0 573.5,0 579.5,0 585.5,-6 585.5,-12 585.5,-12 585.5,-26 585.5,-26 585.5,-32 579.5,-38 573.5,-38"/>
<text text-anchor="middle" x="490" y="-22.8" font-family="Times,serif" font-size="14.00" fill="#222222">ym</text>
<text text-anchor="middle" x="490" y="-7.8" font-family="Times,serif" font-size="14.00" fill="#222222">FLOAT(batch,cache,192)</text>
</g>
<!-- SimplifiedLayerNormalization_5&#45;&gt;O_7 -->
<g id="edge6" class="edge">
<title>SimplifiedLayerNormalization_5&#45;&gt;O_7</title>
<path fill="none" stroke="black" d="M490,-54.76C490,-52.66 490,-50.47 490,-48.27"/>
<polygon fill="black" stroke="black" points="490,-38.09 494.5,-48.09 490,-43.09 490,-48.09 490,-48.09 490,-48.09 490,-43.09 485.5,-48.09 490,-38.09 490,-38.09"/>
</g>
</g>
</svg>
