<?xml version="1.0" encoding="UTF-8" standalone="no"?>
<!DOCTYPE svg PUBLIC "-//W3C//DTD SVG 1.1//EN"
 "http://www.w3.org/Graphics/SVG/1.1/DTD/svg11.dtd">
<!-- Generated by graphviz version 2.43.0 (0)
 -->
<!-- Title: %3 Pages: 1 -->
<svg width="429pt" height="285pt"
 viewBox="0.00 0.00 429.00 285.00" xmlns="http://www.w3.org/2000/svg" xmlns:xlink="http://www.w3.org/1999/xlink">
<g id="graph0" class="graph" transform="scale(1 1) rotate(0) translate(4 281)">
<title>%3</title>
<!-- I_0 -->
<g id="node1" class="node">
<title>I_0</title>
<path fill="#aaeeaa" stroke="#888888" d="M113,-277C113,-277 12,-277 12,-277 6,-277 0,-271 0,-265 0,-265 0,-251 0,-251 0,-245 6,-239 12,-239 12,-239 113,-239 113,-239 119,-239 125,-245 125,-251 125,-251 125,-265 125,-265 125,-271 119,-277 113,-277"/>
<text text-anchor="middle" x="62.5" y="-261.8" font-family="Times,serif" font-size="14.00" fill="#222222">yts</text>
<text text-anchor="middle" x="62.5" y="-246.8" font-family="Times,serif" font-size="14.00" fill="#222222">FLOAT(2,2,7,3)</text>
</g>
<!-- I_1 -->
<g id="node2" class="node">
<title>I_1</title>
<path fill="#aaeeaa" stroke="#888888" d="M238,-277C238,-277 151,-277 151,-277 145,-277 139,-271 139,-265 139,-265 139,-251 139,-251 139,-245 145,-239 151,-239 151,-239 238,-239 238,-239 244,-239 250,-245 250,-251 250,-251 250,-265 250,-265 250,-271 244,-277 238,-277"/>
<text text-anchor="middle" x="194.5" y="-261.8" font-family="Times,serif" font-size="14.00" fill="#222222">Y</text>
<text text-anchor="middle" x="194.5" y="-246.8" font-family="Times,serif" font-size="14.00" fill="#222222">FLOAT(4,3,7)</text>
</g>
<!-- Transpose_5 -->
<g id="node6" class="node">
<title>Transpose_5</title>
<path fill="#ee99ee" stroke="#888888" d="M292,-215C292,-215 97,-215 97,-215 91,-215 85,-209 85,-203 85,-203 85,-191 85,-191 85,-185 91,-179 97,-179 97,-179 292,-179 292,-179 298,-179 304,-185 304,-191 304,-191 304,-203 304,-203 304,-209 298,-215 292,-215"/>
<text text-anchor="middle" x="194.5" y="-193.3" font-family="Times,serif" font-size="14.00" fill="#222222">Transpose(., perm=[0, 2, 1])</text>
</g>
<!-- I_1&#45;&gt;Transpose_5 -->
<g id="edge4" class="edge">
<title>I_1&#45;&gt;Transpose_5</title>
<path fill="none" stroke="black" d="M194.5,-238.98C194.5,-234.71 194.5,-230.06 194.5,-225.47"/>
<polygon fill="black" stroke="black" points="194.5,-215.1 199,-225.1 194.5,-220.1 194.5,-225.1 194.5,-225.1 194.5,-225.1 194.5,-220.1 190,-225.1 194.5,-215.1 194.5,-215.1"/>
<text text-anchor="middle" x="219" y="-225.4" font-family="Times,serif" font-size="7.00">FLOAT(4,3,7)</text>
</g>
<!-- I_2 -->
<g id="node3" class="node">
<title>I_2</title>
<path fill="#aaeeaa" stroke="#888888" d="M409,-155C409,-155 308,-155 308,-155 302,-155 296,-149 296,-143 296,-143 296,-129 296,-129 296,-123 302,-117 308,-117 308,-117 409,-117 409,-117 415,-117 421,-123 421,-129 421,-129 421,-143 421,-143 421,-149 415,-155 409,-155"/>
<text text-anchor="middle" x="358.5" y="-139.8" font-family="Times,serif" font-size="14.00" fill="#222222">X</text>
<text text-anchor="middle" x="358.5" y="-124.8" font-family="Times,serif" font-size="14.00" fill="#222222">FLOAT(2,2,5,7)</text>
</g>
<!-- MatMul_3 -->
<g id="node4" class="node">
<title>MatMul_3</title>
<path fill="#ee9999" stroke="#888888" d="M378,-92C378,-92 301,-92 301,-92 295,-92 289,-86 289,-80 289,-80 289,-68 289,-68 289,-62 295,-56 301,-56 301,-56 378,-56 378,-56 384,-56 390,-62 390,-68 390,-68 390,-80 390,-80 390,-86 384,-92 378,-92"/>
<text text-anchor="middle" x="339.5" y="-70.3" font-family="Times,serif" font-size="14.00" fill="#222222">MatMul(., .)</text>
</g>
<!-- I_2&#45;&gt;MatMul_3 -->
<g id="edge1" class="edge">
<title>I_2&#45;&gt;MatMul_3</title>
<path fill="none" stroke="black" d="M352.8,-117C351.28,-112.2 349.61,-106.92 347.97,-101.76"/>
<polygon fill="black" stroke="black" points="344.94,-92.17 352.24,-100.34 346.45,-96.93 347.95,-101.7 347.95,-101.7 347.95,-101.7 346.45,-96.93 343.66,-103.06 344.94,-92.17 344.94,-92.17"/>
<text text-anchor="middle" x="377" y="-103.4" font-family="Times,serif" font-size="7.00">FLOAT(2,2,5,7)</text>
</g>
<!-- O_7 -->
<g id="node8" class="node">
<title>O_7</title>
<path fill="#aaaaee" stroke="#888888" d="M390,-38C390,-38 289,-38 289,-38 283,-38 277,-32 277,-26 277,-26 277,-12 277,-12 277,-6 283,0 289,0 289,0 390,0 390,0 396,0 402,-6 402,-12 402,-12 402,-26 402,-26 402,-32 396,-38 390,-38"/>
<text text-anchor="middle" x="339.5" y="-22.8" font-family="Times,serif" font-size="14.00" fill="#222222">Z</text>
<text text-anchor="middle" x="339.5" y="-7.8" font-family="Times,serif" font-size="14.00" fill="#222222">FLOAT(2,2,5,3)</text>
</g>
<!-- MatMul_3&#45;&gt;O_7 -->
<g id="edge6" class="edge">
<title>MatMul_3&#45;&gt;O_7</title>
<path fill="none" stroke="black" d="M339.5,-55.94C339.5,-53.45 339.5,-50.83 339.5,-48.19"/>
<polygon fill="black" stroke="black" points="339.5,-38.13 344,-48.13 339.5,-43.13 339.5,-48.13 339.5,-48.13 339.5,-48.13 339.5,-43.13 335,-48.13 339.5,-38.13 339.5,-38.13"/>
</g>
<!-- Reshape_4 -->
<g id="node5" class="node">
<title>Reshape_4</title>
<path fill="#eeeeee" stroke="#888888" d="M270,-154C270,-154 119,-154 119,-154 113,-154 107,-148 107,-142 107,-142 107,-130 107,-130 107,-124 113,-118 119,-118 119,-118 270,-118 270,-118 276,-118 282,-124 282,-130 282,-130 282,-142 282,-142 282,-148 276,-154 270,-154"/>
<text text-anchor="middle" x="194.5" y="-132.3" font-family="Times,serif" font-size="14.00" fill="#222222">Reshape(., [2, 2, 7, 3])</text>
</g>
<!-- Reshape_4&#45;&gt;MatMul_3 -->
<g id="edge2" class="edge">
<title>Reshape_4&#45;&gt;MatMul_3</title>
<path fill="none" stroke="black" d="M235.66,-117.97C252.19,-111.13 271.42,-103.17 288.8,-95.98"/>
<polygon fill="black" stroke="black" points="298.23,-92.08 290.71,-100.06 293.61,-93.99 288.99,-95.9 288.99,-95.9 288.99,-95.9 293.61,-93.99 287.27,-91.74 298.23,-92.08 298.23,-92.08"/>
<text text-anchor="middle" x="304" y="-103.4" font-family="Times,serif" font-size="7.00">FLOAT(2,2,7,3)</text>
</g>
<!-- O_6 -->
<g id="node7" class="node">
<title>O_6</title>
<path fill="#aaaaee" stroke="#888888" d="M245,-93C245,-93 144,-93 144,-93 138,-93 132,-87 132,-81 132,-81 132,-67 132,-67 132,-61 138,-55 144,-55 144,-55 245,-55 245,-55 251,-55 257,-61 257,-67 257,-67 257,-81 257,-81 257,-87 251,-93 245,-93"/>
<text text-anchor="middle" x="194.5" y="-77.8" font-family="Times,serif" font-size="14.00" fill="#222222">yts</text>
<text text-anchor="middle" x="194.5" y="-62.8" font-family="Times,serif" font-size="14.00" fill="#222222">FLOAT(2,2,7,3)</text>
</g>
<!-- Reshape_4&#45;&gt;O_6 -->
<g id="edge5" class="edge">
<title>Reshape_4&#45;&gt;O_6</title>
<path fill="none" stroke="black" d="M194.5,-117.97C194.5,-113.36 194.5,-108.25 194.5,-103.2"/>
<polygon fill="black" stroke="black" points="194.5,-93.12 199,-103.12 194.5,-98.12 194.5,-103.12 194.5,-103.12 194.5,-103.12 194.5,-98.12 190,-103.12 194.5,-93.12 194.5,-93.12"/>
</g>
<!-- Transpose_5&#45;&gt;Reshape_4 -->
<g id="edge3" class="edge">
<title>Transpose_5&#45;&gt;Reshape_4</title>
<path fill="none" stroke="black" d="M194.5,-178.93C194.5,-174.45 194.5,-169.49 194.5,-164.61"/>
<polygon fill="black" stroke="black" points="194.5,-154.23 199,-164.23 194.5,-159.23 194.5,-164.23 194.5,-164.23 194.5,-164.23 194.5,-159.23 190,-164.23 194.5,-154.23 194.5,-154.23"/>
<text text-anchor="middle" x="219" y="-165.4" font-family="Times,serif" font-size="7.00">FLOAT(4,7,3)</text>
</g>
</g>
</svg>
