<?xml version="1.0" encoding="UTF-8" standalone="no"?>
<!DOCTYPE svg PUBLIC "-//W3C//DTD SVG 1.1//EN"
 "http://www.w3.org/Graphics/SVG/1.1/DTD/svg11.dtd">
<!-- Generated by graphviz version 2.43.0 (0)
 -->
<!-- Title: %3 Pages: 1 -->
<svg width="258pt" height="161pt"
 viewBox="0.00 0.00 258.00 161.00" xmlns="http://www.w3.org/2000/svg" xmlns:xlink="http://www.w3.org/1999/xlink">
<g id="graph0" class="graph" transform="scale(1 1) rotate(0) translate(4 157)">
<title>%3</title>
<!-- I_0 -->
<g id="node1" class="node">
<title>I_0</title>
<path fill="#aaeeaa" stroke="#888888" d="M161.5,-153C161.5,-153 88.5,-153 88.5,-153 82.5,-153 76.5,-147 76.5,-141 76.5,-141 76.5,-127 76.5,-127 76.5,-121 82.5,-115 88.5,-115 88.5,-115 161.5,-115 161.5,-115 167.5,-115 173.5,-121 173.5,-127 173.5,-127 173.5,-141 173.5,-141 173.5,-147 167.5,-153 161.5,-153"/>
<text text-anchor="middle" x="125" y="-137.8" font-family="Times,serif" font-size="14.00" fill="#222222">X</text>
<text text-anchor="middle" x="125" y="-122.8" font-family="Times,serif" font-size="14.00" fill="#222222">FLOAT(a,2)</text>
</g>
<!-- RMSNormalization_1 -->
<g id="node2" class="node">
<title>RMSNormalization_1</title>
<path fill="#cccccc" stroke="#888888" d="M238,-91C238,-91 12,-91 12,-91 6,-91 0,-85 0,-79 0,-79 0,-67 0,-67 0,-61 6,-55 12,-55 12,-55 238,-55 238,-55 244,-55 250,-61 250,-67 250,-67 250,-79 250,-79 250,-85 244,-91 238,-91"/>
<text text-anchor="middle" x="125" y="-69.3" font-family="Times,serif" font-size="14.00" fill="#222222">RMSNormalization(., [9.0, 16.0])</text>
</g>
<!-- I_0&#45;&gt;RMSNormalization_1 -->
<g id="edge1" class="edge">
<title>I_0&#45;&gt;RMSNormalization_1</title>
<path fill="none" stroke="black" d="M125,-114.98C125,-110.71 125,-106.06 125,-101.47"/>
<polygon fill="black" stroke="black" points="125,-91.1 129.5,-101.1 125,-96.1 125,-101.1 125,-101.1 125,-101.1 125,-96.1 120.5,-101.1 125,-91.1 125,-91.1"/>
<text text-anchor="middle" x="146" y="-101.4" font-family="Times,serif" font-size="7.00">FLOAT(a,2)</text>
</g>
<!-- O_2 -->
<g id="node3" class="node">
<title>O_2</title>
<path fill="#aaaaee" stroke="#888888" d="M161.5,-38C161.5,-38 88.5,-38 88.5,-38 82.5,-38 76.5,-32 76.5,-26 76.5,-26 76.5,-12 76.5,-12 76.5,-6 82.5,0 88.5,0 88.5,0 161.5,0 161.5,0 167.5,0 173.5,-6 173.5,-12 173.5,-12 173.5,-26 173.5,-26 173.5,-32 167.5,-38 161.5,-38"/>
<text text-anchor="middle" x="125" y="-22.8" font-family="Times,serif" font-size="14.00" fill="#222222">Y</text>
<text text-anchor="middle" x="125" y="-7.8" font-family="Times,serif" font-size="14.00" fill="#222222">FLOAT(a,2)</text>
</g>
<!-- RMSNormalization_1&#45;&gt;O_2 -->
<g id="edge2" class="edge">
<title>RMSNormalization_1&#45;&gt;O_2</title>
<path fill="none" stroke="black" d="M125,-54.97C125,-52.89 125,-50.72 125,-48.53"/>
<polygon fill="black" stroke="black" points="125,-38.32 129.5,-48.32 125,-43.32 125,-48.32 125,-48.32 125,-48.32 125,-43.32 120.5,-48.32 125,-38.32 125,-38.32"/>
</g>
</g>
</svg>
