<?xml version="1.0" encoding="UTF-8" standalone="no"?>
<!DOCTYPE svg PUBLIC "-//W3C//DTD SVG 1.1//EN"
 "http://www.w3.org/Graphics/SVG/1.1/DTD/svg11.dtd">
<!-- Generated by graphviz version 2.43.0 (0)
 -->
<!-- Title: %3 Pages: 1 -->
<svg width="243pt" height="223pt"
 viewBox="0.00 0.00 242.50 223.00" xmlns="http://www.w3.org/2000/svg" xmlns:xlink="http://www.w3.org/1999/xlink">
<g id="graph0" class="graph" transform="scale(1 1) rotate(0) translate(4 219)">
<title>%3</title>
<!-- I_0 -->
<g id="node1" class="node">
<title>I_0</title>
<path fill="#aaeeaa" stroke="#888888" d="M85,-215C85,-215 12,-215 12,-215 6,-215 0,-209 0,-203 0,-203 0,-189 0,-189 0,-183 6,-177 12,-177 12,-177 85,-177 85,-177 91,-177 97,-183 97,-189 97,-189 97,-203 97,-203 97,-209 91,-215 85,-215"/>
<text text-anchor="middle" x="48.5" y="-199.8" font-family="Times,serif" font-size="14.00" fill="#222222">Y</text>
<text text-anchor="middle" x="48.5" y="-184.8" font-family="Times,serif" font-size="14.00" fill="#222222">FLOAT(a,4)</text>
</g>
<!-- Add_3 -->
<g id="node4" class="node">
<title>Add_3</title>
<path fill="#cccccc" stroke="#888888" d="M128,-152C128,-152 79,-152 79,-152 73,-152 67,-146 67,-140 67,-140 67,-128 67,-128 67,-122 73,-116 79,-116 79,-116 128,-116 128,-116 134,-116 140,-122 140,-128 140,-128 140,-140 140,-140 140,-146 134,-152 128,-152"/>
<text text-anchor="middle" x="103.5" y="-130.3" font-family="Times,serif" font-size="14.00" fill="#222222">Add(., .)</text>
</g>
<!-- I_0&#45;&gt;Add_3 -->
<g id="edge2" class="edge">
<title>I_0&#45;&gt;Add_3</title>
<path fill="none" stroke="black" d="M65,-177C69.96,-171.59 75.49,-165.55 80.78,-159.78"/>
<polygon fill="black" stroke="black" points="87.76,-152.17 84.32,-162.58 84.39,-155.85 81.01,-159.54 81.01,-159.54 81.01,-159.54 84.39,-155.85 77.69,-156.5 87.76,-152.17 87.76,-152.17"/>
<text text-anchor="middle" x="100.5" y="-163.4" font-family="Times,serif" font-size="7.00">FLOAT(a,4)</text>
</g>
<!-- I_1 -->
<g id="node2" class="node">
<title>I_1</title>
<path fill="#aaeeaa" stroke="#888888" d="M222.5,-153C222.5,-153 166.5,-153 166.5,-153 160.5,-153 154.5,-147 154.5,-141 154.5,-141 154.5,-127 154.5,-127 154.5,-121 160.5,-115 166.5,-115 166.5,-115 222.5,-115 222.5,-115 228.5,-115 234.5,-121 234.5,-127 234.5,-127 234.5,-141 234.5,-141 234.5,-147 228.5,-153 222.5,-153"/>
<text text-anchor="middle" x="194.5" y="-137.8" font-family="Times,serif" font-size="14.00" fill="#222222">sh1</text>
<text text-anchor="middle" x="194.5" y="-122.8" font-family="Times,serif" font-size="14.00" fill="#222222">INT64(2)</text>
</g>
<!-- Reshape_4 -->
<g id="node5" class="node">
<title>Reshape_4</title>
<path fill="#eeeeee" stroke="#888888" d="M189.5,-91C189.5,-91 107.5,-91 107.5,-91 101.5,-91 95.5,-85 95.5,-79 95.5,-79 95.5,-67 95.5,-67 95.5,-61 101.5,-55 107.5,-55 107.5,-55 189.5,-55 189.5,-55 195.5,-55 201.5,-61 201.5,-67 201.5,-67 201.5,-79 201.5,-79 201.5,-85 195.5,-91 189.5,-91"/>
<text text-anchor="middle" x="148.5" y="-69.3" font-family="Times,serif" font-size="14.00" fill="#222222">Reshape(., .)</text>
</g>
<!-- I_1&#45;&gt;Reshape_4 -->
<g id="edge4" class="edge">
<title>I_1&#45;&gt;Reshape_4</title>
<path fill="none" stroke="black" d="M184.35,-114.83C181.12,-109.55 177.37,-103.9 173.5,-99 173.37,-98.84 173.24,-98.68 173.11,-98.51"/>
<polygon fill="black" stroke="black" points="166.79,-91.28 176.76,-95.85 170.08,-95.04 173.37,-98.81 173.37,-98.81 173.37,-98.81 170.08,-95.04 169.98,-101.77 166.79,-91.28 166.79,-91.28"/>
<text text-anchor="middle" x="195.5" y="-101.4" font-family="Times,serif" font-size="7.00">INT64(2)</text>
</g>
<!-- I_2 -->
<g id="node3" class="node">
<title>I_2</title>
<path fill="#aaeeaa" stroke="#888888" d="M196,-215C196,-215 123,-215 123,-215 117,-215 111,-209 111,-203 111,-203 111,-189 111,-189 111,-183 117,-177 123,-177 123,-177 196,-177 196,-177 202,-177 208,-183 208,-189 208,-189 208,-203 208,-203 208,-209 202,-215 196,-215"/>
<text text-anchor="middle" x="159.5" y="-199.8" font-family="Times,serif" font-size="14.00" fill="#222222">X</text>
<text text-anchor="middle" x="159.5" y="-184.8" font-family="Times,serif" font-size="14.00" fill="#222222">FLOAT(a,4)</text>
</g>
<!-- I_2&#45;&gt;Add_3 -->
<g id="edge1" class="edge">
<title>I_2&#45;&gt;Add_3</title>
<path fill="none" stroke="black" d="M142.7,-177C137.65,-171.59 132.02,-165.55 126.63,-159.78"/>
<polygon fill="black" stroke="black" points="119.52,-152.17 129.63,-156.41 122.93,-155.82 126.34,-159.48 126.34,-159.48 126.34,-159.48 122.93,-155.82 123.06,-162.55 119.52,-152.17 119.52,-152.17"/>
<text text-anchor="middle" x="155.5" y="-163.4" font-family="Times,serif" font-size="7.00">FLOAT(a,4)</text>
</g>
<!-- Add_3&#45;&gt;Reshape_4 -->
<g id="edge3" class="edge">
<title>Add_3&#45;&gt;Reshape_4</title>
<path fill="none" stroke="black" d="M116.52,-115.93C120.49,-110.72 124.95,-104.87 129.25,-99.24"/>
<polygon fill="black" stroke="black" points="135.36,-91.23 132.87,-101.91 132.33,-95.21 129.29,-99.18 129.29,-99.18 129.29,-99.18 132.33,-95.21 125.71,-96.45 135.36,-91.23 135.36,-91.23"/>
<text text-anchor="middle" x="149.5" y="-101.4" font-family="Times,serif" font-size="7.00">FLOAT(a,4)</text>
</g>
<!-- O_5 -->
<g id="node6" class="node">
<title>O_5</title>
<path fill="#aaaaee" stroke="#888888" d="M185.5,-38C185.5,-38 111.5,-38 111.5,-38 105.5,-38 99.5,-32 99.5,-26 99.5,-26 99.5,-12 99.5,-12 99.5,-6 105.5,0 111.5,0 111.5,0 185.5,0 185.5,0 191.5,0 197.5,-6 197.5,-12 197.5,-12 197.5,-26 197.5,-26 197.5,-32 191.5,-38 185.5,-38"/>
<text text-anchor="middle" x="148.5" y="-22.8" font-family="Times,serif" font-size="14.00" fill="#222222">Z</text>
<text text-anchor="middle" x="148.5" y="-7.8" font-family="Times,serif" font-size="14.00" fill="#222222">FLOAT(b,8)</text>
</g>
<!-- Reshape_4&#45;&gt;O_5 -->
<g id="edge5" class="edge">
<title>Reshape_4&#45;&gt;O_5</title>
<path fill="none" stroke="black" d="M148.5,-54.97C148.5,-52.89 148.5,-50.72 148.5,-48.53"/>
<polygon fill="black" stroke="black" points="148.5,-38.32 153,-48.32 148.5,-43.32 148.5,-48.32 148.5,-48.32 148.5,-48.32 148.5,-43.32 144,-48.32 148.5,-38.32 148.5,-38.32"/>
</g>
</g>
</svg>
