<?xml version="1.0" encoding="UTF-8" standalone="no"?>
<!DOCTYPE svg PUBLIC "-//W3C//DTD SVG 1.1//EN"
 "http://www.w3.org/Graphics/SVG/1.1/DTD/svg11.dtd">
<!-- Generated by graphviz version 2.43.0 (0)
 -->
<!-- Title: %3 Pages: 1 -->
<svg width="528pt" height="284pt"
 viewBox="0.00 0.00 527.50 284.00" xmlns="http://www.w3.org/2000/svg" xmlns:xlink="http://www.w3.org/1999/xlink">
<g id="graph0" class="graph" transform="scale(1 1) rotate(0) translate(4 280)">
<title>%3</title>
<!-- I_0 -->
<g id="node1" class="node">
<title>I_0</title>
<path fill="#aaeeaa" stroke="#888888" d="M317.5,-276C317.5,-276 219.5,-276 219.5,-276 213.5,-276 207.5,-270 207.5,-264 207.5,-264 207.5,-250 207.5,-250 207.5,-244 213.5,-238 219.5,-238 219.5,-238 317.5,-238 317.5,-238 323.5,-238 329.5,-244 329.5,-250 329.5,-250 329.5,-264 329.5,-264 329.5,-270 323.5,-276 317.5,-276"/>
<text text-anchor="middle" x="268.5" y="-260.8" font-family="Times,serif" font-size="14.00" fill="#222222">m2</text>
<text text-anchor="middle" x="268.5" y="-245.8" font-family="Times,serif" font-size="14.00" fill="#222222">FLOAT(1,1,c,e)</text>
</g>
<!-- Concat_3 -->
<g id="node4" class="node">
<title>Concat_3</title>
<path fill="#cccccc" stroke="#888888" d="M335.5,-214C335.5,-214 201.5,-214 201.5,-214 195.5,-214 189.5,-208 189.5,-202 189.5,-202 189.5,-190 189.5,-190 189.5,-184 195.5,-178 201.5,-178 201.5,-178 335.5,-178 335.5,-178 341.5,-178 347.5,-184 347.5,-190 347.5,-190 347.5,-202 347.5,-202 347.5,-208 341.5,-214 335.5,-214"/>
<text text-anchor="middle" x="268.5" y="-192.3" font-family="Times,serif" font-size="14.00" fill="#222222">Concat(., ., axis=&#45;1)</text>
</g>
<!-- I_0&#45;&gt;Concat_3 -->
<g id="edge1" class="edge">
<title>I_0&#45;&gt;Concat_3</title>
<path fill="none" stroke="black" d="M268.5,-237.98C268.5,-233.71 268.5,-229.06 268.5,-224.47"/>
<polygon fill="black" stroke="black" points="268.5,-214.1 273,-224.1 268.5,-219.1 268.5,-224.1 268.5,-224.1 268.5,-224.1 268.5,-219.1 264,-224.1 268.5,-214.1 268.5,-214.1"/>
<text text-anchor="middle" x="296" y="-224.4" font-family="Times,serif" font-size="7.00">FLOAT(1,1,c,e)</text>
</g>
<!-- I_1 -->
<g id="node2" class="node">
<title>I_1</title>
<path fill="#aaeeaa" stroke="#888888" d="M136.5,-276C136.5,-276 38.5,-276 38.5,-276 32.5,-276 26.5,-270 26.5,-264 26.5,-264 26.5,-250 26.5,-250 26.5,-244 32.5,-238 38.5,-238 38.5,-238 136.5,-238 136.5,-238 142.5,-238 148.5,-244 148.5,-250 148.5,-250 148.5,-264 148.5,-264 148.5,-270 142.5,-276 136.5,-276"/>
<text text-anchor="middle" x="87.5" y="-260.8" font-family="Times,serif" font-size="14.00" fill="#222222">X</text>
<text text-anchor="middle" x="87.5" y="-245.8" font-family="Times,serif" font-size="14.00" fill="#222222">FLOAT(a,2,c,d)</text>
</g>
<!-- Split_5 -->
<g id="node6" class="node">
<title>Split_5</title>
<path fill="#cccccc" stroke="#888888" d="M163,-214C163,-214 12,-214 12,-214 6,-214 0,-208 0,-202 0,-202 0,-190 0,-190 0,-184 6,-178 12,-178 12,-178 163,-178 163,-178 169,-178 175,-184 175,-190 175,-190 175,-202 175,-202 175,-208 169,-214 163,-214"/>
<text text-anchor="middle" x="87.5" y="-192.3" font-family="Times,serif" font-size="14.00" fill="#222222">Split(., [4, 6], axis=&#45;1)</text>
</g>
<!-- I_1&#45;&gt;Split_5 -->
<g id="edge3" class="edge">
<title>I_1&#45;&gt;Split_5</title>
<path fill="none" stroke="black" d="M87.5,-237.98C87.5,-233.71 87.5,-229.06 87.5,-224.47"/>
<polygon fill="black" stroke="black" points="87.5,-214.1 92,-224.1 87.5,-219.1 87.5,-224.1 87.5,-224.1 87.5,-224.1 87.5,-219.1 83,-224.1 87.5,-214.1 87.5,-214.1"/>
<text text-anchor="middle" x="115" y="-224.4" font-family="Times,serif" font-size="7.00">FLOAT(a,2,c,d)</text>
</g>
<!-- I_2 -->
<g id="node3" class="node">
<title>I_2</title>
<path fill="#aaeeaa" stroke="#888888" d="M489.5,-276C489.5,-276 391.5,-276 391.5,-276 385.5,-276 379.5,-270 379.5,-264 379.5,-264 379.5,-250 379.5,-250 379.5,-244 385.5,-238 391.5,-238 391.5,-238 489.5,-238 489.5,-238 495.5,-238 501.5,-244 501.5,-250 501.5,-250 501.5,-264 501.5,-264 501.5,-270 495.5,-276 489.5,-276"/>
<text text-anchor="middle" x="440.5" y="-260.8" font-family="Times,serif" font-size="14.00" fill="#222222">m1</text>
<text text-anchor="middle" x="440.5" y="-245.8" font-family="Times,serif" font-size="14.00" fill="#222222">FLOAT(1,1,c,e)</text>
</g>
<!-- Concat_4 -->
<g id="node5" class="node">
<title>Concat_4</title>
<path fill="#cccccc" stroke="#888888" d="M507.5,-214C507.5,-214 373.5,-214 373.5,-214 367.5,-214 361.5,-208 361.5,-202 361.5,-202 361.5,-190 361.5,-190 361.5,-184 367.5,-178 373.5,-178 373.5,-178 507.5,-178 507.5,-178 513.5,-178 519.5,-184 519.5,-190 519.5,-190 519.5,-202 519.5,-202 519.5,-208 513.5,-214 507.5,-214"/>
<text text-anchor="middle" x="440.5" y="-192.3" font-family="Times,serif" font-size="14.00" fill="#222222">Concat(., ., axis=&#45;1)</text>
</g>
<!-- I_2&#45;&gt;Concat_4 -->
<g id="edge2" class="edge">
<title>I_2&#45;&gt;Concat_4</title>
<path fill="none" stroke="black" d="M440.5,-237.98C440.5,-233.71 440.5,-229.06 440.5,-224.47"/>
<polygon fill="black" stroke="black" points="440.5,-214.1 445,-224.1 440.5,-219.1 440.5,-224.1 440.5,-224.1 440.5,-224.1 440.5,-219.1 436,-224.1 440.5,-214.1 440.5,-214.1"/>
<text text-anchor="middle" x="468" y="-224.4" font-family="Times,serif" font-size="7.00">FLOAT(1,1,c,e)</text>
</g>
<!-- HalfRotaryEmbedding_6 -->
<g id="node7" class="node">
<title>HalfRotaryEmbedding_6</title>
<path fill="#cccccc" stroke="#888888" d="M326.5,-161C326.5,-161 174.5,-161 174.5,-161 168.5,-161 162.5,-155 162.5,-149 162.5,-149 162.5,-120 162.5,-120 162.5,-114 168.5,-108 174.5,-108 174.5,-108 326.5,-108 326.5,-108 332.5,-108 338.5,-114 338.5,-120 338.5,-120 338.5,-149 338.5,-149 338.5,-155 332.5,-161 326.5,-161"/>
<text text-anchor="middle" x="250.5" y="-145.8" font-family="Times,serif" font-size="14.00" fill="#222222">intermediate.</text>
<text text-anchor="middle" x="250.5" y="-130.8" font-family="Times,serif" font-size="14.00" fill="#222222">HalfRotaryEmbedding</text>
<text text-anchor="middle" x="250.5" y="-115.8" font-family="Times,serif" font-size="14.00" fill="#222222">(., ., .)</text>
</g>
<!-- Concat_3&#45;&gt;HalfRotaryEmbedding_6 -->
<g id="edge5" class="edge">
<title>Concat_3&#45;&gt;HalfRotaryEmbedding_6</title>
<path fill="none" stroke="black" d="M263.29,-177.79C262.63,-175.59 261.93,-173.28 261.21,-170.91"/>
<polygon fill="black" stroke="black" points="258.24,-161.08 265.44,-169.35 259.69,-165.87 261.14,-170.66 261.14,-170.66 261.14,-170.66 259.69,-165.87 256.83,-171.96 258.24,-161.08 258.24,-161.08"/>
</g>
<!-- Concat_4&#45;&gt;HalfRotaryEmbedding_6 -->
<g id="edge6" class="edge">
<title>Concat_4&#45;&gt;HalfRotaryEmbedding_6</title>
<path fill="none" stroke="black" d="M386.05,-177.95C372.29,-173.64 357.13,-168.89 342.08,-164.18"/>
<polygon fill="black" stroke="black" points="332.23,-161.09 343.12,-159.79 337,-162.59 341.77,-164.08 341.77,-164.08 341.77,-164.08 337,-162.59 340.43,-168.38 332.23,-161.09 332.23,-161.09"/>
</g>
<!-- Split_5&#45;&gt;HalfRotaryEmbedding_6 -->
<g id="edge4" class="edge">
<title>Split_5&#45;&gt;HalfRotaryEmbedding_6</title>
<path fill="none" stroke="black" d="M134.21,-177.95C145.68,-173.76 158.28,-169.16 170.82,-164.58"/>
<polygon fill="black" stroke="black" points="180.39,-161.09 172.54,-168.75 175.69,-162.81 170.99,-164.52 170.99,-164.52 170.99,-164.52 175.69,-162.81 169.45,-160.3 180.39,-161.09 180.39,-161.09"/>
</g>
<!-- Concat_7 -->
<g id="node8" class="node">
<title>Concat_7</title>
<path fill="#cccccc" stroke="#888888" d="M199.5,-91C199.5,-91 65.5,-91 65.5,-91 59.5,-91 53.5,-85 53.5,-79 53.5,-79 53.5,-67 53.5,-67 53.5,-61 59.5,-55 65.5,-55 65.5,-55 199.5,-55 199.5,-55 205.5,-55 211.5,-61 211.5,-67 211.5,-67 211.5,-79 211.5,-79 211.5,-85 205.5,-91 199.5,-91"/>
<text text-anchor="middle" x="132.5" y="-69.3" font-family="Times,serif" font-size="14.00" fill="#222222">Concat(., ., axis=&#45;1)</text>
</g>
<!-- Split_5&#45;&gt;Concat_7 -->
<g id="edge8" class="edge">
<title>Split_5&#45;&gt;Concat_7</title>
<path fill="none" stroke="black" d="M93.85,-177.92C101.31,-157.86 113.78,-124.33 122.54,-100.79"/>
<polygon fill="black" stroke="black" points="126.03,-91.38 126.77,-102.33 124.29,-96.07 122.55,-100.76 122.55,-100.76 122.55,-100.76 124.29,-96.07 118.33,-99.19 126.03,-91.38 126.03,-91.38"/>
</g>
<!-- HalfRotaryEmbedding_6&#45;&gt;Concat_7 -->
<g id="edge7" class="edge">
<title>HalfRotaryEmbedding_6&#45;&gt;Concat_7</title>
<path fill="none" stroke="black" d="M199.77,-107.92C191.69,-103.85 183.4,-99.66 175.52,-95.69"/>
<polygon fill="black" stroke="black" points="166.49,-91.14 177.45,-91.62 170.96,-93.39 175.42,-95.64 175.42,-95.64 175.42,-95.64 170.96,-93.39 173.39,-99.66 166.49,-91.14 166.49,-91.14"/>
</g>
<!-- O_8 -->
<g id="node9" class="node">
<title>O_8</title>
<path fill="#aaaaee" stroke="#888888" d="M181.5,-38C181.5,-38 83.5,-38 83.5,-38 77.5,-38 71.5,-32 71.5,-26 71.5,-26 71.5,-12 71.5,-12 71.5,-6 77.5,0 83.5,0 83.5,0 181.5,0 181.5,0 187.5,0 193.5,-6 193.5,-12 193.5,-12 193.5,-26 193.5,-26 193.5,-32 187.5,-38 181.5,-38"/>
<text text-anchor="middle" x="132.5" y="-22.8" font-family="Times,serif" font-size="14.00" fill="#222222">Y</text>
<text text-anchor="middle" x="132.5" y="-7.8" font-family="Times,serif" font-size="14.00" fill="#222222">FLOAT(a,b,c,d)</text>
</g>
<!-- Concat_7&#45;&gt;O_8 -->
<g id="edge9" class="edge">
<title>Concat_7&#45;&gt;O_8</title>
<path fill="none" stroke="black" d="M132.5,-54.97C132.5,-52.89 132.5,-50.72 132.5,-48.53"/>
<polygon fill="black" stroke="black" points="132.5,-38.32 137,-48.32 132.5,-43.32 132.5,-48.32 132.5,-48.32 132.5,-48.32 132.5,-43.32 128,-48.32 132.5,-38.32 132.5,-38.32"/>
</g>
</g>
</svg>
