<?xml version="1.0" encoding="UTF-8" standalone="no"?>
<!DOCTYPE svg PUBLIC "-//W3C//DTD SVG 1.1//EN"
 "http://www.w3.org/Graphics/SVG/1.1/DTD/svg11.dtd">
<!-- Generated by graphviz version 2.43.0 (0)
 -->
<!-- Title: %3 Pages: 1 -->
<svg width="156pt" height="96pt"
 viewBox="0.00 0.00 156.00 96.00" xmlns="http://www.w3.org/2000/svg" xmlns:xlink="http://www.w3.org/1999/xlink">
<g id="graph0" class="graph" transform="scale(1 1) rotate(0) translate(4 92)">
<title>%3</title>
<!-- Identity_0 -->
<g id="node1" class="node">
<title>Identity_0</title>
<path fill="#cccccc" stroke="#888888" d="M136,-88C136,-88 12,-88 12,-88 6,-88 0,-82 0,-76 0,-76 0,-64 0,-64 0,-58 6,-52 12,-52 12,-52 136,-52 136,-52 142,-52 148,-58 148,-64 148,-64 148,-76 148,-76 148,-82 142,-88 136,-88"/>
<text text-anchor="middle" x="74" y="-66.3" font-family="Times,serif" font-size="14.00" fill="#222222">Identity([1.0, 2.0])</text>
</g>
<!-- O_1 -->
<g id="node2" class="node">
<title>O_1</title>
<path fill="#aaaaee" stroke="#888888" d="M104,-38C104,-38 44,-38 44,-38 38,-38 32,-32 32,-26 32,-26 32,-12 32,-12 32,-6 38,0 44,0 44,0 104,0 104,0 110,0 116,-6 116,-12 116,-12 116,-26 116,-26 116,-32 110,-38 104,-38"/>
<text text-anchor="middle" x="74" y="-22.8" font-family="Times,serif" font-size="14.00" fill="#222222">cst</text>
<text text-anchor="middle" x="74" y="-7.8" font-family="Times,serif" font-size="14.00" fill="#222222">FLOAT(2)</text>
</g>
<!-- Identity_0&#45;&gt;O_1 -->
<g id="edge1" class="edge">
<title>Identity_0&#45;&gt;O_1</title>
<path fill="none" stroke="black" d="M74,-51.86C74,-50.76 74,-49.63 74,-48.49"/>
<polygon fill="black" stroke="black" points="74,-38.21 78.5,-48.21 74,-43.21 74,-48.21 74,-48.21 74,-48.21 74,-43.21 69.5,-48.21 74,-38.21 74,-38.21"/>
</g>
</g>
</svg>
