<?xml version="1.0" encoding="UTF-8" standalone="no"?>
<!DOCTYPE svg PUBLIC "-//W3C//DTD SVG 1.1//EN"
 "http://www.w3.org/Graphics/SVG/1.1/DTD/svg11.dtd">
<!-- Generated by graphviz version 2.43.0 (0)
 -->
<!-- Title: %3 Pages: 1 -->
<svg width="282pt" height="281pt"
 viewBox="0.00 0.00 281.50 281.00" xmlns="http://www.w3.org/2000/svg" xmlns:xlink="http://www.w3.org/1999/xlink">
<g id="graph0" class="graph" transform="scale(1 1) rotate(0) translate(4 277)">
<title>%3</title>
<!-- I_0 -->
<g id="node1" class="node">
<title>I_0</title>
<path fill="#aaeeaa" stroke="#888888" d="M225,-273C225,-273 138,-273 138,-273 132,-273 126,-267 126,-261 126,-261 126,-247 126,-247 126,-241 132,-235 138,-235 138,-235 225,-235 225,-235 231,-235 237,-241 237,-247 237,-247 237,-261 237,-261 237,-267 231,-273 225,-273"/>
<text text-anchor="middle" x="181.5" y="-257.8" font-family="Times,serif" font-size="14.00" fill="#222222">X</text>
<text text-anchor="middle" x="181.5" y="-242.8" font-family="Times,serif" font-size="14.00" fill="#222222">FLOAT(2,3,d)</text>
</g>
<!-- Shape_1 -->
<g id="node2" class="node">
<title>Shape_1</title>
<path fill="#d2a81f" stroke="#888888" d="M161.5,-211C161.5,-211 109.5,-211 109.5,-211 103.5,-211 97.5,-205 97.5,-199 97.5,-199 97.5,-187 97.5,-187 97.5,-181 103.5,-175 109.5,-175 109.5,-175 161.5,-175 161.5,-175 167.5,-175 173.5,-181 173.5,-187 173.5,-187 173.5,-199 173.5,-199 173.5,-205 167.5,-211 161.5,-211"/>
<text text-anchor="middle" x="135.5" y="-189.3" font-family="Times,serif" font-size="14.00" fill="#222222">Shape(.)</text>
</g>
<!-- I_0&#45;&gt;Shape_1 -->
<g id="edge1" class="edge">
<title>I_0&#45;&gt;Shape_1</title>
<path fill="none" stroke="black" d="M165.94,-234.96C163.75,-232.31 161.54,-229.6 159.5,-227 157.65,-224.65 155.77,-222.18 153.9,-219.69"/>
<polygon fill="black" stroke="black" points="147.72,-211.31 157.28,-216.69 150.69,-215.33 153.65,-219.36 153.65,-219.36 153.65,-219.36 150.69,-215.33 150.03,-222.03 147.72,-211.31 147.72,-211.31"/>
<text text-anchor="middle" x="184" y="-221.4" font-family="Times,serif" font-size="7.00">FLOAT(2,3,d)</text>
</g>
<!-- Reshape_3 -->
<g id="node4" class="node">
<title>Reshape_3</title>
<path fill="#eeeeee" stroke="#888888" d="M199.5,-91C199.5,-91 117.5,-91 117.5,-91 111.5,-91 105.5,-85 105.5,-79 105.5,-79 105.5,-67 105.5,-67 105.5,-61 111.5,-55 117.5,-55 117.5,-55 199.5,-55 199.5,-55 205.5,-55 211.5,-61 211.5,-67 211.5,-67 211.5,-79 211.5,-79 211.5,-85 205.5,-91 199.5,-91"/>
<text text-anchor="middle" x="158.5" y="-69.3" font-family="Times,serif" font-size="14.00" fill="#222222">Reshape(., .)</text>
</g>
<!-- I_0&#45;&gt;Reshape_3 -->
<g id="edge3" class="edge">
<title>I_0&#45;&gt;Reshape_3</title>
<path fill="none" stroke="black" d="M203.01,-234.69C204.82,-232.29 206.38,-229.71 207.5,-227 212.64,-214.6 267.58,-252.85 203.5,-115 200.63,-108.82 196.34,-103.15 191.55,-98.13"/>
<polygon fill="black" stroke="black" points="184.25,-91.25 194.61,-94.83 187.89,-94.68 191.52,-98.11 191.52,-98.11 191.52,-98.11 187.89,-94.68 188.44,-101.38 184.25,-91.25 184.25,-91.25"/>
<text text-anchor="middle" x="249" y="-161.4" font-family="Times,serif" font-size="7.00">FLOAT(2,3,d)</text>
</g>
<!-- Concat_2 -->
<g id="node3" class="node">
<title>Concat_2</title>
<path fill="#cccccc" stroke="#888888" d="M185,-151C185,-151 12,-151 12,-151 6,-151 0,-145 0,-139 0,-139 0,-127 0,-127 0,-121 6,-115 12,-115 12,-115 185,-115 185,-115 191,-115 197,-121 197,-127 197,-127 197,-139 197,-139 197,-145 191,-151 185,-151"/>
<text text-anchor="middle" x="98.5" y="-129.3" font-family="Times,serif" font-size="14.00" fill="#222222">Concat([1], ., [1], axis=0)</text>
</g>
<!-- Shape_1&#45;&gt;Concat_2 -->
<g id="edge2" class="edge">
<title>Shape_1&#45;&gt;Concat_2</title>
<path fill="none" stroke="black" d="M124.6,-174.91C121.54,-170.12 118.15,-164.8 114.84,-159.62"/>
<polygon fill="black" stroke="black" points="109.45,-151.17 118.62,-157.18 112.14,-155.38 114.83,-159.6 114.83,-159.6 114.83,-159.6 112.14,-155.38 111.04,-162.02 109.45,-151.17 109.45,-151.17"/>
<text text-anchor="middle" x="136.5" y="-161.4" font-family="Times,serif" font-size="7.00">INT64(3)</text>
</g>
<!-- Concat_2&#45;&gt;Reshape_3 -->
<g id="edge4" class="edge">
<title>Concat_2&#45;&gt;Reshape_3</title>
<path fill="none" stroke="black" d="M116.18,-114.91C121.5,-109.77 127.45,-104.01 133.17,-98.49"/>
<polygon fill="black" stroke="black" points="140.74,-91.17 136.68,-101.35 137.15,-94.64 133.55,-98.12 133.55,-98.12 133.55,-98.12 137.15,-94.64 130.42,-94.88 140.74,-91.17 140.74,-91.17"/>
<text text-anchor="middle" x="149.5" y="-101.4" font-family="Times,serif" font-size="7.00">INT64(5)</text>
</g>
<!-- O_4 -->
<g id="node5" class="node">
<title>O_4</title>
<path fill="#aaaaee" stroke="#888888" d="M215.5,-38C215.5,-38 101.5,-38 101.5,-38 95.5,-38 89.5,-32 89.5,-26 89.5,-26 89.5,-12 89.5,-12 89.5,-6 95.5,0 101.5,0 101.5,0 215.5,0 215.5,0 221.5,0 227.5,-6 227.5,-12 227.5,-12 227.5,-26 227.5,-26 227.5,-32 221.5,-38 215.5,-38"/>
<text text-anchor="middle" x="158.5" y="-22.8" font-family="Times,serif" font-size="14.00" fill="#222222">Y</text>
<text text-anchor="middle" x="158.5" y="-7.8" font-family="Times,serif" font-size="14.00" fill="#222222">FLOAT(1,2,3,d,1)</text>
</g>
<!-- Reshape_3&#45;&gt;O_4 -->
<g id="edge5" class="edge">
<title>Reshape_3&#45;&gt;O_4</title>
<path fill="none" stroke="black" d="M158.5,-54.97C158.5,-52.89 158.5,-50.72 158.5,-48.53"/>
<polygon fill="black" stroke="black" points="158.5,-38.32 163,-48.32 158.5,-43.32 158.5,-48.32 158.5,-48.32 158.5,-48.32 158.5,-43.32 154,-48.32 158.5,-38.32 158.5,-38.32"/>
</g>
</g>
</svg>
