<?xml version="1.0" encoding="UTF-8" standalone="no"?>
<!DOCTYPE svg PUBLIC "-//W3C//DTD SVG 1.1//EN"
 "http://www.w3.org/Graphics/SVG/1.1/DTD/svg11.dtd">
<!-- Generated by graphviz version 2.43.0 (0)
 -->
<!-- Title: %3 Pages: 1 -->
<svg width="308pt" height="161pt"
 viewBox="0.00 0.00 307.50 161.00" xmlns="http://www.w3.org/2000/svg" xmlns:xlink="http://www.w3.org/1999/xlink">
<g id="graph0" class="graph" transform="scale(1 1) rotate(0) translate(4 157)">
<title>%3</title>
<!-- I_0 -->
<g id="node1" class="node">
<title>I_0</title>
<path fill="#aaeeaa" stroke="#888888" d="M72,-153C72,-153 12,-153 12,-153 6,-153 0,-147 0,-141 0,-141 0,-127 0,-127 0,-121 6,-115 12,-115 12,-115 72,-115 72,-115 78,-115 84,-121 84,-127 84,-127 84,-141 84,-141 84,-147 78,-153 72,-153"/>
<text text-anchor="middle" x="42" y="-137.8" font-family="Times,serif" font-size="14.00" fill="#222222">inf</text>
<text text-anchor="middle" x="42" y="-122.8" font-family="Times,serif" font-size="14.00" fill="#222222">FLOAT(1)</text>
</g>
<!-- Where_3 -->
<g id="node4" class="node">
<title>Where_3</title>
<path fill="#cccccc" stroke="#888888" d="M186.5,-91C186.5,-91 105.5,-91 105.5,-91 99.5,-91 93.5,-85 93.5,-79 93.5,-79 93.5,-67 93.5,-67 93.5,-61 99.5,-55 105.5,-55 105.5,-55 186.5,-55 186.5,-55 192.5,-55 198.5,-61 198.5,-67 198.5,-67 198.5,-79 198.5,-79 198.5,-85 192.5,-91 186.5,-91"/>
<text text-anchor="middle" x="146" y="-69.3" font-family="Times,serif" font-size="14.00" fill="#222222">Where(., ., .)</text>
</g>
<!-- I_0&#45;&gt;Where_3 -->
<g id="edge3" class="edge">
<title>I_0&#45;&gt;Where_3</title>
<path fill="none" stroke="black" d="M73.77,-114.98C84.22,-109.05 95.97,-102.38 106.9,-96.18"/>
<polygon fill="black" stroke="black" points="115.85,-91.1 109.37,-99.95 111.5,-93.57 107.15,-96.04 107.15,-96.04 107.15,-96.04 111.5,-93.57 104.93,-92.13 115.85,-91.1 115.85,-91.1"/>
<text text-anchor="middle" x="118.5" y="-101.4" font-family="Times,serif" font-size="7.00">FLOAT(1)</text>
</g>
<!-- I_1 -->
<g id="node2" class="node">
<title>I_1</title>
<path fill="#aaeeaa" stroke="#888888" d="M182.5,-153C182.5,-153 109.5,-153 109.5,-153 103.5,-153 97.5,-147 97.5,-141 97.5,-141 97.5,-127 97.5,-127 97.5,-121 103.5,-115 109.5,-115 109.5,-115 182.5,-115 182.5,-115 188.5,-115 194.5,-121 194.5,-127 194.5,-127 194.5,-141 194.5,-141 194.5,-147 188.5,-153 182.5,-153"/>
<text text-anchor="middle" x="146" y="-137.8" font-family="Times,serif" font-size="14.00" fill="#222222">X</text>
<text text-anchor="middle" x="146" y="-122.8" font-family="Times,serif" font-size="14.00" fill="#222222">FLOAT(a,b)</text>
</g>
<!-- I_1&#45;&gt;Where_3 -->
<g id="edge2" class="edge">
<title>I_1&#45;&gt;Where_3</title>
<path fill="none" stroke="black" d="M146,-114.98C146,-110.71 146,-106.06 146,-101.47"/>
<polygon fill="black" stroke="black" points="146,-91.1 150.5,-101.1 146,-96.1 146,-101.1 146,-101.1 146,-101.1 146,-96.1 141.5,-101.1 146,-91.1 146,-91.1"/>
<text text-anchor="middle" x="167" y="-101.4" font-family="Times,serif" font-size="7.00">FLOAT(a,b)</text>
</g>
<!-- I_2 -->
<g id="node3" class="node">
<title>I_2</title>
<path fill="#aaeeaa" stroke="#888888" d="M287.5,-153C287.5,-153 220.5,-153 220.5,-153 214.5,-153 208.5,-147 208.5,-141 208.5,-141 208.5,-127 208.5,-127 208.5,-121 214.5,-115 220.5,-115 220.5,-115 287.5,-115 287.5,-115 293.5,-115 299.5,-121 299.5,-127 299.5,-127 299.5,-141 299.5,-141 299.5,-147 293.5,-153 287.5,-153"/>
<text text-anchor="middle" x="254" y="-137.8" font-family="Times,serif" font-size="14.00" fill="#222222">mask</text>
<text text-anchor="middle" x="254" y="-122.8" font-family="Times,serif" font-size="14.00" fill="#222222">BOOL(a,b)</text>
</g>
<!-- I_2&#45;&gt;Where_3 -->
<g id="edge1" class="edge">
<title>I_2&#45;&gt;Where_3</title>
<path fill="none" stroke="black" d="M221.01,-114.98C210.05,-108.99 197.71,-102.25 186.26,-95.99"/>
<polygon fill="black" stroke="black" points="177.31,-91.1 188.24,-91.95 181.7,-93.5 186.09,-95.9 186.09,-95.9 186.09,-95.9 181.7,-93.5 183.93,-99.85 177.31,-91.1 177.31,-91.1"/>
<text text-anchor="middle" x="223" y="-101.4" font-family="Times,serif" font-size="7.00">BOOL(a,b)</text>
</g>
<!-- O_4 -->
<g id="node5" class="node">
<title>O_4</title>
<path fill="#aaaaee" stroke="#888888" d="M182.5,-38C182.5,-38 109.5,-38 109.5,-38 103.5,-38 97.5,-32 97.5,-26 97.5,-26 97.5,-12 97.5,-12 97.5,-6 103.5,0 109.5,0 109.5,0 182.5,0 182.5,0 188.5,0 194.5,-6 194.5,-12 194.5,-12 194.5,-26 194.5,-26 194.5,-32 188.5,-38 182.5,-38"/>
<text text-anchor="middle" x="146" y="-22.8" font-family="Times,serif" font-size="14.00" fill="#222222">Y</text>
<text text-anchor="middle" x="146" y="-7.8" font-family="Times,serif" font-size="14.00" fill="#222222">FLOAT(a,b)</text>
</g>
<!-- Where_3&#45;&gt;O_4 -->
<g id="edge4" class="edge">
<title>Where_3&#45;&gt;O_4</title>
<path fill="none" stroke="black" d="M146,-54.97C146,-52.89 146,-50.72 146,-48.53"/>
<polygon fill="black" stroke="black" points="146,-38.32 150.5,-48.32 146,-43.32 146,-48.32 146,-48.32 146,-48.32 146,-43.32 141.5,-48.32 146,-38.32 146,-38.32"/>
</g>
</g>
</svg>
