<?xml version="1.0" encoding="UTF-8" standalone="no"?>
<!DOCTYPE svg PUBLIC "-//W3C//DTD SVG 1.1//EN"
 "http://www.w3.org/Graphics/SVG/1.1/DTD/svg11.dtd">
<!-- Generated by graphviz version 2.43.0 (0)
 -->
<!-- Title: %3 Pages: 1 -->
<svg width="350pt" height="178pt"
 viewBox="0.00 0.00 350.00 178.00" xmlns="http://www.w3.org/2000/svg" xmlns:xlink="http://www.w3.org/1999/xlink">
<g id="graph0" class="graph" transform="scale(1 1) rotate(0) translate(4 174)">
<title>%3</title>
<!-- I_0 -->
<g id="node1" class="node">
<title>I_0</title>
<path fill="#aaeeaa" stroke="#888888" d="M84,-170C84,-170 12,-170 12,-170 6,-170 0,-164 0,-158 0,-158 0,-144 0,-144 0,-138 6,-132 12,-132 12,-132 84,-132 84,-132 90,-132 96,-138 96,-144 96,-144 96,-158 96,-158 96,-164 90,-170 84,-170"/>
<text text-anchor="middle" x="48" y="-154.8" font-family="Times,serif" font-size="14.00" fill="#222222">m2</text>
<text text-anchor="middle" x="48" y="-139.8" font-family="Times,serif" font-size="14.00" fill="#222222">FLOAT(c,d)</text>
</g>
<!-- HalfRotaryEmbedding_3 -->
<g id="node4" class="node">
<title>HalfRotaryEmbedding_3</title>
<path fill="#cccccc" stroke="#888888" d="M247,-108C247,-108 95,-108 95,-108 89,-108 83,-102 83,-96 83,-96 83,-67 83,-67 83,-61 89,-55 95,-55 95,-55 247,-55 247,-55 253,-55 259,-61 259,-67 259,-67 259,-96 259,-96 259,-102 253,-108 247,-108"/>
<text text-anchor="middle" x="171" y="-92.8" font-family="Times,serif" font-size="14.00" fill="#222222">intermediate.</text>
<text text-anchor="middle" x="171" y="-77.8" font-family="Times,serif" font-size="14.00" fill="#222222">HalfRotaryEmbedding</text>
<text text-anchor="middle" x="171" y="-62.8" font-family="Times,serif" font-size="14.00" fill="#222222">(., ., .)</text>
</g>
<!-- I_0&#45;&gt;HalfRotaryEmbedding_3 -->
<g id="edge2" class="edge">
<title>I_0&#45;&gt;HalfRotaryEmbedding_3</title>
<path fill="none" stroke="black" d="M80.96,-131.91C91.51,-126.12 103.5,-119.55 115.2,-113.12"/>
<polygon fill="black" stroke="black" points="124.07,-108.25 117.47,-117.01 119.69,-110.66 115.31,-113.06 115.31,-113.06 115.31,-113.06 119.69,-110.66 113.14,-109.12 124.07,-108.25 124.07,-108.25"/>
<text text-anchor="middle" x="130.5" y="-118.4" font-family="Times,serif" font-size="7.00">FLOAT(c,d)</text>
</g>
<!-- I_1 -->
<g id="node2" class="node">
<title>I_1</title>
<path fill="#aaeeaa" stroke="#888888" d="M220,-170C220,-170 122,-170 122,-170 116,-170 110,-164 110,-158 110,-158 110,-144 110,-144 110,-138 116,-132 122,-132 122,-132 220,-132 220,-132 226,-132 232,-138 232,-144 232,-144 232,-158 232,-158 232,-164 226,-170 220,-170"/>
<text text-anchor="middle" x="171" y="-154.8" font-family="Times,serif" font-size="14.00" fill="#222222">X</text>
<text text-anchor="middle" x="171" y="-139.8" font-family="Times,serif" font-size="14.00" fill="#222222">FLOAT(a,b,c,d)</text>
</g>
<!-- I_1&#45;&gt;HalfRotaryEmbedding_3 -->
<g id="edge1" class="edge">
<title>I_1&#45;&gt;HalfRotaryEmbedding_3</title>
<path fill="none" stroke="black" d="M171,-131.91C171,-127.71 171,-123.1 171,-118.43"/>
<polygon fill="black" stroke="black" points="171,-108.25 175.5,-118.25 171,-113.25 171,-118.25 171,-118.25 171,-118.25 171,-113.25 166.5,-118.25 171,-108.25 171,-108.25"/>
<text text-anchor="middle" x="198.5" y="-118.4" font-family="Times,serif" font-size="7.00">FLOAT(a,b,c,d)</text>
</g>
<!-- I_2 -->
<g id="node3" class="node">
<title>I_2</title>
<path fill="#aaeeaa" stroke="#888888" d="M330,-170C330,-170 258,-170 258,-170 252,-170 246,-164 246,-158 246,-158 246,-144 246,-144 246,-138 252,-132 258,-132 258,-132 330,-132 330,-132 336,-132 342,-138 342,-144 342,-144 342,-158 342,-158 342,-164 336,-170 330,-170"/>
<text text-anchor="middle" x="294" y="-154.8" font-family="Times,serif" font-size="14.00" fill="#222222">m1</text>
<text text-anchor="middle" x="294" y="-139.8" font-family="Times,serif" font-size="14.00" fill="#222222">FLOAT(c,d)</text>
</g>
<!-- I_2&#45;&gt;HalfRotaryEmbedding_3 -->
<g id="edge3" class="edge">
<title>I_2&#45;&gt;HalfRotaryEmbedding_3</title>
<path fill="none" stroke="black" d="M261.04,-131.91C250.49,-126.12 238.5,-119.55 226.8,-113.12"/>
<polygon fill="black" stroke="black" points="217.93,-108.25 228.86,-109.12 222.31,-110.66 226.69,-113.06 226.69,-113.06 226.69,-113.06 222.31,-110.66 224.53,-117.01 217.93,-108.25 217.93,-108.25"/>
<text text-anchor="middle" x="263.5" y="-118.4" font-family="Times,serif" font-size="7.00">FLOAT(c,d)</text>
</g>
<!-- O_4 -->
<g id="node5" class="node">
<title>O_4</title>
<path fill="#aaaaee" stroke="#888888" d="M220,-38C220,-38 122,-38 122,-38 116,-38 110,-32 110,-26 110,-26 110,-12 110,-12 110,-6 116,0 122,0 122,0 220,0 220,0 226,0 232,-6 232,-12 232,-12 232,-26 232,-26 232,-32 226,-38 220,-38"/>
<text text-anchor="middle" x="171" y="-22.8" font-family="Times,serif" font-size="14.00" fill="#222222">Y</text>
<text text-anchor="middle" x="171" y="-7.8" font-family="Times,serif" font-size="14.00" fill="#222222">FLOAT(a,b,c,d)</text>
</g>
<!-- HalfRotaryEmbedding_3&#45;&gt;O_4 -->
<g id="edge4" class="edge">
<title>HalfRotaryEmbedding_3&#45;&gt;O_4</title>
<path fill="none" stroke="black" d="M171,-54.84C171,-52.77 171,-50.66 171,-48.56"/>
<polygon fill="black" stroke="black" points="171,-38.36 175.5,-48.36 171,-43.36 171,-48.36 171,-48.36 171,-48.36 171,-43.36 166.5,-48.36 171,-38.36 171,-38.36"/>
</g>
</g>
</svg>
