<?xml version="1.0" encoding="UTF-8" standalone="no"?>
<!DOCTYPE svg PUBLIC "-//W3C//DTD SVG 1.1//EN"
 "http://www.w3.org/Graphics/SVG/1.1/DTD/svg11.dtd">
<!-- Generated by graphviz version 2.43.0 (0)
 -->
<!-- Title: %3 Pages: 1 -->
<svg width="165pt" height="161pt"
 viewBox="0.00 0.00 165.00 161.00" xmlns="http://www.w3.org/2000/svg" xmlns:xlink="http://www.w3.org/1999/xlink">
<g id="graph0" class="graph" transform="scale(1 1) rotate(0) translate(4 157)">
<title>%3</title>
<!-- I_0 -->
<g id="node1" class="node">
<title>I_0</title>
<path fill="#aaeeaa" stroke="#888888" d="M122,-153C122,-153 35,-153 35,-153 29,-153 23,-147 23,-141 23,-141 23,-127 23,-127 23,-121 29,-115 35,-115 35,-115 122,-115 122,-115 128,-115 134,-121 134,-127 134,-127 134,-141 134,-141 134,-147 128,-153 122,-153"/>
<text text-anchor="middle" x="78.5" y="-137.8" font-family="Times,serif" font-size="14.00" fill="#222222">X</text>
<text text-anchor="middle" x="78.5" y="-122.8" font-family="Times,serif" font-size="14.00" fill="#222222">FLOAT(2,3,d)</text>
</g>
<!-- Unsqueeze_1 -->
<g id="node2" class="node">
<title>Unsqueeze_1</title>
<path fill="#eeeeee" stroke="#888888" d="M145,-91C145,-91 12,-91 12,-91 6,-91 0,-85 0,-79 0,-79 0,-67 0,-67 0,-61 6,-55 12,-55 12,-55 145,-55 145,-55 151,-55 157,-61 157,-67 157,-67 157,-79 157,-79 157,-85 151,-91 145,-91"/>
<text text-anchor="middle" x="78.5" y="-69.3" font-family="Times,serif" font-size="14.00" fill="#222222">Unsqueeze(., [0, 4])</text>
</g>
<!-- I_0&#45;&gt;Unsqueeze_1 -->
<g id="edge1" class="edge">
<title>I_0&#45;&gt;Unsqueeze_1</title>
<path fill="none" stroke="black" d="M78.5,-114.98C78.5,-110.71 78.5,-106.06 78.5,-101.47"/>
<polygon fill="black" stroke="black" points="78.5,-91.1 83,-101.1 78.5,-96.1 78.5,-101.1 78.5,-101.1 78.5,-101.1 78.5,-96.1 74,-101.1 78.5,-91.1 78.5,-91.1"/>
<text text-anchor="middle" x="103" y="-101.4" font-family="Times,serif" font-size="7.00">FLOAT(2,3,d)</text>
</g>
<!-- O_2 -->
<g id="node3" class="node">
<title>O_2</title>
<path fill="#aaaaee" stroke="#888888" d="M135.5,-38C135.5,-38 21.5,-38 21.5,-38 15.5,-38 9.5,-32 9.5,-26 9.5,-26 9.5,-12 9.5,-12 9.5,-6 15.5,0 21.5,0 21.5,0 135.5,0 135.5,0 141.5,0 147.5,-6 147.5,-12 147.5,-12 147.5,-26 147.5,-26 147.5,-32 141.5,-38 135.5,-38"/>
<text text-anchor="middle" x="78.5" y="-22.8" font-family="Times,serif" font-size="14.00" fill="#222222">Y</text>
<text text-anchor="middle" x="78.5" y="-7.8" font-family="Times,serif" font-size="14.00" fill="#222222">FLOAT(1,2,3,d,1)</text>
</g>
<!-- Unsqueeze_1&#45;&gt;O_2 -->
<g id="edge2" class="edge">
<title>Unsqueeze_1&#45;&gt;O_2</title>
<path fill="none" stroke="black" d="M78.5,-54.97C78.5,-52.89 78.5,-50.72 78.5,-48.53"/>
<polygon fill="black" stroke="black" points="78.5,-38.32 83,-48.32 78.5,-43.32 78.5,-48.32 78.5,-48.32 78.5,-48.32 78.5,-43.32 74,-48.32 78.5,-38.32 78.5,-38.32"/>
</g>
</g>
</svg>
