<?xml version="1.0" encoding="UTF-8" standalone="no"?>
<!DOCTYPE svg PUBLIC "-//W3C//DTD SVG 1.1//EN"
 "http://www.w3.org/Graphics/SVG/1.1/DTD/svg11.dtd">
<!-- Generated by graphviz version 2.43.0 (0)
 -->
<!-- Title: %3 Pages: 1 -->
<svg width="147pt" height="161pt"
 viewBox="0.00 0.00 147.00 161.00" xmlns="http://www.w3.org/2000/svg" xmlns:xlink="http://www.w3.org/1999/xlink">
<g id="graph0" class="graph" transform="scale(1 1) rotate(0) translate(4 157)">
<title>%3</title>
<!-- I_0 -->
<g id="node1" class="node">
<title>I_0</title>
<path fill="#aaeeaa" stroke="#888888" d="M112,-153C112,-153 27,-153 27,-153 21,-153 15,-147 15,-141 15,-141 15,-127 15,-127 15,-121 21,-115 27,-115 27,-115 112,-115 112,-115 118,-115 124,-121 124,-127 124,-127 124,-141 124,-141 124,-147 118,-153 112,-153"/>
<text text-anchor="middle" x="69.5" y="-137.8" font-family="Times,serif" font-size="14.00" fill="#222222">X</text>
<text text-anchor="middle" x="69.5" y="-122.8" font-family="Times,serif" font-size="14.00" fill="#222222">FLOAT(a,b,c)</text>
</g>
<!-- Unsqueeze_1 -->
<g id="node2" class="node">
<title>Unsqueeze_1</title>
<path fill="#eeeeee" stroke="#888888" d="M127,-91C127,-91 12,-91 12,-91 6,-91 0,-85 0,-79 0,-79 0,-67 0,-67 0,-61 6,-55 12,-55 12,-55 127,-55 127,-55 133,-55 139,-61 139,-67 139,-67 139,-79 139,-79 139,-85 133,-91 127,-91"/>
<text text-anchor="middle" x="69.5" y="-69.3" font-family="Times,serif" font-size="14.00" fill="#222222">Unsqueeze(., [1])</text>
</g>
<!-- I_0&#45;&gt;Unsqueeze_1 -->
<g id="edge1" class="edge">
<title>I_0&#45;&gt;Unsqueeze_1</title>
<path fill="none" stroke="black" d="M69.5,-114.98C69.5,-110.71 69.5,-106.06 69.5,-101.47"/>
<polygon fill="black" stroke="black" points="69.5,-91.1 74,-101.1 69.5,-96.1 69.5,-101.1 69.5,-101.1 69.5,-101.1 69.5,-96.1 65,-101.1 69.5,-91.1 69.5,-91.1"/>
<text text-anchor="middle" x="93.5" y="-101.4" font-family="Times,serif" font-size="7.00">FLOAT(a,b,c)</text>
</g>
<!-- O_2 -->
<g id="node3" class="node">
<title>O_2</title>
<path fill="#aaaaee" stroke="#888888" d="M117,-38C117,-38 22,-38 22,-38 16,-38 10,-32 10,-26 10,-26 10,-12 10,-12 10,-6 16,0 22,0 22,0 117,0 117,0 123,0 129,-6 129,-12 129,-12 129,-26 129,-26 129,-32 123,-38 117,-38"/>
<text text-anchor="middle" x="69.5" y="-22.8" font-family="Times,serif" font-size="14.00" fill="#222222">Z</text>
<text text-anchor="middle" x="69.5" y="-7.8" font-family="Times,serif" font-size="14.00" fill="#222222">FLOAT(e,f,g,h)</text>
</g>
<!-- Unsqueeze_1&#45;&gt;O_2 -->
<g id="edge2" class="edge">
<title>Unsqueeze_1&#45;&gt;O_2</title>
<path fill="none" stroke="black" d="M69.5,-54.97C69.5,-52.89 69.5,-50.72 69.5,-48.53"/>
<polygon fill="black" stroke="black" points="69.5,-38.32 74,-48.32 69.5,-43.32 69.5,-48.32 69.5,-48.32 69.5,-48.32 69.5,-43.32 65,-48.32 69.5,-38.32 69.5,-38.32"/>
</g>
</g>
</svg>
