<?xml version="1.0" encoding="UTF-8" standalone="no"?>
<!DOCTYPE svg PUBLIC "-//W3C//DTD SVG 1.1//EN"
 "http://www.w3.org/Graphics/SVG/1.1/DTD/svg11.dtd">
<!-- Generated by graphviz version 2.43.0 (0)
 -->
<!-- Title: %3 Pages: 1 -->
<svg width="1638pt" height="202pt"
 viewBox="0.00 0.00 1637.50 202.00" xmlns="http://www.w3.org/2000/svg" xmlns:xlink="http://www.w3.org/1999/xlink">
<g id="graph0" class="graph" transform="scale(1 1) rotate(0) translate(4 198)">
<title>%3</title>
<!-- I_0 -->
<g id="node1" class="node">
<title>I_0</title>
<path fill="#aaeeaa" stroke="#888888" d="M316,-194C316,-194 12,-194 12,-194 6,-194 0,-188 0,-182 0,-182 0,-168 0,-168 0,-162 6,-156 12,-156 12,-156 316,-156 316,-156 322,-156 328,-162 328,-168 328,-168 328,-182 328,-182 328,-188 322,-194 316,-194"/>
<text text-anchor="middle" x="164" y="-178.8" font-family="Times,serif" font-size="14.00" fill="#222222">cat</text>
<text text-anchor="middle" x="164" y="-163.8" font-family="Times,serif" font-size="14.00" fill="#222222">FLOAT(batch,4,past_length+seq_length,32)</text>
</g>
<!-- LocalAttentionGQASW_to1_7 -->
<g id="node8" class="node">
<title>LocalAttentionGQASW_to1_7</title>
<path fill="#cccccc" stroke="#888888" d="M890.5,-108C890.5,-108 707.5,-108 707.5,-108 701.5,-108 695.5,-102 695.5,-96 695.5,-96 695.5,-67 695.5,-67 695.5,-61 701.5,-55 707.5,-55 707.5,-55 890.5,-55 890.5,-55 896.5,-55 902.5,-61 902.5,-67 902.5,-67 902.5,-96 902.5,-96 902.5,-102 896.5,-108 890.5,-108"/>
<text text-anchor="middle" x="799" y="-92.8" font-family="Times,serif" font-size="14.00" fill="#222222">intermediate.</text>
<text text-anchor="middle" x="799" y="-77.8" font-family="Times,serif" font-size="14.00" fill="#222222">LocalAttentionGQASW_to1</text>
<text text-anchor="middle" x="799" y="-62.8" font-family="Times,serif" font-size="14.00" fill="#222222">(., ., ., ., ., ., .)</text>
</g>
<!-- I_0&#45;&gt;LocalAttentionGQASW_to1_7 -->
<g id="edge2" class="edge">
<title>I_0&#45;&gt;LocalAttentionGQASW_to1_7</title>
<path fill="none" stroke="black" d="M222.36,-155.94C267.22,-142.78 330.96,-125.64 388,-116 487.61,-99.17 602.29,-90.72 685.16,-86.52"/>
<polygon fill="black" stroke="black" points="695.36,-86.01 685.59,-91 690.36,-86.26 685.37,-86.51 685.37,-86.51 685.37,-86.51 690.36,-86.26 685.15,-82.01 695.36,-86.01 695.36,-86.01"/>
<text text-anchor="middle" x="433.5" y="-142.4" font-family="Times,serif" font-size="7.00">FLOAT(batch,</text>
<text text-anchor="middle" x="433.5" y="-134.4" font-family="Times,serif" font-size="7.00">4,</text>
<text text-anchor="middle" x="433.5" y="-126.4" font-family="Times,serif" font-size="7.00">past_length+seq_length,</text>
<text text-anchor="middle" x="433.5" y="-118.4" font-family="Times,serif" font-size="7.00">32)</text>
</g>
<!-- I_1 -->
<g id="node2" class="node">
<title>I_1</title>
<path fill="#aaeeaa" stroke="#888888" d="M448,-194C448,-194 354,-194 354,-194 348,-194 342,-188 342,-182 342,-182 342,-168 342,-168 342,-162 348,-156 354,-156 354,-156 448,-156 448,-156 454,-156 460,-162 460,-168 460,-168 460,-182 460,-182 460,-188 454,-194 448,-194"/>
<text text-anchor="middle" x="401" y="-178.8" font-family="Times,serif" font-size="14.00" fill="#222222">init1_s_::RSh1</text>
<text text-anchor="middle" x="401" y="-163.8" font-family="Times,serif" font-size="14.00" fill="#222222">FLOAT(1)</text>
</g>
<!-- I_1&#45;&gt;LocalAttentionGQASW_to1_7 -->
<g id="edge5" class="edge">
<title>I_1&#45;&gt;LocalAttentionGQASW_to1_7</title>
<path fill="none" stroke="black" d="M452.73,-155.88C490.2,-143.29 542.26,-126.88 589,-116 619.99,-108.79 653.91,-102.63 685.28,-97.64"/>
<polygon fill="black" stroke="black" points="695.36,-96.07 686.18,-102.06 690.42,-96.84 685.48,-97.61 685.48,-97.61 685.48,-97.61 690.42,-96.84 684.79,-93.17 695.36,-96.07 695.36,-96.07"/>
<text text-anchor="middle" x="606.5" y="-130.4" font-family="Times,serif" font-size="7.00">FLOAT(1)</text>
</g>
<!-- I_2 -->
<g id="node3" class="node">
<title>I_2</title>
<path fill="#aaeeaa" stroke="#888888" d="M698,-194C698,-194 486,-194 486,-194 480,-194 474,-188 474,-182 474,-182 474,-168 474,-168 474,-162 480,-156 486,-156 486,-156 698,-156 698,-156 704,-156 710,-162 710,-168 710,-168 710,-182 710,-182 710,-188 704,-194 698,-194"/>
<text text-anchor="middle" x="592" y="-178.8" font-family="Times,serif" font-size="14.00" fill="#222222">to</text>
<text text-anchor="middle" x="592" y="-163.8" font-family="Times,serif" font-size="14.00" fill="#222222">BOOL(seq_length,total_length)</text>
</g>
<!-- I_2&#45;&gt;LocalAttentionGQASW_to1_7 -->
<g id="edge4" class="edge">
<title>I_2&#45;&gt;LocalAttentionGQASW_to1_7</title>
<path fill="none" stroke="black" d="M615.42,-155.92C632.74,-143.27 657.33,-126.77 681,-116 684.2,-114.54 687.47,-113.14 690.8,-111.78"/>
<polygon fill="black" stroke="black" points="700.32,-108.08 692.63,-115.9 695.66,-109.89 691,-111.7 691,-111.7 691,-111.7 695.66,-109.89 689.37,-107.51 700.32,-108.08 700.32,-108.08"/>
<text text-anchor="middle" x="738.5" y="-130.4" font-family="Times,serif" font-size="7.00">BOOL(seq_length,total_length)</text>
</g>
<!-- I_3 -->
<g id="node4" class="node">
<title>I_3</title>
<path fill="#aaeeaa" stroke="#888888" d="M861.5,-194C861.5,-194 736.5,-194 736.5,-194 730.5,-194 724.5,-188 724.5,-182 724.5,-182 724.5,-168 724.5,-168 724.5,-162 730.5,-156 736.5,-156 736.5,-156 861.5,-156 861.5,-156 867.5,-156 873.5,-162 873.5,-168 873.5,-168 873.5,-182 873.5,-182 873.5,-188 867.5,-194 861.5,-194"/>
<text text-anchor="middle" x="799" y="-178.8" font-family="Times,serif" font-size="14.00" fill="#222222">init7_s4_0_8_&#45;1_32</text>
<text text-anchor="middle" x="799" y="-163.8" font-family="Times,serif" font-size="14.00" fill="#222222">INT64(4)</text>
</g>
<!-- I_3&#45;&gt;LocalAttentionGQASW_to1_7 -->
<g id="edge7" class="edge">
<title>I_3&#45;&gt;LocalAttentionGQASW_to1_7</title>
<path fill="none" stroke="black" d="M799,-155.92C799,-145.16 799,-131.11 799,-118.2"/>
<polygon fill="black" stroke="black" points="799,-108.16 803.5,-118.16 799,-113.16 799,-118.16 799,-118.16 799,-118.16 799,-113.16 794.5,-118.16 799,-108.16 799,-108.16"/>
<text text-anchor="middle" x="816" y="-130.4" font-family="Times,serif" font-size="7.00">INT64(4)</text>
</g>
<!-- I_4 -->
<g id="node5" class="node">
<title>I_4</title>
<path fill="#aaeeaa" stroke="#888888" d="M1028,-194C1028,-194 900,-194 900,-194 894,-194 888,-188 888,-182 888,-182 888,-168 888,-168 888,-162 894,-156 900,-156 900,-156 1028,-156 1028,-156 1034,-156 1040,-162 1040,-168 1040,-168 1040,-182 1040,-182 1040,-188 1034,-194 1028,-194"/>
<text text-anchor="middle" x="964" y="-178.8" font-family="Times,serif" font-size="14.00" fill="#222222">init7_s5_1_1_2_1_1</text>
<text text-anchor="middle" x="964" y="-163.8" font-family="Times,serif" font-size="14.00" fill="#222222">INT64(5)</text>
</g>
<!-- I_4&#45;&gt;LocalAttentionGQASW_to1_7 -->
<g id="edge6" class="edge">
<title>I_4&#45;&gt;LocalAttentionGQASW_to1_7</title>
<path fill="none" stroke="black" d="M931.4,-155.92C909.39,-143.72 879.79,-127.3 854.16,-113.09"/>
<polygon fill="black" stroke="black" points="845.27,-108.16 856.2,-109.08 849.65,-110.59 854.02,-113.01 854.02,-113.01 854.02,-113.01 849.65,-110.59 851.84,-116.95 845.27,-108.16 845.27,-108.16"/>
<text text-anchor="middle" x="933" y="-130.4" font-family="Times,serif" font-size="7.00">INT64(5)</text>
</g>
<!-- I_5 -->
<g id="node6" class="node">
<title>I_5</title>
<path fill="#aaeeaa" stroke="#888888" d="M1370,-194C1370,-194 1066,-194 1066,-194 1060,-194 1054,-188 1054,-182 1054,-182 1054,-168 1054,-168 1054,-162 1060,-156 1066,-156 1066,-156 1370,-156 1370,-156 1376,-156 1382,-162 1382,-168 1382,-168 1382,-182 1382,-182 1382,-188 1376,-194 1370,-194"/>
<text text-anchor="middle" x="1218" y="-178.8" font-family="Times,serif" font-size="14.00" fill="#222222">cat_1</text>
<text text-anchor="middle" x="1218" y="-163.8" font-family="Times,serif" font-size="14.00" fill="#222222">FLOAT(batch,4,past_length+seq_length,32)</text>
</g>
<!-- I_5&#45;&gt;LocalAttentionGQASW_to1_7 -->
<g id="edge3" class="edge">
<title>I_5&#45;&gt;LocalAttentionGQASW_to1_7</title>
<path fill="none" stroke="black" d="M1135.64,-155.95C1083.33,-144.49 1014.2,-129.35 953,-116 939.88,-113.14 926.13,-110.14 912.47,-107.17"/>
<polygon fill="black" stroke="black" points="902.55,-105.01 913.28,-102.74 907.44,-106.07 912.32,-107.13 912.32,-107.13 912.32,-107.13 907.44,-106.07 911.37,-111.53 902.55,-105.01 902.55,-105.01"/>
<text text-anchor="middle" x="1142.5" y="-142.4" font-family="Times,serif" font-size="7.00">FLOAT(batch,</text>
<text text-anchor="middle" x="1142.5" y="-134.4" font-family="Times,serif" font-size="7.00">4,</text>
<text text-anchor="middle" x="1142.5" y="-126.4" font-family="Times,serif" font-size="7.00">past_length+seq_length,</text>
<text text-anchor="middle" x="1142.5" y="-118.4" font-family="Times,serif" font-size="7.00">32)</text>
</g>
<!-- I_6 -->
<g id="node7" class="node">
<title>I_6</title>
<path fill="#aaeeaa" stroke="#888888" d="M1617.5,-194C1617.5,-194 1408.5,-194 1408.5,-194 1402.5,-194 1396.5,-188 1396.5,-182 1396.5,-182 1396.5,-168 1396.5,-168 1396.5,-162 1402.5,-156 1408.5,-156 1408.5,-156 1617.5,-156 1617.5,-156 1623.5,-156 1629.5,-162 1629.5,-168 1629.5,-168 1629.5,-182 1629.5,-182 1629.5,-188 1623.5,-194 1617.5,-194"/>
<text text-anchor="middle" x="1513" y="-178.8" font-family="Times,serif" font-size="14.00" fill="#222222">query</text>
<text text-anchor="middle" x="1513" y="-163.8" font-family="Times,serif" font-size="14.00" fill="#222222">FLOAT(batch,8,seq_length,32)</text>
</g>
<!-- I_6&#45;&gt;LocalAttentionGQASW_to1_7 -->
<g id="edge1" class="edge">
<title>I_6&#45;&gt;LocalAttentionGQASW_to1_7</title>
<path fill="none" stroke="black" d="M1425.54,-155.97C1360.97,-143.22 1270.82,-126.58 1191,-116 1097.85,-103.66 991.61,-94.91 913.25,-89.45"/>
<polygon fill="black" stroke="black" points="902.86,-88.74 913.15,-84.93 907.85,-89.08 912.84,-89.42 912.84,-89.42 912.84,-89.42 907.85,-89.08 912.53,-93.91 902.86,-88.74 902.86,-88.74"/>
<text text-anchor="middle" x="1437.5" y="-130.4" font-family="Times,serif" font-size="7.00">FLOAT(batch,8,seq_length,32)</text>
</g>
<!-- O_8 -->
<g id="node9" class="node">
<title>O_8</title>
<path fill="#aaaaee" stroke="#888888" d="M903.5,-38C903.5,-38 694.5,-38 694.5,-38 688.5,-38 682.5,-32 682.5,-26 682.5,-26 682.5,-12 682.5,-12 682.5,-6 688.5,0 694.5,0 694.5,0 903.5,0 903.5,0 909.5,0 915.5,-6 915.5,-12 915.5,-12 915.5,-26 915.5,-26 915.5,-32 909.5,-38 903.5,-38"/>
<text text-anchor="middle" x="799" y="-22.8" font-family="Times,serif" font-size="14.00" fill="#222222">output_0</text>
<text text-anchor="middle" x="799" y="-7.8" font-family="Times,serif" font-size="14.00" fill="#222222">FLOAT(batch,8,seq_length,32)</text>
</g>
<!-- LocalAttentionGQASW_to1_7&#45;&gt;O_8 -->
<g id="edge8" class="edge">
<title>LocalAttentionGQASW_to1_7&#45;&gt;O_8</title>
<path fill="none" stroke="black" d="M799,-54.84C799,-52.77 799,-50.66 799,-48.56"/>
<polygon fill="black" stroke="black" points="799,-38.36 803.5,-48.36 799,-43.36 799,-48.36 799,-48.36 799,-48.36 799,-43.36 794.5,-48.36 799,-38.36 799,-38.36"/>
</g>
</g>
</svg>
