<?xml version="1.0" encoding="UTF-8" standalone="no"?>
<!DOCTYPE svg PUBLIC "-//W3C//DTD SVG 1.1//EN"
 "http://www.w3.org/Graphics/SVG/1.1/DTD/svg11.dtd">
<!-- Generated by graphviz version 2.43.0 (0)
 -->
<!-- Title: %3 Pages: 1 -->
<svg width="182pt" height="221pt"
 viewBox="0.00 0.00 182.00 221.00" xmlns="http://www.w3.org/2000/svg" xmlns:xlink="http://www.w3.org/1999/xlink">
<g id="graph0" class="graph" transform="scale(1 1) rotate(0) translate(4 217)">
<title>%3</title>
<!-- I_0 -->
<g id="node1" class="node">
<title>I_0</title>
<path fill="#aaeeaa" stroke="#888888" d="M68,-213C68,-213 12,-213 12,-213 6,-213 0,-207 0,-201 0,-201 0,-187 0,-187 0,-181 6,-175 12,-175 12,-175 68,-175 68,-175 74,-175 80,-181 80,-187 80,-187 80,-201 80,-201 80,-207 74,-213 68,-213"/>
<text text-anchor="middle" x="40" y="-197.8" font-family="Times,serif" font-size="14.00" fill="#222222">D1</text>
<text text-anchor="middle" x="40" y="-182.8" font-family="Times,serif" font-size="14.00" fill="#222222">INT64(1)</text>
</g>
<!-- Concat_2 -->
<g id="node3" class="node">
<title>Concat_2</title>
<path fill="#cccccc" stroke="#888888" d="M151.5,-151C151.5,-151 22.5,-151 22.5,-151 16.5,-151 10.5,-145 10.5,-139 10.5,-139 10.5,-127 10.5,-127 10.5,-121 16.5,-115 22.5,-115 22.5,-115 151.5,-115 151.5,-115 157.5,-115 163.5,-121 163.5,-127 163.5,-127 163.5,-139 163.5,-139 163.5,-145 157.5,-151 151.5,-151"/>
<text text-anchor="middle" x="87" y="-129.3" font-family="Times,serif" font-size="14.00" fill="#222222">Concat(., ., axis=0)</text>
</g>
<!-- I_0&#45;&gt;Concat_2 -->
<g id="edge1" class="edge">
<title>I_0&#45;&gt;Concat_2</title>
<path fill="none" stroke="black" d="M54.36,-174.98C58.33,-170 62.71,-164.5 66.93,-159.19"/>
<polygon fill="black" stroke="black" points="73.37,-151.1 70.66,-161.73 70.26,-155.02 67.14,-158.93 67.14,-158.93 67.14,-158.93 70.26,-155.02 63.62,-156.12 73.37,-151.1 73.37,-151.1"/>
<text text-anchor="middle" x="84" y="-161.4" font-family="Times,serif" font-size="7.00">INT64(1)</text>
</g>
<!-- I_1 -->
<g id="node2" class="node">
<title>I_1</title>
<path fill="#aaeeaa" stroke="#888888" d="M162,-213C162,-213 106,-213 106,-213 100,-213 94,-207 94,-201 94,-201 94,-187 94,-187 94,-181 100,-175 106,-175 106,-175 162,-175 162,-175 168,-175 174,-181 174,-187 174,-187 174,-201 174,-201 174,-207 168,-213 162,-213"/>
<text text-anchor="middle" x="134" y="-197.8" font-family="Times,serif" font-size="14.00" fill="#222222">D2</text>
<text text-anchor="middle" x="134" y="-182.8" font-family="Times,serif" font-size="14.00" fill="#222222">INT64(1)</text>
</g>
<!-- I_1&#45;&gt;Concat_2 -->
<g id="edge2" class="edge">
<title>I_1&#45;&gt;Concat_2</title>
<path fill="none" stroke="black" d="M119.64,-174.98C115.67,-170 111.29,-164.5 107.07,-159.19"/>
<polygon fill="black" stroke="black" points="100.63,-151.1 110.38,-156.12 103.74,-155.02 106.86,-158.93 106.86,-158.93 106.86,-158.93 103.74,-155.02 103.34,-161.73 100.63,-151.1 100.63,-151.1"/>
<text text-anchor="middle" x="128" y="-161.4" font-family="Times,serif" font-size="7.00">INT64(1)</text>
</g>
<!-- Gather_3 -->
<g id="node4" class="node">
<title>Gather_3</title>
<path fill="#cccccc" stroke="#888888" d="M130,-91C130,-91 44,-91 44,-91 38,-91 32,-85 32,-79 32,-79 32,-67 32,-67 32,-61 38,-55 44,-55 44,-55 130,-55 130,-55 136,-55 142,-61 142,-67 142,-67 142,-79 142,-79 142,-85 136,-91 130,-91"/>
<text text-anchor="middle" x="87" y="-69.3" font-family="Times,serif" font-size="14.00" fill="#222222">Gather(., [1])</text>
</g>
<!-- Concat_2&#45;&gt;Gather_3 -->
<g id="edge3" class="edge">
<title>Concat_2&#45;&gt;Gather_3</title>
<path fill="none" stroke="black" d="M87,-114.91C87,-110.7 87,-106.09 87,-101.52"/>
<polygon fill="black" stroke="black" points="87,-91.17 91.5,-101.17 87,-96.17 87,-101.17 87,-101.17 87,-101.17 87,-96.17 82.5,-101.17 87,-91.17 87,-91.17"/>
<text text-anchor="middle" x="104" y="-101.4" font-family="Times,serif" font-size="7.00">INT64(2)</text>
</g>
<!-- O_4 -->
<g id="node5" class="node">
<title>O_4</title>
<path fill="#aaaaee" stroke="#888888" d="M115,-38C115,-38 59,-38 59,-38 53,-38 47,-32 47,-26 47,-26 47,-12 47,-12 47,-6 53,0 59,0 59,0 115,0 115,0 121,0 127,-6 127,-12 127,-12 127,-26 127,-26 127,-32 121,-38 115,-38"/>
<text text-anchor="middle" x="87" y="-22.8" font-family="Times,serif" font-size="14.00" fill="#222222">Y</text>
<text text-anchor="middle" x="87" y="-7.8" font-family="Times,serif" font-size="14.00" fill="#222222">INT64(1)</text>
</g>
<!-- Gather_3&#45;&gt;O_4 -->
<g id="edge4" class="edge">
<title>Gather_3&#45;&gt;O_4</title>
<path fill="none" stroke="black" d="M87,-54.97C87,-52.89 87,-50.72 87,-48.53"/>
<polygon fill="black" stroke="black" points="87,-38.32 91.5,-48.32 87,-43.32 87,-48.32 87,-48.32 87,-48.32 87,-43.32 82.5,-48.32 87,-38.32 87,-38.32"/>
</g>
</g>
</svg>
