<?xml version="1.0" encoding="UTF-8" standalone="no"?>
<!DOCTYPE svg PUBLIC "-//W3C//DTD SVG 1.1//EN"
 "http://www.w3.org/Graphics/SVG/1.1/DTD/svg11.dtd">
<!-- Generated by graphviz version 2.43.0 (0)
 -->
<!-- Title: %3 Pages: 1 -->
<svg width="324pt" height="225pt"
 viewBox="0.00 0.00 324.00 225.00" xmlns="http://www.w3.org/2000/svg" xmlns:xlink="http://www.w3.org/1999/xlink">
<g id="graph0" class="graph" transform="scale(1 1) rotate(0) translate(4 221)">
<title>%3</title>
<!-- I_0 -->
<g id="node1" class="node">
<title>I_0</title>
<path fill="#aaeeaa" stroke="#888888" d="M98,-217C98,-217 12,-217 12,-217 6,-217 0,-211 0,-205 0,-205 0,-191 0,-191 0,-185 6,-179 12,-179 12,-179 98,-179 98,-179 104,-179 110,-185 110,-191 110,-191 110,-205 110,-205 110,-211 104,-217 98,-217"/>
<text text-anchor="middle" x="55" y="-201.8" font-family="Times,serif" font-size="14.00" fill="#222222">Y</text>
<text text-anchor="middle" x="55" y="-186.8" font-family="Times,serif" font-size="14.00" fill="#222222">FLOAT(a,1,b)</text>
</g>
<!-- I_1 -->
<g id="node2" class="node">
<title>I_1</title>
<path fill="#aaeeaa" stroke="#888888" d="M136,-155C136,-155 76,-155 76,-155 70,-155 64,-149 64,-143 64,-143 64,-129 64,-129 64,-123 70,-117 76,-117 76,-117 136,-117 136,-117 142,-117 148,-123 148,-129 148,-129 148,-143 148,-143 148,-149 142,-155 136,-155"/>
<text text-anchor="middle" x="106" y="-139.8" font-family="Times,serif" font-size="14.00" fill="#222222">m_one</text>
<text text-anchor="middle" x="106" y="-124.8" font-family="Times,serif" font-size="14.00" fill="#222222">FLOAT(1)</text>
</g>
<!-- Equal_5 -->
<g id="node6" class="node">
<title>Equal_5</title>
<path fill="#cccccc" stroke="#888888" d="M140,-92C140,-92 78,-92 78,-92 72,-92 66,-86 66,-80 66,-80 66,-68 66,-68 66,-62 72,-56 78,-56 78,-56 140,-56 140,-56 146,-56 152,-62 152,-68 152,-68 152,-80 152,-80 152,-86 146,-92 140,-92"/>
<text text-anchor="middle" x="109" y="-70.3" font-family="Times,serif" font-size="14.00" fill="#222222">Equal(., .)</text>
</g>
<!-- I_1&#45;&gt;Equal_5 -->
<g id="edge4" class="edge">
<title>I_1&#45;&gt;Equal_5</title>
<path fill="none" stroke="black" d="M106.9,-117C107.13,-112.33 107.39,-107.19 107.64,-102.16"/>
<polygon fill="black" stroke="black" points="108.14,-92.17 112.14,-102.38 107.89,-97.16 107.64,-102.15 107.64,-102.15 107.64,-102.15 107.89,-97.16 103.15,-101.93 108.14,-92.17 108.14,-92.17"/>
<text text-anchor="middle" x="125.5" y="-103.4" font-family="Times,serif" font-size="7.00">FLOAT(1)</text>
</g>
<!-- I_2 -->
<g id="node3" class="node">
<title>I_2</title>
<path fill="#aaeeaa" stroke="#888888" d="M209.5,-217C209.5,-217 136.5,-217 136.5,-217 130.5,-217 124.5,-211 124.5,-205 124.5,-205 124.5,-191 124.5,-191 124.5,-185 130.5,-179 136.5,-179 136.5,-179 209.5,-179 209.5,-179 215.5,-179 221.5,-185 221.5,-191 221.5,-191 221.5,-205 221.5,-205 221.5,-211 215.5,-217 209.5,-217"/>
<text text-anchor="middle" x="173" y="-201.8" font-family="Times,serif" font-size="14.00" fill="#222222">X</text>
<text text-anchor="middle" x="173" y="-186.8" font-family="Times,serif" font-size="14.00" fill="#222222">FLOAT(a,b)</text>
</g>
<!-- Unsqueeze_4 -->
<g id="node5" class="node">
<title>Unsqueeze_4</title>
<path fill="#eeeeee" stroke="#888888" d="M274,-154C274,-154 174,-154 174,-154 168,-154 162,-148 162,-142 162,-142 162,-130 162,-130 162,-124 168,-118 174,-118 174,-118 274,-118 274,-118 280,-118 286,-124 286,-130 286,-130 286,-142 286,-142 286,-148 280,-154 274,-154"/>
<text text-anchor="middle" x="224" y="-132.3" font-family="Times,serif" font-size="14.00" fill="#222222">Unsqueeze(., .)</text>
</g>
<!-- I_2&#45;&gt;Unsqueeze_4 -->
<g id="edge1" class="edge">
<title>I_2&#45;&gt;Unsqueeze_4</title>
<path fill="none" stroke="black" d="M188.3,-179C192.8,-173.71 197.8,-167.83 202.6,-162.18"/>
<polygon fill="black" stroke="black" points="209.41,-154.17 206.36,-164.7 206.17,-157.98 202.93,-161.79 202.93,-161.79 202.93,-161.79 206.17,-157.98 199.5,-158.87 209.41,-154.17 209.41,-154.17"/>
<text text-anchor="middle" x="223" y="-165.4" font-family="Times,serif" font-size="7.00">FLOAT(a,b)</text>
</g>
<!-- I_3 -->
<g id="node4" class="node">
<title>I_3</title>
<path fill="#aaeeaa" stroke="#888888" d="M304,-217C304,-217 248,-217 248,-217 242,-217 236,-211 236,-205 236,-205 236,-191 236,-191 236,-185 242,-179 248,-179 248,-179 304,-179 304,-179 310,-179 316,-185 316,-191 316,-191 316,-205 316,-205 316,-211 310,-217 304,-217"/>
<text text-anchor="middle" x="276" y="-201.8" font-family="Times,serif" font-size="14.00" fill="#222222">axis</text>
<text text-anchor="middle" x="276" y="-186.8" font-family="Times,serif" font-size="14.00" fill="#222222">INT64(1)</text>
</g>
<!-- I_3&#45;&gt;Unsqueeze_4 -->
<g id="edge2" class="edge">
<title>I_3&#45;&gt;Unsqueeze_4</title>
<path fill="none" stroke="black" d="M260.71,-178.95C256.3,-173.78 251.48,-168.15 247,-163 246.6,-162.55 246.21,-162.09 245.8,-161.62"/>
<polygon fill="black" stroke="black" points="239.14,-154.02 249.11,-158.58 242.43,-157.78 245.73,-161.54 245.73,-161.54 245.73,-161.54 242.43,-157.78 242.35,-164.51 239.14,-154.02 239.14,-154.02"/>
<text text-anchor="middle" x="270" y="-165.4" font-family="Times,serif" font-size="7.00">INT64(1)</text>
</g>
<!-- Unsqueeze_4&#45;&gt;Equal_5 -->
<g id="edge3" class="edge">
<title>Unsqueeze_4&#45;&gt;Equal_5</title>
<path fill="none" stroke="black" d="M189.52,-117.95C183.66,-115 177.64,-111.93 172,-109 164.71,-105.21 156.99,-101.11 149.54,-97.12"/>
<polygon fill="black" stroke="black" points="140.3,-92.14 151.24,-92.92 144.7,-94.51 149.11,-96.89 149.11,-96.89 149.11,-96.89 144.7,-94.51 146.97,-100.85 140.3,-92.14 140.3,-92.14"/>
<text text-anchor="middle" x="196.5" y="-103.4" font-family="Times,serif" font-size="7.00">FLOAT(a,1,b)</text>
</g>
<!-- O_6 -->
<g id="node7" class="node">
<title>O_6</title>
<path fill="#aaaaee" stroke="#888888" d="M267,-93C267,-93 181,-93 181,-93 175,-93 169,-87 169,-81 169,-81 169,-67 169,-67 169,-61 175,-55 181,-55 181,-55 267,-55 267,-55 273,-55 279,-61 279,-67 279,-67 279,-81 279,-81 279,-87 273,-93 267,-93"/>
<text text-anchor="middle" x="224" y="-77.8" font-family="Times,serif" font-size="14.00" fill="#222222">Y</text>
<text text-anchor="middle" x="224" y="-62.8" font-family="Times,serif" font-size="14.00" fill="#222222">FLOAT(a,1,b)</text>
</g>
<!-- Unsqueeze_4&#45;&gt;O_6 -->
<g id="edge5" class="edge">
<title>Unsqueeze_4&#45;&gt;O_6</title>
<path fill="none" stroke="black" d="M224,-117.97C224,-113.36 224,-108.25 224,-103.2"/>
<polygon fill="black" stroke="black" points="224,-93.12 228.5,-103.12 224,-98.12 224,-103.12 224,-103.12 224,-103.12 224,-98.12 219.5,-103.12 224,-93.12 224,-93.12"/>
</g>
<!-- O_7 -->
<g id="node8" class="node">
<title>O_7</title>
<path fill="#aaaaee" stroke="#888888" d="M149,-38C149,-38 69,-38 69,-38 63,-38 57,-32 57,-26 57,-26 57,-12 57,-12 57,-6 63,0 69,0 69,0 149,0 149,0 155,0 161,-6 161,-12 161,-12 161,-26 161,-26 161,-32 155,-38 149,-38"/>
<text text-anchor="middle" x="109" y="-22.8" font-family="Times,serif" font-size="14.00" fill="#222222">Z</text>
<text text-anchor="middle" x="109" y="-7.8" font-family="Times,serif" font-size="14.00" fill="#222222">BOOL(a,1,b)</text>
</g>
<!-- Equal_5&#45;&gt;O_7 -->
<g id="edge6" class="edge">
<title>Equal_5&#45;&gt;O_7</title>
<path fill="none" stroke="black" d="M109,-55.94C109,-53.45 109,-50.83 109,-48.19"/>
<polygon fill="black" stroke="black" points="109,-38.13 113.5,-48.13 109,-43.13 109,-48.13 109,-48.13 109,-48.13 109,-43.13 104.5,-48.13 109,-38.13 109,-38.13"/>
</g>
</g>
</svg>
