<?xml version="1.0" encoding="UTF-8" standalone="no"?>
<!DOCTYPE svg PUBLIC "-//W3C//DTD SVG 1.1//EN"
 "http://www.w3.org/Graphics/SVG/1.1/DTD/svg11.dtd">
<!-- Generated by graphviz version 2.43.0 (0)
 -->
<!-- Title: %3 Pages: 1 -->
<svg width="501pt" height="431pt"
 viewBox="0.00 0.00 500.50 431.00" xmlns="http://www.w3.org/2000/svg" xmlns:xlink="http://www.w3.org/1999/xlink">
<g id="graph0" class="graph" transform="scale(1 1) rotate(0) translate(4 427)">
<title>%3</title>
<!-- I_0 -->
<g id="node1" class="node">
<title>I_0</title>
<path fill="#aaeeaa" stroke="#888888" d="M386.5,-423C386.5,-423 330.5,-423 330.5,-423 324.5,-423 318.5,-417 318.5,-411 318.5,-411 318.5,-397 318.5,-397 318.5,-391 324.5,-385 330.5,-385 330.5,-385 386.5,-385 386.5,-385 392.5,-385 398.5,-391 398.5,-397 398.5,-397 398.5,-411 398.5,-411 398.5,-417 392.5,-423 386.5,-423"/>
<text text-anchor="middle" x="358.5" y="-407.8" font-family="Times,serif" font-size="14.00" fill="#222222">d1</text>
<text text-anchor="middle" x="358.5" y="-392.8" font-family="Times,serif" font-size="14.00" fill="#222222">INT64(1)</text>
</g>
<!-- Squeeze_4 -->
<g id="node5" class="node">
<title>Squeeze_4</title>
<path fill="#eeeeee" stroke="#888888" d="M392.5,-361C392.5,-361 324.5,-361 324.5,-361 318.5,-361 312.5,-355 312.5,-349 312.5,-349 312.5,-337 312.5,-337 312.5,-331 318.5,-325 324.5,-325 324.5,-325 392.5,-325 392.5,-325 398.5,-325 404.5,-331 404.5,-337 404.5,-337 404.5,-349 404.5,-349 404.5,-355 398.5,-361 392.5,-361"/>
<text text-anchor="middle" x="358.5" y="-339.3" font-family="Times,serif" font-size="14.00" fill="#222222">Squeeze(.)</text>
</g>
<!-- I_0&#45;&gt;Squeeze_4 -->
<g id="edge1" class="edge">
<title>I_0&#45;&gt;Squeeze_4</title>
<path fill="none" stroke="black" d="M358.5,-384.98C358.5,-380.71 358.5,-376.06 358.5,-371.47"/>
<polygon fill="black" stroke="black" points="358.5,-361.1 363,-371.1 358.5,-366.1 358.5,-371.1 358.5,-371.1 358.5,-371.1 358.5,-366.1 354,-371.1 358.5,-361.1 358.5,-361.1"/>
<text text-anchor="middle" x="375.5" y="-371.4" font-family="Times,serif" font-size="7.00">INT64(1)</text>
</g>
<!-- I_1 -->
<g id="node2" class="node">
<title>I_1</title>
<path fill="#aaeeaa" stroke="#888888" d="M480.5,-423C480.5,-423 424.5,-423 424.5,-423 418.5,-423 412.5,-417 412.5,-411 412.5,-411 412.5,-397 412.5,-397 412.5,-391 418.5,-385 424.5,-385 424.5,-385 480.5,-385 480.5,-385 486.5,-385 492.5,-391 492.5,-397 492.5,-397 492.5,-411 492.5,-411 492.5,-417 486.5,-423 480.5,-423"/>
<text text-anchor="middle" x="452.5" y="-407.8" font-family="Times,serif" font-size="14.00" fill="#222222">initi</text>
<text text-anchor="middle" x="452.5" y="-392.8" font-family="Times,serif" font-size="14.00" fill="#222222">INT64(1)</text>
</g>
<!-- I_2 -->
<g id="node3" class="node">
<title>I_2</title>
<path fill="#aaeeaa" stroke="#888888" d="M272.5,-423C272.5,-423 216.5,-423 216.5,-423 210.5,-423 204.5,-417 204.5,-411 204.5,-411 204.5,-397 204.5,-397 204.5,-391 210.5,-385 216.5,-385 216.5,-385 272.5,-385 272.5,-385 278.5,-385 284.5,-391 284.5,-397 284.5,-397 284.5,-411 284.5,-411 284.5,-417 278.5,-423 272.5,-423"/>
<text text-anchor="middle" x="244.5" y="-407.8" font-family="Times,serif" font-size="14.00" fill="#222222">d2</text>
<text text-anchor="middle" x="244.5" y="-392.8" font-family="Times,serif" font-size="14.00" fill="#222222">INT64(1)</text>
</g>
<!-- Squeeze_5 -->
<g id="node6" class="node">
<title>Squeeze_5</title>
<path fill="#eeeeee" stroke="#888888" d="M278.5,-361C278.5,-361 210.5,-361 210.5,-361 204.5,-361 198.5,-355 198.5,-349 198.5,-349 198.5,-337 198.5,-337 198.5,-331 204.5,-325 210.5,-325 210.5,-325 278.5,-325 278.5,-325 284.5,-325 290.5,-331 290.5,-337 290.5,-337 290.5,-349 290.5,-349 290.5,-355 284.5,-361 278.5,-361"/>
<text text-anchor="middle" x="244.5" y="-339.3" font-family="Times,serif" font-size="14.00" fill="#222222">Squeeze(.)</text>
</g>
<!-- I_2&#45;&gt;Squeeze_5 -->
<g id="edge2" class="edge">
<title>I_2&#45;&gt;Squeeze_5</title>
<path fill="none" stroke="black" d="M244.5,-384.98C244.5,-380.71 244.5,-376.06 244.5,-371.47"/>
<polygon fill="black" stroke="black" points="244.5,-361.1 249,-371.1 244.5,-366.1 244.5,-371.1 244.5,-371.1 244.5,-371.1 244.5,-366.1 240,-371.1 244.5,-361.1 244.5,-361.1"/>
<text text-anchor="middle" x="261.5" y="-371.4" font-family="Times,serif" font-size="7.00">INT64(1)</text>
</g>
<!-- Constant_3 -->
<g id="node4" class="node">
<title>Constant_3</title>
<path fill="#cccccc" stroke="#888888" d="M252.5,-239C252.5,-239 130.5,-239 130.5,-239 124.5,-239 118.5,-233 118.5,-227 118.5,-227 118.5,-215 118.5,-215 118.5,-209 124.5,-203 130.5,-203 130.5,-203 252.5,-203 252.5,-203 258.5,-203 264.5,-209 264.5,-215 264.5,-215 264.5,-227 264.5,-227 264.5,-233 258.5,-239 252.5,-239"/>
<text text-anchor="middle" x="191.5" y="-217.3" font-family="Times,serif" font-size="14.00" fill="#222222">Constant() &#45;&gt; initi</text>
</g>
<!-- Sub_10 -->
<g id="node11" class="node">
<title>Sub_10</title>
<path fill="#cccccc" stroke="#888888" d="M280,-151C280,-151 231,-151 231,-151 225,-151 219,-145 219,-139 219,-139 219,-127 219,-127 219,-121 225,-115 231,-115 231,-115 280,-115 280,-115 286,-115 292,-121 292,-127 292,-127 292,-139 292,-139 292,-145 286,-151 280,-151"/>
<text text-anchor="middle" x="255.5" y="-129.3" font-family="Times,serif" font-size="14.00" fill="#222222">Sub(., .)</text>
</g>
<!-- Constant_3&#45;&gt;Sub_10 -->
<g id="edge9" class="edge">
<title>Constant_3&#45;&gt;Sub_10</title>
<path fill="none" stroke="black" d="M204.45,-202.6C213.71,-190.16 226.31,-173.23 236.67,-159.3"/>
<polygon fill="black" stroke="black" points="242.79,-151.08 240.43,-161.79 239.8,-155.1 236.82,-159.11 236.82,-159.11 236.82,-159.11 239.8,-155.1 233.21,-156.42 242.79,-151.08 242.79,-151.08"/>
<text text-anchor="middle" x="253.5" y="-175.4" font-family="Times,serif" font-size="7.00">INT64(1)</text>
</g>
<!-- Range_7 -->
<g id="node8" class="node">
<title>Range_7</title>
<path fill="#cccccc" stroke="#888888" d="M400.5,-300C400.5,-300 316.5,-300 316.5,-300 310.5,-300 304.5,-294 304.5,-288 304.5,-288 304.5,-276 304.5,-276 304.5,-270 310.5,-264 316.5,-264 316.5,-264 400.5,-264 400.5,-264 406.5,-264 412.5,-270 412.5,-276 412.5,-276 412.5,-288 412.5,-288 412.5,-294 406.5,-300 400.5,-300"/>
<text text-anchor="middle" x="358.5" y="-278.3" font-family="Times,serif" font-size="14.00" fill="#222222">Range(., ., 1)</text>
</g>
<!-- Squeeze_4&#45;&gt;Range_7 -->
<g id="edge4" class="edge">
<title>Squeeze_4&#45;&gt;Range_7</title>
<path fill="none" stroke="black" d="M358.5,-324.93C358.5,-320.45 358.5,-315.49 358.5,-310.61"/>
<polygon fill="black" stroke="black" points="358.5,-300.23 363,-310.23 358.5,-305.23 358.5,-310.23 358.5,-310.23 358.5,-310.23 358.5,-305.23 354,-310.23 358.5,-300.23 358.5,-300.23"/>
<text text-anchor="middle" x="373" y="-311.4" font-family="Times,serif" font-size="7.00">INT64()</text>
</g>
<!-- Range_6 -->
<g id="node7" class="node">
<title>Range_6</title>
<path fill="#cccccc" stroke="#888888" d="M167,-300C167,-300 78,-300 78,-300 72,-300 66,-294 66,-288 66,-288 66,-276 66,-276 66,-270 72,-264 78,-264 78,-264 167,-264 167,-264 173,-264 179,-270 179,-276 179,-276 179,-288 179,-288 179,-294 173,-300 167,-300"/>
<text text-anchor="middle" x="122.5" y="-278.3" font-family="Times,serif" font-size="14.00" fill="#222222">Range(0, ., 1)</text>
</g>
<!-- Squeeze_5&#45;&gt;Range_6 -->
<g id="edge3" class="edge">
<title>Squeeze_5&#45;&gt;Range_6</title>
<path fill="none" stroke="black" d="M209.21,-324.93C196.06,-318.57 180.96,-311.27 167.08,-304.56"/>
<polygon fill="black" stroke="black" points="157.71,-300.03 168.67,-300.33 162.21,-302.2 166.71,-304.38 166.71,-304.38 166.71,-304.38 162.21,-302.2 164.75,-308.43 157.71,-300.03 157.71,-300.03"/>
<text text-anchor="middle" x="206" y="-311.4" font-family="Times,serif" font-size="7.00">INT64()</text>
</g>
<!-- Squeeze_5&#45;&gt;Range_7 -->
<g id="edge5" class="edge">
<title>Squeeze_5&#45;&gt;Range_7</title>
<path fill="none" stroke="black" d="M277.47,-324.93C289.64,-318.64 303.6,-311.41 316.47,-304.75"/>
<polygon fill="black" stroke="black" points="325.6,-300.03 318.79,-308.62 321.16,-302.33 316.72,-304.62 316.72,-304.62 316.72,-304.62 321.16,-302.33 314.65,-300.63 325.6,-300.03 325.6,-300.03"/>
<text text-anchor="middle" x="319" y="-311.4" font-family="Times,serif" font-size="7.00">INT64()</text>
</g>
<!-- O_12 -->
<g id="node13" class="node">
<title>O_12</title>
<path fill="#aaaaee" stroke="#888888" d="M268,-301C268,-301 221,-301 221,-301 215,-301 209,-295 209,-289 209,-289 209,-275 209,-275 209,-269 215,-263 221,-263 221,-263 268,-263 268,-263 274,-263 280,-269 280,-275 280,-275 280,-289 280,-289 280,-295 274,-301 268,-301"/>
<text text-anchor="middle" x="244.5" y="-285.8" font-family="Times,serif" font-size="14.00" fill="#222222">nd2</text>
<text text-anchor="middle" x="244.5" y="-270.8" font-family="Times,serif" font-size="14.00" fill="#222222">INT64()</text>
</g>
<!-- Squeeze_5&#45;&gt;O_12 -->
<g id="edge12" class="edge">
<title>Squeeze_5&#45;&gt;O_12</title>
<path fill="none" stroke="black" d="M244.5,-324.93C244.5,-320.61 244.5,-315.84 244.5,-311.12"/>
<polygon fill="black" stroke="black" points="244.5,-301.06 249,-311.06 244.5,-306.06 244.5,-311.06 244.5,-311.06 244.5,-311.06 244.5,-306.06 240,-311.06 244.5,-301.06 244.5,-301.06"/>
</g>
<!-- Unsqueeze_8 -->
<g id="node9" class="node">
<title>Unsqueeze_8</title>
<path fill="#eeeeee" stroke="#888888" d="M163,-195C163,-195 12,-195 12,-195 6,-195 0,-189 0,-183 0,-183 0,-171 0,-171 0,-165 6,-159 12,-159 12,-159 163,-159 163,-159 169,-159 175,-165 175,-171 175,-171 175,-183 175,-183 175,-189 169,-195 163,-195"/>
<text text-anchor="middle" x="87.5" y="-173.3" font-family="Times,serif" font-size="14.00" fill="#222222">Unsqueeze(., [0, 1, 2])</text>
</g>
<!-- Range_6&#45;&gt;Unsqueeze_8 -->
<g id="edge6" class="edge">
<title>Range_6&#45;&gt;Unsqueeze_8</title>
<path fill="none" stroke="black" d="M116.72,-263.99C111.25,-247.89 102.95,-223.46 96.59,-204.75"/>
<polygon fill="black" stroke="black" points="93.29,-195.03 100.77,-203.05 94.9,-199.77 96.51,-204.5 96.51,-204.5 96.51,-204.5 94.9,-199.77 92.24,-205.95 93.29,-195.03 93.29,-195.03"/>
<text text-anchor="middle" x="163" y="-249.4" font-family="Times,serif" font-size="7.00">INT64(NEWDIM_range_0)</text>
</g>
<!-- Unsqueeze_9 -->
<g id="node10" class="node">
<title>Unsqueeze_9</title>
<path fill="#eeeeee" stroke="#888888" d="M442,-239C442,-239 291,-239 291,-239 285,-239 279,-233 279,-227 279,-227 279,-215 279,-215 279,-209 285,-203 291,-203 291,-203 442,-203 442,-203 448,-203 454,-209 454,-215 454,-215 454,-227 454,-227 454,-233 448,-239 442,-239"/>
<text text-anchor="middle" x="366.5" y="-217.3" font-family="Times,serif" font-size="14.00" fill="#222222">Unsqueeze(., [0, 1, 3])</text>
</g>
<!-- Range_7&#45;&gt;Unsqueeze_9 -->
<g id="edge7" class="edge">
<title>Range_7&#45;&gt;Unsqueeze_9</title>
<path fill="none" stroke="black" d="M360.81,-263.93C361.44,-259.33 362.13,-254.22 362.81,-249.21"/>
<polygon fill="black" stroke="black" points="364.16,-239.23 367.28,-249.75 363.49,-244.19 362.82,-249.14 362.82,-249.14 362.82,-249.14 363.49,-244.19 358.36,-248.54 364.16,-239.23 364.16,-239.23"/>
<text text-anchor="middle" x="411" y="-249.4" font-family="Times,serif" font-size="7.00">INT64(NEWDIM_range_1)</text>
</g>
<!-- Greater_11 -->
<g id="node12" class="node">
<title>Greater_11</title>
<path fill="#cccccc" stroke="#888888" d="M139,-91C139,-91 62,-91 62,-91 56,-91 50,-85 50,-79 50,-79 50,-67 50,-67 50,-61 56,-55 62,-55 62,-55 139,-55 139,-55 145,-55 151,-61 151,-67 151,-67 151,-79 151,-79 151,-85 145,-91 139,-91"/>
<text text-anchor="middle" x="100.5" y="-69.3" font-family="Times,serif" font-size="14.00" fill="#222222">Greater(., .)</text>
</g>
<!-- Unsqueeze_8&#45;&gt;Greater_11 -->
<g id="edge10" class="edge">
<title>Unsqueeze_8&#45;&gt;Greater_11</title>
<path fill="none" stroke="black" d="M89.71,-158.7C91.72,-142.92 94.72,-119.36 97.05,-101.09"/>
<polygon fill="black" stroke="black" points="98.33,-91.05 101.53,-101.54 97.7,-96.01 97.06,-100.97 97.06,-100.97 97.06,-100.97 97.7,-96.01 92.6,-100.4 98.33,-91.05 98.33,-91.05"/>
<text text-anchor="middle" x="154" y="-131.4" font-family="Times,serif" font-size="7.00">INT64(1,1,1,NEWDIM_range_0)</text>
</g>
<!-- Unsqueeze_9&#45;&gt;Sub_10 -->
<g id="edge8" class="edge">
<title>Unsqueeze_9&#45;&gt;Sub_10</title>
<path fill="none" stroke="black" d="M344.3,-202.8C327.52,-189.8 304.28,-171.79 285.78,-157.46"/>
<polygon fill="black" stroke="black" points="277.66,-151.17 288.32,-153.73 281.61,-154.23 285.56,-157.29 285.56,-157.29 285.56,-157.29 281.61,-154.23 282.81,-160.85 277.66,-151.17 277.66,-151.17"/>
<text text-anchor="middle" x="392" y="-175.4" font-family="Times,serif" font-size="7.00">INT64(1,1,NEWDIM_range_1,1)</text>
</g>
<!-- Sub_10&#45;&gt;Greater_11 -->
<g id="edge11" class="edge">
<title>Sub_10&#45;&gt;Greater_11</title>
<path fill="none" stroke="black" d="M218.77,-118.25C199.9,-111.2 176.53,-102.45 155.56,-94.6"/>
<polygon fill="black" stroke="black" points="146.12,-91.07 157.06,-90.36 150.8,-92.82 155.49,-94.58 155.49,-94.58 155.49,-94.58 150.8,-92.82 153.91,-98.79 146.12,-91.07 146.12,-91.07"/>
<text text-anchor="middle" x="246" y="-101.4" font-family="Times,serif" font-size="7.00">INT64(1,1,NEWDIM_range_1,1)</text>
</g>
<!-- O_13 -->
<g id="node14" class="node">
<title>O_13</title>
<path fill="#aaaaee" stroke="#888888" d="M154,-38C154,-38 47,-38 47,-38 41,-38 35,-32 35,-26 35,-26 35,-12 35,-12 35,-6 41,0 47,0 47,0 154,0 154,0 160,0 166,-6 166,-12 166,-12 166,-26 166,-26 166,-32 160,-38 154,-38"/>
<text text-anchor="middle" x="100.5" y="-22.8" font-family="Times,serif" font-size="14.00" fill="#222222">yc</text>
<text text-anchor="middle" x="100.5" y="-7.8" font-family="Times,serif" font-size="14.00" fill="#222222">BOOL(1,1,b&#45;a,b)</text>
</g>
<!-- Greater_11&#45;&gt;O_13 -->
<g id="edge13" class="edge">
<title>Greater_11&#45;&gt;O_13</title>
<path fill="none" stroke="black" d="M100.5,-54.97C100.5,-52.89 100.5,-50.72 100.5,-48.53"/>
<polygon fill="black" stroke="black" points="100.5,-38.32 105,-48.32 100.5,-43.32 100.5,-48.32 100.5,-48.32 100.5,-48.32 100.5,-43.32 96,-48.32 100.5,-38.32 100.5,-38.32"/>
</g>
</g>
</svg>
