<?xml version="1.0" encoding="UTF-8" standalone="no"?>
<!DOCTYPE svg PUBLIC "-//W3C//DTD SVG 1.1//EN"
 "http://www.w3.org/Graphics/SVG/1.1/DTD/svg11.dtd">
<!-- Generated by graphviz version 2.43.0 (0)
 -->
<!-- Title: %3 Pages: 1 -->
<svg width="1015pt" height="194pt"
 viewBox="0.00 0.00 1014.50 194.00" xmlns="http://www.w3.org/2000/svg" xmlns:xlink="http://www.w3.org/1999/xlink">
<g id="graph0" class="graph" transform="scale(1 1) rotate(0) translate(4 190)">
<title>%3</title>
<!-- I_0 -->
<g id="node1" class="node">
<title>I_0</title>
<path fill="#aaeeaa" stroke="#888888" d="M443,-186C443,-186 12,-186 12,-186 6,-186 0,-180 0,-174 0,-174 0,-160 0,-160 0,-154 6,-148 12,-148 12,-148 443,-148 443,-148 449,-148 455,-154 455,-160 455,-160 455,-174 455,-174 455,-180 449,-186 443,-186"/>
<text text-anchor="middle" x="227.5" y="-170.8" font-family="Times,serif" font-size="14.00" fill="#222222">updates</text>
<text text-anchor="middle" x="227.5" y="-155.8" font-family="Times,serif" font-size="14.00" fill="#222222">FLOAT(UNKNOWNDIM3,UNKNOWNDIM4,UNKNOWNDIM5)</text>
</g>
<!-- MaskedScatterNDOfShape_3 -->
<g id="node4" class="node">
<title>MaskedScatterNDOfShape_3</title>
<path fill="#cccccc" stroke="#888888" d="M757,-108C757,-108 518,-108 518,-108 512,-108 506,-102 506,-96 506,-96 506,-67 506,-67 506,-61 512,-55 518,-55 518,-55 757,-55 757,-55 763,-55 769,-61 769,-67 769,-67 769,-96 769,-96 769,-102 763,-108 757,-108"/>
<text text-anchor="middle" x="637.5" y="-92.8" font-family="Times,serif" font-size="14.00" fill="#222222">onnx_extended.ortops.optim.cuda.</text>
<text text-anchor="middle" x="637.5" y="-77.8" font-family="Times,serif" font-size="14.00" fill="#222222">MaskedScatterNDOfShape</text>
<text text-anchor="middle" x="637.5" y="-62.8" font-family="Times,serif" font-size="14.00" fill="#222222">(., ., .)</text>
</g>
<!-- I_0&#45;&gt;MaskedScatterNDOfShape_3 -->
<g id="edge3" class="edge">
<title>I_0&#45;&gt;MaskedScatterNDOfShape_3</title>
<path fill="none" stroke="black" d="M315.96,-147.98C370.26,-136.93 440.89,-122.54 502.12,-110.07"/>
<polygon fill="black" stroke="black" points="512.26,-108.01 503.36,-114.41 507.36,-109 502.46,-110 502.46,-110 502.46,-110 507.36,-109 501.56,-105.59 512.26,-108.01 512.26,-108.01"/>
<text text-anchor="middle" x="516" y="-134.4" font-family="Times,serif" font-size="7.00">FLOAT(UNKNOWNDIM3,</text>
<text text-anchor="middle" x="516" y="-126.4" font-family="Times,serif" font-size="7.00">UNKNOWNDIM4,</text>
<text text-anchor="middle" x="516" y="-118.4" font-family="Times,serif" font-size="7.00">UNKNOWNDIM5)</text>
</g>
<!-- I_1 -->
<g id="node2" class="node">
<title>I_1</title>
<path fill="#aaeeaa" stroke="#888888" d="M794,-186C794,-186 481,-186 481,-186 475,-186 469,-180 469,-174 469,-174 469,-160 469,-160 469,-154 475,-148 481,-148 481,-148 794,-148 794,-148 800,-148 806,-154 806,-160 806,-160 806,-174 806,-174 806,-180 800,-186 794,-186"/>
<text text-anchor="middle" x="637.5" y="-170.8" font-family="Times,serif" font-size="14.00" fill="#222222">indices</text>
<text text-anchor="middle" x="637.5" y="-155.8" font-family="Times,serif" font-size="14.00" fill="#222222">INT64(UNKNOWNDIM1,UNKNOWNDIM2,1)</text>
</g>
<!-- I_1&#45;&gt;MaskedScatterNDOfShape_3 -->
<g id="edge2" class="edge">
<title>I_1&#45;&gt;MaskedScatterNDOfShape_3</title>
<path fill="none" stroke="black" d="M637.5,-147.88C637.5,-139.27 637.5,-128.65 637.5,-118.5"/>
<polygon fill="black" stroke="black" points="637.5,-108.19 642,-118.19 637.5,-113.19 637.5,-118.19 637.5,-118.19 637.5,-118.19 637.5,-113.19 633,-118.19 637.5,-108.19 637.5,-108.19"/>
<text text-anchor="middle" x="719.5" y="-126.4" font-family="Times,serif" font-size="7.00">INT64(UNKNOWNDIM1,UNKNOWNDIM2,1)</text>
</g>
<!-- I_2 -->
<g id="node3" class="node">
<title>I_2</title>
<path fill="#aaeeaa" stroke="#888888" d="M994.5,-186C994.5,-186 832.5,-186 832.5,-186 826.5,-186 820.5,-180 820.5,-174 820.5,-174 820.5,-160 820.5,-160 820.5,-154 826.5,-148 832.5,-148 832.5,-148 994.5,-148 994.5,-148 1000.5,-148 1006.5,-154 1006.5,-160 1006.5,-160 1006.5,-174 1006.5,-174 1006.5,-180 1000.5,-186 994.5,-186"/>
<text text-anchor="middle" x="913.5" y="-170.8" font-family="Times,serif" font-size="14.00" fill="#222222">shape</text>
<text text-anchor="middle" x="913.5" y="-155.8" font-family="Times,serif" font-size="14.00" fill="#222222">INT64(UNKNOWNDIM)</text>
</g>
<!-- I_2&#45;&gt;MaskedScatterNDOfShape_3 -->
<g id="edge1" class="edge">
<title>I_2&#45;&gt;MaskedScatterNDOfShape_3</title>
<path fill="none" stroke="black" d="M879.47,-147.9C858.37,-137.32 830.44,-124.42 804.5,-116 796.22,-113.31 787.64,-110.8 778.94,-108.46"/>
<polygon fill="black" stroke="black" points="769.07,-105.89 779.88,-104.05 773.91,-107.15 778.75,-108.41 778.75,-108.41 778.75,-108.41 773.91,-107.15 777.61,-112.76 769.07,-105.89 769.07,-105.89"/>
<text text-anchor="middle" x="905.5" y="-126.4" font-family="Times,serif" font-size="7.00">INT64(UNKNOWNDIM)</text>
</g>
<!-- O_4 -->
<g id="node5" class="node">
<title>O_4</title>
<path fill="#aaaaee" stroke="#888888" d="M789,-38C789,-38 486,-38 486,-38 480,-38 474,-32 474,-26 474,-26 474,-12 474,-12 474,-6 480,0 486,0 486,0 789,0 789,0 795,0 801,-6 801,-12 801,-12 801,-26 801,-26 801,-32 795,-38 789,-38"/>
<text text-anchor="middle" x="637.5" y="-22.8" font-family="Times,serif" font-size="14.00" fill="#222222">y</text>
<text text-anchor="middle" x="637.5" y="-7.8" font-family="Times,serif" font-size="14.00" fill="#222222">FLOAT(UNKNOWNDIM6,UNKNOWNDIM7)</text>
</g>
<!-- MaskedScatterNDOfShape_3&#45;&gt;O_4 -->
<g id="edge4" class="edge">
<title>MaskedScatterNDOfShape_3&#45;&gt;O_4</title>
<path fill="none" stroke="black" d="M637.5,-54.84C637.5,-52.77 637.5,-50.66 637.5,-48.56"/>
<polygon fill="black" stroke="black" points="637.5,-38.36 642,-48.36 637.5,-43.36 637.5,-48.36 637.5,-48.36 637.5,-48.36 637.5,-43.36 633,-48.36 637.5,-38.36 637.5,-38.36"/>
</g>
</g>
</svg>
