<?xml version="1.0" encoding="UTF-8" standalone="no"?>
<!DOCTYPE svg PUBLIC "-//W3C//DTD SVG 1.1//EN"
 "http://www.w3.org/Graphics/SVG/1.1/DTD/svg11.dtd">
<!-- Generated by graphviz version 2.43.0 (0)
 -->
<!-- Title: %3 Pages: 1 -->
<svg width="216pt" height="221pt"
 viewBox="0.00 0.00 216.00 221.00" xmlns="http://www.w3.org/2000/svg" xmlns:xlink="http://www.w3.org/1999/xlink">
<g id="graph0" class="graph" transform="scale(1 1) rotate(0) translate(4 217)">
<title>%3</title>
<!-- I_0 -->
<g id="node1" class="node">
<title>I_0</title>
<path fill="#aaeeaa" stroke="#888888" d="M85,-213C85,-213 12,-213 12,-213 6,-213 0,-207 0,-201 0,-201 0,-187 0,-187 0,-181 6,-175 12,-175 12,-175 85,-175 85,-175 91,-175 97,-181 97,-187 97,-187 97,-201 97,-201 97,-207 91,-213 85,-213"/>
<text text-anchor="middle" x="48.5" y="-197.8" font-family="Times,serif" font-size="14.00" fill="#222222">Y</text>
<text text-anchor="middle" x="48.5" y="-182.8" font-family="Times,serif" font-size="14.00" fill="#222222">FLOAT(a,4)</text>
</g>
<!-- Add_2 -->
<g id="node3" class="node">
<title>Add_2</title>
<path fill="#cccccc" stroke="#888888" d="M128,-151C128,-151 79,-151 79,-151 73,-151 67,-145 67,-139 67,-139 67,-127 67,-127 67,-121 73,-115 79,-115 79,-115 128,-115 128,-115 134,-115 140,-121 140,-127 140,-127 140,-139 140,-139 140,-145 134,-151 128,-151"/>
<text text-anchor="middle" x="103.5" y="-129.3" font-family="Times,serif" font-size="14.00" fill="#222222">Add(., .)</text>
</g>
<!-- I_0&#45;&gt;Add_2 -->
<g id="edge2" class="edge">
<title>I_0&#45;&gt;Add_2</title>
<path fill="none" stroke="black" d="M65.3,-174.98C70.17,-169.76 75.56,-163.97 80.72,-158.43"/>
<polygon fill="black" stroke="black" points="87.55,-151.1 84.03,-161.49 84.15,-154.76 80.74,-158.42 80.74,-158.42 80.74,-158.42 84.15,-154.76 77.44,-155.35 87.55,-151.1 87.55,-151.1"/>
<text text-anchor="middle" x="100.5" y="-161.4" font-family="Times,serif" font-size="7.00">FLOAT(a,4)</text>
</g>
<!-- I_1 -->
<g id="node2" class="node">
<title>I_1</title>
<path fill="#aaeeaa" stroke="#888888" d="M196,-213C196,-213 123,-213 123,-213 117,-213 111,-207 111,-201 111,-201 111,-187 111,-187 111,-181 117,-175 123,-175 123,-175 196,-175 196,-175 202,-175 208,-181 208,-187 208,-187 208,-201 208,-201 208,-207 202,-213 196,-213"/>
<text text-anchor="middle" x="159.5" y="-197.8" font-family="Times,serif" font-size="14.00" fill="#222222">X</text>
<text text-anchor="middle" x="159.5" y="-182.8" font-family="Times,serif" font-size="14.00" fill="#222222">FLOAT(a,4)</text>
</g>
<!-- I_1&#45;&gt;Add_2 -->
<g id="edge1" class="edge">
<title>I_1&#45;&gt;Add_2</title>
<path fill="none" stroke="black" d="M142.39,-174.98C137.44,-169.76 131.95,-163.97 126.69,-158.43"/>
<polygon fill="black" stroke="black" points="119.74,-151.1 129.88,-155.26 123.18,-154.73 126.62,-158.36 126.62,-158.36 126.62,-158.36 123.18,-154.73 123.36,-161.46 119.74,-151.1 119.74,-151.1"/>
<text text-anchor="middle" x="153.5" y="-161.4" font-family="Times,serif" font-size="7.00">FLOAT(a,4)</text>
</g>
<!-- Cast_3 -->
<g id="node4" class="node">
<title>Cast_3</title>
<path fill="#cccccc" stroke="#888888" d="M174,-91C174,-91 33,-91 33,-91 27,-91 21,-85 21,-79 21,-79 21,-67 21,-67 21,-61 27,-55 33,-55 33,-55 174,-55 174,-55 180,-55 186,-61 186,-67 186,-67 186,-79 186,-79 186,-85 180,-91 174,-91"/>
<text text-anchor="middle" x="103.5" y="-69.3" font-family="Times,serif" font-size="14.00" fill="#222222">Cast(., to=FLOAT16)</text>
</g>
<!-- Add_2&#45;&gt;Cast_3 -->
<g id="edge3" class="edge">
<title>Add_2&#45;&gt;Cast_3</title>
<path fill="none" stroke="black" d="M103.5,-114.91C103.5,-110.7 103.5,-106.09 103.5,-101.52"/>
<polygon fill="black" stroke="black" points="103.5,-91.17 108,-101.17 103.5,-96.17 103.5,-101.17 103.5,-101.17 103.5,-101.17 103.5,-96.17 99,-101.17 103.5,-91.17 103.5,-91.17"/>
<text text-anchor="middle" x="124.5" y="-101.4" font-family="Times,serif" font-size="7.00">FLOAT(a,4)</text>
</g>
<!-- O_4 -->
<g id="node5" class="node">
<title>O_4</title>
<path fill="#aaaaee" stroke="#888888" d="M149,-38C149,-38 58,-38 58,-38 52,-38 46,-32 46,-26 46,-26 46,-12 46,-12 46,-6 52,0 58,0 58,0 149,0 149,0 155,0 161,-6 161,-12 161,-12 161,-26 161,-26 161,-32 155,-38 149,-38"/>
<text text-anchor="middle" x="103.5" y="-22.8" font-family="Times,serif" font-size="14.00" fill="#222222">Z</text>
<text text-anchor="middle" x="103.5" y="-7.8" font-family="Times,serif" font-size="14.00" fill="#222222">FLOAT16(a,4)</text>
</g>
<!-- Cast_3&#45;&gt;O_4 -->
<g id="edge4" class="edge">
<title>Cast_3&#45;&gt;O_4</title>
<path fill="none" stroke="black" d="M103.5,-54.97C103.5,-52.89 103.5,-50.72 103.5,-48.53"/>
<polygon fill="black" stroke="black" points="103.5,-38.32 108,-48.32 103.5,-43.32 103.5,-48.32 103.5,-48.32 103.5,-48.32 103.5,-43.32 99,-48.32 103.5,-38.32 103.5,-38.32"/>
</g>
</g>
</svg>
