<?xml version="1.0" encoding="UTF-8" standalone="no"?>
<!DOCTYPE svg PUBLIC "-//W3C//DTD SVG 1.1//EN"
 "http://www.w3.org/Graphics/SVG/1.1/DTD/svg11.dtd">
<!-- Generated by graphviz version 2.43.0 (0)
 -->
<!-- Title: %3 Pages: 1 -->
<svg width="246pt" height="221pt"
 viewBox="0.00 0.00 245.50 221.00" xmlns="http://www.w3.org/2000/svg" xmlns:xlink="http://www.w3.org/1999/xlink">
<g id="graph0" class="graph" transform="scale(1 1) rotate(0) translate(4 217)">
<title>%3</title>
<!-- I_0 -->
<g id="node1" class="node">
<title>I_0</title>
<path fill="#aaeeaa" stroke="#888888" d="M110,-213C110,-213 12,-213 12,-213 6,-213 0,-207 0,-201 0,-201 0,-187 0,-187 0,-181 6,-175 12,-175 12,-175 110,-175 110,-175 116,-175 122,-181 122,-187 122,-187 122,-201 122,-201 122,-207 116,-213 110,-213"/>
<text text-anchor="middle" x="61" y="-197.8" font-family="Times,serif" font-size="14.00" fill="#222222">X</text>
<text text-anchor="middle" x="61" y="-182.8" font-family="Times,serif" font-size="14.00" fill="#222222">FLOAT(a,b,c,d)</text>
</g>
<!-- Mul_2 -->
<g id="node3" class="node">
<title>Mul_2</title>
<path fill="#cccccc" stroke="#888888" d="M143.5,-151C143.5,-151 94.5,-151 94.5,-151 88.5,-151 82.5,-145 82.5,-139 82.5,-139 82.5,-127 82.5,-127 82.5,-121 88.5,-115 94.5,-115 94.5,-115 143.5,-115 143.5,-115 149.5,-115 155.5,-121 155.5,-127 155.5,-127 155.5,-139 155.5,-139 155.5,-145 149.5,-151 143.5,-151"/>
<text text-anchor="middle" x="119" y="-129.3" font-family="Times,serif" font-size="14.00" fill="#222222">Mul(., .)</text>
</g>
<!-- I_0&#45;&gt;Mul_2 -->
<g id="edge1" class="edge">
<title>I_0&#45;&gt;Mul_2</title>
<path fill="none" stroke="black" d="M78.72,-174.98C83.85,-169.76 89.54,-163.97 94.98,-158.43"/>
<polygon fill="black" stroke="black" points="102.19,-151.1 98.38,-161.39 98.68,-154.67 95.17,-158.24 95.17,-158.24 95.17,-158.24 98.68,-154.67 91.97,-155.08 102.19,-151.1 102.19,-151.1"/>
<text text-anchor="middle" x="121.5" y="-161.4" font-family="Times,serif" font-size="7.00">FLOAT(a,b,c,d)</text>
</g>
<!-- I_1 -->
<g id="node2" class="node">
<title>I_1</title>
<path fill="#aaeeaa" stroke="#888888" d="M208,-213C208,-213 148,-213 148,-213 142,-213 136,-207 136,-201 136,-201 136,-187 136,-187 136,-181 142,-175 148,-175 148,-175 208,-175 208,-175 214,-175 220,-181 220,-187 220,-187 220,-201 220,-201 220,-207 214,-213 208,-213"/>
<text text-anchor="middle" x="178" y="-197.8" font-family="Times,serif" font-size="14.00" fill="#222222">cst</text>
<text text-anchor="middle" x="178" y="-182.8" font-family="Times,serif" font-size="14.00" fill="#222222">FLOAT(1)</text>
</g>
<!-- I_1&#45;&gt;Mul_2 -->
<g id="edge2" class="edge">
<title>I_1&#45;&gt;Mul_2</title>
<path fill="none" stroke="black" d="M165.63,-174.96C161.57,-169.57 156.84,-163.82 152,-159 151.57,-158.57 151.13,-158.15 150.69,-157.72"/>
<polygon fill="black" stroke="black" points="143.08,-151.02 153.56,-154.25 146.83,-154.32 150.58,-157.63 150.58,-157.63 150.58,-157.63 146.83,-154.32 147.61,-161 143.08,-151.02 143.08,-151.02"/>
<text text-anchor="middle" x="176.5" y="-161.4" font-family="Times,serif" font-size="7.00">FLOAT(1)</text>
</g>
<!-- Transpose_3 -->
<g id="node4" class="node">
<title>Transpose_3</title>
<path fill="#ee99ee" stroke="#888888" d="M225.5,-91C225.5,-91 12.5,-91 12.5,-91 6.5,-91 0.5,-85 0.5,-79 0.5,-79 0.5,-67 0.5,-67 0.5,-61 6.5,-55 12.5,-55 12.5,-55 225.5,-55 225.5,-55 231.5,-55 237.5,-61 237.5,-67 237.5,-67 237.5,-79 237.5,-79 237.5,-85 231.5,-91 225.5,-91"/>
<text text-anchor="middle" x="119" y="-69.3" font-family="Times,serif" font-size="14.00" fill="#222222">Transpose(., perm=[0, 2, 1, 3])</text>
</g>
<!-- Mul_2&#45;&gt;Transpose_3 -->
<g id="edge3" class="edge">
<title>Mul_2&#45;&gt;Transpose_3</title>
<path fill="none" stroke="black" d="M119,-114.91C119,-110.7 119,-106.09 119,-101.52"/>
<polygon fill="black" stroke="black" points="119,-91.17 123.5,-101.17 119,-96.17 119,-101.17 119,-101.17 119,-101.17 119,-96.17 114.5,-101.17 119,-91.17 119,-91.17"/>
<text text-anchor="middle" x="146.5" y="-101.4" font-family="Times,serif" font-size="7.00">FLOAT(a,b,c,d)</text>
</g>
<!-- O_4 -->
<g id="node5" class="node">
<title>O_4</title>
<path fill="#aaaaee" stroke="#888888" d="M168,-38C168,-38 70,-38 70,-38 64,-38 58,-32 58,-26 58,-26 58,-12 58,-12 58,-6 64,0 70,0 70,0 168,0 168,0 174,0 180,-6 180,-12 180,-12 180,-26 180,-26 180,-32 174,-38 168,-38"/>
<text text-anchor="middle" x="119" y="-22.8" font-family="Times,serif" font-size="14.00" fill="#222222">Y</text>
<text text-anchor="middle" x="119" y="-7.8" font-family="Times,serif" font-size="14.00" fill="#222222">FLOAT(a,c,b,d)</text>
</g>
<!-- Transpose_3&#45;&gt;O_4 -->
<g id="edge4" class="edge">
<title>Transpose_3&#45;&gt;O_4</title>
<path fill="none" stroke="black" d="M119,-54.97C119,-52.89 119,-50.72 119,-48.53"/>
<polygon fill="black" stroke="black" points="119,-38.32 123.5,-48.32 119,-43.32 119,-48.32 119,-48.32 119,-48.32 119,-43.32 114.5,-48.32 119,-38.32 119,-38.32"/>
</g>
</g>
</svg>
