<?xml version="1.0" encoding="UTF-8" standalone="no"?>
<!DOCTYPE svg PUBLIC "-//W3C//DTD SVG 1.1//EN"
 "http://www.w3.org/Graphics/SVG/1.1/DTD/svg11.dtd">
<!-- Generated by graphviz version 2.43.0 (0)
 -->
<!-- Title: %3 Pages: 1 -->
<svg width="291pt" height="223pt"
 viewBox="0.00 0.00 291.00 223.00" xmlns="http://www.w3.org/2000/svg" xmlns:xlink="http://www.w3.org/1999/xlink">
<g id="graph0" class="graph" transform="scale(1 1) rotate(0) translate(4 219)">
<title>%3</title>
<!-- I_0 -->
<g id="node1" class="node">
<title>I_0</title>
<path fill="#aaeeaa" stroke="#888888" d="M98,-153C98,-153 12,-153 12,-153 6,-153 0,-147 0,-141 0,-141 0,-127 0,-127 0,-121 6,-115 12,-115 12,-115 98,-115 98,-115 104,-115 110,-121 110,-127 110,-127 110,-141 110,-141 110,-147 104,-153 98,-153"/>
<text text-anchor="middle" x="55" y="-137.8" font-family="Times,serif" font-size="14.00" fill="#222222">B</text>
<text text-anchor="middle" x="55" y="-122.8" font-family="Times,serif" font-size="14.00" fill="#222222">FLOAT(a,b,d)</text>
</g>
<!-- Add_4 -->
<g id="node5" class="node">
<title>Add_4</title>
<path fill="#cccccc" stroke="#888888" d="M113.5,-91C113.5,-91 64.5,-91 64.5,-91 58.5,-91 52.5,-85 52.5,-79 52.5,-79 52.5,-67 52.5,-67 52.5,-61 58.5,-55 64.5,-55 64.5,-55 113.5,-55 113.5,-55 119.5,-55 125.5,-61 125.5,-67 125.5,-67 125.5,-79 125.5,-79 125.5,-85 119.5,-91 113.5,-91"/>
<text text-anchor="middle" x="89" y="-69.3" font-family="Times,serif" font-size="14.00" fill="#222222">Add(., .)</text>
</g>
<!-- I_0&#45;&gt;Add_4 -->
<g id="edge4" class="edge">
<title>I_0&#45;&gt;Add_4</title>
<path fill="none" stroke="black" d="M65.39,-114.98C68.12,-110.23 71.12,-105.02 74.05,-99.95"/>
<polygon fill="black" stroke="black" points="79.14,-91.1 78.05,-102.02 76.65,-95.44 74.15,-99.77 74.15,-99.77 74.15,-99.77 76.65,-95.44 70.25,-97.52 79.14,-91.1 79.14,-91.1"/>
<text text-anchor="middle" x="99.5" y="-101.4" font-family="Times,serif" font-size="7.00">FLOAT(a,b,d)</text>
</g>
<!-- I_1 -->
<g id="node2" class="node">
<title>I_1</title>
<path fill="#aaeeaa" stroke="#888888" d="M159,-215C159,-215 73,-215 73,-215 67,-215 61,-209 61,-203 61,-203 61,-189 61,-189 61,-183 67,-177 73,-177 73,-177 159,-177 159,-177 165,-177 171,-183 171,-189 171,-189 171,-203 171,-203 171,-209 165,-215 159,-215"/>
<text text-anchor="middle" x="116" y="-199.8" font-family="Times,serif" font-size="14.00" fill="#222222">X1</text>
<text text-anchor="middle" x="116" y="-184.8" font-family="Times,serif" font-size="14.00" fill="#222222">FLOAT(a,b,3)</text>
</g>
<!-- MatMul_3 -->
<g id="node4" class="node">
<title>MatMul_3</title>
<path fill="#ee9999" stroke="#888888" d="M213.5,-152C213.5,-152 136.5,-152 136.5,-152 130.5,-152 124.5,-146 124.5,-140 124.5,-140 124.5,-128 124.5,-128 124.5,-122 130.5,-116 136.5,-116 136.5,-116 213.5,-116 213.5,-116 219.5,-116 225.5,-122 225.5,-128 225.5,-128 225.5,-140 225.5,-140 225.5,-146 219.5,-152 213.5,-152"/>
<text text-anchor="middle" x="175" y="-130.3" font-family="Times,serif" font-size="14.00" fill="#222222">MatMul(., .)</text>
</g>
<!-- I_1&#45;&gt;MatMul_3 -->
<g id="edge1" class="edge">
<title>I_1&#45;&gt;MatMul_3</title>
<path fill="none" stroke="black" d="M133.7,-177C139.14,-171.46 145.23,-165.28 151.02,-159.39"/>
<polygon fill="black" stroke="black" points="158.12,-152.17 154.32,-162.45 154.61,-155.73 151.11,-159.3 151.11,-159.3 151.11,-159.3 154.61,-155.73 147.9,-156.14 158.12,-152.17 158.12,-152.17"/>
<text text-anchor="middle" x="174.5" y="-163.4" font-family="Times,serif" font-size="7.00">FLOAT(a,b,3)</text>
</g>
<!-- I_2 -->
<g id="node3" class="node">
<title>I_2</title>
<path fill="#aaeeaa" stroke="#888888" d="M271,-215C271,-215 197,-215 197,-215 191,-215 185,-209 185,-203 185,-203 185,-189 185,-189 185,-183 191,-177 197,-177 197,-177 271,-177 271,-177 277,-177 283,-183 283,-189 283,-189 283,-203 283,-203 283,-209 277,-215 271,-215"/>
<text text-anchor="middle" x="234" y="-199.8" font-family="Times,serif" font-size="14.00" fill="#222222">X2</text>
<text text-anchor="middle" x="234" y="-184.8" font-family="Times,serif" font-size="14.00" fill="#222222">FLOAT(3,d)</text>
</g>
<!-- I_2&#45;&gt;MatMul_3 -->
<g id="edge2" class="edge">
<title>I_2&#45;&gt;MatMul_3</title>
<path fill="none" stroke="black" d="M217.22,-176.84C212.36,-171.68 207.02,-166.07 202,-161 201.47,-160.46 200.93,-159.92 200.38,-159.37"/>
<polygon fill="black" stroke="black" points="193.13,-152.22 203.41,-156.04 196.69,-155.73 200.25,-159.24 200.25,-159.24 200.25,-159.24 196.69,-155.73 197.09,-162.45 193.13,-152.22 193.13,-152.22"/>
<text text-anchor="middle" x="230" y="-163.4" font-family="Times,serif" font-size="7.00">FLOAT(3,d)</text>
</g>
<!-- MatMul_3&#45;&gt;Add_4 -->
<g id="edge3" class="edge">
<title>MatMul_3&#45;&gt;Add_4</title>
<path fill="none" stroke="black" d="M151.19,-115.89C143.51,-110.44 134.93,-104.41 127,-99 125.94,-98.27 124.85,-97.54 123.76,-96.8"/>
<polygon fill="black" stroke="black" points="115.24,-91.1 126.06,-92.92 119.4,-93.88 123.55,-96.66 123.55,-96.66 123.55,-96.66 119.4,-93.88 121.05,-100.4 115.24,-91.1 115.24,-91.1"/>
<text text-anchor="middle" x="162.5" y="-101.4" font-family="Times,serif" font-size="7.00">FLOAT(a,b,d)</text>
</g>
<!-- O_5 -->
<g id="node6" class="node">
<title>O_5</title>
<path fill="#aaaaee" stroke="#888888" d="M132,-38C132,-38 46,-38 46,-38 40,-38 34,-32 34,-26 34,-26 34,-12 34,-12 34,-6 40,0 46,0 46,0 132,0 132,0 138,0 144,-6 144,-12 144,-12 144,-26 144,-26 144,-32 138,-38 132,-38"/>
<text text-anchor="middle" x="89" y="-22.8" font-family="Times,serif" font-size="14.00" fill="#222222">Z</text>
<text text-anchor="middle" x="89" y="-7.8" font-family="Times,serif" font-size="14.00" fill="#222222">FLOAT(a,b,d)</text>
</g>
<!-- Add_4&#45;&gt;O_5 -->
<g id="edge5" class="edge">
<title>Add_4&#45;&gt;O_5</title>
<path fill="none" stroke="black" d="M89,-54.97C89,-52.89 89,-50.72 89,-48.53"/>
<polygon fill="black" stroke="black" points="89,-38.32 93.5,-48.32 89,-43.32 89,-48.32 89,-48.32 89,-48.32 89,-43.32 84.5,-48.32 89,-38.32 89,-38.32"/>
</g>
</g>
</svg>
