<?xml version="1.0" encoding="UTF-8" standalone="no"?>
<!DOCTYPE svg PUBLIC "-//W3C//DTD SVG 1.1//EN"
 "http://www.w3.org/Graphics/SVG/1.1/DTD/svg11.dtd">
<!-- Generated by graphviz version 2.43.0 (0)
 -->
<!-- Title: %3 Pages: 1 -->
<svg width="775pt" height="281pt"
 viewBox="0.00 0.00 774.50 281.00" xmlns="http://www.w3.org/2000/svg" xmlns:xlink="http://www.w3.org/1999/xlink">
<g id="graph0" class="graph" transform="scale(1 1) rotate(0) translate(4 277)">
<title>%3</title>
<!-- I_0 -->
<g id="node1" class="node">
<title>I_0</title>
<path fill="#aaeeaa" stroke="#888888" d="M128.5,-273C128.5,-273 72.5,-273 72.5,-273 66.5,-273 60.5,-267 60.5,-261 60.5,-261 60.5,-247 60.5,-247 60.5,-241 66.5,-235 72.5,-235 72.5,-235 128.5,-235 128.5,-235 134.5,-235 140.5,-241 140.5,-247 140.5,-247 140.5,-261 140.5,-261 140.5,-267 134.5,-273 128.5,-273"/>
<text text-anchor="middle" x="100.5" y="-257.8" font-family="Times,serif" font-size="14.00" fill="#222222">I1</text>
<text text-anchor="middle" x="100.5" y="-242.8" font-family="Times,serif" font-size="14.00" fill="#222222">INT64(1)</text>
</g>
<!-- I_1 -->
<g id="node2" class="node">
<title>I_1</title>
<path fill="#aaeeaa" stroke="#888888" d="M222.5,-273C222.5,-273 166.5,-273 166.5,-273 160.5,-273 154.5,-267 154.5,-261 154.5,-261 154.5,-247 154.5,-247 154.5,-241 160.5,-235 166.5,-235 166.5,-235 222.5,-235 222.5,-235 228.5,-235 234.5,-241 234.5,-247 234.5,-247 234.5,-261 234.5,-261 234.5,-267 228.5,-273 222.5,-273"/>
<text text-anchor="middle" x="194.5" y="-257.8" font-family="Times,serif" font-size="14.00" fill="#222222">D1</text>
<text text-anchor="middle" x="194.5" y="-242.8" font-family="Times,serif" font-size="14.00" fill="#222222">INT64(1)</text>
</g>
<!-- I_2 -->
<g id="node3" class="node">
<title>I_2</title>
<path fill="#aaeeaa" stroke="#888888" d="M358.5,-273C358.5,-273 260.5,-273 260.5,-273 254.5,-273 248.5,-267 248.5,-261 248.5,-261 248.5,-247 248.5,-247 248.5,-241 254.5,-235 260.5,-235 260.5,-235 358.5,-235 358.5,-235 364.5,-235 370.5,-241 370.5,-247 370.5,-247 370.5,-261 370.5,-261 370.5,-267 364.5,-273 358.5,-273"/>
<text text-anchor="middle" x="309.5" y="-257.8" font-family="Times,serif" font-size="14.00" fill="#222222">X</text>
<text text-anchor="middle" x="309.5" y="-242.8" font-family="Times,serif" font-size="14.00" fill="#222222">FLOAT(a,b,c,d)</text>
</g>
<!-- Shape_4 -->
<g id="node5" class="node">
<title>Shape_4</title>
<path fill="#d2a81f" stroke="#888888" d="M396,-211C396,-211 223,-211 223,-211 217,-211 211,-205 211,-199 211,-199 211,-187 211,-187 211,-181 217,-175 223,-175 223,-175 396,-175 396,-175 402,-175 408,-181 408,-187 408,-187 408,-199 408,-199 408,-205 402,-211 396,-211"/>
<text text-anchor="middle" x="309.5" y="-189.3" font-family="Times,serif" font-size="14.00" fill="#222222">Shape(., end=3, start=2)</text>
</g>
<!-- I_2&#45;&gt;Shape_4 -->
<g id="edge1" class="edge">
<title>I_2&#45;&gt;Shape_4</title>
<path fill="none" stroke="black" d="M309.5,-234.98C309.5,-230.71 309.5,-226.06 309.5,-221.47"/>
<polygon fill="black" stroke="black" points="309.5,-211.1 314,-221.1 309.5,-216.1 309.5,-221.1 309.5,-221.1 309.5,-221.1 309.5,-216.1 305,-221.1 309.5,-211.1 309.5,-211.1"/>
<text text-anchor="middle" x="337" y="-221.4" font-family="Times,serif" font-size="7.00">FLOAT(a,b,c,d)</text>
</g>
<!-- Shape_5 -->
<g id="node6" class="node">
<title>Shape_5</title>
<path fill="#d2a81f" stroke="#888888" d="M185,-211C185,-211 12,-211 12,-211 6,-211 0,-205 0,-199 0,-199 0,-187 0,-187 0,-181 6,-175 12,-175 12,-175 185,-175 185,-175 191,-175 197,-181 197,-187 197,-187 197,-199 197,-199 197,-205 191,-211 185,-211"/>
<text text-anchor="middle" x="98.5" y="-189.3" font-family="Times,serif" font-size="14.00" fill="#222222">Shape(., end=4, start=3)</text>
</g>
<!-- I_2&#45;&gt;Shape_5 -->
<g id="edge2" class="edge">
<title>I_2&#45;&gt;Shape_5</title>
<path fill="none" stroke="black" d="M248.47,-235.93C223.65,-228.99 194.8,-220.93 169.08,-213.74"/>
<polygon fill="black" stroke="black" points="159.39,-211.03 170.24,-209.39 164.21,-212.37 169.02,-213.72 169.02,-213.72 169.02,-213.72 164.21,-212.37 167.81,-218.05 159.39,-211.03 159.39,-211.03"/>
<text text-anchor="middle" x="238" y="-221.4" font-family="Times,serif" font-size="7.00">FLOAT(a,b,c,d)</text>
</g>
<!-- Reshape_9 -->
<g id="node10" class="node">
<title>Reshape_9</title>
<path fill="#eeeeee" stroke="#888888" d="M644.5,-91C644.5,-91 562.5,-91 562.5,-91 556.5,-91 550.5,-85 550.5,-79 550.5,-79 550.5,-67 550.5,-67 550.5,-61 556.5,-55 562.5,-55 562.5,-55 644.5,-55 644.5,-55 650.5,-55 656.5,-61 656.5,-67 656.5,-67 656.5,-79 656.5,-79 656.5,-85 650.5,-91 644.5,-91"/>
<text text-anchor="middle" x="603.5" y="-69.3" font-family="Times,serif" font-size="14.00" fill="#222222">Reshape(., .)</text>
</g>
<!-- I_2&#45;&gt;Reshape_9 -->
<g id="edge7" class="edge">
<title>I_2&#45;&gt;Reshape_9</title>
<path fill="none" stroke="black" d="M370.55,-236.27C372.89,-235.81 375.21,-235.38 377.5,-235 413.54,-228.97 680.62,-237.77 705.5,-211 740.16,-173.71 682.46,-124.83 640.69,-96.67"/>
<polygon fill="black" stroke="black" points="632.32,-91.15 643.15,-92.89 636.5,-93.9 640.67,-96.65 640.67,-96.65 640.67,-96.65 636.5,-93.9 638.2,-100.41 632.32,-91.15 632.32,-91.15"/>
<text text-anchor="middle" x="739" y="-161.4" font-family="Times,serif" font-size="7.00">FLOAT(a,b,c,d)</text>
</g>
<!-- I_3 -->
<g id="node4" class="node">
<title>I_3</title>
<path fill="#aaeeaa" stroke="#888888" d="M452.5,-273C452.5,-273 396.5,-273 396.5,-273 390.5,-273 384.5,-267 384.5,-261 384.5,-261 384.5,-247 384.5,-247 384.5,-241 390.5,-235 396.5,-235 396.5,-235 452.5,-235 452.5,-235 458.5,-235 464.5,-241 464.5,-247 464.5,-247 464.5,-261 464.5,-261 464.5,-267 458.5,-273 452.5,-273"/>
<text text-anchor="middle" x="424.5" y="-257.8" font-family="Times,serif" font-size="14.00" fill="#222222">I2</text>
<text text-anchor="middle" x="424.5" y="-242.8" font-family="Times,serif" font-size="14.00" fill="#222222">INT64(1)</text>
</g>
<!-- Concat_8 -->
<g id="node9" class="node">
<title>Concat_8</title>
<path fill="#cccccc" stroke="#888888" d="M565.5,-151C565.5,-151 409.5,-151 409.5,-151 403.5,-151 397.5,-145 397.5,-139 397.5,-139 397.5,-127 397.5,-127 397.5,-121 403.5,-115 409.5,-115 409.5,-115 565.5,-115 565.5,-115 571.5,-115 577.5,-121 577.5,-127 577.5,-127 577.5,-139 577.5,-139 577.5,-145 571.5,-151 565.5,-151"/>
<text text-anchor="middle" x="487.5" y="-129.3" font-family="Times,serif" font-size="14.00" fill="#222222">Concat(., ., ., ., axis=0)</text>
</g>
<!-- Shape_4&#45;&gt;Concat_8 -->
<g id="edge6" class="edge">
<title>Shape_4&#45;&gt;Concat_8</title>
<path fill="none" stroke="black" d="M361.94,-174.91C381.86,-168.42 404.74,-160.97 425.46,-154.21"/>
<polygon fill="black" stroke="black" points="435.12,-151.07 427.01,-158.44 430.37,-152.62 425.62,-154.16 425.62,-154.16 425.62,-154.16 430.37,-152.62 424.22,-149.89 435.12,-151.07 435.12,-151.07"/>
<text text-anchor="middle" x="426.5" y="-161.4" font-family="Times,serif" font-size="7.00">INT64(1)</text>
</g>
<!-- Shape_5&#45;&gt;Concat_8 -->
<g id="edge5" class="edge">
<title>Shape_5&#45;&gt;Concat_8</title>
<path fill="none" stroke="black" d="M197.14,-175.98C199.28,-175.65 201.4,-175.32 203.5,-175 264.46,-165.67 332.87,-155.77 387.28,-148.04"/>
<polygon fill="black" stroke="black" points="397.27,-146.62 388,-152.48 392.32,-147.33 387.37,-148.03 387.37,-148.03 387.37,-148.03 392.32,-147.33 386.74,-143.57 397.27,-146.62 397.27,-146.62"/>
<text text-anchor="middle" x="322.5" y="-161.4" font-family="Times,serif" font-size="7.00">INT64(1)</text>
</g>
<!-- Constant_6 -->
<g id="node7" class="node">
<title>Constant_6</title>
<path fill="#cccccc" stroke="#888888" d="M541,-211C541,-211 434,-211 434,-211 428,-211 422,-205 422,-199 422,-199 422,-187 422,-187 422,-181 428,-175 434,-175 434,-175 541,-175 541,-175 547,-175 553,-181 553,-187 553,-187 553,-199 553,-199 553,-205 547,-211 541,-211"/>
<text text-anchor="middle" x="487.5" y="-189.3" font-family="Times,serif" font-size="14.00" fill="#222222">Constant() &#45;&gt; I1</text>
</g>
<!-- Constant_6&#45;&gt;Concat_8 -->
<g id="edge3" class="edge">
<title>Constant_6&#45;&gt;Concat_8</title>
<path fill="none" stroke="black" d="M487.5,-174.91C487.5,-170.7 487.5,-166.09 487.5,-161.52"/>
<polygon fill="black" stroke="black" points="487.5,-151.17 492,-161.17 487.5,-156.17 487.5,-161.17 487.5,-161.17 487.5,-161.17 487.5,-156.17 483,-161.17 487.5,-151.17 487.5,-151.17"/>
<text text-anchor="middle" x="504.5" y="-161.4" font-family="Times,serif" font-size="7.00">INT64(1)</text>
</g>
<!-- Constant_7 -->
<g id="node8" class="node">
<title>Constant_7</title>
<path fill="#cccccc" stroke="#888888" d="M686,-211C686,-211 579,-211 579,-211 573,-211 567,-205 567,-199 567,-199 567,-187 567,-187 567,-181 573,-175 579,-175 579,-175 686,-175 686,-175 692,-175 698,-181 698,-187 698,-187 698,-199 698,-199 698,-205 692,-211 686,-211"/>
<text text-anchor="middle" x="632.5" y="-189.3" font-family="Times,serif" font-size="14.00" fill="#222222">Constant() &#45;&gt; I2</text>
</g>
<!-- Constant_7&#45;&gt;Concat_8 -->
<g id="edge4" class="edge">
<title>Constant_7&#45;&gt;Concat_8</title>
<path fill="none" stroke="black" d="M589.78,-174.91C574.14,-168.65 556.26,-161.5 539.87,-154.95"/>
<polygon fill="black" stroke="black" points="530.42,-151.17 541.37,-150.7 535.06,-153.02 539.7,-154.88 539.7,-154.88 539.7,-154.88 535.06,-153.02 538.03,-159.06 530.42,-151.17 530.42,-151.17"/>
<text text-anchor="middle" x="585.5" y="-161.4" font-family="Times,serif" font-size="7.00">INT64(1)</text>
</g>
<!-- Concat_8&#45;&gt;Reshape_9 -->
<g id="edge8" class="edge">
<title>Concat_8&#45;&gt;Reshape_9</title>
<path fill="none" stroke="black" d="M521.68,-114.91C533.72,-108.89 547.43,-102.04 560.13,-95.68"/>
<polygon fill="black" stroke="black" points="569.17,-91.17 562.24,-99.66 564.69,-93.4 560.22,-95.64 560.22,-95.64 560.22,-95.64 564.69,-93.4 558.21,-91.61 569.17,-91.17 569.17,-91.17"/>
<text text-anchor="middle" x="568.5" y="-101.4" font-family="Times,serif" font-size="7.00">INT64(4)</text>
</g>
<!-- O_10 -->
<g id="node11" class="node">
<title>O_10</title>
<path fill="#aaaaee" stroke="#888888" d="M652.5,-38C652.5,-38 554.5,-38 554.5,-38 548.5,-38 542.5,-32 542.5,-26 542.5,-26 542.5,-12 542.5,-12 542.5,-6 548.5,0 554.5,0 554.5,0 652.5,0 652.5,0 658.5,0 664.5,-6 664.5,-12 664.5,-12 664.5,-26 664.5,-26 664.5,-32 658.5,-38 652.5,-38"/>
<text text-anchor="middle" x="603.5" y="-22.8" font-family="Times,serif" font-size="14.00" fill="#222222">Y</text>
<text text-anchor="middle" x="603.5" y="-7.8" font-family="Times,serif" font-size="14.00" fill="#222222">FLOAT(a,b,d,c)</text>
</g>
<!-- Reshape_9&#45;&gt;O_10 -->
<g id="edge9" class="edge">
<title>Reshape_9&#45;&gt;O_10</title>
<path fill="none" stroke="black" d="M603.5,-54.97C603.5,-52.89 603.5,-50.72 603.5,-48.53"/>
<polygon fill="black" stroke="black" points="603.5,-38.32 608,-48.32 603.5,-43.32 603.5,-48.32 603.5,-48.32 603.5,-48.32 603.5,-43.32 599,-48.32 603.5,-38.32 603.5,-38.32"/>
</g>
</g>
</svg>
