<?xml version="1.0" encoding="UTF-8" standalone="no"?>
<!DOCTYPE svg PUBLIC "-//W3C//DTD SVG 1.1//EN"
 "http://www.w3.org/Graphics/SVG/1.1/DTD/svg11.dtd">
<!-- Generated by graphviz version 2.43.0 (0)
 -->
<!-- Title: %3 Pages: 1 -->
<svg width="400pt" height="281pt"
 viewBox="0.00 0.00 399.50 281.00" xmlns="http://www.w3.org/2000/svg" xmlns:xlink="http://www.w3.org/1999/xlink">
<g id="graph0" class="graph" transform="scale(1 1) rotate(0) translate(4 277)">
<title>%3</title>
<!-- I_0 -->
<g id="node1" class="node">
<title>I_0</title>
<path fill="#aaeeaa" stroke="#888888" d="M156,-273C156,-273 28,-273 28,-273 22,-273 16,-267 16,-261 16,-261 16,-247 16,-247 16,-241 22,-235 28,-235 28,-235 156,-235 156,-235 162,-235 168,-241 168,-247 168,-247 168,-261 168,-261 168,-267 162,-273 156,-273"/>
<text text-anchor="middle" x="92" y="-257.8" font-family="Times,serif" font-size="14.00" fill="#222222">xu2</text>
<text text-anchor="middle" x="92" y="-242.8" font-family="Times,serif" font-size="14.00" fill="#222222">FLOAT(1,1,32,128)</text>
</g>
<!-- Reshape_2 -->
<g id="node3" class="node">
<title>Reshape_2</title>
<path fill="#eeeeee" stroke="#888888" d="M172,-211C172,-211 12,-211 12,-211 6,-211 0,-205 0,-199 0,-199 0,-187 0,-187 0,-181 6,-175 12,-175 12,-175 172,-175 172,-175 178,-175 184,-181 184,-187 184,-187 184,-199 184,-199 184,-205 178,-211 172,-211"/>
<text text-anchor="middle" x="92" y="-189.3" font-family="Times,serif" font-size="14.00" fill="#222222">Reshape(., [1, 32, 128])</text>
</g>
<!-- I_0&#45;&gt;Reshape_2 -->
<g id="edge1" class="edge">
<title>I_0&#45;&gt;Reshape_2</title>
<path fill="none" stroke="black" d="M92,-234.98C92,-230.71 92,-226.06 92,-221.47"/>
<polygon fill="black" stroke="black" points="92,-211.1 96.5,-221.1 92,-216.1 92,-221.1 92,-221.1 92,-221.1 92,-216.1 87.5,-221.1 92,-211.1 92,-211.1"/>
<text text-anchor="middle" x="126.5" y="-221.4" font-family="Times,serif" font-size="7.00">FLOAT(1,1,32,128)</text>
</g>
<!-- I_1 -->
<g id="node2" class="node">
<title>I_1</title>
<path fill="#aaeeaa" stroke="#888888" d="M359,-273C359,-273 231,-273 231,-273 225,-273 219,-267 219,-261 219,-261 219,-247 219,-247 219,-241 225,-235 231,-235 231,-235 359,-235 359,-235 365,-235 371,-241 371,-247 371,-247 371,-261 371,-261 371,-267 365,-273 359,-273"/>
<text text-anchor="middle" x="295" y="-257.8" font-family="Times,serif" font-size="14.00" fill="#222222">Y</text>
<text text-anchor="middle" x="295" y="-242.8" font-family="Times,serif" font-size="14.00" fill="#222222">FLOAT(3,5,128,64)</text>
</g>
<!-- Reshape_3 -->
<g id="node4" class="node">
<title>Reshape_3</title>
<path fill="#eeeeee" stroke="#888888" d="M379.5,-211C379.5,-211 210.5,-211 210.5,-211 204.5,-211 198.5,-205 198.5,-199 198.5,-199 198.5,-187 198.5,-187 198.5,-181 204.5,-175 210.5,-175 210.5,-175 379.5,-175 379.5,-175 385.5,-175 391.5,-181 391.5,-187 391.5,-187 391.5,-199 391.5,-199 391.5,-205 385.5,-211 379.5,-211"/>
<text text-anchor="middle" x="295" y="-189.3" font-family="Times,serif" font-size="14.00" fill="#222222">Reshape(., [15, 128, 64])</text>
</g>
<!-- I_1&#45;&gt;Reshape_3 -->
<g id="edge2" class="edge">
<title>I_1&#45;&gt;Reshape_3</title>
<path fill="none" stroke="black" d="M295,-234.98C295,-230.71 295,-226.06 295,-221.47"/>
<polygon fill="black" stroke="black" points="295,-211.1 299.5,-221.1 295,-216.1 295,-221.1 295,-221.1 295,-221.1 295,-216.1 290.5,-221.1 295,-211.1 295,-211.1"/>
<text text-anchor="middle" x="329.5" y="-221.4" font-family="Times,serif" font-size="7.00">FLOAT(3,5,128,64)</text>
</g>
<!-- MatMul_4 -->
<g id="node5" class="node">
<title>MatMul_4</title>
<path fill="#ee9999" stroke="#888888" d="M231.5,-151C231.5,-151 154.5,-151 154.5,-151 148.5,-151 142.5,-145 142.5,-139 142.5,-139 142.5,-127 142.5,-127 142.5,-121 148.5,-115 154.5,-115 154.5,-115 231.5,-115 231.5,-115 237.5,-115 243.5,-121 243.5,-127 243.5,-127 243.5,-139 243.5,-139 243.5,-145 237.5,-151 231.5,-151"/>
<text text-anchor="middle" x="193" y="-129.3" font-family="Times,serif" font-size="14.00" fill="#222222">MatMul(., .)</text>
</g>
<!-- Reshape_2&#45;&gt;MatMul_4 -->
<g id="edge3" class="edge">
<title>Reshape_2&#45;&gt;MatMul_4</title>
<path fill="none" stroke="black" d="M121.76,-174.91C131.94,-169.06 143.48,-162.43 154.27,-156.24"/>
<polygon fill="black" stroke="black" points="163.11,-151.17 156.68,-160.05 158.77,-153.66 154.43,-156.15 154.43,-156.15 154.43,-156.15 158.77,-153.66 152.19,-152.24 163.11,-151.17 163.11,-151.17"/>
<text text-anchor="middle" x="180" y="-161.4" font-family="Times,serif" font-size="7.00">FLOAT(1,32,128)</text>
</g>
<!-- Reshape_3&#45;&gt;MatMul_4 -->
<g id="edge4" class="edge">
<title>Reshape_3&#45;&gt;MatMul_4</title>
<path fill="none" stroke="black" d="M264.95,-174.91C254.66,-169.06 243.01,-162.43 232.11,-156.24"/>
<polygon fill="black" stroke="black" points="223.19,-151.17 234.11,-152.2 227.54,-153.64 231.88,-156.11 231.88,-156.11 231.88,-156.11 227.54,-153.64 229.66,-160.02 223.19,-151.17 223.19,-151.17"/>
<text text-anchor="middle" x="284.5" y="-161.4" font-family="Times,serif" font-size="7.00">FLOAT(15,128,64)</text>
</g>
<!-- Reshape_5 -->
<g id="node6" class="node">
<title>Reshape_5</title>
<path fill="#eeeeee" stroke="#888888" d="M277.5,-91C277.5,-91 108.5,-91 108.5,-91 102.5,-91 96.5,-85 96.5,-79 96.5,-79 96.5,-67 96.5,-67 96.5,-61 102.5,-55 108.5,-55 108.5,-55 277.5,-55 277.5,-55 283.5,-55 289.5,-61 289.5,-67 289.5,-67 289.5,-79 289.5,-79 289.5,-85 283.5,-91 277.5,-91"/>
<text text-anchor="middle" x="193" y="-69.3" font-family="Times,serif" font-size="14.00" fill="#222222">Reshape(., [3, 5, 32, 64])</text>
</g>
<!-- MatMul_4&#45;&gt;Reshape_5 -->
<g id="edge5" class="edge">
<title>MatMul_4&#45;&gt;Reshape_5</title>
<path fill="none" stroke="black" d="M193,-114.91C193,-110.7 193,-106.09 193,-101.52"/>
<polygon fill="black" stroke="black" points="193,-91.17 197.5,-101.17 193,-96.17 193,-101.17 193,-101.17 193,-101.17 193,-96.17 188.5,-101.17 193,-91.17 193,-91.17"/>
<text text-anchor="middle" x="224" y="-101.4" font-family="Times,serif" font-size="7.00">FLOAT(15,32,64)</text>
</g>
<!-- O_6 -->
<g id="node7" class="node">
<title>O_6</title>
<path fill="#aaaaee" stroke="#888888" d="M252.5,-38C252.5,-38 133.5,-38 133.5,-38 127.5,-38 121.5,-32 121.5,-26 121.5,-26 121.5,-12 121.5,-12 121.5,-6 127.5,0 133.5,0 133.5,0 252.5,0 252.5,0 258.5,0 264.5,-6 264.5,-12 264.5,-12 264.5,-26 264.5,-26 264.5,-32 258.5,-38 252.5,-38"/>
<text text-anchor="middle" x="193" y="-22.8" font-family="Times,serif" font-size="14.00" fill="#222222">Z</text>
<text text-anchor="middle" x="193" y="-7.8" font-family="Times,serif" font-size="14.00" fill="#222222">FLOAT(3,5,32,64)</text>
</g>
<!-- Reshape_5&#45;&gt;O_6 -->
<g id="edge6" class="edge">
<title>Reshape_5&#45;&gt;O_6</title>
<path fill="none" stroke="black" d="M193,-54.97C193,-52.89 193,-50.72 193,-48.53"/>
<polygon fill="black" stroke="black" points="193,-38.32 197.5,-48.32 193,-43.32 193,-48.32 193,-48.32 193,-48.32 193,-43.32 188.5,-48.32 193,-38.32 193,-38.32"/>
</g>
</g>
</svg>
