<?xml version="1.0" encoding="UTF-8" standalone="no"?>
<!DOCTYPE svg PUBLIC "-//W3C//DTD SVG 1.1//EN"
 "http://www.w3.org/Graphics/SVG/1.1/DTD/svg11.dtd">
<!-- Generated by graphviz version 2.43.0 (0)
 -->
<!-- Title: %3 Pages: 1 -->
<svg width="212pt" height="161pt"
 viewBox="0.00 0.00 211.50 161.00" xmlns="http://www.w3.org/2000/svg" xmlns:xlink="http://www.w3.org/1999/xlink">
<g id="graph0" class="graph" transform="scale(1 1) rotate(0) translate(4 157)">
<title>%3</title>
<!-- I_0 -->
<g id="node1" class="node">
<title>I_0</title>
<path fill="#aaeeaa" stroke="#888888" d="M68,-153C68,-153 12,-153 12,-153 6,-153 0,-147 0,-141 0,-141 0,-127 0,-127 0,-121 6,-115 12,-115 12,-115 68,-115 68,-115 74,-115 80,-121 80,-127 80,-127 80,-141 80,-141 80,-147 74,-153 68,-153"/>
<text text-anchor="middle" x="40" y="-137.8" font-family="Times,serif" font-size="14.00" fill="#222222">shape2</text>
<text text-anchor="middle" x="40" y="-122.8" font-family="Times,serif" font-size="14.00" fill="#222222">INT64(3)</text>
</g>
<!-- Identity_2 -->
<g id="node3" class="node">
<title>Identity_2</title>
<path fill="#cccccc" stroke="#888888" d="M132.5,-91C132.5,-91 55.5,-91 55.5,-91 49.5,-91 43.5,-85 43.5,-79 43.5,-79 43.5,-67 43.5,-67 43.5,-61 49.5,-55 55.5,-55 55.5,-55 132.5,-55 132.5,-55 138.5,-55 144.5,-61 144.5,-67 144.5,-67 144.5,-79 144.5,-79 144.5,-85 138.5,-91 132.5,-91"/>
<text text-anchor="middle" x="94" y="-69.3" font-family="Times,serif" font-size="14.00" fill="#222222">Identity(., .)</text>
</g>
<!-- I_0&#45;&gt;Identity_2 -->
<g id="edge2" class="edge">
<title>I_0&#45;&gt;Identity_2</title>
<path fill="none" stroke="black" d="M56.5,-114.98C61.16,-109.88 66.33,-104.23 71.29,-98.81"/>
<polygon fill="black" stroke="black" points="78.34,-91.1 74.91,-101.52 74.97,-94.79 71.59,-98.48 71.59,-98.48 71.59,-98.48 74.97,-94.79 68.27,-95.44 78.34,-91.1 78.34,-91.1"/>
<text text-anchor="middle" x="88" y="-101.4" font-family="Times,serif" font-size="7.00">INT64(3)</text>
</g>
<!-- I_1 -->
<g id="node2" class="node">
<title>I_1</title>
<path fill="#aaeeaa" stroke="#888888" d="M191.5,-153C191.5,-153 106.5,-153 106.5,-153 100.5,-153 94.5,-147 94.5,-141 94.5,-141 94.5,-127 94.5,-127 94.5,-121 100.5,-115 106.5,-115 106.5,-115 191.5,-115 191.5,-115 197.5,-115 203.5,-121 203.5,-127 203.5,-127 203.5,-141 203.5,-141 203.5,-147 197.5,-153 191.5,-153"/>
<text text-anchor="middle" x="149" y="-137.8" font-family="Times,serif" font-size="14.00" fill="#222222">X</text>
<text text-anchor="middle" x="149" y="-122.8" font-family="Times,serif" font-size="14.00" fill="#222222">FLOAT(a,b,c)</text>
</g>
<!-- I_1&#45;&gt;Identity_2 -->
<g id="edge1" class="edge">
<title>I_1&#45;&gt;Identity_2</title>
<path fill="none" stroke="black" d="M132.2,-114.98C127.33,-109.76 121.94,-103.97 116.78,-98.43"/>
<polygon fill="black" stroke="black" points="109.95,-91.1 120.06,-95.35 113.35,-94.76 116.76,-98.42 116.76,-98.42 116.76,-98.42 113.35,-94.76 113.47,-101.49 109.95,-91.1 109.95,-91.1"/>
<text text-anchor="middle" x="147" y="-101.4" font-family="Times,serif" font-size="7.00">FLOAT(a,b,c)</text>
</g>
<!-- O_3 -->
<g id="node4" class="node">
<title>O_3</title>
<path fill="#aaaaee" stroke="#888888" d="M136.5,-38C136.5,-38 51.5,-38 51.5,-38 45.5,-38 39.5,-32 39.5,-26 39.5,-26 39.5,-12 39.5,-12 39.5,-6 45.5,0 51.5,0 51.5,0 136.5,0 136.5,0 142.5,0 148.5,-6 148.5,-12 148.5,-12 148.5,-26 148.5,-26 148.5,-32 142.5,-38 136.5,-38"/>
<text text-anchor="middle" x="94" y="-22.8" font-family="Times,serif" font-size="14.00" fill="#222222">xrr</text>
<text text-anchor="middle" x="94" y="-7.8" font-family="Times,serif" font-size="14.00" fill="#222222">FLOAT(a,b,c)</text>
</g>
<!-- Identity_2&#45;&gt;O_3 -->
<g id="edge3" class="edge">
<title>Identity_2&#45;&gt;O_3</title>
<path fill="none" stroke="black" d="M94,-54.97C94,-52.89 94,-50.72 94,-48.53"/>
<polygon fill="black" stroke="black" points="94,-38.32 98.5,-48.32 94,-43.32 94,-48.32 94,-48.32 94,-48.32 94,-43.32 89.5,-48.32 94,-38.32 94,-38.32"/>
</g>
</g>
</svg>
