<?xml version="1.0" encoding="UTF-8" standalone="no"?>
<!DOCTYPE svg PUBLIC "-//W3C//DTD SVG 1.1//EN"
 "http://www.w3.org/Graphics/SVG/1.1/DTD/svg11.dtd">
<!-- Generated by graphviz version 2.43.0 (0)
 -->
<!-- Title: %3 Pages: 1 -->
<svg width="209pt" height="221pt"
 viewBox="0.00 0.00 209.00 221.00" xmlns="http://www.w3.org/2000/svg" xmlns:xlink="http://www.w3.org/1999/xlink">
<g id="graph0" class="graph" transform="scale(1 1) rotate(0) translate(4 217)">
<title>%3</title>
<!-- I_0 -->
<g id="node1" class="node">
<title>I_0</title>
<path fill="#aaeeaa" stroke="#888888" d="M137,-213C137,-213 64,-213 64,-213 58,-213 52,-207 52,-201 52,-201 52,-187 52,-187 52,-181 58,-175 64,-175 64,-175 137,-175 137,-175 143,-175 149,-181 149,-187 149,-187 149,-201 149,-201 149,-207 143,-213 137,-213"/>
<text text-anchor="middle" x="100.5" y="-197.8" font-family="Times,serif" font-size="14.00" fill="#222222">X</text>
<text text-anchor="middle" x="100.5" y="-182.8" font-family="Times,serif" font-size="14.00" fill="#222222">FLOAT(a,b)</text>
</g>
<!-- Transpose_1 -->
<g id="node2" class="node">
<title>Transpose_1</title>
<path fill="#ee99ee" stroke="#888888" d="M189,-151C189,-151 12,-151 12,-151 6,-151 0,-145 0,-139 0,-139 0,-127 0,-127 0,-121 6,-115 12,-115 12,-115 189,-115 189,-115 195,-115 201,-121 201,-127 201,-127 201,-139 201,-139 201,-145 195,-151 189,-151"/>
<text text-anchor="middle" x="100.5" y="-129.3" font-family="Times,serif" font-size="14.00" fill="#222222">Transpose(., perm=[1, 0])</text>
</g>
<!-- I_0&#45;&gt;Transpose_1 -->
<g id="edge1" class="edge">
<title>I_0&#45;&gt;Transpose_1</title>
<path fill="none" stroke="black" d="M100.5,-174.98C100.5,-170.71 100.5,-166.06 100.5,-161.47"/>
<polygon fill="black" stroke="black" points="100.5,-151.1 105,-161.1 100.5,-156.1 100.5,-161.1 100.5,-161.1 100.5,-161.1 100.5,-156.1 96,-161.1 100.5,-151.1 100.5,-151.1"/>
<text text-anchor="middle" x="121.5" y="-161.4" font-family="Times,serif" font-size="7.00">FLOAT(a,b)</text>
</g>
<!-- Cast_2 -->
<g id="node3" class="node">
<title>Cast_2</title>
<path fill="#cccccc" stroke="#888888" d="M171,-91C171,-91 30,-91 30,-91 24,-91 18,-85 18,-79 18,-79 18,-67 18,-67 18,-61 24,-55 30,-55 30,-55 171,-55 171,-55 177,-55 183,-61 183,-67 183,-67 183,-79 183,-79 183,-85 177,-91 171,-91"/>
<text text-anchor="middle" x="100.5" y="-69.3" font-family="Times,serif" font-size="14.00" fill="#222222">Cast(., to=FLOAT16)</text>
</g>
<!-- Transpose_1&#45;&gt;Cast_2 -->
<g id="edge2" class="edge">
<title>Transpose_1&#45;&gt;Cast_2</title>
<path fill="none" stroke="black" d="M100.5,-114.91C100.5,-110.7 100.5,-106.09 100.5,-101.52"/>
<polygon fill="black" stroke="black" points="100.5,-91.17 105,-101.17 100.5,-96.17 100.5,-101.17 100.5,-101.17 100.5,-101.17 100.5,-96.17 96,-101.17 100.5,-91.17 100.5,-91.17"/>
<text text-anchor="middle" x="121.5" y="-101.4" font-family="Times,serif" font-size="7.00">FLOAT(b,a)</text>
</g>
<!-- O_3 -->
<g id="node4" class="node">
<title>O_3</title>
<path fill="#aaaaee" stroke="#888888" d="M146,-38C146,-38 55,-38 55,-38 49,-38 43,-32 43,-26 43,-26 43,-12 43,-12 43,-6 49,0 55,0 55,0 146,0 146,0 152,0 158,-6 158,-12 158,-12 158,-26 158,-26 158,-32 152,-38 146,-38"/>
<text text-anchor="middle" x="100.5" y="-22.8" font-family="Times,serif" font-size="14.00" fill="#222222">Y</text>
<text text-anchor="middle" x="100.5" y="-7.8" font-family="Times,serif" font-size="14.00" fill="#222222">FLOAT16(b,a)</text>
</g>
<!-- Cast_2&#45;&gt;O_3 -->
<g id="edge3" class="edge">
<title>Cast_2&#45;&gt;O_3</title>
<path fill="none" stroke="black" d="M100.5,-54.97C100.5,-52.89 100.5,-50.72 100.5,-48.53"/>
<polygon fill="black" stroke="black" points="100.5,-38.32 105,-48.32 100.5,-43.32 100.5,-48.32 100.5,-48.32 100.5,-48.32 100.5,-43.32 96,-48.32 100.5,-38.32 100.5,-38.32"/>
</g>
</g>
</svg>
