<?xml version="1.0" encoding="UTF-8" standalone="no"?>
<!DOCTYPE svg PUBLIC "-//W3C//DTD SVG 1.1//EN"
 "http://www.w3.org/Graphics/SVG/1.1/DTD/svg11.dtd">
<!-- Generated by graphviz version 2.43.0 (0)
 -->
<!-- Title: %3 Pages: 1 -->
<svg width="231pt" height="163pt"
 viewBox="0.00 0.00 230.50 163.00" xmlns="http://www.w3.org/2000/svg" xmlns:xlink="http://www.w3.org/1999/xlink">
<g id="graph0" class="graph" transform="scale(1 1) rotate(0) translate(4 159)">
<title>%3</title>
<!-- I_0 -->
<g id="node1" class="node">
<title>I_0</title>
<path fill="#aaeeaa" stroke="#888888" d="M72,-155C72,-155 12,-155 12,-155 6,-155 0,-149 0,-143 0,-143 0,-129 0,-129 0,-123 6,-117 12,-117 12,-117 72,-117 72,-117 78,-117 84,-123 84,-129 84,-129 84,-143 84,-143 84,-149 78,-155 72,-155"/>
<text text-anchor="middle" x="42" y="-139.8" font-family="Times,serif" font-size="14.00" fill="#222222">B</text>
<text text-anchor="middle" x="42" y="-124.8" font-family="Times,serif" font-size="14.00" fill="#222222">FLOAT(8)</text>
</g>
<!-- BiasGelu_2 -->
<g id="node3" class="node">
<title>BiasGelu_2</title>
<path fill="#cccccc" stroke="#888888" d="M150,-93C150,-93 52,-93 52,-93 46,-93 40,-87 40,-81 40,-81 40,-67 40,-67 40,-61 46,-55 52,-55 52,-55 150,-55 150,-55 156,-55 162,-61 162,-67 162,-67 162,-81 162,-81 162,-87 156,-93 150,-93"/>
<text text-anchor="middle" x="101" y="-77.8" font-family="Times,serif" font-size="14.00" fill="#222222">com.microsoft.</text>
<text text-anchor="middle" x="101" y="-62.8" font-family="Times,serif" font-size="14.00" fill="#222222">BiasGelu(., .)</text>
</g>
<!-- I_0&#45;&gt;BiasGelu_2 -->
<g id="edge2" class="edge">
<title>I_0&#45;&gt;BiasGelu_2</title>
<path fill="none" stroke="black" d="M59.7,-117C64.74,-111.87 70.33,-106.19 75.73,-100.7"/>
<polygon fill="black" stroke="black" points="82.9,-93.4 79.1,-103.69 79.4,-96.97 75.89,-100.53 75.89,-100.53 75.89,-100.53 79.4,-96.97 72.68,-97.38 82.9,-93.4 82.9,-93.4"/>
<text text-anchor="middle" x="93.5" y="-103.4" font-family="Times,serif" font-size="7.00">FLOAT(8)</text>
</g>
<!-- I_1 -->
<g id="node2" class="node">
<title>I_1</title>
<path fill="#aaeeaa" stroke="#888888" d="M210.5,-155C210.5,-155 109.5,-155 109.5,-155 103.5,-155 97.5,-149 97.5,-143 97.5,-143 97.5,-129 97.5,-129 97.5,-123 103.5,-117 109.5,-117 109.5,-117 210.5,-117 210.5,-117 216.5,-117 222.5,-123 222.5,-129 222.5,-129 222.5,-143 222.5,-143 222.5,-149 216.5,-155 210.5,-155"/>
<text text-anchor="middle" x="160" y="-139.8" font-family="Times,serif" font-size="14.00" fill="#222222">X</text>
<text text-anchor="middle" x="160" y="-124.8" font-family="Times,serif" font-size="14.00" fill="#222222">FLOAT(2,2,4,8)</text>
</g>
<!-- I_1&#45;&gt;BiasGelu_2 -->
<g id="edge1" class="edge">
<title>I_1&#45;&gt;BiasGelu_2</title>
<path fill="none" stroke="black" d="M142.3,-117C137.26,-111.87 131.67,-106.19 126.27,-100.7"/>
<polygon fill="black" stroke="black" points="119.1,-93.4 129.32,-97.38 122.6,-96.97 126.11,-100.53 126.11,-100.53 126.11,-100.53 122.6,-96.97 122.9,-103.69 119.1,-93.4 119.1,-93.4"/>
<text text-anchor="middle" x="161.5" y="-103.4" font-family="Times,serif" font-size="7.00">FLOAT(2,2,4,8)</text>
</g>
<!-- O_3 -->
<g id="node4" class="node">
<title>O_3</title>
<path fill="#aaaaee" stroke="#888888" d="M151.5,-38C151.5,-38 50.5,-38 50.5,-38 44.5,-38 38.5,-32 38.5,-26 38.5,-26 38.5,-12 38.5,-12 38.5,-6 44.5,0 50.5,0 50.5,0 151.5,0 151.5,0 157.5,0 163.5,-6 163.5,-12 163.5,-12 163.5,-26 163.5,-26 163.5,-32 157.5,-38 151.5,-38"/>
<text text-anchor="middle" x="101" y="-22.8" font-family="Times,serif" font-size="14.00" fill="#222222">Y</text>
<text text-anchor="middle" x="101" y="-7.8" font-family="Times,serif" font-size="14.00" fill="#222222">FLOAT(2,2,4,8)</text>
</g>
<!-- BiasGelu_2&#45;&gt;O_3 -->
<g id="edge3" class="edge">
<title>BiasGelu_2&#45;&gt;O_3</title>
<path fill="none" stroke="black" d="M101,-54.76C101,-52.66 101,-50.47 101,-48.27"/>
<polygon fill="black" stroke="black" points="101,-38.09 105.5,-48.09 101,-43.09 101,-48.09 101,-48.09 101,-48.09 101,-43.09 96.5,-48.09 101,-38.09 101,-38.09"/>
</g>
</g>
</svg>
