<?xml version="1.0" encoding="UTF-8" standalone="no"?>
<!DOCTYPE svg PUBLIC "-//W3C//DTD SVG 1.1//EN"
 "http://www.w3.org/Graphics/SVG/1.1/DTD/svg11.dtd">
<!-- Generated by graphviz version 2.43.0 (0)
 -->
<!-- Title: %3 Pages: 1 -->
<svg width="191pt" height="163pt"
 viewBox="0.00 0.00 191.00 163.00" xmlns="http://www.w3.org/2000/svg" xmlns:xlink="http://www.w3.org/1999/xlink">
<g id="graph0" class="graph" transform="scale(1 1) rotate(0) translate(4 159)">
<title>%3</title>
<!-- I_0 -->
<g id="node1" class="node">
<title>I_0</title>
<path fill="#aaeeaa" stroke="#888888" d="M171,-155C171,-155 12,-155 12,-155 6,-155 0,-149 0,-143 0,-143 0,-129 0,-129 0,-123 6,-117 12,-117 12,-117 171,-117 171,-117 177,-117 183,-123 183,-129 183,-129 183,-143 183,-143 183,-149 177,-155 171,-155"/>
<text text-anchor="middle" x="91.5" y="-139.8" font-family="Times,serif" font-size="14.00" fill="#222222">linear_65</text>
<text text-anchor="middle" x="91.5" y="-124.8" font-family="Times,serif" font-size="14.00" fill="#222222">FLOAT16(4,512,16384)</text>
</g>
<!-- FastGelu_1 -->
<g id="node2" class="node">
<title>FastGelu_1</title>
<path fill="#cccccc" stroke="#888888" d="M140.5,-93C140.5,-93 42.5,-93 42.5,-93 36.5,-93 30.5,-87 30.5,-81 30.5,-81 30.5,-67 30.5,-67 30.5,-61 36.5,-55 42.5,-55 42.5,-55 140.5,-55 140.5,-55 146.5,-55 152.5,-61 152.5,-67 152.5,-67 152.5,-81 152.5,-81 152.5,-87 146.5,-93 140.5,-93"/>
<text text-anchor="middle" x="91.5" y="-77.8" font-family="Times,serif" font-size="14.00" fill="#222222">com.microsoft.</text>
<text text-anchor="middle" x="91.5" y="-62.8" font-family="Times,serif" font-size="14.00" fill="#222222">FastGelu(.)</text>
</g>
<!-- I_0&#45;&gt;FastGelu_1 -->
<g id="edge1" class="edge">
<title>I_0&#45;&gt;FastGelu_1</title>
<path fill="none" stroke="black" d="M91.5,-117C91.5,-112.8 91.5,-108.24 91.5,-103.71"/>
<polygon fill="black" stroke="black" points="91.5,-93.4 96,-103.4 91.5,-98.4 91.5,-103.4 91.5,-103.4 91.5,-103.4 91.5,-98.4 87,-103.4 91.5,-93.4 91.5,-93.4"/>
<text text-anchor="middle" x="134" y="-103.4" font-family="Times,serif" font-size="7.00">FLOAT16(4,512,16384)</text>
</g>
<!-- O_2 -->
<g id="node3" class="node">
<title>O_2</title>
<path fill="#aaaaee" stroke="#888888" d="M171,-38C171,-38 12,-38 12,-38 6,-38 0,-32 0,-26 0,-26 0,-12 0,-12 0,-6 6,0 12,0 12,0 171,0 171,0 177,0 183,-6 183,-12 183,-12 183,-26 183,-26 183,-32 177,-38 171,-38"/>
<text text-anchor="middle" x="91.5" y="-22.8" font-family="Times,serif" font-size="14.00" fill="#222222">mul_44</text>
<text text-anchor="middle" x="91.5" y="-7.8" font-family="Times,serif" font-size="14.00" fill="#222222">FLOAT16(4,512,16384)</text>
</g>
<!-- FastGelu_1&#45;&gt;O_2 -->
<g id="edge2" class="edge">
<title>FastGelu_1&#45;&gt;O_2</title>
<path fill="none" stroke="black" d="M91.5,-54.76C91.5,-52.66 91.5,-50.47 91.5,-48.27"/>
<polygon fill="black" stroke="black" points="91.5,-38.09 96,-48.09 91.5,-43.09 91.5,-48.09 91.5,-48.09 91.5,-48.09 91.5,-43.09 87,-48.09 91.5,-38.09 91.5,-38.09"/>
</g>
</g>
</svg>
