<?xml version="1.0" encoding="UTF-8" standalone="no"?>
<!DOCTYPE svg PUBLIC "-//W3C//DTD SVG 1.1//EN"
 "http://www.w3.org/Graphics/SVG/1.1/DTD/svg11.dtd">
<!-- Generated by graphviz version 2.43.0 (0)
 -->
<!-- Title: %3 Pages: 1 -->
<svg width="785pt" height="285pt"
 viewBox="0.00 0.00 785.00 285.00" xmlns="http://www.w3.org/2000/svg" xmlns:xlink="http://www.w3.org/1999/xlink">
<g id="graph0" class="graph" transform="scale(1 1) rotate(0) translate(4 281)">
<title>%3</title>
<!-- I_0 -->
<g id="node1" class="node">
<title>I_0</title>
<path fill="#aaeeaa" stroke="#888888" d="M192.5,-277C192.5,-277 110.5,-277 110.5,-277 104.5,-277 98.5,-271 98.5,-265 98.5,-265 98.5,-251 98.5,-251 98.5,-245 104.5,-239 110.5,-239 110.5,-239 192.5,-239 192.5,-239 198.5,-239 204.5,-245 204.5,-251 204.5,-251 204.5,-265 204.5,-265 204.5,-271 198.5,-277 192.5,-277"/>
<text text-anchor="middle" x="151.5" y="-261.8" font-family="Times,serif" font-size="14.00" fill="#222222">X</text>
<text text-anchor="middle" x="151.5" y="-246.8" font-family="Times,serif" font-size="14.00" fill="#222222">FLOAT(a,16)</text>
</g>
<!-- Split_7 -->
<g id="node8" class="node">
<title>Split_7</title>
<path fill="#cccccc" stroke="#888888" d="M261,-215C261,-215 148,-215 148,-215 142,-215 136,-209 136,-203 136,-203 136,-191 136,-191 136,-185 142,-179 148,-179 148,-179 261,-179 261,-179 267,-179 273,-185 273,-191 273,-191 273,-203 273,-203 273,-209 267,-215 261,-215"/>
<text text-anchor="middle" x="204.5" y="-193.3" font-family="Times,serif" font-size="14.00" fill="#222222">Split(., ., axis=1)</text>
</g>
<!-- I_0&#45;&gt;Split_7 -->
<g id="edge2" class="edge">
<title>I_0&#45;&gt;Split_7</title>
<path fill="none" stroke="black" d="M167.69,-238.98C172.27,-233.88 177.34,-228.23 182.21,-222.81"/>
<polygon fill="black" stroke="black" points="189.13,-215.1 185.8,-225.55 185.79,-218.82 182.45,-222.54 182.45,-222.54 182.45,-222.54 185.79,-218.82 179.1,-219.54 189.13,-215.1 189.13,-215.1"/>
<text text-anchor="middle" x="204.5" y="-225.4" font-family="Times,serif" font-size="7.00">FLOAT(a,16)</text>
</g>
<!-- I_1 -->
<g id="node2" class="node">
<title>I_1</title>
<path fill="#aaeeaa" stroke="#888888" d="M286.5,-277C286.5,-277 230.5,-277 230.5,-277 224.5,-277 218.5,-271 218.5,-265 218.5,-265 218.5,-251 218.5,-251 218.5,-245 224.5,-239 230.5,-239 230.5,-239 286.5,-239 286.5,-239 292.5,-239 298.5,-245 298.5,-251 298.5,-251 298.5,-265 298.5,-265 298.5,-271 292.5,-277 286.5,-277"/>
<text text-anchor="middle" x="258.5" y="-261.8" font-family="Times,serif" font-size="14.00" fill="#222222">split</text>
<text text-anchor="middle" x="258.5" y="-246.8" font-family="Times,serif" font-size="14.00" fill="#222222">INT64(2)</text>
</g>
<!-- I_1&#45;&gt;Split_7 -->
<g id="edge3" class="edge">
<title>I_1&#45;&gt;Split_7</title>
<path fill="none" stroke="black" d="M244.06,-238.67C239.81,-233.5 235.07,-227.94 230.5,-223 230.35,-222.84 230.2,-222.68 230.05,-222.52"/>
<polygon fill="black" stroke="black" points="222.95,-215.22 233.15,-219.25 226.44,-218.81 229.93,-222.39 229.93,-222.39 229.93,-222.39 226.44,-218.81 226.7,-225.53 222.95,-215.22 222.95,-215.22"/>
<text text-anchor="middle" x="254.5" y="-225.4" font-family="Times,serif" font-size="7.00">INT64(2)</text>
</g>
<!-- I_2 -->
<g id="node3" class="node">
<title>I_2</title>
<path fill="#aaeeaa" stroke="#888888" d="M415,-277C415,-277 342,-277 342,-277 336,-277 330,-271 330,-265 330,-265 330,-251 330,-251 330,-245 336,-239 342,-239 342,-239 415,-239 415,-239 421,-239 427,-245 427,-251 427,-251 427,-265 427,-265 427,-271 421,-277 415,-277"/>
<text text-anchor="middle" x="378.5" y="-261.8" font-family="Times,serif" font-size="14.00" fill="#222222">x1</text>
<text text-anchor="middle" x="378.5" y="-246.8" font-family="Times,serif" font-size="14.00" fill="#222222">FLOAT(a,8)</text>
</g>
<!-- I_3 -->
<g id="node4" class="node">
<title>I_3</title>
<path fill="#aaeeaa" stroke="#888888" d="M542.5,-277C542.5,-277 486.5,-277 486.5,-277 480.5,-277 474.5,-271 474.5,-265 474.5,-265 474.5,-251 474.5,-251 474.5,-245 480.5,-239 486.5,-239 486.5,-239 542.5,-239 542.5,-239 548.5,-239 554.5,-245 554.5,-251 554.5,-251 554.5,-265 554.5,-265 554.5,-271 548.5,-277 542.5,-277"/>
<text text-anchor="middle" x="514.5" y="-261.8" font-family="Times,serif" font-size="14.00" fill="#222222">shape</text>
<text text-anchor="middle" x="514.5" y="-246.8" font-family="Times,serif" font-size="14.00" fill="#222222">INT64(2)</text>
</g>
<!-- ConstantOfShape_6 -->
<g id="node7" class="node">
<title>ConstantOfShape_6</title>
<path fill="#cccccc" stroke="#888888" d="M581,-215C581,-215 448,-215 448,-215 442,-215 436,-209 436,-203 436,-203 436,-191 436,-191 436,-185 442,-179 448,-179 448,-179 581,-179 581,-179 587,-179 593,-185 593,-191 593,-191 593,-203 593,-203 593,-209 587,-215 581,-215"/>
<text text-anchor="middle" x="514.5" y="-193.3" font-family="Times,serif" font-size="14.00" fill="#222222">ConstantOfShape(.)</text>
</g>
<!-- I_3&#45;&gt;ConstantOfShape_6 -->
<g id="edge1" class="edge">
<title>I_3&#45;&gt;ConstantOfShape_6</title>
<path fill="none" stroke="black" d="M514.5,-238.98C514.5,-234.71 514.5,-230.06 514.5,-225.47"/>
<polygon fill="black" stroke="black" points="514.5,-215.1 519,-225.1 514.5,-220.1 514.5,-225.1 514.5,-225.1 514.5,-225.1 514.5,-220.1 510,-225.1 514.5,-215.1 514.5,-215.1"/>
<text text-anchor="middle" x="531.5" y="-225.4" font-family="Times,serif" font-size="7.00">INT64(2)</text>
</g>
<!-- I_4 -->
<g id="node5" class="node">
<title>I_4</title>
<path fill="#aaeeaa" stroke="#888888" d="M654,-277C654,-277 581,-277 581,-277 575,-277 569,-271 569,-265 569,-265 569,-251 569,-251 569,-245 575,-239 581,-239 581,-239 654,-239 654,-239 660,-239 666,-245 666,-251 666,-251 666,-265 666,-265 666,-271 660,-277 654,-277"/>
<text text-anchor="middle" x="617.5" y="-261.8" font-family="Times,serif" font-size="14.00" fill="#222222">nx1</text>
<text text-anchor="middle" x="617.5" y="-246.8" font-family="Times,serif" font-size="14.00" fill="#222222">FLOAT(a,8)</text>
</g>
<!-- I_5 -->
<g id="node6" class="node">
<title>I_5</title>
<path fill="#aaeeaa" stroke="#888888" d="M765,-277C765,-277 692,-277 692,-277 686,-277 680,-271 680,-265 680,-265 680,-251 680,-251 680,-245 686,-239 692,-239 692,-239 765,-239 765,-239 771,-239 777,-245 777,-251 777,-251 777,-265 777,-265 777,-271 771,-277 765,-277"/>
<text text-anchor="middle" x="728.5" y="-261.8" font-family="Times,serif" font-size="14.00" fill="#222222">x2</text>
<text text-anchor="middle" x="728.5" y="-246.8" font-family="Times,serif" font-size="14.00" fill="#222222">FLOAT(a,8)</text>
</g>
<!-- O_11 -->
<g id="node12" class="node">
<title>O_11</title>
<path fill="#aaaaee" stroke="#888888" d="M551.5,-155C551.5,-155 477.5,-155 477.5,-155 471.5,-155 465.5,-149 465.5,-143 465.5,-143 465.5,-129 465.5,-129 465.5,-123 471.5,-117 477.5,-117 477.5,-117 551.5,-117 551.5,-117 557.5,-117 563.5,-123 563.5,-129 563.5,-129 563.5,-143 563.5,-143 563.5,-149 557.5,-155 551.5,-155"/>
<text text-anchor="middle" x="514.5" y="-139.8" font-family="Times,serif" font-size="14.00" fill="#222222">zero</text>
<text text-anchor="middle" x="514.5" y="-124.8" font-family="Times,serif" font-size="14.00" fill="#222222">FLOAT(3,8)</text>
</g>
<!-- ConstantOfShape_6&#45;&gt;O_11 -->
<g id="edge8" class="edge">
<title>ConstantOfShape_6&#45;&gt;O_11</title>
<path fill="none" stroke="black" d="M514.5,-178.93C514.5,-174.61 514.5,-169.84 514.5,-165.12"/>
<polygon fill="black" stroke="black" points="514.5,-155.06 519,-165.06 514.5,-160.06 514.5,-165.06 514.5,-165.06 514.5,-165.06 514.5,-160.06 510,-165.06 514.5,-155.06 514.5,-155.06"/>
</g>
<!-- Neg_8 -->
<g id="node9" class="node">
<title>Neg_8</title>
<path fill="#cccccc" stroke="#888888" d="M147,-154C147,-154 110,-154 110,-154 104,-154 98,-148 98,-142 98,-142 98,-130 98,-130 98,-124 104,-118 110,-118 110,-118 147,-118 147,-118 153,-118 159,-124 159,-130 159,-130 159,-142 159,-142 159,-148 153,-154 147,-154"/>
<text text-anchor="middle" x="128.5" y="-132.3" font-family="Times,serif" font-size="14.00" fill="#222222">Neg(.)</text>
</g>
<!-- Split_7&#45;&gt;Neg_8 -->
<g id="edge4" class="edge">
<title>Split_7&#45;&gt;Neg_8</title>
<path fill="none" stroke="black" d="M143,-178.87C139.87,-176.57 137,-173.96 134.5,-171 132.71,-168.88 131.38,-166.42 130.38,-163.81"/>
<polygon fill="black" stroke="black" points="128.12,-154.04 134.76,-162.76 129.25,-158.91 130.38,-163.78 130.38,-163.78 130.38,-163.78 129.25,-158.91 125.99,-164.79 128.12,-154.04 128.12,-154.04"/>
<text text-anchor="middle" x="155.5" y="-165.4" font-family="Times,serif" font-size="7.00">FLOAT(a,8)</text>
</g>
<!-- Concat_9 -->
<g id="node10" class="node">
<title>Concat_9</title>
<path fill="#cccccc" stroke="#888888" d="M252,-92C252,-92 123,-92 123,-92 117,-92 111,-86 111,-80 111,-80 111,-68 111,-68 111,-62 117,-56 123,-56 123,-56 252,-56 252,-56 258,-56 264,-62 264,-68 264,-68 264,-80 264,-80 264,-86 258,-92 252,-92"/>
<text text-anchor="middle" x="187.5" y="-70.3" font-family="Times,serif" font-size="14.00" fill="#222222">Concat(., ., axis=1)</text>
</g>
<!-- Split_7&#45;&gt;Concat_9 -->
<g id="edge6" class="edge">
<title>Split_7&#45;&gt;Concat_9</title>
<path fill="none" stroke="black" d="M199.73,-178.96C197.84,-171.64 195.81,-162.95 194.5,-155 191.63,-137.56 189.88,-117.78 188.85,-102.25"/>
<polygon fill="black" stroke="black" points="188.25,-92.26 193.35,-101.97 188.55,-97.25 188.85,-102.24 188.85,-102.24 188.85,-102.24 188.55,-97.25 184.36,-102.51 188.25,-92.26 188.25,-92.26"/>
<text text-anchor="middle" x="215.5" y="-134.4" font-family="Times,serif" font-size="7.00">FLOAT(a,8)</text>
</g>
<!-- O_12 -->
<g id="node13" class="node">
<title>O_12</title>
<path fill="#aaaaee" stroke="#888888" d="M329,-155C329,-155 256,-155 256,-155 250,-155 244,-149 244,-143 244,-143 244,-129 244,-129 244,-123 250,-117 256,-117 256,-117 329,-117 329,-117 335,-117 341,-123 341,-129 341,-129 341,-143 341,-143 341,-149 335,-155 329,-155"/>
<text text-anchor="middle" x="292.5" y="-139.8" font-family="Times,serif" font-size="14.00" fill="#222222">x1</text>
<text text-anchor="middle" x="292.5" y="-124.8" font-family="Times,serif" font-size="14.00" fill="#222222">FLOAT(a,8)</text>
</g>
<!-- Split_7&#45;&gt;O_12 -->
<g id="edge9" class="edge">
<title>Split_7&#45;&gt;O_12</title>
<path fill="none" stroke="black" d="M229.95,-178.93C238.42,-173.26 248,-166.84 257.08,-160.75"/>
<polygon fill="black" stroke="black" points="265.57,-155.06 259.77,-164.36 261.42,-157.84 257.26,-160.62 257.26,-160.62 257.26,-160.62 261.42,-157.84 254.76,-156.89 265.57,-155.06 265.57,-155.06"/>
</g>
<!-- O_14 -->
<g id="node15" class="node">
<title>O_14</title>
<path fill="#aaaaee" stroke="#888888" d="M440,-155C440,-155 367,-155 367,-155 361,-155 355,-149 355,-143 355,-143 355,-129 355,-129 355,-123 361,-117 367,-117 367,-117 440,-117 440,-117 446,-117 452,-123 452,-129 452,-129 452,-143 452,-143 452,-149 446,-155 440,-155"/>
<text text-anchor="middle" x="403.5" y="-139.8" font-family="Times,serif" font-size="14.00" fill="#222222">x2</text>
<text text-anchor="middle" x="403.5" y="-124.8" font-family="Times,serif" font-size="14.00" fill="#222222">FLOAT(a,8)</text>
</g>
<!-- Split_7&#45;&gt;O_14 -->
<g id="edge11" class="edge">
<title>Split_7&#45;&gt;O_14</title>
<path fill="none" stroke="black" d="M265.51,-178.97C288.44,-172.46 314.92,-164.82 345.05,-155.71"/>
<polygon fill="black" stroke="black" points="354.96,-152.7 346.7,-159.91 350.18,-154.16 345.4,-155.61 345.4,-155.61 345.4,-155.61 350.18,-154.16 344.09,-151.3 354.96,-152.7 354.96,-152.7"/>
</g>
<!-- Neg_8&#45;&gt;Concat_9 -->
<g id="edge5" class="edge">
<title>Neg_8&#45;&gt;Concat_9</title>
<path fill="none" stroke="black" d="M128.46,-117.85C129.19,-112.03 130.9,-105.79 134.5,-101 134.96,-100.39 135.44,-99.78 135.94,-99.2"/>
<polygon fill="black" stroke="black" points="143.24,-92.3 139.06,-102.44 139.61,-95.73 135.97,-99.17 135.97,-99.17 135.97,-99.17 139.61,-95.73 132.88,-95.9 143.24,-92.3 143.24,-92.3"/>
<text text-anchor="middle" x="155.5" y="-103.4" font-family="Times,serif" font-size="7.00">FLOAT(a,8)</text>
</g>
<!-- O_13 -->
<g id="node14" class="node">
<title>O_13</title>
<path fill="#aaaaee" stroke="#888888" d="M85,-93C85,-93 12,-93 12,-93 6,-93 0,-87 0,-81 0,-81 0,-67 0,-67 0,-61 6,-55 12,-55 12,-55 85,-55 85,-55 91,-55 97,-61 97,-67 97,-67 97,-81 97,-81 97,-87 91,-93 85,-93"/>
<text text-anchor="middle" x="48.5" y="-77.8" font-family="Times,serif" font-size="14.00" fill="#222222">nx1</text>
<text text-anchor="middle" x="48.5" y="-62.8" font-family="Times,serif" font-size="14.00" fill="#222222">FLOAT(a,8)</text>
</g>
<!-- Neg_8&#45;&gt;O_13 -->
<g id="edge10" class="edge">
<title>Neg_8&#45;&gt;O_13</title>
<path fill="none" stroke="black" d="M105.79,-117.97C98.03,-112.15 89.19,-105.52 80.82,-99.24"/>
<polygon fill="black" stroke="black" points="72.67,-93.12 83.37,-95.52 76.67,-96.12 80.67,-99.12 80.67,-99.12 80.67,-99.12 76.67,-96.12 77.97,-102.72 72.67,-93.12 72.67,-93.12"/>
</g>
<!-- O_10 -->
<g id="node11" class="node">
<title>O_10</title>
<path fill="#aaaaee" stroke="#888888" d="M228.5,-38C228.5,-38 146.5,-38 146.5,-38 140.5,-38 134.5,-32 134.5,-26 134.5,-26 134.5,-12 134.5,-12 134.5,-6 140.5,0 146.5,0 146.5,0 228.5,0 228.5,0 234.5,0 240.5,-6 240.5,-12 240.5,-12 240.5,-26 240.5,-26 240.5,-32 234.5,-38 228.5,-38"/>
<text text-anchor="middle" x="187.5" y="-22.8" font-family="Times,serif" font-size="14.00" fill="#222222">Y</text>
<text text-anchor="middle" x="187.5" y="-7.8" font-family="Times,serif" font-size="14.00" fill="#222222">FLOAT(a,16)</text>
</g>
<!-- Concat_9&#45;&gt;O_10 -->
<g id="edge7" class="edge">
<title>Concat_9&#45;&gt;O_10</title>
<path fill="none" stroke="black" d="M187.5,-55.94C187.5,-53.45 187.5,-50.83 187.5,-48.19"/>
<polygon fill="black" stroke="black" points="187.5,-38.13 192,-48.13 187.5,-43.13 187.5,-48.13 187.5,-48.13 187.5,-48.13 187.5,-43.13 183,-48.13 187.5,-38.13 187.5,-38.13"/>
</g>
</g>
</svg>
