<?xml version="1.0" encoding="UTF-8" standalone="no"?>
<!DOCTYPE svg PUBLIC "-//W3C//DTD SVG 1.1//EN"
 "http://www.w3.org/Graphics/SVG/1.1/DTD/svg11.dtd">
<!-- Generated by graphviz version 2.43.0 (0)
 -->
<!-- Title: %3 Pages: 1 -->
<svg width="191pt" height="161pt"
 viewBox="0.00 0.00 191.00 161.00" xmlns="http://www.w3.org/2000/svg" xmlns:xlink="http://www.w3.org/1999/xlink">
<g id="graph0" class="graph" transform="scale(1 1) rotate(0) translate(4 157)">
<title>%3</title>
<!-- I_0 -->
<g id="node1" class="node">
<title>I_0</title>
<path fill="#aaeeaa" stroke="#888888" d="M171,-153C171,-153 12,-153 12,-153 6,-153 0,-147 0,-141 0,-141 0,-127 0,-127 0,-121 6,-115 12,-115 12,-115 171,-115 171,-115 177,-115 183,-121 183,-127 183,-127 183,-141 183,-141 183,-147 177,-153 171,-153"/>
<text text-anchor="middle" x="91.5" y="-137.8" font-family="Times,serif" font-size="14.00" fill="#222222">_onx_mul045</text>
<text text-anchor="middle" x="91.5" y="-122.8" font-family="Times,serif" font-size="14.00" fill="#222222">FLOAT16(4,512,16384)</text>
</g>
<!-- Identity_1 -->
<g id="node2" class="node">
<title>Identity_1</title>
<path fill="#cccccc" stroke="#888888" d="M123.5,-91C123.5,-91 59.5,-91 59.5,-91 53.5,-91 47.5,-85 47.5,-79 47.5,-79 47.5,-67 47.5,-67 47.5,-61 53.5,-55 59.5,-55 59.5,-55 123.5,-55 123.5,-55 129.5,-55 135.5,-61 135.5,-67 135.5,-67 135.5,-79 135.5,-79 135.5,-85 129.5,-91 123.5,-91"/>
<text text-anchor="middle" x="91.5" y="-69.3" font-family="Times,serif" font-size="14.00" fill="#222222">Identity(.)</text>
</g>
<!-- I_0&#45;&gt;Identity_1 -->
<g id="edge1" class="edge">
<title>I_0&#45;&gt;Identity_1</title>
<path fill="none" stroke="black" d="M91.5,-114.98C91.5,-110.71 91.5,-106.06 91.5,-101.47"/>
<polygon fill="black" stroke="black" points="91.5,-91.1 96,-101.1 91.5,-96.1 91.5,-101.1 91.5,-101.1 91.5,-101.1 91.5,-96.1 87,-101.1 91.5,-91.1 91.5,-91.1"/>
<text text-anchor="middle" x="134" y="-101.4" font-family="Times,serif" font-size="7.00">FLOAT16(4,512,16384)</text>
</g>
<!-- O_2 -->
<g id="node3" class="node">
<title>O_2</title>
<path fill="#aaaaee" stroke="#888888" d="M171,-38C171,-38 12,-38 12,-38 6,-38 0,-32 0,-26 0,-26 0,-12 0,-12 0,-6 6,0 12,0 12,0 171,0 171,0 177,0 183,-6 183,-12 183,-12 183,-26 183,-26 183,-32 177,-38 171,-38"/>
<text text-anchor="middle" x="91.5" y="-22.8" font-family="Times,serif" font-size="14.00" fill="#222222">mul_34</text>
<text text-anchor="middle" x="91.5" y="-7.8" font-family="Times,serif" font-size="14.00" fill="#222222">FLOAT16(4,512,16384)</text>
</g>
<!-- Identity_1&#45;&gt;O_2 -->
<g id="edge2" class="edge">
<title>Identity_1&#45;&gt;O_2</title>
<path fill="none" stroke="black" d="M91.5,-54.97C91.5,-52.89 91.5,-50.72 91.5,-48.53"/>
<polygon fill="black" stroke="black" points="91.5,-38.32 96,-48.32 91.5,-43.32 91.5,-48.32 91.5,-48.32 91.5,-48.32 91.5,-43.32 87,-48.32 91.5,-38.32 91.5,-38.32"/>
</g>
</g>
</svg>
