<?xml version="1.0" encoding="UTF-8" standalone="no"?>
<!DOCTYPE svg PUBLIC "-//W3C//DTD SVG 1.1//EN"
 "http://www.w3.org/Graphics/SVG/1.1/DTD/svg11.dtd">
<!-- Generated by graphviz version 2.43.0 (0)
 -->
<!-- Title: %3 Pages: 1 -->
<svg width="321pt" height="221pt"
 viewBox="0.00 0.00 320.50 221.00" xmlns="http://www.w3.org/2000/svg" xmlns:xlink="http://www.w3.org/1999/xlink">
<g id="graph0" class="graph" transform="scale(1 1) rotate(0) translate(4 217)">
<title>%3</title>
<!-- I_0 -->
<g id="node1" class="node">
<title>I_0</title>
<path fill="#aaeeaa" stroke="#888888" d="M237.5,-213C237.5,-213 163.5,-213 163.5,-213 157.5,-213 151.5,-207 151.5,-201 151.5,-201 151.5,-187 151.5,-187 151.5,-181 157.5,-175 163.5,-175 163.5,-175 237.5,-175 237.5,-175 243.5,-175 249.5,-181 249.5,-187 249.5,-187 249.5,-201 249.5,-201 249.5,-207 243.5,-213 237.5,-213"/>
<text text-anchor="middle" x="200.5" y="-197.8" font-family="Times,serif" font-size="14.00" fill="#222222">X1</text>
<text text-anchor="middle" x="200.5" y="-182.8" font-family="Times,serif" font-size="14.00" fill="#222222">FLOAT(3,3)</text>
</g>
<!-- Greater_1 -->
<g id="node2" class="node">
<title>Greater_1</title>
<path fill="#cccccc" stroke="#888888" d="M117,-151C117,-151 12,-151 12,-151 6,-151 0,-145 0,-139 0,-139 0,-127 0,-127 0,-121 6,-115 12,-115 12,-115 117,-115 117,-115 123,-115 129,-121 129,-127 129,-127 129,-139 129,-139 129,-145 123,-151 117,-151"/>
<text text-anchor="middle" x="64.5" y="-129.3" font-family="Times,serif" font-size="14.00" fill="#222222">Greater(., [0.0])</text>
</g>
<!-- I_0&#45;&gt;Greater_1 -->
<g id="edge1" class="edge">
<title>I_0&#45;&gt;Greater_1</title>
<path fill="none" stroke="black" d="M158.96,-174.98C144.6,-168.75 128.39,-161.72 113.49,-155.25"/>
<polygon fill="black" stroke="black" points="103.93,-151.1 114.89,-150.96 108.52,-153.09 113.1,-155.08 113.1,-155.08 113.1,-155.08 108.52,-153.09 111.31,-159.21 103.93,-151.1 103.93,-151.1"/>
<text text-anchor="middle" x="158.5" y="-161.4" font-family="Times,serif" font-size="7.00">FLOAT(3,3)</text>
</g>
<!-- Mul_2 -->
<g id="node3" class="node">
<title>Mul_2</title>
<path fill="#cccccc" stroke="#888888" d="M246,-151C246,-151 155,-151 155,-151 149,-151 143,-145 143,-139 143,-139 143,-127 143,-127 143,-121 149,-115 155,-115 155,-115 246,-115 246,-115 252,-115 258,-121 258,-127 258,-127 258,-139 258,-139 258,-145 252,-151 246,-151"/>
<text text-anchor="middle" x="200.5" y="-129.3" font-family="Times,serif" font-size="14.00" fill="#222222">Mul(., [&#45;0.33])</text>
</g>
<!-- I_0&#45;&gt;Mul_2 -->
<g id="edge2" class="edge">
<title>I_0&#45;&gt;Mul_2</title>
<path fill="none" stroke="black" d="M200.5,-174.98C200.5,-170.71 200.5,-166.06 200.5,-161.47"/>
<polygon fill="black" stroke="black" points="200.5,-151.1 205,-161.1 200.5,-156.1 200.5,-161.1 200.5,-161.1 200.5,-161.1 200.5,-156.1 196,-161.1 200.5,-151.1 200.5,-151.1"/>
<text text-anchor="middle" x="221.5" y="-161.4" font-family="Times,serif" font-size="7.00">FLOAT(3,3)</text>
</g>
<!-- Where_3 -->
<g id="node4" class="node">
<title>Where_3</title>
<path fill="#cccccc" stroke="#888888" d="M241,-91C241,-91 160,-91 160,-91 154,-91 148,-85 148,-79 148,-79 148,-67 148,-67 148,-61 154,-55 160,-55 160,-55 241,-55 241,-55 247,-55 253,-61 253,-67 253,-67 253,-79 253,-79 253,-85 247,-91 241,-91"/>
<text text-anchor="middle" x="200.5" y="-69.3" font-family="Times,serif" font-size="14.00" fill="#222222">Where(., ., .)</text>
</g>
<!-- I_0&#45;&gt;Where_3 -->
<g id="edge4" class="edge">
<title>I_0&#45;&gt;Where_3</title>
<path fill="none" stroke="black" d="M243.15,-174.93C252.34,-168.81 260.73,-160.93 265.5,-151 272.43,-136.58 272.43,-129.42 265.5,-115 262.2,-108.14 257.14,-102.3 251.28,-97.37"/>
<polygon fill="black" stroke="black" points="242.86,-91.19 253.59,-93.48 246.89,-94.15 250.92,-97.11 250.92,-97.11 250.92,-97.11 246.89,-94.15 248.26,-100.73 242.86,-91.19 242.86,-91.19"/>
<text text-anchor="middle" x="291.5" y="-131.4" font-family="Times,serif" font-size="7.00">FLOAT(3,3)</text>
</g>
<!-- Greater_1&#45;&gt;Where_3 -->
<g id="edge3" class="edge">
<title>Greater_1&#45;&gt;Where_3</title>
<path fill="none" stroke="black" d="M104.57,-114.91C119.1,-108.71 135.7,-101.64 150.95,-95.13"/>
<polygon fill="black" stroke="black" points="160.25,-91.17 152.81,-99.23 155.65,-93.13 151.05,-95.09 151.05,-95.09 151.05,-95.09 155.65,-93.13 149.28,-90.95 160.25,-91.17 160.25,-91.17"/>
<text text-anchor="middle" x="161.5" y="-101.4" font-family="Times,serif" font-size="7.00">BOOL(3,3)</text>
</g>
<!-- Mul_2&#45;&gt;Where_3 -->
<g id="edge5" class="edge">
<title>Mul_2&#45;&gt;Where_3</title>
<path fill="none" stroke="black" d="M200.5,-114.91C200.5,-110.7 200.5,-106.09 200.5,-101.52"/>
<polygon fill="black" stroke="black" points="200.5,-91.17 205,-101.17 200.5,-96.17 200.5,-101.17 200.5,-101.17 200.5,-101.17 200.5,-96.17 196,-101.17 200.5,-91.17 200.5,-91.17"/>
<text text-anchor="middle" x="221.5" y="-101.4" font-family="Times,serif" font-size="7.00">FLOAT(3,3)</text>
</g>
<!-- O_4 -->
<g id="node5" class="node">
<title>O_4</title>
<path fill="#aaaaee" stroke="#888888" d="M237.5,-38C237.5,-38 163.5,-38 163.5,-38 157.5,-38 151.5,-32 151.5,-26 151.5,-26 151.5,-12 151.5,-12 151.5,-6 157.5,0 163.5,0 163.5,0 237.5,0 237.5,0 243.5,0 249.5,-6 249.5,-12 249.5,-12 249.5,-26 249.5,-26 249.5,-32 243.5,-38 237.5,-38"/>
<text text-anchor="middle" x="200.5" y="-22.8" font-family="Times,serif" font-size="14.00" fill="#222222">Y</text>
<text text-anchor="middle" x="200.5" y="-7.8" font-family="Times,serif" font-size="14.00" fill="#222222">FLOAT(3,3)</text>
</g>
<!-- Where_3&#45;&gt;O_4 -->
<g id="edge6" class="edge">
<title>Where_3&#45;&gt;O_4</title>
<path fill="none" stroke="black" d="M200.5,-54.97C200.5,-52.89 200.5,-50.72 200.5,-48.53"/>
<polygon fill="black" stroke="black" points="200.5,-38.32 205,-48.32 200.5,-43.32 200.5,-48.32 200.5,-48.32 200.5,-48.32 200.5,-43.32 196,-48.32 200.5,-38.32 200.5,-38.32"/>
</g>
</g>
</svg>
