<?xml version="1.0" encoding="UTF-8" standalone="no"?>
<!DOCTYPE svg PUBLIC "-//W3C//DTD SVG 1.1//EN"
 "http://www.w3.org/Graphics/SVG/1.1/DTD/svg11.dtd">
<!-- Generated by graphviz version 2.43.0 (0)
 -->
<!-- Title: %3 Pages: 1 -->
<svg width="436pt" height="276pt"
 viewBox="0.00 0.00 436.00 276.00" xmlns="http://www.w3.org/2000/svg" xmlns:xlink="http://www.w3.org/1999/xlink">
<g id="graph0" class="graph" transform="scale(1 1) rotate(0) translate(4 272)">
<title>%3</title>
<!-- I_0 -->
<g id="node1" class="node">
<title>I_0</title>
<path fill="#aaeeaa" stroke="#888888" d="M265.5,-268C265.5,-268 161.5,-268 161.5,-268 155.5,-268 149.5,-262 149.5,-256 149.5,-256 149.5,-242 149.5,-242 149.5,-236 155.5,-230 161.5,-230 161.5,-230 265.5,-230 265.5,-230 271.5,-230 277.5,-236 277.5,-242 277.5,-242 277.5,-256 277.5,-256 277.5,-262 271.5,-268 265.5,-268"/>
<text text-anchor="middle" x="213.5" y="-252.8" font-family="Times,serif" font-size="14.00" fill="#222222">X</text>
<text text-anchor="middle" x="213.5" y="-237.8" font-family="Times,serif" font-size="14.00" fill="#222222">FLOAT(batch,3)</text>
</g>
<!-- TreeEnsembleRegressor_4 -->
<g id="node5" class="node">
<title>TreeEnsembleRegressor_4</title>
<path fill="#cccccc" stroke="#888888" d="M195,-206C195,-206 12,-206 12,-206 6,-206 0,-200 0,-194 0,-194 0,-180 0,-180 0,-174 6,-168 12,-168 12,-168 195,-168 195,-168 201,-168 207,-174 207,-180 207,-180 207,-194 207,-194 207,-200 201,-206 195,-206"/>
<text text-anchor="middle" x="103.5" y="-190.8" font-family="Times,serif" font-size="14.00" fill="#222222">ai.onnx.ml.</text>
<text text-anchor="middle" x="103.5" y="-175.8" font-family="Times,serif" font-size="14.00" fill="#222222">TreeEnsembleRegressor(.)</text>
</g>
<!-- I_0&#45;&gt;TreeEnsembleRegressor_4 -->
<g id="edge5" class="edge">
<title>I_0&#45;&gt;TreeEnsembleRegressor_4</title>
<path fill="none" stroke="black" d="M180.5,-230C169.61,-224.06 157.35,-217.37 145.86,-211.11"/>
<polygon fill="black" stroke="black" points="136.86,-206.2 147.79,-207.03 141.25,-208.59 145.64,-210.99 145.64,-210.99 145.64,-210.99 141.25,-208.59 143.48,-214.94 136.86,-206.2 136.86,-206.2"/>
<text text-anchor="middle" x="194.5" y="-216.4" font-family="Times,serif" font-size="7.00">FLOAT(batch,3)</text>
</g>
<!-- TreeEnsembleRegressor_5 -->
<g id="node6" class="node">
<title>TreeEnsembleRegressor_5</title>
<path fill="#cccccc" stroke="#888888" d="M416,-206C416,-206 233,-206 233,-206 227,-206 221,-200 221,-194 221,-194 221,-180 221,-180 221,-174 227,-168 233,-168 233,-168 416,-168 416,-168 422,-168 428,-174 428,-180 428,-180 428,-194 428,-194 428,-200 422,-206 416,-206"/>
<text text-anchor="middle" x="324.5" y="-190.8" font-family="Times,serif" font-size="14.00" fill="#222222">ai.onnx.ml.</text>
<text text-anchor="middle" x="324.5" y="-175.8" font-family="Times,serif" font-size="14.00" fill="#222222">TreeEnsembleRegressor(.)</text>
</g>
<!-- I_0&#45;&gt;TreeEnsembleRegressor_5 -->
<g id="edge6" class="edge">
<title>I_0&#45;&gt;TreeEnsembleRegressor_5</title>
<path fill="none" stroke="black" d="M246.8,-230C257.79,-224.06 270.16,-217.37 281.75,-211.11"/>
<polygon fill="black" stroke="black" points="290.84,-206.2 284.18,-214.91 286.44,-208.57 282.04,-210.95 282.04,-210.95 282.04,-210.95 286.44,-208.57 279.9,-206.99 290.84,-206.2 290.84,-206.2"/>
<text text-anchor="middle" x="304.5" y="-216.4" font-family="Times,serif" font-size="7.00">FLOAT(batch,3)</text>
</g>
<!-- Concat_1 -->
<g id="node2" class="node">
<title>Concat_1</title>
<path fill="#cccccc" stroke="#888888" d="M306,-91C306,-91 177,-91 177,-91 171,-91 165,-85 165,-79 165,-79 165,-67 165,-67 165,-61 171,-55 177,-55 177,-55 306,-55 306,-55 312,-55 318,-61 318,-67 318,-67 318,-79 318,-79 318,-85 312,-91 306,-91"/>
<text text-anchor="middle" x="241.5" y="-69.3" font-family="Times,serif" font-size="14.00" fill="#222222">Concat(., ., axis=1)</text>
</g>
<!-- O_6 -->
<g id="node7" class="node">
<title>O_6</title>
<path fill="#aaaaee" stroke="#888888" d="M293.5,-38C293.5,-38 189.5,-38 189.5,-38 183.5,-38 177.5,-32 177.5,-26 177.5,-26 177.5,-12 177.5,-12 177.5,-6 183.5,0 189.5,0 189.5,0 293.5,0 293.5,0 299.5,0 305.5,-6 305.5,-12 305.5,-12 305.5,-26 305.5,-26 305.5,-32 299.5,-38 293.5,-38"/>
<text text-anchor="middle" x="241.5" y="-22.8" font-family="Times,serif" font-size="14.00" fill="#222222">Y</text>
<text text-anchor="middle" x="241.5" y="-7.8" font-family="Times,serif" font-size="14.00" fill="#222222">FLOAT(batch,2)</text>
</g>
<!-- Concat_1&#45;&gt;O_6 -->
<g id="edge7" class="edge">
<title>Concat_1&#45;&gt;O_6</title>
<path fill="none" stroke="black" d="M241.5,-54.97C241.5,-52.89 241.5,-50.72 241.5,-48.53"/>
<polygon fill="black" stroke="black" points="241.5,-38.32 246,-48.32 241.5,-43.32 241.5,-48.32 241.5,-48.32 241.5,-48.32 241.5,-43.32 237,-48.32 241.5,-38.32 241.5,-38.32"/>
</g>
<!-- Sigmoid_2 -->
<g id="node3" class="node">
<title>Sigmoid_2</title>
<path fill="#cccccc" stroke="#888888" d="M223.5,-144C223.5,-144 157.5,-144 157.5,-144 151.5,-144 145.5,-138 145.5,-132 145.5,-132 145.5,-120 145.5,-120 145.5,-114 151.5,-108 157.5,-108 157.5,-108 223.5,-108 223.5,-108 229.5,-108 235.5,-114 235.5,-120 235.5,-120 235.5,-132 235.5,-132 235.5,-138 229.5,-144 223.5,-144"/>
<text text-anchor="middle" x="190.5" y="-122.3" font-family="Times,serif" font-size="14.00" fill="#222222">Sigmoid(.)</text>
</g>
<!-- Sigmoid_2&#45;&gt;Concat_1 -->
<g id="edge1" class="edge">
<title>Sigmoid_2&#45;&gt;Concat_1</title>
<path fill="none" stroke="black" d="M207.77,-107.73C210.76,-104.74 213.92,-101.58 217.06,-98.44"/>
<polygon fill="black" stroke="black" points="224.25,-91.25 220.36,-101.5 220.72,-94.78 217.18,-98.32 217.18,-98.32 217.18,-98.32 220.72,-94.78 214,-95.14 224.25,-91.25 224.25,-91.25"/>
</g>
<!-- Sigmoid_3 -->
<g id="node4" class="node">
<title>Sigmoid_3</title>
<path fill="#cccccc" stroke="#888888" d="M342.5,-144C342.5,-144 276.5,-144 276.5,-144 270.5,-144 264.5,-138 264.5,-132 264.5,-132 264.5,-120 264.5,-120 264.5,-114 270.5,-108 276.5,-108 276.5,-108 342.5,-108 342.5,-108 348.5,-108 354.5,-114 354.5,-120 354.5,-120 354.5,-132 354.5,-132 354.5,-138 348.5,-144 342.5,-144"/>
<text text-anchor="middle" x="309.5" y="-122.3" font-family="Times,serif" font-size="14.00" fill="#222222">Sigmoid(.)</text>
</g>
<!-- Sigmoid_3&#45;&gt;Concat_1 -->
<g id="edge2" class="edge">
<title>Sigmoid_3&#45;&gt;Concat_1</title>
<path fill="none" stroke="black" d="M286.48,-107.73C282.05,-104.41 277.34,-100.88 272.7,-97.4"/>
<polygon fill="black" stroke="black" points="264.5,-91.25 275.2,-93.65 268.5,-94.25 272.5,-97.25 272.5,-97.25 272.5,-97.25 268.5,-94.25 269.8,-100.85 264.5,-91.25 264.5,-91.25"/>
</g>
<!-- TreeEnsembleRegressor_4&#45;&gt;Sigmoid_2 -->
<g id="edge3" class="edge">
<title>TreeEnsembleRegressor_4&#45;&gt;Sigmoid_2</title>
<path fill="none" stroke="black" d="M130.08,-167.98C138.56,-162.22 148.06,-155.78 156.97,-149.74"/>
<polygon fill="black" stroke="black" points="165.28,-144.1 159.53,-153.44 161.14,-146.91 157,-149.72 157,-149.72 157,-149.72 161.14,-146.91 154.48,-145.99 165.28,-144.1 165.28,-144.1"/>
<text text-anchor="middle" x="181.5" y="-154.4" font-family="Times,serif" font-size="7.00">FLOAT(batch,1)</text>
</g>
<!-- TreeEnsembleRegressor_5&#45;&gt;Sigmoid_3 -->
<g id="edge4" class="edge">
<title>TreeEnsembleRegressor_5&#45;&gt;Sigmoid_3</title>
<path fill="none" stroke="black" d="M319.92,-167.98C318.8,-163.59 317.58,-158.8 316.39,-154.09"/>
<polygon fill="black" stroke="black" points="313.85,-144.1 320.67,-152.69 315.08,-148.95 316.31,-153.8 316.31,-153.8 316.31,-153.8 315.08,-148.95 311.95,-154.91 313.85,-144.1 313.85,-144.1"/>
<text text-anchor="middle" x="345.5" y="-154.4" font-family="Times,serif" font-size="7.00">FLOAT(batch,1)</text>
</g>
</g>
</svg>
