<?xml version="1.0" encoding="UTF-8" standalone="no"?>
<!DOCTYPE svg PUBLIC "-//W3C//DTD SVG 1.1//EN"
 "http://www.w3.org/Graphics/SVG/1.1/DTD/svg11.dtd">
<!-- Generated by graphviz version 2.43.0 (0)
 -->
<!-- Title: %3 Pages: 1 -->
<svg width="463pt" height="221pt"
 viewBox="0.00 0.00 463.00 221.00" xmlns="http://www.w3.org/2000/svg" xmlns:xlink="http://www.w3.org/1999/xlink">
<g id="graph0" class="graph" transform="scale(1 1) rotate(0) translate(4 217)">
<title>%3</title>
<!-- I_0 -->
<g id="node1" class="node">
<title>I_0</title>
<path fill="#aaeeaa" stroke="#888888" d="M72,-213C72,-213 12,-213 12,-213 6,-213 0,-207 0,-201 0,-201 0,-187 0,-187 0,-181 6,-175 12,-175 12,-175 72,-175 72,-175 78,-175 84,-181 84,-187 84,-187 84,-201 84,-201 84,-207 78,-213 72,-213"/>
<text text-anchor="middle" x="42" y="-197.8" font-family="Times,serif" font-size="14.00" fill="#222222">zero</text>
<text text-anchor="middle" x="42" y="-182.8" font-family="Times,serif" font-size="14.00" fill="#222222">FLOAT(1)</text>
</g>
<!-- I_1 -->
<g id="node2" class="node">
<title>I_1</title>
<path fill="#aaeeaa" stroke="#888888" d="M182.5,-213C182.5,-213 109.5,-213 109.5,-213 103.5,-213 97.5,-207 97.5,-201 97.5,-201 97.5,-187 97.5,-187 97.5,-181 103.5,-175 109.5,-175 109.5,-175 182.5,-175 182.5,-175 188.5,-175 194.5,-181 194.5,-187 194.5,-187 194.5,-201 194.5,-201 194.5,-207 188.5,-213 182.5,-213"/>
<text text-anchor="middle" x="146" y="-197.8" font-family="Times,serif" font-size="14.00" fill="#222222">X</text>
<text text-anchor="middle" x="146" y="-182.8" font-family="Times,serif" font-size="14.00" fill="#222222">FLOAT(a,b)</text>
</g>
<!-- Clip_5 -->
<g id="node6" class="node">
<title>Clip_5</title>
<path fill="#cccccc" stroke="#888888" d="M239,-151C239,-151 189,-151 189,-151 183,-151 177,-145 177,-139 177,-139 177,-127 177,-127 177,-121 183,-115 189,-115 189,-115 239,-115 239,-115 245,-115 251,-121 251,-127 251,-127 251,-139 251,-139 251,-145 245,-151 239,-151"/>
<text text-anchor="middle" x="214" y="-129.3" font-family="Times,serif" font-size="14.00" fill="#222222">Clip(., .)</text>
</g>
<!-- I_1&#45;&gt;Clip_5 -->
<g id="edge1" class="edge">
<title>I_1&#45;&gt;Clip_5</title>
<path fill="none" stroke="black" d="M166.77,-174.98C173.06,-169.52 180.06,-163.44 186.71,-157.68"/>
<polygon fill="black" stroke="black" points="194.29,-151.1 189.68,-161.06 190.51,-154.38 186.73,-157.66 186.73,-157.66 186.73,-157.66 190.51,-154.38 183.78,-154.26 194.29,-151.1 194.29,-151.1"/>
<text text-anchor="middle" x="206" y="-161.4" font-family="Times,serif" font-size="7.00">FLOAT(a,b)</text>
</g>
<!-- I_2 -->
<g id="node3" class="node">
<title>I_2</title>
<path fill="#aaeeaa" stroke="#888888" d="M443,-213C443,-213 383,-213 383,-213 377,-213 371,-207 371,-201 371,-201 371,-187 371,-187 371,-181 377,-175 383,-175 383,-175 443,-175 443,-175 449,-175 455,-181 455,-187 455,-187 455,-201 455,-201 455,-207 449,-213 443,-213"/>
<text text-anchor="middle" x="413" y="-197.8" font-family="Times,serif" font-size="14.00" fill="#222222">one</text>
<text text-anchor="middle" x="413" y="-182.8" font-family="Times,serif" font-size="14.00" fill="#222222">FLOAT(1)</text>
</g>
<!-- Constant_3 -->
<g id="node4" class="node">
<title>Constant_3</title>
<path fill="#cccccc" stroke="#888888" d="M345,-212C345,-212 221,-212 221,-212 215,-212 209,-206 209,-200 209,-200 209,-188 209,-188 209,-182 215,-176 221,-176 221,-176 345,-176 345,-176 351,-176 357,-182 357,-188 357,-188 357,-200 357,-200 357,-206 351,-212 345,-212"/>
<text text-anchor="middle" x="283" y="-190.3" font-family="Times,serif" font-size="14.00" fill="#222222">Constant() &#45;&gt; zero</text>
</g>
<!-- Constant_3&#45;&gt;Clip_5 -->
<g id="edge2" class="edge">
<title>Constant_3&#45;&gt;Clip_5</title>
<path fill="none" stroke="black" d="M263.04,-175.93C256.52,-170.36 249.15,-164.05 242.14,-158.06"/>
<polygon fill="black" stroke="black" points="234.15,-151.23 244.68,-154.31 237.95,-154.48 241.75,-157.73 241.75,-157.73 241.75,-157.73 237.95,-154.48 238.83,-161.15 234.15,-151.23 234.15,-151.23"/>
<text text-anchor="middle" x="267.5" y="-161.4" font-family="Times,serif" font-size="7.00">FLOAT(1)</text>
</g>
<!-- Constant_4 -->
<g id="node5" class="node">
<title>Constant_4</title>
<path fill="#cccccc" stroke="#888888" d="M396.5,-151C396.5,-151 277.5,-151 277.5,-151 271.5,-151 265.5,-145 265.5,-139 265.5,-139 265.5,-127 265.5,-127 265.5,-121 271.5,-115 277.5,-115 277.5,-115 396.5,-115 396.5,-115 402.5,-115 408.5,-121 408.5,-127 408.5,-127 408.5,-139 408.5,-139 408.5,-145 402.5,-151 396.5,-151"/>
<text text-anchor="middle" x="337" y="-129.3" font-family="Times,serif" font-size="14.00" fill="#222222">Constant() &#45;&gt; one</text>
</g>
<!-- Clip_6 -->
<g id="node7" class="node">
<title>Clip_6</title>
<path fill="#cccccc" stroke="#888888" d="M304.5,-91C304.5,-91 245.5,-91 245.5,-91 239.5,-91 233.5,-85 233.5,-79 233.5,-79 233.5,-67 233.5,-67 233.5,-61 239.5,-55 245.5,-55 245.5,-55 304.5,-55 304.5,-55 310.5,-55 316.5,-61 316.5,-67 316.5,-67 316.5,-79 316.5,-79 316.5,-85 310.5,-91 304.5,-91"/>
<text text-anchor="middle" x="275" y="-69.3" font-family="Times,serif" font-size="14.00" fill="#222222">Clip(., , .)</text>
</g>
<!-- Constant_4&#45;&gt;Clip_6 -->
<g id="edge4" class="edge">
<title>Constant_4&#45;&gt;Clip_6</title>
<path fill="none" stroke="black" d="M318.73,-114.91C313.11,-109.65 306.8,-103.75 300.77,-98.11"/>
<polygon fill="black" stroke="black" points="293.35,-91.17 303.73,-94.71 297,-94.58 300.65,-98 300.65,-98 300.65,-98 297,-94.58 297.58,-101.28 293.35,-91.17 293.35,-91.17"/>
<text text-anchor="middle" x="326.5" y="-101.4" font-family="Times,serif" font-size="7.00">FLOAT(1)</text>
</g>
<!-- Clip_5&#45;&gt;Clip_6 -->
<g id="edge3" class="edge">
<title>Clip_5&#45;&gt;Clip_6</title>
<path fill="none" stroke="black" d="M231.97,-114.91C237.51,-109.65 243.71,-103.75 249.64,-98.11"/>
<polygon fill="black" stroke="black" points="256.95,-91.17 252.8,-101.32 253.32,-94.61 249.7,-98.06 249.7,-98.06 249.7,-98.06 253.32,-94.61 246.6,-94.8 256.95,-91.17 256.95,-91.17"/>
<text text-anchor="middle" x="269" y="-101.4" font-family="Times,serif" font-size="7.00">FLOAT(a,b)</text>
</g>
<!-- O_7 -->
<g id="node8" class="node">
<title>O_7</title>
<path fill="#aaaaee" stroke="#888888" d="M311,-38C311,-38 239,-38 239,-38 233,-38 227,-32 227,-26 227,-26 227,-12 227,-12 227,-6 233,0 239,0 239,0 311,0 311,0 317,0 323,-6 323,-12 323,-12 323,-26 323,-26 323,-32 317,-38 311,-38"/>
<text text-anchor="middle" x="275" y="-22.8" font-family="Times,serif" font-size="14.00" fill="#222222">Y</text>
<text text-anchor="middle" x="275" y="-7.8" font-family="Times,serif" font-size="14.00" fill="#222222">FLOAT(c,d)</text>
</g>
<!-- Clip_6&#45;&gt;O_7 -->
<g id="edge5" class="edge">
<title>Clip_6&#45;&gt;O_7</title>
<path fill="none" stroke="black" d="M275,-54.97C275,-52.89 275,-50.72 275,-48.53"/>
<polygon fill="black" stroke="black" points="275,-38.32 279.5,-48.32 275,-43.32 275,-48.32 275,-48.32 275,-48.32 275,-43.32 270.5,-48.32 275,-38.32 275,-38.32"/>
</g>
</g>
</svg>
