<?xml version="1.0" encoding="UTF-8" standalone="no"?>
<!DOCTYPE svg PUBLIC "-//W3C//DTD SVG 1.1//EN"
 "http://www.w3.org/Graphics/SVG/1.1/DTD/svg11.dtd">
<!-- Generated by graphviz version 2.43.0 (0)
 -->
<!-- Title: %3 Pages: 1 -->
<svg width="336pt" height="223pt"
 viewBox="0.00 0.00 336.00 223.00" xmlns="http://www.w3.org/2000/svg" xmlns:xlink="http://www.w3.org/1999/xlink">
<g id="graph0" class="graph" transform="scale(1 1) rotate(0) translate(4 219)">
<title>%3</title>
<!-- I_0 -->
<g id="node1" class="node">
<title>I_0</title>
<path fill="#aaeeaa" stroke="#888888" d="M130,-215C130,-215 12,-215 12,-215 6,-215 0,-209 0,-203 0,-203 0,-189 0,-189 0,-183 6,-177 12,-177 12,-177 130,-177 130,-177 136,-177 142,-183 142,-189 142,-189 142,-203 142,-203 142,-209 136,-215 130,-215"/>
<text text-anchor="middle" x="71" y="-199.8" font-family="Times,serif" font-size="14.00" fill="#222222">xy1</text>
<text text-anchor="middle" x="71" y="-184.8" font-family="Times,serif" font-size="14.00" fill="#222222">FLOAT16(a,2,3,4)</text>
</g>
<!-- I_1 -->
<g id="node2" class="node">
<title>I_1</title>
<path fill="#aaeeaa" stroke="#888888" d="M268,-215C268,-215 168,-215 168,-215 162,-215 156,-209 156,-203 156,-203 156,-189 156,-189 156,-183 162,-177 168,-177 168,-177 268,-177 268,-177 274,-177 280,-183 280,-189 280,-189 280,-203 280,-203 280,-209 274,-215 268,-215"/>
<text text-anchor="middle" x="218" y="-199.8" font-family="Times,serif" font-size="14.00" fill="#222222">X</text>
<text text-anchor="middle" x="218" y="-184.8" font-family="Times,serif" font-size="14.00" fill="#222222">FLOAT(a,2,3,4)</text>
</g>
<!-- Cast_2 -->
<g id="node3" class="node">
<title>Cast_2</title>
<path fill="#cccccc" stroke="#888888" d="M288.5,-153C288.5,-153 147.5,-153 147.5,-153 141.5,-153 135.5,-147 135.5,-141 135.5,-141 135.5,-129 135.5,-129 135.5,-123 141.5,-117 147.5,-117 147.5,-117 288.5,-117 288.5,-117 294.5,-117 300.5,-123 300.5,-129 300.5,-129 300.5,-141 300.5,-141 300.5,-147 294.5,-153 288.5,-153"/>
<text text-anchor="middle" x="218" y="-131.3" font-family="Times,serif" font-size="14.00" fill="#222222">Cast(., to=FLOAT16)</text>
</g>
<!-- I_1&#45;&gt;Cast_2 -->
<g id="edge1" class="edge">
<title>I_1&#45;&gt;Cast_2</title>
<path fill="none" stroke="black" d="M218,-176.98C218,-172.71 218,-168.06 218,-163.47"/>
<polygon fill="black" stroke="black" points="218,-153.1 222.5,-163.1 218,-158.1 218,-163.1 218,-163.1 218,-163.1 218,-158.1 213.5,-163.1 218,-153.1 218,-153.1"/>
<text text-anchor="middle" x="245.5" y="-163.4" font-family="Times,serif" font-size="7.00">FLOAT(a,2,3,4)</text>
</g>
<!-- Identity_3 -->
<g id="node4" class="node">
<title>Identity_3</title>
<path fill="#cccccc" stroke="#888888" d="M160,-92C160,-92 96,-92 96,-92 90,-92 84,-86 84,-80 84,-80 84,-68 84,-68 84,-62 90,-56 96,-56 96,-56 160,-56 160,-56 166,-56 172,-62 172,-68 172,-68 172,-80 172,-80 172,-86 166,-92 160,-92"/>
<text text-anchor="middle" x="128" y="-70.3" font-family="Times,serif" font-size="14.00" fill="#222222">Identity(.)</text>
</g>
<!-- Cast_2&#45;&gt;Identity_3 -->
<g id="edge2" class="edge">
<title>Cast_2&#45;&gt;Identity_3</title>
<path fill="none" stroke="black" d="M181.37,-116.98C176.77,-114.47 172.21,-111.78 168,-109 163.34,-105.92 158.62,-102.37 154.14,-98.75"/>
<polygon fill="black" stroke="black" points="146.39,-92.24 156.94,-95.22 150.22,-95.45 154.05,-98.67 154.05,-98.67 154.05,-98.67 150.22,-95.45 151.15,-102.12 146.39,-92.24 146.39,-92.24"/>
<text text-anchor="middle" x="200" y="-103.4" font-family="Times,serif" font-size="7.00">FLOAT16(a,2,3,4)</text>
</g>
<!-- O_4 -->
<g id="node5" class="node">
<title>O_4</title>
<path fill="#aaaaee" stroke="#888888" d="M316,-93C316,-93 198,-93 198,-93 192,-93 186,-87 186,-81 186,-81 186,-67 186,-67 186,-61 192,-55 198,-55 198,-55 316,-55 316,-55 322,-55 328,-61 328,-67 328,-67 328,-81 328,-81 328,-87 322,-93 316,-93"/>
<text text-anchor="middle" x="257" y="-77.8" font-family="Times,serif" font-size="14.00" fill="#222222">xy1</text>
<text text-anchor="middle" x="257" y="-62.8" font-family="Times,serif" font-size="14.00" fill="#222222">FLOAT16(a,2,3,4)</text>
</g>
<!-- Cast_2&#45;&gt;O_4 -->
<g id="edge3" class="edge">
<title>Cast_2&#45;&gt;O_4</title>
<path fill="none" stroke="black" d="M229.28,-116.93C232.45,-112.14 235.98,-106.8 239.42,-101.59"/>
<polygon fill="black" stroke="black" points="245.07,-93.06 243.3,-103.88 242.31,-97.23 239.55,-101.4 239.55,-101.4 239.55,-101.4 242.31,-97.23 235.8,-98.92 245.07,-93.06 245.07,-93.06"/>
</g>
<!-- O_5 -->
<g id="node6" class="node">
<title>O_5</title>
<path fill="#aaaaee" stroke="#888888" d="M187,-38C187,-38 69,-38 69,-38 63,-38 57,-32 57,-26 57,-26 57,-12 57,-12 57,-6 63,0 69,0 69,0 187,0 187,0 193,0 199,-6 199,-12 199,-12 199,-26 199,-26 199,-32 193,-38 187,-38"/>
<text text-anchor="middle" x="128" y="-22.8" font-family="Times,serif" font-size="14.00" fill="#222222">xy2</text>
<text text-anchor="middle" x="128" y="-7.8" font-family="Times,serif" font-size="14.00" fill="#222222">FLOAT16(a,2,3,4)</text>
</g>
<!-- Identity_3&#45;&gt;O_5 -->
<g id="edge4" class="edge">
<title>Identity_3&#45;&gt;O_5</title>
<path fill="none" stroke="black" d="M128,-55.94C128,-53.45 128,-50.83 128,-48.19"/>
<polygon fill="black" stroke="black" points="128,-38.13 132.5,-48.13 128,-43.13 128,-48.13 128,-48.13 128,-48.13 128,-43.13 123.5,-48.13 128,-38.13 128,-38.13"/>
</g>
</g>
</svg>
