<?xml version="1.0" encoding="UTF-8" standalone="no"?>
<!DOCTYPE svg PUBLIC "-//W3C//DTD SVG 1.1//EN"
 "http://www.w3.org/Graphics/SVG/1.1/DTD/svg11.dtd">
<!-- Generated by graphviz version 2.43.0 (0)
 -->
<!-- Title: %3 Pages: 1 -->
<svg width="588pt" height="161pt"
 viewBox="0.00 0.00 588.00 161.00" xmlns="http://www.w3.org/2000/svg" xmlns:xlink="http://www.w3.org/1999/xlink">
<g id="graph0" class="graph" transform="scale(1 1) rotate(0) translate(4 157)">
<title>%3</title>
<!-- I_0 -->
<g id="node1" class="node">
<title>I_0</title>
<path fill="#aaeeaa" stroke="#888888" d="M142,-153C142,-153 12,-153 12,-153 6,-153 0,-147 0,-141 0,-141 0,-127 0,-127 0,-121 6,-115 12,-115 12,-115 142,-115 142,-115 148,-115 154,-121 154,-127 154,-127 154,-141 154,-141 154,-147 148,-153 142,-153"/>
<text text-anchor="middle" x="77" y="-137.8" font-family="Times,serif" font-size="14.00" fill="#222222">init7_s4_32_2_10_8</text>
<text text-anchor="middle" x="77" y="-122.8" font-family="Times,serif" font-size="14.00" fill="#222222">INT64(4)</text>
</g>
<!-- I_1 -->
<g id="node2" class="node">
<title>I_1</title>
<path fill="#aaeeaa" stroke="#888888" d="M299.5,-153C299.5,-153 180.5,-153 180.5,-153 174.5,-153 168.5,-147 168.5,-141 168.5,-141 168.5,-127 168.5,-127 168.5,-121 174.5,-115 180.5,-115 180.5,-115 299.5,-115 299.5,-115 305.5,-115 311.5,-121 311.5,-127 311.5,-127 311.5,-141 311.5,-141 311.5,-147 305.5,-153 299.5,-153"/>
<text text-anchor="middle" x="240" y="-137.8" font-family="Times,serif" font-size="14.00" fill="#222222">mul</text>
<text text-anchor="middle" x="240" y="-122.8" font-family="Times,serif" font-size="14.00" fill="#222222">FLOAT(32,2,10,8)</text>
</g>
<!-- Expand_3 -->
<g id="node4" class="node">
<title>Expand_3</title>
<path fill="#cccccc" stroke="#888888" d="M383.5,-91C383.5,-91 308.5,-91 308.5,-91 302.5,-91 296.5,-85 296.5,-79 296.5,-79 296.5,-67 296.5,-67 296.5,-61 302.5,-55 308.5,-55 308.5,-55 383.5,-55 383.5,-55 389.5,-55 395.5,-61 395.5,-67 395.5,-67 395.5,-79 395.5,-79 395.5,-85 389.5,-91 383.5,-91"/>
<text text-anchor="middle" x="346" y="-69.3" font-family="Times,serif" font-size="14.00" fill="#222222">Expand(., .)</text>
</g>
<!-- I_1&#45;&gt;Expand_3 -->
<g id="edge1" class="edge">
<title>I_1&#45;&gt;Expand_3</title>
<path fill="none" stroke="black" d="M272.38,-114.98C283.14,-108.99 295.25,-102.25 306.48,-95.99"/>
<polygon fill="black" stroke="black" points="315.27,-91.1 308.72,-99.9 310.9,-93.54 306.53,-95.97 306.53,-95.97 306.53,-95.97 310.9,-93.54 304.34,-92.04 315.27,-91.1 315.27,-91.1"/>
<text text-anchor="middle" x="332" y="-101.4" font-family="Times,serif" font-size="7.00">FLOAT(32,2,10,8)</text>
</g>
<!-- Constant_2 -->
<g id="node3" class="node">
<title>Constant_2</title>
<path fill="#cccccc" stroke="#888888" d="M568,-152C568,-152 338,-152 338,-152 332,-152 326,-146 326,-140 326,-140 326,-128 326,-128 326,-122 332,-116 338,-116 338,-116 568,-116 568,-116 574,-116 580,-122 580,-128 580,-128 580,-140 580,-140 580,-146 574,-152 568,-152"/>
<text text-anchor="middle" x="453" y="-130.3" font-family="Times,serif" font-size="14.00" fill="#222222">Constant() &#45;&gt; init7_s4_32_2_10_8</text>
</g>
<!-- Constant_2&#45;&gt;Expand_3 -->
<g id="edge2" class="edge">
<title>Constant_2&#45;&gt;Expand_3</title>
<path fill="none" stroke="black" d="M422.05,-115.93C410.74,-109.7 397.78,-102.55 385.8,-95.95"/>
<polygon fill="black" stroke="black" points="376.88,-91.03 387.81,-91.91 381.26,-93.44 385.64,-95.86 385.64,-95.86 385.64,-95.86 381.26,-93.44 383.46,-99.8 376.88,-91.03 376.88,-91.03"/>
<text text-anchor="middle" x="419" y="-101.4" font-family="Times,serif" font-size="7.00">INT64(4)</text>
</g>
<!-- O_4 -->
<g id="node5" class="node">
<title>O_4</title>
<path fill="#aaaaee" stroke="#888888" d="M405.5,-38C405.5,-38 286.5,-38 286.5,-38 280.5,-38 274.5,-32 274.5,-26 274.5,-26 274.5,-12 274.5,-12 274.5,-6 280.5,0 286.5,0 286.5,0 405.5,0 405.5,0 411.5,0 417.5,-6 417.5,-12 417.5,-12 417.5,-26 417.5,-26 417.5,-32 411.5,-38 405.5,-38"/>
<text text-anchor="middle" x="346" y="-22.8" font-family="Times,serif" font-size="14.00" fill="#222222">expand</text>
<text text-anchor="middle" x="346" y="-7.8" font-family="Times,serif" font-size="14.00" fill="#222222">FLOAT(32,2,10,8)</text>
</g>
<!-- Expand_3&#45;&gt;O_4 -->
<g id="edge3" class="edge">
<title>Expand_3&#45;&gt;O_4</title>
<path fill="none" stroke="black" d="M346,-54.97C346,-52.89 346,-50.72 346,-48.53"/>
<polygon fill="black" stroke="black" points="346,-38.32 350.5,-48.32 346,-43.32 346,-48.32 346,-48.32 346,-48.32 346,-43.32 341.5,-48.32 346,-38.32 346,-38.32"/>
</g>
</g>
</svg>
