<?xml version="1.0" encoding="UTF-8" standalone="no"?>
<!DOCTYPE svg PUBLIC "-//W3C//DTD SVG 1.1//EN"
 "http://www.w3.org/Graphics/SVG/1.1/DTD/svg11.dtd">
<!-- Generated by graphviz version 2.43.0 (0)
 -->
<!-- Title: %3 Pages: 1 -->
<svg width="272pt" height="161pt"
 viewBox="0.00 0.00 272.00 161.00" xmlns="http://www.w3.org/2000/svg" xmlns:xlink="http://www.w3.org/1999/xlink">
<g id="graph0" class="graph" transform="scale(1 1) rotate(0) translate(4 157)">
<title>%3</title>
<!-- I_0 -->
<g id="node1" class="node">
<title>I_0</title>
<path fill="#aaeeaa" stroke="#888888" d="M113,-153C113,-153 12,-153 12,-153 6,-153 0,-147 0,-141 0,-141 0,-127 0,-127 0,-121 6,-115 12,-115 12,-115 113,-115 113,-115 119,-115 125,-121 125,-127 125,-127 125,-141 125,-141 125,-147 119,-153 113,-153"/>
<text text-anchor="middle" x="62.5" y="-137.8" font-family="Times,serif" font-size="14.00" fill="#222222">Y</text>
<text text-anchor="middle" x="62.5" y="-122.8" font-family="Times,serif" font-size="14.00" fill="#222222">FLOAT(128,64)</text>
</g>
<!-- Gemm_2 -->
<g id="node3" class="node">
<title>Gemm_2</title>
<path fill="#cccccc" stroke="#888888" d="M165.5,-91C165.5,-91 97.5,-91 97.5,-91 91.5,-91 85.5,-85 85.5,-79 85.5,-79 85.5,-67 85.5,-67 85.5,-61 91.5,-55 97.5,-55 97.5,-55 165.5,-55 165.5,-55 171.5,-55 177.5,-61 177.5,-67 177.5,-67 177.5,-79 177.5,-79 177.5,-85 171.5,-91 165.5,-91"/>
<text text-anchor="middle" x="131.5" y="-69.3" font-family="Times,serif" font-size="14.00" fill="#222222">Gemm(., .)</text>
</g>
<!-- I_0&#45;&gt;Gemm_2 -->
<g id="edge2" class="edge">
<title>I_0&#45;&gt;Gemm_2</title>
<path fill="none" stroke="black" d="M83.58,-114.98C89.96,-109.52 97.06,-103.44 103.81,-97.68"/>
<polygon fill="black" stroke="black" points="111.5,-91.1 106.82,-101.02 107.7,-94.35 103.9,-97.6 103.9,-97.6 103.9,-97.6 107.7,-94.35 100.97,-94.18 111.5,-91.1 111.5,-91.1"/>
<text text-anchor="middle" x="129" y="-101.4" font-family="Times,serif" font-size="7.00">FLOAT(128,64)</text>
</g>
<!-- I_1 -->
<g id="node2" class="node">
<title>I_1</title>
<path fill="#aaeeaa" stroke="#888888" d="M252,-153C252,-153 151,-153 151,-153 145,-153 139,-147 139,-141 139,-141 139,-127 139,-127 139,-121 145,-115 151,-115 151,-115 252,-115 252,-115 258,-115 264,-121 264,-127 264,-127 264,-141 264,-141 264,-147 258,-153 252,-153"/>
<text text-anchor="middle" x="201.5" y="-137.8" font-family="Times,serif" font-size="14.00" fill="#222222">X</text>
<text text-anchor="middle" x="201.5" y="-122.8" font-family="Times,serif" font-size="14.00" fill="#222222">FLOAT(128,32)</text>
</g>
<!-- I_1&#45;&gt;Gemm_2 -->
<g id="edge1" class="edge">
<title>I_1&#45;&gt;Gemm_2</title>
<path fill="none" stroke="black" d="M180.12,-114.98C173.64,-109.52 166.43,-103.44 159.59,-97.68"/>
<polygon fill="black" stroke="black" points="151.79,-91.1 162.34,-94.11 155.62,-94.33 159.44,-97.55 159.44,-97.55 159.44,-97.55 155.62,-94.33 156.54,-100.99 151.79,-91.1 151.79,-91.1"/>
<text text-anchor="middle" x="196" y="-101.4" font-family="Times,serif" font-size="7.00">FLOAT(128,32)</text>
</g>
<!-- O_3 -->
<g id="node4" class="node">
<title>O_3</title>
<path fill="#aaaaee" stroke="#888888" d="M177.5,-38C177.5,-38 85.5,-38 85.5,-38 79.5,-38 73.5,-32 73.5,-26 73.5,-26 73.5,-12 73.5,-12 73.5,-6 79.5,0 85.5,0 85.5,0 177.5,0 177.5,0 183.5,0 189.5,-6 189.5,-12 189.5,-12 189.5,-26 189.5,-26 189.5,-32 183.5,-38 177.5,-38"/>
<text text-anchor="middle" x="131.5" y="-22.8" font-family="Times,serif" font-size="14.00" fill="#222222">Z</text>
<text text-anchor="middle" x="131.5" y="-7.8" font-family="Times,serif" font-size="14.00" fill="#222222">FLOAT(32,64)</text>
</g>
<!-- Gemm_2&#45;&gt;O_3 -->
<g id="edge3" class="edge">
<title>Gemm_2&#45;&gt;O_3</title>
<path fill="none" stroke="black" d="M131.5,-54.97C131.5,-52.89 131.5,-50.72 131.5,-48.53"/>
<polygon fill="black" stroke="black" points="131.5,-38.32 136,-48.32 131.5,-43.32 131.5,-48.32 131.5,-48.32 131.5,-48.32 131.5,-43.32 127,-48.32 131.5,-38.32 131.5,-38.32"/>
</g>
</g>
</svg>
