<?xml version="1.0" encoding="UTF-8" standalone="no"?>
<!DOCTYPE svg PUBLIC "-//W3C//DTD SVG 1.1//EN"
 "http://www.w3.org/Graphics/SVG/1.1/DTD/svg11.dtd">
<!-- Generated by graphviz version 2.43.0 (0)
 -->
<!-- Title: %3 Pages: 1 -->
<svg width="437pt" height="178pt"
 viewBox="0.00 0.00 437.50 178.00" xmlns="http://www.w3.org/2000/svg" xmlns:xlink="http://www.w3.org/1999/xlink">
<g id="graph0" class="graph" transform="scale(1 1) rotate(0) translate(4 174)">
<title>%3</title>
<!-- I_0 -->
<g id="node1" class="node">
<title>I_0</title>
<path fill="#aaeeaa" stroke="#888888" d="M85.5,-170C85.5,-170 29.5,-170 29.5,-170 23.5,-170 17.5,-164 17.5,-158 17.5,-158 17.5,-144 17.5,-144 17.5,-138 23.5,-132 29.5,-132 29.5,-132 85.5,-132 85.5,-132 91.5,-132 97.5,-138 97.5,-144 97.5,-144 97.5,-158 97.5,-158 97.5,-164 91.5,-170 85.5,-170"/>
<text text-anchor="middle" x="57.5" y="-154.8" font-family="Times,serif" font-size="14.00" fill="#222222">splits</text>
<text text-anchor="middle" x="57.5" y="-139.8" font-family="Times,serif" font-size="14.00" fill="#222222">INT64(2)</text>
</g>
<!-- Rotary_2 -->
<g id="node3" class="node">
<title>Rotary_2</title>
<path fill="#cccccc" stroke="#888888" d="M283,-108C283,-108 44,-108 44,-108 38,-108 32,-102 32,-96 32,-96 32,-67 32,-67 32,-61 38,-55 44,-55 44,-55 283,-55 283,-55 289,-55 295,-61 295,-67 295,-67 295,-96 295,-96 295,-102 289,-108 283,-108"/>
<text text-anchor="middle" x="163.5" y="-92.8" font-family="Times,serif" font-size="14.00" fill="#222222">onnx_extended.ortops.optim.cuda.</text>
<text text-anchor="middle" x="163.5" y="-77.8" font-family="Times,serif" font-size="14.00" fill="#222222">Rotary</text>
<text text-anchor="middle" x="163.5" y="-62.8" font-family="Times,serif" font-size="14.00" fill="#222222">(., .)</text>
</g>
<!-- I_0&#45;&gt;Rotary_2 -->
<g id="edge2" class="edge">
<title>I_0&#45;&gt;Rotary_2</title>
<path fill="none" stroke="black" d="M85.91,-131.91C94.73,-126.29 104.72,-119.93 114.52,-113.69"/>
<polygon fill="black" stroke="black" points="123.06,-108.25 117.04,-117.42 118.84,-110.94 114.62,-113.62 114.62,-113.62 114.62,-113.62 118.84,-110.94 112.21,-109.83 123.06,-108.25 123.06,-108.25"/>
<text text-anchor="middle" x="127.5" y="-118.4" font-family="Times,serif" font-size="7.00">INT64(2)</text>
</g>
<!-- I_1 -->
<g id="node2" class="node">
<title>I_1</title>
<path fill="#aaeeaa" stroke="#888888" d="M417.5,-170C417.5,-170 123.5,-170 123.5,-170 117.5,-170 111.5,-164 111.5,-158 111.5,-158 111.5,-144 111.5,-144 111.5,-138 117.5,-132 123.5,-132 123.5,-132 417.5,-132 417.5,-132 423.5,-132 429.5,-138 429.5,-144 429.5,-144 429.5,-158 429.5,-158 429.5,-164 423.5,-170 417.5,-170"/>
<text text-anchor="middle" x="270.5" y="-154.8" font-family="Times,serif" font-size="14.00" fill="#222222">X</text>
<text text-anchor="middle" x="270.5" y="-139.8" font-family="Times,serif" font-size="14.00" fill="#222222">FLOAT(UNKNOWNDIM,UNKNOWNDIM1)</text>
</g>
<!-- I_1&#45;&gt;Rotary_2 -->
<g id="edge1" class="edge">
<title>I_1&#45;&gt;Rotary_2</title>
<path fill="none" stroke="black" d="M241.83,-131.91C232.92,-126.29 222.84,-119.93 212.94,-113.69"/>
<polygon fill="black" stroke="black" points="204.32,-108.25 215.18,-109.78 208.55,-110.92 212.78,-113.59 212.78,-113.59 212.78,-113.59 208.55,-110.92 210.38,-117.39 204.32,-108.25 204.32,-108.25"/>
<text text-anchor="middle" x="303.5" y="-118.4" font-family="Times,serif" font-size="7.00">FLOAT(UNKNOWNDIM,UNKNOWNDIM1)</text>
</g>
<!-- O_3 -->
<g id="node4" class="node">
<title>O_3</title>
<path fill="#aaaaee" stroke="#888888" d="M315,-38C315,-38 12,-38 12,-38 6,-38 0,-32 0,-26 0,-26 0,-12 0,-12 0,-6 6,0 12,0 12,0 315,0 315,0 321,0 327,-6 327,-12 327,-12 327,-26 327,-26 327,-32 321,-38 315,-38"/>
<text text-anchor="middle" x="163.5" y="-22.8" font-family="Times,serif" font-size="14.00" fill="#222222">Y</text>
<text text-anchor="middle" x="163.5" y="-7.8" font-family="Times,serif" font-size="14.00" fill="#222222">FLOAT(UNKNOWNDIM2,UNKNOWNDIM3)</text>
</g>
<!-- Rotary_2&#45;&gt;O_3 -->
<g id="edge3" class="edge">
<title>Rotary_2&#45;&gt;O_3</title>
<path fill="none" stroke="black" d="M163.5,-54.84C163.5,-52.77 163.5,-50.66 163.5,-48.56"/>
<polygon fill="black" stroke="black" points="163.5,-38.36 168,-48.36 163.5,-43.36 163.5,-48.36 163.5,-48.36 163.5,-48.36 163.5,-43.36 159,-48.36 163.5,-38.36 163.5,-38.36"/>
</g>
</g>
</svg>
