<?xml version="1.0" encoding="UTF-8" standalone="no"?>
<!DOCTYPE svg PUBLIC "-//W3C//DTD SVG 1.1//EN"
 "http://www.w3.org/Graphics/SVG/1.1/DTD/svg11.dtd">
<!-- Generated by graphviz version 2.43.0 (0)
 -->
<!-- Title: %3 Pages: 1 -->
<svg width="663pt" height="283pt"
 viewBox="0.00 0.00 663.00 283.00" xmlns="http://www.w3.org/2000/svg" xmlns:xlink="http://www.w3.org/1999/xlink">
<g id="graph0" class="graph" transform="scale(1 1) rotate(0) translate(4 279)">
<title>%3</title>
<!-- I_0 -->
<g id="node1" class="node">
<title>I_0</title>
<path fill="#aaeeaa" stroke="#888888" d="M72,-275C72,-275 12,-275 12,-275 6,-275 0,-269 0,-263 0,-263 0,-249 0,-249 0,-243 6,-237 12,-237 12,-237 72,-237 72,-237 78,-237 84,-243 84,-249 84,-249 84,-263 84,-263 84,-269 78,-275 72,-275"/>
<text text-anchor="middle" x="42" y="-259.8" font-family="Times,serif" font-size="14.00" fill="#222222">scale</text>
<text text-anchor="middle" x="42" y="-244.8" font-family="Times,serif" font-size="14.00" fill="#222222">FLOAT(3)</text>
</g>
<!-- I_1 -->
<g id="node2" class="node">
<title>I_1</title>
<path fill="#aaeeaa" stroke="#888888" d="M170,-275C170,-275 110,-275 110,-275 104,-275 98,-269 98,-263 98,-263 98,-249 98,-249 98,-243 104,-237 110,-237 110,-237 170,-237 170,-237 176,-237 182,-243 182,-249 182,-249 182,-263 182,-263 182,-269 176,-275 170,-275"/>
<text text-anchor="middle" x="140" y="-259.8" font-family="Times,serif" font-size="14.00" fill="#222222">bias</text>
<text text-anchor="middle" x="140" y="-244.8" font-family="Times,serif" font-size="14.00" fill="#222222">FLOAT(3)</text>
</g>
<!-- I_2 -->
<g id="node3" class="node">
<title>I_2</title>
<path fill="#aaeeaa" stroke="#888888" d="M300,-275C300,-275 208,-275 208,-275 202,-275 196,-269 196,-263 196,-263 196,-249 196,-249 196,-243 202,-237 208,-237 208,-237 300,-237 300,-237 306,-237 312,-243 312,-249 312,-249 312,-263 312,-263 312,-269 306,-275 300,-275"/>
<text text-anchor="middle" x="254" y="-259.8" font-family="Times,serif" font-size="14.00" fill="#222222">X</text>
<text text-anchor="middle" x="254" y="-244.8" font-family="Times,serif" font-size="14.00" fill="#222222">FLOAT16(3,3)</text>
</g>
<!-- Cast_5 -->
<g id="node6" class="node">
<title>Cast_5</title>
<path fill="#cccccc" stroke="#888888" d="M315.5,-213C315.5,-213 192.5,-213 192.5,-213 186.5,-213 180.5,-207 180.5,-201 180.5,-201 180.5,-189 180.5,-189 180.5,-183 186.5,-177 192.5,-177 192.5,-177 315.5,-177 315.5,-177 321.5,-177 327.5,-183 327.5,-189 327.5,-189 327.5,-201 327.5,-201 327.5,-207 321.5,-213 315.5,-213"/>
<text text-anchor="middle" x="254" y="-191.3" font-family="Times,serif" font-size="14.00" fill="#222222">Cast(., to=FLOAT)</text>
</g>
<!-- I_2&#45;&gt;Cast_5 -->
<g id="edge1" class="edge">
<title>I_2&#45;&gt;Cast_5</title>
<path fill="none" stroke="black" d="M254,-236.98C254,-232.71 254,-228.06 254,-223.47"/>
<polygon fill="black" stroke="black" points="254,-213.1 258.5,-223.1 254,-218.1 254,-223.1 254,-223.1 254,-223.1 254,-218.1 249.5,-223.1 254,-213.1 254,-213.1"/>
<text text-anchor="middle" x="279.5" y="-223.4" font-family="Times,serif" font-size="7.00">FLOAT16(3,3)</text>
</g>
<!-- Constant_3 -->
<g id="node4" class="node">
<title>Constant_3</title>
<path fill="#cccccc" stroke="#888888" d="M482.5,-213C482.5,-213 353.5,-213 353.5,-213 347.5,-213 341.5,-207 341.5,-201 341.5,-201 341.5,-189 341.5,-189 341.5,-183 347.5,-177 353.5,-177 353.5,-177 482.5,-177 482.5,-177 488.5,-177 494.5,-183 494.5,-189 494.5,-189 494.5,-201 494.5,-201 494.5,-207 488.5,-213 482.5,-213"/>
<text text-anchor="middle" x="418" y="-191.3" font-family="Times,serif" font-size="14.00" fill="#222222">Constant() &#45;&gt; scale</text>
</g>
<!-- LayerNormalization_6 -->
<g id="node7" class="node">
<title>LayerNormalization_6</title>
<path fill="#cccccc" stroke="#888888" d="M488.5,-153C488.5,-153 347.5,-153 347.5,-153 341.5,-153 335.5,-147 335.5,-141 335.5,-141 335.5,-127 335.5,-127 335.5,-121 341.5,-115 347.5,-115 347.5,-115 488.5,-115 488.5,-115 494.5,-115 500.5,-121 500.5,-127 500.5,-127 500.5,-141 500.5,-141 500.5,-147 494.5,-153 488.5,-153"/>
<text text-anchor="middle" x="418" y="-137.8" font-family="Times,serif" font-size="14.00" fill="#222222">LayerNormalization</text>
<text text-anchor="middle" x="418" y="-122.8" font-family="Times,serif" font-size="14.00" fill="#222222">(., ., ., stash_type=1)</text>
</g>
<!-- Constant_3&#45;&gt;LayerNormalization_6 -->
<g id="edge3" class="edge">
<title>Constant_3&#45;&gt;LayerNormalization_6</title>
<path fill="none" stroke="black" d="M418,-176.93C418,-172.61 418,-167.84 418,-163.12"/>
<polygon fill="black" stroke="black" points="418,-153.06 422.5,-163.06 418,-158.06 418,-163.06 418,-163.06 418,-163.06 418,-158.06 413.5,-163.06 418,-153.06 418,-153.06"/>
<text text-anchor="middle" x="435.5" y="-163.4" font-family="Times,serif" font-size="7.00">FLOAT(3)</text>
</g>
<!-- Constant_4 -->
<g id="node5" class="node">
<title>Constant_4</title>
<path fill="#cccccc" stroke="#888888" d="M643,-213C643,-213 521,-213 521,-213 515,-213 509,-207 509,-201 509,-201 509,-189 509,-189 509,-183 515,-177 521,-177 521,-177 643,-177 643,-177 649,-177 655,-183 655,-189 655,-189 655,-201 655,-201 655,-207 649,-213 643,-213"/>
<text text-anchor="middle" x="582" y="-191.3" font-family="Times,serif" font-size="14.00" fill="#222222">Constant() &#45;&gt; bias</text>
</g>
<!-- Constant_4&#45;&gt;LayerNormalization_6 -->
<g id="edge4" class="edge">
<title>Constant_4&#45;&gt;LayerNormalization_6</title>
<path fill="none" stroke="black" d="M534.56,-176.93C516.84,-170.56 496.48,-163.23 477.79,-156.51"/>
<polygon fill="black" stroke="black" points="468.19,-153.06 479.12,-152.21 472.89,-154.75 477.6,-156.44 477.6,-156.44 477.6,-156.44 472.89,-154.75 476.07,-160.67 468.19,-153.06 468.19,-153.06"/>
<text text-anchor="middle" x="526.5" y="-163.4" font-family="Times,serif" font-size="7.00">FLOAT(3)</text>
</g>
<!-- Cast_5&#45;&gt;LayerNormalization_6 -->
<g id="edge2" class="edge">
<title>Cast_5&#45;&gt;LayerNormalization_6</title>
<path fill="none" stroke="black" d="M301.44,-176.93C319.16,-170.56 339.52,-163.23 358.21,-156.51"/>
<polygon fill="black" stroke="black" points="367.81,-153.06 359.93,-160.67 363.11,-154.75 358.4,-156.44 358.4,-156.44 358.4,-156.44 363.11,-154.75 356.88,-152.21 367.81,-153.06 367.81,-153.06"/>
<text text-anchor="middle" x="362" y="-163.4" font-family="Times,serif" font-size="7.00">FLOAT(3,3)</text>
</g>
<!-- Cast_7 -->
<g id="node8" class="node">
<title>Cast_7</title>
<path fill="#cccccc" stroke="#888888" d="M488.5,-91C488.5,-91 347.5,-91 347.5,-91 341.5,-91 335.5,-85 335.5,-79 335.5,-79 335.5,-67 335.5,-67 335.5,-61 341.5,-55 347.5,-55 347.5,-55 488.5,-55 488.5,-55 494.5,-55 500.5,-61 500.5,-67 500.5,-67 500.5,-79 500.5,-79 500.5,-85 494.5,-91 488.5,-91"/>
<text text-anchor="middle" x="418" y="-69.3" font-family="Times,serif" font-size="14.00" fill="#222222">Cast(., to=FLOAT16)</text>
</g>
<!-- LayerNormalization_6&#45;&gt;Cast_7 -->
<g id="edge5" class="edge">
<title>LayerNormalization_6&#45;&gt;Cast_7</title>
<path fill="none" stroke="black" d="M418,-114.98C418,-110.71 418,-106.06 418,-101.47"/>
<polygon fill="black" stroke="black" points="418,-91.1 422.5,-101.1 418,-96.1 418,-101.1 418,-101.1 418,-101.1 418,-96.1 413.5,-101.1 418,-91.1 418,-91.1"/>
<text text-anchor="middle" x="439" y="-101.4" font-family="Times,serif" font-size="7.00">FLOAT(3,3)</text>
</g>
<!-- O_8 -->
<g id="node9" class="node">
<title>O_8</title>
<path fill="#aaaaee" stroke="#888888" d="M464,-38C464,-38 372,-38 372,-38 366,-38 360,-32 360,-26 360,-26 360,-12 360,-12 360,-6 366,0 372,0 372,0 464,0 464,0 470,0 476,-6 476,-12 476,-12 476,-26 476,-26 476,-32 470,-38 464,-38"/>
<text text-anchor="middle" x="418" y="-22.8" font-family="Times,serif" font-size="14.00" fill="#222222">Y</text>
<text text-anchor="middle" x="418" y="-7.8" font-family="Times,serif" font-size="14.00" fill="#222222">FLOAT16(3,3)</text>
</g>
<!-- Cast_7&#45;&gt;O_8 -->
<g id="edge6" class="edge">
<title>Cast_7&#45;&gt;O_8</title>
<path fill="none" stroke="black" d="M418,-54.97C418,-52.89 418,-50.72 418,-48.53"/>
<polygon fill="black" stroke="black" points="418,-38.32 422.5,-48.32 418,-43.32 418,-48.32 418,-48.32 418,-48.32 418,-43.32 413.5,-48.32 418,-38.32 418,-38.32"/>
</g>
</g>
</svg>
