<?xml version="1.0" encoding="UTF-8" standalone="no"?>
<!DOCTYPE svg PUBLIC "-//W3C//DTD SVG 1.1//EN"
 "http://www.w3.org/Graphics/SVG/1.1/DTD/svg11.dtd">
<!-- Generated by graphviz version 2.43.0 (0)
 -->
<!-- Title: %3 Pages: 1 -->
<svg width="245pt" height="221pt"
 viewBox="0.00 0.00 245.00 221.00" xmlns="http://www.w3.org/2000/svg" xmlns:xlink="http://www.w3.org/1999/xlink">
<g id="graph0" class="graph" transform="scale(1 1) rotate(0) translate(4 217)">
<title>%3</title>
<!-- I_0 -->
<g id="node1" class="node">
<title>I_0</title>
<path fill="#aaeeaa" stroke="#888888" d="M182.5,-213C182.5,-213 54.5,-213 54.5,-213 48.5,-213 42.5,-207 42.5,-201 42.5,-201 42.5,-187 42.5,-187 42.5,-181 48.5,-175 54.5,-175 54.5,-175 182.5,-175 182.5,-175 188.5,-175 194.5,-181 194.5,-187 194.5,-187 194.5,-201 194.5,-201 194.5,-207 188.5,-213 182.5,-213"/>
<text text-anchor="middle" x="118.5" y="-197.8" font-family="Times,serif" font-size="14.00" fill="#222222">xs</text>
<text text-anchor="middle" x="118.5" y="-182.8" font-family="Times,serif" font-size="14.00" fill="#222222">FLOAT(1,1,32,128)</text>
</g>
<!-- Transpose_1 -->
<g id="node2" class="node">
<title>Transpose_1</title>
<path fill="#ee99ee" stroke="#888888" d="M225,-151C225,-151 12,-151 12,-151 6,-151 0,-145 0,-139 0,-139 0,-127 0,-127 0,-121 6,-115 12,-115 12,-115 225,-115 225,-115 231,-115 237,-121 237,-127 237,-127 237,-139 237,-139 237,-145 231,-151 225,-151"/>
<text text-anchor="middle" x="118.5" y="-129.3" font-family="Times,serif" font-size="14.00" fill="#222222">Transpose(., perm=[1, 0, 3, 2])</text>
</g>
<!-- I_0&#45;&gt;Transpose_1 -->
<g id="edge1" class="edge">
<title>I_0&#45;&gt;Transpose_1</title>
<path fill="none" stroke="black" d="M118.5,-174.98C118.5,-170.71 118.5,-166.06 118.5,-161.47"/>
<polygon fill="black" stroke="black" points="118.5,-151.1 123,-161.1 118.5,-156.1 118.5,-161.1 118.5,-161.1 118.5,-161.1 118.5,-156.1 114,-161.1 118.5,-151.1 118.5,-151.1"/>
<text text-anchor="middle" x="153" y="-161.4" font-family="Times,serif" font-size="7.00">FLOAT(1,1,32,128)</text>
</g>
<!-- Transpose_2 -->
<g id="node3" class="node">
<title>Transpose_2</title>
<path fill="#ee99ee" stroke="#888888" d="M225,-91C225,-91 12,-91 12,-91 6,-91 0,-85 0,-79 0,-79 0,-67 0,-67 0,-61 6,-55 12,-55 12,-55 225,-55 225,-55 231,-55 237,-61 237,-67 237,-67 237,-79 237,-79 237,-85 231,-91 225,-91"/>
<text text-anchor="middle" x="118.5" y="-69.3" font-family="Times,serif" font-size="14.00" fill="#222222">Transpose(., perm=[0, 1, 3, 2])</text>
</g>
<!-- Transpose_1&#45;&gt;Transpose_2 -->
<g id="edge2" class="edge">
<title>Transpose_1&#45;&gt;Transpose_2</title>
<path fill="none" stroke="black" d="M118.5,-114.91C118.5,-110.7 118.5,-106.09 118.5,-101.52"/>
<polygon fill="black" stroke="black" points="118.5,-91.17 123,-101.17 118.5,-96.17 118.5,-101.17 118.5,-101.17 118.5,-101.17 118.5,-96.17 114,-101.17 118.5,-91.17 118.5,-91.17"/>
<text text-anchor="middle" x="153" y="-101.4" font-family="Times,serif" font-size="7.00">FLOAT(1,1,128,32)</text>
</g>
<!-- O_3 -->
<g id="node4" class="node">
<title>O_3</title>
<path fill="#aaaaee" stroke="#888888" d="M182.5,-38C182.5,-38 54.5,-38 54.5,-38 48.5,-38 42.5,-32 42.5,-26 42.5,-26 42.5,-12 42.5,-12 42.5,-6 48.5,0 54.5,0 54.5,0 182.5,0 182.5,0 188.5,0 194.5,-6 194.5,-12 194.5,-12 194.5,-26 194.5,-26 194.5,-32 188.5,-38 182.5,-38"/>
<text text-anchor="middle" x="118.5" y="-22.8" font-family="Times,serif" font-size="14.00" fill="#222222">xm1</text>
<text text-anchor="middle" x="118.5" y="-7.8" font-family="Times,serif" font-size="14.00" fill="#222222">FLOAT(1,1,32,128)</text>
</g>
<!-- Transpose_2&#45;&gt;O_3 -->
<g id="edge3" class="edge">
<title>Transpose_2&#45;&gt;O_3</title>
<path fill="none" stroke="black" d="M118.5,-54.97C118.5,-52.89 118.5,-50.72 118.5,-48.53"/>
<polygon fill="black" stroke="black" points="118.5,-38.32 123,-48.32 118.5,-43.32 118.5,-48.32 118.5,-48.32 118.5,-48.32 118.5,-43.32 114,-48.32 118.5,-38.32 118.5,-38.32"/>
</g>
</g>
</svg>
