<?xml version="1.0" encoding="UTF-8" standalone="no"?>
<!DOCTYPE svg PUBLIC "-//W3C//DTD SVG 1.1//EN"
 "http://www.w3.org/Graphics/SVG/1.1/DTD/svg11.dtd">
<!-- Generated by graphviz version 2.43.0 (0)
 -->
<!-- Title: %3 Pages: 1 -->
<svg width="1052pt" height="302pt"
 viewBox="0.00 0.00 1052.00 302.00" xmlns="http://www.w3.org/2000/svg" xmlns:xlink="http://www.w3.org/1999/xlink">
<g id="graph0" class="graph" transform="scale(1 1) rotate(0) translate(4 298)">
<title>%3</title>
<!-- I_0 -->
<g id="node1" class="node">
<title>I_0</title>
<path fill="#aaeeaa" stroke="#888888" d="M148,-294C148,-294 15,-294 15,-294 9,-294 3,-288 3,-282 3,-282 3,-268 3,-268 3,-262 9,-256 15,-256 15,-256 148,-256 148,-256 154,-256 160,-262 160,-268 160,-268 160,-282 160,-282 160,-288 154,-294 148,-294"/>
<text text-anchor="middle" x="81.5" y="-278.8" font-family="Times,serif" font-size="14.00" fill="#222222">mask</text>
<text text-anchor="middle" x="81.5" y="-263.8" font-family="Times,serif" font-size="14.00" fill="#222222">BOOL(am,1,cm,dm)</text>
</g>
<!-- Where_9 -->
<g id="node10" class="node">
<title>Where_9</title>
<path fill="#cccccc" stroke="#888888" d="M151,-231C151,-231 12,-231 12,-231 6,-231 0,-225 0,-219 0,-219 0,-207 0,-207 0,-201 6,-195 12,-195 12,-195 151,-195 151,-195 157,-195 163,-201 163,-207 163,-207 163,-219 163,-219 163,-225 157,-231 151,-231"/>
<text text-anchor="middle" x="81.5" y="-209.3" font-family="Times,serif" font-size="14.00" fill="#222222">Where(., [0.0], [&#45;inf])</text>
</g>
<!-- I_0&#45;&gt;Where_9 -->
<g id="edge4" class="edge">
<title>I_0&#45;&gt;Where_9</title>
<path fill="none" stroke="black" d="M81.5,-256C81.5,-251.45 81.5,-246.46 81.5,-241.55"/>
<polygon fill="black" stroke="black" points="81.5,-231.17 86,-241.17 81.5,-236.17 81.5,-241.17 81.5,-241.17 81.5,-241.17 81.5,-236.17 77,-241.17 81.5,-231.17 81.5,-231.17"/>
<text text-anchor="middle" x="118" y="-242.4" font-family="Times,serif" font-size="7.00">BOOL(am,1,cm,dm)</text>
</g>
<!-- I_1 -->
<g id="node2" class="node">
<title>I_1</title>
<path fill="#aaeeaa" stroke="#888888" d="M326,-232C326,-232 189,-232 189,-232 183,-232 177,-226 177,-220 177,-220 177,-206 177,-206 177,-200 183,-194 189,-194 189,-194 326,-194 326,-194 332,-194 338,-200 338,-206 338,-206 338,-220 338,-220 338,-226 332,-232 326,-232"/>
<text text-anchor="middle" x="257.5" y="-216.8" font-family="Times,serif" font-size="14.00" fill="#222222">past_values</text>
<text text-anchor="middle" x="257.5" y="-201.8" font-family="Times,serif" font-size="14.00" fill="#222222">FLOAT(pav,8,pcv,64)</text>
</g>
<!-- MultiHeadAttention_10 -->
<g id="node11" class="node">
<title>MultiHeadAttention_10</title>
<path fill="#cccccc" stroke="#888888" d="M571,-170C571,-170 436,-170 436,-170 430,-170 424,-164 424,-158 424,-158 424,-129 424,-129 424,-123 430,-117 436,-117 436,-117 571,-117 571,-117 577,-117 583,-123 583,-129 583,-129 583,-158 583,-158 583,-164 577,-170 571,-170"/>
<text text-anchor="middle" x="503.5" y="-154.8" font-family="Times,serif" font-size="14.00" fill="#222222">com.microsoft.</text>
<text text-anchor="middle" x="503.5" y="-139.8" font-family="Times,serif" font-size="14.00" fill="#222222">MultiHeadAttention</text>
<text text-anchor="middle" x="503.5" y="-124.8" font-family="Times,serif" font-size="14.00" fill="#222222">(., ., ., , , ., ., .)</text>
</g>
<!-- I_1&#45;&gt;MultiHeadAttention_10 -->
<g id="edge10" class="edge">
<title>I_1&#45;&gt;MultiHeadAttention_10</title>
<path fill="none" stroke="black" d="M323.1,-194C350.97,-186.35 383.91,-177.31 413.96,-169.07"/>
<polygon fill="black" stroke="black" points="423.61,-166.42 415.15,-173.41 418.79,-167.74 413.96,-169.07 413.96,-169.07 413.96,-169.07 418.79,-167.74 412.77,-164.73 423.61,-166.42 423.61,-166.42"/>
<text text-anchor="middle" x="417.5" y="-180.4" font-family="Times,serif" font-size="7.00">FLOAT(pav,8,pcv,64)</text>
</g>
<!-- I_2 -->
<g id="node3" class="node">
<title>I_2</title>
<path fill="#aaeeaa" stroke="#888888" d="M1024,-294C1024,-294 903,-294 903,-294 897,-294 891,-288 891,-282 891,-282 891,-268 891,-268 891,-262 897,-256 903,-256 903,-256 1024,-256 1024,-256 1030,-256 1036,-262 1036,-268 1036,-268 1036,-282 1036,-282 1036,-288 1030,-294 1024,-294"/>
<text text-anchor="middle" x="963.5" y="-278.8" font-family="Times,serif" font-size="14.00" fill="#222222">values</text>
<text text-anchor="middle" x="963.5" y="-263.8" font-family="Times,serif" font-size="14.00" fill="#222222">FLOAT(av,bv,8,64)</text>
</g>
<!-- Reshape_8 -->
<g id="node9" class="node">
<title>Reshape_8</title>
<path fill="#eeeeee" stroke="#888888" d="M1032,-231C1032,-231 895,-231 895,-231 889,-231 883,-225 883,-219 883,-219 883,-207 883,-207 883,-201 889,-195 895,-195 895,-195 1032,-195 1032,-195 1038,-195 1044,-201 1044,-207 1044,-207 1044,-219 1044,-219 1044,-225 1038,-231 1032,-231"/>
<text text-anchor="middle" x="963.5" y="-209.3" font-family="Times,serif" font-size="14.00" fill="#222222">Reshape(., [0, 0, &#45;1])</text>
</g>
<!-- I_2&#45;&gt;Reshape_8 -->
<g id="edge3" class="edge">
<title>I_2&#45;&gt;Reshape_8</title>
<path fill="none" stroke="black" d="M963.5,-256C963.5,-251.45 963.5,-246.46 963.5,-241.55"/>
<polygon fill="black" stroke="black" points="963.5,-231.17 968,-241.17 963.5,-236.17 963.5,-241.17 963.5,-241.17 963.5,-241.17 963.5,-236.17 959,-241.17 963.5,-231.17 963.5,-231.17"/>
<text text-anchor="middle" x="996.5" y="-242.4" font-family="Times,serif" font-size="7.00">FLOAT(av,bv,8,64)</text>
</g>
<!-- I_3 -->
<g id="node4" class="node">
<title>I_3</title>
<path fill="#aaeeaa" stroke="#888888" d="M677,-294C677,-294 550,-294 550,-294 544,-294 538,-288 538,-282 538,-282 538,-268 538,-268 538,-262 544,-256 550,-256 550,-256 677,-256 677,-256 683,-256 689,-262 689,-268 689,-268 689,-282 689,-282 689,-288 683,-294 677,-294"/>
<text text-anchor="middle" x="613.5" y="-278.8" font-family="Times,serif" font-size="14.00" fill="#222222">query</text>
<text text-anchor="middle" x="613.5" y="-263.8" font-family="Times,serif" font-size="14.00" fill="#222222">FLOAT(aq,bq,8,64)</text>
</g>
<!-- Reshape_6 -->
<g id="node7" class="node">
<title>Reshape_6</title>
<path fill="#eeeeee" stroke="#888888" d="M682,-231C682,-231 545,-231 545,-231 539,-231 533,-225 533,-219 533,-219 533,-207 533,-207 533,-201 539,-195 545,-195 545,-195 682,-195 682,-195 688,-195 694,-201 694,-207 694,-207 694,-219 694,-219 694,-225 688,-231 682,-231"/>
<text text-anchor="middle" x="613.5" y="-209.3" font-family="Times,serif" font-size="14.00" fill="#222222">Reshape(., [0, 0, &#45;1])</text>
</g>
<!-- I_3&#45;&gt;Reshape_6 -->
<g id="edge1" class="edge">
<title>I_3&#45;&gt;Reshape_6</title>
<path fill="none" stroke="black" d="M613.5,-256C613.5,-251.45 613.5,-246.46 613.5,-241.55"/>
<polygon fill="black" stroke="black" points="613.5,-231.17 618,-241.17 613.5,-236.17 613.5,-241.17 613.5,-241.17 613.5,-241.17 613.5,-236.17 609,-241.17 613.5,-231.17 613.5,-231.17"/>
<text text-anchor="middle" x="648" y="-242.4" font-family="Times,serif" font-size="7.00">FLOAT(aq,bq,8,64)</text>
</g>
<!-- I_4 -->
<g id="node5" class="node">
<title>I_4</title>
<path fill="#aaeeaa" stroke="#888888" d="M506.5,-232C506.5,-232 364.5,-232 364.5,-232 358.5,-232 352.5,-226 352.5,-220 352.5,-220 352.5,-206 352.5,-206 352.5,-200 358.5,-194 364.5,-194 364.5,-194 506.5,-194 506.5,-194 512.5,-194 518.5,-200 518.5,-206 518.5,-206 518.5,-220 518.5,-220 518.5,-226 512.5,-232 506.5,-232"/>
<text text-anchor="middle" x="435.5" y="-216.8" font-family="Times,serif" font-size="14.00" fill="#222222">past_keys</text>
<text text-anchor="middle" x="435.5" y="-201.8" font-family="Times,serif" font-size="14.00" fill="#222222">FLOAT(pak,8,pck,64)</text>
</g>
<!-- I_4&#45;&gt;MultiHeadAttention_10 -->
<g id="edge9" class="edge">
<title>I_4&#45;&gt;MultiHeadAttention_10</title>
<path fill="none" stroke="black" d="M453.72,-193.91C458.87,-188.8 464.63,-183.08 470.36,-177.39"/>
<polygon fill="black" stroke="black" points="477.56,-170.25 473.63,-180.49 474.01,-173.77 470.46,-177.3 470.46,-177.3 470.46,-177.3 474.01,-173.77 467.29,-174.1 477.56,-170.25 477.56,-170.25"/>
<text text-anchor="middle" x="508" y="-180.4" font-family="Times,serif" font-size="7.00">FLOAT(pak,8,pck,64)</text>
</g>
<!-- I_5 -->
<g id="node6" class="node">
<title>I_5</title>
<path fill="#aaeeaa" stroke="#888888" d="M851,-294C851,-294 726,-294 726,-294 720,-294 714,-288 714,-282 714,-282 714,-268 714,-268 714,-262 720,-256 726,-256 726,-256 851,-256 851,-256 857,-256 863,-262 863,-268 863,-268 863,-282 863,-282 863,-288 857,-294 851,-294"/>
<text text-anchor="middle" x="788.5" y="-278.8" font-family="Times,serif" font-size="14.00" fill="#222222">keys</text>
<text text-anchor="middle" x="788.5" y="-263.8" font-family="Times,serif" font-size="14.00" fill="#222222">FLOAT(ak,bk,8,64)</text>
</g>
<!-- Reshape_7 -->
<g id="node8" class="node">
<title>Reshape_7</title>
<path fill="#eeeeee" stroke="#888888" d="M857,-231C857,-231 720,-231 720,-231 714,-231 708,-225 708,-219 708,-219 708,-207 708,-207 708,-201 714,-195 720,-195 720,-195 857,-195 857,-195 863,-195 869,-201 869,-207 869,-207 869,-219 869,-219 869,-225 863,-231 857,-231"/>
<text text-anchor="middle" x="788.5" y="-209.3" font-family="Times,serif" font-size="14.00" fill="#222222">Reshape(., [0, 0, &#45;1])</text>
</g>
<!-- I_5&#45;&gt;Reshape_7 -->
<g id="edge2" class="edge">
<title>I_5&#45;&gt;Reshape_7</title>
<path fill="none" stroke="black" d="M788.5,-256C788.5,-251.45 788.5,-246.46 788.5,-241.55"/>
<polygon fill="black" stroke="black" points="788.5,-231.17 793,-241.17 788.5,-236.17 788.5,-241.17 788.5,-241.17 788.5,-241.17 788.5,-236.17 784,-241.17 788.5,-231.17 788.5,-231.17"/>
<text text-anchor="middle" x="823" y="-242.4" font-family="Times,serif" font-size="7.00">FLOAT(ak,bk,8,64)</text>
</g>
<!-- Reshape_6&#45;&gt;MultiHeadAttention_10 -->
<g id="edge5" class="edge">
<title>Reshape_6&#45;&gt;MultiHeadAttention_10</title>
<path fill="none" stroke="black" d="M585.74,-194.97C576.1,-189.05 564.96,-182.22 554.06,-175.53"/>
<polygon fill="black" stroke="black" points="545.4,-170.21 556.28,-171.61 549.66,-172.83 553.92,-175.44 553.92,-175.44 553.92,-175.44 549.66,-172.83 551.57,-179.28 545.4,-170.21 545.4,-170.21"/>
<text text-anchor="middle" x="602" y="-180.4" font-family="Times,serif" font-size="7.00">FLOAT(aq,bq,512)</text>
</g>
<!-- Reshape_7&#45;&gt;MultiHeadAttention_10 -->
<g id="edge6" class="edge">
<title>Reshape_7&#45;&gt;MultiHeadAttention_10</title>
<path fill="none" stroke="black" d="M716.58,-194.97C679.11,-186.09 632.93,-175.15 593.15,-165.73"/>
<polygon fill="black" stroke="black" points="583.18,-163.37 593.95,-161.3 588.04,-164.52 592.91,-165.68 592.91,-165.68 592.91,-165.68 588.04,-164.52 591.87,-170.05 583.18,-163.37 583.18,-163.37"/>
<text text-anchor="middle" x="706" y="-180.4" font-family="Times,serif" font-size="7.00">FLOAT(ak,bk,512)</text>
</g>
<!-- Reshape_8&#45;&gt;MultiHeadAttention_10 -->
<g id="edge7" class="edge">
<title>Reshape_8&#45;&gt;MultiHeadAttention_10</title>
<path fill="none" stroke="black" d="M882.98,-195.3C880.46,-194.85 877.96,-194.41 875.5,-194 779.43,-177.8 668.67,-163.64 593.15,-154.66"/>
<polygon fill="black" stroke="black" points="583.2,-153.48 593.66,-150.19 588.17,-154.07 593.13,-154.66 593.13,-154.66 593.13,-154.66 588.17,-154.07 592.6,-159.12 583.2,-153.48 583.2,-153.48"/>
<text text-anchor="middle" x="857.5" y="-180.4" font-family="Times,serif" font-size="7.00">FLOAT(av,bv,512)</text>
</g>
<!-- Where_9&#45;&gt;MultiHeadAttention_10 -->
<g id="edge8" class="edge">
<title>Where_9&#45;&gt;MultiHeadAttention_10</title>
<path fill="none" stroke="black" d="M163.45,-195.09C165.48,-194.71 167.5,-194.35 169.5,-194 251.87,-179.48 346.17,-165.77 413.52,-156.48"/>
<polygon fill="black" stroke="black" points="423.67,-155.08 414.38,-160.9 418.72,-155.76 413.76,-156.44 413.76,-156.44 413.76,-156.44 418.72,-155.76 413.15,-151.99 423.67,-155.08 423.67,-155.08"/>
<text text-anchor="middle" x="299" y="-180.4" font-family="Times,serif" font-size="7.00">FLOAT(am,1,cm,dm)</text>
</g>
<!-- Reshape_11 -->
<g id="node12" class="node">
<title>Reshape_11</title>
<path fill="#eeeeee" stroke="#888888" d="M381.5,-92C381.5,-92 217.5,-92 217.5,-92 211.5,-92 205.5,-86 205.5,-80 205.5,-80 205.5,-68 205.5,-68 205.5,-62 211.5,-56 217.5,-56 217.5,-56 381.5,-56 381.5,-56 387.5,-56 393.5,-62 393.5,-68 393.5,-68 393.5,-80 393.5,-80 393.5,-86 387.5,-92 381.5,-92"/>
<text text-anchor="middle" x="299.5" y="-70.3" font-family="Times,serif" font-size="14.00" fill="#222222">Reshape(., [0, 0, &#45;1, 64])</text>
</g>
<!-- MultiHeadAttention_10&#45;&gt;Reshape_11 -->
<g id="edge11" class="edge">
<title>MultiHeadAttention_10&#45;&gt;Reshape_11</title>
<path fill="none" stroke="black" d="M426.38,-116.98C404.66,-109.79 381.33,-102.08 360.68,-95.24"/>
<polygon fill="black" stroke="black" points="351.09,-92.07 361.99,-90.94 355.83,-93.64 360.58,-95.21 360.58,-95.21 360.58,-95.21 355.83,-93.64 359.17,-99.48 351.09,-92.07 351.09,-92.07"/>
<text text-anchor="middle" x="435" y="-103.4" font-family="Times,serif" font-size="7.00">FLOAT(aq,bq,512)</text>
</g>
<!-- O_12 -->
<g id="node13" class="node">
<title>O_12</title>
<path fill="#aaaaee" stroke="#888888" d="M587,-93C587,-93 420,-93 420,-93 414,-93 408,-87 408,-81 408,-81 408,-67 408,-67 408,-61 414,-55 420,-55 420,-55 587,-55 587,-55 593,-55 599,-61 599,-67 599,-67 599,-81 599,-81 599,-87 593,-93 587,-93"/>
<text text-anchor="middle" x="503.5" y="-77.8" font-family="Times,serif" font-size="14.00" fill="#222222">ct_values</text>
<text text-anchor="middle" x="503.5" y="-62.8" font-family="Times,serif" font-size="14.00" fill="#222222">FLOAT(pav,8,pcv+bv,64)</text>
</g>
<!-- MultiHeadAttention_10&#45;&gt;O_12 -->
<g id="edge12" class="edge">
<title>MultiHeadAttention_10&#45;&gt;O_12</title>
<path fill="none" stroke="black" d="M503.5,-116.98C503.5,-112.53 503.5,-107.87 503.5,-103.35"/>
<polygon fill="black" stroke="black" points="503.5,-93.2 508,-103.2 503.5,-98.2 503.5,-103.2 503.5,-103.2 503.5,-103.2 503.5,-98.2 499,-103.2 503.5,-93.2 503.5,-93.2"/>
</g>
<!-- O_14 -->
<g id="node15" class="node">
<title>O_14</title>
<path fill="#aaaaee" stroke="#888888" d="M796,-93C796,-93 625,-93 625,-93 619,-93 613,-87 613,-81 613,-81 613,-67 613,-67 613,-61 619,-55 625,-55 625,-55 796,-55 796,-55 802,-55 808,-61 808,-67 808,-67 808,-81 808,-81 808,-87 802,-93 796,-93"/>
<text text-anchor="middle" x="710.5" y="-77.8" font-family="Times,serif" font-size="14.00" fill="#222222">ct_keys</text>
<text text-anchor="middle" x="710.5" y="-62.8" font-family="Times,serif" font-size="14.00" fill="#222222">FLOAT(pak,8,pck+bk,64)</text>
</g>
<!-- MultiHeadAttention_10&#45;&gt;O_14 -->
<g id="edge14" class="edge">
<title>MultiHeadAttention_10&#45;&gt;O_14</title>
<path fill="none" stroke="black" d="M581.76,-116.98C602.71,-110.15 625.14,-102.83 645.31,-96.26"/>
<polygon fill="black" stroke="black" points="655.01,-93.09 646.9,-100.47 650.26,-94.64 645.51,-96.19 645.51,-96.19 645.51,-96.19 650.26,-94.64 644.11,-91.92 655.01,-93.09 655.01,-93.09"/>
</g>
<!-- O_13 -->
<g id="node14" class="node">
<title>O_13</title>
<path fill="#aaaaee" stroke="#888888" d="M362,-38C362,-38 237,-38 237,-38 231,-38 225,-32 225,-26 225,-26 225,-12 225,-12 225,-6 231,0 237,0 237,0 362,0 362,0 368,0 374,-6 374,-12 374,-12 374,-26 374,-26 374,-32 368,-38 362,-38"/>
<text text-anchor="middle" x="299.5" y="-22.8" font-family="Times,serif" font-size="14.00" fill="#222222">Y</text>
<text text-anchor="middle" x="299.5" y="-7.8" font-family="Times,serif" font-size="14.00" fill="#222222">FLOAT(ay,by,cy,dy)</text>
</g>
<!-- Reshape_11&#45;&gt;O_13 -->
<g id="edge13" class="edge">
<title>Reshape_11&#45;&gt;O_13</title>
<path fill="none" stroke="black" d="M299.5,-55.94C299.5,-53.45 299.5,-50.83 299.5,-48.19"/>
<polygon fill="black" stroke="black" points="299.5,-38.13 304,-48.13 299.5,-43.13 299.5,-48.13 299.5,-48.13 299.5,-48.13 299.5,-43.13 295,-48.13 299.5,-38.13 299.5,-38.13"/>
</g>
</g>
</svg>
