<?xml version="1.0" encoding="UTF-8" standalone="no"?>
<!DOCTYPE svg PUBLIC "-//W3C//DTD SVG 1.1//EN"
 "http://www.w3.org/Graphics/SVG/1.1/DTD/svg11.dtd">
<!-- Generated by graphviz version 2.43.0 (0)
 -->
<!-- Title: %3 Pages: 1 -->
<svg width="117pt" height="161pt"
 viewBox="0.00 0.00 117.00 161.00" xmlns="http://www.w3.org/2000/svg" xmlns:xlink="http://www.w3.org/1999/xlink">
<g id="graph0" class="graph" transform="scale(1 1) rotate(0) translate(4 157)">
<title>%3</title>
<!-- I_0 -->
<g id="node1" class="node">
<title>I_0</title>
<path fill="#aaeeaa" stroke="#888888" d="M97,-153C97,-153 12,-153 12,-153 6,-153 0,-147 0,-141 0,-141 0,-127 0,-127 0,-121 6,-115 12,-115 12,-115 97,-115 97,-115 103,-115 109,-121 109,-127 109,-127 109,-141 109,-141 109,-147 103,-153 97,-153"/>
<text text-anchor="middle" x="54.5" y="-137.8" font-family="Times,serif" font-size="14.00" fill="#222222">x3</text>
<text text-anchor="middle" x="54.5" y="-122.8" font-family="Times,serif" font-size="14.00" fill="#222222">FLOAT(a,b,c)</text>
</g>
<!-- Identity_1 -->
<g id="node2" class="node">
<title>Identity_1</title>
<path fill="#cccccc" stroke="#888888" d="M86.5,-91C86.5,-91 22.5,-91 22.5,-91 16.5,-91 10.5,-85 10.5,-79 10.5,-79 10.5,-67 10.5,-67 10.5,-61 16.5,-55 22.5,-55 22.5,-55 86.5,-55 86.5,-55 92.5,-55 98.5,-61 98.5,-67 98.5,-67 98.5,-79 98.5,-79 98.5,-85 92.5,-91 86.5,-91"/>
<text text-anchor="middle" x="54.5" y="-69.3" font-family="Times,serif" font-size="14.00" fill="#222222">Identity(.)</text>
</g>
<!-- I_0&#45;&gt;Identity_1 -->
<g id="edge1" class="edge">
<title>I_0&#45;&gt;Identity_1</title>
<path fill="none" stroke="black" d="M54.5,-114.98C54.5,-110.71 54.5,-106.06 54.5,-101.47"/>
<polygon fill="black" stroke="black" points="54.5,-91.1 59,-101.1 54.5,-96.1 54.5,-101.1 54.5,-101.1 54.5,-101.1 54.5,-96.1 50,-101.1 54.5,-91.1 54.5,-91.1"/>
<text text-anchor="middle" x="78.5" y="-101.4" font-family="Times,serif" font-size="7.00">FLOAT(a,b,c)</text>
</g>
<!-- O_2 -->
<g id="node3" class="node">
<title>O_2</title>
<path fill="#aaaaee" stroke="#888888" d="M97,-38C97,-38 12,-38 12,-38 6,-38 0,-32 0,-26 0,-26 0,-12 0,-12 0,-6 6,0 12,0 12,0 97,0 97,0 103,0 109,-6 109,-12 109,-12 109,-26 109,-26 109,-32 103,-38 97,-38"/>
<text text-anchor="middle" x="54.5" y="-22.8" font-family="Times,serif" font-size="14.00" fill="#222222">Y</text>
<text text-anchor="middle" x="54.5" y="-7.8" font-family="Times,serif" font-size="14.00" fill="#222222">FLOAT(a,b,c)</text>
</g>
<!-- Identity_1&#45;&gt;O_2 -->
<g id="edge2" class="edge">
<title>Identity_1&#45;&gt;O_2</title>
<path fill="none" stroke="black" d="M54.5,-54.97C54.5,-52.89 54.5,-50.72 54.5,-48.53"/>
<polygon fill="black" stroke="black" points="54.5,-38.32 59,-48.32 54.5,-43.32 54.5,-48.32 54.5,-48.32 54.5,-48.32 54.5,-43.32 50,-48.32 54.5,-38.32 54.5,-38.32"/>
</g>
</g>
</svg>
