<?xml version="1.0" encoding="UTF-8" standalone="no"?>
<!DOCTYPE svg PUBLIC "-//W3C//DTD SVG 1.1//EN"
 "http://www.w3.org/Graphics/SVG/1.1/DTD/svg11.dtd">
<!-- Generated by graphviz version 2.43.0 (0)
 -->
<!-- Title: %3 Pages: 1 -->
<svg width="481pt" height="221pt"
 viewBox="0.00 0.00 481.00 221.00" xmlns="http://www.w3.org/2000/svg" xmlns:xlink="http://www.w3.org/1999/xlink">
<g id="graph0" class="graph" transform="scale(1 1) rotate(0) translate(4 217)">
<title>%3</title>
<!-- I_0 -->
<g id="node1" class="node">
<title>I_0</title>
<path fill="#aaeeaa" stroke="#888888" d="M68,-213C68,-213 12,-213 12,-213 6,-213 0,-207 0,-201 0,-201 0,-187 0,-187 0,-181 6,-175 12,-175 12,-175 68,-175 68,-175 74,-175 80,-181 80,-187 80,-187 80,-201 80,-201 80,-207 74,-213 68,-213"/>
<text text-anchor="middle" x="40" y="-197.8" font-family="Times,serif" font-size="14.00" fill="#222222">p</text>
<text text-anchor="middle" x="40" y="-182.8" font-family="Times,serif" font-size="14.00" fill="#222222">INT64(1)</text>
</g>
<!-- I_1 -->
<g id="node2" class="node">
<title>I_1</title>
<path fill="#aaeeaa" stroke="#888888" d="M193.5,-213C193.5,-213 106.5,-213 106.5,-213 100.5,-213 94.5,-207 94.5,-201 94.5,-201 94.5,-187 94.5,-187 94.5,-181 100.5,-175 106.5,-175 106.5,-175 193.5,-175 193.5,-175 199.5,-175 205.5,-181 205.5,-187 205.5,-187 205.5,-201 205.5,-201 205.5,-207 199.5,-213 193.5,-213"/>
<text text-anchor="middle" x="150" y="-197.8" font-family="Times,serif" font-size="14.00" fill="#222222">X</text>
<text text-anchor="middle" x="150" y="-182.8" font-family="Times,serif" font-size="14.00" fill="#222222">FLOAT(1,5,7)</text>
</g>
<!-- Expand_5 -->
<g id="node6" class="node">
<title>Expand_5</title>
<path fill="#cccccc" stroke="#888888" d="M261.5,-151C261.5,-151 186.5,-151 186.5,-151 180.5,-151 174.5,-145 174.5,-139 174.5,-139 174.5,-127 174.5,-127 174.5,-121 180.5,-115 186.5,-115 186.5,-115 261.5,-115 261.5,-115 267.5,-115 273.5,-121 273.5,-127 273.5,-127 273.5,-139 273.5,-139 273.5,-145 267.5,-151 261.5,-151"/>
<text text-anchor="middle" x="224" y="-129.3" font-family="Times,serif" font-size="14.00" fill="#222222">Expand(., .)</text>
</g>
<!-- I_1&#45;&gt;Expand_5 -->
<g id="edge1" class="edge">
<title>I_1&#45;&gt;Expand_5</title>
<path fill="none" stroke="black" d="M172.6,-174.98C179.45,-169.52 187.07,-163.44 194.3,-157.68"/>
<polygon fill="black" stroke="black" points="202.55,-151.1 197.53,-160.86 198.64,-154.22 194.73,-157.34 194.73,-157.34 194.73,-157.34 198.64,-154.22 191.92,-153.82 202.55,-151.1 202.55,-151.1"/>
<text text-anchor="middle" x="216.5" y="-161.4" font-family="Times,serif" font-size="7.00">FLOAT(1,5,7)</text>
</g>
<!-- I_2 -->
<g id="node3" class="node">
<title>I_2</title>
<path fill="#aaeeaa" stroke="#888888" d="M461,-213C461,-213 405,-213 405,-213 399,-213 393,-207 393,-201 393,-201 393,-187 393,-187 393,-181 399,-175 405,-175 405,-175 461,-175 461,-175 467,-175 473,-181 473,-187 473,-187 473,-201 473,-201 473,-207 467,-213 461,-213"/>
<text text-anchor="middle" x="433" y="-197.8" font-family="Times,serif" font-size="14.00" fill="#222222">shape</text>
<text text-anchor="middle" x="433" y="-182.8" font-family="Times,serif" font-size="14.00" fill="#222222">INT64(3)</text>
</g>
<!-- Constant_3 -->
<g id="node4" class="node">
<title>Constant_3</title>
<path fill="#cccccc" stroke="#888888" d="M366.5,-212C366.5,-212 231.5,-212 231.5,-212 225.5,-212 219.5,-206 219.5,-200 219.5,-200 219.5,-188 219.5,-188 219.5,-182 225.5,-176 231.5,-176 231.5,-176 366.5,-176 366.5,-176 372.5,-176 378.5,-182 378.5,-188 378.5,-188 378.5,-200 378.5,-200 378.5,-206 372.5,-212 366.5,-212"/>
<text text-anchor="middle" x="299" y="-190.3" font-family="Times,serif" font-size="14.00" fill="#222222">Constant() &#45;&gt; shape</text>
</g>
<!-- Constant_3&#45;&gt;Expand_5 -->
<g id="edge2" class="edge">
<title>Constant_3&#45;&gt;Expand_5</title>
<path fill="none" stroke="black" d="M277.31,-175.93C269.92,-170.13 261.54,-163.53 253.64,-157.31"/>
<polygon fill="black" stroke="black" points="245.64,-151.03 256.29,-153.67 249.57,-154.12 253.5,-157.21 253.5,-157.21 253.5,-157.21 249.57,-154.12 250.72,-160.75 245.64,-151.03 245.64,-151.03"/>
<text text-anchor="middle" x="280" y="-161.4" font-family="Times,serif" font-size="7.00">INT64(3)</text>
</g>
<!-- Constant_4 -->
<g id="node5" class="node">
<title>Constant_4</title>
<path fill="#cccccc" stroke="#888888" d="M402,-151C402,-151 300,-151 300,-151 294,-151 288,-145 288,-139 288,-139 288,-127 288,-127 288,-121 294,-115 300,-115 300,-115 402,-115 402,-115 408,-115 414,-121 414,-127 414,-127 414,-139 414,-139 414,-145 408,-151 402,-151"/>
<text text-anchor="middle" x="351" y="-129.3" font-family="Times,serif" font-size="14.00" fill="#222222">Constant() &#45;&gt; p</text>
</g>
<!-- Pow_6 -->
<g id="node7" class="node">
<title>Pow_6</title>
<path fill="#cccccc" stroke="#888888" d="M313,-91C313,-91 263,-91 263,-91 257,-91 251,-85 251,-79 251,-79 251,-67 251,-67 251,-61 257,-55 263,-55 263,-55 313,-55 313,-55 319,-55 325,-61 325,-67 325,-67 325,-79 325,-79 325,-85 319,-91 313,-91"/>
<text text-anchor="middle" x="288" y="-69.3" font-family="Times,serif" font-size="14.00" fill="#222222">Pow(., .)</text>
</g>
<!-- Constant_4&#45;&gt;Pow_6 -->
<g id="edge4" class="edge">
<title>Constant_4&#45;&gt;Pow_6</title>
<path fill="none" stroke="black" d="M332.44,-114.91C326.72,-109.65 320.32,-103.75 314.19,-98.11"/>
<polygon fill="black" stroke="black" points="306.65,-91.17 317.05,-94.63 310.32,-94.55 314,-97.94 314,-97.94 314,-97.94 310.32,-94.55 310.96,-101.25 306.65,-91.17 306.65,-91.17"/>
<text text-anchor="middle" x="340" y="-101.4" font-family="Times,serif" font-size="7.00">INT64(1)</text>
</g>
<!-- Expand_5&#45;&gt;Pow_6 -->
<g id="edge3" class="edge">
<title>Expand_5&#45;&gt;Pow_6</title>
<path fill="none" stroke="black" d="M242.86,-114.91C248.66,-109.65 255.17,-103.75 261.4,-98.11"/>
<polygon fill="black" stroke="black" points="269.06,-91.17 264.67,-101.22 265.35,-94.52 261.65,-97.88 261.65,-97.88 261.65,-97.88 265.35,-94.52 258.63,-94.55 269.06,-91.17 269.06,-91.17"/>
<text text-anchor="middle" x="283.5" y="-101.4" font-family="Times,serif" font-size="7.00">FLOAT(3,5,7)</text>
</g>
<!-- O_7 -->
<g id="node8" class="node">
<title>O_7</title>
<path fill="#aaaaee" stroke="#888888" d="M331.5,-38C331.5,-38 244.5,-38 244.5,-38 238.5,-38 232.5,-32 232.5,-26 232.5,-26 232.5,-12 232.5,-12 232.5,-6 238.5,0 244.5,0 244.5,0 331.5,0 331.5,0 337.5,0 343.5,-6 343.5,-12 343.5,-12 343.5,-26 343.5,-26 343.5,-32 337.5,-38 331.5,-38"/>
<text text-anchor="middle" x="288" y="-22.8" font-family="Times,serif" font-size="14.00" fill="#222222">Z</text>
<text text-anchor="middle" x="288" y="-7.8" font-family="Times,serif" font-size="14.00" fill="#222222">FLOAT(3,5,7)</text>
</g>
<!-- Pow_6&#45;&gt;O_7 -->
<g id="edge5" class="edge">
<title>Pow_6&#45;&gt;O_7</title>
<path fill="none" stroke="black" d="M288,-54.97C288,-52.89 288,-50.72 288,-48.53"/>
<polygon fill="black" stroke="black" points="288,-38.32 292.5,-48.32 288,-43.32 288,-48.32 288,-48.32 288,-48.32 288,-43.32 283.5,-48.32 288,-38.32 288,-38.32"/>
</g>
</g>
</svg>
