<?xml version="1.0" encoding="UTF-8" standalone="no"?>
<!DOCTYPE svg PUBLIC "-//W3C//DTD SVG 1.1//EN"
 "http://www.w3.org/Graphics/SVG/1.1/DTD/svg11.dtd">
<!-- Generated by graphviz version 2.43.0 (0)
 -->
<!-- Title: %3 Pages: 1 -->
<svg width="161pt" height="221pt"
 viewBox="0.00 0.00 161.00 221.00" xmlns="http://www.w3.org/2000/svg" xmlns:xlink="http://www.w3.org/1999/xlink">
<g id="graph0" class="graph" transform="scale(1 1) rotate(0) translate(4 217)">
<title>%3</title>
<!-- I_0 -->
<g id="node1" class="node">
<title>I_0</title>
<path fill="#aaeeaa" stroke="#888888" d="M112.5,-213C112.5,-213 40.5,-213 40.5,-213 34.5,-213 28.5,-207 28.5,-201 28.5,-201 28.5,-187 28.5,-187 28.5,-181 34.5,-175 40.5,-175 40.5,-175 112.5,-175 112.5,-175 118.5,-175 124.5,-181 124.5,-187 124.5,-187 124.5,-201 124.5,-201 124.5,-207 118.5,-213 112.5,-213"/>
<text text-anchor="middle" x="76.5" y="-197.8" font-family="Times,serif" font-size="14.00" fill="#222222">X</text>
<text text-anchor="middle" x="76.5" y="-182.8" font-family="Times,serif" font-size="14.00" fill="#222222">FLOAT(b,c)</text>
</g>
<!-- Concat_1 -->
<g id="node2" class="node">
<title>Concat_1</title>
<path fill="#cccccc" stroke="#888888" d="M141,-151C141,-151 12,-151 12,-151 6,-151 0,-145 0,-139 0,-139 0,-127 0,-127 0,-121 6,-115 12,-115 12,-115 141,-115 141,-115 147,-115 153,-121 153,-127 153,-127 153,-139 153,-139 153,-145 147,-151 141,-151"/>
<text text-anchor="middle" x="76.5" y="-129.3" font-family="Times,serif" font-size="14.00" fill="#222222">Concat(., ., axis=0)</text>
</g>
<!-- I_0&#45;&gt;Concat_1 -->
<g id="edge1" class="edge">
<title>I_0&#45;&gt;Concat_1</title>
<path fill="none" stroke="black" d="M76.5,-174.98C76.5,-170.71 76.5,-166.06 76.5,-161.47"/>
<polygon fill="black" stroke="black" points="76.5,-151.1 81,-161.1 76.5,-156.1 76.5,-161.1 76.5,-161.1 76.5,-161.1 76.5,-156.1 72,-161.1 76.5,-151.1 76.5,-151.1"/>
<text text-anchor="middle" x="97" y="-161.4" font-family="Times,serif" font-size="7.00">FLOAT(b,c)</text>
</g>
<!-- Sin_2 -->
<g id="node3" class="node">
<title>Sin_2</title>
<path fill="#cccccc" stroke="#888888" d="M92,-91C92,-91 61,-91 61,-91 55,-91 49,-85 49,-79 49,-79 49,-67 49,-67 49,-61 55,-55 61,-55 61,-55 92,-55 92,-55 98,-55 104,-61 104,-67 104,-67 104,-79 104,-79 104,-85 98,-91 92,-91"/>
<text text-anchor="middle" x="76.5" y="-69.3" font-family="Times,serif" font-size="14.00" fill="#222222">Sin(.)</text>
</g>
<!-- Concat_1&#45;&gt;Sin_2 -->
<g id="edge2" class="edge">
<title>Concat_1&#45;&gt;Sin_2</title>
<path fill="none" stroke="black" d="M76.5,-114.91C76.5,-110.7 76.5,-106.09 76.5,-101.52"/>
<polygon fill="black" stroke="black" points="76.5,-91.17 81,-101.17 76.5,-96.17 76.5,-101.17 76.5,-101.17 76.5,-101.17 76.5,-96.17 72,-101.17 76.5,-91.17 76.5,-91.17"/>
<text text-anchor="middle" x="101" y="-101.4" font-family="Times,serif" font-size="7.00">FLOAT(2*b,c)</text>
</g>
<!-- O_3 -->
<g id="node4" class="node">
<title>O_3</title>
<path fill="#aaaaee" stroke="#888888" d="M120.5,-38C120.5,-38 32.5,-38 32.5,-38 26.5,-38 20.5,-32 20.5,-26 20.5,-26 20.5,-12 20.5,-12 20.5,-6 26.5,0 32.5,0 32.5,0 120.5,0 120.5,0 126.5,0 132.5,-6 132.5,-12 132.5,-12 132.5,-26 132.5,-26 132.5,-32 126.5,-38 120.5,-38"/>
<text text-anchor="middle" x="76.5" y="-22.8" font-family="Times,serif" font-size="14.00" fill="#222222">xsin</text>
<text text-anchor="middle" x="76.5" y="-7.8" font-family="Times,serif" font-size="14.00" fill="#222222">FLOAT(2*b,c)</text>
</g>
<!-- Sin_2&#45;&gt;O_3 -->
<g id="edge3" class="edge">
<title>Sin_2&#45;&gt;O_3</title>
<path fill="none" stroke="black" d="M76.5,-54.97C76.5,-52.89 76.5,-50.72 76.5,-48.53"/>
<polygon fill="black" stroke="black" points="76.5,-38.32 81,-48.32 76.5,-43.32 76.5,-48.32 76.5,-48.32 76.5,-48.32 76.5,-43.32 72,-48.32 76.5,-38.32 76.5,-38.32"/>
</g>
</g>
</svg>
