<?xml version="1.0" encoding="UTF-8" standalone="no"?>
<!DOCTYPE svg PUBLIC "-//W3C//DTD SVG 1.1//EN"
 "http://www.w3.org/Graphics/SVG/1.1/DTD/svg11.dtd">
<!-- Generated by graphviz version 2.43.0 (0)
 -->
<!-- Title: %3 Pages: 1 -->
<svg width="243pt" height="161pt"
 viewBox="0.00 0.00 243.00 161.00" xmlns="http://www.w3.org/2000/svg" xmlns:xlink="http://www.w3.org/1999/xlink">
<g id="graph0" class="graph" transform="scale(1 1) rotate(0) translate(4 157)">
<title>%3</title>
<!-- I_0 -->
<g id="node1" class="node">
<title>I_0</title>
<path fill="#aaeeaa" stroke="#888888" d="M89,-153C89,-153 32,-153 32,-153 26,-153 20,-147 20,-141 20,-141 20,-127 20,-127 20,-121 26,-115 32,-115 32,-115 89,-115 89,-115 95,-115 101,-121 101,-127 101,-127 101,-141 101,-141 101,-147 95,-153 89,-153"/>
<text text-anchor="middle" x="60.5" y="-137.8" font-family="Times,serif" font-size="14.00" fill="#222222">I</text>
<text text-anchor="middle" x="60.5" y="-122.8" font-family="Times,serif" font-size="14.00" fill="#222222">INT64(A)</text>
</g>
<!-- SoftmaxCrossEntropyLoss_2 -->
<g id="node3" class="node">
<title>SoftmaxCrossEntropyLoss_2</title>
<path fill="#cccccc" stroke="#888888" d="M223,-91C223,-91 12,-91 12,-91 6,-91 0,-85 0,-79 0,-79 0,-67 0,-67 0,-61 6,-55 12,-55 12,-55 223,-55 223,-55 229,-55 235,-61 235,-67 235,-67 235,-79 235,-79 235,-85 229,-91 223,-91"/>
<text text-anchor="middle" x="117.5" y="-69.3" font-family="Times,serif" font-size="14.00" fill="#222222">SoftmaxCrossEntropyLoss(., .)</text>
</g>
<!-- I_0&#45;&gt;SoftmaxCrossEntropyLoss_2 -->
<g id="edge2" class="edge">
<title>I_0&#45;&gt;SoftmaxCrossEntropyLoss_2</title>
<path fill="none" stroke="black" d="M77.91,-114.98C82.95,-109.76 88.54,-103.97 93.9,-98.43"/>
<polygon fill="black" stroke="black" points="100.97,-91.1 97.26,-101.42 97.5,-94.7 94.03,-98.3 94.03,-98.3 94.03,-98.3 97.5,-94.7 90.79,-95.17 100.97,-91.1 100.97,-91.1"/>
<text text-anchor="middle" x="109.5" y="-101.4" font-family="Times,serif" font-size="7.00">INT64(A)</text>
</g>
<!-- I_1 -->
<g id="node2" class="node">
<title>I_1</title>
<path fill="#aaeeaa" stroke="#888888" d="M221.5,-153C221.5,-153 127.5,-153 127.5,-153 121.5,-153 115.5,-147 115.5,-141 115.5,-141 115.5,-127 115.5,-127 115.5,-121 121.5,-115 127.5,-115 127.5,-115 221.5,-115 221.5,-115 227.5,-115 233.5,-121 233.5,-127 233.5,-127 233.5,-141 233.5,-141 233.5,-147 227.5,-153 221.5,-153"/>
<text text-anchor="middle" x="174.5" y="-137.8" font-family="Times,serif" font-size="14.00" fill="#222222">X</text>
<text text-anchor="middle" x="174.5" y="-122.8" font-family="Times,serif" font-size="14.00" fill="#222222">FLOAT16(A,B)</text>
</g>
<!-- I_1&#45;&gt;SoftmaxCrossEntropyLoss_2 -->
<g id="edge1" class="edge">
<title>I_1&#45;&gt;SoftmaxCrossEntropyLoss_2</title>
<path fill="none" stroke="black" d="M157.09,-114.98C152.05,-109.76 146.46,-103.97 141.1,-98.43"/>
<polygon fill="black" stroke="black" points="134.03,-91.1 144.21,-95.17 137.5,-94.7 140.97,-98.3 140.97,-98.3 140.97,-98.3 137.5,-94.7 137.74,-101.42 134.03,-91.1 134.03,-91.1"/>
<text text-anchor="middle" x="173.5" y="-101.4" font-family="Times,serif" font-size="7.00">FLOAT16(A,B)</text>
</g>
<!-- O_3 -->
<g id="node4" class="node">
<title>O_3</title>
<path fill="#aaaaee" stroke="#888888" d="M152,-38C152,-38 83,-38 83,-38 77,-38 71,-32 71,-26 71,-26 71,-12 71,-12 71,-6 77,0 83,0 83,0 152,0 152,0 158,0 164,-6 164,-12 164,-12 164,-26 164,-26 164,-32 158,-38 152,-38"/>
<text text-anchor="middle" x="117.5" y="-22.8" font-family="Times,serif" font-size="14.00" fill="#222222">Y</text>
<text text-anchor="middle" x="117.5" y="-7.8" font-family="Times,serif" font-size="14.00" fill="#222222">FLOAT16()</text>
</g>
<!-- SoftmaxCrossEntropyLoss_2&#45;&gt;O_3 -->
<g id="edge3" class="edge">
<title>SoftmaxCrossEntropyLoss_2&#45;&gt;O_3</title>
<path fill="none" stroke="black" d="M117.5,-54.97C117.5,-52.89 117.5,-50.72 117.5,-48.53"/>
<polygon fill="black" stroke="black" points="117.5,-38.32 122,-48.32 117.5,-43.32 117.5,-48.32 117.5,-48.32 117.5,-48.32 117.5,-43.32 113,-48.32 117.5,-38.32 117.5,-38.32"/>
</g>
</g>
</svg>
