<?xml version="1.0" encoding="UTF-8" standalone="no"?>
<!DOCTYPE svg PUBLIC "-//W3C//DTD SVG 1.1//EN"
 "http://www.w3.org/Graphics/SVG/1.1/DTD/svg11.dtd">
<!-- Generated by graphviz version 2.43.0 (0)
 -->
<!-- Title: %3 Pages: 1 -->
<svg width="352pt" height="221pt"
 viewBox="0.00 0.00 352.00 221.00" xmlns="http://www.w3.org/2000/svg" xmlns:xlink="http://www.w3.org/1999/xlink">
<g id="graph0" class="graph" transform="scale(1 1) rotate(0) translate(4 217)">
<title>%3</title>
<!-- I_0 -->
<g id="node1" class="node">
<title>I_0</title>
<path fill="#aaeeaa" stroke="#888888" d="M119,-213C119,-213 46,-213 46,-213 40,-213 34,-207 34,-201 34,-201 34,-187 34,-187 34,-181 40,-175 46,-175 46,-175 119,-175 119,-175 125,-175 131,-181 131,-187 131,-187 131,-201 131,-201 131,-207 125,-213 119,-213"/>
<text text-anchor="middle" x="82.5" y="-197.8" font-family="Times,serif" font-size="14.00" fill="#222222">Y</text>
<text text-anchor="middle" x="82.5" y="-182.8" font-family="Times,serif" font-size="14.00" fill="#222222">FLOAT(a,4)</text>
</g>
<!-- Cast_3 -->
<g id="node4" class="node">
<title>Cast_3</title>
<path fill="#cccccc" stroke="#888888" d="M153,-151C153,-151 12,-151 12,-151 6,-151 0,-145 0,-139 0,-139 0,-127 0,-127 0,-121 6,-115 12,-115 12,-115 153,-115 153,-115 159,-115 165,-121 165,-127 165,-127 165,-139 165,-139 165,-145 159,-151 153,-151"/>
<text text-anchor="middle" x="82.5" y="-129.3" font-family="Times,serif" font-size="14.00" fill="#222222">Cast(., to=FLOAT16)</text>
</g>
<!-- I_0&#45;&gt;Cast_3 -->
<g id="edge2" class="edge">
<title>I_0&#45;&gt;Cast_3</title>
<path fill="none" stroke="black" d="M82.5,-174.98C82.5,-170.71 82.5,-166.06 82.5,-161.47"/>
<polygon fill="black" stroke="black" points="82.5,-151.1 87,-161.1 82.5,-156.1 82.5,-161.1 82.5,-161.1 82.5,-161.1 82.5,-156.1 78,-161.1 82.5,-151.1 82.5,-151.1"/>
<text text-anchor="middle" x="103.5" y="-161.4" font-family="Times,serif" font-size="7.00">FLOAT(a,4)</text>
</g>
<!-- I_1 -->
<g id="node2" class="node">
<title>I_1</title>
<path fill="#aaeeaa" stroke="#888888" d="M298,-213C298,-213 225,-213 225,-213 219,-213 213,-207 213,-201 213,-201 213,-187 213,-187 213,-181 219,-175 225,-175 225,-175 298,-175 298,-175 304,-175 310,-181 310,-187 310,-187 310,-201 310,-201 310,-207 304,-213 298,-213"/>
<text text-anchor="middle" x="261.5" y="-197.8" font-family="Times,serif" font-size="14.00" fill="#222222">X</text>
<text text-anchor="middle" x="261.5" y="-182.8" font-family="Times,serif" font-size="14.00" fill="#222222">FLOAT(a,4)</text>
</g>
<!-- Cast_2 -->
<g id="node3" class="node">
<title>Cast_2</title>
<path fill="#cccccc" stroke="#888888" d="M332,-151C332,-151 191,-151 191,-151 185,-151 179,-145 179,-139 179,-139 179,-127 179,-127 179,-121 185,-115 191,-115 191,-115 332,-115 332,-115 338,-115 344,-121 344,-127 344,-127 344,-139 344,-139 344,-145 338,-151 332,-151"/>
<text text-anchor="middle" x="261.5" y="-129.3" font-family="Times,serif" font-size="14.00" fill="#222222">Cast(., to=FLOAT16)</text>
</g>
<!-- I_1&#45;&gt;Cast_2 -->
<g id="edge1" class="edge">
<title>I_1&#45;&gt;Cast_2</title>
<path fill="none" stroke="black" d="M261.5,-174.98C261.5,-170.71 261.5,-166.06 261.5,-161.47"/>
<polygon fill="black" stroke="black" points="261.5,-151.1 266,-161.1 261.5,-156.1 261.5,-161.1 261.5,-161.1 261.5,-161.1 261.5,-156.1 257,-161.1 261.5,-151.1 261.5,-151.1"/>
<text text-anchor="middle" x="282.5" y="-161.4" font-family="Times,serif" font-size="7.00">FLOAT(a,4)</text>
</g>
<!-- Add_4 -->
<g id="node5" class="node">
<title>Add_4</title>
<path fill="#cccccc" stroke="#888888" d="M196,-91C196,-91 147,-91 147,-91 141,-91 135,-85 135,-79 135,-79 135,-67 135,-67 135,-61 141,-55 147,-55 147,-55 196,-55 196,-55 202,-55 208,-61 208,-67 208,-67 208,-79 208,-79 208,-85 202,-91 196,-91"/>
<text text-anchor="middle" x="171.5" y="-69.3" font-family="Times,serif" font-size="14.00" fill="#222222">Add(., .)</text>
</g>
<!-- Cast_2&#45;&gt;Add_4 -->
<g id="edge3" class="edge">
<title>Cast_2&#45;&gt;Add_4</title>
<path fill="none" stroke="black" d="M234.98,-114.91C226.09,-109.18 216.03,-102.7 206.59,-96.61"/>
<polygon fill="black" stroke="black" points="198.14,-91.17 208.98,-92.8 202.34,-93.88 206.54,-96.58 206.54,-96.58 206.54,-96.58 202.34,-93.88 204.11,-100.37 198.14,-91.17 198.14,-91.17"/>
<text text-anchor="middle" x="248" y="-101.4" font-family="Times,serif" font-size="7.00">FLOAT16(a,4)</text>
</g>
<!-- Cast_3&#45;&gt;Add_4 -->
<g id="edge4" class="edge">
<title>Cast_3&#45;&gt;Add_4</title>
<path fill="none" stroke="black" d="M108.72,-114.91C117.43,-109.24 127.26,-102.83 136.52,-96.8"/>
<polygon fill="black" stroke="black" points="145.16,-91.17 139.24,-100.4 140.97,-93.9 136.78,-96.63 136.78,-96.63 136.78,-96.63 140.97,-93.9 134.32,-92.86 145.16,-91.17 145.16,-91.17"/>
<text text-anchor="middle" x="158" y="-101.4" font-family="Times,serif" font-size="7.00">FLOAT16(a,4)</text>
</g>
<!-- O_5 -->
<g id="node6" class="node">
<title>O_5</title>
<path fill="#aaaaee" stroke="#888888" d="M217,-38C217,-38 126,-38 126,-38 120,-38 114,-32 114,-26 114,-26 114,-12 114,-12 114,-6 120,0 126,0 126,0 217,0 217,0 223,0 229,-6 229,-12 229,-12 229,-26 229,-26 229,-32 223,-38 217,-38"/>
<text text-anchor="middle" x="171.5" y="-22.8" font-family="Times,serif" font-size="14.00" fill="#222222">Z</text>
<text text-anchor="middle" x="171.5" y="-7.8" font-family="Times,serif" font-size="14.00" fill="#222222">FLOAT16(a,4)</text>
</g>
<!-- Add_4&#45;&gt;O_5 -->
<g id="edge5" class="edge">
<title>Add_4&#45;&gt;O_5</title>
<path fill="none" stroke="black" d="M171.5,-54.97C171.5,-52.89 171.5,-50.72 171.5,-48.53"/>
<polygon fill="black" stroke="black" points="171.5,-38.32 176,-48.32 171.5,-43.32 171.5,-48.32 171.5,-48.32 171.5,-48.32 171.5,-43.32 167,-48.32 171.5,-38.32 171.5,-38.32"/>
</g>
</g>
</svg>
