<?xml version="1.0" encoding="UTF-8" standalone="no"?>
<!DOCTYPE svg PUBLIC "-//W3C//DTD SVG 1.1//EN"
 "http://www.w3.org/Graphics/SVG/1.1/DTD/svg11.dtd">
<!-- Generated by graphviz version 2.43.0 (0)
 -->
<!-- Title: %3 Pages: 1 -->
<svg width="411pt" height="221pt"
 viewBox="0.00 0.00 410.50 221.00" xmlns="http://www.w3.org/2000/svg" xmlns:xlink="http://www.w3.org/1999/xlink">
<g id="graph0" class="graph" transform="scale(1 1) rotate(0) translate(4 217)">
<title>%3</title>
<!-- I_0 -->
<g id="node1" class="node">
<title>I_0</title>
<path fill="#aaeeaa" stroke="#888888" d="M310.5,-213C310.5,-213 16.5,-213 16.5,-213 10.5,-213 4.5,-207 4.5,-201 4.5,-201 4.5,-187 4.5,-187 4.5,-181 10.5,-175 16.5,-175 16.5,-175 310.5,-175 310.5,-175 316.5,-175 322.5,-181 322.5,-187 322.5,-187 322.5,-201 322.5,-201 322.5,-207 316.5,-213 310.5,-213"/>
<text text-anchor="middle" x="163.5" y="-197.8" font-family="Times,serif" font-size="14.00" fill="#222222">X</text>
<text text-anchor="middle" x="163.5" y="-182.8" font-family="Times,serif" font-size="14.00" fill="#222222">FLOAT(UNKNOWNDIM,UNKNOWNDIM1)</text>
</g>
<!-- Sigmoid_1 -->
<g id="node2" class="node">
<title>Sigmoid_1</title>
<path fill="#cccccc" stroke="#888888" d="M113.5,-151C113.5,-151 47.5,-151 47.5,-151 41.5,-151 35.5,-145 35.5,-139 35.5,-139 35.5,-127 35.5,-127 35.5,-121 41.5,-115 47.5,-115 47.5,-115 113.5,-115 113.5,-115 119.5,-115 125.5,-121 125.5,-127 125.5,-127 125.5,-139 125.5,-139 125.5,-145 119.5,-151 113.5,-151"/>
<text text-anchor="middle" x="80.5" y="-129.3" font-family="Times,serif" font-size="14.00" fill="#222222">Sigmoid(.)</text>
</g>
<!-- I_0&#45;&gt;Sigmoid_1 -->
<g id="edge1" class="edge">
<title>I_0&#45;&gt;Sigmoid_1</title>
<path fill="none" stroke="black" d="M90.2,-174.82C87.36,-172.51 84.76,-169.92 82.5,-167 81.15,-165.26 80.16,-163.31 79.45,-161.24"/>
<polygon fill="black" stroke="black" points="77.9,-151.12 83.87,-160.32 78.66,-156.06 79.42,-161 79.42,-161 79.42,-161 78.66,-156.06 74.97,-161.68 77.9,-151.12 77.9,-151.12"/>
<text text-anchor="middle" x="159.5" y="-161.4" font-family="Times,serif" font-size="7.00">FLOAT(UNKNOWNDIM,UNKNOWNDIM1)</text>
</g>
<!-- Mul_2 -->
<g id="node3" class="node">
<title>Mul_2</title>
<path fill="#cccccc" stroke="#888888" d="M188,-91C188,-91 139,-91 139,-91 133,-91 127,-85 127,-79 127,-79 127,-67 127,-67 127,-61 133,-55 139,-55 139,-55 188,-55 188,-55 194,-55 200,-61 200,-67 200,-67 200,-79 200,-79 200,-85 194,-91 188,-91"/>
<text text-anchor="middle" x="163.5" y="-69.3" font-family="Times,serif" font-size="14.00" fill="#222222">Mul(., .)</text>
</g>
<!-- I_0&#45;&gt;Mul_2 -->
<g id="edge2" class="edge">
<title>I_0&#45;&gt;Mul_2</title>
<path fill="none" stroke="black" d="M228.32,-174.86C231.01,-172.54 233.44,-169.94 235.5,-167 252.87,-142.27 253.02,-123.63 235.5,-99 229.34,-90.34 219.96,-84.65 209.98,-80.92"/>
<polygon fill="black" stroke="black" points="200.32,-77.92 211.2,-76.59 205.09,-79.4 209.86,-80.89 209.86,-80.89 209.86,-80.89 205.09,-79.4 208.53,-85.19 200.32,-77.92 200.32,-77.92"/>
<text text-anchor="middle" x="325.5" y="-131.4" font-family="Times,serif" font-size="7.00">FLOAT(UNKNOWNDIM,UNKNOWNDIM1)</text>
</g>
<!-- Sigmoid_1&#45;&gt;Mul_2 -->
<g id="edge3" class="edge">
<title>Sigmoid_1&#45;&gt;Mul_2</title>
<path fill="none" stroke="black" d="M77.87,-114.86C77.92,-109.3 79.02,-103.42 82.5,-99 90.91,-88.3 103.8,-82.07 116.85,-78.48"/>
<polygon fill="black" stroke="black" points="126.78,-76.21 118.04,-82.82 121.91,-77.32 117.04,-78.43 117.04,-78.43 117.04,-78.43 121.91,-77.32 116.03,-74.05 126.78,-76.21 126.78,-76.21"/>
<text text-anchor="middle" x="159.5" y="-101.4" font-family="Times,serif" font-size="7.00">FLOAT(UNKNOWNDIM,UNKNOWNDIM1)</text>
</g>
<!-- O_3 -->
<g id="node4" class="node">
<title>O_3</title>
<path fill="#aaaaee" stroke="#888888" d="M315,-38C315,-38 12,-38 12,-38 6,-38 0,-32 0,-26 0,-26 0,-12 0,-12 0,-6 6,0 12,0 12,0 315,0 315,0 321,0 327,-6 327,-12 327,-12 327,-26 327,-26 327,-32 321,-38 315,-38"/>
<text text-anchor="middle" x="163.5" y="-22.8" font-family="Times,serif" font-size="14.00" fill="#222222">Y</text>
<text text-anchor="middle" x="163.5" y="-7.8" font-family="Times,serif" font-size="14.00" fill="#222222">FLOAT(UNKNOWNDIM2,UNKNOWNDIM3)</text>
</g>
<!-- Mul_2&#45;&gt;O_3 -->
<g id="edge4" class="edge">
<title>Mul_2&#45;&gt;O_3</title>
<path fill="none" stroke="black" d="M163.5,-54.97C163.5,-52.89 163.5,-50.72 163.5,-48.53"/>
<polygon fill="black" stroke="black" points="163.5,-38.32 168,-48.32 163.5,-43.32 163.5,-48.32 163.5,-48.32 163.5,-48.32 163.5,-43.32 159,-48.32 163.5,-38.32 163.5,-38.32"/>
</g>
</g>
</svg>
