<?xml version="1.0" encoding="UTF-8" standalone="no"?>
<!DOCTYPE svg PUBLIC "-//W3C//DTD SVG 1.1//EN"
 "http://www.w3.org/Graphics/SVG/1.1/DTD/svg11.dtd">
<!-- Generated by graphviz version 2.43.0 (0)
 -->
<!-- Title: %3 Pages: 1 -->
<svg width="553pt" height="362pt"
 viewBox="0.00 0.00 553.00 362.00" xmlns="http://www.w3.org/2000/svg" xmlns:xlink="http://www.w3.org/1999/xlink">
<g id="graph0" class="graph" transform="scale(1 1) rotate(0) translate(4 358)">
<title>%3</title>
<!-- I_0 -->
<g id="node1" class="node">
<title>I_0</title>
<path fill="#aaeeaa" stroke="#888888" d="M247.5,-354C247.5,-354 149.5,-354 149.5,-354 143.5,-354 137.5,-348 137.5,-342 137.5,-342 137.5,-328 137.5,-328 137.5,-322 143.5,-316 149.5,-316 149.5,-316 247.5,-316 247.5,-316 253.5,-316 259.5,-322 259.5,-328 259.5,-328 259.5,-342 259.5,-342 259.5,-348 253.5,-354 247.5,-354"/>
<text text-anchor="middle" x="198.5" y="-338.8" font-family="Times,serif" font-size="14.00" fill="#222222">X</text>
<text text-anchor="middle" x="198.5" y="-323.8" font-family="Times,serif" font-size="14.00" fill="#222222">FLOAT(a,b,c,d)</text>
</g>
<!-- Slice_3 -->
<g id="node4" class="node">
<title>Slice_3</title>
<path fill="#cccccc" stroke="#888888" d="M243.5,-248C243.5,-248 79.5,-248 79.5,-248 73.5,-248 67.5,-242 67.5,-236 67.5,-236 67.5,-224 67.5,-224 67.5,-218 73.5,-212 79.5,-212 79.5,-212 243.5,-212 243.5,-212 249.5,-212 255.5,-218 255.5,-224 255.5,-224 255.5,-236 255.5,-236 255.5,-242 249.5,-248 243.5,-248"/>
<text text-anchor="middle" x="161.5" y="-226.3" font-family="Times,serif" font-size="14.00" fill="#222222">Slice(., [256], [512], [3])</text>
</g>
<!-- I_0&#45;&gt;Slice_3 -->
<g id="edge1" class="edge">
<title>I_0&#45;&gt;Slice_3</title>
<path fill="none" stroke="black" d="M178.45,-315.73C176.55,-313.29 174.83,-310.69 173.5,-308 165.91,-292.69 162.89,-273.73 161.77,-258.46"/>
<polygon fill="black" stroke="black" points="161.26,-248.1 166.25,-257.87 161.51,-253.1 161.76,-258.09 161.76,-258.09 161.76,-258.09 161.51,-253.1 157.26,-258.31 161.26,-248.1 161.26,-248.1"/>
<text text-anchor="middle" x="201" y="-302.4" font-family="Times,serif" font-size="7.00">FLOAT(a,b,c,d)</text>
</g>
<!-- Slice_5 -->
<g id="node6" class="node">
<title>Slice_5</title>
<path fill="#cccccc" stroke="#888888" d="M341.5,-292C341.5,-292 195.5,-292 195.5,-292 189.5,-292 183.5,-286 183.5,-280 183.5,-280 183.5,-268 183.5,-268 183.5,-262 189.5,-256 195.5,-256 195.5,-256 341.5,-256 341.5,-256 347.5,-256 353.5,-262 353.5,-268 353.5,-268 353.5,-280 353.5,-280 353.5,-286 347.5,-292 341.5,-292"/>
<text text-anchor="middle" x="268.5" y="-270.3" font-family="Times,serif" font-size="14.00" fill="#222222">Slice(., [0], [256], [3])</text>
</g>
<!-- I_0&#45;&gt;Slice_5 -->
<g id="edge4" class="edge">
<title>I_0&#45;&gt;Slice_5</title>
<path fill="none" stroke="black" d="M219.88,-315.98C226.36,-310.52 233.57,-304.44 240.41,-298.68"/>
<polygon fill="black" stroke="black" points="248.21,-292.1 243.46,-301.99 244.38,-295.33 240.56,-298.55 240.56,-298.55 240.56,-298.55 244.38,-295.33 237.66,-295.11 248.21,-292.1 248.21,-292.1"/>
<text text-anchor="middle" x="266" y="-302.4" font-family="Times,serif" font-size="7.00">FLOAT(a,b,c,d)</text>
</g>
<!-- ConstantOfShape_1 -->
<g id="node2" class="node">
<title>ConstantOfShape_1</title>
<path fill="#cccccc" stroke="#888888" d="M328,-204C328,-204 81,-204 81,-204 75,-204 69,-198 69,-192 69,-192 69,-180 69,-180 69,-174 75,-168 81,-168 81,-168 328,-168 328,-168 334,-168 340,-174 340,-180 340,-180 340,-192 340,-192 340,-198 334,-204 328,-204"/>
<text text-anchor="middle" x="204.5" y="-182.3" font-family="Times,serif" font-size="14.00" fill="#222222">ConstantOfShape([2, 2, 1024, 256])</text>
</g>
<!-- Concat_4 -->
<g id="node5" class="node">
<title>Concat_4</title>
<path fill="#cccccc" stroke="#888888" d="M141,-144C141,-144 12,-144 12,-144 6,-144 0,-138 0,-132 0,-132 0,-120 0,-120 0,-114 6,-108 12,-108 12,-108 141,-108 141,-108 147,-108 153,-114 153,-120 153,-120 153,-132 153,-132 153,-138 147,-144 141,-144"/>
<text text-anchor="middle" x="76.5" y="-122.3" font-family="Times,serif" font-size="14.00" fill="#222222">Concat(., ., axis=3)</text>
</g>
<!-- ConstantOfShape_1&#45;&gt;Concat_4 -->
<g id="edge2" class="edge">
<title>ConstantOfShape_1&#45;&gt;Concat_4</title>
<path fill="none" stroke="black" d="M159.88,-167.89C153.67,-165.33 147.4,-162.66 141.5,-160 133.71,-156.48 125.5,-152.53 117.64,-148.6"/>
<polygon fill="black" stroke="black" points="108.62,-144.04 119.57,-144.54 113.08,-146.3 117.54,-148.55 117.54,-148.55 117.54,-148.55 113.08,-146.3 115.51,-152.57 108.62,-144.04 108.62,-144.04"/>
<text text-anchor="middle" x="180.5" y="-154.4" font-family="Times,serif" font-size="7.00">FLOAT(2,2,1024,256)</text>
</g>
<!-- Concat_7 -->
<g id="node8" class="node">
<title>Concat_7</title>
<path fill="#cccccc" stroke="#888888" d="M308,-144C308,-144 179,-144 179,-144 173,-144 167,-138 167,-132 167,-132 167,-120 167,-120 167,-114 173,-108 179,-108 179,-108 308,-108 308,-108 314,-108 320,-114 320,-120 320,-120 320,-132 320,-132 320,-138 314,-144 308,-144"/>
<text text-anchor="middle" x="243.5" y="-122.3" font-family="Times,serif" font-size="14.00" fill="#222222">Concat(., ., axis=3)</text>
</g>
<!-- ConstantOfShape_1&#45;&gt;Concat_7 -->
<g id="edge6" class="edge">
<title>ConstantOfShape_1&#45;&gt;Concat_7</title>
<path fill="none" stroke="black" d="M215.99,-167.91C219.21,-163.12 222.79,-157.8 226.27,-152.62"/>
<polygon fill="black" stroke="black" points="231.96,-144.17 230.11,-154.98 229.17,-148.32 226.38,-152.46 226.38,-152.46 226.38,-152.46 229.17,-148.32 222.64,-149.95 231.96,-144.17 231.96,-144.17"/>
<text text-anchor="middle" x="265.5" y="-154.4" font-family="Times,serif" font-size="7.00">FLOAT(2,2,1024,256)</text>
</g>
<!-- ConstantOfShape_2 -->
<g id="node3" class="node">
<title>ConstantOfShape_2</title>
<path fill="#cccccc" stroke="#888888" d="M533,-353C533,-353 286,-353 286,-353 280,-353 274,-347 274,-341 274,-341 274,-329 274,-329 274,-323 280,-317 286,-317 286,-317 533,-317 533,-317 539,-317 545,-323 545,-329 545,-329 545,-341 545,-341 545,-347 539,-353 533,-353"/>
<text text-anchor="middle" x="409.5" y="-331.3" font-family="Times,serif" font-size="14.00" fill="#222222">ConstantOfShape([2, 2, 1024, 256])</text>
</g>
<!-- Slice_3&#45;&gt;Concat_4 -->
<g id="edge3" class="edge">
<title>Slice_3&#45;&gt;Concat_4</title>
<path fill="none" stroke="black" d="M73.15,-211.84C67.86,-209.5 63.76,-206.89 61.5,-204 50.39,-189.78 54.8,-169.65 61.64,-153.54"/>
<polygon fill="black" stroke="black" points="66.1,-144.12 65.89,-155.08 63.96,-148.64 61.82,-153.16 61.82,-153.16 61.82,-153.16 63.96,-148.64 57.75,-151.23 66.1,-144.12 66.1,-144.12"/>
</g>
<!-- Add_8 -->
<g id="node9" class="node">
<title>Add_8</title>
<path fill="#cccccc" stroke="#888888" d="M184,-91C184,-91 135,-91 135,-91 129,-91 123,-85 123,-79 123,-79 123,-67 123,-67 123,-61 129,-55 135,-55 135,-55 184,-55 184,-55 190,-55 196,-61 196,-67 196,-67 196,-79 196,-79 196,-85 190,-91 184,-91"/>
<text text-anchor="middle" x="159.5" y="-69.3" font-family="Times,serif" font-size="14.00" fill="#222222">Add(., .)</text>
</g>
<!-- Concat_4&#45;&gt;Add_8 -->
<g id="edge8" class="edge">
<title>Concat_4&#45;&gt;Add_8</title>
<path fill="none" stroke="black" d="M104.6,-107.73C110.48,-104.12 116.76,-100.26 122.89,-96.5"/>
<polygon fill="black" stroke="black" points="131.71,-91.08 125.55,-100.14 127.45,-93.69 123.19,-96.31 123.19,-96.31 123.19,-96.31 127.45,-93.69 120.83,-92.48 131.71,-91.08 131.71,-91.08"/>
</g>
<!-- Neg_6 -->
<g id="node7" class="node">
<title>Neg_6</title>
<path fill="#cccccc" stroke="#888888" d="M403,-204C403,-204 366,-204 366,-204 360,-204 354,-198 354,-192 354,-192 354,-180 354,-180 354,-174 360,-168 366,-168 366,-168 403,-168 403,-168 409,-168 415,-174 415,-180 415,-180 415,-192 415,-192 415,-198 409,-204 403,-204"/>
<text text-anchor="middle" x="384.5" y="-182.3" font-family="Times,serif" font-size="14.00" fill="#222222">Neg(.)</text>
</g>
<!-- Slice_5&#45;&gt;Neg_6 -->
<g id="edge5" class="edge">
<title>Slice_5&#45;&gt;Neg_6</title>
<path fill="none" stroke="black" d="M291.7,-255.8C309.32,-242.74 333.75,-224.63 353.12,-210.27"/>
<polygon fill="black" stroke="black" points="361.34,-204.17 355.99,-213.74 357.33,-207.14 353.31,-210.12 353.31,-210.12 353.31,-210.12 357.33,-207.14 350.63,-206.51 361.34,-204.17 361.34,-204.17"/>
</g>
<!-- Neg_6&#45;&gt;Concat_7 -->
<g id="edge7" class="edge">
<title>Neg_6&#45;&gt;Concat_7</title>
<path fill="none" stroke="black" d="M353.86,-170.78C351.72,-169.83 349.58,-168.89 347.5,-168 331.62,-161.18 314.21,-154.15 298.25,-147.87"/>
<polygon fill="black" stroke="black" points="288.53,-144.07 299.49,-143.52 293.19,-145.89 297.85,-147.71 297.85,-147.71 297.85,-147.71 293.19,-145.89 296.21,-151.9 288.53,-144.07 288.53,-144.07"/>
</g>
<!-- Concat_7&#45;&gt;Add_8 -->
<g id="edge9" class="edge">
<title>Concat_7&#45;&gt;Add_8</title>
<path fill="none" stroke="black" d="M215.06,-107.73C209.11,-104.12 202.76,-100.26 196.55,-96.5"/>
<polygon fill="black" stroke="black" points="187.62,-91.08 198.51,-92.42 191.9,-93.67 196.17,-96.27 196.17,-96.27 196.17,-96.27 191.9,-93.67 193.84,-100.11 187.62,-91.08 187.62,-91.08"/>
</g>
<!-- O_9 -->
<g id="node10" class="node">
<title>O_9</title>
<path fill="#aaaaee" stroke="#888888" d="M208.5,-38C208.5,-38 110.5,-38 110.5,-38 104.5,-38 98.5,-32 98.5,-26 98.5,-26 98.5,-12 98.5,-12 98.5,-6 104.5,0 110.5,0 110.5,0 208.5,0 208.5,0 214.5,0 220.5,-6 220.5,-12 220.5,-12 220.5,-26 220.5,-26 220.5,-32 214.5,-38 208.5,-38"/>
<text text-anchor="middle" x="159.5" y="-22.8" font-family="Times,serif" font-size="14.00" fill="#222222">Y</text>
<text text-anchor="middle" x="159.5" y="-7.8" font-family="Times,serif" font-size="14.00" fill="#222222">FLOAT(a,b,c,d)</text>
</g>
<!-- Add_8&#45;&gt;O_9 -->
<g id="edge10" class="edge">
<title>Add_8&#45;&gt;O_9</title>
<path fill="none" stroke="black" d="M159.5,-54.97C159.5,-52.89 159.5,-50.72 159.5,-48.53"/>
<polygon fill="black" stroke="black" points="159.5,-38.32 164,-48.32 159.5,-43.32 159.5,-48.32 159.5,-48.32 159.5,-48.32 159.5,-43.32 155,-48.32 159.5,-38.32 159.5,-38.32"/>
</g>
</g>
</svg>
