<?xml version="1.0" encoding="UTF-8" standalone="no"?>
<!DOCTYPE svg PUBLIC "-//W3C//DTD SVG 1.1//EN"
 "http://www.w3.org/Graphics/SVG/1.1/DTD/svg11.dtd">
<!-- Generated by graphviz version 2.43.0 (0)
 -->
<!-- Title: %3 Pages: 1 -->
<svg width="105pt" height="161pt"
 viewBox="0.00 0.00 105.00 161.00" xmlns="http://www.w3.org/2000/svg" xmlns:xlink="http://www.w3.org/1999/xlink">
<g id="graph0" class="graph" transform="scale(1 1) rotate(0) translate(4 157)">
<title>%3</title>
<!-- I_0 -->
<g id="node1" class="node">
<title>I_0</title>
<path fill="#aaeeaa" stroke="#888888" d="M85,-153C85,-153 12,-153 12,-153 6,-153 0,-147 0,-141 0,-141 0,-127 0,-127 0,-121 6,-115 12,-115 12,-115 85,-115 85,-115 91,-115 97,-121 97,-127 97,-127 97,-141 97,-141 97,-147 91,-153 85,-153"/>
<text text-anchor="middle" x="48.5" y="-137.8" font-family="Times,serif" font-size="14.00" fill="#222222">X</text>
<text text-anchor="middle" x="48.5" y="-122.8" font-family="Times,serif" font-size="14.00" fill="#222222">FLOAT(a,b)</text>
</g>
<!-- Identity_1 -->
<g id="node2" class="node">
<title>Identity_1</title>
<path fill="#cccccc" stroke="#888888" d="M80.5,-91C80.5,-91 16.5,-91 16.5,-91 10.5,-91 4.5,-85 4.5,-79 4.5,-79 4.5,-67 4.5,-67 4.5,-61 10.5,-55 16.5,-55 16.5,-55 80.5,-55 80.5,-55 86.5,-55 92.5,-61 92.5,-67 92.5,-67 92.5,-79 92.5,-79 92.5,-85 86.5,-91 80.5,-91"/>
<text text-anchor="middle" x="48.5" y="-69.3" font-family="Times,serif" font-size="14.00" fill="#222222">Identity(.)</text>
</g>
<!-- I_0&#45;&gt;Identity_1 -->
<g id="edge1" class="edge">
<title>I_0&#45;&gt;Identity_1</title>
<path fill="none" stroke="black" d="M48.5,-114.98C48.5,-110.71 48.5,-106.06 48.5,-101.47"/>
<polygon fill="black" stroke="black" points="48.5,-91.1 53,-101.1 48.5,-96.1 48.5,-101.1 48.5,-101.1 48.5,-101.1 48.5,-96.1 44,-101.1 48.5,-91.1 48.5,-91.1"/>
<text text-anchor="middle" x="69.5" y="-101.4" font-family="Times,serif" font-size="7.00">FLOAT(a,b)</text>
</g>
<!-- O_2 -->
<g id="node3" class="node">
<title>O_2</title>
<path fill="#aaaaee" stroke="#888888" d="M85,-38C85,-38 12,-38 12,-38 6,-38 0,-32 0,-26 0,-26 0,-12 0,-12 0,-6 6,0 12,0 12,0 85,0 85,0 91,0 97,-6 97,-12 97,-12 97,-26 97,-26 97,-32 91,-38 85,-38"/>
<text text-anchor="middle" x="48.5" y="-22.8" font-family="Times,serif" font-size="14.00" fill="#222222">Y</text>
<text text-anchor="middle" x="48.5" y="-7.8" font-family="Times,serif" font-size="14.00" fill="#222222">FLOAT(a,b)</text>
</g>
<!-- Identity_1&#45;&gt;O_2 -->
<g id="edge2" class="edge">
<title>Identity_1&#45;&gt;O_2</title>
<path fill="none" stroke="black" d="M48.5,-54.97C48.5,-52.89 48.5,-50.72 48.5,-48.53"/>
<polygon fill="black" stroke="black" points="48.5,-38.32 53,-48.32 48.5,-43.32 48.5,-48.32 48.5,-48.32 48.5,-48.32 48.5,-43.32 44,-48.32 48.5,-38.32 48.5,-38.32"/>
</g>
</g>
</svg>
