<?xml version="1.0" encoding="UTF-8" standalone="no"?>
<!DOCTYPE svg PUBLIC "-//W3C//DTD SVG 1.1//EN"
 "http://www.w3.org/Graphics/SVG/1.1/DTD/svg11.dtd">
<!-- Generated by graphviz version 2.43.0 (0)
 -->
<!-- Title: %3 Pages: 1 -->
<svg width="1344pt" height="604pt"
 viewBox="0.00 0.00 1343.50 604.00" xmlns="http://www.w3.org/2000/svg" xmlns:xlink="http://www.w3.org/1999/xlink">
<g id="graph0" class="graph" transform="scale(1 1) rotate(0) translate(4 600)">
<title>%3</title>
<!-- I_0 -->
<g id="node1" class="node">
<title>I_0</title>
<path fill="#aaeeaa" stroke="#888888" d="M520.5,-393C520.5,-393 311.5,-393 311.5,-393 305.5,-393 299.5,-387 299.5,-381 299.5,-381 299.5,-367 299.5,-367 299.5,-361 305.5,-355 311.5,-355 311.5,-355 520.5,-355 520.5,-355 526.5,-355 532.5,-361 532.5,-367 532.5,-367 532.5,-381 532.5,-381 532.5,-387 526.5,-393 520.5,-393"/>
<text text-anchor="middle" x="416" y="-377.8" font-family="Times,serif" font-size="14.00" fill="#222222">query</text>
<text text-anchor="middle" x="416" y="-362.8" font-family="Times,serif" font-size="14.00" fill="#222222">FLOAT(batch,8,seq_length,32)</text>
</g>
<!-- Shape_7 -->
<g id="node8" class="node">
<title>Shape_7</title>
<path fill="#d2a81f" stroke="#888888" d="M626.5,-331C626.5,-331 453.5,-331 453.5,-331 447.5,-331 441.5,-325 441.5,-319 441.5,-319 441.5,-307 441.5,-307 441.5,-301 447.5,-295 453.5,-295 453.5,-295 626.5,-295 626.5,-295 632.5,-295 638.5,-301 638.5,-307 638.5,-307 638.5,-319 638.5,-319 638.5,-325 632.5,-331 626.5,-331"/>
<text text-anchor="middle" x="540" y="-309.3" font-family="Times,serif" font-size="14.00" fill="#222222">Shape(., end=1, start=0)</text>
</g>
<!-- I_0&#45;&gt;Shape_7 -->
<g id="edge2" class="edge">
<title>I_0&#45;&gt;Shape_7</title>
<path fill="none" stroke="black" d="M453.88,-354.98C466.84,-348.81 481.47,-341.85 494.94,-335.44"/>
<polygon fill="black" stroke="black" points="504.05,-331.1 496.95,-339.46 499.54,-333.25 495.02,-335.4 495.02,-335.4 495.02,-335.4 499.54,-333.25 493.09,-331.34 504.05,-331.1 504.05,-331.1"/>
<text text-anchor="middle" x="541.5" y="-341.4" font-family="Times,serif" font-size="7.00">FLOAT(batch,8,seq_length,32)</text>
</g>
<!-- Transpose_13 -->
<g id="node14" class="node">
<title>Transpose_13</title>
<path fill="#ee99ee" stroke="#888888" d="M303.5,-331C303.5,-331 90.5,-331 90.5,-331 84.5,-331 78.5,-325 78.5,-319 78.5,-319 78.5,-307 78.5,-307 78.5,-301 84.5,-295 90.5,-295 90.5,-295 303.5,-295 303.5,-295 309.5,-295 315.5,-301 315.5,-307 315.5,-307 315.5,-319 315.5,-319 315.5,-325 309.5,-331 303.5,-331"/>
<text text-anchor="middle" x="197" y="-309.3" font-family="Times,serif" font-size="14.00" fill="#222222">Transpose(., perm=[0, 2, 1, 3])</text>
</g>
<!-- I_0&#45;&gt;Transpose_13 -->
<g id="edge9" class="edge">
<title>I_0&#45;&gt;Transpose_13</title>
<path fill="none" stroke="black" d="M349.1,-354.98C324.12,-348.25 295.63,-340.57 270.11,-333.7"/>
<polygon fill="black" stroke="black" points="260.12,-331 270.95,-329.26 264.95,-332.31 269.77,-333.61 269.77,-333.61 269.77,-333.61 264.95,-332.31 268.6,-337.95 260.12,-331 260.12,-331"/>
<text text-anchor="middle" x="369.5" y="-341.4" font-family="Times,serif" font-size="7.00">FLOAT(batch,8,seq_length,32)</text>
</g>
<!-- I_1 -->
<g id="node2" class="node">
<title>I_1</title>
<path fill="#aaeeaa" stroke="#888888" d="M424.5,-278C424.5,-278 209.5,-278 209.5,-278 203.5,-278 197.5,-272 197.5,-266 197.5,-266 197.5,-252 197.5,-252 197.5,-246 203.5,-240 209.5,-240 209.5,-240 424.5,-240 424.5,-240 430.5,-240 436.5,-246 436.5,-252 436.5,-252 436.5,-266 436.5,-266 436.5,-272 430.5,-278 424.5,-278"/>
<text text-anchor="middle" x="317" y="-262.8" font-family="Times,serif" font-size="14.00" fill="#222222">past_value</text>
<text text-anchor="middle" x="317" y="-247.8" font-family="Times,serif" font-size="14.00" fill="#222222">FLOAT(batch,4,past_length,32)</text>
</g>
<!-- GroupQueryAttention_19 -->
<g id="node20" class="node">
<title>GroupQueryAttention_19</title>
<path fill="#cccccc" stroke="#888888" d="M734.5,-216C734.5,-216 587.5,-216 587.5,-216 581.5,-216 575.5,-210 575.5,-204 575.5,-204 575.5,-175 575.5,-175 575.5,-169 581.5,-163 587.5,-163 587.5,-163 734.5,-163 734.5,-163 740.5,-163 746.5,-169 746.5,-175 746.5,-175 746.5,-204 746.5,-204 746.5,-210 740.5,-216 734.5,-216"/>
<text text-anchor="middle" x="661" y="-200.8" font-family="Times,serif" font-size="14.00" fill="#222222">com.microsoft.</text>
<text text-anchor="middle" x="661" y="-185.8" font-family="Times,serif" font-size="14.00" fill="#222222">GroupQueryAttention</text>
<text text-anchor="middle" x="661" y="-170.8" font-family="Times,serif" font-size="14.00" fill="#222222">(., ., ., ., ., ., ., , , , .)</text>
</g>
<!-- I_1&#45;&gt;GroupQueryAttention_19 -->
<g id="edge19" class="edge">
<title>I_1&#45;&gt;GroupQueryAttention_19</title>
<path fill="none" stroke="black" d="M398.49,-239.91C423.04,-234.61 450.09,-228.92 475,-224 504.23,-218.23 536.12,-212.33 565.11,-207.13"/>
<polygon fill="black" stroke="black" points="575.23,-205.32 566.18,-211.51 570.31,-206.2 565.39,-207.08 565.39,-207.08 565.39,-207.08 570.31,-206.2 564.6,-202.65 575.23,-205.32 575.23,-205.32"/>
<text text-anchor="middle" x="532" y="-226.4" font-family="Times,serif" font-size="7.00">FLOAT(batch,4,past_length,32)</text>
</g>
<!-- I_2 -->
<g id="node3" class="node">
<title>I_2</title>
<path fill="#aaeeaa" stroke="#888888" d="M1070.5,-393C1070.5,-393 861.5,-393 861.5,-393 855.5,-393 849.5,-387 849.5,-381 849.5,-381 849.5,-367 849.5,-367 849.5,-361 855.5,-355 861.5,-355 861.5,-355 1070.5,-355 1070.5,-355 1076.5,-355 1082.5,-361 1082.5,-367 1082.5,-367 1082.5,-381 1082.5,-381 1082.5,-387 1076.5,-393 1070.5,-393"/>
<text text-anchor="middle" x="966" y="-377.8" font-family="Times,serif" font-size="14.00" fill="#222222">key</text>
<text text-anchor="middle" x="966" y="-362.8" font-family="Times,serif" font-size="14.00" fill="#222222">FLOAT(batch,4,seq_length,32)</text>
</g>
<!-- Transpose_14 -->
<g id="node15" class="node">
<title>Transpose_14</title>
<path fill="#ee99ee" stroke="#888888" d="M1072.5,-331C1072.5,-331 859.5,-331 859.5,-331 853.5,-331 847.5,-325 847.5,-319 847.5,-319 847.5,-307 847.5,-307 847.5,-301 853.5,-295 859.5,-295 859.5,-295 1072.5,-295 1072.5,-295 1078.5,-295 1084.5,-301 1084.5,-307 1084.5,-307 1084.5,-319 1084.5,-319 1084.5,-325 1078.5,-331 1072.5,-331"/>
<text text-anchor="middle" x="966" y="-309.3" font-family="Times,serif" font-size="14.00" fill="#222222">Transpose(., perm=[0, 2, 1, 3])</text>
</g>
<!-- I_2&#45;&gt;Transpose_14 -->
<g id="edge10" class="edge">
<title>I_2&#45;&gt;Transpose_14</title>
<path fill="none" stroke="black" d="M966,-354.98C966,-350.71 966,-346.06 966,-341.47"/>
<polygon fill="black" stroke="black" points="966,-331.1 970.5,-341.1 966,-336.1 966,-341.1 966,-341.1 966,-341.1 966,-336.1 961.5,-341.1 966,-331.1 966,-331.1"/>
<text text-anchor="middle" x="1021.5" y="-341.4" font-family="Times,serif" font-size="7.00">FLOAT(batch,4,seq_length,32)</text>
</g>
<!-- I_3 -->
<g id="node4" class="node">
<title>I_3</title>
<path fill="#aaeeaa" stroke="#888888" d="M1321.5,-393C1321.5,-393 1112.5,-393 1112.5,-393 1106.5,-393 1100.5,-387 1100.5,-381 1100.5,-381 1100.5,-367 1100.5,-367 1100.5,-361 1106.5,-355 1112.5,-355 1112.5,-355 1321.5,-355 1321.5,-355 1327.5,-355 1333.5,-361 1333.5,-367 1333.5,-367 1333.5,-381 1333.5,-381 1333.5,-387 1327.5,-393 1321.5,-393"/>
<text text-anchor="middle" x="1217" y="-377.8" font-family="Times,serif" font-size="14.00" fill="#222222">value</text>
<text text-anchor="middle" x="1217" y="-362.8" font-family="Times,serif" font-size="14.00" fill="#222222">FLOAT(batch,4,seq_length,32)</text>
</g>
<!-- Transpose_15 -->
<g id="node16" class="node">
<title>Transpose_15</title>
<path fill="#ee99ee" stroke="#888888" d="M1323.5,-331C1323.5,-331 1110.5,-331 1110.5,-331 1104.5,-331 1098.5,-325 1098.5,-319 1098.5,-319 1098.5,-307 1098.5,-307 1098.5,-301 1104.5,-295 1110.5,-295 1110.5,-295 1323.5,-295 1323.5,-295 1329.5,-295 1335.5,-301 1335.5,-307 1335.5,-307 1335.5,-319 1335.5,-319 1335.5,-325 1329.5,-331 1323.5,-331"/>
<text text-anchor="middle" x="1217" y="-309.3" font-family="Times,serif" font-size="14.00" fill="#222222">Transpose(., perm=[0, 2, 1, 3])</text>
</g>
<!-- I_3&#45;&gt;Transpose_15 -->
<g id="edge11" class="edge">
<title>I_3&#45;&gt;Transpose_15</title>
<path fill="none" stroke="black" d="M1217,-354.98C1217,-350.71 1217,-346.06 1217,-341.47"/>
<polygon fill="black" stroke="black" points="1217,-331.1 1221.5,-341.1 1217,-336.1 1217,-341.1 1217,-341.1 1217,-341.1 1217,-336.1 1212.5,-341.1 1217,-331.1 1217,-331.1"/>
<text text-anchor="middle" x="1272.5" y="-341.4" font-family="Times,serif" font-size="7.00">FLOAT(batch,4,seq_length,32)</text>
</g>
<!-- I_4 -->
<g id="node5" class="node">
<title>I_4</title>
<path fill="#aaeeaa" stroke="#888888" d="M677.5,-278C677.5,-278 462.5,-278 462.5,-278 456.5,-278 450.5,-272 450.5,-266 450.5,-266 450.5,-252 450.5,-252 450.5,-246 456.5,-240 462.5,-240 462.5,-240 677.5,-240 677.5,-240 683.5,-240 689.5,-246 689.5,-252 689.5,-252 689.5,-266 689.5,-266 689.5,-272 683.5,-278 677.5,-278"/>
<text text-anchor="middle" x="570" y="-262.8" font-family="Times,serif" font-size="14.00" fill="#222222">past_key</text>
<text text-anchor="middle" x="570" y="-247.8" font-family="Times,serif" font-size="14.00" fill="#222222">FLOAT(batch,4,past_length,32)</text>
</g>
<!-- I_4&#45;&gt;GroupQueryAttention_19 -->
<g id="edge18" class="edge">
<title>I_4&#45;&gt;GroupQueryAttention_19</title>
<path fill="none" stroke="black" d="M583.9,-239.94C588.64,-234.44 594.22,-228.62 600,-224 600.85,-223.32 601.71,-222.65 602.59,-221.98"/>
<polygon fill="black" stroke="black" points="610.8,-216.18 605.23,-225.62 606.72,-219.06 602.64,-221.95 602.64,-221.95 602.64,-221.95 606.72,-219.06 600.04,-218.27 610.8,-216.18 610.8,-216.18"/>
<text text-anchor="middle" x="657" y="-226.4" font-family="Times,serif" font-size="7.00">FLOAT(batch,4,past_length,32)</text>
</g>
<!-- I_5 -->
<g id="node6" class="node">
<title>I_5</title>
<path fill="#aaeeaa" stroke="#888888" d="M609,-596C609,-596 397,-596 397,-596 391,-596 385,-590 385,-584 385,-584 385,-570 385,-570 385,-564 391,-558 397,-558 397,-558 609,-558 609,-558 615,-558 621,-564 621,-570 621,-570 621,-584 621,-584 621,-590 615,-596 609,-596"/>
<text text-anchor="middle" x="503" y="-580.8" font-family="Times,serif" font-size="14.00" fill="#222222">bitwise_not</text>
<text text-anchor="middle" x="503" y="-565.8" font-family="Times,serif" font-size="14.00" fill="#222222">BOOL(seq_length,total_length)</text>
</g>
<!-- Where_6 -->
<g id="node7" class="node">
<title>Where_6</title>
<path fill="#cccccc" stroke="#888888" d="M620.5,-534C620.5,-534 385.5,-534 385.5,-534 379.5,-534 373.5,-528 373.5,-522 373.5,-522 373.5,-510 373.5,-510 373.5,-504 379.5,-498 385.5,-498 385.5,-498 620.5,-498 620.5,-498 626.5,-498 632.5,-504 632.5,-510 632.5,-510 632.5,-522 632.5,-522 632.5,-528 626.5,-534 620.5,-534"/>
<text text-anchor="middle" x="503" y="-512.3" font-family="Times,serif" font-size="14.00" fill="#222222">Where(., [&#45;3.4028235e+38], [0.0])</text>
</g>
<!-- I_5&#45;&gt;Where_6 -->
<g id="edge1" class="edge">
<title>I_5&#45;&gt;Where_6</title>
<path fill="none" stroke="black" d="M503,-557.98C503,-553.71 503,-549.06 503,-544.47"/>
<polygon fill="black" stroke="black" points="503,-534.1 507.5,-544.1 503,-539.1 503,-544.1 503,-544.1 503,-544.1 503,-539.1 498.5,-544.1 503,-534.1 503,-534.1"/>
<text text-anchor="middle" x="560.5" y="-544.4" font-family="Times,serif" font-size="7.00">BOOL(seq_length,total_length)</text>
</g>
<!-- Unsqueeze_8 -->
<g id="node9" class="node">
<title>Unsqueeze_8</title>
<path fill="#eeeeee" stroke="#888888" d="M395.5,-437C395.5,-437 262.5,-437 262.5,-437 256.5,-437 250.5,-431 250.5,-425 250.5,-425 250.5,-413 250.5,-413 250.5,-407 256.5,-401 262.5,-401 262.5,-401 395.5,-401 395.5,-401 401.5,-401 407.5,-407 407.5,-413 407.5,-413 407.5,-425 407.5,-425 407.5,-431 401.5,-437 395.5,-437"/>
<text text-anchor="middle" x="329" y="-415.3" font-family="Times,serif" font-size="14.00" fill="#222222">Unsqueeze(., [0, 1])</text>
</g>
<!-- Where_6&#45;&gt;Unsqueeze_8 -->
<g id="edge3" class="edge">
<title>Where_6&#45;&gt;Unsqueeze_8</title>
<path fill="none" stroke="black" d="M471.49,-497.8C442.79,-482.13 400.26,-458.91 369.13,-441.91"/>
<polygon fill="black" stroke="black" points="360.28,-437.08 371.21,-437.92 364.66,-439.47 369.05,-441.87 369.05,-441.87 369.05,-441.87 364.66,-439.47 366.9,-445.82 360.28,-437.08 360.28,-437.08"/>
</g>
<!-- Shape_9 -->
<g id="node10" class="node">
<title>Shape_9</title>
<path fill="#d2a81f" stroke="#888888" d="M730.5,-481C730.5,-481 609.5,-481 609.5,-481 603.5,-481 597.5,-475 597.5,-469 597.5,-469 597.5,-457 597.5,-457 597.5,-451 603.5,-445 609.5,-445 609.5,-445 730.5,-445 730.5,-445 736.5,-445 742.5,-451 742.5,-457 742.5,-457 742.5,-469 742.5,-469 742.5,-475 736.5,-481 730.5,-481"/>
<text text-anchor="middle" x="670" y="-459.3" font-family="Times,serif" font-size="14.00" fill="#222222">Shape(., start=&#45;1)</text>
</g>
<!-- Where_6&#45;&gt;Shape_9 -->
<g id="edge4" class="edge">
<title>Where_6&#45;&gt;Shape_9</title>
<path fill="none" stroke="black" d="M559.07,-497.88C573.61,-493.44 589.39,-488.62 604.37,-484.04"/>
<polygon fill="black" stroke="black" points="614.07,-481.08 605.83,-488.3 609.29,-482.54 604.51,-484 604.51,-484 604.51,-484 609.29,-482.54 603.2,-479.7 614.07,-481.08 614.07,-481.08"/>
</g>
<!-- Expand_12 -->
<g id="node13" class="node">
<title>Expand_12</title>
<path fill="#cccccc" stroke="#888888" d="M790.5,-277C790.5,-277 715.5,-277 715.5,-277 709.5,-277 703.5,-271 703.5,-265 703.5,-265 703.5,-253 703.5,-253 703.5,-247 709.5,-241 715.5,-241 715.5,-241 790.5,-241 790.5,-241 796.5,-241 802.5,-247 802.5,-253 802.5,-253 802.5,-265 802.5,-265 802.5,-271 796.5,-277 790.5,-277"/>
<text text-anchor="middle" x="753" y="-255.3" font-family="Times,serif" font-size="14.00" fill="#222222">Expand(., .)</text>
</g>
<!-- Shape_7&#45;&gt;Expand_12 -->
<g id="edge8" class="edge">
<title>Shape_7&#45;&gt;Expand_12</title>
<path fill="none" stroke="black" d="M624.94,-294.96C645.56,-290.47 667.65,-285.36 693.6,-278.56"/>
<polygon fill="black" stroke="black" points="703.34,-275.98 694.83,-282.89 698.51,-277.26 693.67,-278.54 693.67,-278.54 693.67,-278.54 698.51,-277.26 692.52,-274.19 703.34,-275.98 703.34,-275.98"/>
</g>
<!-- Unsqueeze_8&#45;&gt;GroupQueryAttention_19 -->
<g id="edge22" class="edge">
<title>Unsqueeze_8&#45;&gt;GroupQueryAttention_19</title>
<path fill="none" stroke="black" d="M250.2,-415.81C152.86,-410.91 0,-395.08 0,-344 0,-344 0,-344 0,-258 0,-201.89 381.84,-192.08 565.09,-190.6"/>
<polygon fill="black" stroke="black" points="575.26,-190.53 565.3,-195.1 570.26,-190.56 565.26,-190.6 565.26,-190.6 565.26,-190.6 570.26,-190.56 565.23,-186.1 575.26,-190.53 575.26,-190.53"/>
</g>
<!-- Cast_10 -->
<g id="node11" class="node">
<title>Cast_10</title>
<path fill="#cccccc" stroke="#888888" d="M812.5,-392C812.5,-392 693.5,-392 693.5,-392 687.5,-392 681.5,-386 681.5,-380 681.5,-380 681.5,-368 681.5,-368 681.5,-362 687.5,-356 693.5,-356 693.5,-356 812.5,-356 812.5,-356 818.5,-356 824.5,-362 824.5,-368 824.5,-368 824.5,-380 824.5,-380 824.5,-386 818.5,-392 812.5,-392"/>
<text text-anchor="middle" x="753" y="-370.3" font-family="Times,serif" font-size="14.00" fill="#222222">Cast(., to=INT32)</text>
</g>
<!-- Shape_9&#45;&gt;Cast_10 -->
<g id="edge5" class="edge">
<title>Shape_9&#45;&gt;Cast_10</title>
<path fill="none" stroke="black" d="M686.4,-444.81C698.68,-431.94 715.65,-414.15 729.39,-399.75"/>
<polygon fill="black" stroke="black" points="736.64,-392.15 732.99,-402.49 733.18,-395.77 729.73,-399.39 729.73,-399.39 729.73,-399.39 733.18,-395.77 726.48,-396.28 736.64,-392.15 736.64,-392.15"/>
</g>
<!-- Sub_11 -->
<g id="node12" class="node">
<title>Sub_11</title>
<path fill="#cccccc" stroke="#888888" d="M785,-331C785,-331 721,-331 721,-331 715,-331 709,-325 709,-319 709,-319 709,-307 709,-307 709,-301 715,-295 721,-295 721,-295 785,-295 785,-295 791,-295 797,-301 797,-307 797,-307 797,-319 797,-319 797,-325 791,-331 785,-331"/>
<text text-anchor="middle" x="753" y="-309.3" font-family="Times,serif" font-size="14.00" fill="#222222">Sub(., [1])</text>
</g>
<!-- Cast_10&#45;&gt;Sub_11 -->
<g id="edge6" class="edge">
<title>Cast_10&#45;&gt;Sub_11</title>
<path fill="none" stroke="black" d="M753,-355.93C753,-351.45 753,-346.49 753,-341.61"/>
<polygon fill="black" stroke="black" points="753,-331.23 757.5,-341.23 753,-336.23 753,-341.23 753,-341.23 753,-341.23 753,-336.23 748.5,-341.23 753,-331.23 753,-331.23"/>
</g>
<!-- Cast_10&#45;&gt;GroupQueryAttention_19 -->
<g id="edge21" class="edge">
<title>Cast_10&#45;&gt;GroupQueryAttention_19</title>
<path fill="none" stroke="black" d="M781.55,-355.89C790.2,-349.24 798.78,-340.83 804,-331 822.99,-295.22 832.67,-272.87 809,-240 796.23,-222.27 776.82,-210.79 756.22,-203.4"/>
<polygon fill="black" stroke="black" points="746.69,-200.28 757.59,-199.11 751.44,-201.83 756.19,-203.39 756.19,-203.39 756.19,-203.39 751.44,-201.83 754.79,-207.67 746.69,-200.28 746.69,-200.28"/>
</g>
<!-- Sub_11&#45;&gt;Expand_12 -->
<g id="edge7" class="edge">
<title>Sub_11&#45;&gt;Expand_12</title>
<path fill="none" stroke="black" d="M753,-294.97C753,-292.57 753,-290.06 753,-287.52"/>
<polygon fill="black" stroke="black" points="753,-277.24 757.5,-287.24 753,-282.24 753,-287.24 753,-287.24 753,-287.24 753,-282.24 748.5,-287.24 753,-277.24 753,-277.24"/>
</g>
<!-- Expand_12&#45;&gt;GroupQueryAttention_19 -->
<g id="edge20" class="edge">
<title>Expand_12&#45;&gt;GroupQueryAttention_19</title>
<path fill="none" stroke="black" d="M733.89,-240.87C727.41,-235.3 720.03,-229.21 713,-224 712.12,-223.34 711.22,-222.69 710.31,-222.03"/>
<polygon fill="black" stroke="black" points="701.94,-216.15 712.71,-218.22 706.03,-219.02 710.12,-221.9 710.12,-221.9 710.12,-221.9 706.03,-219.02 707.54,-225.58 701.94,-216.15 701.94,-216.15"/>
</g>
<!-- Reshape_16 -->
<g id="node17" class="node">
<title>Reshape_16</title>
<path fill="#eeeeee" stroke="#888888" d="M171.5,-277C171.5,-277 34.5,-277 34.5,-277 28.5,-277 22.5,-271 22.5,-265 22.5,-265 22.5,-253 22.5,-253 22.5,-247 28.5,-241 34.5,-241 34.5,-241 171.5,-241 171.5,-241 177.5,-241 183.5,-247 183.5,-253 183.5,-253 183.5,-265 183.5,-265 183.5,-271 177.5,-277 171.5,-277"/>
<text text-anchor="middle" x="103" y="-255.3" font-family="Times,serif" font-size="14.00" fill="#222222">Reshape(., [0, 0, &#45;1])</text>
</g>
<!-- Transpose_13&#45;&gt;Reshape_16 -->
<g id="edge12" class="edge">
<title>Transpose_13&#45;&gt;Reshape_16</title>
<path fill="none" stroke="black" d="M166.22,-294.97C158.75,-290.84 150.67,-286.37 142.85,-282.04"/>
<polygon fill="black" stroke="black" points="133.85,-277.06 144.78,-277.97 138.22,-279.49 142.6,-281.91 142.6,-281.91 142.6,-281.91 138.22,-279.49 140.42,-285.84 133.85,-277.06 133.85,-277.06"/>
</g>
<!-- Reshape_17 -->
<g id="node18" class="node">
<title>Reshape_17</title>
<path fill="#eeeeee" stroke="#888888" d="M1015.5,-277C1015.5,-277 878.5,-277 878.5,-277 872.5,-277 866.5,-271 866.5,-265 866.5,-265 866.5,-253 866.5,-253 866.5,-247 872.5,-241 878.5,-241 878.5,-241 1015.5,-241 1015.5,-241 1021.5,-241 1027.5,-247 1027.5,-253 1027.5,-253 1027.5,-265 1027.5,-265 1027.5,-271 1021.5,-277 1015.5,-277"/>
<text text-anchor="middle" x="947" y="-255.3" font-family="Times,serif" font-size="14.00" fill="#222222">Reshape(., [0, 0, &#45;1])</text>
</g>
<!-- Transpose_14&#45;&gt;Reshape_17 -->
<g id="edge13" class="edge">
<title>Transpose_14&#45;&gt;Reshape_17</title>
<path fill="none" stroke="black" d="M959.78,-294.97C958.8,-292.31 957.78,-289.5 956.75,-286.68"/>
<polygon fill="black" stroke="black" points="953.3,-277.24 960.96,-285.09 955.02,-281.94 956.73,-286.64 956.73,-286.64 956.73,-286.64 955.02,-281.94 952.51,-288.18 953.3,-277.24 953.3,-277.24"/>
</g>
<!-- Reshape_18 -->
<g id="node19" class="node">
<title>Reshape_18</title>
<path fill="#eeeeee" stroke="#888888" d="M1237.5,-277C1237.5,-277 1100.5,-277 1100.5,-277 1094.5,-277 1088.5,-271 1088.5,-265 1088.5,-265 1088.5,-253 1088.5,-253 1088.5,-247 1094.5,-241 1100.5,-241 1100.5,-241 1237.5,-241 1237.5,-241 1243.5,-241 1249.5,-247 1249.5,-253 1249.5,-253 1249.5,-265 1249.5,-265 1249.5,-271 1243.5,-277 1237.5,-277"/>
<text text-anchor="middle" x="1169" y="-255.3" font-family="Times,serif" font-size="14.00" fill="#222222">Reshape(., [0, 0, &#45;1])</text>
</g>
<!-- Transpose_15&#45;&gt;Reshape_18 -->
<g id="edge14" class="edge">
<title>Transpose_15&#45;&gt;Reshape_18</title>
<path fill="none" stroke="black" d="M1201.28,-294.97C1198.25,-291.69 1195.01,-288.18 1191.8,-284.7"/>
<polygon fill="black" stroke="black" points="1184.92,-277.24 1195.01,-281.54 1188.31,-280.92 1191.7,-284.59 1191.7,-284.59 1191.7,-284.59 1188.31,-280.92 1188.39,-287.64 1184.92,-277.24 1184.92,-277.24"/>
</g>
<!-- Reshape_16&#45;&gt;GroupQueryAttention_19 -->
<g id="edge15" class="edge">
<title>Reshape_16&#45;&gt;GroupQueryAttention_19</title>
<path fill="none" stroke="black" d="M183.53,-241.05C185.71,-240.68 187.87,-240.33 190,-240 319.14,-219.91 469.5,-205.68 564.94,-197.78"/>
<polygon fill="black" stroke="black" points="575.15,-196.95 565.55,-202.25 570.17,-197.35 565.19,-197.76 565.19,-197.76 565.19,-197.76 570.17,-197.35 564.82,-193.28 575.15,-196.95 575.15,-196.95"/>
</g>
<!-- Reshape_17&#45;&gt;GroupQueryAttention_19 -->
<g id="edge16" class="edge">
<title>Reshape_17&#45;&gt;GroupQueryAttention_19</title>
<path fill="none" stroke="black" d="M895.37,-240.92C876.78,-235.1 855.56,-228.85 836,-224 810.56,-217.69 782.78,-211.88 757,-206.94"/>
<polygon fill="black" stroke="black" points="746.85,-205.02 757.52,-202.46 751.77,-205.95 756.68,-206.88 756.68,-206.88 756.68,-206.88 751.77,-205.95 755.84,-211.3 746.85,-205.02 746.85,-205.02"/>
</g>
<!-- Reshape_18&#45;&gt;GroupQueryAttention_19 -->
<g id="edge17" class="edge">
<title>Reshape_18&#45;&gt;GroupQueryAttention_19</title>
<path fill="none" stroke="black" d="M1088.33,-247.24C1070.44,-244.85 1051.58,-242.34 1034,-240 939.65,-227.45 831.87,-213.15 756.51,-203.16"/>
<polygon fill="black" stroke="black" points="746.56,-201.84 757.06,-198.69 751.51,-202.5 756.47,-203.15 756.47,-203.15 756.47,-203.15 751.51,-202.5 755.88,-207.61 746.56,-201.84 746.56,-201.84"/>
</g>
<!-- Reshape_20 -->
<g id="node21" class="node">
<title>Reshape_20</title>
<path fill="#eeeeee" stroke="#888888" d="M471,-145C471,-145 307,-145 307,-145 301,-145 295,-139 295,-133 295,-133 295,-121 295,-121 295,-115 301,-109 307,-109 307,-109 471,-109 471,-109 477,-109 483,-115 483,-121 483,-121 483,-133 483,-133 483,-139 477,-145 471,-145"/>
<text text-anchor="middle" x="389" y="-123.3" font-family="Times,serif" font-size="14.00" fill="#222222">Reshape(., [0, 0, &#45;1, 32])</text>
</g>
<!-- GroupQueryAttention_19&#45;&gt;Reshape_20 -->
<g id="edge23" class="edge">
<title>GroupQueryAttention_19&#45;&gt;Reshape_20</title>
<path fill="none" stroke="black" d="M575.31,-169.44C543.42,-162.35 507.23,-154.3 475.28,-147.19"/>
<polygon fill="black" stroke="black" points="465.51,-145.02 476.25,-142.8 470.39,-146.1 475.27,-147.19 475.27,-147.19 475.27,-147.19 470.39,-146.1 474.3,-151.58 465.51,-145.02 465.51,-145.02"/>
</g>
<!-- O_23 -->
<g id="node24" class="node">
<title>O_23</title>
<path fill="#aaaaee" stroke="#888888" d="M813,-146C813,-146 509,-146 509,-146 503,-146 497,-140 497,-134 497,-134 497,-120 497,-120 497,-114 503,-108 509,-108 509,-108 813,-108 813,-108 819,-108 825,-114 825,-120 825,-120 825,-134 825,-134 825,-140 819,-146 813,-146"/>
<text text-anchor="middle" x="661" y="-130.8" font-family="Times,serif" font-size="14.00" fill="#222222">cat_1</text>
<text text-anchor="middle" x="661" y="-115.8" font-family="Times,serif" font-size="14.00" fill="#222222">FLOAT(batch,4,past_length+seq_length,32)</text>
</g>
<!-- GroupQueryAttention_19&#45;&gt;O_23 -->
<g id="edge26" class="edge">
<title>GroupQueryAttention_19&#45;&gt;O_23</title>
<path fill="none" stroke="black" d="M661,-162.84C661,-160.77 661,-158.66 661,-156.56"/>
<polygon fill="black" stroke="black" points="661,-146.36 665.5,-156.36 661,-151.36 661,-156.36 661,-156.36 661,-156.36 661,-151.36 656.5,-156.36 661,-146.36 661,-146.36"/>
</g>
<!-- O_24 -->
<g id="node25" class="node">
<title>O_24</title>
<path fill="#aaaaee" stroke="#888888" d="M1155,-146C1155,-146 851,-146 851,-146 845,-146 839,-140 839,-134 839,-134 839,-120 839,-120 839,-114 845,-108 851,-108 851,-108 1155,-108 1155,-108 1161,-108 1167,-114 1167,-120 1167,-120 1167,-134 1167,-134 1167,-140 1161,-146 1155,-146"/>
<text text-anchor="middle" x="1003" y="-130.8" font-family="Times,serif" font-size="14.00" fill="#222222">cat</text>
<text text-anchor="middle" x="1003" y="-115.8" font-family="Times,serif" font-size="14.00" fill="#222222">FLOAT(batch,4,past_length+seq_length,32)</text>
</g>
<!-- GroupQueryAttention_19&#45;&gt;O_24 -->
<g id="edge27" class="edge">
<title>GroupQueryAttention_19&#45;&gt;O_24</title>
<path fill="none" stroke="black" d="M746.86,-173.31C790.55,-165.58 844.19,-156.09 891.08,-147.8"/>
<polygon fill="black" stroke="black" points="900.97,-146.05 891.91,-152.22 896.05,-146.92 891.12,-147.79 891.12,-147.79 891.12,-147.79 896.05,-146.92 890.34,-143.36 900.97,-146.05 900.97,-146.05"/>
</g>
<!-- Transpose_21 -->
<g id="node22" class="node">
<title>Transpose_21</title>
<path fill="#ee99ee" stroke="#888888" d="M495.5,-91C495.5,-91 282.5,-91 282.5,-91 276.5,-91 270.5,-85 270.5,-79 270.5,-79 270.5,-67 270.5,-67 270.5,-61 276.5,-55 282.5,-55 282.5,-55 495.5,-55 495.5,-55 501.5,-55 507.5,-61 507.5,-67 507.5,-67 507.5,-79 507.5,-79 507.5,-85 501.5,-91 495.5,-91"/>
<text text-anchor="middle" x="389" y="-69.3" font-family="Times,serif" font-size="14.00" fill="#222222">Transpose(., perm=[0, 2, 1, 3])</text>
</g>
<!-- Reshape_20&#45;&gt;Transpose_21 -->
<g id="edge24" class="edge">
<title>Reshape_20&#45;&gt;Transpose_21</title>
<path fill="none" stroke="black" d="M389,-108.97C389,-106.57 389,-104.06 389,-101.52"/>
<polygon fill="black" stroke="black" points="389,-91.24 393.5,-101.24 389,-96.24 389,-101.24 389,-101.24 389,-101.24 389,-96.24 384.5,-101.24 389,-91.24 389,-91.24"/>
</g>
<!-- O_22 -->
<g id="node23" class="node">
<title>O_22</title>
<path fill="#aaaaee" stroke="#888888" d="M493.5,-38C493.5,-38 284.5,-38 284.5,-38 278.5,-38 272.5,-32 272.5,-26 272.5,-26 272.5,-12 272.5,-12 272.5,-6 278.5,0 284.5,0 284.5,0 493.5,0 493.5,0 499.5,0 505.5,-6 505.5,-12 505.5,-12 505.5,-26 505.5,-26 505.5,-32 499.5,-38 493.5,-38"/>
<text text-anchor="middle" x="389" y="-22.8" font-family="Times,serif" font-size="14.00" fill="#222222">output_0</text>
<text text-anchor="middle" x="389" y="-7.8" font-family="Times,serif" font-size="14.00" fill="#222222">FLOAT(batch,8,seq_length,32)</text>
</g>
<!-- Transpose_21&#45;&gt;O_22 -->
<g id="edge25" class="edge">
<title>Transpose_21&#45;&gt;O_22</title>
<path fill="none" stroke="black" d="M389,-54.97C389,-52.89 389,-50.72 389,-48.53"/>
<polygon fill="black" stroke="black" points="389,-38.32 393.5,-48.32 389,-43.32 389,-48.32 389,-48.32 389,-48.32 389,-43.32 384.5,-48.32 389,-38.32 389,-38.32"/>
</g>
</g>
</svg>
