<?xml version="1.0" encoding="UTF-8" standalone="no"?>
<!DOCTYPE svg PUBLIC "-//W3C//DTD SVG 1.1//EN"
 "http://www.w3.org/Graphics/SVG/1.1/DTD/svg11.dtd">
<!-- Generated by graphviz version 2.43.0 (0)
 -->
<!-- Title: %3 Pages: 1 -->
<svg width="151pt" height="161pt"
 viewBox="0.00 0.00 151.00 161.00" xmlns="http://www.w3.org/2000/svg" xmlns:xlink="http://www.w3.org/1999/xlink">
<g id="graph0" class="graph" transform="scale(1 1) rotate(0) translate(4 157)">
<title>%3</title>
<!-- I_0 -->
<g id="node1" class="node">
<title>I_0</title>
<path fill="#aaeeaa" stroke="#888888" d="M115,-153C115,-153 28,-153 28,-153 22,-153 16,-147 16,-141 16,-141 16,-127 16,-127 16,-121 22,-115 28,-115 28,-115 115,-115 115,-115 121,-115 127,-121 127,-127 127,-127 127,-141 127,-141 127,-147 121,-153 115,-153"/>
<text text-anchor="middle" x="71.5" y="-137.8" font-family="Times,serif" font-size="14.00" fill="#222222">X</text>
<text text-anchor="middle" x="71.5" y="-122.8" font-family="Times,serif" font-size="14.00" fill="#222222">FLOAT(2,3,d)</text>
</g>
<!-- Reshape_1 -->
<g id="node2" class="node">
<title>Reshape_1</title>
<path fill="#eeeeee" stroke="#888888" d="M131,-91C131,-91 12,-91 12,-91 6,-91 0,-85 0,-79 0,-79 0,-67 0,-67 0,-61 6,-55 12,-55 12,-55 131,-55 131,-55 137,-55 143,-61 143,-67 143,-67 143,-79 143,-79 143,-85 137,-91 131,-91"/>
<text text-anchor="middle" x="71.5" y="-69.3" font-family="Times,serif" font-size="14.00" fill="#222222">Reshape(., [6, &#45;1])</text>
</g>
<!-- I_0&#45;&gt;Reshape_1 -->
<g id="edge1" class="edge">
<title>I_0&#45;&gt;Reshape_1</title>
<path fill="none" stroke="black" d="M71.5,-114.98C71.5,-110.71 71.5,-106.06 71.5,-101.47"/>
<polygon fill="black" stroke="black" points="71.5,-91.1 76,-101.1 71.5,-96.1 71.5,-101.1 71.5,-101.1 71.5,-101.1 71.5,-96.1 67,-101.1 71.5,-91.1 71.5,-91.1"/>
<text text-anchor="middle" x="96" y="-101.4" font-family="Times,serif" font-size="7.00">FLOAT(2,3,d)</text>
</g>
<!-- O_2 -->
<g id="node3" class="node">
<title>O_2</title>
<path fill="#aaaaee" stroke="#888888" d="M108.5,-38C108.5,-38 34.5,-38 34.5,-38 28.5,-38 22.5,-32 22.5,-26 22.5,-26 22.5,-12 22.5,-12 22.5,-6 28.5,0 34.5,0 34.5,0 108.5,0 108.5,0 114.5,0 120.5,-6 120.5,-12 120.5,-12 120.5,-26 120.5,-26 120.5,-32 114.5,-38 108.5,-38"/>
<text text-anchor="middle" x="71.5" y="-22.8" font-family="Times,serif" font-size="14.00" fill="#222222">Y</text>
<text text-anchor="middle" x="71.5" y="-7.8" font-family="Times,serif" font-size="14.00" fill="#222222">FLOAT(6,d)</text>
</g>
<!-- Reshape_1&#45;&gt;O_2 -->
<g id="edge2" class="edge">
<title>Reshape_1&#45;&gt;O_2</title>
<path fill="none" stroke="black" d="M71.5,-54.97C71.5,-52.89 71.5,-50.72 71.5,-48.53"/>
<polygon fill="black" stroke="black" points="71.5,-38.32 76,-48.32 71.5,-43.32 71.5,-48.32 71.5,-48.32 71.5,-48.32 71.5,-43.32 67,-48.32 71.5,-38.32 71.5,-38.32"/>
</g>
</g>
</svg>
