<?xml version="1.0" encoding="UTF-8" standalone="no"?>
<!DOCTYPE svg PUBLIC "-//W3C//DTD SVG 1.1//EN"
 "http://www.w3.org/Graphics/SVG/1.1/DTD/svg11.dtd">
<!-- Generated by graphviz version 2.43.0 (0)
 -->
<!-- Title: %3 Pages: 1 -->
<svg width="177pt" height="221pt"
 viewBox="0.00 0.00 177.00 221.00" xmlns="http://www.w3.org/2000/svg" xmlns:xlink="http://www.w3.org/1999/xlink">
<g id="graph0" class="graph" transform="scale(1 1) rotate(0) translate(4 217)">
<title>%3</title>
<!-- I_0 -->
<g id="node1" class="node">
<title>I_0</title>
<path fill="#aaeeaa" stroke="#888888" d="M133.5,-213C133.5,-213 32.5,-213 32.5,-213 26.5,-213 20.5,-207 20.5,-201 20.5,-201 20.5,-187 20.5,-187 20.5,-181 26.5,-175 32.5,-175 32.5,-175 133.5,-175 133.5,-175 139.5,-175 145.5,-181 145.5,-187 145.5,-187 145.5,-201 145.5,-201 145.5,-207 139.5,-213 133.5,-213"/>
<text text-anchor="middle" x="83" y="-197.8" font-family="Times,serif" font-size="14.00" fill="#222222">X</text>
<text text-anchor="middle" x="83" y="-182.8" font-family="Times,serif" font-size="14.00" fill="#222222">FLOAT(1,8,6,6)</text>
</g>
<!-- Sigmoid_1 -->
<g id="node2" class="node">
<title>Sigmoid_1</title>
<path fill="#cccccc" stroke="#888888" d="M78,-151C78,-151 12,-151 12,-151 6,-151 0,-145 0,-139 0,-139 0,-127 0,-127 0,-121 6,-115 12,-115 12,-115 78,-115 78,-115 84,-115 90,-121 90,-127 90,-127 90,-139 90,-139 90,-145 84,-151 78,-151"/>
<text text-anchor="middle" x="45" y="-129.3" font-family="Times,serif" font-size="14.00" fill="#222222">Sigmoid(.)</text>
</g>
<!-- I_0&#45;&gt;Sigmoid_1 -->
<g id="edge1" class="edge">
<title>I_0&#45;&gt;Sigmoid_1</title>
<path fill="none" stroke="black" d="M58,-174.81C55.73,-172.38 53.66,-169.77 52,-167 50.94,-165.23 50.03,-163.32 49.27,-161.35"/>
<polygon fill="black" stroke="black" points="46.46,-151.25 53.47,-159.68 47.8,-156.07 49.14,-160.88 49.14,-160.88 49.14,-160.88 47.8,-156.07 44.8,-162.09 46.46,-151.25 46.46,-151.25"/>
<text text-anchor="middle" x="79.5" y="-161.4" font-family="Times,serif" font-size="7.00">FLOAT(1,8,6,6)</text>
</g>
<!-- Mul_2 -->
<g id="node3" class="node">
<title>Mul_2</title>
<path fill="#cccccc" stroke="#888888" d="M106.5,-91C106.5,-91 57.5,-91 57.5,-91 51.5,-91 45.5,-85 45.5,-79 45.5,-79 45.5,-67 45.5,-67 45.5,-61 51.5,-55 57.5,-55 57.5,-55 106.5,-55 106.5,-55 112.5,-55 118.5,-61 118.5,-67 118.5,-67 118.5,-79 118.5,-79 118.5,-85 112.5,-91 106.5,-91"/>
<text text-anchor="middle" x="82" y="-69.3" font-family="Times,serif" font-size="14.00" fill="#222222">Mul(., .)</text>
</g>
<!-- I_0&#45;&gt;Mul_2 -->
<g id="edge2" class="edge">
<title>I_0&#45;&gt;Mul_2</title>
<path fill="none" stroke="black" d="M101.85,-174.76C103.53,-172.31 104.98,-169.71 106,-167 115.7,-141.39 117.08,-129.38 105.46,-100.59"/>
<polygon fill="black" stroke="black" points="101.43,-91.09 109.48,-98.54 103.38,-95.69 105.33,-100.3 105.33,-100.3 105.33,-100.3 103.38,-95.69 101.19,-102.05 101.43,-91.09 101.43,-91.09"/>
<text text-anchor="middle" x="141.5" y="-131.4" font-family="Times,serif" font-size="7.00">FLOAT(1,8,6,6)</text>
</g>
<!-- Sigmoid_1&#45;&gt;Mul_2 -->
<g id="edge3" class="edge">
<title>Sigmoid_1&#45;&gt;Mul_2</title>
<path fill="none" stroke="black" d="M46.45,-114.74C47.19,-110.83 48.3,-106.72 52.38,-99.84"/>
<polygon fill="black" stroke="black" points="58.1,-91.17 56.35,-102 55.34,-95.35 52.59,-99.52 52.59,-99.52 52.59,-99.52 55.34,-95.35 48.84,-97.05 58.1,-91.17 58.1,-91.17"/>
<text text-anchor="middle" x="79.5" y="-101.4" font-family="Times,serif" font-size="7.00">FLOAT(1,8,6,6)</text>
</g>
<!-- O_3 -->
<g id="node4" class="node">
<title>O_3</title>
<path fill="#aaaaee" stroke="#888888" d="M132.5,-38C132.5,-38 31.5,-38 31.5,-38 25.5,-38 19.5,-32 19.5,-26 19.5,-26 19.5,-12 19.5,-12 19.5,-6 25.5,0 31.5,0 31.5,0 132.5,0 132.5,0 138.5,0 144.5,-6 144.5,-12 144.5,-12 144.5,-26 144.5,-26 144.5,-32 138.5,-38 132.5,-38"/>
<text text-anchor="middle" x="82" y="-22.8" font-family="Times,serif" font-size="14.00" fill="#222222">Y</text>
<text text-anchor="middle" x="82" y="-7.8" font-family="Times,serif" font-size="14.00" fill="#222222">FLOAT(1,8,6,6)</text>
</g>
<!-- Mul_2&#45;&gt;O_3 -->
<g id="edge4" class="edge">
<title>Mul_2&#45;&gt;O_3</title>
<path fill="none" stroke="black" d="M82,-54.97C82,-52.89 82,-50.72 82,-48.53"/>
<polygon fill="black" stroke="black" points="82,-38.32 86.5,-48.32 82,-43.32 82,-48.32 82,-48.32 82,-48.32 82,-43.32 77.5,-48.32 82,-38.32 82,-38.32"/>
</g>
</g>
</svg>
