<?xml version="1.0" encoding="UTF-8" standalone="no"?>
<!DOCTYPE svg PUBLIC "-//W3C//DTD SVG 1.1//EN"
 "http://www.w3.org/Graphics/SVG/1.1/DTD/svg11.dtd">
<!-- Generated by graphviz version 2.43.0 (0)
 -->
<!-- Title: %3 Pages: 1 -->
<svg width="521pt" height="178pt"
 viewBox="0.00 0.00 520.50 178.00" xmlns="http://www.w3.org/2000/svg" xmlns:xlink="http://www.w3.org/1999/xlink">
<g id="graph0" class="graph" transform="scale(1 1) rotate(0) translate(4 174)">
<title>%3</title>
<!-- I_0 -->
<g id="node1" class="node">
<title>I_0</title>
<path fill="#aaeeaa" stroke="#888888" d="M90,-170C90,-170 12,-170 12,-170 6,-170 0,-164 0,-158 0,-158 0,-144 0,-144 0,-138 6,-132 12,-132 12,-132 90,-132 90,-132 96,-132 102,-138 102,-144 102,-144 102,-158 102,-158 102,-164 96,-170 90,-170"/>
<text text-anchor="middle" x="51" y="-154.8" font-family="Times,serif" font-size="14.00" fill="#222222">scale</text>
<text text-anchor="middle" x="51" y="-139.8" font-family="Times,serif" font-size="14.00" fill="#222222">FLOAT(192)</text>
</g>
<!-- SkipSimplifiedLayerNormalization_3 -->
<g id="node4" class="node">
<title>SkipSimplifiedLayerNormalization_3</title>
<path fill="#cccccc" stroke="#888888" d="M331,-108C331,-108 93,-108 93,-108 87,-108 81,-102 81,-96 81,-96 81,-67 81,-67 81,-61 87,-55 93,-55 93,-55 331,-55 331,-55 337,-55 343,-61 343,-67 343,-67 343,-96 343,-96 343,-102 337,-108 331,-108"/>
<text text-anchor="middle" x="212" y="-92.8" font-family="Times,serif" font-size="14.00" fill="#222222">com.microsoft.</text>
<text text-anchor="middle" x="212" y="-77.8" font-family="Times,serif" font-size="14.00" fill="#222222">SkipSimplifiedLayerNormalization</text>
<text text-anchor="middle" x="212" y="-62.8" font-family="Times,serif" font-size="14.00" fill="#222222">(., ., .)</text>
</g>
<!-- I_0&#45;&gt;SkipSimplifiedLayerNormalization_3 -->
<g id="edge3" class="edge">
<title>I_0&#45;&gt;SkipSimplifiedLayerNormalization_3</title>
<path fill="none" stroke="black" d="M94.15,-131.91C108.71,-125.81 125.36,-118.82 141.47,-112.07"/>
<polygon fill="black" stroke="black" points="150.88,-108.12 143.4,-116.14 146.27,-110.06 141.66,-111.99 141.66,-111.99 141.66,-111.99 146.27,-110.06 139.92,-107.84 150.88,-108.12 150.88,-108.12"/>
<text text-anchor="middle" x="154" y="-118.4" font-family="Times,serif" font-size="7.00">FLOAT(192)</text>
</g>
<!-- I_1 -->
<g id="node2" class="node">
<title>I_1</title>
<path fill="#aaeeaa" stroke="#888888" d="M295.5,-170C295.5,-170 128.5,-170 128.5,-170 122.5,-170 116.5,-164 116.5,-158 116.5,-158 116.5,-144 116.5,-144 116.5,-138 122.5,-132 128.5,-132 128.5,-132 295.5,-132 295.5,-132 301.5,-132 307.5,-138 307.5,-144 307.5,-144 307.5,-158 307.5,-158 307.5,-164 301.5,-170 295.5,-170"/>
<text text-anchor="middle" x="212" y="-154.8" font-family="Times,serif" font-size="14.00" fill="#222222">skip</text>
<text text-anchor="middle" x="212" y="-139.8" font-family="Times,serif" font-size="14.00" fill="#222222">FLOAT(batch,cache,192)</text>
</g>
<!-- I_1&#45;&gt;SkipSimplifiedLayerNormalization_3 -->
<g id="edge2" class="edge">
<title>I_1&#45;&gt;SkipSimplifiedLayerNormalization_3</title>
<path fill="none" stroke="black" d="M212,-131.91C212,-127.71 212,-123.1 212,-118.43"/>
<polygon fill="black" stroke="black" points="212,-108.25 216.5,-118.25 212,-113.25 212,-118.25 212,-118.25 212,-118.25 212,-113.25 207.5,-118.25 212,-108.25 212,-108.25"/>
<text text-anchor="middle" x="257" y="-118.4" font-family="Times,serif" font-size="7.00">FLOAT(batch,cache,192)</text>
</g>
<!-- I_2 -->
<g id="node3" class="node">
<title>I_2</title>
<path fill="#aaeeaa" stroke="#888888" d="M500.5,-170C500.5,-170 333.5,-170 333.5,-170 327.5,-170 321.5,-164 321.5,-158 321.5,-158 321.5,-144 321.5,-144 321.5,-138 327.5,-132 333.5,-132 333.5,-132 500.5,-132 500.5,-132 506.5,-132 512.5,-138 512.5,-144 512.5,-144 512.5,-158 512.5,-158 512.5,-164 506.5,-170 500.5,-170"/>
<text text-anchor="middle" x="417" y="-154.8" font-family="Times,serif" font-size="14.00" fill="#222222">X</text>
<text text-anchor="middle" x="417" y="-139.8" font-family="Times,serif" font-size="14.00" fill="#222222">FLOAT(batch,cache,192)</text>
</g>
<!-- I_2&#45;&gt;SkipSimplifiedLayerNormalization_3 -->
<g id="edge1" class="edge">
<title>I_2&#45;&gt;SkipSimplifiedLayerNormalization_3</title>
<path fill="none" stroke="black" d="M362.33,-132C343,-125.63 320.73,-118.3 299.36,-111.27"/>
<polygon fill="black" stroke="black" points="289.62,-108.06 300.53,-106.91 294.37,-109.62 299.12,-111.19 299.12,-111.19 299.12,-111.19 294.37,-109.62 297.71,-115.46 289.62,-108.06 289.62,-108.06"/>
<text text-anchor="middle" x="377" y="-118.4" font-family="Times,serif" font-size="7.00">FLOAT(batch,cache,192)</text>
</g>
<!-- O_4 -->
<g id="node5" class="node">
<title>O_4</title>
<path fill="#aaaaee" stroke="#888888" d="M193.5,-38C193.5,-38 26.5,-38 26.5,-38 20.5,-38 14.5,-32 14.5,-26 14.5,-26 14.5,-12 14.5,-12 14.5,-6 20.5,0 26.5,0 26.5,0 193.5,0 193.5,0 199.5,0 205.5,-6 205.5,-12 205.5,-12 205.5,-26 205.5,-26 205.5,-32 199.5,-38 193.5,-38"/>
<text text-anchor="middle" x="110" y="-22.8" font-family="Times,serif" font-size="14.00" fill="#222222">xs</text>
<text text-anchor="middle" x="110" y="-7.8" font-family="Times,serif" font-size="14.00" fill="#222222">FLOAT(batch,cache,192)</text>
</g>
<!-- SkipSimplifiedLayerNormalization_3&#45;&gt;O_4 -->
<g id="edge4" class="edge">
<title>SkipSimplifiedLayerNormalization_3&#45;&gt;O_4</title>
<path fill="none" stroke="black" d="M168.74,-54.84C162.4,-51.08 155.88,-47.22 149.61,-43.5"/>
<polygon fill="black" stroke="black" points="140.65,-38.18 151.55,-39.41 144.95,-40.73 149.25,-43.28 149.25,-43.28 149.25,-43.28 144.95,-40.73 146.95,-47.15 140.65,-38.18 140.65,-38.18"/>
</g>
<!-- O_5 -->
<g id="node6" class="node">
<title>O_5</title>
<path fill="#aaaaee" stroke="#888888" d="M398.5,-38C398.5,-38 231.5,-38 231.5,-38 225.5,-38 219.5,-32 219.5,-26 219.5,-26 219.5,-12 219.5,-12 219.5,-6 225.5,0 231.5,0 231.5,0 398.5,0 398.5,0 404.5,0 410.5,-6 410.5,-12 410.5,-12 410.5,-26 410.5,-26 410.5,-32 404.5,-38 398.5,-38"/>
<text text-anchor="middle" x="315" y="-22.8" font-family="Times,serif" font-size="14.00" fill="#222222">ym</text>
<text text-anchor="middle" x="315" y="-7.8" font-family="Times,serif" font-size="14.00" fill="#222222">FLOAT(batch,cache,192)</text>
</g>
<!-- SkipSimplifiedLayerNormalization_3&#45;&gt;O_5 -->
<g id="edge5" class="edge">
<title>SkipSimplifiedLayerNormalization_3&#45;&gt;O_5</title>
<path fill="none" stroke="black" d="M255.68,-54.84C262.09,-51.08 268.67,-47.22 275,-43.5"/>
<polygon fill="black" stroke="black" points="284.05,-38.18 277.71,-47.12 279.74,-40.71 275.43,-43.24 275.43,-43.24 275.43,-43.24 279.74,-40.71 273.15,-39.36 284.05,-38.18 284.05,-38.18"/>
</g>
</g>
</svg>
