<?xml version="1.0" encoding="UTF-8" standalone="no"?>
<!DOCTYPE svg PUBLIC "-//W3C//DTD SVG 1.1//EN"
 "http://www.w3.org/Graphics/SVG/1.1/DTD/svg11.dtd">
<!-- Generated by graphviz version 2.43.0 (0)
 -->
<!-- Title: %3 Pages: 1 -->
<svg width="243pt" height="223pt"
 viewBox="0.00 0.00 242.50 223.00" xmlns="http://www.w3.org/2000/svg" xmlns:xlink="http://www.w3.org/1999/xlink">
<g id="graph0" class="graph" transform="scale(1 1) rotate(0) translate(4 219)">
<title>%3</title>
<!-- I_0 -->
<g id="node1" class="node">
<title>I_0</title>
<path fill="#aaeeaa" stroke="#888888" d="M77,-153C77,-153 12,-153 12,-153 6,-153 0,-147 0,-141 0,-141 0,-127 0,-127 0,-121 6,-115 12,-115 12,-115 77,-115 77,-115 83,-115 89,-121 89,-127 89,-127 89,-141 89,-141 89,-147 83,-153 77,-153"/>
<text text-anchor="middle" x="44.5" y="-137.8" font-family="Times,serif" font-size="14.00" fill="#222222">full_shape</text>
<text text-anchor="middle" x="44.5" y="-122.8" font-family="Times,serif" font-size="14.00" fill="#222222">INT64(2)</text>
</g>
<!-- Expand_4 -->
<g id="node5" class="node">
<title>Expand_4</title>
<path fill="#cccccc" stroke="#888888" d="M108,-91C108,-91 33,-91 33,-91 27,-91 21,-85 21,-79 21,-79 21,-67 21,-67 21,-61 27,-55 33,-55 33,-55 108,-55 108,-55 114,-55 120,-61 120,-67 120,-67 120,-79 120,-79 120,-85 114,-91 108,-91"/>
<text text-anchor="middle" x="70.5" y="-69.3" font-family="Times,serif" font-size="14.00" fill="#222222">Expand(., .)</text>
</g>
<!-- I_0&#45;&gt;Expand_4 -->
<g id="edge4" class="edge">
<title>I_0&#45;&gt;Expand_4</title>
<path fill="none" stroke="black" d="M52.44,-114.98C54.48,-110.35 56.72,-105.28 58.9,-100.33"/>
<polygon fill="black" stroke="black" points="62.96,-91.1 63.05,-102.07 60.95,-95.68 58.93,-100.26 58.93,-100.26 58.93,-100.26 60.95,-95.68 54.81,-98.44 62.96,-91.1 62.96,-91.1"/>
<text text-anchor="middle" x="76.5" y="-101.4" font-family="Times,serif" font-size="7.00">INT64(2)</text>
</g>
<!-- I_1 -->
<g id="node2" class="node">
<title>I_1</title>
<path fill="#aaeeaa" stroke="#888888" d="M124.5,-215C124.5,-215 50.5,-215 50.5,-215 44.5,-215 38.5,-209 38.5,-203 38.5,-203 38.5,-189 38.5,-189 38.5,-183 44.5,-177 50.5,-177 50.5,-177 124.5,-177 124.5,-177 130.5,-177 136.5,-183 136.5,-189 136.5,-189 136.5,-203 136.5,-203 136.5,-209 130.5,-215 124.5,-215"/>
<text text-anchor="middle" x="87.5" y="-199.8" font-family="Times,serif" font-size="14.00" fill="#222222">Xc</text>
<text text-anchor="middle" x="87.5" y="-184.8" font-family="Times,serif" font-size="14.00" fill="#222222">FLOAT(d,1)</text>
</g>
<!-- Add_3 -->
<g id="node4" class="node">
<title>Add_3</title>
<path fill="#cccccc" stroke="#888888" d="M164,-152C164,-152 115,-152 115,-152 109,-152 103,-146 103,-140 103,-140 103,-128 103,-128 103,-122 109,-116 115,-116 115,-116 164,-116 164,-116 170,-116 176,-122 176,-128 176,-128 176,-140 176,-140 176,-146 170,-152 164,-152"/>
<text text-anchor="middle" x="139.5" y="-130.3" font-family="Times,serif" font-size="14.00" fill="#222222">Add(., .)</text>
</g>
<!-- I_1&#45;&gt;Add_3 -->
<g id="edge1" class="edge">
<title>I_1&#45;&gt;Add_3</title>
<path fill="none" stroke="black" d="M103.1,-177C107.79,-171.59 113.02,-165.55 118.02,-159.78"/>
<polygon fill="black" stroke="black" points="124.62,-152.17 121.47,-162.67 121.35,-155.94 118.07,-159.72 118.07,-159.72 118.07,-159.72 121.35,-155.94 114.67,-156.78 124.62,-152.17 124.62,-152.17"/>
<text text-anchor="middle" x="138.5" y="-163.4" font-family="Times,serif" font-size="7.00">FLOAT(d,1)</text>
</g>
<!-- I_2 -->
<g id="node3" class="node">
<title>I_2</title>
<path fill="#aaeeaa" stroke="#888888" d="M222.5,-215C222.5,-215 162.5,-215 162.5,-215 156.5,-215 150.5,-209 150.5,-203 150.5,-203 150.5,-189 150.5,-189 150.5,-183 156.5,-177 162.5,-177 162.5,-177 222.5,-177 222.5,-177 228.5,-177 234.5,-183 234.5,-189 234.5,-189 234.5,-203 234.5,-203 234.5,-209 228.5,-215 222.5,-215"/>
<text text-anchor="middle" x="192.5" y="-199.8" font-family="Times,serif" font-size="14.00" fill="#222222">one</text>
<text text-anchor="middle" x="192.5" y="-184.8" font-family="Times,serif" font-size="14.00" fill="#222222">FLOAT(1)</text>
</g>
<!-- I_2&#45;&gt;Add_3 -->
<g id="edge2" class="edge">
<title>I_2&#45;&gt;Add_3</title>
<path fill="none" stroke="black" d="M176.62,-177C172.06,-171.83 167.09,-166.19 162.5,-161 162.1,-160.55 161.7,-160.09 161.29,-159.63"/>
<polygon fill="black" stroke="black" points="154.6,-152.06 164.59,-156.57 157.91,-155.81 161.22,-159.55 161.22,-159.55 161.22,-159.55 157.91,-155.81 157.85,-162.53 154.6,-152.06 154.6,-152.06"/>
<text text-anchor="middle" x="186" y="-163.4" font-family="Times,serif" font-size="7.00">FLOAT(1)</text>
</g>
<!-- Add_3&#45;&gt;Expand_4 -->
<g id="edge3" class="edge">
<title>Add_3&#45;&gt;Expand_4</title>
<path fill="none" stroke="black" d="M119.54,-115.93C113.02,-110.36 105.65,-104.05 98.64,-98.06"/>
<polygon fill="black" stroke="black" points="90.65,-91.23 101.18,-94.31 94.45,-94.48 98.25,-97.73 98.25,-97.73 98.25,-97.73 94.45,-94.48 95.33,-101.15 90.65,-91.23 90.65,-91.23"/>
<text text-anchor="middle" x="128.5" y="-101.4" font-family="Times,serif" font-size="7.00">FLOAT(d,1)</text>
</g>
<!-- O_5 -->
<g id="node6" class="node">
<title>O_5</title>
<path fill="#aaaaee" stroke="#888888" d="M107.5,-38C107.5,-38 33.5,-38 33.5,-38 27.5,-38 21.5,-32 21.5,-26 21.5,-26 21.5,-12 21.5,-12 21.5,-6 27.5,0 33.5,0 33.5,0 107.5,0 107.5,0 113.5,0 119.5,-6 119.5,-12 119.5,-12 119.5,-26 119.5,-26 119.5,-32 113.5,-38 107.5,-38"/>
<text text-anchor="middle" x="70.5" y="-22.8" font-family="Times,serif" font-size="14.00" fill="#222222">Y</text>
<text text-anchor="middle" x="70.5" y="-7.8" font-family="Times,serif" font-size="14.00" fill="#222222">FLOAT(d,d)</text>
</g>
<!-- Expand_4&#45;&gt;O_5 -->
<g id="edge5" class="edge">
<title>Expand_4&#45;&gt;O_5</title>
<path fill="none" stroke="black" d="M70.5,-54.97C70.5,-52.89 70.5,-50.72 70.5,-48.53"/>
<polygon fill="black" stroke="black" points="70.5,-38.32 75,-48.32 70.5,-43.32 70.5,-48.32 70.5,-48.32 70.5,-48.32 70.5,-43.32 66,-48.32 70.5,-38.32 70.5,-38.32"/>
</g>
</g>
</svg>
