<?xml version="1.0" encoding="UTF-8" standalone="no"?>
<!DOCTYPE svg PUBLIC "-//W3C//DTD SVG 1.1//EN"
 "http://www.w3.org/Graphics/SVG/1.1/DTD/svg11.dtd">
<!-- Generated by graphviz version 2.43.0 (0)
 -->
<!-- Title: %3 Pages: 1 -->
<svg width="147pt" height="221pt"
 viewBox="0.00 0.00 147.00 221.00" xmlns="http://www.w3.org/2000/svg" xmlns:xlink="http://www.w3.org/1999/xlink">
<g id="graph0" class="graph" transform="scale(1 1) rotate(0) translate(4 217)">
<title>%3</title>
<!-- I_0 -->
<g id="node1" class="node">
<title>I_0</title>
<path fill="#aaeeaa" stroke="#888888" d="M106,-213C106,-213 33,-213 33,-213 27,-213 21,-207 21,-201 21,-201 21,-187 21,-187 21,-181 27,-175 33,-175 33,-175 106,-175 106,-175 112,-175 118,-181 118,-187 118,-187 118,-201 118,-201 118,-207 112,-213 106,-213"/>
<text text-anchor="middle" x="69.5" y="-197.8" font-family="Times,serif" font-size="14.00" fill="#222222">X</text>
<text text-anchor="middle" x="69.5" y="-182.8" font-family="Times,serif" font-size="14.00" fill="#222222">FLOAT(a,b)</text>
</g>
<!-- Unsqueeze_1 -->
<g id="node2" class="node">
<title>Unsqueeze_1</title>
<path fill="#eeeeee" stroke="#888888" d="M127,-151C127,-151 12,-151 12,-151 6,-151 0,-145 0,-139 0,-139 0,-127 0,-127 0,-121 6,-115 12,-115 12,-115 127,-115 127,-115 133,-115 139,-121 139,-127 139,-127 139,-139 139,-139 139,-145 133,-151 127,-151"/>
<text text-anchor="middle" x="69.5" y="-129.3" font-family="Times,serif" font-size="14.00" fill="#222222">Unsqueeze(., [2])</text>
</g>
<!-- I_0&#45;&gt;Unsqueeze_1 -->
<g id="edge1" class="edge">
<title>I_0&#45;&gt;Unsqueeze_1</title>
<path fill="none" stroke="black" d="M69.5,-174.98C69.5,-170.71 69.5,-166.06 69.5,-161.47"/>
<polygon fill="black" stroke="black" points="69.5,-151.1 74,-161.1 69.5,-156.1 69.5,-161.1 69.5,-161.1 69.5,-161.1 69.5,-156.1 65,-161.1 69.5,-151.1 69.5,-151.1"/>
<text text-anchor="middle" x="90.5" y="-161.4" font-family="Times,serif" font-size="7.00">FLOAT(a,b)</text>
</g>
<!-- Unsqueeze_2 -->
<g id="node3" class="node">
<title>Unsqueeze_2</title>
<path fill="#eeeeee" stroke="#888888" d="M127,-91C127,-91 12,-91 12,-91 6,-91 0,-85 0,-79 0,-79 0,-67 0,-67 0,-61 6,-55 12,-55 12,-55 127,-55 127,-55 133,-55 139,-61 139,-67 139,-67 139,-79 139,-79 139,-85 133,-91 127,-91"/>
<text text-anchor="middle" x="69.5" y="-69.3" font-family="Times,serif" font-size="14.00" fill="#222222">Unsqueeze(., [3])</text>
</g>
<!-- Unsqueeze_1&#45;&gt;Unsqueeze_2 -->
<g id="edge2" class="edge">
<title>Unsqueeze_1&#45;&gt;Unsqueeze_2</title>
<path fill="none" stroke="black" d="M69.5,-114.91C69.5,-110.7 69.5,-106.09 69.5,-101.52"/>
<polygon fill="black" stroke="black" points="69.5,-91.17 74,-101.17 69.5,-96.17 69.5,-101.17 69.5,-101.17 69.5,-101.17 69.5,-96.17 65,-101.17 69.5,-91.17 69.5,-91.17"/>
<text text-anchor="middle" x="94" y="-101.4" font-family="Times,serif" font-size="7.00">FLOAT(a,b,1)</text>
</g>
<!-- O_3 -->
<g id="node4" class="node">
<title>O_3</title>
<path fill="#aaaaee" stroke="#888888" d="M119.5,-38C119.5,-38 19.5,-38 19.5,-38 13.5,-38 7.5,-32 7.5,-26 7.5,-26 7.5,-12 7.5,-12 7.5,-6 13.5,0 19.5,0 19.5,0 119.5,0 119.5,0 125.5,0 131.5,-6 131.5,-12 131.5,-12 131.5,-26 131.5,-26 131.5,-32 125.5,-38 119.5,-38"/>
<text text-anchor="middle" x="69.5" y="-22.8" font-family="Times,serif" font-size="14.00" fill="#222222">Y</text>
<text text-anchor="middle" x="69.5" y="-7.8" font-family="Times,serif" font-size="14.00" fill="#222222">FLOAT(1,1,a,b)</text>
</g>
<!-- Unsqueeze_2&#45;&gt;O_3 -->
<g id="edge3" class="edge">
<title>Unsqueeze_2&#45;&gt;O_3</title>
<path fill="none" stroke="black" d="M69.5,-54.97C69.5,-52.89 69.5,-50.72 69.5,-48.53"/>
<polygon fill="black" stroke="black" points="69.5,-38.32 74,-48.32 69.5,-43.32 69.5,-48.32 69.5,-48.32 69.5,-48.32 69.5,-43.32 65,-48.32 69.5,-38.32 69.5,-38.32"/>
</g>
</g>
</svg>
