<?xml version="1.0" encoding="UTF-8" standalone="no"?>
<!DOCTYPE svg PUBLIC "-//W3C//DTD SVG 1.1//EN"
 "http://www.w3.org/Graphics/SVG/1.1/DTD/svg11.dtd">
<!-- Generated by graphviz version 2.43.0 (0)
 -->
<!-- Title: %3 Pages: 1 -->
<svg width="288pt" height="161pt"
 viewBox="0.00 0.00 288.00 161.00" xmlns="http://www.w3.org/2000/svg" xmlns:xlink="http://www.w3.org/1999/xlink">
<g id="graph0" class="graph" transform="scale(1 1) rotate(0) translate(4 157)">
<title>%3</title>
<!-- I_0 -->
<g id="node1" class="node">
<title>I_0</title>
<path fill="#aaeeaa" stroke="#888888" d="M72,-153C72,-153 12,-153 12,-153 6,-153 0,-147 0,-141 0,-141 0,-127 0,-127 0,-121 6,-115 12,-115 12,-115 72,-115 72,-115 78,-115 84,-121 84,-127 84,-127 84,-141 84,-141 84,-147 78,-153 72,-153"/>
<text text-anchor="middle" x="42" y="-137.8" font-family="Times,serif" font-size="14.00" fill="#222222">Z</text>
<text text-anchor="middle" x="42" y="-122.8" font-family="Times,serif" font-size="14.00" fill="#222222">FLOAT(d)</text>
</g>
<!-- Add_4 -->
<g id="node5" class="node">
<title>Add_4</title>
<path fill="#cccccc" stroke="#888888" d="M106.5,-91C106.5,-91 57.5,-91 57.5,-91 51.5,-91 45.5,-85 45.5,-79 45.5,-79 45.5,-67 45.5,-67 45.5,-61 51.5,-55 57.5,-55 57.5,-55 106.5,-55 106.5,-55 112.5,-55 118.5,-61 118.5,-67 118.5,-67 118.5,-79 118.5,-79 118.5,-85 112.5,-91 106.5,-91"/>
<text text-anchor="middle" x="82" y="-69.3" font-family="Times,serif" font-size="14.00" fill="#222222">Add(., .)</text>
</g>
<!-- I_0&#45;&gt;Add_4 -->
<g id="edge4" class="edge">
<title>I_0&#45;&gt;Add_4</title>
<path fill="none" stroke="black" d="M45.87,-114.87C47.53,-109.48 49.84,-103.76 53,-99 53.06,-98.91 53.12,-98.83 53.17,-98.74"/>
<polygon fill="black" stroke="black" points="59.46,-91.13 56.56,-101.71 56.27,-94.99 53.09,-98.84 53.09,-98.84 53.09,-98.84 56.27,-94.99 49.62,-95.98 59.46,-91.13 59.46,-91.13"/>
<text text-anchor="middle" x="70.5" y="-101.4" font-family="Times,serif" font-size="7.00">FLOAT(d)</text>
</g>
<!-- I_1 -->
<g id="node2" class="node">
<title>I_1</title>
<path fill="#aaeeaa" stroke="#888888" d="M268,-153C268,-153 208,-153 208,-153 202,-153 196,-147 196,-141 196,-141 196,-127 196,-127 196,-121 202,-115 208,-115 208,-115 268,-115 268,-115 274,-115 280,-121 280,-127 280,-127 280,-141 280,-141 280,-147 274,-153 268,-153"/>
<text text-anchor="middle" x="238" y="-137.8" font-family="Times,serif" font-size="14.00" fill="#222222">Y</text>
<text text-anchor="middle" x="238" y="-122.8" font-family="Times,serif" font-size="14.00" fill="#222222">FLOAT(d)</text>
</g>
<!-- Add_3 -->
<g id="node4" class="node">
<title>Add_3</title>
<path fill="#cccccc" stroke="#888888" d="M222.5,-91C222.5,-91 173.5,-91 173.5,-91 167.5,-91 161.5,-85 161.5,-79 161.5,-79 161.5,-67 161.5,-67 161.5,-61 167.5,-55 173.5,-55 173.5,-55 222.5,-55 222.5,-55 228.5,-55 234.5,-61 234.5,-67 234.5,-67 234.5,-79 234.5,-79 234.5,-85 228.5,-91 222.5,-91"/>
<text text-anchor="middle" x="198" y="-69.3" font-family="Times,serif" font-size="14.00" fill="#222222">Add(., .)</text>
</g>
<!-- I_1&#45;&gt;Add_3 -->
<g id="edge2" class="edge">
<title>I_1&#45;&gt;Add_3</title>
<path fill="none" stroke="black" d="M225.78,-114.98C222.48,-110.11 218.85,-104.76 215.33,-99.57"/>
<polygon fill="black" stroke="black" points="209.6,-91.1 218.93,-96.86 212.4,-95.24 215.21,-99.38 215.21,-99.38 215.21,-99.38 212.4,-95.24 211.48,-101.91 209.6,-91.1 209.6,-91.1"/>
<text text-anchor="middle" x="236.5" y="-101.4" font-family="Times,serif" font-size="7.00">FLOAT(d)</text>
</g>
<!-- I_2 -->
<g id="node3" class="node">
<title>I_2</title>
<path fill="#aaeeaa" stroke="#888888" d="M170,-153C170,-153 110,-153 110,-153 104,-153 98,-147 98,-141 98,-141 98,-127 98,-127 98,-121 104,-115 110,-115 110,-115 170,-115 170,-115 176,-115 182,-121 182,-127 182,-127 182,-141 182,-141 182,-147 176,-153 170,-153"/>
<text text-anchor="middle" x="140" y="-137.8" font-family="Times,serif" font-size="14.00" fill="#222222">X</text>
<text text-anchor="middle" x="140" y="-122.8" font-family="Times,serif" font-size="14.00" fill="#222222">FLOAT(d)</text>
</g>
<!-- I_2&#45;&gt;Add_3 -->
<g id="edge1" class="edge">
<title>I_2&#45;&gt;Add_3</title>
<path fill="none" stroke="black" d="M157.72,-114.98C162.85,-109.76 168.54,-103.97 173.98,-98.43"/>
<polygon fill="black" stroke="black" points="181.19,-91.1 177.38,-101.39 177.68,-94.67 174.17,-98.24 174.17,-98.24 174.17,-98.24 177.68,-94.67 170.97,-95.08 181.19,-91.1 181.19,-91.1"/>
<text text-anchor="middle" x="189.5" y="-101.4" font-family="Times,serif" font-size="7.00">FLOAT(d)</text>
</g>
<!-- I_2&#45;&gt;Add_4 -->
<g id="edge3" class="edge">
<title>I_2&#45;&gt;Add_4</title>
<path fill="none" stroke="black" d="M122.28,-114.98C117.15,-109.76 111.46,-103.97 106.02,-98.43"/>
<polygon fill="black" stroke="black" points="98.81,-91.1 109.03,-95.08 102.32,-94.67 105.83,-98.24 105.83,-98.24 105.83,-98.24 102.32,-94.67 102.62,-101.39 98.81,-91.1 98.81,-91.1"/>
<text text-anchor="middle" x="130.5" y="-101.4" font-family="Times,serif" font-size="7.00">FLOAT(d)</text>
</g>
<!-- O_5 -->
<g id="node6" class="node">
<title>O_5</title>
<path fill="#aaaaee" stroke="#888888" d="M228,-38C228,-38 168,-38 168,-38 162,-38 156,-32 156,-26 156,-26 156,-12 156,-12 156,-6 162,0 168,0 168,0 228,0 228,0 234,0 240,-6 240,-12 240,-12 240,-26 240,-26 240,-32 234,-38 228,-38"/>
<text text-anchor="middle" x="198" y="-22.8" font-family="Times,serif" font-size="14.00" fill="#222222">F1</text>
<text text-anchor="middle" x="198" y="-7.8" font-family="Times,serif" font-size="14.00" fill="#222222">FLOAT(d)</text>
</g>
<!-- Add_3&#45;&gt;O_5 -->
<g id="edge5" class="edge">
<title>Add_3&#45;&gt;O_5</title>
<path fill="none" stroke="black" d="M198,-54.97C198,-52.89 198,-50.72 198,-48.53"/>
<polygon fill="black" stroke="black" points="198,-38.32 202.5,-48.32 198,-43.32 198,-48.32 198,-48.32 198,-48.32 198,-43.32 193.5,-48.32 198,-38.32 198,-38.32"/>
</g>
<!-- O_6 -->
<g id="node7" class="node">
<title>O_6</title>
<path fill="#aaaaee" stroke="#888888" d="M112,-38C112,-38 52,-38 52,-38 46,-38 40,-32 40,-26 40,-26 40,-12 40,-12 40,-6 46,0 52,0 52,0 112,0 112,0 118,0 124,-6 124,-12 124,-12 124,-26 124,-26 124,-32 118,-38 112,-38"/>
<text text-anchor="middle" x="82" y="-22.8" font-family="Times,serif" font-size="14.00" fill="#222222">F2</text>
<text text-anchor="middle" x="82" y="-7.8" font-family="Times,serif" font-size="14.00" fill="#222222">FLOAT(d)</text>
</g>
<!-- Add_4&#45;&gt;O_6 -->
<g id="edge6" class="edge">
<title>Add_4&#45;&gt;O_6</title>
<path fill="none" stroke="black" d="M82,-54.97C82,-52.89 82,-50.72 82,-48.53"/>
<polygon fill="black" stroke="black" points="82,-38.32 86.5,-48.32 82,-43.32 82,-48.32 82,-48.32 82,-48.32 82,-43.32 77.5,-48.32 82,-38.32 82,-38.32"/>
</g>
</g>
</svg>
