<?xml version="1.0" encoding="UTF-8" standalone="no"?>
<!DOCTYPE svg PUBLIC "-//W3C//DTD SVG 1.1//EN"
 "http://www.w3.org/Graphics/SVG/1.1/DTD/svg11.dtd">
<!-- Generated by graphviz version 2.43.0 (0)
 -->
<!-- Title: %3 Pages: 1 -->
<svg width="322pt" height="223pt"
 viewBox="0.00 0.00 321.50 223.00" xmlns="http://www.w3.org/2000/svg" xmlns:xlink="http://www.w3.org/1999/xlink">
<g id="graph0" class="graph" transform="scale(1 1) rotate(0) translate(4 219)">
<title>%3</title>
<!-- I_0 -->
<g id="node1" class="node">
<title>I_0</title>
<path fill="#aaeeaa" stroke="#888888" d="M137.5,-215C137.5,-215 63.5,-215 63.5,-215 57.5,-215 51.5,-209 51.5,-203 51.5,-203 51.5,-189 51.5,-189 51.5,-183 57.5,-177 63.5,-177 63.5,-177 137.5,-177 137.5,-177 143.5,-177 149.5,-183 149.5,-189 149.5,-189 149.5,-203 149.5,-203 149.5,-209 143.5,-215 137.5,-215"/>
<text text-anchor="middle" x="100.5" y="-199.8" font-family="Times,serif" font-size="14.00" fill="#222222">B</text>
<text text-anchor="middle" x="100.5" y="-184.8" font-family="Times,serif" font-size="14.00" fill="#222222">FLOAT(3,2)</text>
</g>
<!-- Transpose_2 -->
<g id="node3" class="node">
<title>Transpose_2</title>
<path fill="#ee99ee" stroke="#888888" d="M189,-152C189,-152 12,-152 12,-152 6,-152 0,-146 0,-140 0,-140 0,-128 0,-128 0,-122 6,-116 12,-116 12,-116 189,-116 189,-116 195,-116 201,-122 201,-128 201,-128 201,-140 201,-140 201,-146 195,-152 189,-152"/>
<text text-anchor="middle" x="100.5" y="-130.3" font-family="Times,serif" font-size="14.00" fill="#222222">Transpose(., perm=[1, 0])</text>
</g>
<!-- I_0&#45;&gt;Transpose_2 -->
<g id="edge1" class="edge">
<title>I_0&#45;&gt;Transpose_2</title>
<path fill="none" stroke="black" d="M100.5,-177C100.5,-172.45 100.5,-167.46 100.5,-162.55"/>
<polygon fill="black" stroke="black" points="100.5,-152.17 105,-162.17 100.5,-157.17 100.5,-162.17 100.5,-162.17 100.5,-162.17 100.5,-157.17 96,-162.17 100.5,-152.17 100.5,-152.17"/>
<text text-anchor="middle" x="121.5" y="-163.4" font-family="Times,serif" font-size="7.00">FLOAT(3,2)</text>
</g>
<!-- I_1 -->
<g id="node2" class="node">
<title>I_1</title>
<path fill="#aaeeaa" stroke="#888888" d="M301.5,-153C301.5,-153 227.5,-153 227.5,-153 221.5,-153 215.5,-147 215.5,-141 215.5,-141 215.5,-127 215.5,-127 215.5,-121 221.5,-115 227.5,-115 227.5,-115 301.5,-115 301.5,-115 307.5,-115 313.5,-121 313.5,-127 313.5,-127 313.5,-141 313.5,-141 313.5,-147 307.5,-153 301.5,-153"/>
<text text-anchor="middle" x="264.5" y="-137.8" font-family="Times,serif" font-size="14.00" fill="#222222">X</text>
<text text-anchor="middle" x="264.5" y="-122.8" font-family="Times,serif" font-size="14.00" fill="#222222">FLOAT(2,3)</text>
</g>
<!-- Gemm_3 -->
<g id="node4" class="node">
<title>Gemm_3</title>
<path fill="#cccccc" stroke="#888888" d="M216.5,-91C216.5,-91 148.5,-91 148.5,-91 142.5,-91 136.5,-85 136.5,-79 136.5,-79 136.5,-67 136.5,-67 136.5,-61 142.5,-55 148.5,-55 148.5,-55 216.5,-55 216.5,-55 222.5,-55 228.5,-61 228.5,-67 228.5,-67 228.5,-79 228.5,-79 228.5,-85 222.5,-91 216.5,-91"/>
<text text-anchor="middle" x="182.5" y="-69.3" font-family="Times,serif" font-size="14.00" fill="#222222">Gemm(., .)</text>
</g>
<!-- I_1&#45;&gt;Gemm_3 -->
<g id="edge2" class="edge">
<title>I_1&#45;&gt;Gemm_3</title>
<path fill="none" stroke="black" d="M239.45,-114.98C231.62,-109.34 222.87,-103.05 214.62,-97.11"/>
<polygon fill="black" stroke="black" points="206.27,-91.1 217.02,-93.29 210.33,-94.03 214.39,-96.95 214.39,-96.95 214.39,-96.95 210.33,-94.03 211.76,-100.6 206.27,-91.1 206.27,-91.1"/>
<text text-anchor="middle" x="246.5" y="-101.4" font-family="Times,serif" font-size="7.00">FLOAT(2,3)</text>
</g>
<!-- Transpose_2&#45;&gt;Gemm_3 -->
<g id="edge3" class="edge">
<title>Transpose_2&#45;&gt;Gemm_3</title>
<path fill="none" stroke="black" d="M124.22,-115.93C132.46,-110 141.85,-103.25 150.64,-96.92"/>
<polygon fill="black" stroke="black" points="158.84,-91.03 153.35,-100.52 154.78,-93.95 150.72,-96.87 150.72,-96.87 150.72,-96.87 154.78,-93.95 148.09,-93.21 158.84,-91.03 158.84,-91.03"/>
<text text-anchor="middle" x="167.5" y="-101.4" font-family="Times,serif" font-size="7.00">FLOAT(2,3)</text>
</g>
<!-- O_4 -->
<g id="node5" class="node">
<title>O_4</title>
<path fill="#aaaaee" stroke="#888888" d="M219.5,-38C219.5,-38 145.5,-38 145.5,-38 139.5,-38 133.5,-32 133.5,-26 133.5,-26 133.5,-12 133.5,-12 133.5,-6 139.5,0 145.5,0 145.5,0 219.5,0 219.5,0 225.5,0 231.5,-6 231.5,-12 231.5,-12 231.5,-26 231.5,-26 231.5,-32 225.5,-38 219.5,-38"/>
<text text-anchor="middle" x="182.5" y="-22.8" font-family="Times,serif" font-size="14.00" fill="#222222">Z</text>
<text text-anchor="middle" x="182.5" y="-7.8" font-family="Times,serif" font-size="14.00" fill="#222222">FLOAT(2,2)</text>
</g>
<!-- Gemm_3&#45;&gt;O_4 -->
<g id="edge4" class="edge">
<title>Gemm_3&#45;&gt;O_4</title>
<path fill="none" stroke="black" d="M182.5,-54.97C182.5,-52.89 182.5,-50.72 182.5,-48.53"/>
<polygon fill="black" stroke="black" points="182.5,-38.32 187,-48.32 182.5,-43.32 182.5,-48.32 182.5,-48.32 182.5,-48.32 182.5,-43.32 178,-48.32 182.5,-38.32 182.5,-38.32"/>
</g>
</g>
</svg>
