<?xml version="1.0" encoding="UTF-8" standalone="no"?>
<!DOCTYPE svg PUBLIC "-//W3C//DTD SVG 1.1//EN"
 "http://www.w3.org/Graphics/SVG/1.1/DTD/svg11.dtd">
<!-- Generated by graphviz version 2.43.0 (0)
 -->
<!-- Title: %3 Pages: 1 -->
<svg width="426pt" height="281pt"
 viewBox="0.00 0.00 425.50 281.00" xmlns="http://www.w3.org/2000/svg" xmlns:xlink="http://www.w3.org/1999/xlink">
<g id="graph0" class="graph" transform="scale(1 1) rotate(0) translate(4 277)">
<title>%3</title>
<!-- I_0 -->
<g id="node1" class="node">
<title>I_0</title>
<path fill="#aaeeaa" stroke="#888888" d="M274,-273C274,-273 201,-273 201,-273 195,-273 189,-267 189,-261 189,-261 189,-247 189,-247 189,-241 195,-235 201,-235 201,-235 274,-235 274,-235 280,-235 286,-241 286,-247 286,-247 286,-261 286,-261 286,-267 280,-273 274,-273"/>
<text text-anchor="middle" x="237.5" y="-257.8" font-family="Times,serif" font-size="14.00" fill="#222222">X</text>
<text text-anchor="middle" x="237.5" y="-242.8" font-family="Times,serif" font-size="14.00" fill="#222222">FLOAT(a,1)</text>
</g>
<!-- Shape_3 -->
<g id="node4" class="node">
<title>Shape_3</title>
<path fill="#d2a81f" stroke="#888888" d="M185,-211C185,-211 12,-211 12,-211 6,-211 0,-205 0,-199 0,-199 0,-187 0,-187 0,-181 6,-175 12,-175 12,-175 185,-175 185,-175 191,-175 197,-181 197,-187 197,-187 197,-199 197,-199 197,-205 191,-211 185,-211"/>
<text text-anchor="middle" x="98.5" y="-189.3" font-family="Times,serif" font-size="14.00" fill="#222222">Shape(., end=1, start=0)</text>
</g>
<!-- I_0&#45;&gt;Shape_3 -->
<g id="edge1" class="edge">
<title>I_0&#45;&gt;Shape_3</title>
<path fill="none" stroke="black" d="M195.04,-234.98C180.23,-228.69 163.48,-221.58 148.14,-215.07"/>
<polygon fill="black" stroke="black" points="138.8,-211.1 149.76,-210.87 143.4,-213.06 148,-215.01 148,-215.01 148,-215.01 143.4,-213.06 146.24,-219.15 138.8,-211.1 138.8,-211.1"/>
<text text-anchor="middle" x="193.5" y="-221.4" font-family="Times,serif" font-size="7.00">FLOAT(a,1)</text>
</g>
<!-- Expand_5 -->
<g id="node6" class="node">
<title>Expand_5</title>
<path fill="#cccccc" stroke="#888888" d="M364,-91C364,-91 289,-91 289,-91 283,-91 277,-85 277,-79 277,-79 277,-67 277,-67 277,-61 283,-55 289,-55 289,-55 364,-55 364,-55 370,-55 376,-61 376,-67 376,-67 376,-79 376,-79 376,-85 370,-91 364,-91"/>
<text text-anchor="middle" x="326.5" y="-69.3" font-family="Times,serif" font-size="14.00" fill="#222222">Expand(., .)</text>
</g>
<!-- I_0&#45;&gt;Expand_5 -->
<g id="edge4" class="edge">
<title>I_0&#45;&gt;Expand_5</title>
<path fill="none" stroke="black" d="M286.19,-237.22C320.4,-226.02 360.3,-212.68 361.5,-211 386.36,-176.33 376.26,-155.03 361.5,-115 359.43,-109.37 356.2,-104 352.52,-99.1"/>
<polygon fill="black" stroke="black" points="346.04,-91.34 355.91,-96.13 349.25,-95.17 352.45,-99.01 352.45,-99.01 352.45,-99.01 349.25,-95.17 349,-101.9 346.04,-91.34 346.04,-91.34"/>
<text text-anchor="middle" x="396.5" y="-161.4" font-family="Times,serif" font-size="7.00">FLOAT(a,1)</text>
</g>
<!-- I_1 -->
<g id="node2" class="node">
<title>I_1</title>
<path fill="#aaeeaa" stroke="#888888" d="M368.5,-273C368.5,-273 312.5,-273 312.5,-273 306.5,-273 300.5,-267 300.5,-261 300.5,-261 300.5,-247 300.5,-247 300.5,-241 306.5,-235 312.5,-235 312.5,-235 368.5,-235 368.5,-235 374.5,-235 380.5,-241 380.5,-247 380.5,-247 380.5,-261 380.5,-261 380.5,-267 374.5,-273 368.5,-273"/>
<text text-anchor="middle" x="340.5" y="-257.8" font-family="Times,serif" font-size="14.00" fill="#222222">two</text>
<text text-anchor="middle" x="340.5" y="-242.8" font-family="Times,serif" font-size="14.00" fill="#222222">INT64(1)</text>
</g>
<!-- Constant_2 -->
<g id="node3" class="node">
<title>Constant_2</title>
<path fill="#cccccc" stroke="#888888" d="M342,-211C342,-211 223,-211 223,-211 217,-211 211,-205 211,-199 211,-199 211,-187 211,-187 211,-181 217,-175 223,-175 223,-175 342,-175 342,-175 348,-175 354,-181 354,-187 354,-187 354,-199 354,-199 354,-205 348,-211 342,-211"/>
<text text-anchor="middle" x="282.5" y="-189.3" font-family="Times,serif" font-size="14.00" fill="#222222">Constant() &#45;&gt; two</text>
</g>
<!-- Concat_4 -->
<g id="node5" class="node">
<title>Concat_4</title>
<path fill="#cccccc" stroke="#888888" d="M342,-151C342,-151 213,-151 213,-151 207,-151 201,-145 201,-139 201,-139 201,-127 201,-127 201,-121 207,-115 213,-115 213,-115 342,-115 342,-115 348,-115 354,-121 354,-127 354,-127 354,-139 354,-139 354,-145 348,-151 342,-151"/>
<text text-anchor="middle" x="277.5" y="-129.3" font-family="Times,serif" font-size="14.00" fill="#222222">Concat(., ., axis=0)</text>
</g>
<!-- Constant_2&#45;&gt;Concat_4 -->
<g id="edge3" class="edge">
<title>Constant_2&#45;&gt;Concat_4</title>
<path fill="none" stroke="black" d="M281.03,-174.91C280.65,-170.58 280.24,-165.83 279.84,-161.14"/>
<polygon fill="black" stroke="black" points="278.98,-151.17 284.32,-160.74 279.41,-156.15 279.84,-161.13 279.84,-161.13 279.84,-161.13 279.41,-156.15 275.36,-161.52 278.98,-151.17 278.98,-151.17"/>
<text text-anchor="middle" x="296.5" y="-161.4" font-family="Times,serif" font-size="7.00">INT64(1)</text>
</g>
<!-- Shape_3&#45;&gt;Concat_4 -->
<g id="edge2" class="edge">
<title>Shape_3&#45;&gt;Concat_4</title>
<path fill="none" stroke="black" d="M151.24,-174.91C171.27,-168.42 194.27,-160.97 215.11,-154.21"/>
<polygon fill="black" stroke="black" points="224.83,-151.07 216.7,-158.43 220.07,-152.61 215.32,-154.15 215.32,-154.15 215.32,-154.15 220.07,-152.61 213.93,-149.87 224.83,-151.07 224.83,-151.07"/>
<text text-anchor="middle" x="216.5" y="-161.4" font-family="Times,serif" font-size="7.00">INT64(1)</text>
</g>
<!-- Concat_4&#45;&gt;Expand_5 -->
<g id="edge5" class="edge">
<title>Concat_4&#45;&gt;Expand_5</title>
<path fill="none" stroke="black" d="M291.94,-114.91C296.19,-109.88 300.92,-104.28 305.49,-98.86"/>
<polygon fill="black" stroke="black" points="312,-91.17 308.98,-101.71 308.77,-94.99 305.54,-98.81 305.54,-98.81 305.54,-98.81 308.77,-94.99 302.11,-95.9 312,-91.17 312,-91.17"/>
<text text-anchor="middle" x="321.5" y="-101.4" font-family="Times,serif" font-size="7.00">INT64(2)</text>
</g>
<!-- O_6 -->
<g id="node7" class="node">
<title>O_6</title>
<path fill="#aaaaee" stroke="#888888" d="M363,-38C363,-38 290,-38 290,-38 284,-38 278,-32 278,-26 278,-26 278,-12 278,-12 278,-6 284,0 290,0 290,0 363,0 363,0 369,0 375,-6 375,-12 375,-12 375,-26 375,-26 375,-32 369,-38 363,-38"/>
<text text-anchor="middle" x="326.5" y="-22.8" font-family="Times,serif" font-size="14.00" fill="#222222">Y</text>
<text text-anchor="middle" x="326.5" y="-7.8" font-family="Times,serif" font-size="14.00" fill="#222222">FLOAT(a,2)</text>
</g>
<!-- Expand_5&#45;&gt;O_6 -->
<g id="edge6" class="edge">
<title>Expand_5&#45;&gt;O_6</title>
<path fill="none" stroke="black" d="M326.5,-54.97C326.5,-52.89 326.5,-50.72 326.5,-48.53"/>
<polygon fill="black" stroke="black" points="326.5,-38.32 331,-48.32 326.5,-43.32 326.5,-48.32 326.5,-48.32 326.5,-48.32 326.5,-43.32 322,-48.32 326.5,-38.32 326.5,-38.32"/>
</g>
</g>
</svg>
