<?xml version="1.0" encoding="UTF-8" standalone="no"?>
<!DOCTYPE svg PUBLIC "-//W3C//DTD SVG 1.1//EN"
 "http://www.w3.org/Graphics/SVG/1.1/DTD/svg11.dtd">
<!-- Generated by graphviz version 2.43.0 (0)
 -->
<!-- Title: %3 Pages: 1 -->
<svg width="613pt" height="214pt"
 viewBox="0.00 0.00 613.00 214.00" xmlns="http://www.w3.org/2000/svg" xmlns:xlink="http://www.w3.org/1999/xlink">
<g id="graph0" class="graph" transform="scale(1 1) rotate(0) translate(4 210)">
<title>%3</title>
<!-- I_0 -->
<g id="node1" class="node">
<title>I_0</title>
<path fill="#aaeeaa" stroke="#888888" d="M247.5,-206C247.5,-206 174.5,-206 174.5,-206 168.5,-206 162.5,-200 162.5,-194 162.5,-194 162.5,-180 162.5,-180 162.5,-174 168.5,-168 174.5,-168 174.5,-168 247.5,-168 247.5,-168 253.5,-168 259.5,-174 259.5,-180 259.5,-180 259.5,-194 259.5,-194 259.5,-200 253.5,-206 247.5,-206"/>
<text text-anchor="middle" x="211" y="-190.8" font-family="Times,serif" font-size="14.00" fill="#222222">X</text>
<text text-anchor="middle" x="211" y="-175.8" font-family="Times,serif" font-size="14.00" fill="#222222">FLOAT(a,b)</text>
</g>
<!-- Slice_5 -->
<g id="node6" class="node">
<title>Slice_5</title>
<path fill="#cccccc" stroke="#888888" d="M252.5,-144C252.5,-144 169.5,-144 169.5,-144 163.5,-144 157.5,-138 157.5,-132 157.5,-132 157.5,-120 157.5,-120 157.5,-114 163.5,-108 169.5,-108 169.5,-108 252.5,-108 252.5,-108 258.5,-108 264.5,-114 264.5,-120 264.5,-120 264.5,-132 264.5,-132 264.5,-138 258.5,-144 252.5,-144"/>
<text text-anchor="middle" x="211" y="-122.3" font-family="Times,serif" font-size="14.00" fill="#222222">Slice(., ., ., .)</text>
</g>
<!-- I_0&#45;&gt;Slice_5 -->
<g id="edge1" class="edge">
<title>I_0&#45;&gt;Slice_5</title>
<path fill="none" stroke="black" d="M211,-167.98C211,-163.71 211,-159.06 211,-154.47"/>
<polygon fill="black" stroke="black" points="211,-144.1 215.5,-154.1 211,-149.1 211,-154.1 211,-154.1 211,-154.1 211,-149.1 206.5,-154.1 211,-144.1 211,-144.1"/>
<text text-anchor="middle" x="232" y="-154.4" font-family="Times,serif" font-size="7.00">FLOAT(a,b)</text>
</g>
<!-- I_1 -->
<g id="node2" class="node">
<title>I_1</title>
<path fill="#aaeeaa" stroke="#888888" d="M499,-206C499,-206 443,-206 443,-206 437,-206 431,-200 431,-194 431,-194 431,-180 431,-180 431,-174 437,-168 443,-168 443,-168 499,-168 499,-168 505,-168 511,-174 511,-180 511,-180 511,-194 511,-194 511,-200 505,-206 499,-206"/>
<text text-anchor="middle" x="471" y="-190.8" font-family="Times,serif" font-size="14.00" fill="#222222">one</text>
<text text-anchor="middle" x="471" y="-175.8" font-family="Times,serif" font-size="14.00" fill="#222222">INT64(1)</text>
</g>
<!-- I_2 -->
<g id="node3" class="node">
<title>I_2</title>
<path fill="#aaeeaa" stroke="#888888" d="M593,-206C593,-206 537,-206 537,-206 531,-206 525,-200 525,-194 525,-194 525,-180 525,-180 525,-174 531,-168 537,-168 537,-168 593,-168 593,-168 599,-168 605,-174 605,-180 605,-180 605,-194 605,-194 605,-200 599,-206 593,-206"/>
<text text-anchor="middle" x="565" y="-190.8" font-family="Times,serif" font-size="14.00" fill="#222222">zero</text>
<text text-anchor="middle" x="565" y="-175.8" font-family="Times,serif" font-size="14.00" fill="#222222">INT64(1)</text>
</g>
<!-- Constant_3 -->
<g id="node4" class="node">
<title>Constant_3</title>
<path fill="#cccccc" stroke="#888888" d="M136,-205C136,-205 12,-205 12,-205 6,-205 0,-199 0,-193 0,-193 0,-181 0,-181 0,-175 6,-169 12,-169 12,-169 136,-169 136,-169 142,-169 148,-175 148,-181 148,-181 148,-193 148,-193 148,-199 142,-205 136,-205"/>
<text text-anchor="middle" x="74" y="-183.3" font-family="Times,serif" font-size="14.00" fill="#222222">Constant() &#45;&gt; zero</text>
</g>
<!-- Constant_3&#45;&gt;Slice_5 -->
<g id="edge2" class="edge">
<title>Constant_3&#45;&gt;Slice_5</title>
<path fill="none" stroke="black" d="M113.63,-168.93C128.68,-162.45 146.01,-154.99 161.84,-148.17"/>
<polygon fill="black" stroke="black" points="171.46,-144.03 164.06,-152.12 166.87,-146 162.28,-147.98 162.28,-147.98 162.28,-147.98 166.87,-146 160.5,-143.85 171.46,-144.03 171.46,-144.03"/>
<text text-anchor="middle" x="168" y="-154.4" font-family="Times,serif" font-size="7.00">INT64(1)</text>
</g>
<!-- Slice_6 -->
<g id="node7" class="node">
<title>Slice_6</title>
<path fill="#cccccc" stroke="#888888" d="M252.5,-91C252.5,-91 169.5,-91 169.5,-91 163.5,-91 157.5,-85 157.5,-79 157.5,-79 157.5,-67 157.5,-67 157.5,-61 163.5,-55 169.5,-55 169.5,-55 252.5,-55 252.5,-55 258.5,-55 264.5,-61 264.5,-67 264.5,-67 264.5,-79 264.5,-79 264.5,-85 258.5,-91 252.5,-91"/>
<text text-anchor="middle" x="211" y="-69.3" font-family="Times,serif" font-size="14.00" fill="#222222">Slice(., ., ., .)</text>
</g>
<!-- Constant_3&#45;&gt;Slice_6 -->
<g id="edge5" class="edge">
<title>Constant_3&#45;&gt;Slice_6</title>
<path fill="none" stroke="black" d="M79.19,-168.74C85.31,-151.17 97.11,-124.25 116,-108 125.13,-100.15 136.21,-94.06 147.53,-89.36"/>
<polygon fill="black" stroke="black" points="157.06,-85.72 149.32,-93.49 152.39,-87.5 147.72,-89.29 147.72,-89.29 147.72,-89.29 152.39,-87.5 146.11,-85.08 157.06,-85.72 157.06,-85.72"/>
<text text-anchor="middle" x="133" y="-124.4" font-family="Times,serif" font-size="7.00">INT64(1)</text>
</g>
<!-- Constant_4 -->
<g id="node5" class="node">
<title>Constant_4</title>
<path fill="#cccccc" stroke="#888888" d="M404.5,-205C404.5,-205 285.5,-205 285.5,-205 279.5,-205 273.5,-199 273.5,-193 273.5,-193 273.5,-181 273.5,-181 273.5,-175 279.5,-169 285.5,-169 285.5,-169 404.5,-169 404.5,-169 410.5,-169 416.5,-175 416.5,-181 416.5,-181 416.5,-193 416.5,-193 416.5,-199 410.5,-205 404.5,-205"/>
<text text-anchor="middle" x="345" y="-183.3" font-family="Times,serif" font-size="14.00" fill="#222222">Constant() &#45;&gt; one</text>
</g>
<!-- Constant_4&#45;&gt;Slice_5 -->
<g id="edge3" class="edge">
<title>Constant_4&#45;&gt;Slice_5</title>
<path fill="none" stroke="black" d="M306.24,-168.93C291.52,-162.45 274.57,-154.99 259.09,-148.17"/>
<polygon fill="black" stroke="black" points="249.67,-144.03 260.64,-143.94 254.25,-146.04 258.82,-148.06 258.82,-148.06 258.82,-148.06 254.25,-146.04 257.01,-152.18 249.67,-144.03 249.67,-144.03"/>
<text text-anchor="middle" x="300" y="-154.4" font-family="Times,serif" font-size="7.00">INT64(1)</text>
</g>
<!-- Constant_4&#45;&gt;Slice_6 -->
<g id="edge6" class="edge">
<title>Constant_4&#45;&gt;Slice_6</title>
<path fill="none" stroke="black" d="M333.45,-168.86C329.42,-163.29 324.72,-157.21 320,-152 300.34,-130.32 294.76,-125.09 271,-108 265.38,-103.96 259.25,-100.01 253.11,-96.32"/>
<polygon fill="black" stroke="black" points="244.18,-91.11 255.08,-92.26 248.5,-93.63 252.82,-96.15 252.82,-96.15 252.82,-96.15 248.5,-93.63 250.55,-100.04 244.18,-91.11 244.18,-91.11"/>
<text text-anchor="middle" x="329" y="-124.4" font-family="Times,serif" font-size="7.00">INT64(1)</text>
</g>
<!-- Slice_5&#45;&gt;Slice_6 -->
<g id="edge4" class="edge">
<title>Slice_5&#45;&gt;Slice_6</title>
<path fill="none" stroke="black" d="M211,-107.73C211,-105.66 211,-103.5 211,-101.32"/>
<polygon fill="black" stroke="black" points="211,-91.25 215.5,-101.25 211,-96.25 211,-101.25 211,-101.25 211,-101.25 211,-96.25 206.5,-101.25 211,-91.25 211,-91.25"/>
</g>
<!-- O_7 -->
<g id="node8" class="node">
<title>O_7</title>
<path fill="#aaaaee" stroke="#888888" d="M247,-38C247,-38 175,-38 175,-38 169,-38 163,-32 163,-26 163,-26 163,-12 163,-12 163,-6 169,0 175,0 175,0 247,0 247,0 253,0 259,-6 259,-12 259,-12 259,-26 259,-26 259,-32 253,-38 247,-38"/>
<text text-anchor="middle" x="211" y="-22.8" font-family="Times,serif" font-size="14.00" fill="#222222">Y</text>
<text text-anchor="middle" x="211" y="-7.8" font-family="Times,serif" font-size="14.00" fill="#222222">FLOAT(c,d)</text>
</g>
<!-- Slice_6&#45;&gt;O_7 -->
<g id="edge7" class="edge">
<title>Slice_6&#45;&gt;O_7</title>
<path fill="none" stroke="black" d="M211,-54.97C211,-52.89 211,-50.72 211,-48.53"/>
<polygon fill="black" stroke="black" points="211,-38.32 215.5,-48.32 211,-43.32 211,-48.32 211,-48.32 211,-48.32 211,-43.32 206.5,-48.32 211,-38.32 211,-38.32"/>
</g>
</g>
</svg>
