<?xml version="1.0" encoding="UTF-8" standalone="no"?>
<!DOCTYPE svg PUBLIC "-//W3C//DTD SVG 1.1//EN"
 "http://www.w3.org/Graphics/SVG/1.1/DTD/svg11.dtd">
<!-- Generated by graphviz version 2.43.0 (0)
 -->
<!-- Title: %3 Pages: 1 -->
<svg width="412pt" height="223pt"
 viewBox="0.00 0.00 411.50 223.00" xmlns="http://www.w3.org/2000/svg" xmlns:xlink="http://www.w3.org/1999/xlink">
<g id="graph0" class="graph" transform="scale(1 1) rotate(0) translate(4 219)">
<title>%3</title>
<!-- I_0 -->
<g id="node1" class="node">
<title>I_0</title>
<path fill="#aaeeaa" stroke="#888888" d="M182.5,-215C182.5,-215 54.5,-215 54.5,-215 48.5,-215 42.5,-209 42.5,-203 42.5,-203 42.5,-189 42.5,-189 42.5,-183 48.5,-177 54.5,-177 54.5,-177 182.5,-177 182.5,-177 188.5,-177 194.5,-183 194.5,-189 194.5,-189 194.5,-203 194.5,-203 194.5,-209 188.5,-215 182.5,-215"/>
<text text-anchor="middle" x="118.5" y="-199.8" font-family="Times,serif" font-size="14.00" fill="#222222">X</text>
<text text-anchor="middle" x="118.5" y="-184.8" font-family="Times,serif" font-size="14.00" fill="#222222">FLOAT(2,2,32,128)</text>
</g>
<!-- Transpose_2 -->
<g id="node3" class="node">
<title>Transpose_2</title>
<path fill="#ee99ee" stroke="#888888" d="M225,-152C225,-152 12,-152 12,-152 6,-152 0,-146 0,-140 0,-140 0,-128 0,-128 0,-122 6,-116 12,-116 12,-116 225,-116 225,-116 231,-116 237,-122 237,-128 237,-128 237,-140 237,-140 237,-146 231,-152 225,-152"/>
<text text-anchor="middle" x="118.5" y="-130.3" font-family="Times,serif" font-size="14.00" fill="#222222">Transpose(., perm=[0, 1, 3, 2])</text>
</g>
<!-- I_0&#45;&gt;Transpose_2 -->
<g id="edge1" class="edge">
<title>I_0&#45;&gt;Transpose_2</title>
<path fill="none" stroke="black" d="M118.5,-177C118.5,-172.45 118.5,-167.46 118.5,-162.55"/>
<polygon fill="black" stroke="black" points="118.5,-152.17 123,-162.17 118.5,-157.17 118.5,-162.17 118.5,-162.17 118.5,-162.17 118.5,-157.17 114,-162.17 118.5,-152.17 118.5,-152.17"/>
<text text-anchor="middle" x="153" y="-163.4" font-family="Times,serif" font-size="7.00">FLOAT(2,2,32,128)</text>
</g>
<!-- I_1 -->
<g id="node2" class="node">
<title>I_1</title>
<path fill="#aaeeaa" stroke="#888888" d="M391.5,-153C391.5,-153 263.5,-153 263.5,-153 257.5,-153 251.5,-147 251.5,-141 251.5,-141 251.5,-127 251.5,-127 251.5,-121 257.5,-115 263.5,-115 263.5,-115 391.5,-115 391.5,-115 397.5,-115 403.5,-121 403.5,-127 403.5,-127 403.5,-141 403.5,-141 403.5,-147 397.5,-153 391.5,-153"/>
<text text-anchor="middle" x="327.5" y="-137.8" font-family="Times,serif" font-size="14.00" fill="#222222">Y</text>
<text text-anchor="middle" x="327.5" y="-122.8" font-family="Times,serif" font-size="14.00" fill="#222222">FLOAT(2,2,64,128)</text>
</g>
<!-- MatMul_3 -->
<g id="node4" class="node">
<title>MatMul_3</title>
<path fill="#ee9999" stroke="#888888" d="M262,-91C262,-91 185,-91 185,-91 179,-91 173,-85 173,-79 173,-79 173,-67 173,-67 173,-61 179,-55 185,-55 185,-55 262,-55 262,-55 268,-55 274,-61 274,-67 274,-67 274,-79 274,-79 274,-85 268,-91 262,-91"/>
<text text-anchor="middle" x="223.5" y="-69.3" font-family="Times,serif" font-size="14.00" fill="#222222">MatMul(., .)</text>
</g>
<!-- I_1&#45;&gt;MatMul_3 -->
<g id="edge2" class="edge">
<title>I_1&#45;&gt;MatMul_3</title>
<path fill="none" stroke="black" d="M295.73,-114.98C285.28,-109.05 273.53,-102.38 262.6,-96.18"/>
<polygon fill="black" stroke="black" points="253.65,-91.1 264.57,-92.13 258,-93.57 262.35,-96.04 262.35,-96.04 262.35,-96.04 258,-93.57 260.13,-99.95 253.65,-91.1 253.65,-91.1"/>
<text text-anchor="middle" x="313" y="-101.4" font-family="Times,serif" font-size="7.00">FLOAT(2,2,64,128)</text>
</g>
<!-- Transpose_2&#45;&gt;MatMul_3 -->
<g id="edge3" class="edge">
<title>Transpose_2&#45;&gt;MatMul_3</title>
<path fill="none" stroke="black" d="M148.87,-115.93C159.97,-109.7 172.69,-102.55 184.44,-95.95"/>
<polygon fill="black" stroke="black" points="193.2,-91.03 186.68,-99.85 188.84,-93.48 184.48,-95.93 184.48,-95.93 184.48,-95.93 188.84,-93.48 182.28,-92 193.2,-91.03 193.2,-91.03"/>
<text text-anchor="middle" x="212" y="-101.4" font-family="Times,serif" font-size="7.00">FLOAT(2,2,128,32)</text>
</g>
<!-- O_4 -->
<g id="node5" class="node">
<title>O_4</title>
<path fill="#aaaaee" stroke="#888888" d="M283,-38C283,-38 164,-38 164,-38 158,-38 152,-32 152,-26 152,-26 152,-12 152,-12 152,-6 158,0 164,0 164,0 283,0 283,0 289,0 295,-6 295,-12 295,-12 295,-26 295,-26 295,-32 289,-38 283,-38"/>
<text text-anchor="middle" x="223.5" y="-22.8" font-family="Times,serif" font-size="14.00" fill="#222222">Z</text>
<text text-anchor="middle" x="223.5" y="-7.8" font-family="Times,serif" font-size="14.00" fill="#222222">FLOAT(2,2,64,32)</text>
</g>
<!-- MatMul_3&#45;&gt;O_4 -->
<g id="edge4" class="edge">
<title>MatMul_3&#45;&gt;O_4</title>
<path fill="none" stroke="black" d="M223.5,-54.97C223.5,-52.89 223.5,-50.72 223.5,-48.53"/>
<polygon fill="black" stroke="black" points="223.5,-38.32 228,-48.32 223.5,-43.32 223.5,-48.32 223.5,-48.32 223.5,-48.32 223.5,-43.32 219,-48.32 223.5,-38.32 223.5,-38.32"/>
</g>
</g>
</svg>
