<?xml version="1.0" encoding="UTF-8" standalone="no"?>
<!DOCTYPE svg PUBLIC "-//W3C//DTD SVG 1.1//EN"
 "http://www.w3.org/Graphics/SVG/1.1/DTD/svg11.dtd">
<!-- Generated by graphviz version 2.43.0 (0)
 -->
<!-- Title: %3 Pages: 1 -->
<svg width="870pt" height="405pt"
 viewBox="0.00 0.00 870.00 405.00" xmlns="http://www.w3.org/2000/svg" xmlns:xlink="http://www.w3.org/1999/xlink">
<g id="graph0" class="graph" transform="scale(1 1) rotate(0) translate(4 401)">
<title>%3</title>
<!-- I_0 -->
<g id="node1" class="node">
<title>I_0</title>
<path fill="#aaeeaa" stroke="#888888" d="M190,-397C190,-397 92,-397 92,-397 86,-397 80,-391 80,-385 80,-385 80,-371 80,-371 80,-365 86,-359 92,-359 92,-359 190,-359 190,-359 196,-359 202,-365 202,-371 202,-371 202,-385 202,-385 202,-391 196,-397 190,-397"/>
<text text-anchor="middle" x="141" y="-381.8" font-family="Times,serif" font-size="14.00" fill="#222222">key</text>
<text text-anchor="middle" x="141" y="-366.8" font-family="Times,serif" font-size="14.00" fill="#222222">FLOAT(a,2,c,8)</text>
</g>
<!-- Concat_6 -->
<g id="node7" class="node">
<title>Concat_6</title>
<path fill="#cccccc" stroke="#888888" d="M273.5,-335C273.5,-335 144.5,-335 144.5,-335 138.5,-335 132.5,-329 132.5,-323 132.5,-323 132.5,-311 132.5,-311 132.5,-305 138.5,-299 144.5,-299 144.5,-299 273.5,-299 273.5,-299 279.5,-299 285.5,-305 285.5,-311 285.5,-311 285.5,-323 285.5,-323 285.5,-329 279.5,-335 273.5,-335"/>
<text text-anchor="middle" x="209" y="-313.3" font-family="Times,serif" font-size="14.00" fill="#222222">Concat(., ., axis=2)</text>
</g>
<!-- I_0&#45;&gt;Concat_6 -->
<g id="edge2" class="edge">
<title>I_0&#45;&gt;Concat_6</title>
<path fill="none" stroke="black" d="M161.77,-358.98C168.06,-353.52 175.06,-347.44 181.71,-341.68"/>
<polygon fill="black" stroke="black" points="189.29,-335.1 184.68,-345.06 185.51,-338.38 181.73,-341.66 181.73,-341.66 181.73,-341.66 185.51,-338.38 178.78,-338.26 189.29,-335.1 189.29,-335.1"/>
<text text-anchor="middle" x="207.5" y="-345.4" font-family="Times,serif" font-size="7.00">FLOAT(a,2,c,8)</text>
</g>
<!-- I_1 -->
<g id="node2" class="node">
<title>I_1</title>
<path fill="#aaeeaa" stroke="#888888" d="M321,-153C321,-153 209,-153 209,-153 203,-153 197,-147 197,-141 197,-141 197,-127 197,-127 197,-121 203,-115 209,-115 209,-115 321,-115 321,-115 327,-115 333,-121 333,-127 333,-127 333,-141 333,-141 333,-147 327,-153 321,-153"/>
<text text-anchor="middle" x="265" y="-137.8" font-family="Times,serif" font-size="14.00" fill="#222222">mask</text>
<text text-anchor="middle" x="265" y="-122.8" font-family="Times,serif" font-size="14.00" fill="#222222">BOOL(a,1,c,c+h)</text>
</g>
<!-- Attention_14 -->
<g id="node15" class="node">
<title>Attention_14</title>
<path fill="#cccccc" stroke="#888888" d="M393.5,-91C393.5,-91 278.5,-91 278.5,-91 272.5,-91 266.5,-85 266.5,-79 266.5,-79 266.5,-67 266.5,-67 266.5,-61 272.5,-55 278.5,-55 278.5,-55 393.5,-55 393.5,-55 399.5,-55 405.5,-61 405.5,-67 405.5,-67 405.5,-79 405.5,-79 405.5,-85 399.5,-91 393.5,-91"/>
<text text-anchor="middle" x="336" y="-69.3" font-family="Times,serif" font-size="14.00" fill="#222222">Attention(., ., ., .)</text>
</g>
<!-- I_1&#45;&gt;Attention_14 -->
<g id="edge14" class="edge">
<title>I_1&#45;&gt;Attention_14</title>
<path fill="none" stroke="black" d="M286.69,-114.98C293.25,-109.52 300.57,-103.44 307.51,-97.68"/>
<polygon fill="black" stroke="black" points="315.42,-91.1 310.6,-100.96 311.57,-94.3 307.73,-97.5 307.73,-97.5 307.73,-97.5 311.57,-94.3 304.85,-94.04 315.42,-91.1 315.42,-91.1"/>
<text text-anchor="middle" x="335" y="-101.4" font-family="Times,serif" font-size="7.00">BOOL(a,1,c,c+h)</text>
</g>
<!-- I_2 -->
<g id="node3" class="node">
<title>I_2</title>
<path fill="#aaeeaa" stroke="#888888" d="M712,-397C712,-397 614,-397 614,-397 608,-397 602,-391 602,-385 602,-385 602,-371 602,-371 602,-365 608,-359 614,-359 614,-359 712,-359 712,-359 718,-359 724,-365 724,-371 724,-371 724,-385 724,-385 724,-391 718,-397 712,-397"/>
<text text-anchor="middle" x="663" y="-381.8" font-family="Times,serif" font-size="14.00" fill="#222222">value</text>
<text text-anchor="middle" x="663" y="-366.8" font-family="Times,serif" font-size="14.00" fill="#222222">FLOAT(a,2,c,8)</text>
</g>
<!-- Concat_7 -->
<g id="node8" class="node">
<title>Concat_7</title>
<path fill="#cccccc" stroke="#888888" d="M752.5,-335C752.5,-335 623.5,-335 623.5,-335 617.5,-335 611.5,-329 611.5,-323 611.5,-323 611.5,-311 611.5,-311 611.5,-305 617.5,-299 623.5,-299 623.5,-299 752.5,-299 752.5,-299 758.5,-299 764.5,-305 764.5,-311 764.5,-311 764.5,-323 764.5,-323 764.5,-329 758.5,-335 752.5,-335"/>
<text text-anchor="middle" x="688" y="-313.3" font-family="Times,serif" font-size="14.00" fill="#222222">Concat(., ., axis=2)</text>
</g>
<!-- I_2&#45;&gt;Concat_7 -->
<g id="edge4" class="edge">
<title>I_2&#45;&gt;Concat_7</title>
<path fill="none" stroke="black" d="M670.64,-358.98C672.6,-354.35 674.75,-349.28 676.84,-344.33"/>
<polygon fill="black" stroke="black" points="680.75,-335.1 680.99,-346.07 678.8,-339.71 676.85,-344.31 676.85,-344.31 676.85,-344.31 678.8,-339.71 672.71,-342.56 680.75,-335.1 680.75,-335.1"/>
<text text-anchor="middle" x="703.5" y="-345.4" font-family="Times,serif" font-size="7.00">FLOAT(a,2,c,8)</text>
</g>
<!-- I_3 -->
<g id="node4" class="node">
<title>I_3</title>
<path fill="#aaeeaa" stroke="#888888" d="M328,-397C328,-397 228,-397 228,-397 222,-397 216,-391 216,-385 216,-385 216,-371 216,-371 216,-365 222,-359 228,-359 228,-359 328,-359 328,-359 334,-359 340,-365 340,-371 340,-371 340,-385 340,-385 340,-391 334,-397 328,-397"/>
<text text-anchor="middle" x="278" y="-381.8" font-family="Times,serif" font-size="14.00" fill="#222222">past_key</text>
<text text-anchor="middle" x="278" y="-366.8" font-family="Times,serif" font-size="14.00" fill="#222222">FLOAT(a,2,h,8)</text>
</g>
<!-- I_3&#45;&gt;Concat_6 -->
<g id="edge1" class="edge">
<title>I_3&#45;&gt;Concat_6</title>
<path fill="none" stroke="black" d="M256.92,-358.98C250.54,-353.52 243.44,-347.44 236.69,-341.68"/>
<polygon fill="black" stroke="black" points="229,-335.1 239.53,-338.18 232.8,-338.35 236.6,-341.6 236.6,-341.6 236.6,-341.6 232.8,-338.35 233.68,-345.02 229,-335.1 229,-335.1"/>
<text text-anchor="middle" x="272.5" y="-345.4" font-family="Times,serif" font-size="7.00">FLOAT(a,2,h,8)</text>
</g>
<!-- I_4 -->
<g id="node5" class="node">
<title>I_4</title>
<path fill="#aaeeaa" stroke="#888888" d="M457,-153C457,-153 359,-153 359,-153 353,-153 347,-147 347,-141 347,-141 347,-127 347,-127 347,-121 353,-115 359,-115 359,-115 457,-115 457,-115 463,-115 469,-121 469,-127 469,-127 469,-141 469,-141 469,-147 463,-153 457,-153"/>
<text text-anchor="middle" x="408" y="-137.8" font-family="Times,serif" font-size="14.00" fill="#222222">query</text>
<text text-anchor="middle" x="408" y="-122.8" font-family="Times,serif" font-size="14.00" fill="#222222">FLOAT(a,4,c,8)</text>
</g>
<!-- I_4&#45;&gt;Attention_14 -->
<g id="edge11" class="edge">
<title>I_4&#45;&gt;Attention_14</title>
<path fill="none" stroke="black" d="M387.58,-114.73C381.66,-109.56 375.13,-103.99 369,-99 368.29,-98.42 367.57,-97.85 366.85,-97.26"/>
<polygon fill="black" stroke="black" points="358.88,-91.01 369.53,-93.64 362.81,-94.1 366.75,-97.19 366.75,-97.19 366.75,-97.19 362.81,-94.1 363.97,-100.73 358.88,-91.01 358.88,-91.01"/>
<text text-anchor="middle" x="404.5" y="-101.4" font-family="Times,serif" font-size="7.00">FLOAT(a,4,c,8)</text>
</g>
<!-- I_5 -->
<g id="node6" class="node">
<title>I_5</title>
<path fill="#aaeeaa" stroke="#888888" d="M850,-397C850,-397 750,-397 750,-397 744,-397 738,-391 738,-385 738,-385 738,-371 738,-371 738,-365 744,-359 750,-359 750,-359 850,-359 850,-359 856,-359 862,-365 862,-371 862,-371 862,-385 862,-385 862,-391 856,-397 850,-397"/>
<text text-anchor="middle" x="800" y="-381.8" font-family="Times,serif" font-size="14.00" fill="#222222">past_value</text>
<text text-anchor="middle" x="800" y="-366.8" font-family="Times,serif" font-size="14.00" fill="#222222">FLOAT(a,2,h,8)</text>
</g>
<!-- I_5&#45;&gt;Concat_7 -->
<g id="edge3" class="edge">
<title>I_5&#45;&gt;Concat_7</title>
<path fill="none" stroke="black" d="M765.79,-358.98C754.3,-352.93 741.37,-346.12 729.4,-339.81"/>
<polygon fill="black" stroke="black" points="720.47,-335.1 731.42,-335.78 724.89,-337.44 729.32,-339.77 729.32,-339.77 729.32,-339.77 724.89,-337.44 727.22,-343.75 720.47,-335.1 720.47,-335.1"/>
<text text-anchor="middle" x="774.5" y="-345.4" font-family="Times,serif" font-size="7.00">FLOAT(a,2,h,8)</text>
</g>
<!-- Unsqueeze_8 -->
<g id="node9" class="node">
<title>Unsqueeze_8</title>
<path fill="#eeeeee" stroke="#888888" d="M150.5,-274C150.5,-274 35.5,-274 35.5,-274 29.5,-274 23.5,-268 23.5,-262 23.5,-262 23.5,-250 23.5,-250 23.5,-244 29.5,-238 35.5,-238 35.5,-238 150.5,-238 150.5,-238 156.5,-238 162.5,-244 162.5,-250 162.5,-250 162.5,-262 162.5,-262 162.5,-268 156.5,-274 150.5,-274"/>
<text text-anchor="middle" x="93" y="-252.3" font-family="Times,serif" font-size="14.00" fill="#222222">Unsqueeze(., [2])</text>
</g>
<!-- Concat_6&#45;&gt;Unsqueeze_8 -->
<g id="edge5" class="edge">
<title>Concat_6&#45;&gt;Unsqueeze_8</title>
<path fill="none" stroke="black" d="M173.82,-298.91C168.51,-296.28 163.1,-293.58 158,-291 150.32,-287.11 142.17,-282.91 134.33,-278.83"/>
<polygon fill="black" stroke="black" points="125.32,-274.12 136.26,-274.76 129.75,-276.43 134.18,-278.75 134.18,-278.75 134.18,-278.75 129.75,-276.43 132.09,-282.73 125.32,-274.12 125.32,-274.12"/>
<text text-anchor="middle" x="190.5" y="-285.4" font-family="Times,serif" font-size="7.00">FLOAT(a,2,c+h,8)</text>
</g>
<!-- O_16 -->
<g id="node17" class="node">
<title>O_16</title>
<path fill="#aaaaee" stroke="#888888" d="M307.5,-275C307.5,-275 188.5,-275 188.5,-275 182.5,-275 176.5,-269 176.5,-263 176.5,-263 176.5,-249 176.5,-249 176.5,-243 182.5,-237 188.5,-237 188.5,-237 307.5,-237 307.5,-237 313.5,-237 319.5,-243 319.5,-249 319.5,-249 319.5,-263 319.5,-263 319.5,-269 313.5,-275 307.5,-275"/>
<text text-anchor="middle" x="248" y="-259.8" font-family="Times,serif" font-size="14.00" fill="#222222">present_key</text>
<text text-anchor="middle" x="248" y="-244.8" font-family="Times,serif" font-size="14.00" fill="#222222">FLOAT(a,2,c+h,8)</text>
</g>
<!-- Concat_6&#45;&gt;O_16 -->
<g id="edge16" class="edge">
<title>Concat_6&#45;&gt;O_16</title>
<path fill="none" stroke="black" d="M220.28,-298.93C223.45,-294.14 226.98,-288.8 230.42,-283.59"/>
<polygon fill="black" stroke="black" points="236.07,-275.06 234.3,-285.88 233.31,-279.23 230.55,-283.4 230.55,-283.4 230.55,-283.4 233.31,-279.23 226.8,-280.92 236.07,-275.06 236.07,-275.06"/>
</g>
<!-- Unsqueeze_11 -->
<g id="node12" class="node">
<title>Unsqueeze_11</title>
<path fill="#eeeeee" stroke="#888888" d="M630.5,-274C630.5,-274 515.5,-274 515.5,-274 509.5,-274 503.5,-268 503.5,-262 503.5,-262 503.5,-250 503.5,-250 503.5,-244 509.5,-238 515.5,-238 515.5,-238 630.5,-238 630.5,-238 636.5,-238 642.5,-244 642.5,-250 642.5,-250 642.5,-262 642.5,-262 642.5,-268 636.5,-274 630.5,-274"/>
<text text-anchor="middle" x="573" y="-252.3" font-family="Times,serif" font-size="14.00" fill="#222222">Unsqueeze(., [2])</text>
</g>
<!-- Concat_7&#45;&gt;Unsqueeze_11 -->
<g id="edge8" class="edge">
<title>Concat_7&#45;&gt;Unsqueeze_11</title>
<path fill="none" stroke="black" d="M652.81,-298.94C647.5,-296.31 642.09,-293.6 637,-291 629.43,-287.13 621.4,-282.94 613.67,-278.86"/>
<polygon fill="black" stroke="black" points="604.8,-274.15 615.74,-274.86 609.21,-276.5 613.63,-278.84 613.63,-278.84 613.63,-278.84 609.21,-276.5 611.52,-282.81 604.8,-274.15 604.8,-274.15"/>
<text text-anchor="middle" x="669.5" y="-285.4" font-family="Times,serif" font-size="7.00">FLOAT(a,2,c+h,8)</text>
</g>
<!-- O_15 -->
<g id="node16" class="node">
<title>O_15</title>
<path fill="#aaaaee" stroke="#888888" d="M787.5,-275C787.5,-275 668.5,-275 668.5,-275 662.5,-275 656.5,-269 656.5,-263 656.5,-263 656.5,-249 656.5,-249 656.5,-243 662.5,-237 668.5,-237 668.5,-237 787.5,-237 787.5,-237 793.5,-237 799.5,-243 799.5,-249 799.5,-249 799.5,-263 799.5,-263 799.5,-269 793.5,-275 787.5,-275"/>
<text text-anchor="middle" x="728" y="-259.8" font-family="Times,serif" font-size="14.00" fill="#222222">present_value</text>
<text text-anchor="middle" x="728" y="-244.8" font-family="Times,serif" font-size="14.00" fill="#222222">FLOAT(a,2,c+h,8)</text>
</g>
<!-- Concat_7&#45;&gt;O_15 -->
<g id="edge15" class="edge">
<title>Concat_7&#45;&gt;O_15</title>
<path fill="none" stroke="black" d="M699.57,-298.93C702.82,-294.14 706.44,-288.8 709.97,-283.59"/>
<polygon fill="black" stroke="black" points="715.76,-275.06 713.87,-285.86 712.95,-279.19 710.15,-283.33 710.15,-283.33 710.15,-283.33 712.95,-279.19 706.42,-280.81 715.76,-275.06 715.76,-275.06"/>
</g>
<!-- Expand_9 -->
<g id="node10" class="node">
<title>Expand_9</title>
<path fill="#cccccc" stroke="#888888" d="M174,-213C174,-213 12,-213 12,-213 6,-213 0,-207 0,-201 0,-201 0,-189 0,-189 0,-183 6,-177 12,-177 12,-177 174,-177 174,-177 180,-177 186,-183 186,-189 186,-189 186,-201 186,-201 186,-207 180,-213 174,-213"/>
<text text-anchor="middle" x="93" y="-191.3" font-family="Times,serif" font-size="14.00" fill="#222222">Expand(., [1, 1, 2, 1, 1])</text>
</g>
<!-- Unsqueeze_8&#45;&gt;Expand_9 -->
<g id="edge6" class="edge">
<title>Unsqueeze_8&#45;&gt;Expand_9</title>
<path fill="none" stroke="black" d="M93,-237.93C93,-233.45 93,-228.49 93,-223.61"/>
<polygon fill="black" stroke="black" points="93,-213.23 97.5,-223.23 93,-218.23 93,-223.23 93,-223.23 93,-223.23 93,-218.23 88.5,-223.23 93,-213.23 93,-213.23"/>
<text text-anchor="middle" x="129" y="-223.4" font-family="Times,serif" font-size="7.00">FLOAT(a,2,1,c+h,8)</text>
</g>
<!-- Reshape_10 -->
<g id="node11" class="node">
<title>Reshape_10</title>
<path fill="#eeeeee" stroke="#888888" d="M170.5,-152C170.5,-152 15.5,-152 15.5,-152 9.5,-152 3.5,-146 3.5,-140 3.5,-140 3.5,-128 3.5,-128 3.5,-122 9.5,-116 15.5,-116 15.5,-116 170.5,-116 170.5,-116 176.5,-116 182.5,-122 182.5,-128 182.5,-128 182.5,-140 182.5,-140 182.5,-146 176.5,-152 170.5,-152"/>
<text text-anchor="middle" x="93" y="-130.3" font-family="Times,serif" font-size="14.00" fill="#222222">Reshape(., [0, 4, &#45;1, 8])</text>
</g>
<!-- Expand_9&#45;&gt;Reshape_10 -->
<g id="edge7" class="edge">
<title>Expand_9&#45;&gt;Reshape_10</title>
<path fill="none" stroke="black" d="M93,-176.93C93,-172.45 93,-167.49 93,-162.61"/>
<polygon fill="black" stroke="black" points="93,-152.23 97.5,-162.23 93,-157.23 93,-162.23 93,-162.23 93,-162.23 93,-157.23 88.5,-162.23 93,-152.23 93,-152.23"/>
<text text-anchor="middle" x="129" y="-163.4" font-family="Times,serif" font-size="7.00">FLOAT(a,2,2,c+h,8)</text>
</g>
<!-- Reshape_10&#45;&gt;Attention_14 -->
<g id="edge12" class="edge">
<title>Reshape_10&#45;&gt;Attention_14</title>
<path fill="none" stroke="black" d="M160.9,-115.98C182.93,-110.51 207.49,-104.45 230,-99 238.64,-96.91 247.68,-94.74 256.68,-92.6"/>
<polygon fill="black" stroke="black" points="266.41,-90.29 257.72,-96.98 261.55,-91.45 256.68,-92.6 256.68,-92.6 256.68,-92.6 261.55,-91.45 255.64,-88.22 266.41,-90.29 266.41,-90.29"/>
<text text-anchor="middle" x="262.5" y="-101.4" font-family="Times,serif" font-size="7.00">FLOAT(a,4,c+h,8)</text>
</g>
<!-- Expand_12 -->
<g id="node13" class="node">
<title>Expand_12</title>
<path fill="#cccccc" stroke="#888888" d="M654,-213C654,-213 492,-213 492,-213 486,-213 480,-207 480,-201 480,-201 480,-189 480,-189 480,-183 486,-177 492,-177 492,-177 654,-177 654,-177 660,-177 666,-183 666,-189 666,-189 666,-201 666,-201 666,-207 660,-213 654,-213"/>
<text text-anchor="middle" x="573" y="-191.3" font-family="Times,serif" font-size="14.00" fill="#222222">Expand(., [1, 1, 2, 1, 1])</text>
</g>
<!-- Unsqueeze_11&#45;&gt;Expand_12 -->
<g id="edge9" class="edge">
<title>Unsqueeze_11&#45;&gt;Expand_12</title>
<path fill="none" stroke="black" d="M573,-237.93C573,-233.45 573,-228.49 573,-223.61"/>
<polygon fill="black" stroke="black" points="573,-213.23 577.5,-223.23 573,-218.23 573,-223.23 573,-223.23 573,-223.23 573,-218.23 568.5,-223.23 573,-213.23 573,-213.23"/>
<text text-anchor="middle" x="609" y="-223.4" font-family="Times,serif" font-size="7.00">FLOAT(a,2,1,c+h,8)</text>
</g>
<!-- Reshape_13 -->
<g id="node14" class="node">
<title>Reshape_13</title>
<path fill="#eeeeee" stroke="#888888" d="M650.5,-152C650.5,-152 495.5,-152 495.5,-152 489.5,-152 483.5,-146 483.5,-140 483.5,-140 483.5,-128 483.5,-128 483.5,-122 489.5,-116 495.5,-116 495.5,-116 650.5,-116 650.5,-116 656.5,-116 662.5,-122 662.5,-128 662.5,-128 662.5,-140 662.5,-140 662.5,-146 656.5,-152 650.5,-152"/>
<text text-anchor="middle" x="573" y="-130.3" font-family="Times,serif" font-size="14.00" fill="#222222">Reshape(., [0, 4, &#45;1, 8])</text>
</g>
<!-- Expand_12&#45;&gt;Reshape_13 -->
<g id="edge10" class="edge">
<title>Expand_12&#45;&gt;Reshape_13</title>
<path fill="none" stroke="black" d="M573,-176.93C573,-172.45 573,-167.49 573,-162.61"/>
<polygon fill="black" stroke="black" points="573,-152.23 577.5,-162.23 573,-157.23 573,-162.23 573,-162.23 573,-162.23 573,-157.23 568.5,-162.23 573,-152.23 573,-152.23"/>
<text text-anchor="middle" x="609" y="-163.4" font-family="Times,serif" font-size="7.00">FLOAT(a,2,2,c+h,8)</text>
</g>
<!-- Reshape_13&#45;&gt;Attention_14 -->
<g id="edge13" class="edge">
<title>Reshape_13&#45;&gt;Attention_14</title>
<path fill="none" stroke="black" d="M504.45,-115.93C476.2,-108.9 443.31,-100.72 414.14,-93.45"/>
<polygon fill="black" stroke="black" points="404.4,-91.03 415.19,-89.08 409.25,-92.23 414.1,-93.44 414.1,-93.44 414.1,-93.44 409.25,-92.23 413.01,-97.81 404.4,-91.03 404.4,-91.03"/>
<text text-anchor="middle" x="493.5" y="-101.4" font-family="Times,serif" font-size="7.00">FLOAT(a,4,c+h,8)</text>
</g>
<!-- O_17 -->
<g id="node18" class="node">
<title>O_17</title>
<path fill="#aaaaee" stroke="#888888" d="M388.5,-38C388.5,-38 283.5,-38 283.5,-38 277.5,-38 271.5,-32 271.5,-26 271.5,-26 271.5,-12 271.5,-12 271.5,-6 277.5,0 283.5,0 283.5,0 388.5,0 388.5,0 394.5,0 400.5,-6 400.5,-12 400.5,-12 400.5,-26 400.5,-26 400.5,-32 394.5,-38 388.5,-38"/>
<text text-anchor="middle" x="336" y="-22.8" font-family="Times,serif" font-size="14.00" fill="#222222">Y</text>
<text text-anchor="middle" x="336" y="-7.8" font-family="Times,serif" font-size="14.00" fill="#222222">FLOAT(a,4,c_,8)</text>
</g>
<!-- Attention_14&#45;&gt;O_17 -->
<g id="edge17" class="edge">
<title>Attention_14&#45;&gt;O_17</title>
<path fill="none" stroke="black" d="M336,-54.97C336,-52.89 336,-50.72 336,-48.53"/>
<polygon fill="black" stroke="black" points="336,-38.32 340.5,-48.32 336,-43.32 336,-48.32 336,-48.32 336,-48.32 336,-43.32 331.5,-48.32 336,-38.32 336,-38.32"/>
</g>
</g>
</svg>
