<?xml version="1.0" encoding="UTF-8" standalone="no"?>
<!DOCTYPE svg PUBLIC "-//W3C//DTD SVG 1.1//EN"
 "http://www.w3.org/Graphics/SVG/1.1/DTD/svg11.dtd">
<!-- Generated by graphviz version 2.43.0 (0)
 -->
<!-- Title: %3 Pages: 1 -->
<svg width="1072pt" height="353pt"
 viewBox="0.00 0.00 1071.50 353.00" xmlns="http://www.w3.org/2000/svg" xmlns:xlink="http://www.w3.org/1999/xlink">
<g id="graph0" class="graph" transform="scale(1 1) rotate(0) translate(4 349)">
<title>%3</title>
<!-- I_0 -->
<g id="node1" class="node">
<title>I_0</title>
<path fill="#aaeeaa" stroke="#888888" d="M465.5,-283C465.5,-283 187.5,-283 187.5,-283 181.5,-283 175.5,-277 175.5,-271 175.5,-271 175.5,-257 175.5,-257 175.5,-251 181.5,-245 187.5,-245 187.5,-245 465.5,-245 465.5,-245 471.5,-245 477.5,-251 477.5,-257 477.5,-257 477.5,-271 477.5,-271 477.5,-277 471.5,-283 465.5,-283"/>
<text text-anchor="middle" x="326.5" y="-267.8" font-family="Times,serif" font-size="14.00" fill="#222222">ContribRotaryEmbeddingPattern&#45;&#45;m2x2</text>
<text text-anchor="middle" x="326.5" y="-252.8" font-family="Times,serif" font-size="14.00" fill="#222222">FLOAT(NEWDIM_range,2)</text>
</g>
<!-- RotaryEmbedding_5 -->
<g id="node6" class="node">
<title>RotaryEmbedding_5</title>
<path fill="#cccccc" stroke="#888888" d="M603.5,-221C603.5,-221 481.5,-221 481.5,-221 475.5,-221 469.5,-215 469.5,-209 469.5,-209 469.5,-180 469.5,-180 469.5,-174 475.5,-168 481.5,-168 481.5,-168 603.5,-168 603.5,-168 609.5,-168 615.5,-174 615.5,-180 615.5,-180 615.5,-209 615.5,-209 615.5,-215 609.5,-221 603.5,-221"/>
<text text-anchor="middle" x="542.5" y="-205.8" font-family="Times,serif" font-size="14.00" fill="#222222">com.microsoft.</text>
<text text-anchor="middle" x="542.5" y="-190.8" font-family="Times,serif" font-size="14.00" fill="#222222">RotaryEmbedding</text>
<text text-anchor="middle" x="542.5" y="-175.8" font-family="Times,serif" font-size="14.00" fill="#222222">(., ., ., .)</text>
</g>
<!-- I_0&#45;&gt;RotaryEmbedding_5 -->
<g id="edge5" class="edge">
<title>I_0&#45;&gt;RotaryEmbedding_5</title>
<path fill="none" stroke="black" d="M384.1,-245C407.26,-237.76 434.41,-229.28 459.62,-221.4"/>
<polygon fill="black" stroke="black" points="469.18,-218.41 460.97,-225.69 464.41,-219.9 459.63,-221.4 459.63,-221.4 459.63,-221.4 464.41,-219.9 458.29,-217.1 469.18,-218.41 469.18,-218.41"/>
<text text-anchor="middle" x="483" y="-231.4" font-family="Times,serif" font-size="7.00">FLOAT(NEWDIM_range,2)</text>
</g>
<!-- I_1 -->
<g id="node2" class="node">
<title>I_1</title>
<path fill="#aaeeaa" stroke="#888888" d="M581,-283C581,-283 504,-283 504,-283 498,-283 492,-277 492,-271 492,-271 492,-257 492,-257 492,-251 498,-245 504,-245 504,-245 581,-245 581,-245 587,-245 593,-251 593,-257 593,-257 593,-271 593,-271 593,-277 587,-283 581,-283"/>
<text text-anchor="middle" x="542.5" y="-267.8" font-family="Times,serif" font-size="14.00" fill="#222222">position_ids</text>
<text text-anchor="middle" x="542.5" y="-252.8" font-family="Times,serif" font-size="14.00" fill="#222222">INT64(a,e)</text>
</g>
<!-- I_1&#45;&gt;RotaryEmbedding_5 -->
<g id="edge3" class="edge">
<title>I_1&#45;&gt;RotaryEmbedding_5</title>
<path fill="none" stroke="black" d="M542.5,-244.91C542.5,-240.71 542.5,-236.1 542.5,-231.43"/>
<polygon fill="black" stroke="black" points="542.5,-221.25 547,-231.25 542.5,-226.25 542.5,-231.25 542.5,-231.25 542.5,-231.25 542.5,-226.25 538,-231.25 542.5,-221.25 542.5,-221.25"/>
<text text-anchor="middle" x="562.5" y="-231.4" font-family="Times,serif" font-size="7.00">INT64(a,e)</text>
</g>
<!-- I_2 -->
<g id="node3" class="node">
<title>I_2</title>
<path fill="#aaeeaa" stroke="#888888" d="M897.5,-283C897.5,-283 619.5,-283 619.5,-283 613.5,-283 607.5,-277 607.5,-271 607.5,-271 607.5,-257 607.5,-257 607.5,-251 613.5,-245 619.5,-245 619.5,-245 897.5,-245 897.5,-245 903.5,-245 909.5,-251 909.5,-257 909.5,-257 909.5,-271 909.5,-271 909.5,-277 903.5,-283 897.5,-283"/>
<text text-anchor="middle" x="758.5" y="-267.8" font-family="Times,serif" font-size="14.00" fill="#222222">ContribRotaryEmbeddingPattern&#45;&#45;m1x2</text>
<text text-anchor="middle" x="758.5" y="-252.8" font-family="Times,serif" font-size="14.00" fill="#222222">FLOAT(NEWDIM_range,2)</text>
</g>
<!-- I_2&#45;&gt;RotaryEmbedding_5 -->
<g id="edge4" class="edge">
<title>I_2&#45;&gt;RotaryEmbedding_5</title>
<path fill="none" stroke="black" d="M700.9,-245C677.74,-237.76 650.59,-229.28 625.38,-221.4"/>
<polygon fill="black" stroke="black" points="615.82,-218.41 626.71,-217.1 620.59,-219.9 625.37,-221.4 625.37,-221.4 625.37,-221.4 620.59,-219.9 624.03,-225.69 615.82,-218.41 615.82,-218.41"/>
<text text-anchor="middle" x="718" y="-231.4" font-family="Times,serif" font-size="7.00">FLOAT(NEWDIM_range,2)</text>
</g>
<!-- I_3 -->
<g id="node4" class="node">
<title>I_3</title>
<path fill="#aaeeaa" stroke="#888888" d="M585.5,-345C585.5,-345 487.5,-345 487.5,-345 481.5,-345 475.5,-339 475.5,-333 475.5,-333 475.5,-319 475.5,-319 475.5,-313 481.5,-307 487.5,-307 487.5,-307 585.5,-307 585.5,-307 591.5,-307 597.5,-313 597.5,-319 597.5,-319 597.5,-333 597.5,-333 597.5,-339 591.5,-345 585.5,-345"/>
<text text-anchor="middle" x="536.5" y="-329.8" font-family="Times,serif" font-size="14.00" fill="#222222">X</text>
<text text-anchor="middle" x="536.5" y="-314.8" font-family="Times,serif" font-size="14.00" fill="#222222">FLOAT(a,c,2,d)</text>
</g>
<!-- Reshape_4 -->
<g id="node5" class="node">
<title>Reshape_4</title>
<path fill="#eeeeee" stroke="#888888" d="M149,-282C149,-282 12,-282 12,-282 6,-282 0,-276 0,-270 0,-270 0,-258 0,-258 0,-252 6,-246 12,-246 12,-246 149,-246 149,-246 155,-246 161,-252 161,-258 161,-258 161,-270 161,-270 161,-276 155,-282 149,-282"/>
<text text-anchor="middle" x="80.5" y="-260.3" font-family="Times,serif" font-size="14.00" fill="#222222">Reshape(., [0, 0, &#45;1])</text>
</g>
<!-- I_3&#45;&gt;Reshape_4 -->
<g id="edge1" class="edge">
<title>I_3&#45;&gt;Reshape_4</title>
<path fill="none" stroke="black" d="M475.39,-319.69C404.34,-313.14 283.33,-300.84 171.15,-283.36"/>
<polygon fill="black" stroke="black" points="161.01,-281.76 171.59,-278.88 165.95,-282.54 170.89,-283.32 170.89,-283.32 170.89,-283.32 165.95,-282.54 170.19,-287.77 161.01,-281.76 161.01,-281.76"/>
<text text-anchor="middle" x="307" y="-293.4" font-family="Times,serif" font-size="7.00">FLOAT(a,c,2,d)</text>
</g>
<!-- Shape_6 -->
<g id="node7" class="node">
<title>Shape_6</title>
<path fill="#d2a81f" stroke="#888888" d="M1051.5,-282C1051.5,-282 935.5,-282 935.5,-282 929.5,-282 923.5,-276 923.5,-270 923.5,-270 923.5,-258 923.5,-258 923.5,-252 929.5,-246 935.5,-246 935.5,-246 1051.5,-246 1051.5,-246 1057.5,-246 1063.5,-252 1063.5,-258 1063.5,-258 1063.5,-270 1063.5,-270 1063.5,-276 1057.5,-282 1051.5,-282"/>
<text text-anchor="middle" x="993.5" y="-260.3" font-family="Times,serif" font-size="14.00" fill="#222222">Shape(., start=3)</text>
</g>
<!-- I_3&#45;&gt;Shape_6 -->
<g id="edge6" class="edge">
<title>I_3&#45;&gt;Shape_6</title>
<path fill="none" stroke="black" d="M597.69,-320.5C670.92,-314.62 797.38,-302.85 913.37,-283.46"/>
<polygon fill="black" stroke="black" points="923.49,-281.74 914.38,-287.85 918.56,-282.58 913.63,-283.41 913.63,-283.41 913.63,-283.41 918.56,-282.58 912.88,-278.98 923.49,-281.74 923.49,-281.74"/>
<text text-anchor="middle" x="892" y="-293.4" font-family="Times,serif" font-size="7.00">FLOAT(a,c,2,d)</text>
</g>
<!-- Reshape_4&#45;&gt;RotaryEmbedding_5 -->
<g id="edge2" class="edge">
<title>Reshape_4&#45;&gt;RotaryEmbedding_5</title>
<path fill="none" stroke="black" d="M161.02,-246.29C163.54,-245.85 166.04,-245.41 168.5,-245 268.02,-228.26 383.23,-213.74 459.19,-204.83"/>
<polygon fill="black" stroke="black" points="469.18,-203.66 459.76,-209.29 464.21,-204.24 459.24,-204.82 459.24,-204.82 459.24,-204.82 464.21,-204.24 458.72,-200.35 469.18,-203.66 469.18,-203.66"/>
<text text-anchor="middle" x="299.5" y="-231.4" font-family="Times,serif" font-size="7.00">FLOAT(a,c,2*d)</text>
</g>
<!-- Reshape_8 -->
<g id="node9" class="node">
<title>Reshape_8</title>
<path fill="#eeeeee" stroke="#888888" d="M678.5,-144C678.5,-144 596.5,-144 596.5,-144 590.5,-144 584.5,-138 584.5,-132 584.5,-132 584.5,-120 584.5,-120 584.5,-114 590.5,-108 596.5,-108 596.5,-108 678.5,-108 678.5,-108 684.5,-108 690.5,-114 690.5,-120 690.5,-120 690.5,-132 690.5,-132 690.5,-138 684.5,-144 678.5,-144"/>
<text text-anchor="middle" x="637.5" y="-122.3" font-family="Times,serif" font-size="14.00" fill="#222222">Reshape(., .)</text>
</g>
<!-- RotaryEmbedding_5&#45;&gt;Reshape_8 -->
<g id="edge8" class="edge">
<title>RotaryEmbedding_5&#45;&gt;Reshape_8</title>
<path fill="none" stroke="black" d="M578.96,-167.98C587.42,-162.05 596.39,-155.78 604.68,-149.97"/>
<polygon fill="black" stroke="black" points="613.04,-144.12 607.43,-153.54 608.95,-146.99 604.85,-149.85 604.85,-149.85 604.85,-149.85 608.95,-146.99 602.27,-146.17 613.04,-144.12 613.04,-144.12"/>
<text text-anchor="middle" x="628.5" y="-154.4" font-family="Times,serif" font-size="7.00">FLOAT(a,c,2*d)</text>
</g>
<!-- Concat_7 -->
<g id="node8" class="node">
<title>Concat_7</title>
<path fill="#cccccc" stroke="#888888" d="M926,-212.5C926,-212.5 741,-212.5 741,-212.5 735,-212.5 729,-206.5 729,-200.5 729,-200.5 729,-188.5 729,-188.5 729,-182.5 735,-176.5 741,-176.5 741,-176.5 926,-176.5 926,-176.5 932,-176.5 938,-182.5 938,-188.5 938,-188.5 938,-200.5 938,-200.5 938,-206.5 932,-212.5 926,-212.5"/>
<text text-anchor="middle" x="833.5" y="-190.8" font-family="Times,serif" font-size="14.00" fill="#222222">Concat([0, 0, &#45;1], ., axis=0)</text>
</g>
<!-- Shape_6&#45;&gt;Concat_7 -->
<g id="edge7" class="edge">
<title>Shape_6&#45;&gt;Concat_7</title>
<path fill="none" stroke="black" d="M953.13,-245.97C931.9,-237.01 905.7,-225.96 883.24,-216.48"/>
<polygon fill="black" stroke="black" points="873.86,-212.53 884.82,-212.27 878.47,-214.47 883.08,-216.41 883.08,-216.41 883.08,-216.41 878.47,-214.47 881.33,-220.56 873.86,-212.53 873.86,-212.53"/>
<text text-anchor="middle" x="944.5" y="-231.4" font-family="Times,serif" font-size="7.00">INT64(1)</text>
</g>
<!-- Concat_7&#45;&gt;Reshape_8 -->
<g id="edge9" class="edge">
<title>Concat_7&#45;&gt;Reshape_8</title>
<path fill="none" stroke="black" d="M783.28,-176.46C757.1,-167.58 724.91,-156.66 697.43,-147.33"/>
<polygon fill="black" stroke="black" points="687.93,-144.11 698.85,-143.06 692.66,-145.72 697.4,-147.32 697.4,-147.32 697.4,-147.32 692.66,-145.72 695.95,-151.58 687.93,-144.11 687.93,-144.11"/>
<text text-anchor="middle" x="746.5" y="-154.4" font-family="Times,serif" font-size="7.00">INT64(4)</text>
</g>
<!-- Transpose_9 -->
<g id="node10" class="node">
<title>Transpose_9</title>
<path fill="#ee99ee" stroke="#888888" d="M744,-91C744,-91 531,-91 531,-91 525,-91 519,-85 519,-79 519,-79 519,-67 519,-67 519,-61 525,-55 531,-55 531,-55 744,-55 744,-55 750,-55 756,-61 756,-67 756,-67 756,-79 756,-79 756,-85 750,-91 744,-91"/>
<text text-anchor="middle" x="637.5" y="-69.3" font-family="Times,serif" font-size="14.00" fill="#222222">Transpose(., perm=[0, 2, 1, 3])</text>
</g>
<!-- Reshape_8&#45;&gt;Transpose_9 -->
<g id="edge10" class="edge">
<title>Reshape_8&#45;&gt;Transpose_9</title>
<path fill="none" stroke="black" d="M637.5,-107.73C637.5,-105.66 637.5,-103.5 637.5,-101.32"/>
<polygon fill="black" stroke="black" points="637.5,-91.25 642,-101.25 637.5,-96.25 637.5,-101.25 637.5,-101.25 637.5,-101.25 637.5,-96.25 633,-101.25 637.5,-91.25 637.5,-91.25"/>
</g>
<!-- O_10 -->
<g id="node11" class="node">
<title>O_10</title>
<path fill="#aaaaee" stroke="#888888" d="M686.5,-38C686.5,-38 588.5,-38 588.5,-38 582.5,-38 576.5,-32 576.5,-26 576.5,-26 576.5,-12 576.5,-12 576.5,-6 582.5,0 588.5,0 588.5,0 686.5,0 686.5,0 692.5,0 698.5,-6 698.5,-12 698.5,-12 698.5,-26 698.5,-26 698.5,-32 692.5,-38 686.5,-38"/>
<text text-anchor="middle" x="637.5" y="-22.8" font-family="Times,serif" font-size="14.00" fill="#222222">Y</text>
<text text-anchor="middle" x="637.5" y="-7.8" font-family="Times,serif" font-size="14.00" fill="#222222">FLOAT(a,b,c,d)</text>
</g>
<!-- Transpose_9&#45;&gt;O_10 -->
<g id="edge11" class="edge">
<title>Transpose_9&#45;&gt;O_10</title>
<path fill="none" stroke="black" d="M637.5,-54.97C637.5,-52.89 637.5,-50.72 637.5,-48.53"/>
<polygon fill="black" stroke="black" points="637.5,-38.32 642,-48.32 637.5,-43.32 637.5,-48.32 637.5,-48.32 637.5,-48.32 637.5,-43.32 633,-48.32 637.5,-38.32 637.5,-38.32"/>
</g>
</g>
</svg>
