<?xml version="1.0" encoding="UTF-8" standalone="no"?>
<!DOCTYPE svg PUBLIC "-//W3C//DTD SVG 1.1//EN"
 "http://www.w3.org/Graphics/SVG/1.1/DTD/svg11.dtd">
<!-- Generated by graphviz version 2.43.0 (0)
 -->
<!-- Title: %3 Pages: 1 -->
<svg width="606pt" height="223pt"
 viewBox="0.00 0.00 606.00 223.00" xmlns="http://www.w3.org/2000/svg" xmlns:xlink="http://www.w3.org/1999/xlink">
<g id="graph0" class="graph" transform="scale(1 1) rotate(0) translate(4 219)">
<title>%3</title>
<!-- I_0 -->
<g id="node1" class="node">
<title>I_0</title>
<path fill="#aaeeaa" stroke="#888888" d="M85,-153C85,-153 12,-153 12,-153 6,-153 0,-147 0,-141 0,-141 0,-127 0,-127 0,-121 6,-115 12,-115 12,-115 85,-115 85,-115 91,-115 97,-121 97,-127 97,-127 97,-141 97,-141 97,-147 91,-153 85,-153"/>
<text text-anchor="middle" x="48.5" y="-137.8" font-family="Times,serif" font-size="14.00" fill="#222222">X</text>
<text text-anchor="middle" x="48.5" y="-122.8" font-family="Times,serif" font-size="14.00" fill="#222222">FLOAT(a,b)</text>
</g>
<!-- Slice_6 -->
<g id="node7" class="node">
<title>Slice_6</title>
<path fill="#cccccc" stroke="#888888" d="M326,-91C326,-91 243,-91 243,-91 237,-91 231,-85 231,-79 231,-79 231,-67 231,-67 231,-61 237,-55 243,-55 243,-55 326,-55 326,-55 332,-55 338,-61 338,-67 338,-67 338,-79 338,-79 338,-85 332,-91 326,-91"/>
<text text-anchor="middle" x="284.5" y="-69.3" font-family="Times,serif" font-size="14.00" fill="#222222">Slice(., ., ., .)</text>
</g>
<!-- I_0&#45;&gt;Slice_6 -->
<g id="edge5" class="edge">
<title>I_0&#45;&gt;Slice_6</title>
<path fill="none" stroke="black" d="M97.01,-116.85C99.2,-116.21 101.37,-115.59 103.5,-115 142.08,-104.34 185.85,-94.37 220.67,-86.93"/>
<polygon fill="black" stroke="black" points="230.71,-84.81 221.86,-91.28 225.82,-85.84 220.93,-86.88 220.93,-86.88 220.93,-86.88 225.82,-85.84 220,-82.48 230.71,-84.81 230.71,-84.81"/>
<text text-anchor="middle" x="184.5" y="-101.4" font-family="Times,serif" font-size="7.00">FLOAT(a,b)</text>
</g>
<!-- I_1 -->
<g id="node2" class="node">
<title>I_1</title>
<path fill="#aaeeaa" stroke="#888888" d="M433.5,-215C433.5,-215 377.5,-215 377.5,-215 371.5,-215 365.5,-209 365.5,-203 365.5,-203 365.5,-189 365.5,-189 365.5,-183 371.5,-177 377.5,-177 377.5,-177 433.5,-177 433.5,-177 439.5,-177 445.5,-183 445.5,-189 445.5,-189 445.5,-203 445.5,-203 445.5,-209 439.5,-215 433.5,-215"/>
<text text-anchor="middle" x="405.5" y="-199.8" font-family="Times,serif" font-size="14.00" fill="#222222">one</text>
<text text-anchor="middle" x="405.5" y="-184.8" font-family="Times,serif" font-size="14.00" fill="#222222">INT64(1)</text>
</g>
<!-- Concat_4 -->
<g id="node5" class="node">
<title>Concat_4</title>
<path fill="#cccccc" stroke="#888888" d="M586,-152C586,-152 457,-152 457,-152 451,-152 445,-146 445,-140 445,-140 445,-128 445,-128 445,-122 451,-116 457,-116 457,-116 586,-116 586,-116 592,-116 598,-122 598,-128 598,-128 598,-140 598,-140 598,-146 592,-152 586,-152"/>
<text text-anchor="middle" x="521.5" y="-130.3" font-family="Times,serif" font-size="14.00" fill="#222222">Concat(., ., axis=0)</text>
</g>
<!-- I_1&#45;&gt;Concat_4 -->
<g id="edge2" class="edge">
<title>I_1&#45;&gt;Concat_4</title>
<path fill="none" stroke="black" d="M440.3,-177C452.55,-170.66 466.44,-163.48 479.23,-156.86"/>
<polygon fill="black" stroke="black" points="488.31,-152.17 481.5,-160.76 483.87,-154.46 479.43,-156.76 479.43,-156.76 479.43,-156.76 483.87,-154.46 477.36,-152.76 488.31,-152.17 488.31,-152.17"/>
<text text-anchor="middle" x="486.5" y="-163.4" font-family="Times,serif" font-size="7.00">INT64(1)</text>
</g>
<!-- Concat_5 -->
<g id="node6" class="node">
<title>Concat_5</title>
<path fill="#cccccc" stroke="#888888" d="M419,-152C419,-152 290,-152 290,-152 284,-152 278,-146 278,-140 278,-140 278,-128 278,-128 278,-122 284,-116 290,-116 290,-116 419,-116 419,-116 425,-116 431,-122 431,-128 431,-128 431,-140 431,-140 431,-146 425,-152 419,-152"/>
<text text-anchor="middle" x="354.5" y="-130.3" font-family="Times,serif" font-size="14.00" fill="#222222">Concat(., ., axis=0)</text>
</g>
<!-- I_1&#45;&gt;Concat_5 -->
<g id="edge4" class="edge">
<title>I_1&#45;&gt;Concat_5</title>
<path fill="none" stroke="black" d="M390.2,-177C385.7,-171.71 380.7,-165.83 375.9,-160.18"/>
<polygon fill="black" stroke="black" points="369.09,-152.17 379,-156.87 372.33,-155.98 375.57,-159.79 375.57,-159.79 375.57,-159.79 372.33,-155.98 372.14,-162.7 369.09,-152.17 369.09,-152.17"/>
<text text-anchor="middle" x="400.5" y="-163.4" font-family="Times,serif" font-size="7.00">INT64(1)</text>
</g>
<!-- I_2 -->
<g id="node3" class="node">
<title>I_2</title>
<path fill="#aaeeaa" stroke="#888888" d="M313.5,-215C313.5,-215 257.5,-215 257.5,-215 251.5,-215 245.5,-209 245.5,-203 245.5,-203 245.5,-189 245.5,-189 245.5,-183 251.5,-177 257.5,-177 257.5,-177 313.5,-177 313.5,-177 319.5,-177 325.5,-183 325.5,-189 325.5,-189 325.5,-203 325.5,-203 325.5,-209 319.5,-215 313.5,-215"/>
<text text-anchor="middle" x="285.5" y="-199.8" font-family="Times,serif" font-size="14.00" fill="#222222">zero</text>
<text text-anchor="middle" x="285.5" y="-184.8" font-family="Times,serif" font-size="14.00" fill="#222222">INT64(1)</text>
</g>
<!-- Concat_3 -->
<g id="node4" class="node">
<title>Concat_3</title>
<path fill="#cccccc" stroke="#888888" d="M252,-152C252,-152 123,-152 123,-152 117,-152 111,-146 111,-140 111,-140 111,-128 111,-128 111,-122 117,-116 123,-116 123,-116 252,-116 252,-116 258,-116 264,-122 264,-128 264,-128 264,-140 264,-140 264,-146 258,-152 252,-152"/>
<text text-anchor="middle" x="187.5" y="-130.3" font-family="Times,serif" font-size="14.00" fill="#222222">Concat(., ., axis=0)</text>
</g>
<!-- I_2&#45;&gt;Concat_3 -->
<g id="edge1" class="edge">
<title>I_2&#45;&gt;Concat_3</title>
<path fill="none" stroke="black" d="M256.1,-177C246.05,-170.85 234.7,-163.9 224.15,-157.44"/>
<polygon fill="black" stroke="black" points="215.54,-152.17 226.42,-153.55 219.8,-154.78 224.07,-157.39 224.07,-157.39 224.07,-157.39 219.8,-154.78 221.72,-161.23 215.54,-152.17 215.54,-152.17"/>
<text text-anchor="middle" x="259.5" y="-163.4" font-family="Times,serif" font-size="7.00">INT64(1)</text>
</g>
<!-- I_2&#45;&gt;Concat_5 -->
<g id="edge3" class="edge">
<title>I_2&#45;&gt;Concat_5</title>
<path fill="none" stroke="black" d="M306.2,-177C312.71,-171.34 320,-165 326.9,-159"/>
<polygon fill="black" stroke="black" points="334.76,-152.17 330.17,-162.12 330.99,-155.45 327.21,-158.73 327.21,-158.73 327.21,-158.73 330.99,-155.45 324.26,-155.33 334.76,-152.17 334.76,-152.17"/>
<text text-anchor="middle" x="341.5" y="-163.4" font-family="Times,serif" font-size="7.00">INT64(1)</text>
</g>
<!-- Concat_3&#45;&gt;Slice_6 -->
<g id="edge6" class="edge">
<title>Concat_3&#45;&gt;Slice_6</title>
<path fill="none" stroke="black" d="M215.56,-115.93C225.61,-109.82 237.1,-102.83 247.78,-96.34"/>
<polygon fill="black" stroke="black" points="256.51,-91.03 250.3,-100.07 252.23,-93.63 247.96,-96.22 247.96,-96.22 247.96,-96.22 252.23,-93.63 245.62,-92.38 256.51,-91.03 256.51,-91.03"/>
<text text-anchor="middle" x="259.5" y="-101.4" font-family="Times,serif" font-size="7.00">INT64(2)</text>
</g>
<!-- Concat_4&#45;&gt;Slice_6 -->
<g id="edge7" class="edge">
<title>Concat_4&#45;&gt;Slice_6</title>
<path fill="none" stroke="black" d="M452.95,-115.93C419.87,-107.7 380.43,-97.88 348.04,-89.82"/>
<polygon fill="black" stroke="black" points="338.23,-87.37 349.02,-85.42 343.08,-88.58 347.93,-89.79 347.93,-89.79 347.93,-89.79 343.08,-88.58 346.84,-94.16 338.23,-87.37 338.23,-87.37"/>
<text text-anchor="middle" x="427.5" y="-101.4" font-family="Times,serif" font-size="7.00">INT64(2)</text>
</g>
<!-- Concat_5&#45;&gt;Slice_6 -->
<g id="edge8" class="edge">
<title>Concat_5&#45;&gt;Slice_6</title>
<path fill="none" stroke="black" d="M334.25,-115.93C327.64,-110.36 320.16,-104.05 313.05,-98.06"/>
<polygon fill="black" stroke="black" points="304.94,-91.23 315.49,-94.24 308.77,-94.45 312.59,-97.68 312.59,-97.68 312.59,-97.68 308.77,-94.45 309.69,-101.12 304.94,-91.23 304.94,-91.23"/>
<text text-anchor="middle" x="339.5" y="-101.4" font-family="Times,serif" font-size="7.00">INT64(2)</text>
</g>
<!-- O_7 -->
<g id="node8" class="node">
<title>O_7</title>
<path fill="#aaaaee" stroke="#888888" d="M320.5,-38C320.5,-38 248.5,-38 248.5,-38 242.5,-38 236.5,-32 236.5,-26 236.5,-26 236.5,-12 236.5,-12 236.5,-6 242.5,0 248.5,0 248.5,0 320.5,0 320.5,0 326.5,0 332.5,-6 332.5,-12 332.5,-12 332.5,-26 332.5,-26 332.5,-32 326.5,-38 320.5,-38"/>
<text text-anchor="middle" x="284.5" y="-22.8" font-family="Times,serif" font-size="14.00" fill="#222222">Y</text>
<text text-anchor="middle" x="284.5" y="-7.8" font-family="Times,serif" font-size="14.00" fill="#222222">FLOAT(c,d)</text>
</g>
<!-- Slice_6&#45;&gt;O_7 -->
<g id="edge9" class="edge">
<title>Slice_6&#45;&gt;O_7</title>
<path fill="none" stroke="black" d="M284.5,-54.97C284.5,-52.89 284.5,-50.72 284.5,-48.53"/>
<polygon fill="black" stroke="black" points="284.5,-38.32 289,-48.32 284.5,-43.32 284.5,-48.32 284.5,-48.32 284.5,-48.32 284.5,-43.32 280,-48.32 284.5,-38.32 284.5,-38.32"/>
</g>
</g>
</svg>
