<?xml version="1.0" encoding="UTF-8" standalone="no"?>
<!DOCTYPE svg PUBLIC "-//W3C//DTD SVG 1.1//EN"
 "http://www.w3.org/Graphics/SVG/1.1/DTD/svg11.dtd">
<!-- Generated by graphviz version 2.43.0 (0)
 -->
<!-- Title: %3 Pages: 1 -->
<svg width="398pt" height="161pt"
 viewBox="0.00 0.00 398.00 161.00" xmlns="http://www.w3.org/2000/svg" xmlns:xlink="http://www.w3.org/1999/xlink">
<g id="graph0" class="graph" transform="scale(1 1) rotate(0) translate(4 157)">
<title>%3</title>
<!-- I_0 -->
<g id="node1" class="node">
<title>I_0</title>
<path fill="#aaeeaa" stroke="#888888" d="M277,-153C277,-153 113,-153 113,-153 107,-153 101,-147 101,-141 101,-141 101,-127 101,-127 101,-121 107,-115 113,-115 113,-115 277,-115 277,-115 283,-115 289,-121 289,-127 289,-127 289,-141 289,-141 289,-147 283,-153 277,-153"/>
<text text-anchor="middle" x="195" y="-137.8" font-family="Times,serif" font-size="14.00" fill="#222222">transpose_1</text>
<text text-anchor="middle" x="195" y="-122.8" font-family="Times,serif" font-size="14.00" fill="#222222">FLOAT16(2,2,1024,512)</text>
</g>
<!-- Split_1 -->
<g id="node2" class="node">
<title>Split_1</title>
<path fill="#cccccc" stroke="#888888" d="M286,-91C286,-91 104,-91 104,-91 98,-91 92,-85 92,-79 92,-79 92,-67 92,-67 92,-61 98,-55 104,-55 104,-55 286,-55 286,-55 292,-55 298,-61 298,-67 298,-67 298,-79 298,-79 298,-85 292,-91 286,-91"/>
<text text-anchor="middle" x="195" y="-69.3" font-family="Times,serif" font-size="14.00" fill="#222222">Split(., [256, 256], axis=3)</text>
</g>
<!-- I_0&#45;&gt;Split_1 -->
<g id="edge1" class="edge">
<title>I_0&#45;&gt;Split_1</title>
<path fill="none" stroke="black" d="M195,-114.98C195,-110.71 195,-106.06 195,-101.47"/>
<polygon fill="black" stroke="black" points="195,-91.1 199.5,-101.1 195,-96.1 195,-101.1 195,-101.1 195,-101.1 195,-96.1 190.5,-101.1 195,-91.1 195,-91.1"/>
<text text-anchor="middle" x="238.5" y="-101.4" font-family="Times,serif" font-size="7.00">FLOAT16(2,2,1024,512)</text>
</g>
<!-- O_2 -->
<g id="node3" class="node">
<title>O_2</title>
<path fill="#aaaaee" stroke="#888888" d="M176,-38C176,-38 12,-38 12,-38 6,-38 0,-32 0,-26 0,-26 0,-12 0,-12 0,-6 6,0 12,0 12,0 176,0 176,0 182,0 188,-6 188,-12 188,-12 188,-26 188,-26 188,-32 182,-38 176,-38"/>
<text text-anchor="middle" x="94" y="-22.8" font-family="Times,serif" font-size="14.00" fill="#222222">slice_11</text>
<text text-anchor="middle" x="94" y="-7.8" font-family="Times,serif" font-size="14.00" fill="#222222">FLOAT16(2,2,1024,256)</text>
</g>
<!-- Split_1&#45;&gt;O_2 -->
<g id="edge2" class="edge">
<title>Split_1&#45;&gt;O_2</title>
<path fill="none" stroke="black" d="M161.93,-54.97C154.4,-51.1 146.29,-46.92 138.38,-42.85"/>
<polygon fill="black" stroke="black" points="129.23,-38.14 140.18,-38.72 133.68,-40.43 138.12,-42.72 138.12,-42.72 138.12,-42.72 133.68,-40.43 136.06,-46.72 129.23,-38.14 129.23,-38.14"/>
</g>
<!-- O_3 -->
<g id="node4" class="node">
<title>O_3</title>
<path fill="#aaaaee" stroke="#888888" d="M378,-38C378,-38 214,-38 214,-38 208,-38 202,-32 202,-26 202,-26 202,-12 202,-12 202,-6 208,0 214,0 214,0 378,0 378,0 384,0 390,-6 390,-12 390,-12 390,-26 390,-26 390,-32 384,-38 378,-38"/>
<text text-anchor="middle" x="296" y="-22.8" font-family="Times,serif" font-size="14.00" fill="#222222">slice_12</text>
<text text-anchor="middle" x="296" y="-7.8" font-family="Times,serif" font-size="14.00" fill="#222222">FLOAT16(2,2,1024,256)</text>
</g>
<!-- Split_1&#45;&gt;O_3 -->
<g id="edge3" class="edge">
<title>Split_1&#45;&gt;O_3</title>
<path fill="none" stroke="black" d="M228.07,-54.97C235.6,-51.1 243.71,-46.92 251.62,-42.85"/>
<polygon fill="black" stroke="black" points="260.77,-38.14 253.94,-46.72 256.32,-40.43 251.88,-42.72 251.88,-42.72 251.88,-42.72 256.32,-40.43 249.82,-38.72 260.77,-38.14 260.77,-38.14"/>
</g>
</g>
</svg>
