<?xml version="1.0" encoding="UTF-8" standalone="no"?>
<!DOCTYPE svg PUBLIC "-//W3C//DTD SVG 1.1//EN"
 "http://www.w3.org/Graphics/SVG/1.1/DTD/svg11.dtd">
<!-- Generated by graphviz version 2.43.0 (0)
 -->
<!-- Title: %3 Pages: 1 -->
<svg width="234pt" height="223pt"
 viewBox="0.00 0.00 234.00 223.00" xmlns="http://www.w3.org/2000/svg" xmlns:xlink="http://www.w3.org/1999/xlink">
<g id="graph0" class="graph" transform="scale(1 1) rotate(0) translate(4 219)">
<title>%3</title>
<!-- I_0 -->
<g id="node1" class="node">
<title>I_0</title>
<path fill="#aaeeaa" stroke="#888888" d="M72,-153C72,-153 12,-153 12,-153 6,-153 0,-147 0,-141 0,-141 0,-127 0,-127 0,-121 6,-115 12,-115 12,-115 72,-115 72,-115 78,-115 84,-121 84,-127 84,-127 84,-141 84,-141 84,-147 78,-153 72,-153"/>
<text text-anchor="middle" x="42" y="-137.8" font-family="Times,serif" font-size="14.00" fill="#222222">Z</text>
<text text-anchor="middle" x="42" y="-122.8" font-family="Times,serif" font-size="14.00" fill="#222222">FLOAT(d)</text>
</g>
<!-- Mul_4 -->
<g id="node5" class="node">
<title>Mul_4</title>
<path fill="#cccccc" stroke="#888888" d="M93.5,-91C93.5,-91 44.5,-91 44.5,-91 38.5,-91 32.5,-85 32.5,-79 32.5,-79 32.5,-67 32.5,-67 32.5,-61 38.5,-55 44.5,-55 44.5,-55 93.5,-55 93.5,-55 99.5,-55 105.5,-61 105.5,-67 105.5,-67 105.5,-79 105.5,-79 105.5,-85 99.5,-91 93.5,-91"/>
<text text-anchor="middle" x="69" y="-69.3" font-family="Times,serif" font-size="14.00" fill="#222222">Mul(., .)</text>
</g>
<!-- I_0&#45;&gt;Mul_4 -->
<g id="edge4" class="edge">
<title>I_0&#45;&gt;Mul_4</title>
<path fill="none" stroke="black" d="M50.25,-114.98C52.36,-110.35 54.69,-105.28 56.95,-100.33"/>
<polygon fill="black" stroke="black" points="61.17,-91.1 61.1,-102.07 59.09,-95.65 57.01,-100.2 57.01,-100.2 57.01,-100.2 59.09,-95.65 52.92,-98.33 61.17,-91.1 61.17,-91.1"/>
<text text-anchor="middle" x="75.5" y="-101.4" font-family="Times,serif" font-size="7.00">FLOAT(d)</text>
</g>
<!-- I_1 -->
<g id="node2" class="node">
<title>I_1</title>
<path fill="#aaeeaa" stroke="#888888" d="M116,-215C116,-215 56,-215 56,-215 50,-215 44,-209 44,-203 44,-203 44,-189 44,-189 44,-183 50,-177 56,-177 56,-177 116,-177 116,-177 122,-177 128,-183 128,-189 128,-189 128,-203 128,-203 128,-209 122,-215 116,-215"/>
<text text-anchor="middle" x="86" y="-199.8" font-family="Times,serif" font-size="14.00" fill="#222222">Y</text>
<text text-anchor="middle" x="86" y="-184.8" font-family="Times,serif" font-size="14.00" fill="#222222">FLOAT(d)</text>
</g>
<!-- Sub_3 -->
<g id="node4" class="node">
<title>Sub_3</title>
<path fill="#cccccc" stroke="#888888" d="M159.5,-152C159.5,-152 110.5,-152 110.5,-152 104.5,-152 98.5,-146 98.5,-140 98.5,-140 98.5,-128 98.5,-128 98.5,-122 104.5,-116 110.5,-116 110.5,-116 159.5,-116 159.5,-116 165.5,-116 171.5,-122 171.5,-128 171.5,-128 171.5,-140 171.5,-140 171.5,-146 165.5,-152 159.5,-152"/>
<text text-anchor="middle" x="135" y="-130.3" font-family="Times,serif" font-size="14.00" fill="#222222">Sub(., .)</text>
</g>
<!-- I_1&#45;&gt;Sub_3 -->
<g id="edge2" class="edge">
<title>I_1&#45;&gt;Sub_3</title>
<path fill="none" stroke="black" d="M100.7,-177C105.02,-171.71 109.82,-165.83 114.44,-160.18"/>
<polygon fill="black" stroke="black" points="120.98,-152.17 118.14,-162.76 117.82,-156.04 114.66,-159.91 114.66,-159.91 114.66,-159.91 117.82,-156.04 111.17,-157.06 120.98,-152.17 120.98,-152.17"/>
<text text-anchor="middle" x="131.5" y="-163.4" font-family="Times,serif" font-size="7.00">FLOAT(d)</text>
</g>
<!-- I_2 -->
<g id="node3" class="node">
<title>I_2</title>
<path fill="#aaeeaa" stroke="#888888" d="M214,-215C214,-215 154,-215 154,-215 148,-215 142,-209 142,-203 142,-203 142,-189 142,-189 142,-183 148,-177 154,-177 154,-177 214,-177 214,-177 220,-177 226,-183 226,-189 226,-189 226,-203 226,-203 226,-209 220,-215 214,-215"/>
<text text-anchor="middle" x="184" y="-199.8" font-family="Times,serif" font-size="14.00" fill="#222222">X</text>
<text text-anchor="middle" x="184" y="-184.8" font-family="Times,serif" font-size="14.00" fill="#222222">FLOAT(d)</text>
</g>
<!-- I_2&#45;&gt;Sub_3 -->
<g id="edge1" class="edge">
<title>I_2&#45;&gt;Sub_3</title>
<path fill="none" stroke="black" d="M169.3,-177C164.98,-171.71 160.18,-165.83 155.56,-160.18"/>
<polygon fill="black" stroke="black" points="149.02,-152.17 158.83,-157.06 152.18,-156.04 155.34,-159.91 155.34,-159.91 155.34,-159.91 152.18,-156.04 151.86,-162.76 149.02,-152.17 149.02,-152.17"/>
<text text-anchor="middle" x="179.5" y="-163.4" font-family="Times,serif" font-size="7.00">FLOAT(d)</text>
</g>
<!-- Sub_3&#45;&gt;Mul_4 -->
<g id="edge3" class="edge">
<title>Sub_3&#45;&gt;Mul_4</title>
<path fill="none" stroke="black" d="M115.91,-115.93C109.67,-110.36 102.62,-104.05 95.92,-98.06"/>
<polygon fill="black" stroke="black" points="88.28,-91.23 98.73,-94.54 92,-94.56 95.73,-97.9 95.73,-97.9 95.73,-97.9 92,-94.56 92.73,-101.25 88.28,-91.23 88.28,-91.23"/>
<text text-anchor="middle" x="121.5" y="-101.4" font-family="Times,serif" font-size="7.00">FLOAT(d)</text>
</g>
<!-- O_5 -->
<g id="node6" class="node">
<title>O_5</title>
<path fill="#aaaaee" stroke="#888888" d="M99,-38C99,-38 39,-38 39,-38 33,-38 27,-32 27,-26 27,-26 27,-12 27,-12 27,-6 33,0 39,0 39,0 99,0 99,0 105,0 111,-6 111,-12 111,-12 111,-26 111,-26 111,-32 105,-38 99,-38"/>
<text text-anchor="middle" x="69" y="-22.8" font-family="Times,serif" font-size="14.00" fill="#222222">F</text>
<text text-anchor="middle" x="69" y="-7.8" font-family="Times,serif" font-size="14.00" fill="#222222">FLOAT(d)</text>
</g>
<!-- Mul_4&#45;&gt;O_5 -->
<g id="edge5" class="edge">
<title>Mul_4&#45;&gt;O_5</title>
<path fill="none" stroke="black" d="M69,-54.97C69,-52.89 69,-50.72 69,-48.53"/>
<polygon fill="black" stroke="black" points="69,-38.32 73.5,-48.32 69,-43.32 69,-48.32 69,-48.32 69,-48.32 69,-43.32 64.5,-48.32 69,-38.32 69,-38.32"/>
</g>
</g>
</svg>
