<?xml version="1.0" encoding="UTF-8" standalone="no"?>
<!DOCTYPE svg PUBLIC "-//W3C//DTD SVG 1.1//EN"
 "http://www.w3.org/Graphics/SVG/1.1/DTD/svg11.dtd">
<!-- Generated by graphviz version 2.43.0 (0)
 -->
<!-- Title: %3 Pages: 1 -->
<svg width="941pt" height="293pt"
 viewBox="0.00 0.00 941.00 293.00" xmlns="http://www.w3.org/2000/svg" xmlns:xlink="http://www.w3.org/1999/xlink">
<g id="graph0" class="graph" transform="scale(1 1) rotate(0) translate(4 289)">
<title>%3</title>
<!-- I_0 -->
<g id="node1" class="node">
<title>I_0</title>
<path fill="#aaeeaa" stroke="#888888" d="M131,-170C131,-170 12,-170 12,-170 6,-170 0,-164 0,-158 0,-158 0,-144 0,-144 0,-138 6,-132 12,-132 12,-132 131,-132 131,-132 137,-132 143,-138 143,-144 143,-144 143,-158 143,-158 143,-164 137,-170 131,-170"/>
<text text-anchor="middle" x="71.5" y="-154.8" font-family="Times,serif" font-size="14.00" fill="#222222">values_t</text>
<text text-anchor="middle" x="71.5" y="-139.8" font-family="Times,serif" font-size="14.00" fill="#222222">FLOAT(av,8,cv,64)</text>
</g>
<!-- LocalAttention_to1_10 -->
<g id="node11" class="node">
<title>LocalAttention_to1_10</title>
<path fill="#cccccc" stroke="#888888" d="M409,-108C409,-108 282,-108 282,-108 276,-108 270,-102 270,-96 270,-96 270,-67 270,-67 270,-61 276,-55 282,-55 282,-55 409,-55 409,-55 415,-55 421,-61 421,-67 421,-67 421,-96 421,-96 421,-102 415,-108 409,-108"/>
<text text-anchor="middle" x="345.5" y="-92.8" font-family="Times,serif" font-size="14.00" fill="#222222">intermediate.</text>
<text text-anchor="middle" x="345.5" y="-77.8" font-family="Times,serif" font-size="14.00" fill="#222222">LocalAttention_to1</text>
<text text-anchor="middle" x="345.5" y="-62.8" font-family="Times,serif" font-size="14.00" fill="#222222">(., ., ., ., .)</text>
</g>
<!-- I_0&#45;&gt;LocalAttention_to1_10 -->
<g id="edge9" class="edge">
<title>I_0&#45;&gt;LocalAttention_to1_10</title>
<path fill="none" stroke="black" d="M133.7,-131.95C152.83,-126.6 173.98,-120.87 193.5,-116 214.99,-110.64 238.29,-105.28 260.05,-100.47"/>
<polygon fill="black" stroke="black" points="269.93,-98.3 261.13,-104.84 265.04,-99.37 260.16,-100.45 260.16,-100.45 260.16,-100.45 265.04,-99.37 259.2,-96.05 269.93,-98.3 269.93,-98.3"/>
<text text-anchor="middle" x="226" y="-118.4" font-family="Times,serif" font-size="7.00">FLOAT(av,8,cv,64)</text>
</g>
<!-- I_1 -->
<g id="node2" class="node">
<title>I_1</title>
<path fill="#aaeeaa" stroke="#888888" d="M890.5,-285C890.5,-285 756.5,-285 756.5,-285 750.5,-285 744.5,-279 744.5,-273 744.5,-273 744.5,-259 744.5,-259 744.5,-253 750.5,-247 756.5,-247 756.5,-247 890.5,-247 890.5,-247 896.5,-247 902.5,-253 902.5,-259 902.5,-259 902.5,-273 902.5,-273 902.5,-279 896.5,-285 890.5,-285"/>
<text text-anchor="middle" x="823.5" y="-269.8" font-family="Times,serif" font-size="14.00" fill="#222222">keys</text>
<text text-anchor="middle" x="823.5" y="-254.8" font-family="Times,serif" font-size="14.00" fill="#222222">FLOAT(ak,ck,bk*dk)</text>
</g>
<!-- Reshape_7 -->
<g id="node8" class="node">
<title>Reshape_7</title>
<path fill="#eeeeee" stroke="#888888" d="M855.5,-223C855.5,-223 773.5,-223 773.5,-223 767.5,-223 761.5,-217 761.5,-211 761.5,-211 761.5,-199 761.5,-199 761.5,-193 767.5,-187 773.5,-187 773.5,-187 855.5,-187 855.5,-187 861.5,-187 867.5,-193 867.5,-199 867.5,-199 867.5,-211 867.5,-211 867.5,-217 861.5,-223 855.5,-223"/>
<text text-anchor="middle" x="814.5" y="-201.3" font-family="Times,serif" font-size="14.00" fill="#222222">Reshape(., .)</text>
</g>
<!-- I_1&#45;&gt;Reshape_7 -->
<g id="edge3" class="edge">
<title>I_1&#45;&gt;Reshape_7</title>
<path fill="none" stroke="black" d="M820.75,-246.98C820.08,-242.59 819.35,-237.8 818.63,-233.09"/>
<polygon fill="black" stroke="black" points="817.11,-223.1 823.07,-232.31 817.86,-228.05 818.62,-232.99 818.62,-232.99 818.62,-232.99 817.86,-228.05 814.17,-233.67 817.11,-223.1 817.11,-223.1"/>
<text text-anchor="middle" x="855.5" y="-233.4" font-family="Times,serif" font-size="7.00">FLOAT(ak,ck,bk*dk)</text>
</g>
<!-- I_2 -->
<g id="node3" class="node">
<title>I_2</title>
<path fill="#aaeeaa" stroke="#888888" d="M234,-170C234,-170 169,-170 169,-170 163,-170 157,-164 157,-158 157,-158 157,-144 157,-144 157,-138 163,-132 169,-132 169,-132 234,-132 234,-132 240,-132 246,-138 246,-144 246,-144 246,-158 246,-158 246,-164 240,-170 234,-170"/>
<text text-anchor="middle" x="201.5" y="-154.8" font-family="Times,serif" font-size="14.00" fill="#222222">scale_sqrt</text>
<text text-anchor="middle" x="201.5" y="-139.8" font-family="Times,serif" font-size="14.00" fill="#222222">FLOAT(1)</text>
</g>
<!-- I_2&#45;&gt;LocalAttention_to1_10 -->
<g id="edge11" class="edge">
<title>I_2&#45;&gt;LocalAttention_to1_10</title>
<path fill="none" stroke="black" d="M240.09,-131.91C252.87,-125.92 267.45,-119.08 281.61,-112.45"/>
<polygon fill="black" stroke="black" points="290.83,-108.12 283.69,-116.44 286.31,-110.25 281.78,-112.37 281.78,-112.37 281.78,-112.37 286.31,-110.25 279.87,-108.29 290.83,-108.12 290.83,-108.12"/>
<text text-anchor="middle" x="291" y="-118.4" font-family="Times,serif" font-size="7.00">FLOAT(1)</text>
</g>
<!-- I_3 -->
<g id="node4" class="node">
<title>I_3</title>
<path fill="#aaeeaa" stroke="#888888" d="M718.5,-285C718.5,-285 662.5,-285 662.5,-285 656.5,-285 650.5,-279 650.5,-273 650.5,-273 650.5,-259 650.5,-259 650.5,-253 656.5,-247 662.5,-247 662.5,-247 718.5,-247 718.5,-247 724.5,-247 730.5,-253 730.5,-259 730.5,-259 730.5,-273 730.5,-273 730.5,-279 724.5,-285 718.5,-285"/>
<text text-anchor="middle" x="690.5" y="-269.8" font-family="Times,serif" font-size="14.00" fill="#222222">shape0</text>
<text text-anchor="middle" x="690.5" y="-254.8" font-family="Times,serif" font-size="14.00" fill="#222222">INT64(4)</text>
</g>
<!-- Reshape_6 -->
<g id="node7" class="node">
<title>Reshape_6</title>
<path fill="#eeeeee" stroke="#888888" d="M604.5,-223C604.5,-223 522.5,-223 522.5,-223 516.5,-223 510.5,-217 510.5,-211 510.5,-211 510.5,-199 510.5,-199 510.5,-193 516.5,-187 522.5,-187 522.5,-187 604.5,-187 604.5,-187 610.5,-187 616.5,-193 616.5,-199 616.5,-199 616.5,-211 616.5,-211 616.5,-217 610.5,-223 604.5,-223"/>
<text text-anchor="middle" x="563.5" y="-201.3" font-family="Times,serif" font-size="14.00" fill="#222222">Reshape(., .)</text>
</g>
<!-- I_3&#45;&gt;Reshape_6 -->
<g id="edge2" class="edge">
<title>I_3&#45;&gt;Reshape_6</title>
<path fill="none" stroke="black" d="M665.09,-246.91C656.57,-241.34 646.86,-235.5 637.5,-231 633.89,-229.27 630.13,-227.6 626.3,-226.01"/>
<polygon fill="black" stroke="black" points="616.68,-222.21 627.64,-221.7 621.33,-224.04 625.98,-225.88 625.98,-225.88 625.98,-225.88 621.33,-224.04 624.33,-230.07 616.68,-222.21 616.68,-222.21"/>
<text text-anchor="middle" x="668.5" y="-233.4" font-family="Times,serif" font-size="7.00">INT64(4)</text>
</g>
<!-- I_3&#45;&gt;Reshape_7 -->
<g id="edge4" class="edge">
<title>I_3&#45;&gt;Reshape_7</title>
<path fill="none" stroke="black" d="M728.38,-246.98C741.34,-240.81 755.97,-233.85 769.44,-227.44"/>
<polygon fill="black" stroke="black" points="778.55,-223.1 771.45,-231.46 774.04,-225.25 769.52,-227.4 769.52,-227.4 769.52,-227.4 774.04,-225.25 767.59,-223.34 778.55,-223.1 778.55,-223.1"/>
<text text-anchor="middle" x="776.5" y="-233.4" font-family="Times,serif" font-size="7.00">INT64(4)</text>
</g>
<!-- I_4 -->
<g id="node5" class="node">
<title>I_4</title>
<path fill="#aaeeaa" stroke="#888888" d="M418.5,-170C418.5,-170 272.5,-170 272.5,-170 266.5,-170 260.5,-164 260.5,-158 260.5,-158 260.5,-144 260.5,-144 260.5,-138 266.5,-132 272.5,-132 272.5,-132 418.5,-132 418.5,-132 424.5,-132 430.5,-138 430.5,-144 430.5,-144 430.5,-158 430.5,-158 430.5,-164 424.5,-170 418.5,-170"/>
<text text-anchor="middle" x="345.5" y="-154.8" font-family="Times,serif" font-size="14.00" fill="#222222">mask</text>
<text text-anchor="middle" x="345.5" y="-139.8" font-family="Times,serif" font-size="14.00" fill="#222222">BOOL(am,bm,cm,dm)</text>
</g>
<!-- I_4&#45;&gt;LocalAttention_to1_10 -->
<g id="edge10" class="edge">
<title>I_4&#45;&gt;LocalAttention_to1_10</title>
<path fill="none" stroke="black" d="M345.5,-131.91C345.5,-127.71 345.5,-123.1 345.5,-118.43"/>
<polygon fill="black" stroke="black" points="345.5,-108.25 350,-118.25 345.5,-113.25 345.5,-118.25 345.5,-118.25 345.5,-118.25 345.5,-113.25 341,-118.25 345.5,-108.25 345.5,-108.25"/>
<text text-anchor="middle" x="385" y="-118.4" font-family="Times,serif" font-size="7.00">BOOL(am,bm,cm,dm)</text>
</g>
<!-- I_5 -->
<g id="node6" class="node">
<title>I_5</title>
<path fill="#aaeeaa" stroke="#888888" d="M624,-285C624,-285 487,-285 487,-285 481,-285 475,-279 475,-273 475,-273 475,-259 475,-259 475,-253 481,-247 487,-247 487,-247 624,-247 624,-247 630,-247 636,-253 636,-259 636,-259 636,-273 636,-273 636,-279 630,-285 624,-285"/>
<text text-anchor="middle" x="555.5" y="-269.8" font-family="Times,serif" font-size="14.00" fill="#222222">query</text>
<text text-anchor="middle" x="555.5" y="-254.8" font-family="Times,serif" font-size="14.00" fill="#222222">FLOAT(aq,cq,bq*dq)</text>
</g>
<!-- I_5&#45;&gt;Reshape_6 -->
<g id="edge1" class="edge">
<title>I_5&#45;&gt;Reshape_6</title>
<path fill="none" stroke="black" d="M557.94,-246.98C558.54,-242.59 559.19,-237.8 559.83,-233.09"/>
<polygon fill="black" stroke="black" points="561.18,-223.1 564.3,-233.62 560.51,-228.06 559.84,-233.01 559.84,-233.01 559.84,-233.01 560.51,-228.06 555.38,-232.41 561.18,-223.1 561.18,-223.1"/>
<text text-anchor="middle" x="597.5" y="-233.4" font-family="Times,serif" font-size="7.00">FLOAT(aq,cq,bq*dq)</text>
</g>
<!-- Transpose_8 -->
<g id="node9" class="node">
<title>Transpose_8</title>
<path fill="#ee99ee" stroke="#888888" d="M670,-169C670,-169 457,-169 457,-169 451,-169 445,-163 445,-157 445,-157 445,-145 445,-145 445,-139 451,-133 457,-133 457,-133 670,-133 670,-133 676,-133 682,-139 682,-145 682,-145 682,-157 682,-157 682,-163 676,-169 670,-169"/>
<text text-anchor="middle" x="563.5" y="-147.3" font-family="Times,serif" font-size="14.00" fill="#222222">Transpose(., perm=[0, 2, 1, 3])</text>
</g>
<!-- Reshape_6&#45;&gt;Transpose_8 -->
<g id="edge5" class="edge">
<title>Reshape_6&#45;&gt;Transpose_8</title>
<path fill="none" stroke="black" d="M563.5,-186.97C563.5,-184.57 563.5,-182.06 563.5,-179.52"/>
<polygon fill="black" stroke="black" points="563.5,-169.24 568,-179.24 563.5,-174.24 563.5,-179.24 563.5,-179.24 563.5,-179.24 563.5,-174.24 559,-179.24 563.5,-169.24 563.5,-169.24"/>
</g>
<!-- Transpose_9 -->
<g id="node10" class="node">
<title>Transpose_9</title>
<path fill="#ee99ee" stroke="#888888" d="M921,-169C921,-169 708,-169 708,-169 702,-169 696,-163 696,-157 696,-157 696,-145 696,-145 696,-139 702,-133 708,-133 708,-133 921,-133 921,-133 927,-133 933,-139 933,-145 933,-145 933,-157 933,-157 933,-163 927,-169 921,-169"/>
<text text-anchor="middle" x="814.5" y="-147.3" font-family="Times,serif" font-size="14.00" fill="#222222">Transpose(., perm=[0, 2, 1, 3])</text>
</g>
<!-- Reshape_7&#45;&gt;Transpose_9 -->
<g id="edge6" class="edge">
<title>Reshape_7&#45;&gt;Transpose_9</title>
<path fill="none" stroke="black" d="M814.5,-186.97C814.5,-184.57 814.5,-182.06 814.5,-179.52"/>
<polygon fill="black" stroke="black" points="814.5,-169.24 819,-179.24 814.5,-174.24 814.5,-179.24 814.5,-179.24 814.5,-179.24 814.5,-174.24 810,-179.24 814.5,-169.24 814.5,-169.24"/>
</g>
<!-- Transpose_8&#45;&gt;LocalAttention_to1_10 -->
<g id="edge7" class="edge">
<title>Transpose_8&#45;&gt;LocalAttention_to1_10</title>
<path fill="none" stroke="black" d="M508.49,-132.97C485,-125.69 457.04,-117.04 430.96,-108.96"/>
<polygon fill="black" stroke="black" points="421.08,-105.9 431.96,-104.56 425.85,-107.38 430.63,-108.86 430.63,-108.86 430.63,-108.86 425.85,-107.38 429.3,-113.16 421.08,-105.9 421.08,-105.9"/>
</g>
<!-- Transpose_9&#45;&gt;LocalAttention_to1_10 -->
<g id="edge8" class="edge">
<title>Transpose_9&#45;&gt;LocalAttention_to1_10</title>
<path fill="none" stroke="black" d="M696.15,-132.97C613.73,-121.11 505.71,-105.56 431.46,-94.87"/>
<polygon fill="black" stroke="black" points="421.21,-93.4 431.75,-90.37 426.16,-94.11 431.11,-94.82 431.11,-94.82 431.11,-94.82 426.16,-94.11 430.47,-99.28 421.21,-93.4 421.21,-93.4"/>
</g>
<!-- O_11 -->
<g id="node12" class="node">
<title>O_11</title>
<path fill="#aaaaee" stroke="#888888" d="M408,-38C408,-38 283,-38 283,-38 277,-38 271,-32 271,-26 271,-26 271,-12 271,-12 271,-6 277,0 283,0 283,0 408,0 408,0 414,0 420,-6 420,-12 420,-12 420,-26 420,-26 420,-32 414,-38 408,-38"/>
<text text-anchor="middle" x="345.5" y="-22.8" font-family="Times,serif" font-size="14.00" fill="#222222">Y</text>
<text text-anchor="middle" x="345.5" y="-7.8" font-family="Times,serif" font-size="14.00" fill="#222222">FLOAT(ay,by,cy,dy)</text>
</g>
<!-- LocalAttention_to1_10&#45;&gt;O_11 -->
<g id="edge12" class="edge">
<title>LocalAttention_to1_10&#45;&gt;O_11</title>
<path fill="none" stroke="black" d="M345.5,-54.84C345.5,-52.77 345.5,-50.66 345.5,-48.56"/>
<polygon fill="black" stroke="black" points="345.5,-38.36 350,-48.36 345.5,-43.36 345.5,-48.36 345.5,-48.36 345.5,-48.36 345.5,-43.36 341,-48.36 345.5,-38.36 345.5,-38.36"/>
</g>
</g>
</svg>
