<?xml version="1.0" encoding="UTF-8" standalone="no"?>
<!DOCTYPE svg PUBLIC "-//W3C//DTD SVG 1.1//EN"
 "http://www.w3.org/Graphics/SVG/1.1/DTD/svg11.dtd">
<!-- Generated by graphviz version 2.43.0 (0)
 -->
<!-- Title: %3 Pages: 1 -->
<svg width="400pt" height="221pt"
 viewBox="0.00 0.00 399.50 221.00" xmlns="http://www.w3.org/2000/svg" xmlns:xlink="http://www.w3.org/1999/xlink">
<g id="graph0" class="graph" transform="scale(1 1) rotate(0) translate(4 217)">
<title>%3</title>
<!-- I_0 -->
<g id="node1" class="node">
<title>I_0</title>
<path fill="#aaeeaa" stroke="#888888" d="M177.5,-213C177.5,-213 59.5,-213 59.5,-213 53.5,-213 47.5,-207 47.5,-201 47.5,-201 47.5,-187 47.5,-187 47.5,-181 53.5,-175 59.5,-175 59.5,-175 177.5,-175 177.5,-175 183.5,-175 189.5,-181 189.5,-187 189.5,-187 189.5,-201 189.5,-201 189.5,-207 183.5,-213 177.5,-213"/>
<text text-anchor="middle" x="118.5" y="-197.8" font-family="Times,serif" font-size="14.00" fill="#222222">X</text>
<text text-anchor="middle" x="118.5" y="-182.8" font-family="Times,serif" font-size="14.00" fill="#222222">FLOAT(a,b,16,80)</text>
</g>
<!-- Transpose_3 -->
<g id="node4" class="node">
<title>Transpose_3</title>
<path fill="#ee99ee" stroke="#888888" d="M225,-151C225,-151 12,-151 12,-151 6,-151 0,-145 0,-139 0,-139 0,-127 0,-127 0,-121 6,-115 12,-115 12,-115 225,-115 225,-115 231,-115 237,-121 237,-127 237,-127 237,-139 237,-139 237,-145 231,-151 225,-151"/>
<text text-anchor="middle" x="118.5" y="-129.3" font-family="Times,serif" font-size="14.00" fill="#222222">Transpose(., perm=[1, 0, 2, 3])</text>
</g>
<!-- I_0&#45;&gt;Transpose_3 -->
<g id="edge1" class="edge">
<title>I_0&#45;&gt;Transpose_3</title>
<path fill="none" stroke="black" d="M118.5,-174.98C118.5,-170.71 118.5,-166.06 118.5,-161.47"/>
<polygon fill="black" stroke="black" points="118.5,-151.1 123,-161.1 118.5,-156.1 118.5,-161.1 118.5,-161.1 118.5,-161.1 118.5,-156.1 114,-161.1 118.5,-151.1 118.5,-151.1"/>
<text text-anchor="middle" x="150.5" y="-161.4" font-family="Times,serif" font-size="7.00">FLOAT(a,b,16,80)</text>
</g>
<!-- I_1 -->
<g id="node2" class="node">
<title>I_1</title>
<path fill="#aaeeaa" stroke="#888888" d="M263,-213C263,-213 216,-213 216,-213 210,-213 204,-207 204,-201 204,-201 204,-187 204,-187 204,-181 210,-175 216,-175 216,-175 263,-175 263,-175 269,-175 275,-181 275,-187 275,-187 275,-201 275,-201 275,-207 269,-213 263,-213"/>
<text text-anchor="middle" x="239.5" y="-197.8" font-family="Times,serif" font-size="14.00" fill="#222222">ind</text>
<text text-anchor="middle" x="239.5" y="-182.8" font-family="Times,serif" font-size="14.00" fill="#222222">INT64()</text>
</g>
<!-- Constant_2 -->
<g id="node3" class="node">
<title>Constant_2</title>
<path fill="#cccccc" stroke="#888888" d="M379.5,-151C379.5,-151 263.5,-151 263.5,-151 257.5,-151 251.5,-145 251.5,-139 251.5,-139 251.5,-127 251.5,-127 251.5,-121 257.5,-115 263.5,-115 263.5,-115 379.5,-115 379.5,-115 385.5,-115 391.5,-121 391.5,-127 391.5,-127 391.5,-139 391.5,-139 391.5,-145 385.5,-151 379.5,-151"/>
<text text-anchor="middle" x="321.5" y="-129.3" font-family="Times,serif" font-size="14.00" fill="#222222">Constant() &#45;&gt; ind</text>
</g>
<!-- Gather_4 -->
<g id="node5" class="node">
<title>Gather_4</title>
<path fill="#cccccc" stroke="#888888" d="M284,-91C284,-91 155,-91 155,-91 149,-91 143,-85 143,-79 143,-79 143,-67 143,-67 143,-61 149,-55 155,-55 155,-55 284,-55 284,-55 290,-55 296,-61 296,-67 296,-67 296,-79 296,-79 296,-85 290,-91 284,-91"/>
<text text-anchor="middle" x="219.5" y="-69.3" font-family="Times,serif" font-size="14.00" fill="#222222">Gather(., ., axis=0)</text>
</g>
<!-- Constant_2&#45;&gt;Gather_4 -->
<g id="edge3" class="edge">
<title>Constant_2&#45;&gt;Gather_4</title>
<path fill="none" stroke="black" d="M291.45,-114.91C281.16,-109.06 269.51,-102.43 258.61,-96.24"/>
<polygon fill="black" stroke="black" points="249.69,-91.17 260.61,-92.2 254.04,-93.64 258.38,-96.11 258.38,-96.11 258.38,-96.11 254.04,-93.64 256.16,-100.02 249.69,-91.17 249.69,-91.17"/>
<text text-anchor="middle" x="291" y="-101.4" font-family="Times,serif" font-size="7.00">INT64()</text>
</g>
<!-- Transpose_3&#45;&gt;Gather_4 -->
<g id="edge2" class="edge">
<title>Transpose_3&#45;&gt;Gather_4</title>
<path fill="none" stroke="black" d="M148.26,-114.91C158.44,-109.06 169.98,-102.43 180.77,-96.24"/>
<polygon fill="black" stroke="black" points="189.61,-91.17 183.18,-100.05 185.27,-93.66 180.93,-96.15 180.93,-96.15 180.93,-96.15 185.27,-93.66 178.69,-92.24 189.61,-91.17 189.61,-91.17"/>
<text text-anchor="middle" x="207.5" y="-101.4" font-family="Times,serif" font-size="7.00">FLOAT(b,a,16,80)</text>
</g>
<!-- O_5 -->
<g id="node6" class="node">
<title>O_5</title>
<path fill="#aaaaee" stroke="#888888" d="M271.5,-38C271.5,-38 167.5,-38 167.5,-38 161.5,-38 155.5,-32 155.5,-26 155.5,-26 155.5,-12 155.5,-12 155.5,-6 161.5,0 167.5,0 167.5,0 271.5,0 271.5,0 277.5,0 283.5,-6 283.5,-12 283.5,-12 283.5,-26 283.5,-26 283.5,-32 277.5,-38 271.5,-38"/>
<text text-anchor="middle" x="219.5" y="-22.8" font-family="Times,serif" font-size="14.00" fill="#222222">Y</text>
<text text-anchor="middle" x="219.5" y="-7.8" font-family="Times,serif" font-size="14.00" fill="#222222">FLOAT(a,16,80)</text>
</g>
<!-- Gather_4&#45;&gt;O_5 -->
<g id="edge4" class="edge">
<title>Gather_4&#45;&gt;O_5</title>
<path fill="none" stroke="black" d="M219.5,-54.97C219.5,-52.89 219.5,-50.72 219.5,-48.53"/>
<polygon fill="black" stroke="black" points="219.5,-38.32 224,-48.32 219.5,-43.32 219.5,-48.32 219.5,-48.32 219.5,-48.32 219.5,-43.32 215,-48.32 219.5,-38.32 219.5,-38.32"/>
</g>
</g>
</svg>
