<?xml version="1.0" encoding="UTF-8" standalone="no"?>
<!DOCTYPE svg PUBLIC "-//W3C//DTD SVG 1.1//EN"
 "http://www.w3.org/Graphics/SVG/1.1/DTD/svg11.dtd">
<!-- Generated by graphviz version 2.43.0 (0)
 -->
<!-- Title: %3 Pages: 1 -->
<svg width="371pt" height="163pt"
 viewBox="0.00 0.00 370.50 163.00" xmlns="http://www.w3.org/2000/svg" xmlns:xlink="http://www.w3.org/1999/xlink">
<g id="graph0" class="graph" transform="scale(1 1) rotate(0) translate(4 159)">
<title>%3</title>
<!-- I_0 -->
<g id="node1" class="node">
<title>I_0</title>
<path fill="#aaeeaa" stroke="#888888" d="M113,-155C113,-155 12,-155 12,-155 6,-155 0,-149 0,-143 0,-143 0,-129 0,-129 0,-123 6,-117 12,-117 12,-117 113,-117 113,-117 119,-117 125,-123 125,-129 125,-129 125,-143 125,-143 125,-149 119,-155 113,-155"/>
<text text-anchor="middle" x="62.5" y="-139.8" font-family="Times,serif" font-size="14.00" fill="#222222">W</text>
<text text-anchor="middle" x="62.5" y="-124.8" font-family="Times,serif" font-size="14.00" fill="#222222">FLOAT(8,8,3,3)</text>
</g>
<!-- FusedConv_3 -->
<g id="node4" class="node">
<title>FusedConv_3</title>
<path fill="#cccccc" stroke="#888888" d="M258.5,-93C258.5,-93 144.5,-93 144.5,-93 138.5,-93 132.5,-87 132.5,-81 132.5,-81 132.5,-67 132.5,-67 132.5,-61 138.5,-55 144.5,-55 144.5,-55 258.5,-55 258.5,-55 264.5,-55 270.5,-61 270.5,-67 270.5,-67 270.5,-81 270.5,-81 270.5,-87 264.5,-93 258.5,-93"/>
<text text-anchor="middle" x="201.5" y="-77.8" font-family="Times,serif" font-size="14.00" fill="#222222">com.microsoft.</text>
<text text-anchor="middle" x="201.5" y="-62.8" font-family="Times,serif" font-size="14.00" fill="#222222">FusedConv(., ., .)</text>
</g>
<!-- I_0&#45;&gt;FusedConv_3 -->
<g id="edge2" class="edge">
<title>I_0&#45;&gt;FusedConv_3</title>
<path fill="none" stroke="black" d="M104.2,-117C118.64,-110.77 134.99,-103.71 150.12,-97.18"/>
<polygon fill="black" stroke="black" points="159.34,-93.2 151.95,-101.29 154.75,-95.18 150.16,-97.16 150.16,-97.16 150.16,-97.16 154.75,-95.18 148.38,-93.03 159.34,-93.2 159.34,-93.2"/>
<text text-anchor="middle" x="168" y="-103.4" font-family="Times,serif" font-size="7.00">FLOAT(8,8,3,3)</text>
</g>
<!-- I_1 -->
<g id="node2" class="node">
<title>I_1</title>
<path fill="#aaeeaa" stroke="#888888" d="M252,-155C252,-155 151,-155 151,-155 145,-155 139,-149 139,-143 139,-143 139,-129 139,-129 139,-123 145,-117 151,-117 151,-117 252,-117 252,-117 258,-117 264,-123 264,-129 264,-129 264,-143 264,-143 264,-149 258,-155 252,-155"/>
<text text-anchor="middle" x="201.5" y="-139.8" font-family="Times,serif" font-size="14.00" fill="#222222">X</text>
<text text-anchor="middle" x="201.5" y="-124.8" font-family="Times,serif" font-size="14.00" fill="#222222">FLOAT(1,8,6,6)</text>
</g>
<!-- I_1&#45;&gt;FusedConv_3 -->
<g id="edge1" class="edge">
<title>I_1&#45;&gt;FusedConv_3</title>
<path fill="none" stroke="black" d="M201.5,-117C201.5,-112.8 201.5,-108.24 201.5,-103.71"/>
<polygon fill="black" stroke="black" points="201.5,-93.4 206,-103.4 201.5,-98.4 201.5,-103.4 201.5,-103.4 201.5,-103.4 201.5,-98.4 197,-103.4 201.5,-93.4 201.5,-93.4"/>
<text text-anchor="middle" x="229" y="-103.4" font-family="Times,serif" font-size="7.00">FLOAT(1,8,6,6)</text>
</g>
<!-- I_2 -->
<g id="node3" class="node">
<title>I_2</title>
<path fill="#aaeeaa" stroke="#888888" d="M350.5,-155C350.5,-155 290.5,-155 290.5,-155 284.5,-155 278.5,-149 278.5,-143 278.5,-143 278.5,-129 278.5,-129 278.5,-123 284.5,-117 290.5,-117 290.5,-117 350.5,-117 350.5,-117 356.5,-117 362.5,-123 362.5,-129 362.5,-129 362.5,-143 362.5,-143 362.5,-149 356.5,-155 350.5,-155"/>
<text text-anchor="middle" x="320.5" y="-139.8" font-family="Times,serif" font-size="14.00" fill="#222222">B</text>
<text text-anchor="middle" x="320.5" y="-124.8" font-family="Times,serif" font-size="14.00" fill="#222222">FLOAT(8)</text>
</g>
<!-- I_2&#45;&gt;FusedConv_3 -->
<g id="edge3" class="edge">
<title>I_2&#45;&gt;FusedConv_3</title>
<path fill="none" stroke="black" d="M289.43,-117C279.92,-111.67 269.36,-105.95 259.5,-101 257.09,-99.79 254.6,-98.57 252.09,-97.36"/>
<polygon fill="black" stroke="black" points="242.9,-93.03 253.86,-93.22 247.42,-95.16 251.94,-97.29 251.94,-97.29 251.94,-97.29 247.42,-95.16 250.02,-101.36 242.9,-93.03 242.9,-93.03"/>
<text text-anchor="middle" x="292" y="-103.4" font-family="Times,serif" font-size="7.00">FLOAT(8)</text>
</g>
<!-- O_4 -->
<g id="node5" class="node">
<title>O_4</title>
<path fill="#aaaaee" stroke="#888888" d="M252,-38C252,-38 151,-38 151,-38 145,-38 139,-32 139,-26 139,-26 139,-12 139,-12 139,-6 145,0 151,0 151,0 252,0 252,0 258,0 264,-6 264,-12 264,-12 264,-26 264,-26 264,-32 258,-38 252,-38"/>
<text text-anchor="middle" x="201.5" y="-22.8" font-family="Times,serif" font-size="14.00" fill="#222222">Y</text>
<text text-anchor="middle" x="201.5" y="-7.8" font-family="Times,serif" font-size="14.00" fill="#222222">FLOAT(1,8,6,6)</text>
</g>
<!-- FusedConv_3&#45;&gt;O_4 -->
<g id="edge4" class="edge">
<title>FusedConv_3&#45;&gt;O_4</title>
<path fill="none" stroke="black" d="M201.5,-54.76C201.5,-52.66 201.5,-50.47 201.5,-48.27"/>
<polygon fill="black" stroke="black" points="201.5,-38.09 206,-48.09 201.5,-43.09 201.5,-48.09 201.5,-48.09 201.5,-48.09 201.5,-43.09 197,-48.09 201.5,-38.09 201.5,-38.09"/>
</g>
</g>
</svg>
