<?xml version="1.0" encoding="UTF-8" standalone="no"?>
<!DOCTYPE svg PUBLIC "-//W3C//DTD SVG 1.1//EN"
 "http://www.w3.org/Graphics/SVG/1.1/DTD/svg11.dtd">
<!-- Generated by graphviz version 2.43.0 (0)
 -->
<!-- Title: %3 Pages: 1 -->
<svg width="366pt" height="223pt"
 viewBox="0.00 0.00 366.00 223.00" xmlns="http://www.w3.org/2000/svg" xmlns:xlink="http://www.w3.org/1999/xlink">
<g id="graph0" class="graph" transform="scale(1 1) rotate(0) translate(4 219)">
<title>%3</title>
<!-- I_0 -->
<g id="node1" class="node">
<title>I_0</title>
<path fill="#aaeeaa" stroke="#888888" d="M112,-215C112,-215 12,-215 12,-215 6,-215 0,-209 0,-203 0,-203 0,-189 0,-189 0,-183 6,-177 12,-177 12,-177 112,-177 112,-177 118,-177 124,-183 124,-189 124,-189 124,-203 124,-203 124,-209 118,-215 112,-215"/>
<text text-anchor="middle" x="62" y="-199.8" font-family="Times,serif" font-size="14.00" fill="#222222">y1</text>
<text text-anchor="middle" x="62" y="-184.8" font-family="Times,serif" font-size="14.00" fill="#222222">FLOAT(a,2,3,4)</text>
</g>
<!-- I_1 -->
<g id="node2" class="node">
<title>I_1</title>
<path fill="#aaeeaa" stroke="#888888" d="M206,-215C206,-215 150,-215 150,-215 144,-215 138,-209 138,-203 138,-203 138,-189 138,-189 138,-183 144,-177 150,-177 150,-177 206,-177 206,-177 212,-177 218,-183 218,-189 218,-189 218,-203 218,-203 218,-209 212,-215 206,-215"/>
<text text-anchor="middle" x="178" y="-199.8" font-family="Times,serif" font-size="14.00" fill="#222222">sh1</text>
<text text-anchor="middle" x="178" y="-184.8" font-family="Times,serif" font-size="14.00" fill="#222222">INT64(4)</text>
</g>
<!-- Expand_3 -->
<g id="node4" class="node">
<title>Expand_3</title>
<path fill="#cccccc" stroke="#888888" d="M273.5,-153C273.5,-153 198.5,-153 198.5,-153 192.5,-153 186.5,-147 186.5,-141 186.5,-141 186.5,-129 186.5,-129 186.5,-123 192.5,-117 198.5,-117 198.5,-117 273.5,-117 273.5,-117 279.5,-117 285.5,-123 285.5,-129 285.5,-129 285.5,-141 285.5,-141 285.5,-147 279.5,-153 273.5,-153"/>
<text text-anchor="middle" x="236" y="-131.3" font-family="Times,serif" font-size="14.00" fill="#222222">Expand(., .)</text>
</g>
<!-- I_1&#45;&gt;Expand_3 -->
<g id="edge2" class="edge">
<title>I_1&#45;&gt;Expand_3</title>
<path fill="none" stroke="black" d="M195.72,-176.98C200.85,-171.76 206.54,-165.97 211.98,-160.43"/>
<polygon fill="black" stroke="black" points="219.19,-153.1 215.38,-163.39 215.68,-156.67 212.17,-160.24 212.17,-160.24 212.17,-160.24 215.68,-156.67 208.97,-157.08 219.19,-153.1 219.19,-153.1"/>
<text text-anchor="middle" x="228" y="-163.4" font-family="Times,serif" font-size="7.00">INT64(4)</text>
</g>
<!-- I_2 -->
<g id="node3" class="node">
<title>I_2</title>
<path fill="#aaeeaa" stroke="#888888" d="M344,-215C344,-215 244,-215 244,-215 238,-215 232,-209 232,-203 232,-203 232,-189 232,-189 232,-183 238,-177 244,-177 244,-177 344,-177 344,-177 350,-177 356,-183 356,-189 356,-189 356,-203 356,-203 356,-209 350,-215 344,-215"/>
<text text-anchor="middle" x="294" y="-199.8" font-family="Times,serif" font-size="14.00" fill="#222222">Y</text>
<text text-anchor="middle" x="294" y="-184.8" font-family="Times,serif" font-size="14.00" fill="#222222">FLOAT(a,1,3,4)</text>
</g>
<!-- I_2&#45;&gt;Expand_3 -->
<g id="edge1" class="edge">
<title>I_2&#45;&gt;Expand_3</title>
<path fill="none" stroke="black" d="M276.28,-176.98C271.15,-171.76 265.46,-165.97 260.02,-160.43"/>
<polygon fill="black" stroke="black" points="252.81,-153.1 263.03,-157.08 256.32,-156.67 259.83,-160.24 259.83,-160.24 259.83,-160.24 256.32,-156.67 256.62,-163.39 252.81,-153.1 252.81,-153.1"/>
<text text-anchor="middle" x="293.5" y="-163.4" font-family="Times,serif" font-size="7.00">FLOAT(a,1,3,4)</text>
</g>
<!-- Identity_4 -->
<g id="node5" class="node">
<title>Identity_4</title>
<path fill="#cccccc" stroke="#888888" d="M208,-92C208,-92 144,-92 144,-92 138,-92 132,-86 132,-80 132,-80 132,-68 132,-68 132,-62 138,-56 144,-56 144,-56 208,-56 208,-56 214,-56 220,-62 220,-68 220,-68 220,-80 220,-80 220,-86 214,-92 208,-92"/>
<text text-anchor="middle" x="176" y="-70.3" font-family="Times,serif" font-size="14.00" fill="#222222">Identity(.)</text>
</g>
<!-- Expand_3&#45;&gt;Identity_4 -->
<g id="edge3" class="edge">
<title>Expand_3&#45;&gt;Identity_4</title>
<path fill="none" stroke="black" d="M218.65,-116.93C213.1,-111.48 206.84,-105.33 200.87,-99.45"/>
<polygon fill="black" stroke="black" points="193.52,-92.23 203.81,-96.03 197.09,-95.74 200.65,-99.24 200.65,-99.24 200.65,-99.24 197.09,-95.74 197.5,-102.45 193.52,-92.23 193.52,-92.23"/>
<text text-anchor="middle" x="237.5" y="-103.4" font-family="Times,serif" font-size="7.00">FLOAT(a,2,3,4)</text>
</g>
<!-- O_5 -->
<g id="node6" class="node">
<title>O_5</title>
<path fill="#aaaaee" stroke="#888888" d="M346,-93C346,-93 246,-93 246,-93 240,-93 234,-87 234,-81 234,-81 234,-67 234,-67 234,-61 240,-55 246,-55 246,-55 346,-55 346,-55 352,-55 358,-61 358,-67 358,-67 358,-81 358,-81 358,-87 352,-93 346,-93"/>
<text text-anchor="middle" x="296" y="-77.8" font-family="Times,serif" font-size="14.00" fill="#222222">y1</text>
<text text-anchor="middle" x="296" y="-62.8" font-family="Times,serif" font-size="14.00" fill="#222222">FLOAT(a,2,3,4)</text>
</g>
<!-- Expand_3&#45;&gt;O_5 -->
<g id="edge4" class="edge">
<title>Expand_3&#45;&gt;O_5</title>
<path fill="none" stroke="black" d="M259.24,-116.83C262.27,-114.31 265.27,-111.66 268,-109 270.54,-106.52 273.08,-103.83 275.54,-101.07"/>
<polygon fill="black" stroke="black" points="282.17,-93.29 279.11,-103.82 278.92,-97.1 275.68,-100.9 275.68,-100.9 275.68,-100.9 278.92,-97.1 272.26,-97.98 282.17,-93.29 282.17,-93.29"/>
</g>
<!-- O_6 -->
<g id="node7" class="node">
<title>O_6</title>
<path fill="#aaaaee" stroke="#888888" d="M226,-38C226,-38 126,-38 126,-38 120,-38 114,-32 114,-26 114,-26 114,-12 114,-12 114,-6 120,0 126,0 126,0 226,0 226,0 232,0 238,-6 238,-12 238,-12 238,-26 238,-26 238,-32 232,-38 226,-38"/>
<text text-anchor="middle" x="176" y="-22.8" font-family="Times,serif" font-size="14.00" fill="#222222">y2</text>
<text text-anchor="middle" x="176" y="-7.8" font-family="Times,serif" font-size="14.00" fill="#222222">FLOAT(a,2,3,4)</text>
</g>
<!-- Identity_4&#45;&gt;O_6 -->
<g id="edge5" class="edge">
<title>Identity_4&#45;&gt;O_6</title>
<path fill="none" stroke="black" d="M176,-55.94C176,-53.45 176,-50.83 176,-48.19"/>
<polygon fill="black" stroke="black" points="176,-38.13 180.5,-48.13 176,-43.13 176,-48.13 176,-48.13 176,-48.13 176,-43.13 171.5,-48.13 176,-38.13 176,-38.13"/>
</g>
</g>
</svg>
