<?xml version="1.0" encoding="UTF-8" standalone="no"?>
<!DOCTYPE svg PUBLIC "-//W3C//DTD SVG 1.1//EN"
 "http://www.w3.org/Graphics/SVG/1.1/DTD/svg11.dtd">
<!-- Generated by graphviz version 2.43.0 (0)
 -->
<!-- Title: %3 Pages: 1 -->
<svg width="330pt" height="221pt"
 viewBox="0.00 0.00 329.50 221.00" xmlns="http://www.w3.org/2000/svg" xmlns:xlink="http://www.w3.org/1999/xlink">
<g id="graph0" class="graph" transform="scale(1 1) rotate(0) translate(4 217)">
<title>%3</title>
<!-- I_0 -->
<g id="node1" class="node">
<title>I_0</title>
<path fill="#aaeeaa" stroke="#888888" d="M117,-213C117,-213 22,-213 22,-213 16,-213 10,-207 10,-201 10,-201 10,-187 10,-187 10,-181 16,-175 22,-175 22,-175 117,-175 117,-175 123,-175 129,-181 129,-187 129,-187 129,-201 129,-201 129,-207 123,-213 117,-213"/>
<text text-anchor="middle" x="69.5" y="-197.8" font-family="Times,serif" font-size="14.00" fill="#222222">X</text>
<text text-anchor="middle" x="69.5" y="-182.8" font-family="Times,serif" font-size="14.00" fill="#222222">FLOAT(a,8,16)</text>
</g>
<!-- Unsqueeze_3 -->
<g id="node4" class="node">
<title>Unsqueeze_3</title>
<path fill="#eeeeee" stroke="#888888" d="M127,-151C127,-151 12,-151 12,-151 6,-151 0,-145 0,-139 0,-139 0,-127 0,-127 0,-121 6,-115 12,-115 12,-115 127,-115 127,-115 133,-115 139,-121 139,-127 139,-127 139,-139 139,-139 139,-145 133,-151 127,-151"/>
<text text-anchor="middle" x="69.5" y="-129.3" font-family="Times,serif" font-size="14.00" fill="#222222">Unsqueeze(., [0])</text>
</g>
<!-- I_0&#45;&gt;Unsqueeze_3 -->
<g id="edge1" class="edge">
<title>I_0&#45;&gt;Unsqueeze_3</title>
<path fill="none" stroke="black" d="M69.5,-174.98C69.5,-170.71 69.5,-166.06 69.5,-161.47"/>
<polygon fill="black" stroke="black" points="69.5,-151.1 74,-161.1 69.5,-156.1 69.5,-161.1 69.5,-161.1 69.5,-161.1 69.5,-156.1 65,-161.1 69.5,-151.1 69.5,-151.1"/>
<text text-anchor="middle" x="96" y="-161.4" font-family="Times,serif" font-size="7.00">FLOAT(a,8,16)</text>
</g>
<!-- I_1 -->
<g id="node2" class="node">
<title>I_1</title>
<path fill="#aaeeaa" stroke="#888888" d="M211.5,-213C211.5,-213 155.5,-213 155.5,-213 149.5,-213 143.5,-207 143.5,-201 143.5,-201 143.5,-187 143.5,-187 143.5,-181 149.5,-175 155.5,-175 155.5,-175 211.5,-175 211.5,-175 217.5,-175 223.5,-181 223.5,-187 223.5,-187 223.5,-201 223.5,-201 223.5,-207 217.5,-213 211.5,-213"/>
<text text-anchor="middle" x="183.5" y="-197.8" font-family="Times,serif" font-size="14.00" fill="#222222">shape3</text>
<text text-anchor="middle" x="183.5" y="-182.8" font-family="Times,serif" font-size="14.00" fill="#222222">INT64(2)</text>
</g>
<!-- Constant_2 -->
<g id="node3" class="node">
<title>Constant_2</title>
<path fill="#cccccc" stroke="#888888" d="M309.5,-151C309.5,-151 165.5,-151 165.5,-151 159.5,-151 153.5,-145 153.5,-139 153.5,-139 153.5,-127 153.5,-127 153.5,-121 159.5,-115 165.5,-115 165.5,-115 309.5,-115 309.5,-115 315.5,-115 321.5,-121 321.5,-127 321.5,-127 321.5,-139 321.5,-139 321.5,-145 315.5,-151 309.5,-151"/>
<text text-anchor="middle" x="237.5" y="-129.3" font-family="Times,serif" font-size="14.00" fill="#222222">Constant() &#45;&gt; shape3</text>
</g>
<!-- Reshape_4 -->
<g id="node5" class="node">
<title>Reshape_4</title>
<path fill="#eeeeee" stroke="#888888" d="M194.5,-91C194.5,-91 112.5,-91 112.5,-91 106.5,-91 100.5,-85 100.5,-79 100.5,-79 100.5,-67 100.5,-67 100.5,-61 106.5,-55 112.5,-55 112.5,-55 194.5,-55 194.5,-55 200.5,-55 206.5,-61 206.5,-67 206.5,-67 206.5,-79 206.5,-79 206.5,-85 200.5,-91 194.5,-91"/>
<text text-anchor="middle" x="153.5" y="-69.3" font-family="Times,serif" font-size="14.00" fill="#222222">Reshape(., .)</text>
</g>
<!-- Constant_2&#45;&gt;Reshape_4 -->
<g id="edge3" class="edge">
<title>Constant_2&#45;&gt;Reshape_4</title>
<path fill="none" stroke="black" d="M212.75,-114.91C204.62,-109.3 195.45,-102.96 186.79,-96.99"/>
<polygon fill="black" stroke="black" points="178.36,-91.17 189.15,-93.15 182.48,-94.01 186.59,-96.85 186.59,-96.85 186.59,-96.85 182.48,-94.01 184.03,-100.55 178.36,-91.17 178.36,-91.17"/>
<text text-anchor="middle" x="217.5" y="-101.4" font-family="Times,serif" font-size="7.00">INT64(2)</text>
</g>
<!-- Unsqueeze_3&#45;&gt;Reshape_4 -->
<g id="edge2" class="edge">
<title>Unsqueeze_3&#45;&gt;Reshape_4</title>
<path fill="none" stroke="black" d="M94.25,-114.91C102.38,-109.3 111.55,-102.96 120.21,-96.99"/>
<polygon fill="black" stroke="black" points="128.64,-91.17 122.97,-100.55 124.52,-94.01 120.41,-96.85 120.41,-96.85 120.41,-96.85 124.52,-94.01 117.85,-93.15 128.64,-91.17 128.64,-91.17"/>
<text text-anchor="middle" x="147.5" y="-101.4" font-family="Times,serif" font-size="7.00">FLOAT(1,a,8,16)</text>
</g>
<!-- O_5 -->
<g id="node6" class="node">
<title>O_5</title>
<path fill="#aaaaee" stroke="#888888" d="M202.5,-38C202.5,-38 104.5,-38 104.5,-38 98.5,-38 92.5,-32 92.5,-26 92.5,-26 92.5,-12 92.5,-12 92.5,-6 98.5,0 104.5,0 104.5,0 202.5,0 202.5,0 208.5,0 214.5,-6 214.5,-12 214.5,-12 214.5,-26 214.5,-26 214.5,-32 208.5,-38 202.5,-38"/>
<text text-anchor="middle" x="153.5" y="-22.8" font-family="Times,serif" font-size="14.00" fill="#222222">Z</text>
<text text-anchor="middle" x="153.5" y="-7.8" font-family="Times,serif" font-size="14.00" fill="#222222">FLOAT(2*a,64)</text>
</g>
<!-- Reshape_4&#45;&gt;O_5 -->
<g id="edge4" class="edge">
<title>Reshape_4&#45;&gt;O_5</title>
<path fill="none" stroke="black" d="M153.5,-54.97C153.5,-52.89 153.5,-50.72 153.5,-48.53"/>
<polygon fill="black" stroke="black" points="153.5,-38.32 158,-48.32 153.5,-43.32 153.5,-48.32 153.5,-48.32 153.5,-48.32 153.5,-43.32 149,-48.32 153.5,-38.32 153.5,-38.32"/>
</g>
</g>
</svg>
