<?xml version="1.0" encoding="UTF-8" standalone="no"?>
<!DOCTYPE svg PUBLIC "-//W3C//DTD SVG 1.1//EN"
 "http://www.w3.org/Graphics/SVG/1.1/DTD/svg11.dtd">
<!-- Generated by graphviz version 2.43.0 (0)
 -->
<!-- Title: %3 Pages: 1 -->
<svg width="378pt" height="178pt"
 viewBox="0.00 0.00 378.00 178.00" xmlns="http://www.w3.org/2000/svg" xmlns:xlink="http://www.w3.org/1999/xlink">
<g id="graph0" class="graph" transform="scale(1 1) rotate(0) translate(4 174)">
<title>%3</title>
<!-- I_0 -->
<g id="node1" class="node">
<title>I_0</title>
<path fill="#aaeeaa" stroke="#888888" d="M119,-170C119,-170 33,-170 33,-170 27,-170 21,-164 21,-158 21,-158 21,-144 21,-144 21,-138 27,-132 33,-132 33,-132 119,-132 119,-132 125,-132 131,-138 131,-144 131,-144 131,-158 131,-158 131,-164 125,-170 119,-170"/>
<text text-anchor="middle" x="76" y="-154.8" font-family="Times,serif" font-size="14.00" fill="#222222">weights</text>
<text text-anchor="middle" x="76" y="-139.8" font-family="Times,serif" font-size="14.00" fill="#222222">FLOAT(1,1,a)</text>
</g>
<!-- CosSinCacheWithRange_3 -->
<g id="node4" class="node">
<title>CosSinCacheWithRange_3</title>
<path fill="#cccccc" stroke="#888888" d="M267,-108C267,-108 103,-108 103,-108 97,-108 91,-102 91,-96 91,-96 91,-67 91,-67 91,-61 97,-55 103,-55 103,-55 267,-55 267,-55 273,-55 279,-61 279,-67 279,-67 279,-96 279,-96 279,-102 273,-108 267,-108"/>
<text text-anchor="middle" x="185" y="-92.8" font-family="Times,serif" font-size="14.00" fill="#222222">intermediate.</text>
<text text-anchor="middle" x="185" y="-77.8" font-family="Times,serif" font-size="14.00" fill="#222222">CosSinCacheWithRange</text>
<text text-anchor="middle" x="185" y="-62.8" font-family="Times,serif" font-size="14.00" fill="#222222">(., ., .)</text>
</g>
<!-- I_0&#45;&gt;CosSinCacheWithRange_3 -->
<g id="edge3" class="edge">
<title>I_0&#45;&gt;CosSinCacheWithRange_3</title>
<path fill="none" stroke="black" d="M105.21,-131.91C114.28,-126.29 124.56,-119.93 134.64,-113.69"/>
<polygon fill="black" stroke="black" points="143.42,-108.25 137.28,-117.34 139.16,-110.88 134.91,-113.52 134.91,-113.52 134.91,-113.52 139.16,-110.88 132.54,-109.69 143.42,-108.25 143.42,-108.25"/>
<text text-anchor="middle" x="155.5" y="-118.4" font-family="Times,serif" font-size="7.00">FLOAT(1,1,a)</text>
</g>
<!-- I_1 -->
<g id="node2" class="node">
<title>I_1</title>
<path fill="#aaeeaa" stroke="#888888" d="M213,-170C213,-170 157,-170 157,-170 151,-170 145,-164 145,-158 145,-158 145,-144 145,-144 145,-138 151,-132 157,-132 157,-132 213,-132 213,-132 219,-132 225,-138 225,-144 225,-144 225,-158 225,-158 225,-164 219,-170 213,-170"/>
<text text-anchor="middle" x="185" y="-154.8" font-family="Times,serif" font-size="14.00" fill="#222222">dim1</text>
<text text-anchor="middle" x="185" y="-139.8" font-family="Times,serif" font-size="14.00" fill="#222222">INT64(1)</text>
</g>
<!-- I_1&#45;&gt;CosSinCacheWithRange_3 -->
<g id="edge1" class="edge">
<title>I_1&#45;&gt;CosSinCacheWithRange_3</title>
<path fill="none" stroke="black" d="M185,-131.91C185,-127.71 185,-123.1 185,-118.43"/>
<polygon fill="black" stroke="black" points="185,-108.25 189.5,-118.25 185,-113.25 185,-118.25 185,-118.25 185,-118.25 185,-113.25 180.5,-118.25 185,-108.25 185,-108.25"/>
<text text-anchor="middle" x="202" y="-118.4" font-family="Times,serif" font-size="7.00">INT64(1)</text>
</g>
<!-- I_2 -->
<g id="node3" class="node">
<title>I_2</title>
<path fill="#aaeeaa" stroke="#888888" d="M307,-170C307,-170 251,-170 251,-170 245,-170 239,-164 239,-158 239,-158 239,-144 239,-144 239,-138 245,-132 251,-132 251,-132 307,-132 307,-132 313,-132 319,-138 319,-144 319,-144 319,-158 319,-158 319,-164 313,-170 307,-170"/>
<text text-anchor="middle" x="279" y="-154.8" font-family="Times,serif" font-size="14.00" fill="#222222">dim2</text>
<text text-anchor="middle" x="279" y="-139.8" font-family="Times,serif" font-size="14.00" fill="#222222">INT64(1)</text>
</g>
<!-- I_2&#45;&gt;CosSinCacheWithRange_3 -->
<g id="edge2" class="edge">
<title>I_2&#45;&gt;CosSinCacheWithRange_3</title>
<path fill="none" stroke="black" d="M253.81,-131.91C246.22,-126.46 237.66,-120.32 229.22,-114.26"/>
<polygon fill="black" stroke="black" points="220.86,-108.25 231.61,-110.43 224.92,-111.17 228.98,-114.08 228.98,-114.08 228.98,-114.08 224.92,-111.17 226.36,-117.74 220.86,-108.25 220.86,-108.25"/>
<text text-anchor="middle" x="257" y="-118.4" font-family="Times,serif" font-size="7.00">INT64(1)</text>
</g>
<!-- O_4 -->
<g id="node5" class="node">
<title>O_4</title>
<path fill="#aaaaee" stroke="#888888" d="M166,-38C166,-38 12,-38 12,-38 6,-38 0,-32 0,-26 0,-26 0,-12 0,-12 0,-6 6,0 12,0 12,0 166,0 166,0 172,0 178,-6 178,-12 178,-12 178,-26 178,-26 178,-32 172,-38 166,-38"/>
<text text-anchor="middle" x="89" y="-22.8" font-family="Times,serif" font-size="14.00" fill="#222222">_onx_sin_mul_weights</text>
<text text-anchor="middle" x="89" y="-7.8" font-family="Times,serif" font-size="14.00" fill="#222222">FLOAT(1,dim2&#45;dim1,a)</text>
</g>
<!-- CosSinCacheWithRange_3&#45;&gt;O_4 -->
<g id="edge4" class="edge">
<title>CosSinCacheWithRange_3&#45;&gt;O_4</title>
<path fill="none" stroke="black" d="M144.29,-54.84C138.45,-51.17 132.47,-47.39 126.7,-43.76"/>
<polygon fill="black" stroke="black" points="117.85,-38.18 128.71,-39.7 122.08,-40.84 126.31,-43.51 126.31,-43.51 126.31,-43.51 122.08,-40.84 123.91,-47.32 117.85,-38.18 117.85,-38.18"/>
</g>
<!-- O_5 -->
<g id="node6" class="node">
<title>O_5</title>
<path fill="#aaaaee" stroke="#888888" d="M358,-38C358,-38 204,-38 204,-38 198,-38 192,-32 192,-26 192,-26 192,-12 192,-12 192,-6 198,0 204,0 204,0 358,0 358,0 364,0 370,-6 370,-12 370,-12 370,-26 370,-26 370,-32 364,-38 358,-38"/>
<text text-anchor="middle" x="281" y="-22.8" font-family="Times,serif" font-size="14.00" fill="#222222">_onx_cos_mul_weights</text>
<text text-anchor="middle" x="281" y="-7.8" font-family="Times,serif" font-size="14.00" fill="#222222">FLOAT(1,dim2&#45;dim1,a)</text>
</g>
<!-- CosSinCacheWithRange_3&#45;&gt;O_5 -->
<g id="edge5" class="edge">
<title>CosSinCacheWithRange_3&#45;&gt;O_5</title>
<path fill="none" stroke="black" d="M225.71,-54.84C231.55,-51.17 237.53,-47.39 243.3,-43.76"/>
<polygon fill="black" stroke="black" points="252.15,-38.18 246.09,-47.32 247.92,-40.84 243.69,-43.51 243.69,-43.51 243.69,-43.51 247.92,-40.84 241.29,-39.7 252.15,-38.18 252.15,-38.18"/>
</g>
</g>
</svg>
