<?xml version="1.0" encoding="UTF-8" standalone="no"?>
<!DOCTYPE svg PUBLIC "-//W3C//DTD SVG 1.1//EN"
 "http://www.w3.org/Graphics/SVG/1.1/DTD/svg11.dtd">
<!-- Generated by graphviz version 2.43.0 (0)
 -->
<!-- Title: %3 Pages: 1 -->
<svg width="544pt" height="541pt"
 viewBox="0.00 0.00 544.00 541.00" xmlns="http://www.w3.org/2000/svg" xmlns:xlink="http://www.w3.org/1999/xlink">
<g id="graph0" class="graph" transform="scale(1 1) rotate(0) translate(4 537)">
<title>%3</title>
<!-- I_0 -->
<g id="node1" class="node">
<title>I_0</title>
<path fill="#aaeeaa" stroke="#888888" d="M271,-533C271,-533 167,-533 167,-533 161,-533 155,-527 155,-521 155,-521 155,-507 155,-507 155,-501 161,-495 167,-495 167,-495 271,-495 271,-495 277,-495 283,-501 283,-507 283,-507 283,-521 283,-521 283,-527 277,-533 271,-533"/>
<text text-anchor="middle" x="219" y="-517.8" font-family="Times,serif" font-size="14.00" fill="#222222">X</text>
<text text-anchor="middle" x="219" y="-502.8" font-family="Times,serif" font-size="14.00" fill="#222222">FLOAT(batch,4)</text>
</g>
<!-- Sub_2 -->
<g id="node3" class="node">
<title>Sub_2</title>
<path fill="#cccccc" stroke="#888888" d="M426,-471C426,-471 12,-471 12,-471 6,-471 0,-465 0,-459 0,-459 0,-445 0,-445 0,-439 6,-433 12,-433 12,-433 426,-433 426,-433 432,-433 438,-439 438,-445 438,-445 438,-459 438,-459 438,-465 432,-471 426,-471"/>
<text text-anchor="middle" x="219" y="-455.8" font-family="Times,serif" font-size="14.00" fill="#222222">Sub</text>
<text text-anchor="middle" x="219" y="-440.8" font-family="Times,serif" font-size="14.00" fill="#222222">(., [&#45;0.0405999, 0.006937298, &#45;0.23972343, 0.111778386])</text>
</g>
<!-- I_0&#45;&gt;Sub_2 -->
<g id="edge1" class="edge">
<title>I_0&#45;&gt;Sub_2</title>
<path fill="none" stroke="black" d="M219,-495C219,-490.8 219,-486.24 219,-481.71"/>
<polygon fill="black" stroke="black" points="219,-471.4 223.5,-481.4 219,-476.4 219,-481.4 219,-481.4 219,-481.4 219,-476.4 214.5,-481.4 219,-471.4 219,-471.4"/>
<text text-anchor="middle" x="248" y="-481.4" font-family="Times,serif" font-size="7.00">FLOAT(batch,4)</text>
</g>
<!-- i_1 -->
<g id="node2" class="node">
<title>i_1</title>
<path fill="#cccc00" stroke="#888888" d="M524,-416C524,-416 446,-416 446,-416 440,-416 434,-410 434,-404 434,-404 434,-390 434,-390 434,-384 440,-378 446,-378 446,-378 524,-378 524,-378 530,-378 536,-384 536,-390 536,-390 536,-404 536,-404 536,-410 530,-416 524,-416"/>
<text text-anchor="middle" x="485" y="-400.8" font-family="Times,serif" font-size="14.00" fill="#222222">init1_s1x4_</text>
<text text-anchor="middle" x="485" y="-385.8" font-family="Times,serif" font-size="14.00" fill="#222222">FLOAT(1, 4)</text>
</g>
<!-- Gemm_4 -->
<g id="node5" class="node">
<title>Gemm_4</title>
<path fill="#cccccc" stroke="#888888" d="M438.5,-354C438.5,-354 265.5,-354 265.5,-354 259.5,-354 253.5,-348 253.5,-342 253.5,-342 253.5,-330 253.5,-330 253.5,-324 259.5,-318 265.5,-318 265.5,-318 438.5,-318 438.5,-318 444.5,-318 450.5,-324 450.5,-330 450.5,-330 450.5,-342 450.5,-342 450.5,-348 444.5,-354 438.5,-354"/>
<text text-anchor="middle" x="352" y="-332.3" font-family="Times,serif" font-size="14.00" fill="#222222">Gemm(., ., [0.21210824])</text>
</g>
<!-- i_1&#45;&gt;Gemm_4 -->
<g id="edge4" class="edge">
<title>i_1&#45;&gt;Gemm_4</title>
<path fill="none" stroke="black" d="M444.37,-377.98C430.34,-371.75 414.48,-364.72 399.91,-358.25"/>
<polygon fill="black" stroke="black" points="390.56,-354.1 401.52,-354.05 395.13,-356.13 399.7,-358.16 399.7,-358.16 399.7,-358.16 395.13,-356.13 397.87,-362.27 390.56,-354.1 390.56,-354.1"/>
<text text-anchor="middle" x="445" y="-364.4" font-family="Times,serif" font-size="7.00">FLOAT(1, 4)</text>
</g>
<!-- Div_3 -->
<g id="node4" class="node">
<title>Div_3</title>
<path fill="#cccccc" stroke="#888888" d="M408,-416C408,-416 30,-416 30,-416 24,-416 18,-410 18,-404 18,-404 18,-390 18,-390 18,-384 24,-378 30,-378 30,-378 408,-378 408,-378 414,-378 420,-384 420,-390 420,-390 420,-404 420,-404 420,-410 414,-416 408,-416"/>
<text text-anchor="middle" x="219" y="-400.8" font-family="Times,serif" font-size="14.00" fill="#222222">Div</text>
<text text-anchor="middle" x="219" y="-385.8" font-family="Times,serif" font-size="14.00" fill="#222222">(., [0.95415455, 0.85836834, 1.0299865, 1.1831794])</text>
</g>
<!-- Sub_2&#45;&gt;Div_3 -->
<g id="edge2" class="edge">
<title>Sub_2&#45;&gt;Div_3</title>
<path fill="none" stroke="black" d="M219,-432.76C219,-430.66 219,-428.47 219,-426.27"/>
<polygon fill="black" stroke="black" points="219,-416.09 223.5,-426.09 219,-421.09 219,-426.09 219,-426.09 219,-426.09 219,-421.09 214.5,-426.09 219,-416.09 219,-416.09"/>
</g>
<!-- Div_3&#45;&gt;Gemm_4 -->
<g id="edge3" class="edge">
<title>Div_3&#45;&gt;Gemm_4</title>
<path fill="none" stroke="black" d="M259.63,-377.98C273.66,-371.75 289.52,-364.72 304.09,-358.25"/>
<polygon fill="black" stroke="black" points="313.44,-354.1 306.13,-362.27 308.87,-356.13 304.3,-358.16 304.3,-358.16 304.3,-358.16 308.87,-356.13 302.48,-354.05 313.44,-354.1 313.44,-354.1"/>
</g>
<!-- Sigmoid_5 -->
<g id="node6" class="node">
<title>Sigmoid_5</title>
<path fill="#cccccc" stroke="#888888" d="M385,-301C385,-301 319,-301 319,-301 313,-301 307,-295 307,-289 307,-289 307,-277 307,-277 307,-271 313,-265 319,-265 319,-265 385,-265 385,-265 391,-265 397,-271 397,-277 397,-277 397,-289 397,-289 397,-295 391,-301 385,-301"/>
<text text-anchor="middle" x="352" y="-279.3" font-family="Times,serif" font-size="14.00" fill="#222222">Sigmoid(.)</text>
</g>
<!-- Gemm_4&#45;&gt;Sigmoid_5 -->
<g id="edge5" class="edge">
<title>Gemm_4&#45;&gt;Sigmoid_5</title>
<path fill="none" stroke="black" d="M352,-317.73C352,-315.66 352,-313.5 352,-311.32"/>
<polygon fill="black" stroke="black" points="352,-301.25 356.5,-311.25 352,-306.25 352,-311.25 352,-311.25 352,-311.25 352,-306.25 347.5,-311.25 352,-301.25 352,-301.25"/>
</g>
<!-- Sub_6 -->
<g id="node7" class="node">
<title>Sub_6</title>
<path fill="#cccccc" stroke="#888888" d="M354.5,-248C354.5,-248 277.5,-248 277.5,-248 271.5,-248 265.5,-242 265.5,-236 265.5,-236 265.5,-224 265.5,-224 265.5,-218 271.5,-212 277.5,-212 277.5,-212 354.5,-212 354.5,-212 360.5,-212 366.5,-218 366.5,-224 366.5,-224 366.5,-236 366.5,-236 366.5,-242 360.5,-248 354.5,-248"/>
<text text-anchor="middle" x="316" y="-226.3" font-family="Times,serif" font-size="14.00" fill="#222222">Sub([1.0], .)</text>
</g>
<!-- Sigmoid_5&#45;&gt;Sub_6 -->
<g id="edge6" class="edge">
<title>Sigmoid_5&#45;&gt;Sub_6</title>
<path fill="none" stroke="black" d="M339.81,-264.73C337.94,-262.08 335.96,-259.28 333.99,-256.49"/>
<polygon fill="black" stroke="black" points="328.18,-248.25 337.62,-253.82 331.06,-252.33 333.94,-256.42 333.94,-256.42 333.94,-256.42 331.06,-252.33 330.27,-259.01 328.18,-248.25 328.18,-248.25"/>
</g>
<!-- Concat_7 -->
<g id="node8" class="node">
<title>Concat_7</title>
<path fill="#cccccc" stroke="#888888" d="M419,-195C419,-195 285,-195 285,-195 279,-195 273,-189 273,-183 273,-183 273,-171 273,-171 273,-165 279,-159 285,-159 285,-159 419,-159 419,-159 425,-159 431,-165 431,-171 431,-171 431,-183 431,-183 431,-189 425,-195 419,-195"/>
<text text-anchor="middle" x="352" y="-173.3" font-family="Times,serif" font-size="14.00" fill="#222222">Concat(., ., axis=&#45;1)</text>
</g>
<!-- Sigmoid_5&#45;&gt;Concat_7 -->
<g id="edge8" class="edge">
<title>Sigmoid_5&#45;&gt;Concat_7</title>
<path fill="none" stroke="black" d="M365.11,-264.88C368.33,-259.73 371.33,-253.87 373,-248 377.37,-232.61 377.37,-227.39 373,-212 372.24,-209.34 371.21,-206.68 370.01,-204.09"/>
<polygon fill="black" stroke="black" points="365.11,-195.12 373.85,-201.73 367.51,-199.51 369.91,-203.89 369.91,-203.89 369.91,-203.89 367.51,-199.51 365.96,-206.05 365.11,-195.12 365.11,-195.12"/>
</g>
<!-- Sub_6&#45;&gt;Concat_7 -->
<g id="edge7" class="edge">
<title>Sub_6&#45;&gt;Concat_7</title>
<path fill="none" stroke="black" d="M328.19,-211.73C330.06,-209.08 332.04,-206.28 334.01,-203.49"/>
<polygon fill="black" stroke="black" points="339.82,-195.25 337.73,-206.01 336.94,-199.33 334.06,-203.42 334.06,-203.42 334.06,-203.42 336.94,-199.33 330.38,-200.82 339.82,-195.25 339.82,-195.25"/>
</g>
<!-- ArgMax_8 -->
<g id="node9" class="node">
<title>ArgMax_8</title>
<path fill="#cccccc" stroke="#888888" d="M343,-142C343,-142 221,-142 221,-142 215,-142 209,-136 209,-130 209,-130 209,-118 209,-118 209,-112 215,-106 221,-106 221,-106 343,-106 343,-106 349,-106 355,-112 355,-118 355,-118 355,-130 355,-130 355,-136 349,-142 343,-142"/>
<text text-anchor="middle" x="282" y="-120.3" font-family="Times,serif" font-size="14.00" fill="#222222">ArgMax(., axis=1)</text>
</g>
<!-- Concat_7&#45;&gt;ArgMax_8 -->
<g id="edge9" class="edge">
<title>Concat_7&#45;&gt;ArgMax_8</title>
<path fill="none" stroke="black" d="M328.3,-158.73C323.63,-155.33 318.65,-151.7 313.76,-148.14"/>
<polygon fill="black" stroke="black" points="305.67,-142.25 316.41,-144.5 309.72,-145.19 313.76,-148.14 313.76,-148.14 313.76,-148.14 309.72,-145.19 311.11,-151.77 305.67,-142.25 305.67,-142.25"/>
</g>
<!-- O_11 -->
<g id="node12" class="node">
<title>O_11</title>
<path fill="#aaaaee" stroke="#888888" d="M464.5,-142C464.5,-142 381.5,-142 381.5,-142 375.5,-142 369.5,-136 369.5,-130 369.5,-130 369.5,-118 369.5,-118 369.5,-112 375.5,-106 381.5,-106 381.5,-106 464.5,-106 464.5,-106 470.5,-106 476.5,-112 476.5,-118 476.5,-118 476.5,-130 476.5,-130 476.5,-136 470.5,-142 464.5,-142"/>
<text text-anchor="middle" x="423" y="-120.3" font-family="Times,serif" font-size="14.00" fill="#222222">probabilities</text>
</g>
<!-- Concat_7&#45;&gt;O_11 -->
<g id="edge12" class="edge">
<title>Concat_7&#45;&gt;O_11</title>
<path fill="none" stroke="black" d="M376.04,-158.73C380.78,-155.33 385.83,-151.7 390.79,-148.14"/>
<polygon fill="black" stroke="black" points="398.99,-142.25 393.49,-151.74 394.93,-145.17 390.87,-148.08 390.87,-148.08 390.87,-148.08 394.93,-145.17 388.24,-144.43 398.99,-142.25 398.99,-142.25"/>
</g>
<!-- Gather_9 -->
<g id="node10" class="node">
<title>Gather_9</title>
<path fill="#cccccc" stroke="#888888" d="M363,-89C363,-89 201,-89 201,-89 195,-89 189,-83 189,-77 189,-77 189,-65 189,-65 189,-59 195,-53 201,-53 201,-53 363,-53 363,-53 369,-53 375,-59 375,-65 375,-65 375,-77 375,-77 375,-83 369,-89 363,-89"/>
<text text-anchor="middle" x="282" y="-67.3" font-family="Times,serif" font-size="14.00" fill="#222222">Gather([0, 1], ., axis=0)</text>
</g>
<!-- ArgMax_8&#45;&gt;Gather_9 -->
<g id="edge10" class="edge">
<title>ArgMax_8&#45;&gt;Gather_9</title>
<path fill="none" stroke="black" d="M282,-105.73C282,-103.66 282,-101.5 282,-99.32"/>
<polygon fill="black" stroke="black" points="282,-89.25 286.5,-99.25 282,-94.25 282,-99.25 282,-99.25 282,-99.25 282,-94.25 277.5,-99.25 282,-89.25 282,-89.25"/>
</g>
<!-- O_10 -->
<g id="node11" class="node">
<title>O_10</title>
<path fill="#aaaaee" stroke="#888888" d="M297,-36C297,-36 267,-36 267,-36 261,-36 255,-30 255,-24 255,-24 255,-12 255,-12 255,-6 261,0 267,0 267,0 297,0 297,0 303,0 309,-6 309,-12 309,-12 309,-24 309,-24 309,-30 303,-36 297,-36"/>
<text text-anchor="middle" x="282" y="-14.3" font-family="Times,serif" font-size="14.00" fill="#222222">label</text>
</g>
<!-- Gather_9&#45;&gt;O_10 -->
<g id="edge11" class="edge">
<title>Gather_9&#45;&gt;O_10</title>
<path fill="none" stroke="black" d="M282,-52.73C282,-50.66 282,-48.5 282,-46.32"/>
<polygon fill="black" stroke="black" points="282,-36.25 286.5,-46.25 282,-41.25 282,-46.25 282,-46.25 282,-46.25 282,-41.25 277.5,-46.25 282,-36.25 282,-36.25"/>
</g>
</g>
</svg>
