<?xml version="1.0" encoding="UTF-8" standalone="no"?>
<!DOCTYPE svg PUBLIC "-//W3C//DTD SVG 1.1//EN"
 "http://www.w3.org/Graphics/SVG/1.1/DTD/svg11.dtd">
<!-- Generated by graphviz version 2.43.0 (0)
 -->
<!-- Title: %3 Pages: 1 -->
<svg width="527pt" height="283pt"
 viewBox="0.00 0.00 527.00 283.00" xmlns="http://www.w3.org/2000/svg" xmlns:xlink="http://www.w3.org/1999/xlink">
<g id="graph0" class="graph" transform="scale(1 1) rotate(0) translate(4 279)">
<title>%3</title>
<!-- I_0 -->
<g id="node1" class="node">
<title>I_0</title>
<path fill="#aaeeaa" stroke="#888888" d="M185,-275C185,-275 12,-275 12,-275 6,-275 0,-269 0,-263 0,-263 0,-249 0,-249 0,-243 6,-237 12,-237 12,-237 185,-237 185,-237 191,-237 197,-243 197,-249 197,-249 197,-263 197,-263 197,-269 191,-275 185,-275"/>
<text text-anchor="middle" x="98.5" y="-259.8" font-family="Times,serif" font-size="14.00" fill="#222222">xts</text>
<text text-anchor="middle" x="98.5" y="-244.8" font-family="Times,serif" font-size="14.00" fill="#222222">FLOAT(32,2,14,2,13,256)</text>
</g>
<!-- I_1 -->
<g id="node2" class="node">
<title>I_1</title>
<path fill="#aaeeaa" stroke="#888888" d="M369.5,-275C369.5,-275 223.5,-275 223.5,-275 217.5,-275 211.5,-269 211.5,-263 211.5,-263 211.5,-249 211.5,-249 211.5,-243 217.5,-237 223.5,-237 223.5,-237 369.5,-237 369.5,-237 375.5,-237 381.5,-243 381.5,-249 381.5,-249 381.5,-263 381.5,-263 381.5,-269 375.5,-275 369.5,-275"/>
<text text-anchor="middle" x="296.5" y="-259.8" font-family="Times,serif" font-size="14.00" fill="#222222">X</text>
<text text-anchor="middle" x="296.5" y="-244.8" font-family="Times,serif" font-size="14.00" fill="#222222">FLOAT(32,256,28,26)</text>
</g>
<!-- Reshape_2 -->
<g id="node3" class="node">
<title>Reshape_2</title>
<path fill="#eeeeee" stroke="#888888" d="M412.5,-213C412.5,-213 180.5,-213 180.5,-213 174.5,-213 168.5,-207 168.5,-201 168.5,-201 168.5,-189 168.5,-189 168.5,-183 174.5,-177 180.5,-177 180.5,-177 412.5,-177 412.5,-177 418.5,-177 424.5,-183 424.5,-189 424.5,-189 424.5,-201 424.5,-201 424.5,-207 418.5,-213 412.5,-213"/>
<text text-anchor="middle" x="296.5" y="-191.3" font-family="Times,serif" font-size="14.00" fill="#222222">Reshape(., [32, 256, 2, 14, 2, 13])</text>
</g>
<!-- I_1&#45;&gt;Reshape_2 -->
<g id="edge1" class="edge">
<title>I_1&#45;&gt;Reshape_2</title>
<path fill="none" stroke="black" d="M296.5,-236.98C296.5,-232.71 296.5,-228.06 296.5,-223.47"/>
<polygon fill="black" stroke="black" points="296.5,-213.1 301,-223.1 296.5,-218.1 296.5,-223.1 296.5,-223.1 296.5,-223.1 296.5,-218.1 292,-223.1 296.5,-213.1 296.5,-213.1"/>
<text text-anchor="middle" x="335.5" y="-223.4" font-family="Times,serif" font-size="7.00">FLOAT(32,256,28,26)</text>
</g>
<!-- Transpose_3 -->
<g id="node4" class="node">
<title>Transpose_3</title>
<path fill="#ee99ee" stroke="#888888" d="M421,-153C421,-153 172,-153 172,-153 166,-153 160,-147 160,-141 160,-141 160,-129 160,-129 160,-123 166,-117 172,-117 172,-117 421,-117 421,-117 427,-117 433,-123 433,-129 433,-129 433,-141 433,-141 433,-147 427,-153 421,-153"/>
<text text-anchor="middle" x="296.5" y="-131.3" font-family="Times,serif" font-size="14.00" fill="#222222">Transpose(., perm=[0, 2, 3, 4, 5, 1])</text>
</g>
<!-- Reshape_2&#45;&gt;Transpose_3 -->
<g id="edge2" class="edge">
<title>Reshape_2&#45;&gt;Transpose_3</title>
<path fill="none" stroke="black" d="M296.5,-176.91C296.5,-172.7 296.5,-168.09 296.5,-163.52"/>
<polygon fill="black" stroke="black" points="296.5,-153.17 301,-163.17 296.5,-158.17 296.5,-163.17 296.5,-163.17 296.5,-163.17 296.5,-158.17 292,-163.17 296.5,-153.17 296.5,-153.17"/>
<text text-anchor="middle" x="342" y="-163.4" font-family="Times,serif" font-size="7.00">FLOAT(32,256,2,14,2,13)</text>
</g>
<!-- Transpose_4 -->
<g id="node5" class="node">
<title>Transpose_4</title>
<path fill="#ee99ee" stroke="#888888" d="M296,-92C296,-92 47,-92 47,-92 41,-92 35,-86 35,-80 35,-80 35,-68 35,-68 35,-62 41,-56 47,-56 47,-56 296,-56 296,-56 302,-56 308,-62 308,-68 308,-68 308,-80 308,-80 308,-86 302,-92 296,-92"/>
<text text-anchor="middle" x="171.5" y="-70.3" font-family="Times,serif" font-size="14.00" fill="#222222">Transpose(., perm=[0, 1, 3, 2, 4, 5])</text>
</g>
<!-- Transpose_3&#45;&gt;Transpose_4 -->
<g id="edge3" class="edge">
<title>Transpose_3&#45;&gt;Transpose_4</title>
<path fill="none" stroke="black" d="M260.34,-116.93C246.74,-110.51 231.1,-103.13 216.77,-96.37"/>
<polygon fill="black" stroke="black" points="207.57,-92.03 218.54,-92.23 212.1,-94.16 216.62,-96.3 216.62,-96.3 216.62,-96.3 212.1,-94.16 214.7,-100.36 207.57,-92.03 207.57,-92.03"/>
<text text-anchor="middle" x="287" y="-103.4" font-family="Times,serif" font-size="7.00">FLOAT(32,2,14,2,13,256)</text>
</g>
<!-- O_5 -->
<g id="node6" class="node">
<title>O_5</title>
<path fill="#aaaaee" stroke="#888888" d="M507,-93C507,-93 334,-93 334,-93 328,-93 322,-87 322,-81 322,-81 322,-67 322,-67 322,-61 328,-55 334,-55 334,-55 507,-55 507,-55 513,-55 519,-61 519,-67 519,-67 519,-81 519,-81 519,-87 513,-93 507,-93"/>
<text text-anchor="middle" x="420.5" y="-77.8" font-family="Times,serif" font-size="14.00" fill="#222222">xts</text>
<text text-anchor="middle" x="420.5" y="-62.8" font-family="Times,serif" font-size="14.00" fill="#222222">FLOAT(32,2,14,2,13,256)</text>
</g>
<!-- Transpose_3&#45;&gt;O_5 -->
<g id="edge4" class="edge">
<title>Transpose_3&#45;&gt;O_5</title>
<path fill="none" stroke="black" d="M332.37,-116.93C345.15,-110.85 359.75,-103.9 373.34,-97.44"/>
<polygon fill="black" stroke="black" points="382.55,-93.06 375.46,-101.42 378.04,-95.2 373.52,-97.35 373.52,-97.35 373.52,-97.35 378.04,-95.2 371.59,-93.29 382.55,-93.06 382.55,-93.06"/>
</g>
<!-- O_6 -->
<g id="node7" class="node">
<title>O_6</title>
<path fill="#aaaaee" stroke="#888888" d="M258,-38C258,-38 85,-38 85,-38 79,-38 73,-32 73,-26 73,-26 73,-12 73,-12 73,-6 79,0 85,0 85,0 258,0 258,0 264,0 270,-6 270,-12 270,-12 270,-26 270,-26 270,-32 264,-38 258,-38"/>
<text text-anchor="middle" x="171.5" y="-22.8" font-family="Times,serif" font-size="14.00" fill="#222222">Y</text>
<text text-anchor="middle" x="171.5" y="-7.8" font-family="Times,serif" font-size="14.00" fill="#222222">FLOAT(32,2,2,14,13,256)</text>
</g>
<!-- Transpose_4&#45;&gt;O_6 -->
<g id="edge5" class="edge">
<title>Transpose_4&#45;&gt;O_6</title>
<path fill="none" stroke="black" d="M171.5,-55.94C171.5,-53.45 171.5,-50.83 171.5,-48.19"/>
<polygon fill="black" stroke="black" points="171.5,-38.13 176,-48.13 171.5,-43.13 171.5,-48.13 171.5,-48.13 171.5,-48.13 171.5,-43.13 167,-48.13 171.5,-38.13 171.5,-38.13"/>
</g>
</g>
</svg>
