<?xml version="1.0" encoding="UTF-8" standalone="no"?>
<!DOCTYPE svg PUBLIC "-//W3C//DTD SVG 1.1//EN"
 "http://www.w3.org/Graphics/SVG/1.1/DTD/svg11.dtd">
<!-- Generated by graphviz version 2.43.0 (0)
 -->
<!-- Title: %3 Pages: 1 -->
<svg width="254pt" height="221pt"
 viewBox="0.00 0.00 254.00 221.00" xmlns="http://www.w3.org/2000/svg" xmlns:xlink="http://www.w3.org/1999/xlink">
<g id="graph0" class="graph" transform="scale(1 1) rotate(0) translate(4 217)">
<title>%3</title>
<!-- I_0 -->
<g id="node1" class="node">
<title>I_0</title>
<path fill="#aaeeaa" stroke="#888888" d="M104,-213C104,-213 12,-213 12,-213 6,-213 0,-207 0,-201 0,-201 0,-187 0,-187 0,-181 6,-175 12,-175 12,-175 104,-175 104,-175 110,-175 116,-181 116,-187 116,-187 116,-201 116,-201 116,-207 110,-213 104,-213"/>
<text text-anchor="middle" x="58" y="-197.8" font-family="Times,serif" font-size="14.00" fill="#222222">Y</text>
<text text-anchor="middle" x="58" y="-182.8" font-family="Times,serif" font-size="14.00" fill="#222222">FLOAT(16,64)</text>
</g>
<!-- Mul_3 -->
<g id="node4" class="node">
<title>Mul_3</title>
<path fill="#cccccc" stroke="#888888" d="M100.5,-151C100.5,-151 23.5,-151 23.5,-151 17.5,-151 11.5,-145 11.5,-139 11.5,-139 11.5,-127 11.5,-127 11.5,-121 17.5,-115 23.5,-115 23.5,-115 100.5,-115 100.5,-115 106.5,-115 112.5,-121 112.5,-127 112.5,-127 112.5,-139 112.5,-139 112.5,-145 106.5,-151 100.5,-151"/>
<text text-anchor="middle" x="62" y="-129.3" font-family="Times,serif" font-size="14.00" fill="#222222">Mul([0.6], .)</text>
</g>
<!-- I_0&#45;&gt;Mul_3 -->
<g id="edge2" class="edge">
<title>I_0&#45;&gt;Mul_3</title>
<path fill="none" stroke="black" d="M59.22,-174.98C59.52,-170.59 59.84,-165.8 60.16,-161.09"/>
<polygon fill="black" stroke="black" points="60.84,-151.1 64.65,-161.39 60.5,-156.09 60.16,-161.08 60.16,-161.08 60.16,-161.08 60.5,-156.09 55.67,-160.78 60.84,-151.1 60.84,-151.1"/>
<text text-anchor="middle" x="86.5" y="-161.4" font-family="Times,serif" font-size="7.00">FLOAT(16,64)</text>
</g>
<!-- I_1 -->
<g id="node2" class="node">
<title>I_1</title>
<path fill="#aaeeaa" stroke="#888888" d="M234,-213C234,-213 142,-213 142,-213 136,-213 130,-207 130,-201 130,-201 130,-187 130,-187 130,-181 136,-175 142,-175 142,-175 234,-175 234,-175 240,-175 246,-181 246,-187 246,-187 246,-201 246,-201 246,-207 240,-213 234,-213"/>
<text text-anchor="middle" x="188" y="-197.8" font-family="Times,serif" font-size="14.00" fill="#222222">X</text>
<text text-anchor="middle" x="188" y="-182.8" font-family="Times,serif" font-size="14.00" fill="#222222">FLOAT(32,16)</text>
</g>
<!-- Mul_2 -->
<g id="node3" class="node">
<title>Mul_2</title>
<path fill="#cccccc" stroke="#888888" d="M222.5,-151C222.5,-151 145.5,-151 145.5,-151 139.5,-151 133.5,-145 133.5,-139 133.5,-139 133.5,-127 133.5,-127 133.5,-121 139.5,-115 145.5,-115 145.5,-115 222.5,-115 222.5,-115 228.5,-115 234.5,-121 234.5,-127 234.5,-127 234.5,-139 234.5,-139 234.5,-145 228.5,-151 222.5,-151"/>
<text text-anchor="middle" x="184" y="-129.3" font-family="Times,serif" font-size="14.00" fill="#222222">Mul(., [0.4])</text>
</g>
<!-- I_1&#45;&gt;Mul_2 -->
<g id="edge1" class="edge">
<title>I_1&#45;&gt;Mul_2</title>
<path fill="none" stroke="black" d="M186.78,-174.98C186.48,-170.59 186.16,-165.8 185.84,-161.09"/>
<polygon fill="black" stroke="black" points="185.16,-151.1 190.33,-160.78 185.5,-156.09 185.84,-161.08 185.84,-161.08 185.84,-161.08 185.5,-156.09 181.35,-161.39 185.16,-151.1 185.16,-151.1"/>
<text text-anchor="middle" x="211.5" y="-161.4" font-family="Times,serif" font-size="7.00">FLOAT(32,16)</text>
</g>
<!-- MatMul_4 -->
<g id="node5" class="node">
<title>MatMul_4</title>
<path fill="#ee9999" stroke="#888888" d="M157.5,-91C157.5,-91 80.5,-91 80.5,-91 74.5,-91 68.5,-85 68.5,-79 68.5,-79 68.5,-67 68.5,-67 68.5,-61 74.5,-55 80.5,-55 80.5,-55 157.5,-55 157.5,-55 163.5,-55 169.5,-61 169.5,-67 169.5,-67 169.5,-79 169.5,-79 169.5,-85 163.5,-91 157.5,-91"/>
<text text-anchor="middle" x="119" y="-69.3" font-family="Times,serif" font-size="14.00" fill="#222222">MatMul(., .)</text>
</g>
<!-- Mul_2&#45;&gt;MatMul_4 -->
<g id="edge3" class="edge">
<title>Mul_2&#45;&gt;MatMul_4</title>
<path fill="none" stroke="black" d="M164.85,-114.91C158.95,-109.65 152.34,-103.75 146.02,-98.11"/>
<polygon fill="black" stroke="black" points="138.24,-91.17 148.7,-94.47 141.97,-94.5 145.7,-97.82 145.7,-97.82 145.7,-97.82 141.97,-94.5 142.7,-101.18 138.24,-91.17 138.24,-91.17"/>
<text text-anchor="middle" x="180.5" y="-101.4" font-family="Times,serif" font-size="7.00">FLOAT(32,16)</text>
</g>
<!-- Mul_3&#45;&gt;MatMul_4 -->
<g id="edge4" class="edge">
<title>Mul_3&#45;&gt;MatMul_4</title>
<path fill="none" stroke="black" d="M78.79,-114.91C83.85,-109.77 89.5,-104.01 94.94,-98.49"/>
<polygon fill="black" stroke="black" points="102.13,-91.17 98.33,-101.45 98.62,-94.73 95.12,-98.3 95.12,-98.3 95.12,-98.3 98.62,-94.73 91.91,-95.14 102.13,-91.17 102.13,-91.17"/>
<text text-anchor="middle" x="119.5" y="-101.4" font-family="Times,serif" font-size="7.00">FLOAT(16,64)</text>
</g>
<!-- O_5 -->
<g id="node6" class="node">
<title>O_5</title>
<path fill="#aaaaee" stroke="#888888" d="M165,-38C165,-38 73,-38 73,-38 67,-38 61,-32 61,-26 61,-26 61,-12 61,-12 61,-6 67,0 73,0 73,0 165,0 165,0 171,0 177,-6 177,-12 177,-12 177,-26 177,-26 177,-32 171,-38 165,-38"/>
<text text-anchor="middle" x="119" y="-22.8" font-family="Times,serif" font-size="14.00" fill="#222222">z</text>
<text text-anchor="middle" x="119" y="-7.8" font-family="Times,serif" font-size="14.00" fill="#222222">FLOAT(32,64)</text>
</g>
<!-- MatMul_4&#45;&gt;O_5 -->
<g id="edge5" class="edge">
<title>MatMul_4&#45;&gt;O_5</title>
<path fill="none" stroke="black" d="M119,-54.97C119,-52.89 119,-50.72 119,-48.53"/>
<polygon fill="black" stroke="black" points="119,-38.32 123.5,-48.32 119,-43.32 119,-48.32 119,-48.32 119,-48.32 119,-43.32 114.5,-48.32 119,-38.32 119,-38.32"/>
</g>
</g>
</svg>
