<?xml version="1.0" encoding="UTF-8" standalone="no"?>
<!DOCTYPE svg PUBLIC "-//W3C//DTD SVG 1.1//EN"
 "http://www.w3.org/Graphics/SVG/1.1/DTD/svg11.dtd">
<!-- Generated by graphviz version 2.43.0 (0)
 -->
<!-- Title: %3 Pages: 1 -->
<svg width="414pt" height="403pt"
 viewBox="0.00 0.00 414.00 403.00" xmlns="http://www.w3.org/2000/svg" xmlns:xlink="http://www.w3.org/1999/xlink">
<g id="graph0" class="graph" transform="scale(1 1) rotate(0) translate(4 399)">
<title>%3</title>
<!-- I_0 -->
<g id="node1" class="node">
<title>I_0</title>
<path fill="#aaeeaa" stroke="#888888" d="M85,-273C85,-273 12,-273 12,-273 6,-273 0,-267 0,-261 0,-261 0,-247 0,-247 0,-241 6,-235 12,-235 12,-235 85,-235 85,-235 91,-235 97,-241 97,-247 97,-247 97,-261 97,-261 97,-267 91,-273 85,-273"/>
<text text-anchor="middle" x="48.5" y="-257.8" font-family="Times,serif" font-size="14.00" fill="#222222">Y</text>
<text text-anchor="middle" x="48.5" y="-242.8" font-family="Times,serif" font-size="14.00" fill="#222222">FLOAT(a,b)</text>
</g>
<!-- Mul_6 -->
<g id="node7" class="node">
<title>Mul_6</title>
<path fill="#cccccc" stroke="#888888" d="M201,-211C201,-211 152,-211 152,-211 146,-211 140,-205 140,-199 140,-199 140,-187 140,-187 140,-181 146,-175 152,-175 152,-175 201,-175 201,-175 207,-175 213,-181 213,-187 213,-187 213,-199 213,-199 213,-205 207,-211 201,-211"/>
<text text-anchor="middle" x="176.5" y="-189.3" font-family="Times,serif" font-size="14.00" fill="#222222">Mul(., .)</text>
</g>
<!-- I_0&#45;&gt;Mul_6 -->
<g id="edge5" class="edge">
<title>I_0&#45;&gt;Mul_6</title>
<path fill="none" stroke="black" d="M87.6,-234.98C101.1,-228.75 116.35,-221.72 130.36,-215.27"/>
<polygon fill="black" stroke="black" points="139.83,-210.9 132.63,-219.18 135.28,-213 130.74,-215.09 130.74,-215.09 130.74,-215.09 135.28,-213 128.86,-211 139.83,-210.9 139.83,-210.9"/>
<text text-anchor="middle" x="140.5" y="-221.4" font-family="Times,serif" font-size="7.00">FLOAT(a,b)</text>
</g>
<!-- I_1 -->
<g id="node2" class="node">
<title>I_1</title>
<path fill="#aaeeaa" stroke="#888888" d="M309,-395C309,-395 218,-395 218,-395 212,-395 206,-389 206,-383 206,-383 206,-369 206,-369 206,-363 212,-357 218,-357 218,-357 309,-357 309,-357 315,-357 321,-363 321,-369 321,-369 321,-383 321,-383 321,-389 315,-395 309,-395"/>
<text text-anchor="middle" x="263.5" y="-379.8" font-family="Times,serif" font-size="14.00" fill="#222222">X</text>
<text text-anchor="middle" x="263.5" y="-364.8" font-family="Times,serif" font-size="14.00" fill="#222222">FLOAT16(a,b)</text>
</g>
<!-- Cast_4 -->
<g id="node5" class="node">
<title>Cast_4</title>
<path fill="#cccccc" stroke="#888888" d="M325,-333C325,-333 202,-333 202,-333 196,-333 190,-327 190,-321 190,-321 190,-309 190,-309 190,-303 196,-297 202,-297 202,-297 325,-297 325,-297 331,-297 337,-303 337,-309 337,-309 337,-321 337,-321 337,-327 331,-333 325,-333"/>
<text text-anchor="middle" x="263.5" y="-311.3" font-family="Times,serif" font-size="14.00" fill="#222222">Cast(., to=FLOAT)</text>
</g>
<!-- I_1&#45;&gt;Cast_4 -->
<g id="edge1" class="edge">
<title>I_1&#45;&gt;Cast_4</title>
<path fill="none" stroke="black" d="M263.5,-356.98C263.5,-352.71 263.5,-348.06 263.5,-343.47"/>
<polygon fill="black" stroke="black" points="263.5,-333.1 268,-343.1 263.5,-338.1 263.5,-343.1 263.5,-343.1 263.5,-343.1 263.5,-338.1 259,-343.1 263.5,-333.1 263.5,-333.1"/>
<text text-anchor="middle" x="289" y="-343.4" font-family="Times,serif" font-size="7.00">FLOAT16(a,b)</text>
</g>
<!-- I_2 -->
<g id="node3" class="node">
<title>I_2</title>
<path fill="#aaeeaa" stroke="#888888" d="M394,-395C394,-395 347,-395 347,-395 341,-395 335,-389 335,-383 335,-383 335,-369 335,-369 335,-363 341,-357 347,-357 347,-357 394,-357 394,-357 400,-357 406,-363 406,-369 406,-369 406,-383 406,-383 406,-389 400,-395 394,-395"/>
<text text-anchor="middle" x="370.5" y="-379.8" font-family="Times,serif" font-size="14.00" fill="#222222">axis</text>
<text text-anchor="middle" x="370.5" y="-364.8" font-family="Times,serif" font-size="14.00" fill="#222222">INT64()</text>
</g>
<!-- Constant_3 -->
<g id="node4" class="node">
<title>Constant_3</title>
<path fill="#cccccc" stroke="#888888" d="M163.5,-333C163.5,-333 41.5,-333 41.5,-333 35.5,-333 29.5,-327 29.5,-321 29.5,-321 29.5,-309 29.5,-309 29.5,-303 35.5,-297 41.5,-297 41.5,-297 163.5,-297 163.5,-297 169.5,-297 175.5,-303 175.5,-309 175.5,-309 175.5,-321 175.5,-321 175.5,-327 169.5,-333 163.5,-333"/>
<text text-anchor="middle" x="102.5" y="-311.3" font-family="Times,serif" font-size="14.00" fill="#222222">Constant() &#45;&gt; axis</text>
</g>
<!-- ReduceSum_5 -->
<g id="node6" class="node">
<title>ReduceSum_5</title>
<path fill="#cccccc" stroke="#888888" d="M229.5,-272C229.5,-272 123.5,-272 123.5,-272 117.5,-272 111.5,-266 111.5,-260 111.5,-260 111.5,-248 111.5,-248 111.5,-242 117.5,-236 123.5,-236 123.5,-236 229.5,-236 229.5,-236 235.5,-236 241.5,-242 241.5,-248 241.5,-248 241.5,-260 241.5,-260 241.5,-266 235.5,-272 229.5,-272"/>
<text text-anchor="middle" x="176.5" y="-250.3" font-family="Times,serif" font-size="14.00" fill="#222222">ReduceSum(., .)</text>
</g>
<!-- Constant_3&#45;&gt;ReduceSum_5 -->
<g id="edge3" class="edge">
<title>Constant_3&#45;&gt;ReduceSum_5</title>
<path fill="none" stroke="black" d="M123.9,-296.93C131.11,-291.19 139.29,-284.67 147.01,-278.51"/>
<polygon fill="black" stroke="black" points="155.14,-272.03 150.13,-281.78 151.23,-275.14 147.33,-278.26 147.33,-278.26 147.33,-278.26 151.23,-275.14 144.52,-274.74 155.14,-272.03 155.14,-272.03"/>
<text text-anchor="middle" x="156" y="-283.4" font-family="Times,serif" font-size="7.00">INT64()</text>
</g>
<!-- Cast_4&#45;&gt;ReduceSum_5 -->
<g id="edge2" class="edge">
<title>Cast_4&#45;&gt;ReduceSum_5</title>
<path fill="none" stroke="black" d="M223.3,-296.87C218.85,-294.44 214.49,-291.81 210.5,-289 206.45,-286.15 202.44,-282.79 198.69,-279.31"/>
<polygon fill="black" stroke="black" points="191.38,-272.14 201.67,-275.94 194.95,-275.64 198.52,-279.15 198.52,-279.15 198.52,-279.15 194.95,-275.64 195.36,-282.36 191.38,-272.14 191.38,-272.14"/>
<text text-anchor="middle" x="231.5" y="-283.4" font-family="Times,serif" font-size="7.00">FLOAT(a,b)</text>
</g>
<!-- Sub_7 -->
<g id="node8" class="node">
<title>Sub_7</title>
<path fill="#cccccc" stroke="#888888" d="M244,-151C244,-151 195,-151 195,-151 189,-151 183,-145 183,-139 183,-139 183,-127 183,-127 183,-121 189,-115 195,-115 195,-115 244,-115 244,-115 250,-115 256,-121 256,-127 256,-127 256,-139 256,-139 256,-145 250,-151 244,-151"/>
<text text-anchor="middle" x="219.5" y="-129.3" font-family="Times,serif" font-size="14.00" fill="#222222">Sub(., .)</text>
</g>
<!-- Cast_4&#45;&gt;Sub_7 -->
<g id="edge6" class="edge">
<title>Cast_4&#45;&gt;Sub_7</title>
<path fill="none" stroke="black" d="M265.15,-296.66C267.11,-268.52 268.02,-211.57 244.68,-160.24"/>
<polygon fill="black" stroke="black" points="240.21,-151.06 248.64,-158.08 242.4,-155.56 244.59,-160.05 244.59,-160.05 244.59,-160.05 242.4,-155.56 240.54,-162.02 240.21,-151.06 240.21,-151.06"/>
<text text-anchor="middle" x="284.5" y="-221.4" font-family="Times,serif" font-size="7.00">FLOAT(a,b)</text>
</g>
<!-- ReduceSum_5&#45;&gt;Mul_6 -->
<g id="edge4" class="edge">
<title>ReduceSum_5&#45;&gt;Mul_6</title>
<path fill="none" stroke="black" d="M176.5,-235.93C176.5,-231.45 176.5,-226.49 176.5,-221.61"/>
<polygon fill="black" stroke="black" points="176.5,-211.23 181,-221.23 176.5,-216.23 176.5,-221.23 176.5,-221.23 176.5,-221.23 176.5,-216.23 172,-221.23 176.5,-211.23 176.5,-211.23"/>
<text text-anchor="middle" x="197.5" y="-221.4" font-family="Times,serif" font-size="7.00">FLOAT(a,1)</text>
</g>
<!-- Mul_6&#45;&gt;Sub_7 -->
<g id="edge7" class="edge">
<title>Mul_6&#45;&gt;Sub_7</title>
<path fill="none" stroke="black" d="M189.17,-174.91C192.81,-170 196.86,-164.54 200.79,-159.24"/>
<polygon fill="black" stroke="black" points="206.77,-151.17 204.43,-161.88 203.8,-155.18 200.82,-159.2 200.82,-159.2 200.82,-159.2 203.8,-155.18 197.2,-156.52 206.77,-151.17 206.77,-151.17"/>
<text text-anchor="middle" x="221.5" y="-161.4" font-family="Times,serif" font-size="7.00">FLOAT(a,b)</text>
</g>
<!-- Cast_8 -->
<g id="node9" class="node">
<title>Cast_8</title>
<path fill="#cccccc" stroke="#888888" d="M290,-91C290,-91 149,-91 149,-91 143,-91 137,-85 137,-79 137,-79 137,-67 137,-67 137,-61 143,-55 149,-55 149,-55 290,-55 290,-55 296,-55 302,-61 302,-67 302,-67 302,-79 302,-79 302,-85 296,-91 290,-91"/>
<text text-anchor="middle" x="219.5" y="-69.3" font-family="Times,serif" font-size="14.00" fill="#222222">Cast(., to=FLOAT16)</text>
</g>
<!-- Sub_7&#45;&gt;Cast_8 -->
<g id="edge8" class="edge">
<title>Sub_7&#45;&gt;Cast_8</title>
<path fill="none" stroke="black" d="M219.5,-114.91C219.5,-110.7 219.5,-106.09 219.5,-101.52"/>
<polygon fill="black" stroke="black" points="219.5,-91.17 224,-101.17 219.5,-96.17 219.5,-101.17 219.5,-101.17 219.5,-101.17 219.5,-96.17 215,-101.17 219.5,-91.17 219.5,-91.17"/>
<text text-anchor="middle" x="240.5" y="-101.4" font-family="Times,serif" font-size="7.00">FLOAT(a,b)</text>
</g>
<!-- O_9 -->
<g id="node10" class="node">
<title>O_9</title>
<path fill="#aaaaee" stroke="#888888" d="M265,-38C265,-38 174,-38 174,-38 168,-38 162,-32 162,-26 162,-26 162,-12 162,-12 162,-6 168,0 174,0 174,0 265,0 265,0 271,0 277,-6 277,-12 277,-12 277,-26 277,-26 277,-32 271,-38 265,-38"/>
<text text-anchor="middle" x="219.5" y="-22.8" font-family="Times,serif" font-size="14.00" fill="#222222">Z</text>
<text text-anchor="middle" x="219.5" y="-7.8" font-family="Times,serif" font-size="14.00" fill="#222222">FLOAT16(a,b)</text>
</g>
<!-- Cast_8&#45;&gt;O_9 -->
<g id="edge9" class="edge">
<title>Cast_8&#45;&gt;O_9</title>
<path fill="none" stroke="black" d="M219.5,-54.97C219.5,-52.89 219.5,-50.72 219.5,-48.53"/>
<polygon fill="black" stroke="black" points="219.5,-38.32 224,-48.32 219.5,-43.32 219.5,-48.32 219.5,-48.32 219.5,-48.32 219.5,-43.32 215,-48.32 219.5,-38.32 219.5,-38.32"/>
</g>
</g>
</svg>
