<?xml version="1.0" encoding="UTF-8" standalone="no"?>
<!DOCTYPE svg PUBLIC "-//W3C//DTD SVG 1.1//EN"
 "http://www.w3.org/Graphics/SVG/1.1/DTD/svg11.dtd">
<!-- Generated by graphviz version 2.43.0 (0)
 -->
<!-- Title: %3 Pages: 1 -->
<svg width="420pt" height="281pt"
 viewBox="0.00 0.00 419.50 281.00" xmlns="http://www.w3.org/2000/svg" xmlns:xlink="http://www.w3.org/1999/xlink">
<g id="graph0" class="graph" transform="scale(1 1) rotate(0) translate(4 277)">
<title>%3</title>
<!-- I_0 -->
<g id="node1" class="node">
<title>I_0</title>
<path fill="#aaeeaa" stroke="#888888" d="M200.5,-273C200.5,-273 144.5,-273 144.5,-273 138.5,-273 132.5,-267 132.5,-261 132.5,-261 132.5,-247 132.5,-247 132.5,-241 138.5,-235 144.5,-235 144.5,-235 200.5,-235 200.5,-235 206.5,-235 212.5,-241 212.5,-247 212.5,-247 212.5,-261 212.5,-261 212.5,-267 206.5,-273 200.5,-273"/>
<text text-anchor="middle" x="172.5" y="-257.8" font-family="Times,serif" font-size="14.00" fill="#222222">I1</text>
<text text-anchor="middle" x="172.5" y="-242.8" font-family="Times,serif" font-size="14.00" fill="#222222">INT64(1)</text>
</g>
<!-- I_1 -->
<g id="node2" class="node">
<title>I_1</title>
<path fill="#aaeeaa" stroke="#888888" d="M326,-273C326,-273 239,-273 239,-273 233,-273 227,-267 227,-261 227,-261 227,-247 227,-247 227,-241 233,-235 239,-235 239,-235 326,-235 326,-235 332,-235 338,-241 338,-247 338,-247 338,-261 338,-261 338,-267 332,-273 326,-273"/>
<text text-anchor="middle" x="282.5" y="-257.8" font-family="Times,serif" font-size="14.00" fill="#222222">X</text>
<text text-anchor="middle" x="282.5" y="-242.8" font-family="Times,serif" font-size="14.00" fill="#222222">FLOAT(2,3,d)</text>
</g>
<!-- Shape_3 -->
<g id="node4" class="node">
<title>Shape_3</title>
<path fill="#d2a81f" stroke="#888888" d="M185,-211C185,-211 12,-211 12,-211 6,-211 0,-205 0,-199 0,-199 0,-187 0,-187 0,-181 6,-175 12,-175 12,-175 185,-175 185,-175 191,-175 197,-181 197,-187 197,-187 197,-199 197,-199 197,-205 191,-211 185,-211"/>
<text text-anchor="middle" x="98.5" y="-189.3" font-family="Times,serif" font-size="14.00" fill="#222222">Shape(., end=3, start=2)</text>
</g>
<!-- I_1&#45;&gt;Shape_3 -->
<g id="edge1" class="edge">
<title>I_1&#45;&gt;Shape_3</title>
<path fill="none" stroke="black" d="M226.79,-235.14C206.16,-228.52 182.62,-220.97 161.38,-214.16"/>
<polygon fill="black" stroke="black" points="151.81,-211.09 162.7,-209.86 156.57,-212.62 161.33,-214.15 161.33,-214.15 161.33,-214.15 156.57,-212.62 159.96,-218.43 151.81,-211.09 151.81,-211.09"/>
<text text-anchor="middle" x="221" y="-221.4" font-family="Times,serif" font-size="7.00">FLOAT(2,3,d)</text>
</g>
<!-- Reshape_5 -->
<g id="node6" class="node">
<title>Reshape_5</title>
<path fill="#eeeeee" stroke="#888888" d="M355.5,-91C355.5,-91 273.5,-91 273.5,-91 267.5,-91 261.5,-85 261.5,-79 261.5,-79 261.5,-67 261.5,-67 261.5,-61 267.5,-55 273.5,-55 273.5,-55 355.5,-55 355.5,-55 361.5,-55 367.5,-61 367.5,-67 367.5,-67 367.5,-79 367.5,-79 367.5,-85 361.5,-91 355.5,-91"/>
<text text-anchor="middle" x="314.5" y="-69.3" font-family="Times,serif" font-size="14.00" fill="#222222">Reshape(., .)</text>
</g>
<!-- I_1&#45;&gt;Reshape_5 -->
<g id="edge4" class="edge">
<title>I_1&#45;&gt;Reshape_5</title>
<path fill="none" stroke="black" d="M325.73,-234.82C335.22,-228.7 344.05,-220.85 349.5,-211 370.16,-173.67 364.26,-155.03 349.5,-115 347.43,-109.37 344.2,-104 340.52,-99.1"/>
<polygon fill="black" stroke="black" points="334.04,-91.34 343.91,-96.13 337.25,-95.17 340.45,-99.01 340.45,-99.01 340.45,-99.01 337.25,-95.17 337,-101.9 334.04,-91.34 334.04,-91.34"/>
<text text-anchor="middle" x="387" y="-161.4" font-family="Times,serif" font-size="7.00">FLOAT(2,3,d)</text>
</g>
<!-- Constant_2 -->
<g id="node3" class="node">
<title>Constant_2</title>
<path fill="#cccccc" stroke="#888888" d="M330,-211C330,-211 223,-211 223,-211 217,-211 211,-205 211,-199 211,-199 211,-187 211,-187 211,-181 217,-175 223,-175 223,-175 330,-175 330,-175 336,-175 342,-181 342,-187 342,-187 342,-199 342,-199 342,-205 336,-211 330,-211"/>
<text text-anchor="middle" x="276.5" y="-189.3" font-family="Times,serif" font-size="14.00" fill="#222222">Constant() &#45;&gt; I1</text>
</g>
<!-- Concat_4 -->
<g id="node5" class="node">
<title>Concat_4</title>
<path fill="#cccccc" stroke="#888888" d="M330,-151C330,-151 201,-151 201,-151 195,-151 189,-145 189,-139 189,-139 189,-127 189,-127 189,-121 195,-115 201,-115 201,-115 330,-115 330,-115 336,-115 342,-121 342,-127 342,-127 342,-139 342,-139 342,-145 336,-151 330,-151"/>
<text text-anchor="middle" x="265.5" y="-129.3" font-family="Times,serif" font-size="14.00" fill="#222222">Concat(., ., axis=0)</text>
</g>
<!-- Constant_2&#45;&gt;Concat_4 -->
<g id="edge2" class="edge">
<title>Constant_2&#45;&gt;Concat_4</title>
<path fill="none" stroke="black" d="M273.26,-174.91C272.44,-170.58 271.54,-165.83 270.65,-161.14"/>
<polygon fill="black" stroke="black" points="268.76,-151.17 275.04,-160.15 269.69,-156.08 270.62,-160.99 270.62,-160.99 270.62,-160.99 269.69,-156.08 266.2,-161.83 268.76,-151.17 268.76,-151.17"/>
<text text-anchor="middle" x="288.5" y="-161.4" font-family="Times,serif" font-size="7.00">INT64(1)</text>
</g>
<!-- Shape_3&#45;&gt;Concat_4 -->
<g id="edge3" class="edge">
<title>Shape_3&#45;&gt;Concat_4</title>
<path fill="none" stroke="black" d="M147.7,-174.91C166.22,-168.48 187.46,-161.1 206.77,-154.4"/>
<polygon fill="black" stroke="black" points="216.36,-151.07 208.39,-158.6 211.64,-152.71 206.91,-154.35 206.91,-154.35 206.91,-154.35 211.64,-152.71 205.44,-150.1 216.36,-151.07 216.36,-151.07"/>
<text text-anchor="middle" x="209.5" y="-161.4" font-family="Times,serif" font-size="7.00">INT64(1)</text>
</g>
<!-- Concat_4&#45;&gt;Reshape_5 -->
<g id="edge5" class="edge">
<title>Concat_4&#45;&gt;Reshape_5</title>
<path fill="none" stroke="black" d="M279.94,-114.91C284.19,-109.88 288.92,-104.28 293.49,-98.86"/>
<polygon fill="black" stroke="black" points="300,-91.17 296.98,-101.71 296.77,-94.99 293.54,-98.81 293.54,-98.81 293.54,-98.81 296.77,-94.99 290.11,-95.9 300,-91.17 300,-91.17"/>
<text text-anchor="middle" x="309.5" y="-101.4" font-family="Times,serif" font-size="7.00">INT64(2)</text>
</g>
<!-- O_6 -->
<g id="node7" class="node">
<title>O_6</title>
<path fill="#aaaaee" stroke="#888888" d="M351.5,-38C351.5,-38 277.5,-38 277.5,-38 271.5,-38 265.5,-32 265.5,-26 265.5,-26 265.5,-12 265.5,-12 265.5,-6 271.5,0 277.5,0 277.5,0 351.5,0 351.5,0 357.5,0 363.5,-6 363.5,-12 363.5,-12 363.5,-26 363.5,-26 363.5,-32 357.5,-38 351.5,-38"/>
<text text-anchor="middle" x="314.5" y="-22.8" font-family="Times,serif" font-size="14.00" fill="#222222">Y</text>
<text text-anchor="middle" x="314.5" y="-7.8" font-family="Times,serif" font-size="14.00" fill="#222222">FLOAT(6,d)</text>
</g>
<!-- Reshape_5&#45;&gt;O_6 -->
<g id="edge6" class="edge">
<title>Reshape_5&#45;&gt;O_6</title>
<path fill="none" stroke="black" d="M314.5,-54.97C314.5,-52.89 314.5,-50.72 314.5,-48.53"/>
<polygon fill="black" stroke="black" points="314.5,-38.32 319,-48.32 314.5,-43.32 314.5,-48.32 314.5,-48.32 314.5,-48.32 314.5,-43.32 310,-48.32 314.5,-38.32 314.5,-38.32"/>
</g>
</g>
</svg>
