<?xml version="1.0" encoding="UTF-8" standalone="no"?>
<!DOCTYPE svg PUBLIC "-//W3C//DTD SVG 1.1//EN"
 "http://www.w3.org/Graphics/SVG/1.1/DTD/svg11.dtd">
<!-- Generated by graphviz version 2.43.0 (0)
 -->
<!-- Title: %3 Pages: 1 -->
<svg width="262pt" height="221pt"
 viewBox="0.00 0.00 262.00 221.00" xmlns="http://www.w3.org/2000/svg" xmlns:xlink="http://www.w3.org/1999/xlink">
<g id="graph0" class="graph" transform="scale(1 1) rotate(0) translate(4 217)">
<title>%3</title>
<!-- I_0 -->
<g id="node1" class="node">
<title>I_0</title>
<path fill="#aaeeaa" stroke="#888888" d="M162.5,-213C162.5,-213 89.5,-213 89.5,-213 83.5,-213 77.5,-207 77.5,-201 77.5,-201 77.5,-187 77.5,-187 77.5,-181 83.5,-175 89.5,-175 89.5,-175 162.5,-175 162.5,-175 168.5,-175 174.5,-181 174.5,-187 174.5,-187 174.5,-201 174.5,-201 174.5,-207 168.5,-213 162.5,-213"/>
<text text-anchor="middle" x="126" y="-197.8" font-family="Times,serif" font-size="14.00" fill="#222222">X</text>
<text text-anchor="middle" x="126" y="-182.8" font-family="Times,serif" font-size="14.00" fill="#222222">FLOAT(a,2)</text>
</g>
<!-- Split_1 -->
<g id="node2" class="node">
<title>Split_1</title>
<path fill="#cccccc" stroke="#888888" d="M176,-151C176,-151 76,-151 76,-151 70,-151 64,-145 64,-139 64,-139 64,-127 64,-127 64,-121 70,-115 76,-115 76,-115 176,-115 176,-115 182,-115 188,-121 188,-127 188,-127 188,-139 188,-139 188,-145 182,-151 176,-151"/>
<text text-anchor="middle" x="126" y="-129.3" font-family="Times,serif" font-size="14.00" fill="#222222">Split(., axis=1)</text>
</g>
<!-- I_0&#45;&gt;Split_1 -->
<g id="edge1" class="edge">
<title>I_0&#45;&gt;Split_1</title>
<path fill="none" stroke="black" d="M126,-174.98C126,-170.71 126,-166.06 126,-161.47"/>
<polygon fill="black" stroke="black" points="126,-151.1 130.5,-161.1 126,-156.1 126,-161.1 126,-161.1 126,-161.1 126,-156.1 121.5,-161.1 126,-151.1 126,-151.1"/>
<text text-anchor="middle" x="147" y="-161.4" font-family="Times,serif" font-size="7.00">FLOAT(a,2)</text>
</g>
<!-- Squeeze_2 -->
<g id="node3" class="node">
<title>Squeeze_2</title>
<path fill="#eeeeee" stroke="#888888" d="M108,-91C108,-91 12,-91 12,-91 6,-91 0,-85 0,-79 0,-79 0,-67 0,-67 0,-61 6,-55 12,-55 12,-55 108,-55 108,-55 114,-55 120,-61 120,-67 120,-67 120,-79 120,-79 120,-85 114,-91 108,-91"/>
<text text-anchor="middle" x="60" y="-69.3" font-family="Times,serif" font-size="14.00" fill="#222222">Squeeze(., [1])</text>
</g>
<!-- Split_1&#45;&gt;Squeeze_2 -->
<g id="edge2" class="edge">
<title>Split_1&#45;&gt;Squeeze_2</title>
<path fill="none" stroke="black" d="M106.55,-114.91C100.57,-109.65 93.86,-103.75 87.44,-98.11"/>
<polygon fill="black" stroke="black" points="79.53,-91.17 90.02,-94.39 83.29,-94.47 87.05,-97.77 87.05,-97.77 87.05,-97.77 83.29,-94.47 84.08,-101.15 79.53,-91.17 79.53,-91.17"/>
<text text-anchor="middle" x="118" y="-101.4" font-family="Times,serif" font-size="7.00">FLOAT(a,1)</text>
</g>
<!-- Squeeze_3 -->
<g id="node4" class="node">
<title>Squeeze_3</title>
<path fill="#eeeeee" stroke="#888888" d="M242,-91C242,-91 146,-91 146,-91 140,-91 134,-85 134,-79 134,-79 134,-67 134,-67 134,-61 140,-55 146,-55 146,-55 242,-55 242,-55 248,-55 254,-61 254,-67 254,-67 254,-79 254,-79 254,-85 248,-91 242,-91"/>
<text text-anchor="middle" x="194" y="-69.3" font-family="Times,serif" font-size="14.00" fill="#222222">Squeeze(., [1])</text>
</g>
<!-- Split_1&#45;&gt;Squeeze_3 -->
<g id="edge3" class="edge">
<title>Split_1&#45;&gt;Squeeze_3</title>
<path fill="none" stroke="black" d="M146.03,-114.91C152.34,-109.53 159.43,-103.49 166.17,-97.73"/>
<polygon fill="black" stroke="black" points="173.87,-91.17 169.19,-101.08 170.07,-94.41 166.27,-97.66 166.27,-97.66 166.27,-97.66 170.07,-94.41 163.35,-94.23 173.87,-91.17 173.87,-91.17"/>
<text text-anchor="middle" x="186" y="-101.4" font-family="Times,serif" font-size="7.00">FLOAT(a,1)</text>
</g>
<!-- O_5 -->
<g id="node6" class="node">
<title>O_5</title>
<path fill="#aaaaee" stroke="#888888" d="M89.5,-38C89.5,-38 30.5,-38 30.5,-38 24.5,-38 18.5,-32 18.5,-26 18.5,-26 18.5,-12 18.5,-12 18.5,-6 24.5,0 30.5,0 30.5,0 89.5,0 89.5,0 95.5,0 101.5,-6 101.5,-12 101.5,-12 101.5,-26 101.5,-26 101.5,-32 95.5,-38 89.5,-38"/>
<text text-anchor="middle" x="60" y="-22.8" font-family="Times,serif" font-size="14.00" fill="#222222">x1</text>
<text text-anchor="middle" x="60" y="-7.8" font-family="Times,serif" font-size="14.00" fill="#222222">FLOAT(a)</text>
</g>
<!-- Squeeze_2&#45;&gt;O_5 -->
<g id="edge5" class="edge">
<title>Squeeze_2&#45;&gt;O_5</title>
<path fill="none" stroke="black" d="M60,-54.97C60,-52.89 60,-50.72 60,-48.53"/>
<polygon fill="black" stroke="black" points="60,-38.32 64.5,-48.32 60,-43.32 60,-48.32 60,-48.32 60,-48.32 60,-43.32 55.5,-48.32 60,-38.32 60,-38.32"/>
</g>
<!-- O_4 -->
<g id="node5" class="node">
<title>O_4</title>
<path fill="#aaaaee" stroke="#888888" d="M223.5,-38C223.5,-38 164.5,-38 164.5,-38 158.5,-38 152.5,-32 152.5,-26 152.5,-26 152.5,-12 152.5,-12 152.5,-6 158.5,0 164.5,0 164.5,0 223.5,0 223.5,0 229.5,0 235.5,-6 235.5,-12 235.5,-12 235.5,-26 235.5,-26 235.5,-32 229.5,-38 223.5,-38"/>
<text text-anchor="middle" x="194" y="-22.8" font-family="Times,serif" font-size="14.00" fill="#222222">x2</text>
<text text-anchor="middle" x="194" y="-7.8" font-family="Times,serif" font-size="14.00" fill="#222222">FLOAT(a)</text>
</g>
<!-- Squeeze_3&#45;&gt;O_4 -->
<g id="edge4" class="edge">
<title>Squeeze_3&#45;&gt;O_4</title>
<path fill="none" stroke="black" d="M194,-54.97C194,-52.89 194,-50.72 194,-48.53"/>
<polygon fill="black" stroke="black" points="194,-38.32 198.5,-48.32 194,-43.32 194,-48.32 194,-48.32 194,-48.32 194,-43.32 189.5,-48.32 194,-38.32 194,-38.32"/>
</g>
</g>
</svg>
