<?xml version="1.0" encoding="UTF-8" standalone="no"?>
<!DOCTYPE svg PUBLIC "-//W3C//DTD SVG 1.1//EN"
 "http://www.w3.org/Graphics/SVG/1.1/DTD/svg11.dtd">
<!-- Generated by graphviz version 2.43.0 (0)
 -->
<!-- Title: %3 Pages: 1 -->
<svg width="539pt" height="851pt"
 viewBox="0.00 0.00 538.50 851.00" xmlns="http://www.w3.org/2000/svg" xmlns:xlink="http://www.w3.org/1999/xlink">
<g id="graph0" class="graph" transform="scale(1 1) rotate(0) translate(4 847)">
<title>%3</title>
<!-- I_0 -->
<g id="node1" class="node">
<title>I_0</title>
<path fill="#aaeeaa" stroke="#888888" d="M249,-843C249,-843 192,-843 192,-843 186,-843 180,-837 180,-831 180,-831 180,-817 180,-817 180,-811 186,-805 192,-805 192,-805 249,-805 249,-805 255,-805 261,-811 261,-817 261,-817 261,-831 261,-831 261,-837 255,-843 249,-843"/>
<text text-anchor="middle" x="220.5" y="-827.8" font-family="Times,serif" font-size="14.00" fill="#222222">I</text>
<text text-anchor="middle" x="220.5" y="-812.8" font-family="Times,serif" font-size="14.00" fill="#222222">INT64(A)</text>
</g>
<!-- Equal_2 -->
<g id="node3" class="node">
<title>Equal_2</title>
<path fill="#cccccc" stroke="#888888" d="M228.5,-781C228.5,-781 128.5,-781 128.5,-781 122.5,-781 116.5,-775 116.5,-769 116.5,-769 116.5,-757 116.5,-757 116.5,-751 122.5,-745 128.5,-745 128.5,-745 228.5,-745 228.5,-745 234.5,-745 240.5,-751 240.5,-757 240.5,-757 240.5,-769 240.5,-769 240.5,-775 234.5,-781 228.5,-781"/>
<text text-anchor="middle" x="178.5" y="-759.3" font-family="Times,serif" font-size="14.00" fill="#222222">Equal(., [&#45;100])</text>
</g>
<!-- I_0&#45;&gt;Equal_2 -->
<g id="edge1" class="edge">
<title>I_0&#45;&gt;Equal_2</title>
<path fill="none" stroke="black" d="M207.67,-804.98C204.21,-800.11 200.4,-794.76 196.7,-789.57"/>
<polygon fill="black" stroke="black" points="190.68,-781.1 200.14,-786.64 193.58,-785.18 196.48,-789.25 196.48,-789.25 196.48,-789.25 193.58,-785.18 192.81,-791.86 190.68,-781.1 190.68,-781.1"/>
<text text-anchor="middle" x="218.5" y="-791.4" font-family="Times,serif" font-size="7.00">INT64(A)</text>
</g>
<!-- Where_4 -->
<g id="node5" class="node">
<title>Where_4</title>
<path fill="#cccccc" stroke="#888888" d="M310.5,-660C310.5,-660 214.5,-660 214.5,-660 208.5,-660 202.5,-654 202.5,-648 202.5,-648 202.5,-636 202.5,-636 202.5,-630 208.5,-624 214.5,-624 214.5,-624 310.5,-624 310.5,-624 316.5,-624 322.5,-630 322.5,-636 322.5,-636 322.5,-648 322.5,-648 322.5,-654 316.5,-660 310.5,-660"/>
<text text-anchor="middle" x="262.5" y="-638.3" font-family="Times,serif" font-size="14.00" fill="#222222">Where(., ., [0])</text>
</g>
<!-- I_0&#45;&gt;Where_4 -->
<g id="edge4" class="edge">
<title>I_0&#45;&gt;Where_4</title>
<path fill="none" stroke="black" d="M235.13,-804.83C239.97,-797.8 244.8,-789.42 247.5,-781 259.39,-743.93 262.25,-698.69 262.74,-670.35"/>
<polygon fill="black" stroke="black" points="262.82,-660.02 267.24,-670.06 262.78,-665.02 262.74,-670.02 262.74,-670.02 262.74,-670.02 262.78,-665.02 258.24,-669.98 262.82,-660.02 262.82,-660.02"/>
<text text-anchor="middle" x="275.5" y="-731.4" font-family="Times,serif" font-size="7.00">INT64(A)</text>
</g>
<!-- I_1 -->
<g id="node2" class="node">
<title>I_1</title>
<path fill="#aaeeaa" stroke="#888888" d="M489.5,-661C489.5,-661 395.5,-661 395.5,-661 389.5,-661 383.5,-655 383.5,-649 383.5,-649 383.5,-635 383.5,-635 383.5,-629 389.5,-623 395.5,-623 395.5,-623 489.5,-623 489.5,-623 495.5,-623 501.5,-629 501.5,-635 501.5,-635 501.5,-649 501.5,-649 501.5,-655 495.5,-661 489.5,-661"/>
<text text-anchor="middle" x="442.5" y="-645.8" font-family="Times,serif" font-size="14.00" fill="#222222">X</text>
<text text-anchor="middle" x="442.5" y="-630.8" font-family="Times,serif" font-size="14.00" fill="#222222">FLOAT16(A,B)</text>
</g>
<!-- LogSoftmax_6 -->
<g id="node7" class="node">
<title>LogSoftmax_6</title>
<path fill="#cccccc" stroke="#888888" d="M518.5,-599C518.5,-599 366.5,-599 366.5,-599 360.5,-599 354.5,-593 354.5,-587 354.5,-587 354.5,-575 354.5,-575 354.5,-569 360.5,-563 366.5,-563 366.5,-563 518.5,-563 518.5,-563 524.5,-563 530.5,-569 530.5,-575 530.5,-575 530.5,-587 530.5,-587 530.5,-593 524.5,-599 518.5,-599"/>
<text text-anchor="middle" x="442.5" y="-577.3" font-family="Times,serif" font-size="14.00" fill="#222222">LogSoftmax(., axis=1)</text>
</g>
<!-- I_1&#45;&gt;LogSoftmax_6 -->
<g id="edge6" class="edge">
<title>I_1&#45;&gt;LogSoftmax_6</title>
<path fill="none" stroke="black" d="M442.5,-622.98C442.5,-618.71 442.5,-614.06 442.5,-609.47"/>
<polygon fill="black" stroke="black" points="442.5,-599.1 447,-609.1 442.5,-604.1 442.5,-609.1 442.5,-609.1 442.5,-609.1 442.5,-604.1 438,-609.1 442.5,-599.1 442.5,-599.1"/>
<text text-anchor="middle" x="468.5" y="-609.4" font-family="Times,serif" font-size="7.00">FLOAT16(A,B)</text>
</g>
<!-- Not_3 -->
<g id="node4" class="node">
<title>Not_3</title>
<path fill="#cccccc" stroke="#888888" d="M195.5,-721C195.5,-721 161.5,-721 161.5,-721 155.5,-721 149.5,-715 149.5,-709 149.5,-709 149.5,-697 149.5,-697 149.5,-691 155.5,-685 161.5,-685 161.5,-685 195.5,-685 195.5,-685 201.5,-685 207.5,-691 207.5,-697 207.5,-697 207.5,-709 207.5,-709 207.5,-715 201.5,-721 195.5,-721"/>
<text text-anchor="middle" x="178.5" y="-699.3" font-family="Times,serif" font-size="14.00" fill="#222222">Not(.)</text>
</g>
<!-- Equal_2&#45;&gt;Not_3 -->
<g id="edge2" class="edge">
<title>Equal_2&#45;&gt;Not_3</title>
<path fill="none" stroke="black" d="M178.5,-744.91C178.5,-740.7 178.5,-736.09 178.5,-731.52"/>
<polygon fill="black" stroke="black" points="178.5,-721.17 183,-731.17 178.5,-726.17 178.5,-731.17 178.5,-731.17 178.5,-731.17 178.5,-726.17 174,-731.17 178.5,-721.17 178.5,-721.17"/>
<text text-anchor="middle" x="195.5" y="-731.4" font-family="Times,serif" font-size="7.00">BOOL(A)</text>
</g>
<!-- Not_3&#45;&gt;Where_4 -->
<g id="edge3" class="edge">
<title>Not_3&#45;&gt;Where_4</title>
<path fill="none" stroke="black" d="M197.39,-684.84C203.61,-679.52 210.68,-673.8 217.5,-669 219.11,-667.87 220.76,-666.75 222.45,-665.63"/>
<polygon fill="black" stroke="black" points="231.06,-660.2 225.01,-669.34 226.84,-662.87 222.61,-665.53 222.61,-665.53 222.61,-665.53 226.84,-662.87 220.21,-661.73 231.06,-660.2 231.06,-660.2"/>
<text text-anchor="middle" x="234.5" y="-671.4" font-family="Times,serif" font-size="7.00">BOOL(A)</text>
</g>
<!-- Where_10 -->
<g id="node11" class="node">
<title>Where_10</title>
<path fill="#cccccc" stroke="#888888" d="M242.5,-331C242.5,-331 132.5,-331 132.5,-331 126.5,-331 120.5,-325 120.5,-319 120.5,-319 120.5,-307 120.5,-307 120.5,-301 126.5,-295 132.5,-295 132.5,-295 242.5,-295 242.5,-295 248.5,-295 254.5,-301 254.5,-307 254.5,-307 254.5,-319 254.5,-319 254.5,-325 248.5,-331 242.5,-331"/>
<text text-anchor="middle" x="187.5" y="-309.3" font-family="Times,serif" font-size="14.00" fill="#222222">Where(., ., [0.0])</text>
</g>
<!-- Not_3&#45;&gt;Where_10 -->
<g id="edge11" class="edge">
<title>Not_3&#45;&gt;Where_10</title>
<path fill="none" stroke="black" d="M178.5,-684.96C178.5,-673.18 178.5,-657.14 178.5,-643 178.5,-643 178.5,-643 178.5,-372 178.5,-361.82 179.87,-350.76 181.54,-341.05"/>
<polygon fill="black" stroke="black" points="183.42,-331.15 185.98,-341.81 182.49,-336.06 181.55,-340.97 181.55,-340.97 181.55,-340.97 182.49,-336.06 177.13,-340.13 183.42,-331.15 183.42,-331.15"/>
<text text-anchor="middle" x="195.5" y="-519.4" font-family="Times,serif" font-size="7.00">BOOL(A)</text>
</g>
<!-- Cast_11 -->
<g id="node12" class="node">
<title>Cast_11</title>
<path fill="#cccccc" stroke="#888888" d="M144,-660C144,-660 21,-660 21,-660 15,-660 9,-654 9,-648 9,-648 9,-636 9,-636 9,-630 15,-624 21,-624 21,-624 144,-624 144,-624 150,-624 156,-630 156,-636 156,-636 156,-648 156,-648 156,-654 150,-660 144,-660"/>
<text text-anchor="middle" x="82.5" y="-638.3" font-family="Times,serif" font-size="14.00" fill="#222222">Cast(., to=FLOAT)</text>
</g>
<!-- Not_3&#45;&gt;Cast_11 -->
<g id="edge13" class="edge">
<title>Not_3&#45;&gt;Cast_11</title>
<path fill="none" stroke="black" d="M149.25,-686.2C143.97,-683.22 138.54,-680.07 133.5,-677 127.64,-673.43 121.5,-669.5 115.58,-665.61"/>
<polygon fill="black" stroke="black" points="107.14,-660.01 117.96,-661.79 111.31,-662.78 115.47,-665.54 115.47,-665.54 115.47,-665.54 111.31,-662.78 112.98,-669.29 107.14,-660.01 107.14,-660.01"/>
<text text-anchor="middle" x="150.5" y="-671.4" font-family="Times,serif" font-size="7.00">BOOL(A)</text>
</g>
<!-- Unsqueeze_5 -->
<g id="node6" class="node">
<title>Unsqueeze_5</title>
<path fill="#eeeeee" stroke="#888888" d="M328,-599C328,-599 213,-599 213,-599 207,-599 201,-593 201,-587 201,-587 201,-575 201,-575 201,-569 207,-563 213,-563 213,-563 328,-563 328,-563 334,-563 340,-569 340,-575 340,-575 340,-587 340,-587 340,-593 334,-599 328,-599"/>
<text text-anchor="middle" x="270.5" y="-577.3" font-family="Times,serif" font-size="14.00" fill="#222222">Unsqueeze(., [1])</text>
</g>
<!-- Where_4&#45;&gt;Unsqueeze_5 -->
<g id="edge5" class="edge">
<title>Where_4&#45;&gt;Unsqueeze_5</title>
<path fill="none" stroke="black" d="M264.81,-623.93C265.44,-619.33 266.13,-614.22 266.81,-609.21"/>
<polygon fill="black" stroke="black" points="268.16,-599.23 271.28,-609.75 267.49,-604.19 266.82,-609.14 266.82,-609.14 266.82,-609.14 267.49,-604.19 262.36,-608.54 268.16,-599.23 268.16,-599.23"/>
<text text-anchor="middle" x="284.5" y="-609.4" font-family="Times,serif" font-size="7.00">INT64(A)</text>
</g>
<!-- GatherElements_7 -->
<g id="node8" class="node">
<title>GatherElements_7</title>
<path fill="#cccccc" stroke="#888888" d="M436,-539C436,-539 239,-539 239,-539 233,-539 227,-533 227,-527 227,-527 227,-515 227,-515 227,-509 233,-503 239,-503 239,-503 436,-503 436,-503 442,-503 448,-509 448,-515 448,-515 448,-527 448,-527 448,-533 442,-539 436,-539"/>
<text text-anchor="middle" x="337.5" y="-517.3" font-family="Times,serif" font-size="14.00" fill="#222222">GatherElements(., ., axis=1)</text>
</g>
<!-- Unsqueeze_5&#45;&gt;GatherElements_7 -->
<g id="edge8" class="edge">
<title>Unsqueeze_5&#45;&gt;GatherElements_7</title>
<path fill="none" stroke="black" d="M290.24,-562.91C296.45,-557.53 303.43,-551.49 310.08,-545.73"/>
<polygon fill="black" stroke="black" points="317.67,-539.17 313.05,-549.11 313.89,-542.44 310.11,-545.71 310.11,-545.71 310.11,-545.71 313.89,-542.44 307.16,-542.31 317.67,-539.17 317.67,-539.17"/>
<text text-anchor="middle" x="328" y="-549.4" font-family="Times,serif" font-size="7.00">INT64(A,1)</text>
</g>
<!-- LogSoftmax_6&#45;&gt;GatherElements_7 -->
<g id="edge7" class="edge">
<title>LogSoftmax_6&#45;&gt;GatherElements_7</title>
<path fill="none" stroke="black" d="M411.56,-562.91C400.87,-557.01 388.74,-550.3 377.43,-544.05"/>
<polygon fill="black" stroke="black" points="368.58,-539.17 379.51,-540.06 372.95,-541.58 377.33,-544 377.33,-544 377.33,-544 372.95,-541.58 375.15,-547.94 368.58,-539.17 368.58,-539.17"/>
<text text-anchor="middle" x="421.5" y="-549.4" font-family="Times,serif" font-size="7.00">FLOAT16(A,B)</text>
</g>
<!-- Squeeze_8 -->
<g id="node9" class="node">
<title>Squeeze_8</title>
<path fill="#eeeeee" stroke="#888888" d="M327.5,-451C327.5,-451 231.5,-451 231.5,-451 225.5,-451 219.5,-445 219.5,-439 219.5,-439 219.5,-427 219.5,-427 219.5,-421 225.5,-415 231.5,-415 231.5,-415 327.5,-415 327.5,-415 333.5,-415 339.5,-421 339.5,-427 339.5,-427 339.5,-439 339.5,-439 339.5,-445 333.5,-451 327.5,-451"/>
<text text-anchor="middle" x="279.5" y="-429.3" font-family="Times,serif" font-size="14.00" fill="#222222">Squeeze(., [1])</text>
</g>
<!-- GatherElements_7&#45;&gt;Squeeze_8 -->
<g id="edge9" class="edge">
<title>GatherElements_7&#45;&gt;Squeeze_8</title>
<path fill="none" stroke="black" d="M325.76,-502.6C317.45,-490.28 306.17,-473.55 296.83,-459.7"/>
<polygon fill="black" stroke="black" points="291.02,-451.08 300.34,-456.86 293.82,-455.23 296.61,-459.37 296.61,-459.37 296.61,-459.37 293.82,-455.23 292.88,-461.89 291.02,-451.08 291.02,-451.08"/>
<text text-anchor="middle" x="345.5" y="-475.4" font-family="Times,serif" font-size="7.00">FLOAT16(A,1)</text>
</g>
<!-- Neg_9 -->
<g id="node10" class="node">
<title>Neg_9</title>
<path fill="#cccccc" stroke="#888888" d="M264,-391C264,-391 227,-391 227,-391 221,-391 215,-385 215,-379 215,-379 215,-367 215,-367 215,-361 221,-355 227,-355 227,-355 264,-355 264,-355 270,-355 276,-361 276,-367 276,-367 276,-379 276,-379 276,-385 270,-391 264,-391"/>
<text text-anchor="middle" x="245.5" y="-369.3" font-family="Times,serif" font-size="14.00" fill="#222222">Neg(.)</text>
</g>
<!-- Squeeze_8&#45;&gt;Neg_9 -->
<g id="edge10" class="edge">
<title>Squeeze_8&#45;&gt;Neg_9</title>
<path fill="none" stroke="black" d="M269.48,-414.91C266.74,-410.23 263.7,-405.05 260.74,-400"/>
<polygon fill="black" stroke="black" points="255.56,-391.17 264.5,-397.52 258.09,-395.48 260.62,-399.79 260.62,-399.79 260.62,-399.79 258.09,-395.48 256.74,-402.07 255.56,-391.17 255.56,-391.17"/>
<text text-anchor="middle" x="288" y="-401.4" font-family="Times,serif" font-size="7.00">FLOAT16(A)</text>
</g>
<!-- Neg_9&#45;&gt;Where_10 -->
<g id="edge12" class="edge">
<title>Neg_9&#45;&gt;Where_10</title>
<path fill="none" stroke="black" d="M228.41,-354.91C223.27,-349.77 217.51,-344.01 211.99,-338.49"/>
<polygon fill="black" stroke="black" points="204.67,-331.17 214.92,-335.06 208.2,-334.7 211.74,-338.24 211.74,-338.24 211.74,-338.24 208.2,-334.7 208.56,-341.42 204.67,-331.17 204.67,-331.17"/>
<text text-anchor="middle" x="243" y="-341.4" font-family="Times,serif" font-size="7.00">FLOAT16(A)</text>
</g>
<!-- Cast_14 -->
<g id="node15" class="node">
<title>Cast_14</title>
<path fill="#cccccc" stroke="#888888" d="M249,-271C249,-271 126,-271 126,-271 120,-271 114,-265 114,-259 114,-259 114,-247 114,-247 114,-241 120,-235 126,-235 126,-235 249,-235 249,-235 255,-235 261,-241 261,-247 261,-247 261,-259 261,-259 261,-265 255,-271 249,-271"/>
<text text-anchor="middle" x="187.5" y="-249.3" font-family="Times,serif" font-size="14.00" fill="#222222">Cast(., to=FLOAT)</text>
</g>
<!-- Where_10&#45;&gt;Cast_14 -->
<g id="edge16" class="edge">
<title>Where_10&#45;&gt;Cast_14</title>
<path fill="none" stroke="black" d="M187.5,-294.91C187.5,-290.7 187.5,-286.09 187.5,-281.52"/>
<polygon fill="black" stroke="black" points="187.5,-271.17 192,-281.17 187.5,-276.17 187.5,-281.17 187.5,-281.17 187.5,-281.17 187.5,-276.17 183,-281.17 187.5,-271.17 187.5,-271.17"/>
<text text-anchor="middle" x="210" y="-281.4" font-family="Times,serif" font-size="7.00">FLOAT16(A)</text>
</g>
<!-- ReduceSum_12 -->
<g id="node13" class="node">
<title>ReduceSum_12</title>
<path fill="#cccccc" stroke="#888888" d="M128.5,-599C128.5,-599 36.5,-599 36.5,-599 30.5,-599 24.5,-593 24.5,-587 24.5,-587 24.5,-575 24.5,-575 24.5,-569 30.5,-563 36.5,-563 36.5,-563 128.5,-563 128.5,-563 134.5,-563 140.5,-569 140.5,-575 140.5,-575 140.5,-587 140.5,-587 140.5,-593 134.5,-599 128.5,-599"/>
<text text-anchor="middle" x="82.5" y="-577.3" font-family="Times,serif" font-size="14.00" fill="#222222">ReduceSum(.)</text>
</g>
<!-- Cast_11&#45;&gt;ReduceSum_12 -->
<g id="edge14" class="edge">
<title>Cast_11&#45;&gt;ReduceSum_12</title>
<path fill="none" stroke="black" d="M82.5,-623.93C82.5,-619.45 82.5,-614.49 82.5,-609.61"/>
<polygon fill="black" stroke="black" points="82.5,-599.23 87,-609.23 82.5,-604.23 82.5,-609.23 82.5,-609.23 82.5,-609.23 82.5,-604.23 78,-609.23 82.5,-599.23 82.5,-599.23"/>
<text text-anchor="middle" x="100.5" y="-609.4" font-family="Times,serif" font-size="7.00">FLOAT(A)</text>
</g>
<!-- Cast_13 -->
<g id="node14" class="node">
<title>Cast_13</title>
<path fill="#cccccc" stroke="#888888" d="M153,-495C153,-495 12,-495 12,-495 6,-495 0,-489 0,-483 0,-483 0,-471 0,-471 0,-465 6,-459 12,-459 12,-459 153,-459 153,-459 159,-459 165,-465 165,-471 165,-471 165,-483 165,-483 165,-489 159,-495 153,-495"/>
<text text-anchor="middle" x="82.5" y="-473.3" font-family="Times,serif" font-size="14.00" fill="#222222">Cast(., to=FLOAT16)</text>
</g>
<!-- ReduceSum_12&#45;&gt;Cast_13 -->
<g id="edge15" class="edge">
<title>ReduceSum_12&#45;&gt;Cast_13</title>
<path fill="none" stroke="black" d="M82.5,-562.7C82.5,-546.92 82.5,-523.36 82.5,-505.09"/>
<polygon fill="black" stroke="black" points="82.5,-495.05 87,-505.05 82.5,-500.05 82.5,-505.05 82.5,-505.05 82.5,-505.05 82.5,-500.05 78,-505.05 82.5,-495.05 82.5,-495.05"/>
<text text-anchor="middle" x="98" y="-549.4" font-family="Times,serif" font-size="7.00">FLOAT()</text>
</g>
<!-- Div_17 -->
<g id="node18" class="node">
<title>Div_17</title>
<path fill="#cccccc" stroke="#888888" d="M118,-91C118,-91 73,-91 73,-91 67,-91 61,-85 61,-79 61,-79 61,-67 61,-67 61,-61 67,-55 73,-55 73,-55 118,-55 118,-55 124,-55 130,-61 130,-67 130,-67 130,-79 130,-79 130,-85 124,-91 118,-91"/>
<text text-anchor="middle" x="95.5" y="-69.3" font-family="Times,serif" font-size="14.00" fill="#222222">Div(., .)</text>
</g>
<!-- Cast_13&#45;&gt;Div_17 -->
<g id="edge20" class="edge">
<title>Cast_13&#45;&gt;Div_17</title>
<path fill="none" stroke="black" d="M82.5,-458.83C82.5,-444.25 82.5,-422.75 82.5,-404 82.5,-404 82.5,-404 82.5,-132 82.5,-121.69 84.48,-110.6 86.89,-100.9"/>
<polygon fill="black" stroke="black" points="89.61,-91.03 91.29,-101.87 88.28,-95.85 86.96,-100.68 86.96,-100.68 86.96,-100.68 88.28,-95.85 82.62,-99.48 89.61,-91.03 89.61,-91.03"/>
<text text-anchor="middle" x="102.5" y="-281.4" font-family="Times,serif" font-size="7.00">FLOAT16()</text>
</g>
<!-- ReduceSum_15 -->
<g id="node16" class="node">
<title>ReduceSum_15</title>
<path fill="#cccccc" stroke="#888888" d="M233.5,-211C233.5,-211 141.5,-211 141.5,-211 135.5,-211 129.5,-205 129.5,-199 129.5,-199 129.5,-187 129.5,-187 129.5,-181 135.5,-175 141.5,-175 141.5,-175 233.5,-175 233.5,-175 239.5,-175 245.5,-181 245.5,-187 245.5,-187 245.5,-199 245.5,-199 245.5,-205 239.5,-211 233.5,-211"/>
<text text-anchor="middle" x="187.5" y="-189.3" font-family="Times,serif" font-size="14.00" fill="#222222">ReduceSum(.)</text>
</g>
<!-- Cast_14&#45;&gt;ReduceSum_15 -->
<g id="edge17" class="edge">
<title>Cast_14&#45;&gt;ReduceSum_15</title>
<path fill="none" stroke="black" d="M187.5,-234.91C187.5,-230.7 187.5,-226.09 187.5,-221.52"/>
<polygon fill="black" stroke="black" points="187.5,-211.17 192,-221.17 187.5,-216.17 187.5,-221.17 187.5,-221.17 187.5,-221.17 187.5,-216.17 183,-221.17 187.5,-211.17 187.5,-211.17"/>
<text text-anchor="middle" x="205.5" y="-221.4" font-family="Times,serif" font-size="7.00">FLOAT(A)</text>
</g>
<!-- Cast_16 -->
<g id="node17" class="node">
<title>Cast_16</title>
<path fill="#cccccc" stroke="#888888" d="M258,-151C258,-151 117,-151 117,-151 111,-151 105,-145 105,-139 105,-139 105,-127 105,-127 105,-121 111,-115 117,-115 117,-115 258,-115 258,-115 264,-115 270,-121 270,-127 270,-127 270,-139 270,-139 270,-145 264,-151 258,-151"/>
<text text-anchor="middle" x="187.5" y="-129.3" font-family="Times,serif" font-size="14.00" fill="#222222">Cast(., to=FLOAT16)</text>
</g>
<!-- ReduceSum_15&#45;&gt;Cast_16 -->
<g id="edge18" class="edge">
<title>ReduceSum_15&#45;&gt;Cast_16</title>
<path fill="none" stroke="black" d="M187.5,-174.91C187.5,-170.7 187.5,-166.09 187.5,-161.52"/>
<polygon fill="black" stroke="black" points="187.5,-151.17 192,-161.17 187.5,-156.17 187.5,-161.17 187.5,-161.17 187.5,-161.17 187.5,-156.17 183,-161.17 187.5,-151.17 187.5,-151.17"/>
<text text-anchor="middle" x="203" y="-161.4" font-family="Times,serif" font-size="7.00">FLOAT()</text>
</g>
<!-- Cast_16&#45;&gt;Div_17 -->
<g id="edge19" class="edge">
<title>Cast_16&#45;&gt;Div_17</title>
<path fill="none" stroke="black" d="M160.39,-114.91C151.3,-109.18 141.02,-102.7 131.37,-96.61"/>
<polygon fill="black" stroke="black" points="122.73,-91.17 133.59,-92.69 126.96,-93.83 131.19,-96.5 131.19,-96.5 131.19,-96.5 126.96,-93.83 128.79,-100.31 122.73,-91.17 122.73,-91.17"/>
<text text-anchor="middle" x="167.5" y="-101.4" font-family="Times,serif" font-size="7.00">FLOAT16()</text>
</g>
<!-- O_18 -->
<g id="node19" class="node">
<title>O_18</title>
<path fill="#aaaaee" stroke="#888888" d="M130,-38C130,-38 61,-38 61,-38 55,-38 49,-32 49,-26 49,-26 49,-12 49,-12 49,-6 55,0 61,0 61,0 130,0 130,0 136,0 142,-6 142,-12 142,-12 142,-26 142,-26 142,-32 136,-38 130,-38"/>
<text text-anchor="middle" x="95.5" y="-22.8" font-family="Times,serif" font-size="14.00" fill="#222222">Y</text>
<text text-anchor="middle" x="95.5" y="-7.8" font-family="Times,serif" font-size="14.00" fill="#222222">FLOAT16()</text>
</g>
<!-- Div_17&#45;&gt;O_18 -->
<g id="edge21" class="edge">
<title>Div_17&#45;&gt;O_18</title>
<path fill="none" stroke="black" d="M95.5,-54.97C95.5,-52.89 95.5,-50.72 95.5,-48.53"/>
<polygon fill="black" stroke="black" points="95.5,-38.32 100,-48.32 95.5,-43.32 95.5,-48.32 95.5,-48.32 95.5,-48.32 95.5,-43.32 91,-48.32 95.5,-38.32 95.5,-38.32"/>
</g>
</g>
</svg>
