<?xml version="1.0" encoding="UTF-8" standalone="no"?>
<!DOCTYPE svg PUBLIC "-//W3C//DTD SVG 1.1//EN"
 "http://www.w3.org/Graphics/SVG/1.1/DTD/svg11.dtd">
<!-- Generated by graphviz version 2.43.0 (0)
 -->
<!-- Title: %3 Pages: 1 -->
<svg width="176pt" height="161pt"
 viewBox="0.00 0.00 176.00 161.00" xmlns="http://www.w3.org/2000/svg" xmlns:xlink="http://www.w3.org/1999/xlink">
<g id="graph0" class="graph" transform="scale(1 1) rotate(0) translate(4 157)">
<title>%3</title>
<!-- I_0 -->
<g id="node1" class="node">
<title>I_0</title>
<path fill="#aaeeaa" stroke="#888888" d="M154.5,-153C154.5,-153 13.5,-153 13.5,-153 7.5,-153 1.5,-147 1.5,-141 1.5,-141 1.5,-127 1.5,-127 1.5,-121 7.5,-115 13.5,-115 13.5,-115 154.5,-115 154.5,-115 160.5,-115 166.5,-121 166.5,-127 166.5,-127 166.5,-141 166.5,-141 166.5,-147 160.5,-153 154.5,-153"/>
<text text-anchor="middle" x="84" y="-137.8" font-family="Times,serif" font-size="14.00" fill="#222222">_onx_add02</text>
<text text-anchor="middle" x="84" y="-122.8" font-family="Times,serif" font-size="14.00" fill="#222222">FLOAT16(4,512,128)</text>
</g>
<!-- Dropout_1 -->
<g id="node2" class="node">
<title>Dropout_1</title>
<path fill="#cccccc" stroke="#888888" d="M156,-91C156,-91 12,-91 12,-91 6,-91 0,-85 0,-79 0,-79 0,-67 0,-67 0,-61 6,-55 12,-55 12,-55 156,-55 156,-55 162,-55 168,-61 168,-67 168,-67 168,-79 168,-79 168,-85 162,-91 156,-91"/>
<text text-anchor="middle" x="84" y="-69.3" font-family="Times,serif" font-size="14.00" fill="#222222">Dropout(., 0.0, False)</text>
</g>
<!-- I_0&#45;&gt;Dropout_1 -->
<g id="edge1" class="edge">
<title>I_0&#45;&gt;Dropout_1</title>
<path fill="none" stroke="black" d="M84,-114.98C84,-110.71 84,-106.06 84,-101.47"/>
<polygon fill="black" stroke="black" points="84,-91.1 88.5,-101.1 84,-96.1 84,-101.1 84,-101.1 84,-101.1 84,-96.1 79.5,-101.1 84,-91.1 84,-91.1"/>
<text text-anchor="middle" x="122" y="-101.4" font-family="Times,serif" font-size="7.00">FLOAT16(4,512,128)</text>
</g>
<!-- O_2 -->
<g id="node3" class="node">
<title>O_2</title>
<path fill="#aaaaee" stroke="#888888" d="M154.5,-38C154.5,-38 13.5,-38 13.5,-38 7.5,-38 1.5,-32 1.5,-26 1.5,-26 1.5,-12 1.5,-12 1.5,-6 7.5,0 13.5,0 13.5,0 154.5,0 154.5,0 160.5,0 166.5,-6 166.5,-12 166.5,-12 166.5,-26 166.5,-26 166.5,-32 160.5,-38 154.5,-38"/>
<text text-anchor="middle" x="84" y="-22.8" font-family="Times,serif" font-size="14.00" fill="#222222">dropout</text>
<text text-anchor="middle" x="84" y="-7.8" font-family="Times,serif" font-size="14.00" fill="#222222">FLOAT16(4,512,128)</text>
</g>
<!-- Dropout_1&#45;&gt;O_2 -->
<g id="edge2" class="edge">
<title>Dropout_1&#45;&gt;O_2</title>
<path fill="none" stroke="black" d="M84,-54.97C84,-52.89 84,-50.72 84,-48.53"/>
<polygon fill="black" stroke="black" points="84,-38.32 88.5,-48.32 84,-43.32 84,-48.32 84,-48.32 84,-48.32 84,-43.32 79.5,-48.32 84,-38.32 84,-38.32"/>
</g>
</g>
</svg>
