<?xml version="1.0" encoding="UTF-8" standalone="no"?>
<!DOCTYPE svg PUBLIC "-//W3C//DTD SVG 1.1//EN"
 "http://www.w3.org/Graphics/SVG/1.1/DTD/svg11.dtd">
<!-- Generated by graphviz version 2.43.0 (0)
 -->
<!-- Title: %3 Pages: 1 -->
<svg width="1089pt" height="240pt"
 viewBox="0.00 0.00 1089.00 240.00" xmlns="http://www.w3.org/2000/svg" xmlns:xlink="http://www.w3.org/1999/xlink">
<g id="graph0" class="graph" transform="scale(1 1) rotate(0) translate(4 236)">
<title>%3</title>
<!-- I_0 -->
<g id="node1" class="node">
<title>I_0</title>
<path fill="#aaeeaa" stroke="#888888" d="M517,-170C517,-170 308,-170 308,-170 302,-170 296,-164 296,-158 296,-158 296,-144 296,-144 296,-138 302,-132 308,-132 308,-132 517,-132 517,-132 523,-132 529,-138 529,-144 529,-144 529,-158 529,-158 529,-164 523,-170 517,-170"/>
<text text-anchor="middle" x="412.5" y="-154.8" font-family="Times,serif" font-size="14.00" fill="#222222">query</text>
<text text-anchor="middle" x="412.5" y="-139.8" font-family="Times,serif" font-size="14.00" fill="#222222">FLOAT(batch,8,seq_length,32)</text>
</g>
<!-- LocalAttentionGQASW_to1_8 -->
<g id="node9" class="node">
<title>LocalAttentionGQASW_to1_8</title>
<path fill="#cccccc" stroke="#888888" d="M701,-108C701,-108 360,-108 360,-108 354,-108 348,-102 348,-96 348,-96 348,-67 348,-67 348,-61 354,-55 360,-55 360,-55 701,-55 701,-55 707,-55 713,-61 713,-67 713,-67 713,-96 713,-96 713,-102 707,-108 701,-108"/>
<text text-anchor="middle" x="530.5" y="-92.8" font-family="Times,serif" font-size="14.00" fill="#222222">intermediate.</text>
<text text-anchor="middle" x="530.5" y="-77.8" font-family="Times,serif" font-size="14.00" fill="#222222">LocalAttentionGQASW_to1</text>
<text text-anchor="middle" x="530.5" y="-62.8" font-family="Times,serif" font-size="14.00" fill="#222222">(., ., ., ., [0.4204482], [1, 1, 2, 1, 1], [0, 8, &#45;1, 32])</text>
</g>
<!-- I_0&#45;&gt;LocalAttentionGQASW_to1_8 -->
<g id="edge5" class="edge">
<title>I_0&#45;&gt;LocalAttentionGQASW_to1_8</title>
<path fill="none" stroke="black" d="M444.12,-131.91C454.14,-126.18 465.51,-119.67 476.64,-113.31"/>
<polygon fill="black" stroke="black" points="485.48,-108.25 479.04,-117.12 481.14,-110.73 476.8,-113.22 476.8,-113.22 476.8,-113.22 481.14,-110.73 474.57,-109.31 485.48,-108.25 485.48,-108.25"/>
<text text-anchor="middle" x="527" y="-118.4" font-family="Times,serif" font-size="7.00">FLOAT(batch,8,seq_length,32)</text>
</g>
<!-- I_1 -->
<g id="node2" class="node">
<title>I_1</title>
<path fill="#aaeeaa" stroke="#888888" d="M822,-232C822,-232 607,-232 607,-232 601,-232 595,-226 595,-220 595,-220 595,-206 595,-206 595,-200 601,-194 607,-194 607,-194 822,-194 822,-194 828,-194 834,-200 834,-206 834,-206 834,-220 834,-220 834,-226 828,-232 822,-232"/>
<text text-anchor="middle" x="714.5" y="-216.8" font-family="Times,serif" font-size="14.00" fill="#222222">past_value</text>
<text text-anchor="middle" x="714.5" y="-201.8" font-family="Times,serif" font-size="14.00" fill="#222222">FLOAT(batch,4,past_length,32)</text>
</g>
<!-- Concat_7 -->
<g id="node8" class="node">
<title>Concat_7</title>
<path fill="#cccccc" stroke="#888888" d="M949,-169C949,-169 820,-169 820,-169 814,-169 808,-163 808,-157 808,-157 808,-145 808,-145 808,-139 814,-133 820,-133 820,-133 949,-133 949,-133 955,-133 961,-139 961,-145 961,-145 961,-157 961,-157 961,-163 955,-169 949,-169"/>
<text text-anchor="middle" x="884.5" y="-147.3" font-family="Times,serif" font-size="14.00" fill="#222222">Concat(., ., axis=2)</text>
</g>
<!-- I_1&#45;&gt;Concat_7 -->
<g id="edge3" class="edge">
<title>I_1&#45;&gt;Concat_7</title>
<path fill="none" stroke="black" d="M760.52,-193.87C774.28,-188.6 789.45,-182.93 803.5,-178 808.95,-176.09 814.62,-174.15 820.32,-172.25"/>
<polygon fill="black" stroke="black" points="829.9,-169.08 821.82,-176.49 825.15,-170.65 820.41,-172.22 820.41,-172.22 820.41,-172.22 825.15,-170.65 818.99,-167.95 829.9,-169.08 829.9,-169.08"/>
<text text-anchor="middle" x="860.5" y="-180.4" font-family="Times,serif" font-size="7.00">FLOAT(batch,4,past_length,32)</text>
</g>
<!-- I_2 -->
<g id="node3" class="node">
<title>I_2</title>
<path fill="#aaeeaa" stroke="#888888" d="M221,-232C221,-232 12,-232 12,-232 6,-232 0,-226 0,-220 0,-220 0,-206 0,-206 0,-200 6,-194 12,-194 12,-194 221,-194 221,-194 227,-194 233,-200 233,-206 233,-206 233,-220 233,-220 233,-226 227,-232 221,-232"/>
<text text-anchor="middle" x="116.5" y="-216.8" font-family="Times,serif" font-size="14.00" fill="#222222">key</text>
<text text-anchor="middle" x="116.5" y="-201.8" font-family="Times,serif" font-size="14.00" fill="#222222">FLOAT(batch,4,seq_length,32)</text>
</g>
<!-- Concat_6 -->
<g id="node7" class="node">
<title>Concat_6</title>
<path fill="#cccccc" stroke="#888888" d="M262,-169C262,-169 133,-169 133,-169 127,-169 121,-163 121,-157 121,-157 121,-145 121,-145 121,-139 127,-133 133,-133 133,-133 262,-133 262,-133 268,-133 274,-139 274,-145 274,-145 274,-157 274,-157 274,-163 268,-169 262,-169"/>
<text text-anchor="middle" x="197.5" y="-147.3" font-family="Times,serif" font-size="14.00" fill="#222222">Concat(., ., axis=2)</text>
</g>
<!-- I_2&#45;&gt;Concat_6 -->
<g id="edge2" class="edge">
<title>I_2&#45;&gt;Concat_6</title>
<path fill="none" stroke="black" d="M140.8,-194C148.77,-188.1 157.74,-181.45 166.16,-175.22"/>
<polygon fill="black" stroke="black" points="174.33,-169.17 168.97,-178.73 170.31,-172.14 166.29,-175.12 166.29,-175.12 166.29,-175.12 170.31,-172.14 163.61,-171.5 174.33,-169.17 174.33,-169.17"/>
<text text-anchor="middle" x="218" y="-180.4" font-family="Times,serif" font-size="7.00">FLOAT(batch,4,seq_length,32)</text>
</g>
<!-- I_3 -->
<g id="node4" class="node">
<title>I_3</title>
<path fill="#aaeeaa" stroke="#888888" d="M1069,-232C1069,-232 860,-232 860,-232 854,-232 848,-226 848,-220 848,-220 848,-206 848,-206 848,-200 854,-194 860,-194 860,-194 1069,-194 1069,-194 1075,-194 1081,-200 1081,-206 1081,-206 1081,-220 1081,-220 1081,-226 1075,-232 1069,-232"/>
<text text-anchor="middle" x="964.5" y="-216.8" font-family="Times,serif" font-size="14.00" fill="#222222">value</text>
<text text-anchor="middle" x="964.5" y="-201.8" font-family="Times,serif" font-size="14.00" fill="#222222">FLOAT(batch,4,seq_length,32)</text>
</g>
<!-- I_3&#45;&gt;Concat_7 -->
<g id="edge4" class="edge">
<title>I_3&#45;&gt;Concat_7</title>
<path fill="none" stroke="black" d="M940.5,-194C932.63,-188.1 923.77,-181.45 915.46,-175.22"/>
<polygon fill="black" stroke="black" points="907.39,-169.17 918.09,-171.57 911.39,-172.17 915.39,-175.17 915.39,-175.17 915.39,-175.17 911.39,-172.17 912.69,-178.77 907.39,-169.17 907.39,-169.17"/>
<text text-anchor="middle" x="985" y="-180.4" font-family="Times,serif" font-size="7.00">FLOAT(batch,4,seq_length,32)</text>
</g>
<!-- I_4 -->
<g id="node5" class="node">
<title>I_4</title>
<path fill="#aaeeaa" stroke="#888888" d="M474,-232C474,-232 259,-232 259,-232 253,-232 247,-226 247,-220 247,-220 247,-206 247,-206 247,-200 253,-194 259,-194 259,-194 474,-194 474,-194 480,-194 486,-200 486,-206 486,-206 486,-220 486,-220 486,-226 480,-232 474,-232"/>
<text text-anchor="middle" x="366.5" y="-216.8" font-family="Times,serif" font-size="14.00" fill="#222222">past_key</text>
<text text-anchor="middle" x="366.5" y="-201.8" font-family="Times,serif" font-size="14.00" fill="#222222">FLOAT(batch,4,past_length,32)</text>
</g>
<!-- I_4&#45;&gt;Concat_6 -->
<g id="edge1" class="edge">
<title>I_4&#45;&gt;Concat_6</title>
<path fill="none" stroke="black" d="M319.93,-193.97C306.01,-188.7 290.67,-183.01 276.5,-178 271.09,-176.09 265.46,-174.15 259.81,-172.23"/>
<polygon fill="black" stroke="black" points="250.3,-169.03 261.21,-167.95 255.04,-170.62 259.78,-172.22 259.78,-172.22 259.78,-172.22 255.04,-170.62 258.34,-176.48 250.3,-169.03 250.3,-169.03"/>
<text text-anchor="middle" x="353.5" y="-180.4" font-family="Times,serif" font-size="7.00">FLOAT(batch,4,past_length,32)</text>
</g>
<!-- I_5 -->
<g id="node6" class="node">
<title>I_5</title>
<path fill="#aaeeaa" stroke="#888888" d="M767.5,-170C767.5,-170 555.5,-170 555.5,-170 549.5,-170 543.5,-164 543.5,-158 543.5,-158 543.5,-144 543.5,-144 543.5,-138 549.5,-132 555.5,-132 555.5,-132 767.5,-132 767.5,-132 773.5,-132 779.5,-138 779.5,-144 779.5,-144 779.5,-158 779.5,-158 779.5,-164 773.5,-170 767.5,-170"/>
<text text-anchor="middle" x="661.5" y="-154.8" font-family="Times,serif" font-size="14.00" fill="#222222">bitwise_not</text>
<text text-anchor="middle" x="661.5" y="-139.8" font-family="Times,serif" font-size="14.00" fill="#222222">BOOL(seq_length,total_length)</text>
</g>
<!-- I_5&#45;&gt;LocalAttentionGQASW_to1_8 -->
<g id="edge8" class="edge">
<title>I_5&#45;&gt;LocalAttentionGQASW_to1_8</title>
<path fill="none" stroke="black" d="M626.39,-131.91C615.05,-126.07 602.14,-119.42 589.56,-112.93"/>
<polygon fill="black" stroke="black" points="580.48,-108.25 591.43,-108.83 584.92,-110.54 589.37,-112.83 589.37,-112.83 589.37,-112.83 584.92,-110.54 587.31,-116.83 580.48,-108.25 580.48,-108.25"/>
<text text-anchor="middle" x="666" y="-118.4" font-family="Times,serif" font-size="7.00">BOOL(seq_length,total_length)</text>
</g>
<!-- Concat_6&#45;&gt;LocalAttentionGQASW_to1_8 -->
<g id="edge6" class="edge">
<title>Concat_6&#45;&gt;LocalAttentionGQASW_to1_8</title>
<path fill="none" stroke="black" d="M274.32,-134.43C310.06,-127.18 353.66,-118.35 394.68,-110.03"/>
<polygon fill="black" stroke="black" points="404.5,-108.04 395.59,-114.44 399.6,-109.03 394.7,-110.03 394.7,-110.03 394.7,-110.03 399.6,-109.03 393.8,-105.62 404.5,-108.04 404.5,-108.04"/>
</g>
<!-- O_11 -->
<g id="node12" class="node">
<title>O_11</title>
<path fill="#aaaaee" stroke="#888888" d="M321.5,-100.5C321.5,-100.5 17.5,-100.5 17.5,-100.5 11.5,-100.5 5.5,-94.5 5.5,-88.5 5.5,-88.5 5.5,-74.5 5.5,-74.5 5.5,-68.5 11.5,-62.5 17.5,-62.5 17.5,-62.5 321.5,-62.5 321.5,-62.5 327.5,-62.5 333.5,-68.5 333.5,-74.5 333.5,-74.5 333.5,-88.5 333.5,-88.5 333.5,-94.5 327.5,-100.5 321.5,-100.5"/>
<text text-anchor="middle" x="169.5" y="-85.3" font-family="Times,serif" font-size="14.00" fill="#222222">cat</text>
<text text-anchor="middle" x="169.5" y="-70.3" font-family="Times,serif" font-size="14.00" fill="#222222">FLOAT(batch,4,past_length+seq_length,32)</text>
</g>
<!-- Concat_6&#45;&gt;O_11 -->
<g id="edge11" class="edge">
<title>Concat_6&#45;&gt;O_11</title>
<path fill="none" stroke="black" d="M190.43,-132.97C187.56,-126.05 184.17,-117.87 180.97,-110.14"/>
<polygon fill="black" stroke="black" points="177.05,-100.71 185.04,-108.22 178.97,-105.33 180.89,-109.95 180.89,-109.95 180.89,-109.95 178.97,-105.33 176.73,-111.67 177.05,-100.71 177.05,-100.71"/>
</g>
<!-- Concat_7&#45;&gt;LocalAttentionGQASW_to1_8 -->
<g id="edge7" class="edge">
<title>Concat_7&#45;&gt;LocalAttentionGQASW_to1_8</title>
<path fill="none" stroke="black" d="M808.69,-133C782.68,-127.35 753.36,-121.18 726.5,-116 715.75,-113.93 704.66,-111.85 693.47,-109.81"/>
<polygon fill="black" stroke="black" points="683.62,-108.02 694.26,-105.38 688.54,-108.92 693.46,-109.81 693.46,-109.81 693.46,-109.81 688.54,-108.92 692.66,-114.24 683.62,-108.02 683.62,-108.02"/>
</g>
<!-- O_10 -->
<g id="node11" class="node">
<title>O_10</title>
<path fill="#aaaaee" stroke="#888888" d="M1043.5,-100.5C1043.5,-100.5 739.5,-100.5 739.5,-100.5 733.5,-100.5 727.5,-94.5 727.5,-88.5 727.5,-88.5 727.5,-74.5 727.5,-74.5 727.5,-68.5 733.5,-62.5 739.5,-62.5 739.5,-62.5 1043.5,-62.5 1043.5,-62.5 1049.5,-62.5 1055.5,-68.5 1055.5,-74.5 1055.5,-74.5 1055.5,-88.5 1055.5,-88.5 1055.5,-94.5 1049.5,-100.5 1043.5,-100.5"/>
<text text-anchor="middle" x="891.5" y="-85.3" font-family="Times,serif" font-size="14.00" fill="#222222">cat_1</text>
<text text-anchor="middle" x="891.5" y="-70.3" font-family="Times,serif" font-size="14.00" fill="#222222">FLOAT(batch,4,past_length+seq_length,32)</text>
</g>
<!-- Concat_7&#45;&gt;O_10 -->
<g id="edge10" class="edge">
<title>Concat_7&#45;&gt;O_10</title>
<path fill="none" stroke="black" d="M886.27,-132.97C886.96,-126.28 887.78,-118.42 888.55,-110.91"/>
<polygon fill="black" stroke="black" points="889.61,-100.71 893.06,-111.12 889.1,-105.68 888.58,-110.66 888.58,-110.66 888.58,-110.66 889.1,-105.68 884.1,-110.19 889.61,-100.71 889.61,-100.71"/>
</g>
<!-- O_9 -->
<g id="node10" class="node">
<title>O_9</title>
<path fill="#aaaaee" stroke="#888888" d="M635,-38C635,-38 426,-38 426,-38 420,-38 414,-32 414,-26 414,-26 414,-12 414,-12 414,-6 420,0 426,0 426,0 635,0 635,0 641,0 647,-6 647,-12 647,-12 647,-26 647,-26 647,-32 641,-38 635,-38"/>
<text text-anchor="middle" x="530.5" y="-22.8" font-family="Times,serif" font-size="14.00" fill="#222222">output_0</text>
<text text-anchor="middle" x="530.5" y="-7.8" font-family="Times,serif" font-size="14.00" fill="#222222">FLOAT(batch,8,seq_length,32)</text>
</g>
<!-- LocalAttentionGQASW_to1_8&#45;&gt;O_9 -->
<g id="edge9" class="edge">
<title>LocalAttentionGQASW_to1_8&#45;&gt;O_9</title>
<path fill="none" stroke="black" d="M530.5,-54.84C530.5,-52.77 530.5,-50.66 530.5,-48.56"/>
<polygon fill="black" stroke="black" points="530.5,-38.36 535,-48.36 530.5,-43.36 530.5,-48.36 530.5,-48.36 530.5,-48.36 530.5,-43.36 526,-48.36 530.5,-38.36 530.5,-38.36"/>
</g>
</g>
</svg>
