<?xml version="1.0" encoding="UTF-8" standalone="no"?>
<!DOCTYPE svg PUBLIC "-//W3C//DTD SVG 1.1//EN"
 "http://www.w3.org/Graphics/SVG/1.1/DTD/svg11.dtd">
<!-- Generated by graphviz version 2.43.0 (0)
 -->
<!-- Title: %3 Pages: 1 -->
<svg width="371pt" height="221pt"
 viewBox="0.00 0.00 370.50 221.00" xmlns="http://www.w3.org/2000/svg" xmlns:xlink="http://www.w3.org/1999/xlink">
<g id="graph0" class="graph" transform="scale(1 1) rotate(0) translate(4 217)">
<title>%3</title>
<!-- I_0 -->
<g id="node1" class="node">
<title>I_0</title>
<path fill="#aaeeaa" stroke="#888888" d="M113,-213C113,-213 12,-213 12,-213 6,-213 0,-207 0,-201 0,-201 0,-187 0,-187 0,-181 6,-175 12,-175 12,-175 113,-175 113,-175 119,-175 125,-181 125,-187 125,-187 125,-201 125,-201 125,-207 119,-213 113,-213"/>
<text text-anchor="middle" x="62.5" y="-197.8" font-family="Times,serif" font-size="14.00" fill="#222222">W</text>
<text text-anchor="middle" x="62.5" y="-182.8" font-family="Times,serif" font-size="14.00" fill="#222222">FLOAT(8,8,3,3)</text>
</g>
<!-- Conv_3 -->
<g id="node4" class="node">
<title>Conv_3</title>
<path fill="#cccccc" stroke="#888888" d="M237,-151C237,-151 166,-151 166,-151 160,-151 154,-145 154,-139 154,-139 154,-127 154,-127 154,-121 160,-115 166,-115 166,-115 237,-115 237,-115 243,-115 249,-121 249,-127 249,-127 249,-139 249,-139 249,-145 243,-151 237,-151"/>
<text text-anchor="middle" x="201.5" y="-129.3" font-family="Times,serif" font-size="14.00" fill="#222222">Conv(., ., .)</text>
</g>
<!-- I_0&#45;&gt;Conv_3 -->
<g id="edge2" class="edge">
<title>I_0&#45;&gt;Conv_3</title>
<path fill="none" stroke="black" d="M104.96,-174.98C119.77,-168.69 136.52,-161.58 151.86,-155.07"/>
<polygon fill="black" stroke="black" points="161.2,-151.1 153.76,-159.15 156.6,-153.06 152,-155.01 152,-155.01 152,-155.01 156.6,-153.06 150.24,-150.87 161.2,-151.1 161.2,-151.1"/>
<text text-anchor="middle" x="168" y="-161.4" font-family="Times,serif" font-size="7.00">FLOAT(8,8,3,3)</text>
</g>
<!-- I_1 -->
<g id="node2" class="node">
<title>I_1</title>
<path fill="#aaeeaa" stroke="#888888" d="M252,-213C252,-213 151,-213 151,-213 145,-213 139,-207 139,-201 139,-201 139,-187 139,-187 139,-181 145,-175 151,-175 151,-175 252,-175 252,-175 258,-175 264,-181 264,-187 264,-187 264,-201 264,-201 264,-207 258,-213 252,-213"/>
<text text-anchor="middle" x="201.5" y="-197.8" font-family="Times,serif" font-size="14.00" fill="#222222">X</text>
<text text-anchor="middle" x="201.5" y="-182.8" font-family="Times,serif" font-size="14.00" fill="#222222">FLOAT(1,8,6,6)</text>
</g>
<!-- I_1&#45;&gt;Conv_3 -->
<g id="edge1" class="edge">
<title>I_1&#45;&gt;Conv_3</title>
<path fill="none" stroke="black" d="M201.5,-174.98C201.5,-170.71 201.5,-166.06 201.5,-161.47"/>
<polygon fill="black" stroke="black" points="201.5,-151.1 206,-161.1 201.5,-156.1 201.5,-161.1 201.5,-161.1 201.5,-161.1 201.5,-156.1 197,-161.1 201.5,-151.1 201.5,-151.1"/>
<text text-anchor="middle" x="229" y="-161.4" font-family="Times,serif" font-size="7.00">FLOAT(1,8,6,6)</text>
</g>
<!-- I_2 -->
<g id="node3" class="node">
<title>I_2</title>
<path fill="#aaeeaa" stroke="#888888" d="M350.5,-213C350.5,-213 290.5,-213 290.5,-213 284.5,-213 278.5,-207 278.5,-201 278.5,-201 278.5,-187 278.5,-187 278.5,-181 284.5,-175 290.5,-175 290.5,-175 350.5,-175 350.5,-175 356.5,-175 362.5,-181 362.5,-187 362.5,-187 362.5,-201 362.5,-201 362.5,-207 356.5,-213 350.5,-213"/>
<text text-anchor="middle" x="320.5" y="-197.8" font-family="Times,serif" font-size="14.00" fill="#222222">B</text>
<text text-anchor="middle" x="320.5" y="-182.8" font-family="Times,serif" font-size="14.00" fill="#222222">FLOAT(8)</text>
</g>
<!-- I_2&#45;&gt;Conv_3 -->
<g id="edge3" class="edge">
<title>I_2&#45;&gt;Conv_3</title>
<path fill="none" stroke="black" d="M289.48,-174.91C279.97,-169.58 269.4,-163.88 259.5,-159 257.05,-157.79 254.52,-156.58 251.97,-155.38"/>
<polygon fill="black" stroke="black" points="242.61,-151.11 253.58,-151.17 247.16,-153.19 251.71,-155.27 251.71,-155.27 251.71,-155.27 247.16,-153.19 249.84,-159.36 242.61,-151.11 242.61,-151.11"/>
<text text-anchor="middle" x="292" y="-161.4" font-family="Times,serif" font-size="7.00">FLOAT(8)</text>
</g>
<!-- Relu_4 -->
<g id="node5" class="node">
<title>Relu_4</title>
<path fill="#cccccc" stroke="#888888" d="M221.5,-91C221.5,-91 181.5,-91 181.5,-91 175.5,-91 169.5,-85 169.5,-79 169.5,-79 169.5,-67 169.5,-67 169.5,-61 175.5,-55 181.5,-55 181.5,-55 221.5,-55 221.5,-55 227.5,-55 233.5,-61 233.5,-67 233.5,-67 233.5,-79 233.5,-79 233.5,-85 227.5,-91 221.5,-91"/>
<text text-anchor="middle" x="201.5" y="-69.3" font-family="Times,serif" font-size="14.00" fill="#222222">Relu(.)</text>
</g>
<!-- Conv_3&#45;&gt;Relu_4 -->
<g id="edge4" class="edge">
<title>Conv_3&#45;&gt;Relu_4</title>
<path fill="none" stroke="black" d="M201.5,-114.91C201.5,-110.7 201.5,-106.09 201.5,-101.52"/>
<polygon fill="black" stroke="black" points="201.5,-91.17 206,-101.17 201.5,-96.17 201.5,-101.17 201.5,-101.17 201.5,-101.17 201.5,-96.17 197,-101.17 201.5,-91.17 201.5,-91.17"/>
<text text-anchor="middle" x="229" y="-101.4" font-family="Times,serif" font-size="7.00">FLOAT(1,8,6,6)</text>
</g>
<!-- O_5 -->
<g id="node6" class="node">
<title>O_5</title>
<path fill="#aaaaee" stroke="#888888" d="M252,-38C252,-38 151,-38 151,-38 145,-38 139,-32 139,-26 139,-26 139,-12 139,-12 139,-6 145,0 151,0 151,0 252,0 252,0 258,0 264,-6 264,-12 264,-12 264,-26 264,-26 264,-32 258,-38 252,-38"/>
<text text-anchor="middle" x="201.5" y="-22.8" font-family="Times,serif" font-size="14.00" fill="#222222">Y</text>
<text text-anchor="middle" x="201.5" y="-7.8" font-family="Times,serif" font-size="14.00" fill="#222222">FLOAT(1,8,6,6)</text>
</g>
<!-- Relu_4&#45;&gt;O_5 -->
<g id="edge5" class="edge">
<title>Relu_4&#45;&gt;O_5</title>
<path fill="none" stroke="black" d="M201.5,-54.97C201.5,-52.89 201.5,-50.72 201.5,-48.53"/>
<polygon fill="black" stroke="black" points="201.5,-38.32 206,-48.32 201.5,-43.32 201.5,-48.32 201.5,-48.32 201.5,-48.32 201.5,-43.32 197,-48.32 201.5,-38.32 201.5,-38.32"/>
</g>
</g>
</svg>
