<?xml version="1.0" encoding="UTF-8" standalone="no"?>
<!DOCTYPE svg PUBLIC "-//W3C//DTD SVG 1.1//EN"
 "http://www.w3.org/Graphics/SVG/1.1/DTD/svg11.dtd">
<!-- Generated by graphviz version 2.43.0 (0)
 -->
<!-- Title: %3 Pages: 1 -->
<svg width="320pt" height="161pt"
 viewBox="0.00 0.00 319.50 161.00" xmlns="http://www.w3.org/2000/svg" xmlns:xlink="http://www.w3.org/1999/xlink">
<g id="graph0" class="graph" transform="scale(1 1) rotate(0) translate(4 157)">
<title>%3</title>
<!-- I_0 -->
<g id="node1" class="node">
<title>I_0</title>
<path fill="#aaeeaa" stroke="#888888" d="M142,-153C142,-153 12,-153 12,-153 6,-153 0,-147 0,-141 0,-141 0,-127 0,-127 0,-121 6,-115 12,-115 12,-115 142,-115 142,-115 148,-115 154,-121 154,-127 154,-127 154,-141 154,-141 154,-147 148,-153 142,-153"/>
<text text-anchor="middle" x="77" y="-137.8" font-family="Times,serif" font-size="14.00" fill="#222222">init7_s4_32_2_10_8</text>
<text text-anchor="middle" x="77" y="-122.8" font-family="Times,serif" font-size="14.00" fill="#222222">INT64(4)</text>
</g>
<!-- Identity_2 -->
<g id="node3" class="node">
<title>Identity_2</title>
<path fill="#cccccc" stroke="#888888" d="M196.5,-91C196.5,-91 119.5,-91 119.5,-91 113.5,-91 107.5,-85 107.5,-79 107.5,-79 107.5,-67 107.5,-67 107.5,-61 113.5,-55 119.5,-55 119.5,-55 196.5,-55 196.5,-55 202.5,-55 208.5,-61 208.5,-67 208.5,-67 208.5,-79 208.5,-79 208.5,-85 202.5,-91 196.5,-91"/>
<text text-anchor="middle" x="158" y="-69.3" font-family="Times,serif" font-size="14.00" fill="#222222">Identity(., .)</text>
</g>
<!-- I_0&#45;&gt;Identity_2 -->
<g id="edge2" class="edge">
<title>I_0&#45;&gt;Identity_2</title>
<path fill="none" stroke="black" d="M101.74,-114.98C109.48,-109.34 118.12,-103.05 126.27,-97.11"/>
<polygon fill="black" stroke="black" points="134.52,-91.1 129.08,-100.63 130.48,-94.05 126.43,-96.99 126.43,-96.99 126.43,-96.99 130.48,-94.05 123.78,-93.36 134.52,-91.1 134.52,-91.1"/>
<text text-anchor="middle" x="140" y="-101.4" font-family="Times,serif" font-size="7.00">INT64(4)</text>
</g>
<!-- I_1 -->
<g id="node2" class="node">
<title>I_1</title>
<path fill="#aaeeaa" stroke="#888888" d="M299.5,-153C299.5,-153 180.5,-153 180.5,-153 174.5,-153 168.5,-147 168.5,-141 168.5,-141 168.5,-127 168.5,-127 168.5,-121 174.5,-115 180.5,-115 180.5,-115 299.5,-115 299.5,-115 305.5,-115 311.5,-121 311.5,-127 311.5,-127 311.5,-141 311.5,-141 311.5,-147 305.5,-153 299.5,-153"/>
<text text-anchor="middle" x="240" y="-137.8" font-family="Times,serif" font-size="14.00" fill="#222222">mul</text>
<text text-anchor="middle" x="240" y="-122.8" font-family="Times,serif" font-size="14.00" fill="#222222">FLOAT(32,2,10,8)</text>
</g>
<!-- I_1&#45;&gt;Identity_2 -->
<g id="edge1" class="edge">
<title>I_1&#45;&gt;Identity_2</title>
<path fill="none" stroke="black" d="M214.95,-114.98C207.12,-109.34 198.37,-103.05 190.12,-97.11"/>
<polygon fill="black" stroke="black" points="181.77,-91.1 192.52,-93.29 185.83,-94.03 189.89,-96.95 189.89,-96.95 189.89,-96.95 185.83,-94.03 187.26,-100.6 181.77,-91.1 181.77,-91.1"/>
<text text-anchor="middle" x="233" y="-101.4" font-family="Times,serif" font-size="7.00">FLOAT(32,2,10,8)</text>
</g>
<!-- O_3 -->
<g id="node4" class="node">
<title>O_3</title>
<path fill="#aaaaee" stroke="#888888" d="M217.5,-38C217.5,-38 98.5,-38 98.5,-38 92.5,-38 86.5,-32 86.5,-26 86.5,-26 86.5,-12 86.5,-12 86.5,-6 92.5,0 98.5,0 98.5,0 217.5,0 217.5,0 223.5,0 229.5,-6 229.5,-12 229.5,-12 229.5,-26 229.5,-26 229.5,-32 223.5,-38 217.5,-38"/>
<text text-anchor="middle" x="158" y="-22.8" font-family="Times,serif" font-size="14.00" fill="#222222">expand</text>
<text text-anchor="middle" x="158" y="-7.8" font-family="Times,serif" font-size="14.00" fill="#222222">FLOAT(32,2,10,8)</text>
</g>
<!-- Identity_2&#45;&gt;O_3 -->
<g id="edge3" class="edge">
<title>Identity_2&#45;&gt;O_3</title>
<path fill="none" stroke="black" d="M158,-54.97C158,-52.89 158,-50.72 158,-48.53"/>
<polygon fill="black" stroke="black" points="158,-38.32 162.5,-48.32 158,-43.32 158,-48.32 158,-48.32 158,-48.32 158,-43.32 153.5,-48.32 158,-38.32 158,-38.32"/>
</g>
</g>
</svg>
