<?xml version="1.0" encoding="UTF-8" standalone="no"?>
<!DOCTYPE svg PUBLIC "-//W3C//DTD SVG 1.1//EN"
 "http://www.w3.org/Graphics/SVG/1.1/DTD/svg11.dtd">
<!-- Generated by graphviz version 2.43.0 (0)
 -->
<!-- Title: %3 Pages: 1 -->
<svg width="419pt" height="403pt"
 viewBox="0.00 0.00 419.00 403.00" xmlns="http://www.w3.org/2000/svg" xmlns:xlink="http://www.w3.org/1999/xlink">
<g id="graph0" class="graph" transform="scale(1 1) rotate(0) translate(4 399)">
<title>%3</title>
<!-- I_0 -->
<g id="node1" class="node">
<title>I_0</title>
<path fill="#aaeeaa" stroke="#888888" d="M85,-395C85,-395 13,-395 13,-395 7,-395 1,-389 1,-383 1,-383 1,-369 1,-369 1,-363 7,-357 13,-357 13,-357 85,-357 85,-357 91,-357 97,-363 97,-369 97,-369 97,-383 97,-383 97,-389 91,-395 85,-395"/>
<text text-anchor="middle" x="49" y="-379.8" font-family="Times,serif" font-size="14.00" fill="#222222">m2</text>
<text text-anchor="middle" x="49" y="-364.8" font-family="Times,serif" font-size="14.00" fill="#222222">FLOAT(c,d)</text>
</g>
<!-- Mul_7 -->
<g id="node8" class="node">
<title>Mul_7</title>
<path fill="#cccccc" stroke="#888888" d="M73.5,-333C73.5,-333 24.5,-333 24.5,-333 18.5,-333 12.5,-327 12.5,-321 12.5,-321 12.5,-309 12.5,-309 12.5,-303 18.5,-297 24.5,-297 24.5,-297 73.5,-297 73.5,-297 79.5,-297 85.5,-303 85.5,-309 85.5,-309 85.5,-321 85.5,-321 85.5,-327 79.5,-333 73.5,-333"/>
<text text-anchor="middle" x="49" y="-311.3" font-family="Times,serif" font-size="14.00" fill="#222222">Mul(., .)</text>
</g>
<!-- I_0&#45;&gt;Mul_7 -->
<g id="edge8" class="edge">
<title>I_0&#45;&gt;Mul_7</title>
<path fill="none" stroke="black" d="M49,-356.98C49,-352.71 49,-348.06 49,-343.47"/>
<polygon fill="black" stroke="black" points="49,-333.1 53.5,-343.1 49,-338.1 49,-343.1 49,-343.1 49,-343.1 49,-338.1 44.5,-343.1 49,-333.1 49,-333.1"/>
<text text-anchor="middle" x="69.5" y="-343.4" font-family="Times,serif" font-size="7.00">FLOAT(c,d)</text>
</g>
<!-- I_1 -->
<g id="node2" class="node">
<title>I_1</title>
<path fill="#aaeeaa" stroke="#888888" d="M228,-395C228,-395 130,-395 130,-395 124,-395 118,-389 118,-383 118,-383 118,-369 118,-369 118,-363 124,-357 130,-357 130,-357 228,-357 228,-357 234,-357 240,-363 240,-369 240,-369 240,-383 240,-383 240,-389 234,-395 228,-395"/>
<text text-anchor="middle" x="179" y="-379.8" font-family="Times,serif" font-size="14.00" fill="#222222">X</text>
<text text-anchor="middle" x="179" y="-364.8" font-family="Times,serif" font-size="14.00" fill="#222222">FLOAT(a,b,c,d)</text>
</g>
<!-- Split_3 -->
<g id="node4" class="node">
<title>Split_3</title>
<path fill="#cccccc" stroke="#888888" d="M237,-333C237,-333 133,-333 133,-333 127,-333 121,-327 121,-321 121,-321 121,-309 121,-309 121,-303 127,-297 133,-297 133,-297 237,-297 237,-297 243,-297 249,-303 249,-309 249,-309 249,-321 249,-321 249,-327 243,-333 237,-333"/>
<text text-anchor="middle" x="185" y="-311.3" font-family="Times,serif" font-size="14.00" fill="#222222">Split(., axis=&#45;1)</text>
</g>
<!-- I_1&#45;&gt;Split_3 -->
<g id="edge1" class="edge">
<title>I_1&#45;&gt;Split_3</title>
<path fill="none" stroke="black" d="M180.83,-356.98C181.28,-352.59 181.77,-347.8 182.24,-343.09"/>
<polygon fill="black" stroke="black" points="183.26,-333.1 186.73,-343.51 182.75,-338.08 182.25,-343.05 182.25,-343.05 182.25,-343.05 182.75,-338.08 177.77,-342.6 183.26,-333.1 183.26,-333.1"/>
<text text-anchor="middle" x="209.5" y="-343.4" font-family="Times,serif" font-size="7.00">FLOAT(a,b,c,d)</text>
</g>
<!-- I_1&#45;&gt;Mul_7 -->
<g id="edge7" class="edge">
<title>I_1&#45;&gt;Mul_7</title>
<path fill="none" stroke="black" d="M139.29,-356.98C125.32,-350.64 109.51,-343.46 95.07,-336.91"/>
<polygon fill="black" stroke="black" points="85.81,-332.7 96.77,-332.74 90.36,-334.77 94.91,-336.84 94.91,-336.84 94.91,-336.84 90.36,-334.77 93.05,-340.94 85.81,-332.7 85.81,-332.7"/>
<text text-anchor="middle" x="144.5" y="-343.4" font-family="Times,serif" font-size="7.00">FLOAT(a,b,c,d)</text>
</g>
<!-- I_2 -->
<g id="node3" class="node">
<title>I_2</title>
<path fill="#aaeeaa" stroke="#888888" d="M201,-213C201,-213 129,-213 129,-213 123,-213 117,-207 117,-201 117,-201 117,-187 117,-187 117,-181 123,-175 129,-175 129,-175 201,-175 201,-175 207,-175 213,-181 213,-187 213,-187 213,-201 213,-201 213,-207 207,-213 201,-213"/>
<text text-anchor="middle" x="165" y="-197.8" font-family="Times,serif" font-size="14.00" fill="#222222">m1</text>
<text text-anchor="middle" x="165" y="-182.8" font-family="Times,serif" font-size="14.00" fill="#222222">FLOAT(c,d)</text>
</g>
<!-- Mul_6 -->
<g id="node7" class="node">
<title>Mul_6</title>
<path fill="#cccccc" stroke="#888888" d="M189.5,-151C189.5,-151 140.5,-151 140.5,-151 134.5,-151 128.5,-145 128.5,-139 128.5,-139 128.5,-127 128.5,-127 128.5,-121 134.5,-115 140.5,-115 140.5,-115 189.5,-115 189.5,-115 195.5,-115 201.5,-121 201.5,-127 201.5,-127 201.5,-139 201.5,-139 201.5,-145 195.5,-151 189.5,-151"/>
<text text-anchor="middle" x="165" y="-129.3" font-family="Times,serif" font-size="14.00" fill="#222222">Mul(., .)</text>
</g>
<!-- I_2&#45;&gt;Mul_6 -->
<g id="edge6" class="edge">
<title>I_2&#45;&gt;Mul_6</title>
<path fill="none" stroke="black" d="M165,-174.98C165,-170.71 165,-166.06 165,-161.47"/>
<polygon fill="black" stroke="black" points="165,-151.1 169.5,-161.1 165,-156.1 165,-161.1 165,-161.1 165,-161.1 165,-156.1 160.5,-161.1 165,-151.1 165,-151.1"/>
<text text-anchor="middle" x="185.5" y="-161.4" font-family="Times,serif" font-size="7.00">FLOAT(c,d)</text>
</g>
<!-- Neg_4 -->
<g id="node5" class="node">
<title>Neg_4</title>
<path fill="#cccccc" stroke="#888888" d="M203.5,-273C203.5,-273 166.5,-273 166.5,-273 160.5,-273 154.5,-267 154.5,-261 154.5,-261 154.5,-249 154.5,-249 154.5,-243 160.5,-237 166.5,-237 166.5,-237 203.5,-237 203.5,-237 209.5,-237 215.5,-243 215.5,-249 215.5,-249 215.5,-261 215.5,-261 215.5,-267 209.5,-273 203.5,-273"/>
<text text-anchor="middle" x="185" y="-251.3" font-family="Times,serif" font-size="14.00" fill="#222222">Neg(.)</text>
</g>
<!-- Split_3&#45;&gt;Neg_4 -->
<g id="edge2" class="edge">
<title>Split_3&#45;&gt;Neg_4</title>
<path fill="none" stroke="black" d="M185,-296.91C185,-292.7 185,-288.09 185,-283.52"/>
<polygon fill="black" stroke="black" points="185,-273.17 189.5,-283.17 185,-278.17 185,-283.17 185,-283.17 185,-283.17 185,-278.17 180.5,-283.17 185,-273.17 185,-273.17"/>
<text text-anchor="middle" x="239" y="-283.4" font-family="Times,serif" font-size="7.00">FLOAT(a,b,c,d&#45;CeilToInt(d,2))</text>
</g>
<!-- Concat_5 -->
<g id="node6" class="node">
<title>Concat_5</title>
<path fill="#cccccc" stroke="#888888" d="M373,-212C373,-212 239,-212 239,-212 233,-212 227,-206 227,-200 227,-200 227,-188 227,-188 227,-182 233,-176 239,-176 239,-176 373,-176 373,-176 379,-176 385,-182 385,-188 385,-188 385,-200 385,-200 385,-206 379,-212 373,-212"/>
<text text-anchor="middle" x="306" y="-190.3" font-family="Times,serif" font-size="14.00" fill="#222222">Concat(., ., axis=&#45;1)</text>
</g>
<!-- Split_3&#45;&gt;Concat_5 -->
<g id="edge4" class="edge">
<title>Split_3&#45;&gt;Concat_5</title>
<path fill="none" stroke="black" d="M249.25,-305.59C269.06,-301.69 287.42,-296.27 294,-289 310.09,-271.25 311.75,-243.28 310.2,-222.46"/>
<polygon fill="black" stroke="black" points="309.16,-212.31 314.66,-221.8 309.67,-217.29 310.18,-222.26 310.18,-222.26 310.18,-222.26 309.67,-217.29 305.71,-222.72 309.16,-212.31 309.16,-212.31"/>
<text text-anchor="middle" x="360.5" y="-253.4" font-family="Times,serif" font-size="7.00">FLOAT(a,b,c,CeilToInt(d,2))</text>
</g>
<!-- Neg_4&#45;&gt;Concat_5 -->
<g id="edge3" class="edge">
<title>Neg_4&#45;&gt;Concat_5</title>
<path fill="none" stroke="black" d="M182.16,-236.69C182.19,-231.11 183.34,-225.27 187,-221 187.36,-220.58 200.02,-217.7 216.97,-213.99"/>
<polygon fill="black" stroke="black" points="226.78,-211.85 217.96,-218.38 221.89,-212.92 217,-213.98 217,-213.98 217,-213.98 221.89,-212.92 216.05,-209.58 226.78,-211.85 226.78,-211.85"/>
<text text-anchor="middle" x="241" y="-223.4" font-family="Times,serif" font-size="7.00">FLOAT(a,b,c,d&#45;CeilToInt(d,2))</text>
</g>
<!-- Concat_5&#45;&gt;Mul_6 -->
<g id="edge5" class="edge">
<title>Concat_5&#45;&gt;Mul_6</title>
<path fill="none" stroke="black" d="M265.22,-175.93C248.34,-168.87 228.67,-160.64 211.25,-153.35"/>
<polygon fill="black" stroke="black" points="201.84,-149.42 212.8,-149.12 206.45,-151.35 211.07,-153.28 211.07,-153.28 211.07,-153.28 206.45,-151.35 209.33,-157.43 201.84,-149.42 201.84,-149.42"/>
<text text-anchor="middle" x="266.5" y="-161.4" font-family="Times,serif" font-size="7.00">FLOAT(a,b,c,d)</text>
</g>
<!-- Add_8 -->
<g id="node9" class="node">
<title>Add_8</title>
<path fill="#cccccc" stroke="#888888" d="M85.5,-91C85.5,-91 36.5,-91 36.5,-91 30.5,-91 24.5,-85 24.5,-79 24.5,-79 24.5,-67 24.5,-67 24.5,-61 30.5,-55 36.5,-55 36.5,-55 85.5,-55 85.5,-55 91.5,-55 97.5,-61 97.5,-67 97.5,-67 97.5,-79 97.5,-79 97.5,-85 91.5,-91 85.5,-91"/>
<text text-anchor="middle" x="61" y="-69.3" font-family="Times,serif" font-size="14.00" fill="#222222">Add(., .)</text>
</g>
<!-- Mul_6&#45;&gt;Add_8 -->
<g id="edge9" class="edge">
<title>Mul_6&#45;&gt;Add_8</title>
<path fill="none" stroke="black" d="M134.36,-114.91C123.77,-109.01 111.75,-102.3 100.55,-96.05"/>
<polygon fill="black" stroke="black" points="91.78,-91.17 102.71,-92.11 96.15,-93.6 100.51,-96.04 100.51,-96.04 100.51,-96.04 96.15,-93.6 98.32,-99.97 91.78,-91.17 91.78,-91.17"/>
<text text-anchor="middle" x="146.5" y="-101.4" font-family="Times,serif" font-size="7.00">FLOAT(a,b,c,d)</text>
</g>
<!-- Mul_7&#45;&gt;Add_8 -->
<g id="edge10" class="edge">
<title>Mul_7&#45;&gt;Add_8</title>
<path fill="none" stroke="black" d="M48.55,-297C48.29,-285.44 48,-269.8 48,-256 48,-256 48,-256 48,-132 48,-121.69 49.98,-110.6 52.39,-100.9"/>
<polygon fill="black" stroke="black" points="55.11,-91.03 56.79,-101.87 53.78,-95.85 52.46,-100.68 52.46,-100.68 52.46,-100.68 53.78,-95.85 48.12,-99.48 55.11,-91.03 55.11,-91.03"/>
<text text-anchor="middle" x="75.5" y="-192.4" font-family="Times,serif" font-size="7.00">FLOAT(a,b,c,d)</text>
</g>
<!-- O_9 -->
<g id="node10" class="node">
<title>O_9</title>
<path fill="#aaaaee" stroke="#888888" d="M110,-38C110,-38 12,-38 12,-38 6,-38 0,-32 0,-26 0,-26 0,-12 0,-12 0,-6 6,0 12,0 12,0 110,0 110,0 116,0 122,-6 122,-12 122,-12 122,-26 122,-26 122,-32 116,-38 110,-38"/>
<text text-anchor="middle" x="61" y="-22.8" font-family="Times,serif" font-size="14.00" fill="#222222">Y</text>
<text text-anchor="middle" x="61" y="-7.8" font-family="Times,serif" font-size="14.00" fill="#222222">FLOAT(a,b,c,d)</text>
</g>
<!-- Add_8&#45;&gt;O_9 -->
<g id="edge11" class="edge">
<title>Add_8&#45;&gt;O_9</title>
<path fill="none" stroke="black" d="M61,-54.97C61,-52.89 61,-50.72 61,-48.53"/>
<polygon fill="black" stroke="black" points="61,-38.32 65.5,-48.32 61,-43.32 61,-48.32 61,-48.32 61,-48.32 61,-43.32 56.5,-48.32 61,-38.32 61,-38.32"/>
</g>
</g>
</svg>
