<?xml version="1.0" encoding="UTF-8" standalone="no"?>
<!DOCTYPE svg PUBLIC "-//W3C//DTD SVG 1.1//EN"
 "http://www.w3.org/Graphics/SVG/1.1/DTD/svg11.dtd">
<!-- Generated by graphviz version 2.43.0 (0)
 -->
<!-- Title: %3 Pages: 1 -->
<svg width="155pt" height="221pt"
 viewBox="0.00 0.00 155.00 221.00" xmlns="http://www.w3.org/2000/svg" xmlns:xlink="http://www.w3.org/1999/xlink">
<g id="graph0" class="graph" transform="scale(1 1) rotate(0) translate(4 217)">
<title>%3</title>
<!-- I_0 -->
<g id="node1" class="node">
<title>I_0</title>
<path fill="#aaeeaa" stroke="#888888" d="M118.5,-213C118.5,-213 28.5,-213 28.5,-213 22.5,-213 16.5,-207 16.5,-201 16.5,-201 16.5,-187 16.5,-187 16.5,-181 22.5,-175 28.5,-175 28.5,-175 118.5,-175 118.5,-175 124.5,-175 130.5,-181 130.5,-187 130.5,-187 130.5,-201 130.5,-201 130.5,-207 124.5,-213 118.5,-213"/>
<text text-anchor="middle" x="73.5" y="-197.8" font-family="Times,serif" font-size="14.00" fill="#222222">x1</text>
<text text-anchor="middle" x="73.5" y="-182.8" font-family="Times,serif" font-size="14.00" fill="#222222">FLOAT16(b,c)</text>
</g>
<!-- Cast_1 -->
<g id="node2" class="node">
<title>Cast_1</title>
<path fill="#cccccc" stroke="#888888" d="M135,-151C135,-151 12,-151 12,-151 6,-151 0,-145 0,-139 0,-139 0,-127 0,-127 0,-121 6,-115 12,-115 12,-115 135,-115 135,-115 141,-115 147,-121 147,-127 147,-127 147,-139 147,-139 147,-145 141,-151 135,-151"/>
<text text-anchor="middle" x="73.5" y="-129.3" font-family="Times,serif" font-size="14.00" fill="#222222">Cast(., to=FLOAT)</text>
</g>
<!-- I_0&#45;&gt;Cast_1 -->
<g id="edge1" class="edge">
<title>I_0&#45;&gt;Cast_1</title>
<path fill="none" stroke="black" d="M73.5,-174.98C73.5,-170.71 73.5,-166.06 73.5,-161.47"/>
<polygon fill="black" stroke="black" points="73.5,-151.1 78,-161.1 73.5,-156.1 73.5,-161.1 73.5,-161.1 73.5,-161.1 73.5,-156.1 69,-161.1 73.5,-151.1 73.5,-151.1"/>
<text text-anchor="middle" x="98.5" y="-161.4" font-family="Times,serif" font-size="7.00">FLOAT16(b,c)</text>
</g>
<!-- Cast_2 -->
<g id="node3" class="node">
<title>Cast_2</title>
<path fill="#cccccc" stroke="#888888" d="M135,-91C135,-91 12,-91 12,-91 6,-91 0,-85 0,-79 0,-79 0,-67 0,-67 0,-61 6,-55 12,-55 12,-55 135,-55 135,-55 141,-55 147,-61 147,-67 147,-67 147,-79 147,-79 147,-85 141,-91 135,-91"/>
<text text-anchor="middle" x="73.5" y="-69.3" font-family="Times,serif" font-size="14.00" fill="#222222">Cast(., to=FLOAT)</text>
</g>
<!-- Cast_1&#45;&gt;Cast_2 -->
<g id="edge2" class="edge">
<title>Cast_1&#45;&gt;Cast_2</title>
<path fill="none" stroke="black" d="M73.5,-114.91C73.5,-110.7 73.5,-106.09 73.5,-101.52"/>
<polygon fill="black" stroke="black" points="73.5,-91.17 78,-101.17 73.5,-96.17 73.5,-101.17 73.5,-101.17 73.5,-101.17 73.5,-96.17 69,-101.17 73.5,-91.17 73.5,-91.17"/>
<text text-anchor="middle" x="94" y="-101.4" font-family="Times,serif" font-size="7.00">FLOAT(b,c)</text>
</g>
<!-- O_3 -->
<g id="node4" class="node">
<title>O_3</title>
<path fill="#aaaaee" stroke="#888888" d="M109.5,-38C109.5,-38 37.5,-38 37.5,-38 31.5,-38 25.5,-32 25.5,-26 25.5,-26 25.5,-12 25.5,-12 25.5,-6 31.5,0 37.5,0 37.5,0 109.5,0 109.5,0 115.5,0 121.5,-6 121.5,-12 121.5,-12 121.5,-26 121.5,-26 121.5,-32 115.5,-38 109.5,-38"/>
<text text-anchor="middle" x="73.5" y="-22.8" font-family="Times,serif" font-size="14.00" fill="#222222">Y</text>
<text text-anchor="middle" x="73.5" y="-7.8" font-family="Times,serif" font-size="14.00" fill="#222222">FLOAT(b,c)</text>
</g>
<!-- Cast_2&#45;&gt;O_3 -->
<g id="edge3" class="edge">
<title>Cast_2&#45;&gt;O_3</title>
<path fill="none" stroke="black" d="M73.5,-54.97C73.5,-52.89 73.5,-50.72 73.5,-48.53"/>
<polygon fill="black" stroke="black" points="73.5,-38.32 78,-48.32 73.5,-43.32 73.5,-48.32 73.5,-48.32 73.5,-48.32 73.5,-43.32 69,-48.32 73.5,-38.32 73.5,-38.32"/>
</g>
</g>
</svg>
