<?xml version="1.0" encoding="UTF-8" standalone="no"?>
<!DOCTYPE svg PUBLIC "-//W3C//DTD SVG 1.1//EN"
 "http://www.w3.org/Graphics/SVG/1.1/DTD/svg11.dtd">
<!-- Generated by graphviz version 2.43.0 (0)
 -->
<!-- Title: %3 Pages: 1 -->
<svg width="786pt" height="178pt"
 viewBox="0.00 0.00 785.50 178.00" xmlns="http://www.w3.org/2000/svg" xmlns:xlink="http://www.w3.org/1999/xlink">
<g id="graph0" class="graph" transform="scale(1 1) rotate(0) translate(4 174)">
<title>%3</title>
<!-- I_0 -->
<g id="node1" class="node">
<title>I_0</title>
<path fill="#aaeeaa" stroke="#888888" d="M137,-170C137,-170 12,-170 12,-170 6,-170 0,-164 0,-158 0,-158 0,-144 0,-144 0,-138 6,-132 12,-132 12,-132 137,-132 137,-132 143,-132 149,-138 149,-144 149,-144 149,-158 149,-158 149,-164 143,-170 137,-170"/>
<text text-anchor="middle" x="74.5" y="-154.8" font-family="Times,serif" font-size="14.00" fill="#222222">values</text>
<text text-anchor="middle" x="74.5" y="-139.8" font-family="Times,serif" font-size="14.00" fill="#222222">FLOAT(av,bv,cv,dv)</text>
</g>
<!-- LocalAttention_to1_5 -->
<g id="node6" class="node">
<title>LocalAttention_to1_5</title>
<path fill="#cccccc" stroke="#888888" d="M440,-108C440,-108 313,-108 313,-108 307,-108 301,-102 301,-96 301,-96 301,-67 301,-67 301,-61 307,-55 313,-55 313,-55 440,-55 440,-55 446,-55 452,-61 452,-67 452,-67 452,-96 452,-96 452,-102 446,-108 440,-108"/>
<text text-anchor="middle" x="376.5" y="-92.8" font-family="Times,serif" font-size="14.00" fill="#222222">intermediate.</text>
<text text-anchor="middle" x="376.5" y="-77.8" font-family="Times,serif" font-size="14.00" fill="#222222">LocalAttention_to1</text>
<text text-anchor="middle" x="376.5" y="-62.8" font-family="Times,serif" font-size="14.00" fill="#222222">(., ., ., ., .)</text>
</g>
<!-- I_0&#45;&gt;LocalAttention_to1_5 -->
<g id="edge3" class="edge">
<title>I_0&#45;&gt;LocalAttention_to1_5</title>
<path fill="none" stroke="black" d="M147.58,-131.92C169.4,-126.64 193.39,-120.97 215.5,-116 239.86,-110.53 266.37,-104.89 290.71,-99.83"/>
<polygon fill="black" stroke="black" points="300.63,-97.77 291.75,-104.21 295.74,-98.79 290.84,-99.8 290.84,-99.8 290.84,-99.8 295.74,-98.79 289.93,-95.4 300.63,-97.77 300.63,-97.77"/>
<text text-anchor="middle" x="249" y="-118.4" font-family="Times,serif" font-size="7.00">FLOAT(av,bv,cv,dv)</text>
</g>
<!-- I_1 -->
<g id="node2" class="node">
<title>I_1</title>
<path fill="#aaeeaa" stroke="#888888" d="M306,-170C306,-170 175,-170 175,-170 169,-170 163,-164 163,-158 163,-158 163,-144 163,-144 163,-138 169,-132 175,-132 175,-132 306,-132 306,-132 312,-132 318,-138 318,-144 318,-144 318,-158 318,-158 318,-164 312,-170 306,-170"/>
<text text-anchor="middle" x="240.5" y="-154.8" font-family="Times,serif" font-size="14.00" fill="#222222">keys</text>
<text text-anchor="middle" x="240.5" y="-139.8" font-family="Times,serif" font-size="14.00" fill="#222222">FLOAT(ak,bk,ck,dk)</text>
</g>
<!-- I_1&#45;&gt;LocalAttention_to1_5 -->
<g id="edge2" class="edge">
<title>I_1&#45;&gt;LocalAttention_to1_5</title>
<path fill="none" stroke="black" d="M271.01,-131.93C280.37,-126.6 290.76,-120.89 300.5,-116 302.89,-114.8 305.34,-113.59 307.82,-112.39"/>
<polygon fill="black" stroke="black" points="316.9,-108.08 309.8,-116.44 312.39,-110.23 307.87,-112.37 307.87,-112.37 307.87,-112.37 312.39,-110.23 305.94,-108.31 316.9,-108.08 316.9,-108.08"/>
<text text-anchor="middle" x="337" y="-118.4" font-family="Times,serif" font-size="7.00">FLOAT(ak,bk,ck,dk)</text>
</g>
<!-- I_2 -->
<g id="node3" class="node">
<title>I_2</title>
<path fill="#aaeeaa" stroke="#888888" d="M409,-170C409,-170 344,-170 344,-170 338,-170 332,-164 332,-158 332,-158 332,-144 332,-144 332,-138 338,-132 344,-132 344,-132 409,-132 409,-132 415,-132 421,-138 421,-144 421,-144 421,-158 421,-158 421,-164 415,-170 409,-170"/>
<text text-anchor="middle" x="376.5" y="-154.8" font-family="Times,serif" font-size="14.00" fill="#222222">scale_sqrt</text>
<text text-anchor="middle" x="376.5" y="-139.8" font-family="Times,serif" font-size="14.00" fill="#222222">FLOAT(1)</text>
</g>
<!-- I_2&#45;&gt;LocalAttention_to1_5 -->
<g id="edge5" class="edge">
<title>I_2&#45;&gt;LocalAttention_to1_5</title>
<path fill="none" stroke="black" d="M376.5,-131.91C376.5,-127.71 376.5,-123.1 376.5,-118.43"/>
<polygon fill="black" stroke="black" points="376.5,-108.25 381,-118.25 376.5,-113.25 376.5,-118.25 376.5,-118.25 376.5,-118.25 376.5,-113.25 372,-118.25 376.5,-108.25 376.5,-108.25"/>
<text text-anchor="middle" x="394" y="-118.4" font-family="Times,serif" font-size="7.00">FLOAT(1)</text>
</g>
<!-- I_3 -->
<g id="node4" class="node">
<title>I_3</title>
<path fill="#aaeeaa" stroke="#888888" d="M593.5,-170C593.5,-170 447.5,-170 447.5,-170 441.5,-170 435.5,-164 435.5,-158 435.5,-158 435.5,-144 435.5,-144 435.5,-138 441.5,-132 447.5,-132 447.5,-132 593.5,-132 593.5,-132 599.5,-132 605.5,-138 605.5,-144 605.5,-144 605.5,-158 605.5,-158 605.5,-164 599.5,-170 593.5,-170"/>
<text text-anchor="middle" x="520.5" y="-154.8" font-family="Times,serif" font-size="14.00" fill="#222222">mask</text>
<text text-anchor="middle" x="520.5" y="-139.8" font-family="Times,serif" font-size="14.00" fill="#222222">BOOL(am,bm,cm,dm)</text>
</g>
<!-- I_3&#45;&gt;LocalAttention_to1_5 -->
<g id="edge4" class="edge">
<title>I_3&#45;&gt;LocalAttention_to1_5</title>
<path fill="none" stroke="black" d="M481.91,-131.91C469.13,-125.92 454.55,-119.08 440.39,-112.45"/>
<polygon fill="black" stroke="black" points="431.17,-108.12 442.13,-108.29 435.69,-110.25 440.22,-112.37 440.22,-112.37 440.22,-112.37 435.69,-110.25 438.31,-116.44 431.17,-108.12 431.17,-108.12"/>
<text text-anchor="middle" x="500" y="-118.4" font-family="Times,serif" font-size="7.00">BOOL(am,bm,cm,dm)</text>
</g>
<!-- I_4 -->
<g id="node5" class="node">
<title>I_4</title>
<path fill="#aaeeaa" stroke="#888888" d="M765.5,-170C765.5,-170 631.5,-170 631.5,-170 625.5,-170 619.5,-164 619.5,-158 619.5,-158 619.5,-144 619.5,-144 619.5,-138 625.5,-132 631.5,-132 631.5,-132 765.5,-132 765.5,-132 771.5,-132 777.5,-138 777.5,-144 777.5,-144 777.5,-158 777.5,-158 777.5,-164 771.5,-170 765.5,-170"/>
<text text-anchor="middle" x="698.5" y="-154.8" font-family="Times,serif" font-size="14.00" fill="#222222">query</text>
<text text-anchor="middle" x="698.5" y="-139.8" font-family="Times,serif" font-size="14.00" fill="#222222">FLOAT(aq,bq,cq,dq)</text>
</g>
<!-- I_4&#45;&gt;LocalAttention_to1_5 -->
<g id="edge1" class="edge">
<title>I_4&#45;&gt;LocalAttention_to1_5</title>
<path fill="none" stroke="black" d="M619.19,-132.47C594.62,-127.1 567.46,-121.24 542.5,-116 516.46,-110.54 488.09,-104.75 462.29,-99.55"/>
<polygon fill="black" stroke="black" points="452.16,-97.51 462.85,-95.07 457.07,-98.5 461.97,-99.49 461.97,-99.49 461.97,-99.49 457.07,-98.5 461.08,-103.9 452.16,-97.51 452.16,-97.51"/>
<text text-anchor="middle" x="613" y="-118.4" font-family="Times,serif" font-size="7.00">FLOAT(aq,bq,cq,dq)</text>
</g>
<!-- O_6 -->
<g id="node7" class="node">
<title>O_6</title>
<path fill="#aaaaee" stroke="#888888" d="M439,-38C439,-38 314,-38 314,-38 308,-38 302,-32 302,-26 302,-26 302,-12 302,-12 302,-6 308,0 314,0 314,0 439,0 439,0 445,0 451,-6 451,-12 451,-12 451,-26 451,-26 451,-32 445,-38 439,-38"/>
<text text-anchor="middle" x="376.5" y="-22.8" font-family="Times,serif" font-size="14.00" fill="#222222">Y</text>
<text text-anchor="middle" x="376.5" y="-7.8" font-family="Times,serif" font-size="14.00" fill="#222222">FLOAT(ay,by,cy,dy)</text>
</g>
<!-- LocalAttention_to1_5&#45;&gt;O_6 -->
<g id="edge6" class="edge">
<title>LocalAttention_to1_5&#45;&gt;O_6</title>
<path fill="none" stroke="black" d="M376.5,-54.84C376.5,-52.77 376.5,-50.66 376.5,-48.56"/>
<polygon fill="black" stroke="black" points="376.5,-38.36 381,-48.36 376.5,-43.36 376.5,-48.36 376.5,-48.36 376.5,-48.36 376.5,-43.36 372,-48.36 376.5,-38.36 376.5,-38.36"/>
</g>
</g>
</svg>
