<?xml version="1.0" encoding="UTF-8" standalone="no"?>
<!DOCTYPE svg PUBLIC "-//W3C//DTD SVG 1.1//EN"
 "http://www.w3.org/Graphics/SVG/1.1/DTD/svg11.dtd">
<!-- Generated by graphviz version 2.43.0 (0)
 -->
<!-- Title: %3 Pages: 1 -->
<svg width="462pt" height="405pt"
 viewBox="0.00 0.00 461.50 405.00" xmlns="http://www.w3.org/2000/svg" xmlns:xlink="http://www.w3.org/1999/xlink">
<g id="graph0" class="graph" transform="scale(1 1) rotate(0) translate(4 401)">
<title>%3</title>
<!-- I_0 -->
<g id="node1" class="node">
<title>I_0</title>
<path fill="#aaeeaa" stroke="#888888" d="M115.5,-335C115.5,-335 59.5,-335 59.5,-335 53.5,-335 47.5,-329 47.5,-323 47.5,-323 47.5,-309 47.5,-309 47.5,-303 53.5,-297 59.5,-297 59.5,-297 115.5,-297 115.5,-297 121.5,-297 127.5,-303 127.5,-309 127.5,-309 127.5,-323 127.5,-323 127.5,-329 121.5,-335 115.5,-335"/>
<text text-anchor="middle" x="87.5" y="-319.8" font-family="Times,serif" font-size="14.00" fill="#222222">d1</text>
<text text-anchor="middle" x="87.5" y="-304.8" font-family="Times,serif" font-size="14.00" fill="#222222">INT64(1)</text>
</g>
<!-- Squeeze_3 -->
<g id="node4" class="node">
<title>Squeeze_3</title>
<path fill="#eeeeee" stroke="#888888" d="M121.5,-273C121.5,-273 53.5,-273 53.5,-273 47.5,-273 41.5,-267 41.5,-261 41.5,-261 41.5,-249 41.5,-249 41.5,-243 47.5,-237 53.5,-237 53.5,-237 121.5,-237 121.5,-237 127.5,-237 133.5,-243 133.5,-249 133.5,-249 133.5,-261 133.5,-261 133.5,-267 127.5,-273 121.5,-273"/>
<text text-anchor="middle" x="87.5" y="-251.3" font-family="Times,serif" font-size="14.00" fill="#222222">Squeeze(.)</text>
</g>
<!-- I_0&#45;&gt;Squeeze_3 -->
<g id="edge1" class="edge">
<title>I_0&#45;&gt;Squeeze_3</title>
<path fill="none" stroke="black" d="M87.5,-296.98C87.5,-292.71 87.5,-288.06 87.5,-283.47"/>
<polygon fill="black" stroke="black" points="87.5,-273.1 92,-283.1 87.5,-278.1 87.5,-283.1 87.5,-283.1 87.5,-283.1 87.5,-278.1 83,-283.1 87.5,-273.1 87.5,-273.1"/>
<text text-anchor="middle" x="104.5" y="-283.4" font-family="Times,serif" font-size="7.00">INT64(1)</text>
</g>
<!-- I_1 -->
<g id="node2" class="node">
<title>I_1</title>
<path fill="#aaeeaa" stroke="#888888" d="M242.5,-213C242.5,-213 186.5,-213 186.5,-213 180.5,-213 174.5,-207 174.5,-201 174.5,-201 174.5,-187 174.5,-187 174.5,-181 180.5,-175 186.5,-175 186.5,-175 242.5,-175 242.5,-175 248.5,-175 254.5,-181 254.5,-187 254.5,-187 254.5,-201 254.5,-201 254.5,-207 248.5,-213 242.5,-213"/>
<text text-anchor="middle" x="214.5" y="-197.8" font-family="Times,serif" font-size="14.00" fill="#222222">N</text>
<text text-anchor="middle" x="214.5" y="-182.8" font-family="Times,serif" font-size="14.00" fill="#222222">INT64(1)</text>
</g>
<!-- Mul_9 -->
<g id="node10" class="node">
<title>Mul_9</title>
<path fill="#cccccc" stroke="#888888" d="M250,-151C250,-151 201,-151 201,-151 195,-151 189,-145 189,-139 189,-139 189,-127 189,-127 189,-121 195,-115 201,-115 201,-115 250,-115 250,-115 256,-115 262,-121 262,-127 262,-127 262,-139 262,-139 262,-145 256,-151 250,-151"/>
<text text-anchor="middle" x="225.5" y="-129.3" font-family="Times,serif" font-size="14.00" fill="#222222">Mul(., .)</text>
</g>
<!-- I_1&#45;&gt;Mul_9 -->
<g id="edge8" class="edge">
<title>I_1&#45;&gt;Mul_9</title>
<path fill="none" stroke="black" d="M217.86,-174.98C218.68,-170.59 219.57,-165.8 220.45,-161.09"/>
<polygon fill="black" stroke="black" points="222.31,-151.1 224.9,-161.76 221.39,-156.02 220.48,-160.94 220.48,-160.94 220.48,-160.94 221.39,-156.02 216.05,-160.11 222.31,-151.1 222.31,-151.1"/>
<text text-anchor="middle" x="238.5" y="-161.4" font-family="Times,serif" font-size="7.00">INT64(1)</text>
</g>
<!-- I_2 -->
<g id="node3" class="node">
<title>I_2</title>
<path fill="#aaeeaa" stroke="#888888" d="M384.5,-397C384.5,-397 328.5,-397 328.5,-397 322.5,-397 316.5,-391 316.5,-385 316.5,-385 316.5,-371 316.5,-371 316.5,-365 322.5,-359 328.5,-359 328.5,-359 384.5,-359 384.5,-359 390.5,-359 396.5,-365 396.5,-371 396.5,-371 396.5,-385 396.5,-385 396.5,-391 390.5,-397 384.5,-397"/>
<text text-anchor="middle" x="356.5" y="-381.8" font-family="Times,serif" font-size="14.00" fill="#222222">d2</text>
<text text-anchor="middle" x="356.5" y="-366.8" font-family="Times,serif" font-size="14.00" fill="#222222">INT64(1)</text>
</g>
<!-- Squeeze_4 -->
<g id="node5" class="node">
<title>Squeeze_4</title>
<path fill="#eeeeee" stroke="#888888" d="M390.5,-334C390.5,-334 322.5,-334 322.5,-334 316.5,-334 310.5,-328 310.5,-322 310.5,-322 310.5,-310 310.5,-310 310.5,-304 316.5,-298 322.5,-298 322.5,-298 390.5,-298 390.5,-298 396.5,-298 402.5,-304 402.5,-310 402.5,-310 402.5,-322 402.5,-322 402.5,-328 396.5,-334 390.5,-334"/>
<text text-anchor="middle" x="356.5" y="-312.3" font-family="Times,serif" font-size="14.00" fill="#222222">Squeeze(.)</text>
</g>
<!-- I_2&#45;&gt;Squeeze_4 -->
<g id="edge2" class="edge">
<title>I_2&#45;&gt;Squeeze_4</title>
<path fill="none" stroke="black" d="M356.5,-359C356.5,-354.45 356.5,-349.46 356.5,-344.55"/>
<polygon fill="black" stroke="black" points="356.5,-334.17 361,-344.17 356.5,-339.17 356.5,-344.17 356.5,-344.17 356.5,-344.17 356.5,-339.17 352,-344.17 356.5,-334.17 356.5,-334.17"/>
<text text-anchor="middle" x="373.5" y="-345.4" font-family="Times,serif" font-size="7.00">INT64(1)</text>
</g>
<!-- Range_5 -->
<g id="node6" class="node">
<title>Range_5</title>
<path fill="#cccccc" stroke="#888888" d="M132,-212C132,-212 43,-212 43,-212 37,-212 31,-206 31,-200 31,-200 31,-188 31,-188 31,-182 37,-176 43,-176 43,-176 132,-176 132,-176 138,-176 144,-182 144,-188 144,-188 144,-200 144,-200 144,-206 138,-212 132,-212"/>
<text text-anchor="middle" x="87.5" y="-190.3" font-family="Times,serif" font-size="14.00" fill="#222222">Range(0, ., 1)</text>
</g>
<!-- Squeeze_3&#45;&gt;Range_5 -->
<g id="edge3" class="edge">
<title>Squeeze_3&#45;&gt;Range_5</title>
<path fill="none" stroke="black" d="M87.5,-236.93C87.5,-232.45 87.5,-227.49 87.5,-222.61"/>
<polygon fill="black" stroke="black" points="87.5,-212.23 92,-222.23 87.5,-217.23 87.5,-222.23 87.5,-222.23 87.5,-222.23 87.5,-217.23 83,-222.23 87.5,-212.23 87.5,-212.23"/>
<text text-anchor="middle" x="102" y="-223.4" font-family="Times,serif" font-size="7.00">INT64()</text>
</g>
<!-- Range_6 -->
<g id="node7" class="node">
<title>Range_6</title>
<path fill="#cccccc" stroke="#888888" d="M401,-273C401,-273 312,-273 312,-273 306,-273 300,-267 300,-261 300,-261 300,-249 300,-249 300,-243 306,-237 312,-237 312,-237 401,-237 401,-237 407,-237 413,-243 413,-249 413,-249 413,-261 413,-261 413,-267 407,-273 401,-273"/>
<text text-anchor="middle" x="356.5" y="-251.3" font-family="Times,serif" font-size="14.00" fill="#222222">Range(0, ., 1)</text>
</g>
<!-- Squeeze_4&#45;&gt;Range_6 -->
<g id="edge4" class="edge">
<title>Squeeze_4&#45;&gt;Range_6</title>
<path fill="none" stroke="black" d="M356.5,-297.93C356.5,-293.45 356.5,-288.49 356.5,-283.61"/>
<polygon fill="black" stroke="black" points="356.5,-273.23 361,-283.23 356.5,-278.23 356.5,-283.23 356.5,-283.23 356.5,-283.23 356.5,-278.23 352,-283.23 356.5,-273.23 356.5,-273.23"/>
<text text-anchor="middle" x="371" y="-283.4" font-family="Times,serif" font-size="7.00">INT64()</text>
</g>
<!-- Unsqueeze_7 -->
<g id="node8" class="node">
<title>Unsqueeze_7</title>
<path fill="#eeeeee" stroke="#888888" d="M163,-151C163,-151 12,-151 12,-151 6,-151 0,-145 0,-139 0,-139 0,-127 0,-127 0,-121 6,-115 12,-115 12,-115 163,-115 163,-115 169,-115 175,-121 175,-127 175,-127 175,-139 175,-139 175,-145 169,-151 163,-151"/>
<text text-anchor="middle" x="87.5" y="-129.3" font-family="Times,serif" font-size="14.00" fill="#222222">Unsqueeze(., [0, 1, 2])</text>
</g>
<!-- Range_5&#45;&gt;Unsqueeze_7 -->
<g id="edge5" class="edge">
<title>Range_5&#45;&gt;Unsqueeze_7</title>
<path fill="none" stroke="black" d="M87.5,-175.93C87.5,-171.45 87.5,-166.49 87.5,-161.61"/>
<polygon fill="black" stroke="black" points="87.5,-151.23 92,-161.23 87.5,-156.23 87.5,-161.23 87.5,-161.23 87.5,-161.23 87.5,-156.23 83,-161.23 87.5,-151.23 87.5,-151.23"/>
<text text-anchor="middle" x="136" y="-161.4" font-family="Times,serif" font-size="7.00">INT64(NEWDIM_range_0)</text>
</g>
<!-- Unsqueeze_8 -->
<g id="node9" class="node">
<title>Unsqueeze_8</title>
<path fill="#eeeeee" stroke="#888888" d="M432,-212C432,-212 281,-212 281,-212 275,-212 269,-206 269,-200 269,-200 269,-188 269,-188 269,-182 275,-176 281,-176 281,-176 432,-176 432,-176 438,-176 444,-182 444,-188 444,-188 444,-200 444,-200 444,-206 438,-212 432,-212"/>
<text text-anchor="middle" x="356.5" y="-190.3" font-family="Times,serif" font-size="14.00" fill="#222222">Unsqueeze(., [1, 2, 3])</text>
</g>
<!-- Range_6&#45;&gt;Unsqueeze_8 -->
<g id="edge6" class="edge">
<title>Range_6&#45;&gt;Unsqueeze_8</title>
<path fill="none" stroke="black" d="M356.5,-236.93C356.5,-232.45 356.5,-227.49 356.5,-222.61"/>
<polygon fill="black" stroke="black" points="356.5,-212.23 361,-222.23 356.5,-217.23 356.5,-222.23 356.5,-222.23 356.5,-222.23 356.5,-217.23 352,-222.23 356.5,-212.23 356.5,-212.23"/>
<text text-anchor="middle" x="405" y="-223.4" font-family="Times,serif" font-size="7.00">INT64(NEWDIM_range_1)</text>
</g>
<!-- Add_10 -->
<g id="node11" class="node">
<title>Add_10</title>
<path fill="#cccccc" stroke="#888888" d="M181,-91C181,-91 132,-91 132,-91 126,-91 120,-85 120,-79 120,-79 120,-67 120,-67 120,-61 126,-55 132,-55 132,-55 181,-55 181,-55 187,-55 193,-61 193,-67 193,-67 193,-79 193,-79 193,-85 187,-91 181,-91"/>
<text text-anchor="middle" x="156.5" y="-69.3" font-family="Times,serif" font-size="14.00" fill="#222222">Add(., .)</text>
</g>
<!-- Unsqueeze_7&#45;&gt;Add_10 -->
<g id="edge9" class="edge">
<title>Unsqueeze_7&#45;&gt;Add_10</title>
<path fill="none" stroke="black" d="M85.62,-114.94C85.85,-109.38 87.09,-103.49 90.5,-99 95.56,-92.34 102.61,-87.46 110.23,-83.87"/>
<polygon fill="black" stroke="black" points="119.72,-80.11 112.08,-87.98 115.07,-81.96 110.42,-83.8 110.42,-83.8 110.42,-83.8 115.07,-81.96 108.77,-79.61 119.72,-80.11 119.72,-80.11"/>
<text text-anchor="middle" x="149" y="-101.4" font-family="Times,serif" font-size="7.00">INT64(1,1,1,NEWDIM_range_0)</text>
</g>
<!-- Unsqueeze_8&#45;&gt;Mul_9 -->
<g id="edge7" class="edge">
<title>Unsqueeze_8&#45;&gt;Mul_9</title>
<path fill="none" stroke="black" d="M318.61,-175.93C303.97,-169.34 287.07,-161.73 271.72,-154.82"/>
<polygon fill="black" stroke="black" points="262.4,-150.62 273.37,-150.62 266.96,-152.67 271.52,-154.73 271.52,-154.73 271.52,-154.73 266.96,-152.67 269.67,-158.83 262.4,-150.62 262.4,-150.62"/>
<text text-anchor="middle" x="354" y="-161.4" font-family="Times,serif" font-size="7.00">INT64(NEWDIM_range_1,1,1,1)</text>
</g>
<!-- Mul_9&#45;&gt;Add_10 -->
<g id="edge10" class="edge">
<title>Mul_9&#45;&gt;Add_10</title>
<path fill="none" stroke="black" d="M218.11,-114.88C215.1,-109.32 211.21,-103.44 206.5,-99 205.02,-97.6 203.44,-96.26 201.8,-94.99"/>
<polygon fill="black" stroke="black" points="193.13,-89.11 203.93,-91 197.27,-91.91 201.4,-94.72 201.4,-94.72 201.4,-94.72 197.27,-91.91 198.88,-98.45 193.13,-89.11 193.13,-89.11"/>
<text text-anchor="middle" x="272" y="-101.4" font-family="Times,serif" font-size="7.00">INT64(NEWDIM_range_1,1,1,1)</text>
</g>
<!-- O_11 -->
<g id="node12" class="node">
<title>O_11</title>
<path fill="#aaaaee" stroke="#888888" d="M204,-38C204,-38 109,-38 109,-38 103,-38 97,-32 97,-26 97,-26 97,-12 97,-12 97,-6 103,0 109,0 109,0 204,0 204,0 210,0 216,-6 216,-12 216,-12 216,-26 216,-26 216,-32 210,-38 204,-38"/>
<text text-anchor="middle" x="156.5" y="-22.8" font-family="Times,serif" font-size="14.00" fill="#222222">yyc</text>
<text text-anchor="middle" x="156.5" y="-7.8" font-family="Times,serif" font-size="14.00" fill="#222222">INT64(c,1,1,b)</text>
</g>
<!-- Add_10&#45;&gt;O_11 -->
<g id="edge11" class="edge">
<title>Add_10&#45;&gt;O_11</title>
<path fill="none" stroke="black" d="M156.5,-54.97C156.5,-52.89 156.5,-50.72 156.5,-48.53"/>
<polygon fill="black" stroke="black" points="156.5,-38.32 161,-48.32 156.5,-43.32 156.5,-48.32 156.5,-48.32 156.5,-48.32 156.5,-43.32 152,-48.32 156.5,-38.32 156.5,-38.32"/>
</g>
</g>
</svg>
