<?xml version="1.0" encoding="UTF-8" standalone="no"?>
<!DOCTYPE svg PUBLIC "-//W3C//DTD SVG 1.1//EN"
 "http://www.w3.org/Graphics/SVG/1.1/DTD/svg11.dtd">
<!-- Generated by graphviz version 2.43.0 (0)
 -->
<!-- Title: %3 Pages: 1 -->
<svg width="302pt" height="283pt"
 viewBox="0.00 0.00 302.00 283.00" xmlns="http://www.w3.org/2000/svg" xmlns:xlink="http://www.w3.org/1999/xlink">
<g id="graph0" class="graph" transform="scale(1 1) rotate(0) translate(4 279)">
<title>%3</title>
<!-- I_0 -->
<g id="node1" class="node">
<title>I_0</title>
<path fill="#aaeeaa" stroke="#888888" d="M103,-213C103,-213 12,-213 12,-213 6,-213 0,-207 0,-201 0,-201 0,-187 0,-187 0,-181 6,-175 12,-175 12,-175 103,-175 103,-175 109,-175 115,-181 115,-187 115,-187 115,-201 115,-201 115,-207 109,-213 103,-213"/>
<text text-anchor="middle" x="57.5" y="-197.8" font-family="Times,serif" font-size="14.00" fill="#222222">Y</text>
<text text-anchor="middle" x="57.5" y="-182.8" font-family="Times,serif" font-size="14.00" fill="#222222">FLOAT16(a,b)</text>
</g>
<!-- Add_3 -->
<g id="node4" class="node">
<title>Add_3</title>
<path fill="#cccccc" stroke="#888888" d="M138,-151C138,-151 89,-151 89,-151 83,-151 77,-145 77,-139 77,-139 77,-127 77,-127 77,-121 83,-115 89,-115 89,-115 138,-115 138,-115 144,-115 150,-121 150,-127 150,-127 150,-139 150,-139 150,-145 144,-151 138,-151"/>
<text text-anchor="middle" x="113.5" y="-129.3" font-family="Times,serif" font-size="14.00" fill="#222222">Add(., .)</text>
</g>
<!-- I_0&#45;&gt;Add_3 -->
<g id="edge3" class="edge">
<title>I_0&#45;&gt;Add_3</title>
<path fill="none" stroke="black" d="M74.61,-174.98C79.56,-169.76 85.05,-163.97 90.31,-158.43"/>
<polygon fill="black" stroke="black" points="97.26,-151.1 93.64,-161.46 93.82,-154.73 90.38,-158.36 90.38,-158.36 90.38,-158.36 93.82,-154.73 87.12,-155.26 97.26,-151.1 97.26,-151.1"/>
<text text-anchor="middle" x="114" y="-161.4" font-family="Times,serif" font-size="7.00">FLOAT16(a,b)</text>
</g>
<!-- I_1 -->
<g id="node2" class="node">
<title>I_1</title>
<path fill="#aaeeaa" stroke="#888888" d="M248,-275C248,-275 175,-275 175,-275 169,-275 163,-269 163,-263 163,-263 163,-249 163,-249 163,-243 169,-237 175,-237 175,-237 248,-237 248,-237 254,-237 260,-243 260,-249 260,-249 260,-263 260,-263 260,-269 254,-275 248,-275"/>
<text text-anchor="middle" x="211.5" y="-259.8" font-family="Times,serif" font-size="14.00" fill="#222222">X</text>
<text text-anchor="middle" x="211.5" y="-244.8" font-family="Times,serif" font-size="14.00" fill="#222222">FLOAT(a,b)</text>
</g>
<!-- Cast_2 -->
<g id="node3" class="node">
<title>Cast_2</title>
<path fill="#cccccc" stroke="#888888" d="M282,-212C282,-212 141,-212 141,-212 135,-212 129,-206 129,-200 129,-200 129,-188 129,-188 129,-182 135,-176 141,-176 141,-176 282,-176 282,-176 288,-176 294,-182 294,-188 294,-188 294,-200 294,-200 294,-206 288,-212 282,-212"/>
<text text-anchor="middle" x="211.5" y="-190.3" font-family="Times,serif" font-size="14.00" fill="#222222">Cast(., to=FLOAT16)</text>
</g>
<!-- I_1&#45;&gt;Cast_2 -->
<g id="edge1" class="edge">
<title>I_1&#45;&gt;Cast_2</title>
<path fill="none" stroke="black" d="M211.5,-237C211.5,-232.45 211.5,-227.46 211.5,-222.55"/>
<polygon fill="black" stroke="black" points="211.5,-212.17 216,-222.17 211.5,-217.17 211.5,-222.17 211.5,-222.17 211.5,-222.17 211.5,-217.17 207,-222.17 211.5,-212.17 211.5,-212.17"/>
<text text-anchor="middle" x="232.5" y="-223.4" font-family="Times,serif" font-size="7.00">FLOAT(a,b)</text>
</g>
<!-- Cast_2&#45;&gt;Add_3 -->
<g id="edge2" class="edge">
<title>Cast_2&#45;&gt;Add_3</title>
<path fill="none" stroke="black" d="M183.15,-175.93C173,-169.82 161.39,-162.83 150.6,-156.34"/>
<polygon fill="black" stroke="black" points="141.78,-151.03 152.67,-152.33 146.07,-153.61 150.35,-156.18 150.35,-156.18 150.35,-156.18 146.07,-153.61 148.03,-160.04 141.78,-151.03 141.78,-151.03"/>
<text text-anchor="middle" x="190" y="-161.4" font-family="Times,serif" font-size="7.00">FLOAT16(a,b)</text>
</g>
<!-- Cast_4 -->
<g id="node5" class="node">
<title>Cast_4</title>
<path fill="#cccccc" stroke="#888888" d="M175,-91C175,-91 52,-91 52,-91 46,-91 40,-85 40,-79 40,-79 40,-67 40,-67 40,-61 46,-55 52,-55 52,-55 175,-55 175,-55 181,-55 187,-61 187,-67 187,-67 187,-79 187,-79 187,-85 181,-91 175,-91"/>
<text text-anchor="middle" x="113.5" y="-69.3" font-family="Times,serif" font-size="14.00" fill="#222222">Cast(., to=FLOAT)</text>
</g>
<!-- Add_3&#45;&gt;Cast_4 -->
<g id="edge4" class="edge">
<title>Add_3&#45;&gt;Cast_4</title>
<path fill="none" stroke="black" d="M113.5,-114.91C113.5,-110.7 113.5,-106.09 113.5,-101.52"/>
<polygon fill="black" stroke="black" points="113.5,-91.17 118,-101.17 113.5,-96.17 113.5,-101.17 113.5,-101.17 113.5,-101.17 113.5,-96.17 109,-101.17 113.5,-91.17 113.5,-91.17"/>
<text text-anchor="middle" x="139" y="-101.4" font-family="Times,serif" font-size="7.00">FLOAT16(a,b)</text>
</g>
<!-- O_5 -->
<g id="node6" class="node">
<title>O_5</title>
<path fill="#aaaaee" stroke="#888888" d="M150,-38C150,-38 77,-38 77,-38 71,-38 65,-32 65,-26 65,-26 65,-12 65,-12 65,-6 71,0 77,0 77,0 150,0 150,0 156,0 162,-6 162,-12 162,-12 162,-26 162,-26 162,-32 156,-38 150,-38"/>
<text text-anchor="middle" x="113.5" y="-22.8" font-family="Times,serif" font-size="14.00" fill="#222222">Z</text>
<text text-anchor="middle" x="113.5" y="-7.8" font-family="Times,serif" font-size="14.00" fill="#222222">FLOAT(a,b)</text>
</g>
<!-- Cast_4&#45;&gt;O_5 -->
<g id="edge5" class="edge">
<title>Cast_4&#45;&gt;O_5</title>
<path fill="none" stroke="black" d="M113.5,-54.97C113.5,-52.89 113.5,-50.72 113.5,-48.53"/>
<polygon fill="black" stroke="black" points="113.5,-38.32 118,-48.32 113.5,-43.32 113.5,-48.32 113.5,-48.32 113.5,-48.32 113.5,-43.32 109,-48.32 113.5,-38.32 113.5,-38.32"/>
</g>
</g>
</svg>
