<?xml version="1.0" encoding="UTF-8" standalone="no"?>
<!DOCTYPE svg PUBLIC "-//W3C//DTD SVG 1.1//EN"
 "http://www.w3.org/Graphics/SVG/1.1/DTD/svg11.dtd">
<!-- Generated by graphviz version 2.43.0 (0)
 -->
<!-- Title: %3 Pages: 1 -->
<svg width="751pt" height="448pt"
 viewBox="0.00 0.00 750.50 448.00" xmlns="http://www.w3.org/2000/svg" xmlns:xlink="http://www.w3.org/1999/xlink">
<g id="graph0" class="graph" transform="scale(1 1) rotate(0) translate(4 444)">
<title>%3</title>
<!-- I_0 -->
<g id="node1" class="node">
<title>I_0</title>
<path fill="#aaeeaa" stroke="#888888" d="M366,-440C366,-440 253,-440 253,-440 247,-440 241,-434 241,-428 241,-428 241,-414 241,-414 241,-408 247,-402 253,-402 253,-402 366,-402 366,-402 372,-402 378,-408 378,-414 378,-414 378,-428 378,-428 378,-434 372,-440 366,-440"/>
<text text-anchor="middle" x="309.5" y="-424.8" font-family="Times,serif" font-size="14.00" fill="#222222">X</text>
<text text-anchor="middle" x="309.5" y="-409.8" font-family="Times,serif" font-size="14.00" fill="#222222">FLOAT(a,2,c,2*e)</text>
</g>
<!-- Shape_5 -->
<g id="node6" class="node">
<title>Shape_5</title>
<path fill="#d2a81f" stroke="#888888" d="M185,-378C185,-378 12,-378 12,-378 6,-378 0,-372 0,-366 0,-366 0,-354 0,-354 0,-348 6,-342 12,-342 12,-342 185,-342 185,-342 191,-342 197,-348 197,-354 197,-354 197,-366 197,-366 197,-372 191,-378 185,-378"/>
<text text-anchor="middle" x="98.5" y="-356.3" font-family="Times,serif" font-size="14.00" fill="#222222">Shape(., end=1, start=0)</text>
</g>
<!-- I_0&#45;&gt;Shape_5 -->
<g id="edge3" class="edge">
<title>I_0&#45;&gt;Shape_5</title>
<path fill="none" stroke="black" d="M245.05,-401.98C221.08,-395.28 193.77,-387.64 169.26,-380.79"/>
<polygon fill="black" stroke="black" points="159.31,-378 170.16,-376.36 164.13,-379.35 168.94,-380.7 168.94,-380.7 168.94,-380.7 164.13,-379.35 167.73,-385.03 159.31,-378 159.31,-378"/>
<text text-anchor="middle" x="242" y="-388.4" font-family="Times,serif" font-size="7.00">FLOAT(a,2,c,2*e)</text>
</g>
<!-- Shape_6 -->
<g id="node7" class="node">
<title>Shape_6</title>
<path fill="#d2a81f" stroke="#888888" d="M396,-378C396,-378 223,-378 223,-378 217,-378 211,-372 211,-366 211,-366 211,-354 211,-354 211,-348 217,-342 223,-342 223,-342 396,-342 396,-342 402,-342 408,-348 408,-354 408,-354 408,-366 408,-366 408,-372 402,-378 396,-378"/>
<text text-anchor="middle" x="309.5" y="-356.3" font-family="Times,serif" font-size="14.00" fill="#222222">Shape(., end=3, start=2)</text>
</g>
<!-- I_0&#45;&gt;Shape_6 -->
<g id="edge4" class="edge">
<title>I_0&#45;&gt;Shape_6</title>
<path fill="none" stroke="black" d="M309.5,-401.98C309.5,-397.71 309.5,-393.06 309.5,-388.47"/>
<polygon fill="black" stroke="black" points="309.5,-378.1 314,-388.1 309.5,-383.1 309.5,-388.1 309.5,-388.1 309.5,-388.1 309.5,-383.1 305,-388.1 309.5,-378.1 309.5,-378.1"/>
<text text-anchor="middle" x="341" y="-388.4" font-family="Times,serif" font-size="7.00">FLOAT(a,2,c,2*e)</text>
</g>
<!-- RotaryEmbedding_11 -->
<g id="node12" class="node">
<title>RotaryEmbedding_11</title>
<path fill="#cccccc" stroke="#888888" d="M504.5,-108C504.5,-108 382.5,-108 382.5,-108 376.5,-108 370.5,-102 370.5,-96 370.5,-96 370.5,-67 370.5,-67 370.5,-61 376.5,-55 382.5,-55 382.5,-55 504.5,-55 504.5,-55 510.5,-55 516.5,-61 516.5,-67 516.5,-67 516.5,-96 516.5,-96 516.5,-102 510.5,-108 504.5,-108"/>
<text text-anchor="middle" x="443.5" y="-92.8" font-family="Times,serif" font-size="14.00" fill="#222222">com.microsoft.</text>
<text text-anchor="middle" x="443.5" y="-77.8" font-family="Times,serif" font-size="14.00" fill="#222222">RotaryEmbedding</text>
<text text-anchor="middle" x="443.5" y="-62.8" font-family="Times,serif" font-size="14.00" fill="#222222">(., ., ., .)</text>
</g>
<!-- I_0&#45;&gt;RotaryEmbedding_11 -->
<g id="edge10" class="edge">
<title>I_0&#45;&gt;RotaryEmbedding_11</title>
<path fill="none" stroke="black" d="M378.13,-410.79C405.44,-402.89 430.5,-388.23 430.5,-361 430.5,-361 430.5,-361 430.5,-149 430.5,-138.87 431.97,-128.04 433.92,-118.11"/>
<polygon fill="black" stroke="black" points="436.09,-108.17 438.36,-118.9 435.02,-113.05 433.96,-117.94 433.96,-117.94 433.96,-117.94 435.02,-113.05 429.56,-116.98 436.09,-108.17 436.09,-108.17"/>
<text text-anchor="middle" x="462" y="-254.4" font-family="Times,serif" font-size="7.00">FLOAT(a,2,c,2*e)</text>
</g>
<!-- I_1 -->
<g id="node2" class="node">
<title>I_1</title>
<path fill="#aaeeaa" stroke="#888888" d="M722.5,-230C722.5,-230 624.5,-230 624.5,-230 618.5,-230 612.5,-224 612.5,-218 612.5,-218 612.5,-204 612.5,-204 612.5,-198 618.5,-192 624.5,-192 624.5,-192 722.5,-192 722.5,-192 728.5,-192 734.5,-198 734.5,-204 734.5,-204 734.5,-218 734.5,-218 734.5,-224 728.5,-230 722.5,-230"/>
<text text-anchor="middle" x="673.5" y="-214.8" font-family="Times,serif" font-size="14.00" fill="#222222">m1</text>
<text text-anchor="middle" x="673.5" y="-199.8" font-family="Times,serif" font-size="14.00" fill="#222222">FLOAT(1,1,c,e)</text>
</g>
<!-- Squeeze_4 -->
<g id="node5" class="node">
<title>Squeeze_4</title>
<path fill="#eeeeee" stroke="#888888" d="M730.5,-168C730.5,-168 616.5,-168 616.5,-168 610.5,-168 604.5,-162 604.5,-156 604.5,-156 604.5,-144 604.5,-144 604.5,-138 610.5,-132 616.5,-132 616.5,-132 730.5,-132 730.5,-132 736.5,-132 742.5,-138 742.5,-144 742.5,-144 742.5,-156 742.5,-156 742.5,-162 736.5,-168 730.5,-168"/>
<text text-anchor="middle" x="673.5" y="-146.3" font-family="Times,serif" font-size="14.00" fill="#222222">Squeeze(., [0, 1])</text>
</g>
<!-- I_1&#45;&gt;Squeeze_4 -->
<g id="edge2" class="edge">
<title>I_1&#45;&gt;Squeeze_4</title>
<path fill="none" stroke="black" d="M673.5,-191.98C673.5,-187.71 673.5,-183.06 673.5,-178.47"/>
<polygon fill="black" stroke="black" points="673.5,-168.1 678,-178.1 673.5,-173.1 673.5,-178.1 673.5,-178.1 673.5,-178.1 673.5,-173.1 669,-178.1 673.5,-168.1 673.5,-168.1"/>
<text text-anchor="middle" x="701" y="-178.4" font-family="Times,serif" font-size="7.00">FLOAT(1,1,c,e)</text>
</g>
<!-- I_2 -->
<g id="node3" class="node">
<title>I_2</title>
<path fill="#aaeeaa" stroke="#888888" d="M570.5,-230C570.5,-230 472.5,-230 472.5,-230 466.5,-230 460.5,-224 460.5,-218 460.5,-218 460.5,-204 460.5,-204 460.5,-198 466.5,-192 472.5,-192 472.5,-192 570.5,-192 570.5,-192 576.5,-192 582.5,-198 582.5,-204 582.5,-204 582.5,-218 582.5,-218 582.5,-224 576.5,-230 570.5,-230"/>
<text text-anchor="middle" x="521.5" y="-214.8" font-family="Times,serif" font-size="14.00" fill="#222222">m2</text>
<text text-anchor="middle" x="521.5" y="-199.8" font-family="Times,serif" font-size="14.00" fill="#222222">FLOAT(1,1,c,e)</text>
</g>
<!-- Squeeze_3 -->
<g id="node4" class="node">
<title>Squeeze_3</title>
<path fill="#eeeeee" stroke="#888888" d="M578.5,-168C578.5,-168 464.5,-168 464.5,-168 458.5,-168 452.5,-162 452.5,-156 452.5,-156 452.5,-144 452.5,-144 452.5,-138 458.5,-132 464.5,-132 464.5,-132 578.5,-132 578.5,-132 584.5,-132 590.5,-138 590.5,-144 590.5,-144 590.5,-156 590.5,-156 590.5,-162 584.5,-168 578.5,-168"/>
<text text-anchor="middle" x="521.5" y="-146.3" font-family="Times,serif" font-size="14.00" fill="#222222">Squeeze(., [0, 1])</text>
</g>
<!-- I_2&#45;&gt;Squeeze_3 -->
<g id="edge1" class="edge">
<title>I_2&#45;&gt;Squeeze_3</title>
<path fill="none" stroke="black" d="M521.5,-191.98C521.5,-187.71 521.5,-183.06 521.5,-178.47"/>
<polygon fill="black" stroke="black" points="521.5,-168.1 526,-178.1 521.5,-173.1 521.5,-178.1 521.5,-178.1 521.5,-178.1 521.5,-173.1 517,-178.1 521.5,-168.1 521.5,-168.1"/>
<text text-anchor="middle" x="549" y="-178.4" font-family="Times,serif" font-size="7.00">FLOAT(1,1,c,e)</text>
</g>
<!-- Squeeze_3&#45;&gt;RotaryEmbedding_11 -->
<g id="edge12" class="edge">
<title>Squeeze_3&#45;&gt;RotaryEmbedding_11</title>
<path fill="none" stroke="black" d="M501.41,-131.87C495.31,-126.67 488.4,-120.78 481.53,-114.92"/>
<polygon fill="black" stroke="black" points="473.53,-108.1 484.06,-111.16 477.33,-111.34 481.14,-114.59 481.14,-114.59 481.14,-114.59 477.33,-111.34 478.22,-118.01 473.53,-108.1 473.53,-108.1"/>
<text text-anchor="middle" x="512" y="-118.4" font-family="Times,serif" font-size="7.00">FLOAT(c,e)</text>
</g>
<!-- Squeeze_4&#45;&gt;RotaryEmbedding_11 -->
<g id="edge13" class="edge">
<title>Squeeze_4&#45;&gt;RotaryEmbedding_11</title>
<path fill="none" stroke="black" d="M614.57,-131.96C587.78,-124.22 555.62,-114.92 526.45,-106.48"/>
<polygon fill="black" stroke="black" points="516.69,-103.66 527.54,-102.12 521.49,-105.05 526.29,-106.44 526.29,-106.44 526.29,-106.44 521.49,-105.05 525.04,-110.76 516.69,-103.66 516.69,-103.66"/>
<text text-anchor="middle" x="606" y="-118.4" font-family="Times,serif" font-size="7.00">FLOAT(c,e)</text>
</g>
<!-- Concat_9 -->
<g id="node10" class="node">
<title>Concat_9</title>
<path fill="#cccccc" stroke="#888888" d="M249.5,-274C249.5,-274 105.5,-274 105.5,-274 99.5,-274 93.5,-268 93.5,-262 93.5,-262 93.5,-250 93.5,-250 93.5,-244 99.5,-238 105.5,-238 105.5,-238 249.5,-238 249.5,-238 255.5,-238 261.5,-244 261.5,-250 261.5,-250 261.5,-262 261.5,-262 261.5,-268 255.5,-274 249.5,-274"/>
<text text-anchor="middle" x="177.5" y="-252.3" font-family="Times,serif" font-size="14.00" fill="#222222">Concat(., [1], axis=0)</text>
</g>
<!-- Shape_5&#45;&gt;Concat_9 -->
<g id="edge7" class="edge">
<title>Shape_5&#45;&gt;Concat_9</title>
<path fill="none" stroke="black" d="M111.9,-341.7C124.58,-325.33 143.74,-300.59 158.08,-282.07"/>
<polygon fill="black" stroke="black" points="164.3,-274.05 161.73,-284.71 161.23,-278 158.17,-281.95 158.17,-281.95 158.17,-281.95 161.23,-278 154.62,-279.2 164.3,-274.05 164.3,-274.05"/>
<text text-anchor="middle" x="140.5" y="-328.4" font-family="Times,serif" font-size="7.00">INT64(1)</text>
</g>
<!-- Squeeze_7 -->
<g id="node8" class="node">
<title>Squeeze_7</title>
<path fill="#eeeeee" stroke="#888888" d="M343.5,-318C343.5,-318 275.5,-318 275.5,-318 269.5,-318 263.5,-312 263.5,-306 263.5,-306 263.5,-294 263.5,-294 263.5,-288 269.5,-282 275.5,-282 275.5,-282 343.5,-282 343.5,-282 349.5,-282 355.5,-288 355.5,-294 355.5,-294 355.5,-306 355.5,-306 355.5,-312 349.5,-318 343.5,-318"/>
<text text-anchor="middle" x="309.5" y="-296.3" font-family="Times,serif" font-size="14.00" fill="#222222">Squeeze(.)</text>
</g>
<!-- Shape_6&#45;&gt;Squeeze_7 -->
<g id="edge5" class="edge">
<title>Shape_6&#45;&gt;Squeeze_7</title>
<path fill="none" stroke="black" d="M309.5,-341.91C309.5,-337.7 309.5,-333.09 309.5,-328.52"/>
<polygon fill="black" stroke="black" points="309.5,-318.17 314,-328.17 309.5,-323.17 309.5,-328.17 309.5,-328.17 309.5,-328.17 309.5,-323.17 305,-328.17 309.5,-318.17 309.5,-318.17"/>
<text text-anchor="middle" x="326.5" y="-328.4" font-family="Times,serif" font-size="7.00">INT64(1)</text>
</g>
<!-- Range_8 -->
<g id="node9" class="node">
<title>Range_8</title>
<path fill="#cccccc" stroke="#888888" d="M354,-229C354,-229 265,-229 265,-229 259,-229 253,-223 253,-217 253,-217 253,-205 253,-205 253,-199 259,-193 265,-193 265,-193 354,-193 354,-193 360,-193 366,-199 366,-205 366,-205 366,-217 366,-217 366,-223 360,-229 354,-229"/>
<text text-anchor="middle" x="309.5" y="-207.3" font-family="Times,serif" font-size="14.00" fill="#222222">Range(0, ., 1)</text>
</g>
<!-- Squeeze_7&#45;&gt;Range_8 -->
<g id="edge6" class="edge">
<title>Squeeze_7&#45;&gt;Range_8</title>
<path fill="none" stroke="black" d="M309.5,-281.81C309.5,-269.66 309.5,-253.11 309.5,-239.18"/>
<polygon fill="black" stroke="black" points="309.5,-229.15 314,-239.15 309.5,-234.15 309.5,-239.15 309.5,-239.15 309.5,-239.15 309.5,-234.15 305,-239.15 309.5,-229.15 309.5,-229.15"/>
<text text-anchor="middle" x="324" y="-254.4" font-family="Times,serif" font-size="7.00">INT64()</text>
</g>
<!-- Expand_10 -->
<g id="node11" class="node">
<title>Expand_10</title>
<path fill="#cccccc" stroke="#888888" d="M347,-168C347,-168 272,-168 272,-168 266,-168 260,-162 260,-156 260,-156 260,-144 260,-144 260,-138 266,-132 272,-132 272,-132 347,-132 347,-132 353,-132 359,-138 359,-144 359,-144 359,-156 359,-156 359,-162 353,-168 347,-168"/>
<text text-anchor="middle" x="309.5" y="-146.3" font-family="Times,serif" font-size="14.00" fill="#222222">Expand(., .)</text>
</g>
<!-- Range_8&#45;&gt;Expand_10 -->
<g id="edge8" class="edge">
<title>Range_8&#45;&gt;Expand_10</title>
<path fill="none" stroke="black" d="M309.5,-192.93C309.5,-188.45 309.5,-183.49 309.5,-178.61"/>
<polygon fill="black" stroke="black" points="309.5,-168.23 314,-178.23 309.5,-173.23 309.5,-178.23 309.5,-178.23 309.5,-178.23 309.5,-173.23 305,-178.23 309.5,-168.23 309.5,-168.23"/>
<text text-anchor="middle" x="358" y="-178.4" font-family="Times,serif" font-size="7.00">INT64(NEWDIM_range_0)</text>
</g>
<!-- Concat_9&#45;&gt;Expand_10 -->
<g id="edge9" class="edge">
<title>Concat_9&#45;&gt;Expand_10</title>
<path fill="none" stroke="black" d="M183.05,-237.98C188.39,-223.99 197.68,-204.52 211.5,-192 222.61,-181.94 236.53,-174.13 250.37,-168.17"/>
<polygon fill="black" stroke="black" points="259.9,-164.33 252.31,-172.24 255.27,-166.19 250.63,-168.06 250.63,-168.06 250.63,-168.06 255.27,-166.19 248.95,-163.89 259.9,-164.33 259.9,-164.33"/>
<text text-anchor="middle" x="228.5" y="-209.4" font-family="Times,serif" font-size="7.00">INT64(2)</text>
</g>
<!-- Expand_10&#45;&gt;RotaryEmbedding_11 -->
<g id="edge11" class="edge">
<title>Expand_10&#45;&gt;RotaryEmbedding_11</title>
<path fill="none" stroke="black" d="M309.63,-131.9C310.51,-126.2 312.46,-120.24 316.5,-116 328.33,-103.58 344.18,-95.56 360.66,-90.44"/>
<polygon fill="black" stroke="black" points="370.41,-87.74 361.97,-94.74 365.59,-89.07 360.77,-90.41 360.77,-90.41 360.77,-90.41 365.59,-89.07 359.57,-86.07 370.41,-87.74 370.41,-87.74"/>
<text text-anchor="middle" x="368" y="-118.4" font-family="Times,serif" font-size="7.00">INT64(a,NEWDIM_range_0)</text>
</g>
<!-- O_12 -->
<g id="node13" class="node">
<title>O_12</title>
<path fill="#aaaaee" stroke="#888888" d="M500,-38C500,-38 387,-38 387,-38 381,-38 375,-32 375,-26 375,-26 375,-12 375,-12 375,-6 381,0 387,0 387,0 500,0 500,0 506,0 512,-6 512,-12 512,-12 512,-26 512,-26 512,-32 506,-38 500,-38"/>
<text text-anchor="middle" x="443.5" y="-22.8" font-family="Times,serif" font-size="14.00" fill="#222222">Y</text>
<text text-anchor="middle" x="443.5" y="-7.8" font-family="Times,serif" font-size="14.00" fill="#222222">FLOAT(a,b,c,2*e)</text>
</g>
<!-- RotaryEmbedding_11&#45;&gt;O_12 -->
<g id="edge14" class="edge">
<title>RotaryEmbedding_11&#45;&gt;O_12</title>
<path fill="none" stroke="black" d="M443.5,-54.84C443.5,-52.77 443.5,-50.66 443.5,-48.56"/>
<polygon fill="black" stroke="black" points="443.5,-38.36 448,-48.36 443.5,-43.36 443.5,-48.36 443.5,-48.36 443.5,-48.36 443.5,-43.36 439,-48.36 443.5,-38.36 443.5,-38.36"/>
</g>
</g>
</svg>
