<?xml version="1.0" encoding="UTF-8" standalone="no"?>
<!DOCTYPE svg PUBLIC "-//W3C//DTD SVG 1.1//EN"
 "http://www.w3.org/Graphics/SVG/1.1/DTD/svg11.dtd">
<!-- Generated by graphviz version 2.43.0 (0)
 -->
<!-- Title: %3 Pages: 1 -->
<svg width="321pt" height="223pt"
 viewBox="0.00 0.00 321.00 223.00" xmlns="http://www.w3.org/2000/svg" xmlns:xlink="http://www.w3.org/1999/xlink">
<g id="graph0" class="graph" transform="scale(1 1) rotate(0) translate(4 219)">
<title>%3</title>
<!-- I_0 -->
<g id="node1" class="node">
<title>I_0</title>
<path fill="#aaeeaa" stroke="#888888" d="M223,-215C223,-215 122,-215 122,-215 116,-215 110,-209 110,-203 110,-203 110,-189 110,-189 110,-183 116,-177 122,-177 122,-177 223,-177 223,-177 229,-177 235,-183 235,-189 235,-189 235,-203 235,-203 235,-209 229,-215 223,-215"/>
<text text-anchor="middle" x="172.5" y="-199.8" font-family="Times,serif" font-size="14.00" fill="#222222">X</text>
<text text-anchor="middle" x="172.5" y="-184.8" font-family="Times,serif" font-size="14.00" fill="#222222">FLOAT(2,2,4,4)</text>
</g>
<!-- Div_1 -->
<g id="node2" class="node">
<title>Div_1</title>
<path fill="#cccccc" stroke="#888888" d="M209.5,-153C209.5,-153 135.5,-153 135.5,-153 129.5,-153 123.5,-147 123.5,-141 123.5,-141 123.5,-129 123.5,-129 123.5,-123 129.5,-117 135.5,-117 135.5,-117 209.5,-117 209.5,-117 215.5,-117 221.5,-123 221.5,-129 221.5,-129 221.5,-141 221.5,-141 221.5,-147 215.5,-153 209.5,-153"/>
<text text-anchor="middle" x="172.5" y="-131.3" font-family="Times,serif" font-size="14.00" fill="#222222">Div(., [2.0])</text>
</g>
<!-- I_0&#45;&gt;Div_1 -->
<g id="edge1" class="edge">
<title>I_0&#45;&gt;Div_1</title>
<path fill="none" stroke="black" d="M172.5,-176.98C172.5,-172.71 172.5,-168.06 172.5,-163.47"/>
<polygon fill="black" stroke="black" points="172.5,-153.1 177,-163.1 172.5,-158.1 172.5,-163.1 172.5,-163.1 172.5,-163.1 172.5,-158.1 168,-163.1 172.5,-153.1 172.5,-153.1"/>
<text text-anchor="middle" x="200" y="-163.4" font-family="Times,serif" font-size="7.00">FLOAT(2,2,4,4)</text>
</g>
<!-- FusedMatMul_2 -->
<g id="node3" class="node">
<title>FusedMatMul_2</title>
<path fill="#cccccc" stroke="#888888" d="M133,-93C133,-93 12,-93 12,-93 6,-93 0,-87 0,-81 0,-81 0,-67 0,-67 0,-61 6,-55 12,-55 12,-55 133,-55 133,-55 139,-55 145,-61 145,-67 145,-67 145,-81 145,-81 145,-87 139,-93 133,-93"/>
<text text-anchor="middle" x="72.5" y="-77.8" font-family="Times,serif" font-size="14.00" fill="#222222">com.microsoft.</text>
<text text-anchor="middle" x="72.5" y="-62.8" font-family="Times,serif" font-size="14.00" fill="#222222">FusedMatMul(., .)</text>
</g>
<!-- I_0&#45;&gt;FusedMatMul_2 -->
<g id="edge3" class="edge">
<title>I_0&#45;&gt;FusedMatMul_2</title>
<path fill="none" stroke="black" d="M109.8,-185.36C91.16,-179.25 72.74,-169.27 61.5,-153 51.39,-138.37 54.39,-118.48 59.79,-102.45"/>
<polygon fill="black" stroke="black" points="63.36,-93.05 64.01,-103.99 61.59,-97.72 59.81,-102.39 59.81,-102.39 59.81,-102.39 61.59,-97.72 55.6,-100.8 63.36,-93.05 63.36,-93.05"/>
<text text-anchor="middle" x="89" y="-133.4" font-family="Times,serif" font-size="7.00">FLOAT(2,2,4,4)</text>
</g>
<!-- FusedMatMul_3 -->
<g id="node4" class="node">
<title>FusedMatMul_3</title>
<path fill="#cccccc" stroke="#888888" d="M301,-93C301,-93 180,-93 180,-93 174,-93 168,-87 168,-81 168,-81 168,-67 168,-67 168,-61 174,-55 180,-55 180,-55 301,-55 301,-55 307,-55 313,-61 313,-67 313,-67 313,-81 313,-81 313,-87 307,-93 301,-93"/>
<text text-anchor="middle" x="240.5" y="-77.8" font-family="Times,serif" font-size="14.00" fill="#222222">com.microsoft.</text>
<text text-anchor="middle" x="240.5" y="-62.8" font-family="Times,serif" font-size="14.00" fill="#222222">FusedMatMul(., .)</text>
</g>
<!-- I_0&#45;&gt;FusedMatMul_3 -->
<g id="edge4" class="edge">
<title>I_0&#45;&gt;FusedMatMul_3</title>
<path fill="none" stroke="black" d="M222.95,-176.87C225.78,-174.55 228.35,-171.94 230.5,-169 244.24,-150.27 245.84,-123.51 244.53,-103.33"/>
<polygon fill="black" stroke="black" points="243.59,-93.17 248.99,-102.71 244.05,-98.15 244.51,-103.13 244.51,-103.13 244.51,-103.13 244.05,-98.15 240.03,-103.54 243.59,-93.17 243.59,-93.17"/>
<text text-anchor="middle" x="272" y="-133.4" font-family="Times,serif" font-size="7.00">FLOAT(2,2,4,4)</text>
</g>
<!-- Div_1&#45;&gt;FusedMatMul_2 -->
<g id="edge2" class="edge">
<title>Div_1&#45;&gt;FusedMatMul_2</title>
<path fill="none" stroke="black" d="M134.13,-116.94C129.13,-114.42 124.14,-111.74 119.5,-109 114.39,-105.98 109.14,-102.55 104.09,-99.06"/>
<polygon fill="black" stroke="black" points="95.83,-93.18 106.59,-95.31 99.9,-96.08 103.98,-98.98 103.98,-98.98 103.98,-98.98 99.9,-96.08 101.37,-102.65 95.83,-93.18 95.83,-93.18"/>
<text text-anchor="middle" x="147" y="-103.4" font-family="Times,serif" font-size="7.00">FLOAT(2,2,4,4)</text>
</g>
<!-- Div_1&#45;&gt;FusedMatMul_3 -->
<g id="edge5" class="edge">
<title>Div_1&#45;&gt;FusedMatMul_3</title>
<path fill="none" stroke="black" d="M175.38,-116.83C177,-111.27 179.54,-105.4 183.5,-101 183.91,-100.55 184.33,-100.1 184.76,-99.66"/>
<polygon fill="black" stroke="black" points="192.36,-93.15 187.69,-103.07 188.56,-96.4 184.76,-99.65 184.76,-99.65 184.76,-99.65 188.56,-96.4 181.84,-96.23 192.36,-93.15 192.36,-93.15"/>
<text text-anchor="middle" x="211" y="-103.4" font-family="Times,serif" font-size="7.00">FLOAT(2,2,4,4)</text>
</g>
<!-- O_5 -->
<g id="node6" class="node">
<title>O_5</title>
<path fill="#aaaaee" stroke="#888888" d="M123,-38C123,-38 22,-38 22,-38 16,-38 10,-32 10,-26 10,-26 10,-12 10,-12 10,-6 16,0 22,0 22,0 123,0 123,0 129,0 135,-6 135,-12 135,-12 135,-26 135,-26 135,-32 129,-38 123,-38"/>
<text text-anchor="middle" x="72.5" y="-22.8" font-family="Times,serif" font-size="14.00" fill="#222222">x1</text>
<text text-anchor="middle" x="72.5" y="-7.8" font-family="Times,serif" font-size="14.00" fill="#222222">FLOAT(2,2,4,4)</text>
</g>
<!-- FusedMatMul_2&#45;&gt;O_5 -->
<g id="edge7" class="edge">
<title>FusedMatMul_2&#45;&gt;O_5</title>
<path fill="none" stroke="black" d="M72.5,-54.76C72.5,-52.66 72.5,-50.47 72.5,-48.27"/>
<polygon fill="black" stroke="black" points="72.5,-38.09 77,-48.09 72.5,-43.09 72.5,-48.09 72.5,-48.09 72.5,-48.09 72.5,-43.09 68,-48.09 72.5,-38.09 72.5,-38.09"/>
</g>
<!-- O_4 -->
<g id="node5" class="node">
<title>O_4</title>
<path fill="#aaaaee" stroke="#888888" d="M291,-38C291,-38 190,-38 190,-38 184,-38 178,-32 178,-26 178,-26 178,-12 178,-12 178,-6 184,0 190,0 190,0 291,0 291,0 297,0 303,-6 303,-12 303,-12 303,-26 303,-26 303,-32 297,-38 291,-38"/>
<text text-anchor="middle" x="240.5" y="-22.8" font-family="Times,serif" font-size="14.00" fill="#222222">x2</text>
<text text-anchor="middle" x="240.5" y="-7.8" font-family="Times,serif" font-size="14.00" fill="#222222">FLOAT(2,2,4,4)</text>
</g>
<!-- FusedMatMul_3&#45;&gt;O_4 -->
<g id="edge6" class="edge">
<title>FusedMatMul_3&#45;&gt;O_4</title>
<path fill="none" stroke="black" d="M240.5,-54.76C240.5,-52.66 240.5,-50.47 240.5,-48.27"/>
<polygon fill="black" stroke="black" points="240.5,-38.09 245,-48.09 240.5,-43.09 240.5,-48.09 240.5,-48.09 240.5,-48.09 240.5,-43.09 236,-48.09 240.5,-38.09 240.5,-38.09"/>
</g>
</g>
</svg>
