<?xml version="1.0" encoding="UTF-8" standalone="no"?>
<!DOCTYPE svg PUBLIC "-//W3C//DTD SVG 1.1//EN"
 "http://www.w3.org/Graphics/SVG/1.1/DTD/svg11.dtd">
<!-- Generated by graphviz version 2.43.0 (0)
 -->
<!-- Title: %3 Pages: 1 -->
<svg width="994pt" height="240pt"
 viewBox="0.00 0.00 993.50 240.00" xmlns="http://www.w3.org/2000/svg" xmlns:xlink="http://www.w3.org/1999/xlink">
<g id="graph0" class="graph" transform="scale(1 1) rotate(0) translate(4 236)">
<title>%3</title>
<!-- I_0 -->
<g id="node1" class="node">
<title>I_0</title>
<path fill="#aaeeaa" stroke="#888888" d="M290,-170C290,-170 12,-170 12,-170 6,-170 0,-164 0,-158 0,-158 0,-144 0,-144 0,-138 6,-132 12,-132 12,-132 290,-132 290,-132 296,-132 302,-138 302,-144 302,-144 302,-158 302,-158 302,-164 296,-170 290,-170"/>
<text text-anchor="middle" x="151" y="-154.8" font-family="Times,serif" font-size="14.00" fill="#222222">ContribRotaryEmbeddingPattern&#45;&#45;m2x2</text>
<text text-anchor="middle" x="151" y="-139.8" font-family="Times,serif" font-size="14.00" fill="#222222">FLOAT(NEWDIM_range,2)</text>
</g>
<!-- RotaryEmbedding_5 -->
<g id="node6" class="node">
<title>RotaryEmbedding_5</title>
<path fill="#cccccc" stroke="#888888" d="M536,-108C536,-108 414,-108 414,-108 408,-108 402,-102 402,-96 402,-96 402,-67 402,-67 402,-61 408,-55 414,-55 414,-55 536,-55 536,-55 542,-55 548,-61 548,-67 548,-67 548,-96 548,-96 548,-102 542,-108 536,-108"/>
<text text-anchor="middle" x="475" y="-92.8" font-family="Times,serif" font-size="14.00" fill="#222222">com.microsoft.</text>
<text text-anchor="middle" x="475" y="-77.8" font-family="Times,serif" font-size="14.00" fill="#222222">RotaryEmbedding</text>
<text text-anchor="middle" x="475" y="-62.8" font-family="Times,serif" font-size="14.00" fill="#222222">(., ., ., .)</text>
</g>
<!-- I_0&#45;&gt;RotaryEmbedding_5 -->
<g id="edge5" class="edge">
<title>I_0&#45;&gt;RotaryEmbedding_5</title>
<path fill="none" stroke="black" d="M236.21,-131.92C260.67,-126.75 287.39,-121.13 312,-116 337.97,-110.59 366.27,-104.75 391.9,-99.49"/>
<polygon fill="black" stroke="black" points="401.96,-97.42 393.06,-103.84 397.06,-98.43 392.16,-99.43 392.16,-99.43 392.16,-99.43 397.06,-98.43 391.25,-95.03 401.96,-97.42 401.96,-97.42"/>
<text text-anchor="middle" x="360.5" y="-118.4" font-family="Times,serif" font-size="7.00">FLOAT(NEWDIM_range,2)</text>
</g>
<!-- I_1 -->
<g id="node2" class="node">
<title>I_1</title>
<path fill="#aaeeaa" stroke="#888888" d="M405.5,-170C405.5,-170 328.5,-170 328.5,-170 322.5,-170 316.5,-164 316.5,-158 316.5,-158 316.5,-144 316.5,-144 316.5,-138 322.5,-132 328.5,-132 328.5,-132 405.5,-132 405.5,-132 411.5,-132 417.5,-138 417.5,-144 417.5,-144 417.5,-158 417.5,-158 417.5,-164 411.5,-170 405.5,-170"/>
<text text-anchor="middle" x="367" y="-154.8" font-family="Times,serif" font-size="14.00" fill="#222222">position_ids</text>
<text text-anchor="middle" x="367" y="-139.8" font-family="Times,serif" font-size="14.00" fill="#222222">INT64(a,e)</text>
</g>
<!-- I_1&#45;&gt;RotaryEmbedding_5 -->
<g id="edge3" class="edge">
<title>I_1&#45;&gt;RotaryEmbedding_5</title>
<path fill="none" stroke="black" d="M395.94,-131.91C404.93,-126.29 415.11,-119.93 425.1,-113.69"/>
<polygon fill="black" stroke="black" points="433.8,-108.25 427.7,-117.37 429.56,-110.9 425.32,-113.55 425.32,-113.55 425.32,-113.55 429.56,-110.9 422.93,-109.74 433.8,-108.25 433.8,-108.25"/>
<text text-anchor="middle" x="441" y="-118.4" font-family="Times,serif" font-size="7.00">INT64(a,e)</text>
</g>
<!-- I_2 -->
<g id="node3" class="node">
<title>I_2</title>
<path fill="#aaeeaa" stroke="#888888" d="M722,-170C722,-170 444,-170 444,-170 438,-170 432,-164 432,-158 432,-158 432,-144 432,-144 432,-138 438,-132 444,-132 444,-132 722,-132 722,-132 728,-132 734,-138 734,-144 734,-144 734,-158 734,-158 734,-164 728,-170 722,-170"/>
<text text-anchor="middle" x="583" y="-154.8" font-family="Times,serif" font-size="14.00" fill="#222222">ContribRotaryEmbeddingPattern&#45;&#45;m1x2</text>
<text text-anchor="middle" x="583" y="-139.8" font-family="Times,serif" font-size="14.00" fill="#222222">FLOAT(NEWDIM_range,2)</text>
</g>
<!-- I_2&#45;&gt;RotaryEmbedding_5 -->
<g id="edge4" class="edge">
<title>I_2&#45;&gt;RotaryEmbedding_5</title>
<path fill="none" stroke="black" d="M554.06,-131.91C545.07,-126.29 534.89,-119.93 524.9,-113.69"/>
<polygon fill="black" stroke="black" points="516.2,-108.25 527.07,-109.74 520.44,-110.9 524.68,-113.55 524.68,-113.55 524.68,-113.55 520.44,-110.9 522.3,-117.37 516.2,-108.25 516.2,-108.25"/>
<text text-anchor="middle" x="586.5" y="-118.4" font-family="Times,serif" font-size="7.00">FLOAT(NEWDIM_range,2)</text>
</g>
<!-- I_3 -->
<g id="node4" class="node">
<title>I_3</title>
<path fill="#aaeeaa" stroke="#888888" d="M916,-232C916,-232 818,-232 818,-232 812,-232 806,-226 806,-220 806,-220 806,-206 806,-206 806,-200 812,-194 818,-194 818,-194 916,-194 916,-194 922,-194 928,-200 928,-206 928,-206 928,-220 928,-220 928,-226 922,-232 916,-232"/>
<text text-anchor="middle" x="867" y="-216.8" font-family="Times,serif" font-size="14.00" fill="#222222">X</text>
<text text-anchor="middle" x="867" y="-201.8" font-family="Times,serif" font-size="14.00" fill="#222222">FLOAT(a,c,2,d)</text>
</g>
<!-- Transpose_4 -->
<g id="node5" class="node">
<title>Transpose_4</title>
<path fill="#ee99ee" stroke="#888888" d="M973.5,-169C973.5,-169 760.5,-169 760.5,-169 754.5,-169 748.5,-163 748.5,-157 748.5,-157 748.5,-145 748.5,-145 748.5,-139 754.5,-133 760.5,-133 760.5,-133 973.5,-133 973.5,-133 979.5,-133 985.5,-139 985.5,-145 985.5,-145 985.5,-157 985.5,-157 985.5,-163 979.5,-169 973.5,-169"/>
<text text-anchor="middle" x="867" y="-147.3" font-family="Times,serif" font-size="14.00" fill="#222222">Transpose(., perm=[0, 2, 1, 3])</text>
</g>
<!-- I_3&#45;&gt;Transpose_4 -->
<g id="edge1" class="edge">
<title>I_3&#45;&gt;Transpose_4</title>
<path fill="none" stroke="black" d="M867,-194C867,-189.45 867,-184.46 867,-179.55"/>
<polygon fill="black" stroke="black" points="867,-169.17 871.5,-179.17 867,-174.17 867,-179.17 867,-179.17 867,-179.17 867,-174.17 862.5,-179.17 867,-169.17 867,-169.17"/>
<text text-anchor="middle" x="894.5" y="-180.4" font-family="Times,serif" font-size="7.00">FLOAT(a,c,2,d)</text>
</g>
<!-- Transpose_4&#45;&gt;RotaryEmbedding_5 -->
<g id="edge2" class="edge">
<title>Transpose_4&#45;&gt;RotaryEmbedding_5</title>
<path fill="none" stroke="black" d="M768.08,-132.97C703.3,-121.81 619.6,-107.4 558.24,-96.83"/>
<polygon fill="black" stroke="black" points="548.21,-95.11 558.83,-92.37 553.14,-95.95 558.06,-96.8 558.06,-96.8 558.06,-96.8 553.14,-95.95 557.3,-101.24 548.21,-95.11 548.21,-95.11"/>
<text text-anchor="middle" x="733.5" y="-118.4" font-family="Times,serif" font-size="7.00">FLOAT(a,2,c,d)</text>
</g>
<!-- O_6 -->
<g id="node7" class="node">
<title>O_6</title>
<path fill="#aaaaee" stroke="#888888" d="M524,-38C524,-38 426,-38 426,-38 420,-38 414,-32 414,-26 414,-26 414,-12 414,-12 414,-6 420,0 426,0 426,0 524,0 524,0 530,0 536,-6 536,-12 536,-12 536,-26 536,-26 536,-32 530,-38 524,-38"/>
<text text-anchor="middle" x="475" y="-22.8" font-family="Times,serif" font-size="14.00" fill="#222222">Y</text>
<text text-anchor="middle" x="475" y="-7.8" font-family="Times,serif" font-size="14.00" fill="#222222">FLOAT(a,b,c,d)</text>
</g>
<!-- RotaryEmbedding_5&#45;&gt;O_6 -->
<g id="edge6" class="edge">
<title>RotaryEmbedding_5&#45;&gt;O_6</title>
<path fill="none" stroke="black" d="M475,-54.84C475,-52.77 475,-50.66 475,-48.56"/>
<polygon fill="black" stroke="black" points="475,-38.36 479.5,-48.36 475,-43.36 475,-48.36 475,-48.36 475,-48.36 475,-43.36 470.5,-48.36 475,-38.36 475,-38.36"/>
</g>
</g>
</svg>
