<?xml version="1.0" encoding="UTF-8" standalone="no"?>
<!DOCTYPE svg PUBLIC "-//W3C//DTD SVG 1.1//EN"
 "http://www.w3.org/Graphics/SVG/1.1/DTD/svg11.dtd">
<!-- Generated by graphviz version 2.43.0 (0)
 -->
<!-- Title: %3 Pages: 1 -->
<svg width="290pt" height="214pt"
 viewBox="0.00 0.00 290.00 214.00" xmlns="http://www.w3.org/2000/svg" xmlns:xlink="http://www.w3.org/1999/xlink">
<g id="graph0" class="graph" transform="scale(1 1) rotate(0) translate(4 210)">
<title>%3</title>
<!-- I_0 -->
<g id="node1" class="node">
<title>I_0</title>
<path fill="#aaeeaa" stroke="#888888" d="M121.5,-206C121.5,-206 48.5,-206 48.5,-206 42.5,-206 36.5,-200 36.5,-194 36.5,-194 36.5,-180 36.5,-180 36.5,-174 42.5,-168 48.5,-168 48.5,-168 121.5,-168 121.5,-168 127.5,-168 133.5,-174 133.5,-180 133.5,-180 133.5,-194 133.5,-194 133.5,-200 127.5,-206 121.5,-206"/>
<text text-anchor="middle" x="85" y="-190.8" font-family="Times,serif" font-size="14.00" fill="#222222">X1</text>
<text text-anchor="middle" x="85" y="-175.8" font-family="Times,serif" font-size="14.00" fill="#222222">FLOAT(a,b)</text>
</g>
<!-- SequenceConstruct_2 -->
<g id="node3" class="node">
<title>SequenceConstruct_2</title>
<path fill="#cccccc" stroke="#888888" d="M220.5,-144C220.5,-144 59.5,-144 59.5,-144 53.5,-144 47.5,-138 47.5,-132 47.5,-132 47.5,-120 47.5,-120 47.5,-114 53.5,-108 59.5,-108 59.5,-108 220.5,-108 220.5,-108 226.5,-108 232.5,-114 232.5,-120 232.5,-120 232.5,-132 232.5,-132 232.5,-138 226.5,-144 220.5,-144"/>
<text text-anchor="middle" x="140" y="-122.3" font-family="Times,serif" font-size="14.00" fill="#222222">SequenceConstruct(., .)</text>
</g>
<!-- I_0&#45;&gt;SequenceConstruct_2 -->
<g id="edge1" class="edge">
<title>I_0&#45;&gt;SequenceConstruct_2</title>
<path fill="none" stroke="black" d="M101.8,-167.98C106.67,-162.76 112.06,-156.97 117.22,-151.43"/>
<polygon fill="black" stroke="black" points="124.05,-144.1 120.53,-154.49 120.65,-147.76 117.24,-151.42 117.24,-151.42 117.24,-151.42 120.65,-147.76 113.94,-148.35 124.05,-144.1 124.05,-144.1"/>
<text text-anchor="middle" x="137" y="-154.4" font-family="Times,serif" font-size="7.00">FLOAT(a,b)</text>
</g>
<!-- I_1 -->
<g id="node2" class="node">
<title>I_1</title>
<path fill="#aaeeaa" stroke="#888888" d="M232,-206C232,-206 160,-206 160,-206 154,-206 148,-200 148,-194 148,-194 148,-180 148,-180 148,-174 154,-168 160,-168 160,-168 232,-168 232,-168 238,-168 244,-174 244,-180 244,-180 244,-194 244,-194 244,-200 238,-206 232,-206"/>
<text text-anchor="middle" x="196" y="-190.8" font-family="Times,serif" font-size="14.00" fill="#222222">X2</text>
<text text-anchor="middle" x="196" y="-175.8" font-family="Times,serif" font-size="14.00" fill="#222222">FLOAT(c,d)</text>
</g>
<!-- I_1&#45;&gt;SequenceConstruct_2 -->
<g id="edge2" class="edge">
<title>I_1&#45;&gt;SequenceConstruct_2</title>
<path fill="none" stroke="black" d="M178.89,-167.98C173.94,-162.76 168.45,-156.97 163.19,-151.43"/>
<polygon fill="black" stroke="black" points="156.24,-144.1 166.38,-148.26 159.68,-147.73 163.12,-151.36 163.12,-151.36 163.12,-151.36 159.68,-147.73 159.86,-154.46 156.24,-144.1 156.24,-144.1"/>
<text text-anchor="middle" x="189.5" y="-154.4" font-family="Times,serif" font-size="7.00">FLOAT(c,d)</text>
</g>
<!-- SequenceAt_3 -->
<g id="node4" class="node">
<title>SequenceAt_3</title>
<path fill="#cccccc" stroke="#888888" d="M122,-91C122,-91 12,-91 12,-91 6,-91 0,-85 0,-79 0,-79 0,-67 0,-67 0,-61 6,-55 12,-55 12,-55 122,-55 122,-55 128,-55 134,-61 134,-67 134,-67 134,-79 134,-79 134,-85 128,-91 122,-91"/>
<text text-anchor="middle" x="67" y="-69.3" font-family="Times,serif" font-size="14.00" fill="#222222">SequenceAt(., 0)</text>
</g>
<!-- SequenceConstruct_2&#45;&gt;SequenceAt_3 -->
<g id="edge3" class="edge">
<title>SequenceConstruct_2&#45;&gt;SequenceAt_3</title>
<path fill="none" stroke="black" d="M115.29,-107.73C110.41,-104.33 105.22,-100.7 100.12,-97.14"/>
<polygon fill="black" stroke="black" points="91.69,-91.25 102.46,-93.29 95.79,-94.11 99.89,-96.98 99.89,-96.98 99.89,-96.98 95.79,-94.11 97.31,-100.66 91.69,-91.25 91.69,-91.25"/>
</g>
<!-- SequenceAt_4 -->
<g id="node5" class="node">
<title>SequenceAt_4</title>
<path fill="#cccccc" stroke="#888888" d="M270,-91C270,-91 160,-91 160,-91 154,-91 148,-85 148,-79 148,-79 148,-67 148,-67 148,-61 154,-55 160,-55 160,-55 270,-55 270,-55 276,-55 282,-61 282,-67 282,-67 282,-79 282,-79 282,-85 276,-91 270,-91"/>
<text text-anchor="middle" x="215" y="-69.3" font-family="Times,serif" font-size="14.00" fill="#222222">SequenceAt(., 1)</text>
</g>
<!-- SequenceConstruct_2&#45;&gt;SequenceAt_4 -->
<g id="edge4" class="edge">
<title>SequenceConstruct_2&#45;&gt;SequenceAt_4</title>
<path fill="none" stroke="black" d="M165.39,-107.73C170.58,-104.21 176.11,-100.44 181.53,-96.76"/>
<polygon fill="black" stroke="black" points="189.89,-91.08 184.15,-100.42 185.75,-93.89 181.62,-96.7 181.62,-96.7 181.62,-96.7 185.75,-93.89 179.09,-92.98 189.89,-91.08 189.89,-91.08"/>
</g>
<!-- O_5 -->
<g id="node6" class="node">
<title>O_5</title>
<path fill="#aaaaee" stroke="#888888" d="M103.5,-38C103.5,-38 30.5,-38 30.5,-38 24.5,-38 18.5,-32 18.5,-26 18.5,-26 18.5,-12 18.5,-12 18.5,-6 24.5,0 30.5,0 30.5,0 103.5,0 103.5,0 109.5,0 115.5,-6 115.5,-12 115.5,-12 115.5,-26 115.5,-26 115.5,-32 109.5,-38 103.5,-38"/>
<text text-anchor="middle" x="67" y="-22.8" font-family="Times,serif" font-size="14.00" fill="#222222">Y1</text>
<text text-anchor="middle" x="67" y="-7.8" font-family="Times,serif" font-size="14.00" fill="#222222">FLOAT(a,b)</text>
</g>
<!-- SequenceAt_3&#45;&gt;O_5 -->
<g id="edge5" class="edge">
<title>SequenceAt_3&#45;&gt;O_5</title>
<path fill="none" stroke="black" d="M67,-54.97C67,-52.89 67,-50.72 67,-48.53"/>
<polygon fill="black" stroke="black" points="67,-38.32 71.5,-48.32 67,-43.32 67,-48.32 67,-48.32 67,-48.32 67,-43.32 62.5,-48.32 67,-38.32 67,-38.32"/>
</g>
<!-- O_6 -->
<g id="node7" class="node">
<title>O_6</title>
<path fill="#aaaaee" stroke="#888888" d="M251,-38C251,-38 179,-38 179,-38 173,-38 167,-32 167,-26 167,-26 167,-12 167,-12 167,-6 173,0 179,0 179,0 251,0 251,0 257,0 263,-6 263,-12 263,-12 263,-26 263,-26 263,-32 257,-38 251,-38"/>
<text text-anchor="middle" x="215" y="-22.8" font-family="Times,serif" font-size="14.00" fill="#222222">Y2</text>
<text text-anchor="middle" x="215" y="-7.8" font-family="Times,serif" font-size="14.00" fill="#222222">FLOAT(c,d)</text>
</g>
<!-- SequenceAt_4&#45;&gt;O_6 -->
<g id="edge6" class="edge">
<title>SequenceAt_4&#45;&gt;O_6</title>
<path fill="none" stroke="black" d="M215,-54.97C215,-52.89 215,-50.72 215,-48.53"/>
<polygon fill="black" stroke="black" points="215,-38.32 219.5,-48.32 215,-43.32 215,-48.32 215,-48.32 215,-48.32 215,-43.32 210.5,-48.32 215,-38.32 215,-38.32"/>
</g>
</g>
</svg>
