<?xml version="1.0" encoding="UTF-8" standalone="no"?>
<!DOCTYPE svg PUBLIC "-//W3C//DTD SVG 1.1//EN"
 "http://www.w3.org/Graphics/SVG/1.1/DTD/svg11.dtd">
<!-- Generated by graphviz version 2.43.0 (0)
 -->
<!-- Title: %3 Pages: 1 -->
<svg width="335pt" height="161pt"
 viewBox="0.00 0.00 335.00 161.00" xmlns="http://www.w3.org/2000/svg" xmlns:xlink="http://www.w3.org/1999/xlink">
<g id="graph0" class="graph" transform="scale(1 1) rotate(0) translate(4 157)">
<title>%3</title>
<!-- I_0 -->
<g id="node1" class="node">
<title>I_0</title>
<path fill="#aaeeaa" stroke="#888888" d="M310.5,-153C310.5,-153 16.5,-153 16.5,-153 10.5,-153 4.5,-147 4.5,-141 4.5,-141 4.5,-127 4.5,-127 4.5,-121 10.5,-115 16.5,-115 16.5,-115 310.5,-115 310.5,-115 316.5,-115 322.5,-121 322.5,-127 322.5,-127 322.5,-141 322.5,-141 322.5,-147 316.5,-153 310.5,-153"/>
<text text-anchor="middle" x="163.5" y="-137.8" font-family="Times,serif" font-size="14.00" fill="#222222">X</text>
<text text-anchor="middle" x="163.5" y="-122.8" font-family="Times,serif" font-size="14.00" fill="#222222">FLOAT(UNKNOWNDIM,UNKNOWNDIM1)</text>
</g>
<!-- Sub_1 -->
<g id="node2" class="node">
<title>Sub_1</title>
<path fill="#cccccc" stroke="#888888" d="M202,-91C202,-91 125,-91 125,-91 119,-91 113,-85 113,-79 113,-79 113,-67 113,-67 113,-61 119,-55 125,-55 125,-55 202,-55 202,-55 208,-55 214,-61 214,-67 214,-67 214,-79 214,-79 214,-85 208,-91 202,-91"/>
<text text-anchor="middle" x="163.5" y="-69.3" font-family="Times,serif" font-size="14.00" fill="#222222">Sub([1.0], .)</text>
</g>
<!-- I_0&#45;&gt;Sub_1 -->
<g id="edge1" class="edge">
<title>I_0&#45;&gt;Sub_1</title>
<path fill="none" stroke="black" d="M163.5,-114.98C163.5,-110.71 163.5,-106.06 163.5,-101.47"/>
<polygon fill="black" stroke="black" points="163.5,-91.1 168,-101.1 163.5,-96.1 163.5,-101.1 163.5,-101.1 163.5,-101.1 163.5,-96.1 159,-101.1 163.5,-91.1 163.5,-91.1"/>
<text text-anchor="middle" x="240.5" y="-101.4" font-family="Times,serif" font-size="7.00">FLOAT(UNKNOWNDIM,UNKNOWNDIM1)</text>
</g>
<!-- O_2 -->
<g id="node3" class="node">
<title>O_2</title>
<path fill="#aaaaee" stroke="#888888" d="M315,-38C315,-38 12,-38 12,-38 6,-38 0,-32 0,-26 0,-26 0,-12 0,-12 0,-6 6,0 12,0 12,0 315,0 315,0 321,0 327,-6 327,-12 327,-12 327,-26 327,-26 327,-32 321,-38 315,-38"/>
<text text-anchor="middle" x="163.5" y="-22.8" font-family="Times,serif" font-size="14.00" fill="#222222">Y</text>
<text text-anchor="middle" x="163.5" y="-7.8" font-family="Times,serif" font-size="14.00" fill="#222222">FLOAT(UNKNOWNDIM2,UNKNOWNDIM3)</text>
</g>
<!-- Sub_1&#45;&gt;O_2 -->
<g id="edge2" class="edge">
<title>Sub_1&#45;&gt;O_2</title>
<path fill="none" stroke="black" d="M163.5,-54.97C163.5,-52.89 163.5,-50.72 163.5,-48.53"/>
<polygon fill="black" stroke="black" points="163.5,-38.32 168,-48.32 163.5,-43.32 163.5,-48.32 163.5,-48.32 163.5,-48.32 163.5,-43.32 159,-48.32 163.5,-38.32 163.5,-38.32"/>
</g>
</g>
</svg>
