<?xml version="1.0" encoding="UTF-8" standalone="no"?>
<!DOCTYPE svg PUBLIC "-//W3C//DTD SVG 1.1//EN"
 "http://www.w3.org/Graphics/SVG/1.1/DTD/svg11.dtd">
<!-- Generated by graphviz version 2.43.0 (0)
 -->
<!-- Title: %3 Pages: 1 -->
<svg width="406pt" height="223pt"
 viewBox="0.00 0.00 406.00 223.00" xmlns="http://www.w3.org/2000/svg" xmlns:xlink="http://www.w3.org/1999/xlink">
<g id="graph0" class="graph" transform="scale(1 1) rotate(0) translate(4 219)">
<title>%3</title>
<!-- I_0 -->
<g id="node1" class="node">
<title>I_0</title>
<path fill="#aaeeaa" stroke="#888888" d="M59,-215C59,-215 12,-215 12,-215 6,-215 0,-209 0,-203 0,-203 0,-189 0,-189 0,-183 6,-177 12,-177 12,-177 59,-177 59,-177 65,-177 71,-183 71,-189 71,-189 71,-203 71,-203 71,-209 65,-215 59,-215"/>
<text text-anchor="middle" x="35.5" y="-199.8" font-family="Times,serif" font-size="14.00" fill="#222222">END</text>
<text text-anchor="middle" x="35.5" y="-184.8" font-family="Times,serif" font-size="14.00" fill="#222222">INT64()</text>
</g>
<!-- Range_5 -->
<g id="node6" class="node">
<title>Range_5</title>
<path fill="#cccccc" stroke="#888888" d="M160.5,-152C160.5,-152 80.5,-152 80.5,-152 74.5,-152 68.5,-146 68.5,-140 68.5,-140 68.5,-128 68.5,-128 68.5,-122 74.5,-116 80.5,-116 80.5,-116 160.5,-116 160.5,-116 166.5,-116 172.5,-122 172.5,-128 172.5,-128 172.5,-140 172.5,-140 172.5,-146 166.5,-152 160.5,-152"/>
<text text-anchor="middle" x="120.5" y="-130.3" font-family="Times,serif" font-size="14.00" fill="#222222">Range(., ., .)</text>
</g>
<!-- I_0&#45;&gt;Range_5 -->
<g id="edge2" class="edge">
<title>I_0&#45;&gt;Range_5</title>
<path fill="none" stroke="black" d="M61,-177C69.45,-171.03 78.97,-164.31 87.88,-158.02"/>
<polygon fill="black" stroke="black" points="96.18,-152.17 90.61,-161.61 92.1,-155.05 88.01,-157.93 88.01,-157.93 88.01,-157.93 92.1,-155.05 85.42,-154.26 96.18,-152.17 96.18,-152.17"/>
<text text-anchor="middle" x="98" y="-163.4" font-family="Times,serif" font-size="7.00">INT64()</text>
</g>
<!-- I_1 -->
<g id="node2" class="node">
<title>I_1</title>
<path fill="#aaeeaa" stroke="#888888" d="M264.5,-153C264.5,-153 208.5,-153 208.5,-153 202.5,-153 196.5,-147 196.5,-141 196.5,-141 196.5,-127 196.5,-127 196.5,-121 202.5,-115 208.5,-115 208.5,-115 264.5,-115 264.5,-115 270.5,-115 276.5,-121 276.5,-127 276.5,-127 276.5,-141 276.5,-141 276.5,-147 270.5,-153 264.5,-153"/>
<text text-anchor="middle" x="236.5" y="-137.8" font-family="Times,serif" font-size="14.00" fill="#222222">PLUS</text>
<text text-anchor="middle" x="236.5" y="-122.8" font-family="Times,serif" font-size="14.00" fill="#222222">INT64(1)</text>
</g>
<!-- Add_6 -->
<g id="node7" class="node">
<title>Add_6</title>
<path fill="#cccccc" stroke="#888888" d="M203,-91C203,-91 154,-91 154,-91 148,-91 142,-85 142,-79 142,-79 142,-67 142,-67 142,-61 148,-55 154,-55 154,-55 203,-55 203,-55 209,-55 215,-61 215,-67 215,-67 215,-79 215,-79 215,-85 209,-91 203,-91"/>
<text text-anchor="middle" x="178.5" y="-69.3" font-family="Times,serif" font-size="14.00" fill="#222222">Add(., .)</text>
</g>
<!-- I_1&#45;&gt;Add_6 -->
<g id="edge5" class="edge">
<title>I_1&#45;&gt;Add_6</title>
<path fill="none" stroke="black" d="M229.14,-114.91C226.34,-109.4 222.78,-103.6 218.5,-99 218.18,-98.66 217.85,-98.31 217.52,-97.97"/>
<polygon fill="black" stroke="black" points="209.91,-91.3 220.39,-94.51 213.67,-94.6 217.43,-97.89 217.43,-97.89 217.43,-97.89 213.67,-94.6 214.46,-101.28 209.91,-91.3 209.91,-91.3"/>
<text text-anchor="middle" x="240.5" y="-101.4" font-family="Times,serif" font-size="7.00">INT64(1)</text>
</g>
<!-- I_2 -->
<g id="node3" class="node">
<title>I_2</title>
<path fill="#aaeeaa" stroke="#888888" d="M386,-215C386,-215 339,-215 339,-215 333,-215 327,-209 327,-203 327,-203 327,-189 327,-189 327,-183 333,-177 339,-177 339,-177 386,-177 386,-177 392,-177 398,-183 398,-189 398,-189 398,-203 398,-203 398,-209 392,-215 386,-215"/>
<text text-anchor="middle" x="362.5" y="-199.8" font-family="Times,serif" font-size="14.00" fill="#222222">one</text>
<text text-anchor="middle" x="362.5" y="-184.8" font-family="Times,serif" font-size="14.00" fill="#222222">INT64()</text>
</g>
<!-- I_3 -->
<g id="node4" class="node">
<title>I_3</title>
<path fill="#aaeeaa" stroke="#888888" d="M144,-215C144,-215 97,-215 97,-215 91,-215 85,-209 85,-203 85,-203 85,-189 85,-189 85,-183 91,-177 97,-177 97,-177 144,-177 144,-177 150,-177 156,-183 156,-189 156,-189 156,-203 156,-203 156,-209 150,-215 144,-215"/>
<text text-anchor="middle" x="120.5" y="-199.8" font-family="Times,serif" font-size="14.00" fill="#222222">START</text>
<text text-anchor="middle" x="120.5" y="-184.8" font-family="Times,serif" font-size="14.00" fill="#222222">INT64()</text>
</g>
<!-- I_3&#45;&gt;Range_5 -->
<g id="edge1" class="edge">
<title>I_3&#45;&gt;Range_5</title>
<path fill="none" stroke="black" d="M120.5,-177C120.5,-172.45 120.5,-167.46 120.5,-162.55"/>
<polygon fill="black" stroke="black" points="120.5,-152.17 125,-162.17 120.5,-157.17 120.5,-162.17 120.5,-162.17 120.5,-162.17 120.5,-157.17 116,-162.17 120.5,-152.17 120.5,-152.17"/>
<text text-anchor="middle" x="135" y="-163.4" font-family="Times,serif" font-size="7.00">INT64()</text>
</g>
<!-- Constant_4 -->
<g id="node5" class="node">
<title>Constant_4</title>
<path fill="#cccccc" stroke="#888888" d="M301,-214C301,-214 182,-214 182,-214 176,-214 170,-208 170,-202 170,-202 170,-190 170,-190 170,-184 176,-178 182,-178 182,-178 301,-178 301,-178 307,-178 313,-184 313,-190 313,-190 313,-202 313,-202 313,-208 307,-214 301,-214"/>
<text text-anchor="middle" x="241.5" y="-192.3" font-family="Times,serif" font-size="14.00" fill="#222222">Constant() &#45;&gt; one</text>
</g>
<!-- Constant_4&#45;&gt;Range_5 -->
<g id="edge3" class="edge">
<title>Constant_4&#45;&gt;Range_5</title>
<path fill="none" stroke="black" d="M207.15,-177.97C193.74,-171.32 178.2,-163.61 164.02,-156.58"/>
<polygon fill="black" stroke="black" points="154.94,-152.08 165.89,-152.49 159.42,-154.3 163.9,-156.52 163.9,-156.52 163.9,-156.52 159.42,-154.3 161.9,-160.55 154.94,-152.08 154.94,-152.08"/>
<text text-anchor="middle" x="202" y="-163.4" font-family="Times,serif" font-size="7.00">INT64()</text>
</g>
<!-- Range_5&#45;&gt;Add_6 -->
<g id="edge4" class="edge">
<title>Range_5&#45;&gt;Add_6</title>
<path fill="none" stroke="black" d="M118.08,-115.93C118.1,-110.12 119.14,-103.86 122.5,-99 125.3,-94.94 128.93,-91.54 132.98,-88.68"/>
<polygon fill="black" stroke="black" points="141.78,-83.54 135.41,-92.47 137.46,-86.06 133.14,-88.58 133.14,-88.58 133.14,-88.58 137.46,-86.06 130.87,-84.7 141.78,-83.54 141.78,-83.54"/>
<text text-anchor="middle" x="171" y="-101.4" font-family="Times,serif" font-size="7.00">INT64(NEWDIM_range_0)</text>
</g>
<!-- O_7 -->
<g id="node8" class="node">
<title>O_7</title>
<path fill="#aaaaee" stroke="#888888" d="M260,-38C260,-38 97,-38 97,-38 91,-38 85,-32 85,-26 85,-26 85,-12 85,-12 85,-6 91,0 97,0 97,0 260,0 260,0 266,0 272,-6 272,-12 272,-12 272,-26 272,-26 272,-32 266,-38 260,-38"/>
<text text-anchor="middle" x="178.5" y="-22.8" font-family="Times,serif" font-size="14.00" fill="#222222">Y</text>
<text text-anchor="middle" x="178.5" y="-7.8" font-family="Times,serif" font-size="14.00" fill="#222222">INT64(NEWDIM_range)</text>
</g>
<!-- Add_6&#45;&gt;O_7 -->
<g id="edge6" class="edge">
<title>Add_6&#45;&gt;O_7</title>
<path fill="none" stroke="black" d="M178.5,-54.97C178.5,-52.89 178.5,-50.72 178.5,-48.53"/>
<polygon fill="black" stroke="black" points="178.5,-38.32 183,-48.32 178.5,-43.32 178.5,-48.32 178.5,-48.32 178.5,-48.32 178.5,-43.32 174,-48.32 178.5,-38.32 178.5,-38.32"/>
</g>
</g>
</svg>
