<?xml version="1.0" encoding="UTF-8" standalone="no"?>
<!DOCTYPE svg PUBLIC "-//W3C//DTD SVG 1.1//EN"
 "http://www.w3.org/Graphics/SVG/1.1/DTD/svg11.dtd">
<!-- Generated by graphviz version 2.43.0 (0)
 -->
<!-- Title: %3 Pages: 1 -->
<svg width="326pt" height="178pt"
 viewBox="0.00 0.00 326.00 178.00" xmlns="http://www.w3.org/2000/svg" xmlns:xlink="http://www.w3.org/1999/xlink">
<g id="graph0" class="graph" transform="scale(1 1) rotate(0) translate(4 174)">
<title>%3</title>
<!-- I_0 -->
<g id="node1" class="node">
<title>I_0</title>
<path fill="#aaeeaa" stroke="#888888" d="M187,-170C187,-170 131,-170 131,-170 125,-170 119,-164 119,-158 119,-158 119,-144 119,-144 119,-138 125,-132 131,-132 131,-132 187,-132 187,-132 193,-132 199,-138 199,-144 199,-144 199,-158 199,-158 199,-164 193,-170 187,-170"/>
<text text-anchor="middle" x="159" y="-154.8" font-family="Times,serif" font-size="14.00" fill="#222222">shape</text>
<text text-anchor="middle" x="159" y="-139.8" font-family="Times,serif" font-size="14.00" fill="#222222">INT64(2)</text>
</g>
<!-- TriMatrix_1 -->
<g id="node2" class="node">
<title>TriMatrix_1</title>
<path fill="#cccccc" stroke="#888888" d="M278.5,-108C278.5,-108 39.5,-108 39.5,-108 33.5,-108 27.5,-102 27.5,-96 27.5,-96 27.5,-67 27.5,-67 27.5,-61 33.5,-55 39.5,-55 39.5,-55 278.5,-55 278.5,-55 284.5,-55 290.5,-61 290.5,-67 290.5,-67 290.5,-96 290.5,-96 290.5,-102 284.5,-108 278.5,-108"/>
<text text-anchor="middle" x="159" y="-92.8" font-family="Times,serif" font-size="14.00" fill="#222222">onnx_extended.ortops.optim.cuda.</text>
<text text-anchor="middle" x="159" y="-77.8" font-family="Times,serif" font-size="14.00" fill="#222222">TriMatrix</text>
<text text-anchor="middle" x="159" y="-62.8" font-family="Times,serif" font-size="14.00" fill="#222222">(., [0.0, 0.0, &#45;3.4028235e+38])</text>
</g>
<!-- I_0&#45;&gt;TriMatrix_1 -->
<g id="edge1" class="edge">
<title>I_0&#45;&gt;TriMatrix_1</title>
<path fill="none" stroke="black" d="M159,-131.91C159,-127.71 159,-123.1 159,-118.43"/>
<polygon fill="black" stroke="black" points="159,-108.25 163.5,-118.25 159,-113.25 159,-118.25 159,-118.25 159,-118.25 159,-113.25 154.5,-118.25 159,-108.25 159,-108.25"/>
<text text-anchor="middle" x="176" y="-118.4" font-family="Times,serif" font-size="7.00">INT64(2)</text>
</g>
<!-- O_2 -->
<g id="node3" class="node">
<title>O_2</title>
<path fill="#aaaaee" stroke="#888888" d="M306,-38C306,-38 12,-38 12,-38 6,-38 0,-32 0,-26 0,-26 0,-12 0,-12 0,-6 6,0 12,0 12,0 306,0 306,0 312,0 318,-6 318,-12 318,-12 318,-26 318,-26 318,-32 312,-38 306,-38"/>
<text text-anchor="middle" x="159" y="-22.8" font-family="Times,serif" font-size="14.00" fill="#222222">Y</text>
<text text-anchor="middle" x="159" y="-7.8" font-family="Times,serif" font-size="14.00" fill="#222222">FLOAT(UNKNOWNDIM,UNKNOWNDIM1)</text>
</g>
<!-- TriMatrix_1&#45;&gt;O_2 -->
<g id="edge2" class="edge">
<title>TriMatrix_1&#45;&gt;O_2</title>
<path fill="none" stroke="black" d="M159,-54.84C159,-52.77 159,-50.66 159,-48.56"/>
<polygon fill="black" stroke="black" points="159,-38.36 163.5,-48.36 159,-43.36 159,-48.36 159,-48.36 159,-48.36 159,-43.36 154.5,-48.36 159,-38.36 159,-38.36"/>
</g>
</g>
</svg>
