<?xml version="1.0" encoding="UTF-8" standalone="no"?>
<!DOCTYPE svg PUBLIC "-//W3C//DTD SVG 1.1//EN"
 "http://www.w3.org/Graphics/SVG/1.1/DTD/svg11.dtd">
<!-- Generated by graphviz version 2.43.0 (0)
 -->
<!-- Title: %3 Pages: 1 -->
<svg width="192pt" height="221pt"
 viewBox="0.00 0.00 191.50 221.00" xmlns="http://www.w3.org/2000/svg" xmlns:xlink="http://www.w3.org/1999/xlink">
<g id="graph0" class="graph" transform="scale(1 1) rotate(0) translate(4 217)">
<title>%3</title>
<!-- I_0 -->
<g id="node1" class="node">
<title>I_0</title>
<path fill="#aaeeaa" stroke="#888888" d="M76,-213C76,-213 16,-213 16,-213 10,-213 4,-207 4,-201 4,-201 4,-187 4,-187 4,-181 10,-175 16,-175 16,-175 76,-175 76,-175 82,-175 88,-181 88,-187 88,-187 88,-201 88,-201 88,-207 82,-213 76,-213"/>
<text text-anchor="middle" x="46" y="-197.8" font-family="Times,serif" font-size="14.00" fill="#222222">input3</text>
<text text-anchor="middle" x="46" y="-182.8" font-family="Times,serif" font-size="14.00" fill="#222222">FLOAT(1)</text>
</g>
<!-- Mul_1 -->
<g id="node2" class="node">
<title>Mul_1</title>
<path fill="#cccccc" stroke="#888888" d="M70.5,-91C70.5,-91 21.5,-91 21.5,-91 15.5,-91 9.5,-85 9.5,-79 9.5,-79 9.5,-67 9.5,-67 9.5,-61 15.5,-55 21.5,-55 21.5,-55 70.5,-55 70.5,-55 76.5,-55 82.5,-61 82.5,-67 82.5,-67 82.5,-79 82.5,-79 82.5,-85 76.5,-91 70.5,-91"/>
<text text-anchor="middle" x="46" y="-69.3" font-family="Times,serif" font-size="14.00" fill="#222222">Mul(., .)</text>
</g>
<!-- I_0&#45;&gt;Mul_1 -->
<g id="edge1" class="edge">
<title>I_0&#45;&gt;Mul_1</title>
<path fill="none" stroke="black" d="M42.8,-174.66C41.68,-167.33 40.55,-158.79 40,-151 38.87,-135.04 38.84,-130.96 40,-115 40.32,-110.56 40.84,-105.87 41.44,-101.31"/>
<polygon fill="black" stroke="black" points="42.93,-91.09 45.94,-101.64 42.21,-96.04 41.49,-100.99 41.49,-100.99 41.49,-100.99 42.21,-96.04 37.03,-100.34 42.93,-91.09 42.93,-91.09"/>
<text text-anchor="middle" x="57.5" y="-131.4" font-family="Times,serif" font-size="7.00">FLOAT(1)</text>
</g>
<!-- Sub_2 -->
<g id="node3" class="node">
<title>Sub_2</title>
<path fill="#cccccc" stroke="#888888" d="M171.5,-151C171.5,-151 94.5,-151 94.5,-151 88.5,-151 82.5,-145 82.5,-139 82.5,-139 82.5,-127 82.5,-127 82.5,-121 88.5,-115 94.5,-115 94.5,-115 171.5,-115 171.5,-115 177.5,-115 183.5,-121 183.5,-127 183.5,-127 183.5,-139 183.5,-139 183.5,-145 177.5,-151 171.5,-151"/>
<text text-anchor="middle" x="133" y="-129.3" font-family="Times,serif" font-size="14.00" fill="#222222">Sub([1.0], .)</text>
</g>
<!-- I_0&#45;&gt;Sub_2 -->
<g id="edge3" class="edge">
<title>I_0&#45;&gt;Sub_2</title>
<path fill="none" stroke="black" d="M72.58,-174.98C81.06,-169.22 90.56,-162.78 99.47,-156.74"/>
<polygon fill="black" stroke="black" points="107.78,-151.1 102.03,-160.44 103.64,-153.91 99.5,-156.72 99.5,-156.72 99.5,-156.72 103.64,-153.91 96.98,-152.99 107.78,-151.1 107.78,-151.1"/>
<text text-anchor="middle" x="112.5" y="-161.4" font-family="Times,serif" font-size="7.00">FLOAT(1)</text>
</g>
<!-- O_3 -->
<g id="node4" class="node">
<title>O_3</title>
<path fill="#aaaaee" stroke="#888888" d="M80,-38C80,-38 12,-38 12,-38 6,-38 0,-32 0,-26 0,-26 0,-12 0,-12 0,-6 6,0 12,0 12,0 80,0 80,0 86,0 92,-6 92,-12 92,-12 92,-26 92,-26 92,-32 86,-38 80,-38"/>
<text text-anchor="middle" x="46" y="-22.8" font-family="Times,serif" font-size="14.00" fill="#222222">_onx_mul0</text>
<text text-anchor="middle" x="46" y="-7.8" font-family="Times,serif" font-size="14.00" fill="#222222">FLOAT(1)</text>
</g>
<!-- Mul_1&#45;&gt;O_3 -->
<g id="edge4" class="edge">
<title>Mul_1&#45;&gt;O_3</title>
<path fill="none" stroke="black" d="M46,-54.97C46,-52.89 46,-50.72 46,-48.53"/>
<polygon fill="black" stroke="black" points="46,-38.32 50.5,-48.32 46,-43.32 46,-48.32 46,-48.32 46,-48.32 46,-43.32 41.5,-48.32 46,-38.32 46,-38.32"/>
</g>
<!-- Sub_2&#45;&gt;Mul_1 -->
<g id="edge2" class="edge">
<title>Sub_2&#45;&gt;Mul_1</title>
<path fill="none" stroke="black" d="M107.37,-114.91C98.86,-109.24 89.25,-102.83 80.2,-96.8"/>
<polygon fill="black" stroke="black" points="71.75,-91.17 82.57,-92.97 75.91,-93.94 80.07,-96.71 80.07,-96.71 80.07,-96.71 75.91,-93.94 77.57,-100.46 71.75,-91.17 71.75,-91.17"/>
<text text-anchor="middle" x="112.5" y="-101.4" font-family="Times,serif" font-size="7.00">FLOAT(1)</text>
</g>
</g>
</svg>
