<?xml version="1.0" encoding="UTF-8" standalone="no"?>
<!DOCTYPE svg PUBLIC "-//W3C//DTD SVG 1.1//EN"
 "http://www.w3.org/Graphics/SVG/1.1/DTD/svg11.dtd">
<!-- Generated by graphviz version 2.43.0 (0)
 -->
<!-- Title: %3 Pages: 1 -->
<svg width="378pt" height="223pt"
 viewBox="0.00 0.00 378.00 223.00" xmlns="http://www.w3.org/2000/svg" xmlns:xlink="http://www.w3.org/1999/xlink">
<g id="graph0" class="graph" transform="scale(1 1) rotate(0) translate(4 219)">
<title>%3</title>
<!-- I_0 -->
<g id="node1" class="node">
<title>I_0</title>
<path fill="#aaeeaa" stroke="#888888" d="M68,-215C68,-215 12,-215 12,-215 6,-215 0,-209 0,-203 0,-203 0,-189 0,-189 0,-183 6,-177 12,-177 12,-177 68,-177 68,-177 74,-177 80,-183 80,-189 80,-189 80,-203 80,-203 80,-209 74,-215 68,-215"/>
<text text-anchor="middle" x="40" y="-199.8" font-family="Times,serif" font-size="14.00" fill="#222222">I1</text>
<text text-anchor="middle" x="40" y="-184.8" font-family="Times,serif" font-size="14.00" fill="#222222">INT64(1)</text>
</g>
<!-- Concat_4 -->
<g id="node5" class="node">
<title>Concat_4</title>
<path fill="#cccccc" stroke="#888888" d="M222,-152C222,-152 46,-152 46,-152 40,-152 34,-146 34,-140 34,-140 34,-128 34,-128 34,-122 40,-116 46,-116 46,-116 222,-116 222,-116 228,-116 234,-122 234,-128 234,-128 234,-140 234,-140 234,-146 228,-152 222,-152"/>
<text text-anchor="middle" x="134" y="-130.3" font-family="Times,serif" font-size="14.00" fill="#222222">Concat(., ., ., [&#45;1], axis=0)</text>
</g>
<!-- I_0&#45;&gt;Concat_4 -->
<g id="edge1" class="edge">
<title>I_0&#45;&gt;Concat_4</title>
<path fill="none" stroke="black" d="M68.2,-177C77.74,-170.91 88.51,-164.03 98.54,-157.64"/>
<polygon fill="black" stroke="black" points="107.11,-152.17 101.1,-161.34 102.89,-154.86 98.68,-157.55 98.68,-157.55 98.68,-157.55 102.89,-154.86 96.26,-153.75 107.11,-152.17 107.11,-152.17"/>
<text text-anchor="middle" x="110" y="-163.4" font-family="Times,serif" font-size="7.00">INT64(1)</text>
</g>
<!-- I_1 -->
<g id="node2" class="node">
<title>I_1</title>
<path fill="#aaeeaa" stroke="#888888" d="M162,-215C162,-215 106,-215 106,-215 100,-215 94,-209 94,-203 94,-203 94,-189 94,-189 94,-183 100,-177 106,-177 106,-177 162,-177 162,-177 168,-177 174,-183 174,-189 174,-189 174,-203 174,-203 174,-209 168,-215 162,-215"/>
<text text-anchor="middle" x="134" y="-199.8" font-family="Times,serif" font-size="14.00" fill="#222222">D1</text>
<text text-anchor="middle" x="134" y="-184.8" font-family="Times,serif" font-size="14.00" fill="#222222">INT64(1)</text>
</g>
<!-- I_1&#45;&gt;Concat_4 -->
<g id="edge3" class="edge">
<title>I_1&#45;&gt;Concat_4</title>
<path fill="none" stroke="black" d="M134,-177C134,-172.45 134,-167.46 134,-162.55"/>
<polygon fill="black" stroke="black" points="134,-152.17 138.5,-162.17 134,-157.17 134,-162.17 134,-162.17 134,-162.17 134,-157.17 129.5,-162.17 134,-152.17 134,-152.17"/>
<text text-anchor="middle" x="151" y="-163.4" font-family="Times,serif" font-size="7.00">INT64(1)</text>
</g>
<!-- I_2 -->
<g id="node3" class="node">
<title>I_2</title>
<path fill="#aaeeaa" stroke="#888888" d="M358,-153C358,-153 260,-153 260,-153 254,-153 248,-147 248,-141 248,-141 248,-127 248,-127 248,-121 254,-115 260,-115 260,-115 358,-115 358,-115 364,-115 370,-121 370,-127 370,-127 370,-141 370,-141 370,-147 364,-153 358,-153"/>
<text text-anchor="middle" x="309" y="-137.8" font-family="Times,serif" font-size="14.00" fill="#222222">X</text>
<text text-anchor="middle" x="309" y="-122.8" font-family="Times,serif" font-size="14.00" fill="#222222">FLOAT(a,b,c,d)</text>
</g>
<!-- Reshape_5 -->
<g id="node6" class="node">
<title>Reshape_5</title>
<path fill="#eeeeee" stroke="#888888" d="M262,-91C262,-91 180,-91 180,-91 174,-91 168,-85 168,-79 168,-79 168,-67 168,-67 168,-61 174,-55 180,-55 180,-55 262,-55 262,-55 268,-55 274,-61 274,-67 274,-67 274,-79 274,-79 274,-85 268,-91 262,-91"/>
<text text-anchor="middle" x="221" y="-69.3" font-family="Times,serif" font-size="14.00" fill="#222222">Reshape(., .)</text>
</g>
<!-- I_2&#45;&gt;Reshape_5 -->
<g id="edge4" class="edge">
<title>I_2&#45;&gt;Reshape_5</title>
<path fill="none" stroke="black" d="M282.12,-114.98C273.54,-109.22 263.93,-102.78 254.92,-96.74"/>
<polygon fill="black" stroke="black" points="246.51,-91.1 257.32,-92.94 250.67,-93.89 254.82,-96.67 254.82,-96.67 254.82,-96.67 250.67,-93.89 252.31,-100.41 246.51,-91.1 246.51,-91.1"/>
<text text-anchor="middle" x="294.5" y="-101.4" font-family="Times,serif" font-size="7.00">FLOAT(a,b,c,d)</text>
</g>
<!-- I_3 -->
<g id="node4" class="node">
<title>I_3</title>
<path fill="#aaeeaa" stroke="#888888" d="M256,-215C256,-215 200,-215 200,-215 194,-215 188,-209 188,-203 188,-203 188,-189 188,-189 188,-183 194,-177 200,-177 200,-177 256,-177 256,-177 262,-177 268,-183 268,-189 268,-189 268,-203 268,-203 268,-209 262,-215 256,-215"/>
<text text-anchor="middle" x="228" y="-199.8" font-family="Times,serif" font-size="14.00" fill="#222222">I2</text>
<text text-anchor="middle" x="228" y="-184.8" font-family="Times,serif" font-size="14.00" fill="#222222">INT64(1)</text>
</g>
<!-- I_3&#45;&gt;Concat_4 -->
<g id="edge2" class="edge">
<title>I_3&#45;&gt;Concat_4</title>
<path fill="none" stroke="black" d="M199.8,-177C190.26,-170.91 179.49,-164.03 169.46,-157.64"/>
<polygon fill="black" stroke="black" points="160.89,-152.17 171.74,-153.75 165.11,-154.86 169.32,-157.55 169.32,-157.55 169.32,-157.55 165.11,-154.86 166.9,-161.34 160.89,-152.17 160.89,-152.17"/>
<text text-anchor="middle" x="203" y="-163.4" font-family="Times,serif" font-size="7.00">INT64(1)</text>
</g>
<!-- Concat_4&#45;&gt;Reshape_5 -->
<g id="edge5" class="edge">
<title>Concat_4&#45;&gt;Reshape_5</title>
<path fill="none" stroke="black" d="M159.16,-115.93C168,-109.94 178.07,-103.11 187.49,-96.73"/>
<polygon fill="black" stroke="black" points="195.89,-91.03 190.14,-100.36 191.75,-93.83 187.62,-96.64 187.62,-96.64 187.62,-96.64 191.75,-93.83 185.09,-92.92 195.89,-91.03 195.89,-91.03"/>
<text text-anchor="middle" x="199" y="-101.4" font-family="Times,serif" font-size="7.00">INT64(4)</text>
</g>
<!-- O_6 -->
<g id="node7" class="node">
<title>O_6</title>
<path fill="#aaaaee" stroke="#888888" d="M270,-38C270,-38 172,-38 172,-38 166,-38 160,-32 160,-26 160,-26 160,-12 160,-12 160,-6 166,0 172,0 172,0 270,0 270,0 276,0 282,-6 282,-12 282,-12 282,-26 282,-26 282,-32 276,-38 270,-38"/>
<text text-anchor="middle" x="221" y="-22.8" font-family="Times,serif" font-size="14.00" fill="#222222">Y</text>
<text text-anchor="middle" x="221" y="-7.8" font-family="Times,serif" font-size="14.00" fill="#222222">FLOAT(a,b,d,c)</text>
</g>
<!-- Reshape_5&#45;&gt;O_6 -->
<g id="edge6" class="edge">
<title>Reshape_5&#45;&gt;O_6</title>
<path fill="none" stroke="black" d="M221,-54.97C221,-52.89 221,-50.72 221,-48.53"/>
<polygon fill="black" stroke="black" points="221,-38.32 225.5,-48.32 221,-43.32 221,-48.32 221,-48.32 221,-48.32 221,-43.32 216.5,-48.32 221,-38.32 221,-38.32"/>
</g>
</g>
</svg>
