<?xml version="1.0" encoding="UTF-8" standalone="no"?>
<!DOCTYPE svg PUBLIC "-//W3C//DTD SVG 1.1//EN"
 "http://www.w3.org/Graphics/SVG/1.1/DTD/svg11.dtd">
<!-- Generated by graphviz version 2.43.0 (0)
 -->
<!-- Title: %3 Pages: 1 -->
<svg width="996pt" height="1055pt"
 viewBox="0.00 0.00 995.50 1055.00" xmlns="http://www.w3.org/2000/svg" xmlns:xlink="http://www.w3.org/1999/xlink">
<g id="graph0" class="graph" transform="scale(1 1) rotate(0) translate(4 1051)">
<title>%3</title>
<!-- I_0 -->
<g id="node1" class="node">
<title>I_0</title>
<path fill="#aaeeaa" stroke="#888888" d="M205.5,-1047C205.5,-1047 111.5,-1047 111.5,-1047 105.5,-1047 99.5,-1041 99.5,-1035 99.5,-1035 99.5,-1021 99.5,-1021 99.5,-1015 105.5,-1009 111.5,-1009 111.5,-1009 205.5,-1009 205.5,-1009 211.5,-1009 217.5,-1015 217.5,-1021 217.5,-1021 217.5,-1035 217.5,-1035 217.5,-1041 211.5,-1047 205.5,-1047"/>
<text text-anchor="middle" x="158.5" y="-1031.8" font-family="Times,serif" font-size="14.00" fill="#222222">init1_s_::RSh1</text>
<text text-anchor="middle" x="158.5" y="-1016.8" font-family="Times,serif" font-size="14.00" fill="#222222">FLOAT(1)</text>
</g>
<!-- I_1 -->
<g id="node2" class="node">
<title>I_1</title>
<path fill="#aaeeaa" stroke="#888888" d="M221,-683C221,-683 12,-683 12,-683 6,-683 0,-677 0,-671 0,-671 0,-657 0,-657 0,-651 6,-645 12,-645 12,-645 221,-645 221,-645 227,-645 233,-651 233,-657 233,-657 233,-671 233,-671 233,-677 227,-683 221,-683"/>
<text text-anchor="middle" x="116.5" y="-667.8" font-family="Times,serif" font-size="14.00" fill="#222222">query</text>
<text text-anchor="middle" x="116.5" y="-652.8" font-family="Times,serif" font-size="14.00" fill="#222222">FLOAT(batch,8,seq_length,32)</text>
</g>
<!-- Mul_10 -->
<g id="node11" class="node">
<title>Mul_10</title>
<path fill="#cccccc" stroke="#888888" d="M381,-597C381,-597 332,-597 332,-597 326,-597 320,-591 320,-585 320,-585 320,-573 320,-573 320,-567 326,-561 332,-561 332,-561 381,-561 381,-561 387,-561 393,-567 393,-573 393,-573 393,-585 393,-585 393,-591 387,-597 381,-597"/>
<text text-anchor="middle" x="356.5" y="-575.3" font-family="Times,serif" font-size="14.00" fill="#222222">Mul(., .)</text>
</g>
<!-- I_1&#45;&gt;Mul_10 -->
<g id="edge1" class="edge">
<title>I_1&#45;&gt;Mul_10</title>
<path fill="none" stroke="black" d="M150.45,-644.94C175.35,-632.3 210.31,-615.8 242.5,-605 264.21,-597.72 288.97,-591.99 309.85,-587.87"/>
<polygon fill="black" stroke="black" points="319.76,-585.98 310.78,-592.27 314.85,-586.91 309.94,-587.85 309.94,-587.85 309.94,-587.85 314.85,-586.91 309.09,-583.43 319.76,-585.98 319.76,-585.98"/>
<text text-anchor="middle" x="298" y="-619.4" font-family="Times,serif" font-size="7.00">FLOAT(batch,8,seq_length,32)</text>
</g>
<!-- I_2 -->
<g id="node3" class="node">
<title>I_2</title>
<path fill="#aaeeaa" stroke="#888888" d="M975.5,-961C975.5,-961 671.5,-961 671.5,-961 665.5,-961 659.5,-955 659.5,-949 659.5,-949 659.5,-935 659.5,-935 659.5,-929 665.5,-923 671.5,-923 671.5,-923 975.5,-923 975.5,-923 981.5,-923 987.5,-929 987.5,-935 987.5,-935 987.5,-949 987.5,-949 987.5,-955 981.5,-961 975.5,-961"/>
<text text-anchor="middle" x="823.5" y="-945.8" font-family="Times,serif" font-size="14.00" fill="#222222">cat_1</text>
<text text-anchor="middle" x="823.5" y="-930.8" font-family="Times,serif" font-size="14.00" fill="#222222">FLOAT(batch,4,past_length+seq_length,32)</text>
</g>
<!-- Unsqueeze_21 -->
<g id="node22" class="node">
<title>Unsqueeze_21</title>
<path fill="#eeeeee" stroke="#888888" d="M881,-867C881,-867 766,-867 766,-867 760,-867 754,-861 754,-855 754,-855 754,-843 754,-843 754,-837 760,-831 766,-831 766,-831 881,-831 881,-831 887,-831 893,-837 893,-843 893,-843 893,-855 893,-855 893,-861 887,-867 881,-867"/>
<text text-anchor="middle" x="823.5" y="-845.3" font-family="Times,serif" font-size="14.00" fill="#222222">Unsqueeze(., [2])</text>
</g>
<!-- I_2&#45;&gt;Unsqueeze_21 -->
<g id="edge18" class="edge">
<title>I_2&#45;&gt;Unsqueeze_21</title>
<path fill="none" stroke="black" d="M823.5,-922.58C823.5,-909.55 823.5,-891.84 823.5,-877.18"/>
<polygon fill="black" stroke="black" points="823.5,-867.16 828,-877.16 823.5,-872.16 823.5,-877.16 823.5,-877.16 823.5,-877.16 823.5,-872.16 819,-877.16 823.5,-867.16 823.5,-867.16"/>
<text text-anchor="middle" x="869" y="-905.4" font-family="Times,serif" font-size="7.00">FLOAT(batch,</text>
<text text-anchor="middle" x="869" y="-897.4" font-family="Times,serif" font-size="7.00">4,</text>
<text text-anchor="middle" x="869" y="-889.4" font-family="Times,serif" font-size="7.00">past_length+seq_length,</text>
<text text-anchor="middle" x="869" y="-881.4" font-family="Times,serif" font-size="7.00">32)</text>
</g>
<!-- I_3 -->
<g id="node4" class="node">
<title>I_3</title>
<path fill="#aaeeaa" stroke="#888888" d="M547.5,-1047C547.5,-1047 243.5,-1047 243.5,-1047 237.5,-1047 231.5,-1041 231.5,-1035 231.5,-1035 231.5,-1021 231.5,-1021 231.5,-1015 237.5,-1009 243.5,-1009 243.5,-1009 547.5,-1009 547.5,-1009 553.5,-1009 559.5,-1015 559.5,-1021 559.5,-1021 559.5,-1035 559.5,-1035 559.5,-1041 553.5,-1047 547.5,-1047"/>
<text text-anchor="middle" x="395.5" y="-1031.8" font-family="Times,serif" font-size="14.00" fill="#222222">cat</text>
<text text-anchor="middle" x="395.5" y="-1016.8" font-family="Times,serif" font-size="14.00" fill="#222222">FLOAT(batch,4,past_length+seq_length,32)</text>
</g>
<!-- Unsqueeze_11 -->
<g id="node12" class="node">
<title>Unsqueeze_11</title>
<path fill="#eeeeee" stroke="#888888" d="M453,-960C453,-960 338,-960 338,-960 332,-960 326,-954 326,-948 326,-948 326,-936 326,-936 326,-930 332,-924 338,-924 338,-924 453,-924 453,-924 459,-924 465,-930 465,-936 465,-936 465,-948 465,-948 465,-954 459,-960 453,-960"/>
<text text-anchor="middle" x="395.5" y="-938.3" font-family="Times,serif" font-size="14.00" fill="#222222">Unsqueeze(., [2])</text>
</g>
<!-- I_3&#45;&gt;Unsqueeze_11 -->
<g id="edge3" class="edge">
<title>I_3&#45;&gt;Unsqueeze_11</title>
<path fill="none" stroke="black" d="M395.5,-1008.77C395.5,-997.46 395.5,-982.73 395.5,-970.07"/>
<polygon fill="black" stroke="black" points="395.5,-960.05 400,-970.05 395.5,-965.05 395.5,-970.05 395.5,-970.05 395.5,-970.05 395.5,-965.05 391,-970.05 395.5,-960.05 395.5,-960.05"/>
<text text-anchor="middle" x="441" y="-995.4" font-family="Times,serif" font-size="7.00">FLOAT(batch,</text>
<text text-anchor="middle" x="441" y="-987.4" font-family="Times,serif" font-size="7.00">4,</text>
<text text-anchor="middle" x="441" y="-979.4" font-family="Times,serif" font-size="7.00">past_length+seq_length,</text>
<text text-anchor="middle" x="441" y="-971.4" font-family="Times,serif" font-size="7.00">32)</text>
</g>
<!-- I_4 -->
<g id="node5" class="node">
<title>I_4</title>
<path fill="#aaeeaa" stroke="#888888" d="M709.5,-513C709.5,-513 497.5,-513 497.5,-513 491.5,-513 485.5,-507 485.5,-501 485.5,-501 485.5,-487 485.5,-487 485.5,-481 491.5,-475 497.5,-475 497.5,-475 709.5,-475 709.5,-475 715.5,-475 721.5,-481 721.5,-487 721.5,-487 721.5,-501 721.5,-501 721.5,-507 715.5,-513 709.5,-513"/>
<text text-anchor="middle" x="603.5" y="-497.8" font-family="Times,serif" font-size="14.00" fill="#222222">to</text>
<text text-anchor="middle" x="603.5" y="-482.8" font-family="Times,serif" font-size="14.00" fill="#222222">BOOL(seq_length,total_length)</text>
</g>
<!-- Where_17 -->
<g id="node18" class="node">
<title>Where_17</title>
<path fill="#cccccc" stroke="#888888" d="M531.5,-427C531.5,-427 421.5,-427 421.5,-427 415.5,-427 409.5,-421 409.5,-415 409.5,-415 409.5,-403 409.5,-403 409.5,-397 415.5,-391 421.5,-391 421.5,-391 531.5,-391 531.5,-391 537.5,-391 543.5,-397 543.5,-403 543.5,-403 543.5,-415 543.5,-415 543.5,-421 537.5,-427 531.5,-427"/>
<text text-anchor="middle" x="476.5" y="-405.3" font-family="Times,serif" font-size="14.00" fill="#222222">Where(., [&#45;inf], .)</text>
</g>
<!-- I_4&#45;&gt;Where_17 -->
<g id="edge12" class="edge">
<title>I_4&#45;&gt;Where_17</title>
<path fill="none" stroke="black" d="M591.62,-474.98C582.34,-462.19 568.39,-445.49 552.5,-435 550.8,-433.88 549.06,-432.81 547.26,-431.78"/>
<polygon fill="black" stroke="black" points="538,-427 548.95,-427.59 542.45,-429.29 546.89,-431.59 546.89,-431.59 546.89,-431.59 542.45,-429.29 544.83,-435.59 538,-427 538,-427"/>
<text text-anchor="middle" x="642" y="-449.4" font-family="Times,serif" font-size="7.00">BOOL(seq_length,total_length)</text>
</g>
<!-- I_5 -->
<g id="node6" class="node">
<title>I_5</title>
<path fill="#aaeeaa" stroke="#888888" d="M711,-1047C711,-1047 586,-1047 586,-1047 580,-1047 574,-1041 574,-1035 574,-1035 574,-1021 574,-1021 574,-1015 580,-1009 586,-1009 586,-1009 711,-1009 711,-1009 717,-1009 723,-1015 723,-1021 723,-1021 723,-1035 723,-1035 723,-1041 717,-1047 711,-1047"/>
<text text-anchor="middle" x="648.5" y="-1031.8" font-family="Times,serif" font-size="14.00" fill="#222222">init7_s4_0_8_&#45;1_32</text>
<text text-anchor="middle" x="648.5" y="-1016.8" font-family="Times,serif" font-size="14.00" fill="#222222">INT64(4)</text>
</g>
<!-- I_6 -->
<g id="node7" class="node">
<title>I_6</title>
<path fill="#aaeeaa" stroke="#888888" d="M877.5,-1047C877.5,-1047 749.5,-1047 749.5,-1047 743.5,-1047 737.5,-1041 737.5,-1035 737.5,-1035 737.5,-1021 737.5,-1021 737.5,-1015 743.5,-1009 749.5,-1009 749.5,-1009 877.5,-1009 877.5,-1009 883.5,-1009 889.5,-1015 889.5,-1021 889.5,-1021 889.5,-1035 889.5,-1035 889.5,-1041 883.5,-1047 877.5,-1047"/>
<text text-anchor="middle" x="813.5" y="-1031.8" font-family="Times,serif" font-size="14.00" fill="#222222">init7_s5_1_1_2_1_1</text>
<text text-anchor="middle" x="813.5" y="-1016.8" font-family="Times,serif" font-size="14.00" fill="#222222">INT64(5)</text>
</g>
<!-- Constant_7 -->
<g id="node8" class="node">
<title>Constant_7</title>
<path fill="#cccccc" stroke="#888888" d="M453.5,-682C453.5,-682 259.5,-682 259.5,-682 253.5,-682 247.5,-676 247.5,-670 247.5,-670 247.5,-658 247.5,-658 247.5,-652 253.5,-646 259.5,-646 259.5,-646 453.5,-646 453.5,-646 459.5,-646 465.5,-652 465.5,-658 465.5,-658 465.5,-670 465.5,-670 465.5,-676 459.5,-682 453.5,-682"/>
<text text-anchor="middle" x="356.5" y="-660.3" font-family="Times,serif" font-size="14.00" fill="#222222">Constant() &#45;&gt; init1_s_::RSh1</text>
</g>
<!-- Constant_7&#45;&gt;Mul_10 -->
<g id="edge2" class="edge">
<title>Constant_7&#45;&gt;Mul_10</title>
<path fill="none" stroke="black" d="M356.5,-645.8C356.5,-634.67 356.5,-619.94 356.5,-607.24"/>
<polygon fill="black" stroke="black" points="356.5,-597.18 361,-607.18 356.5,-602.18 356.5,-607.18 356.5,-607.18 356.5,-607.18 356.5,-602.18 352,-607.18 356.5,-597.18 356.5,-597.18"/>
<text text-anchor="middle" x="374" y="-619.4" font-family="Times,serif" font-size="7.00">FLOAT(1)</text>
</g>
<!-- Constant_8 -->
<g id="node9" class="node">
<title>Constant_8</title>
<path fill="#cccccc" stroke="#888888" d="M727.5,-867C727.5,-867 499.5,-867 499.5,-867 493.5,-867 487.5,-861 487.5,-855 487.5,-855 487.5,-843 487.5,-843 487.5,-837 493.5,-831 499.5,-831 499.5,-831 727.5,-831 727.5,-831 733.5,-831 739.5,-837 739.5,-843 739.5,-843 739.5,-855 739.5,-855 739.5,-861 733.5,-867 727.5,-867"/>
<text text-anchor="middle" x="613.5" y="-845.3" font-family="Times,serif" font-size="14.00" fill="#222222">Constant() &#45;&gt; init7_s5_1_1_2_1_1</text>
</g>
<!-- Expand_13 -->
<g id="node14" class="node">
<title>Expand_13</title>
<path fill="#cccccc" stroke="#888888" d="M470,-775C470,-775 395,-775 395,-775 389,-775 383,-769 383,-763 383,-763 383,-751 383,-751 383,-745 389,-739 395,-739 395,-739 470,-739 470,-739 476,-739 482,-745 482,-751 482,-751 482,-763 482,-763 482,-769 476,-775 470,-775"/>
<text text-anchor="middle" x="432.5" y="-753.3" font-family="Times,serif" font-size="14.00" fill="#222222">Expand(., .)</text>
</g>
<!-- Constant_8&#45;&gt;Expand_13 -->
<g id="edge6" class="edge">
<title>Constant_8&#45;&gt;Expand_13</title>
<path fill="none" stroke="black" d="M591.65,-830.78C572.49,-816.37 543.4,-796.11 515.5,-783 514.75,-782.65 504.77,-779.6 491.98,-775.75"/>
<polygon fill="black" stroke="black" points="482.25,-772.83 493.13,-771.4 487.04,-774.27 491.83,-775.71 491.83,-775.71 491.83,-775.71 487.04,-774.27 490.54,-780.02 482.25,-772.83 482.25,-772.83"/>
<text text-anchor="middle" x="596.5" y="-801.4" font-family="Times,serif" font-size="7.00">INT64(5)</text>
</g>
<!-- Expand_22 -->
<g id="node23" class="node">
<title>Expand_22</title>
<path fill="#cccccc" stroke="#888888" d="M848,-775C848,-775 773,-775 773,-775 767,-775 761,-769 761,-763 761,-763 761,-751 761,-751 761,-745 767,-739 773,-739 773,-739 848,-739 848,-739 854,-739 860,-745 860,-751 860,-751 860,-763 860,-763 860,-769 854,-775 848,-775"/>
<text text-anchor="middle" x="810.5" y="-753.3" font-family="Times,serif" font-size="14.00" fill="#222222">Expand(., .)</text>
</g>
<!-- Constant_8&#45;&gt;Expand_22 -->
<g id="edge20" class="edge">
<title>Constant_8&#45;&gt;Expand_22</title>
<path fill="none" stroke="black" d="M651.02,-830.86C683.06,-816.22 729.29,-795.1 763.74,-779.36"/>
<polygon fill="black" stroke="black" points="773.12,-775.08 765.9,-783.32 768.57,-777.15 764.03,-779.23 764.03,-779.23 764.03,-779.23 768.57,-777.15 762.16,-775.14 773.12,-775.08 773.12,-775.08"/>
<text text-anchor="middle" x="768.5" y="-801.4" font-family="Times,serif" font-size="7.00">INT64(5)</text>
</g>
<!-- Constant_9 -->
<g id="node10" class="node">
<title>Constant_9</title>
<path fill="#cccccc" stroke="#888888" d="M734.5,-775C734.5,-775 508.5,-775 508.5,-775 502.5,-775 496.5,-769 496.5,-763 496.5,-763 496.5,-751 496.5,-751 496.5,-745 502.5,-739 508.5,-739 508.5,-739 734.5,-739 734.5,-739 740.5,-739 746.5,-745 746.5,-751 746.5,-751 746.5,-763 746.5,-763 746.5,-769 740.5,-775 734.5,-775"/>
<text text-anchor="middle" x="621.5" y="-753.3" font-family="Times,serif" font-size="14.00" fill="#222222">Constant() &#45;&gt; init7_s4_0_8_&#45;1_32</text>
</g>
<!-- Reshape_14 -->
<g id="node15" class="node">
<title>Reshape_14</title>
<path fill="#eeeeee" stroke="#888888" d="M573.5,-682C573.5,-682 491.5,-682 491.5,-682 485.5,-682 479.5,-676 479.5,-670 479.5,-670 479.5,-658 479.5,-658 479.5,-652 485.5,-646 491.5,-646 491.5,-646 573.5,-646 573.5,-646 579.5,-646 585.5,-652 585.5,-658 585.5,-658 585.5,-670 585.5,-670 585.5,-676 579.5,-682 573.5,-682"/>
<text text-anchor="middle" x="532.5" y="-660.3" font-family="Times,serif" font-size="14.00" fill="#222222">Reshape(., .)</text>
</g>
<!-- Constant_9&#45;&gt;Reshape_14 -->
<g id="edge8" class="edge">
<title>Constant_9&#45;&gt;Reshape_14</title>
<path fill="none" stroke="black" d="M604.76,-738.88C591.09,-724.9 571.59,-704.97 556.29,-689.33"/>
<polygon fill="black" stroke="black" points="549.17,-682.04 559.37,-686.04 552.66,-685.61 556.16,-689.19 556.16,-689.19 556.16,-689.19 552.66,-685.61 552.94,-692.34 549.17,-682.04 549.17,-682.04"/>
<text text-anchor="middle" x="611.5" y="-709.4" font-family="Times,serif" font-size="7.00">INT64(4)</text>
</g>
<!-- Reshape_23 -->
<g id="node24" class="node">
<title>Reshape_23</title>
<path fill="#eeeeee" stroke="#888888" d="M801.5,-682C801.5,-682 719.5,-682 719.5,-682 713.5,-682 707.5,-676 707.5,-670 707.5,-670 707.5,-658 707.5,-658 707.5,-652 713.5,-646 719.5,-646 719.5,-646 801.5,-646 801.5,-646 807.5,-646 813.5,-652 813.5,-658 813.5,-658 813.5,-670 813.5,-670 813.5,-676 807.5,-682 801.5,-682"/>
<text text-anchor="middle" x="760.5" y="-660.3" font-family="Times,serif" font-size="14.00" fill="#222222">Reshape(., .)</text>
</g>
<!-- Constant_9&#45;&gt;Reshape_23 -->
<g id="edge22" class="edge">
<title>Constant_9&#45;&gt;Reshape_23</title>
<path fill="none" stroke="black" d="M647.64,-738.88C669.78,-724.39 701.68,-703.51 725.92,-687.64"/>
<polygon fill="black" stroke="black" points="734.47,-682.04 728.57,-691.28 730.29,-684.78 726.11,-687.52 726.11,-687.52 726.11,-687.52 730.29,-684.78 723.64,-683.75 734.47,-682.04 734.47,-682.04"/>
<text text-anchor="middle" x="735.5" y="-709.4" font-family="Times,serif" font-size="7.00">INT64(4)</text>
</g>
<!-- MatMul_16 -->
<g id="node17" class="node">
<title>MatMul_16</title>
<path fill="#ee9999" stroke="#888888" d="M459,-512C459,-512 382,-512 382,-512 376,-512 370,-506 370,-500 370,-500 370,-488 370,-488 370,-482 376,-476 382,-476 382,-476 459,-476 459,-476 465,-476 471,-482 471,-488 471,-488 471,-500 471,-500 471,-506 465,-512 459,-512"/>
<text text-anchor="middle" x="420.5" y="-490.3" font-family="Times,serif" font-size="14.00" fill="#222222">MatMul(., .)</text>
</g>
<!-- Mul_10&#45;&gt;MatMul_16 -->
<g id="edge10" class="edge">
<title>Mul_10&#45;&gt;MatMul_16</title>
<path fill="none" stroke="black" d="M364.87,-560.86C371.08,-549.03 380.22,-533.28 390.5,-521 390.98,-520.43 391.48,-519.85 391.98,-519.28"/>
<polygon fill="black" stroke="black" points="399.03,-512.1 395.24,-522.39 395.53,-515.67 392.02,-519.24 392.02,-519.24 392.02,-519.24 395.53,-515.67 388.81,-516.09 399.03,-512.1 399.03,-512.1"/>
<text text-anchor="middle" x="446" y="-535.4" font-family="Times,serif" font-size="7.00">FLOAT(batch,8,seq_length,32)</text>
</g>
<!-- Mul_12 -->
<g id="node13" class="node">
<title>Mul_12</title>
<path fill="#cccccc" stroke="#888888" d="M461,-867C461,-867 330,-867 330,-867 324,-867 318,-861 318,-855 318,-855 318,-843 318,-843 318,-837 324,-831 330,-831 330,-831 461,-831 461,-831 467,-831 473,-837 473,-843 473,-843 473,-855 473,-855 473,-861 467,-867 461,-867"/>
<text text-anchor="middle" x="395.5" y="-845.3" font-family="Times,serif" font-size="14.00" fill="#222222">Mul(., [0.4204482])</text>
</g>
<!-- Unsqueeze_11&#45;&gt;Mul_12 -->
<g id="edge4" class="edge">
<title>Unsqueeze_11&#45;&gt;Mul_12</title>
<path fill="none" stroke="black" d="M395.5,-923.88C395.5,-910.79 395.5,-892.48 395.5,-877.36"/>
<polygon fill="black" stroke="black" points="395.5,-867.04 400,-877.04 395.5,-872.04 395.5,-877.04 395.5,-877.04 395.5,-877.04 395.5,-872.04 391,-877.04 395.5,-867.04 395.5,-867.04"/>
<text text-anchor="middle" x="441" y="-909.4" font-family="Times,serif" font-size="7.00">FLOAT(batch,</text>
<text text-anchor="middle" x="441" y="-901.4" font-family="Times,serif" font-size="7.00">4,</text>
<text text-anchor="middle" x="441" y="-893.4" font-family="Times,serif" font-size="7.00">1,</text>
<text text-anchor="middle" x="441" y="-885.4" font-family="Times,serif" font-size="7.00">past_length+seq_length,</text>
<text text-anchor="middle" x="441" y="-877.4" font-family="Times,serif" font-size="7.00">32)</text>
</g>
<!-- Mul_12&#45;&gt;Expand_13 -->
<g id="edge5" class="edge">
<title>Mul_12&#45;&gt;Expand_13</title>
<path fill="none" stroke="black" d="M402.63,-830.65C407.96,-817.7 415.33,-799.76 421.42,-784.95"/>
<polygon fill="black" stroke="black" points="425.39,-775.3 425.75,-786.26 423.49,-779.92 421.59,-784.55 421.59,-784.55 421.59,-784.55 423.49,-779.92 417.42,-782.84 425.39,-775.3 425.39,-775.3"/>
<text text-anchor="middle" x="467" y="-817.4" font-family="Times,serif" font-size="7.00">FLOAT(batch,</text>
<text text-anchor="middle" x="467" y="-809.4" font-family="Times,serif" font-size="7.00">4,</text>
<text text-anchor="middle" x="467" y="-801.4" font-family="Times,serif" font-size="7.00">1,</text>
<text text-anchor="middle" x="467" y="-793.4" font-family="Times,serif" font-size="7.00">past_length+seq_length,</text>
<text text-anchor="middle" x="467" y="-785.4" font-family="Times,serif" font-size="7.00">32)</text>
</g>
<!-- Expand_13&#45;&gt;Reshape_14 -->
<g id="edge7" class="edge">
<title>Expand_13&#45;&gt;Reshape_14</title>
<path fill="none" stroke="black" d="M437.06,-738.91C441.74,-724.38 450.37,-703.88 464.5,-691 466.42,-689.25 468.47,-687.61 470.62,-686.08"/>
<polygon fill="black" stroke="black" points="479.31,-680.69 473.19,-689.78 475.06,-683.32 470.81,-685.96 470.81,-685.96 470.81,-685.96 475.06,-683.32 468.44,-682.14 479.31,-680.69 479.31,-680.69"/>
<text text-anchor="middle" x="510" y="-725.4" font-family="Times,serif" font-size="7.00">FLOAT(batch,</text>
<text text-anchor="middle" x="510" y="-717.4" font-family="Times,serif" font-size="7.00">4,</text>
<text text-anchor="middle" x="510" y="-709.4" font-family="Times,serif" font-size="7.00">2,</text>
<text text-anchor="middle" x="510" y="-701.4" font-family="Times,serif" font-size="7.00">past_length+seq_length,</text>
<text text-anchor="middle" x="510" y="-693.4" font-family="Times,serif" font-size="7.00">32)</text>
</g>
<!-- Transpose_15 -->
<g id="node16" class="node">
<title>Transpose_15</title>
<path fill="#ee99ee" stroke="#888888" d="M634,-597C634,-597 421,-597 421,-597 415,-597 409,-591 409,-585 409,-585 409,-573 409,-573 409,-567 415,-561 421,-561 421,-561 634,-561 634,-561 640,-561 646,-567 646,-573 646,-573 646,-585 646,-585 646,-591 640,-597 634,-597"/>
<text text-anchor="middle" x="527.5" y="-575.3" font-family="Times,serif" font-size="14.00" fill="#222222">Transpose(., perm=[0, 1, 3, 2])</text>
</g>
<!-- Reshape_14&#45;&gt;Transpose_15 -->
<g id="edge9" class="edge">
<title>Reshape_14&#45;&gt;Transpose_15</title>
<path fill="none" stroke="black" d="M531.46,-645.8C530.79,-634.67 529.91,-619.94 529.14,-607.24"/>
<polygon fill="black" stroke="black" points="528.53,-597.18 533.63,-606.89 528.84,-602.17 529.14,-607.16 529.14,-607.16 529.14,-607.16 528.84,-602.17 524.64,-607.43 528.53,-597.18 528.53,-597.18"/>
<text text-anchor="middle" x="576" y="-631.4" font-family="Times,serif" font-size="7.00">FLOAT(batch,</text>
<text text-anchor="middle" x="576" y="-623.4" font-family="Times,serif" font-size="7.00">8,</text>
<text text-anchor="middle" x="576" y="-615.4" font-family="Times,serif" font-size="7.00">past_length+seq_length,</text>
<text text-anchor="middle" x="576" y="-607.4" font-family="Times,serif" font-size="7.00">32)</text>
</g>
<!-- Transpose_15&#45;&gt;MatMul_16 -->
<g id="edge11" class="edge">
<title>Transpose_15&#45;&gt;MatMul_16</title>
<path fill="none" stroke="black" d="M523.32,-560.8C519.4,-548.15 512.34,-531.41 500.5,-521 499.95,-520.51 491.84,-517.77 480.98,-514.22"/>
<polygon fill="black" stroke="black" points="471.31,-511.09 482.21,-509.89 476.07,-512.64 480.83,-514.18 480.83,-514.18 480.83,-514.18 476.07,-512.64 479.44,-518.46 471.31,-511.09 471.31,-511.09"/>
<text text-anchor="middle" x="565.5" y="-547.4" font-family="Times,serif" font-size="7.00">FLOAT(batch,</text>
<text text-anchor="middle" x="565.5" y="-539.4" font-family="Times,serif" font-size="7.00">8,</text>
<text text-anchor="middle" x="565.5" y="-531.4" font-family="Times,serif" font-size="7.00">32,</text>
<text text-anchor="middle" x="565.5" y="-523.4" font-family="Times,serif" font-size="7.00">past_length+seq_length)</text>
</g>
<!-- MatMul_16&#45;&gt;Where_17 -->
<g id="edge13" class="edge">
<title>MatMul_16&#45;&gt;Where_17</title>
<path fill="none" stroke="black" d="M432.1,-475.8C439.91,-464.23 450.35,-448.76 459.14,-435.73"/>
<polygon fill="black" stroke="black" points="464.91,-427.18 463.05,-437.98 462.12,-431.32 459.32,-435.47 459.32,-435.47 459.32,-435.47 462.12,-431.32 455.59,-432.95 464.91,-427.18 464.91,-427.18"/>
<text text-anchor="middle" x="503.5" y="-461.4" font-family="Times,serif" font-size="7.00">FLOAT(batch,</text>
<text text-anchor="middle" x="503.5" y="-453.4" font-family="Times,serif" font-size="7.00">8,</text>
<text text-anchor="middle" x="503.5" y="-445.4" font-family="Times,serif" font-size="7.00">seq_length,</text>
<text text-anchor="middle" x="503.5" y="-437.4" font-family="Times,serif" font-size="7.00">past_length+seq_length)</text>
</g>
<!-- Softmax_18 -->
<g id="node19" class="node">
<title>Softmax_18</title>
<path fill="#cccccc" stroke="#888888" d="M541.5,-343C541.5,-343 411.5,-343 411.5,-343 405.5,-343 399.5,-337 399.5,-331 399.5,-331 399.5,-319 399.5,-319 399.5,-313 405.5,-307 411.5,-307 411.5,-307 541.5,-307 541.5,-307 547.5,-307 553.5,-313 553.5,-319 553.5,-319 553.5,-331 553.5,-331 553.5,-337 547.5,-343 541.5,-343"/>
<text text-anchor="middle" x="476.5" y="-321.3" font-family="Times,serif" font-size="14.00" fill="#222222">Softmax(., axis=&#45;1)</text>
</g>
<!-- Where_17&#45;&gt;Softmax_18 -->
<g id="edge14" class="edge">
<title>Where_17&#45;&gt;Softmax_18</title>
<path fill="none" stroke="black" d="M476.5,-390.61C476.5,-379.77 476.5,-365.6 476.5,-353.29"/>
<polygon fill="black" stroke="black" points="476.5,-343.08 481,-353.08 476.5,-348.08 476.5,-353.08 476.5,-353.08 476.5,-353.08 476.5,-348.08 472,-353.08 476.5,-343.08 476.5,-343.08"/>
<text text-anchor="middle" x="547.5" y="-377.4" font-family="Times,serif" font-size="7.00">FLOAT(batch,</text>
<text text-anchor="middle" x="547.5" y="-369.4" font-family="Times,serif" font-size="7.00">8,</text>
<text text-anchor="middle" x="547.5" y="-361.4" font-family="Times,serif" font-size="7.00">seq_length,</text>
<text text-anchor="middle" x="547.5" y="-353.4" font-family="Times,serif" font-size="7.00">total_length^past_length+seq_length)</text>
</g>
<!-- IsNaN_19 -->
<g id="node20" class="node">
<title>IsNaN_19</title>
<path fill="#cccccc" stroke="#888888" d="M468,-259C468,-259 415,-259 415,-259 409,-259 403,-253 403,-247 403,-247 403,-235 403,-235 403,-229 409,-223 415,-223 415,-223 468,-223 468,-223 474,-223 480,-229 480,-235 480,-235 480,-247 480,-247 480,-253 474,-259 468,-259"/>
<text text-anchor="middle" x="441.5" y="-237.3" font-family="Times,serif" font-size="14.00" fill="#222222">IsNaN(.)</text>
</g>
<!-- Softmax_18&#45;&gt;IsNaN_19 -->
<g id="edge15" class="edge">
<title>Softmax_18&#45;&gt;IsNaN_19</title>
<path fill="none" stroke="black" d="M449.09,-306.74C446.89,-304.39 444.96,-301.81 443.5,-299 438.84,-290.03 437.58,-279.15 437.75,-269.31"/>
<polygon fill="black" stroke="black" points="438.4,-259.18 442.25,-269.45 438.08,-264.17 437.76,-269.16 437.76,-269.16 437.76,-269.16 438.08,-264.17 433.27,-268.87 438.4,-259.18 438.4,-259.18"/>
<text text-anchor="middle" x="514.5" y="-293.4" font-family="Times,serif" font-size="7.00">FLOAT(batch,</text>
<text text-anchor="middle" x="514.5" y="-285.4" font-family="Times,serif" font-size="7.00">8,</text>
<text text-anchor="middle" x="514.5" y="-277.4" font-family="Times,serif" font-size="7.00">seq_length,</text>
<text text-anchor="middle" x="514.5" y="-269.4" font-family="Times,serif" font-size="7.00">total_length^past_length+seq_length)</text>
</g>
<!-- Where_20 -->
<g id="node21" class="node">
<title>Where_20</title>
<path fill="#cccccc" stroke="#888888" d="M646,-175C646,-175 547,-175 547,-175 541,-175 535,-169 535,-163 535,-163 535,-151 535,-151 535,-145 541,-139 547,-139 547,-139 646,-139 646,-139 652,-139 658,-145 658,-151 658,-151 658,-163 658,-163 658,-169 652,-175 646,-175"/>
<text text-anchor="middle" x="596.5" y="-153.3" font-family="Times,serif" font-size="14.00" fill="#222222">Where(., 0.0, .)</text>
</g>
<!-- Softmax_18&#45;&gt;Where_20 -->
<g id="edge17" class="edge">
<title>Softmax_18&#45;&gt;Where_20</title>
<path fill="none" stroke="black" d="M553.67,-312.71C567.79,-309.15 579.62,-304.64 584.5,-299 611.56,-267.78 608.25,-216.73 602.79,-185.38"/>
<polygon fill="black" stroke="black" points="600.81,-175.17 607.13,-184.14 601.76,-180.08 602.71,-184.99 602.71,-184.99 602.71,-184.99 601.76,-180.08 598.29,-185.85 600.81,-175.17 600.81,-175.17"/>
<text text-anchor="middle" x="677.5" y="-251.4" font-family="Times,serif" font-size="7.00">FLOAT(batch,</text>
<text text-anchor="middle" x="677.5" y="-243.4" font-family="Times,serif" font-size="7.00">8,</text>
<text text-anchor="middle" x="677.5" y="-235.4" font-family="Times,serif" font-size="7.00">seq_length,</text>
<text text-anchor="middle" x="677.5" y="-227.4" font-family="Times,serif" font-size="7.00">total_length^past_length+seq_length)</text>
</g>
<!-- IsNaN_19&#45;&gt;Where_20 -->
<g id="edge16" class="edge">
<title>IsNaN_19&#45;&gt;Where_20</title>
<path fill="none" stroke="black" d="M436.9,-222.96C434.62,-210.4 434.08,-193.7 443.5,-183 454.47,-170.54 490.38,-164.29 524.65,-161.15"/>
<polygon fill="black" stroke="black" points="534.73,-160.31 525.13,-165.62 529.74,-160.72 524.76,-161.14 524.76,-161.14 524.76,-161.14 529.74,-160.72 524.39,-156.65 534.73,-160.31 534.73,-160.31"/>
<text text-anchor="middle" x="514.5" y="-209.4" font-family="Times,serif" font-size="7.00">BOOL(batch,</text>
<text text-anchor="middle" x="514.5" y="-201.4" font-family="Times,serif" font-size="7.00">8,</text>
<text text-anchor="middle" x="514.5" y="-193.4" font-family="Times,serif" font-size="7.00">seq_length,</text>
<text text-anchor="middle" x="514.5" y="-185.4" font-family="Times,serif" font-size="7.00">total_length^past_length+seq_length)</text>
</g>
<!-- MatMul_24 -->
<g id="node25" class="node">
<title>MatMul_24</title>
<path fill="#ee9999" stroke="#888888" d="M717,-91C717,-91 640,-91 640,-91 634,-91 628,-85 628,-79 628,-79 628,-67 628,-67 628,-61 634,-55 640,-55 640,-55 717,-55 717,-55 723,-55 729,-61 729,-67 729,-67 729,-79 729,-79 729,-85 723,-91 717,-91"/>
<text text-anchor="middle" x="678.5" y="-69.3" font-family="Times,serif" font-size="14.00" fill="#222222">MatMul(., .)</text>
</g>
<!-- Where_20&#45;&gt;MatMul_24 -->
<g id="edge23" class="edge">
<title>Where_20&#45;&gt;MatMul_24</title>
<path fill="none" stroke="black" d="M595.54,-138.87C595.76,-126.42 598.09,-109.92 607.5,-99 610.74,-95.24 614.59,-92.04 618.78,-89.33"/>
<polygon fill="black" stroke="black" points="627.81,-84.4 621.19,-93.14 623.42,-86.8 619.03,-89.19 619.03,-89.19 619.03,-89.19 623.42,-86.8 616.88,-85.24 627.81,-84.4 627.81,-84.4"/>
<text text-anchor="middle" x="678.5" y="-125.4" font-family="Times,serif" font-size="7.00">FLOAT(batch,</text>
<text text-anchor="middle" x="678.5" y="-117.4" font-family="Times,serif" font-size="7.00">8,</text>
<text text-anchor="middle" x="678.5" y="-109.4" font-family="Times,serif" font-size="7.00">seq_length,</text>
<text text-anchor="middle" x="678.5" y="-101.4" font-family="Times,serif" font-size="7.00">total_length^past_length+seq_length)</text>
</g>
<!-- Unsqueeze_21&#45;&gt;Expand_22 -->
<g id="edge19" class="edge">
<title>Unsqueeze_21&#45;&gt;Expand_22</title>
<path fill="none" stroke="black" d="M820.99,-830.65C819.14,-817.82 816.58,-800.11 814.46,-785.38"/>
<polygon fill="black" stroke="black" points="813,-775.3 818.88,-784.55 813.71,-780.25 814.43,-785.2 814.43,-785.2 814.43,-785.2 813.71,-780.25 809.97,-785.84 813,-775.3 813,-775.3"/>
<text text-anchor="middle" x="865" y="-817.4" font-family="Times,serif" font-size="7.00">FLOAT(batch,</text>
<text text-anchor="middle" x="865" y="-809.4" font-family="Times,serif" font-size="7.00">4,</text>
<text text-anchor="middle" x="865" y="-801.4" font-family="Times,serif" font-size="7.00">1,</text>
<text text-anchor="middle" x="865" y="-793.4" font-family="Times,serif" font-size="7.00">past_length+seq_length,</text>
<text text-anchor="middle" x="865" y="-785.4" font-family="Times,serif" font-size="7.00">32)</text>
</g>
<!-- Expand_22&#45;&gt;Reshape_23 -->
<g id="edge21" class="edge">
<title>Expand_22&#45;&gt;Reshape_23</title>
<path fill="none" stroke="black" d="M801.1,-738.88C793.69,-725.41 783.25,-706.41 774.81,-691.05"/>
<polygon fill="black" stroke="black" points="769.86,-682.04 778.62,-688.64 772.27,-686.42 774.68,-690.8 774.68,-690.8 774.68,-690.8 772.27,-686.42 770.73,-692.97 769.86,-682.04 769.86,-682.04"/>
<text text-anchor="middle" x="841" y="-725.4" font-family="Times,serif" font-size="7.00">FLOAT(batch,</text>
<text text-anchor="middle" x="841" y="-717.4" font-family="Times,serif" font-size="7.00">4,</text>
<text text-anchor="middle" x="841" y="-709.4" font-family="Times,serif" font-size="7.00">2,</text>
<text text-anchor="middle" x="841" y="-701.4" font-family="Times,serif" font-size="7.00">past_length+seq_length,</text>
<text text-anchor="middle" x="841" y="-693.4" font-family="Times,serif" font-size="7.00">32)</text>
</g>
<!-- Reshape_23&#45;&gt;MatMul_24 -->
<g id="edge24" class="edge">
<title>Reshape_23&#45;&gt;MatMul_24</title>
<path fill="none" stroke="black" d="M760.5,-645.83C760.5,-629.05 760.5,-602.77 760.5,-580 760.5,-580 760.5,-580 760.5,-156 760.5,-130.11 765.52,-118.5 748.5,-99 745.46,-95.52 741.9,-92.52 738.02,-89.94"/>
<polygon fill="black" stroke="black" points="729.11,-84.93 740.03,-85.9 733.47,-87.38 737.82,-89.83 737.82,-89.83 737.82,-89.83 733.47,-87.38 735.62,-93.75 729.11,-84.93 729.11,-84.93"/>
<text text-anchor="middle" x="806" y="-377.4" font-family="Times,serif" font-size="7.00">FLOAT(batch,</text>
<text text-anchor="middle" x="806" y="-369.4" font-family="Times,serif" font-size="7.00">8,</text>
<text text-anchor="middle" x="806" y="-361.4" font-family="Times,serif" font-size="7.00">past_length+seq_length,</text>
<text text-anchor="middle" x="806" y="-353.4" font-family="Times,serif" font-size="7.00">32)</text>
</g>
<!-- O_25 -->
<g id="node26" class="node">
<title>O_25</title>
<path fill="#aaaaee" stroke="#888888" d="M783,-38C783,-38 574,-38 574,-38 568,-38 562,-32 562,-26 562,-26 562,-12 562,-12 562,-6 568,0 574,0 574,0 783,0 783,0 789,0 795,-6 795,-12 795,-12 795,-26 795,-26 795,-32 789,-38 783,-38"/>
<text text-anchor="middle" x="678.5" y="-22.8" font-family="Times,serif" font-size="14.00" fill="#222222">output_0</text>
<text text-anchor="middle" x="678.5" y="-7.8" font-family="Times,serif" font-size="14.00" fill="#222222">FLOAT(batch,8,seq_length,32)</text>
</g>
<!-- MatMul_24&#45;&gt;O_25 -->
<g id="edge25" class="edge">
<title>MatMul_24&#45;&gt;O_25</title>
<path fill="none" stroke="black" d="M678.5,-54.97C678.5,-52.89 678.5,-50.72 678.5,-48.53"/>
<polygon fill="black" stroke="black" points="678.5,-38.32 683,-48.32 678.5,-43.32 678.5,-48.32 678.5,-48.32 678.5,-48.32 678.5,-43.32 674,-48.32 678.5,-38.32 678.5,-38.32"/>
</g>
</g>
</svg>
