<?xml version="1.0" encoding="UTF-8" standalone="no"?>
<!DOCTYPE svg PUBLIC "-//W3C//DTD SVG 1.1//EN"
 "http://www.w3.org/Graphics/SVG/1.1/DTD/svg11.dtd">
<!-- Generated by graphviz version 2.43.0 (0)
 -->
<!-- Title: %3 Pages: 1 -->
<svg width="817pt" height="389pt"
 viewBox="0.00 0.00 816.50 389.00" xmlns="http://www.w3.org/2000/svg" xmlns:xlink="http://www.w3.org/1999/xlink">
<g id="graph0" class="graph" transform="scale(1 1) rotate(0) translate(4 385)">
<title>%3</title>
<!-- I_0 -->
<g id="node1" class="node">
<title>I_0</title>
<path fill="#aaeeaa" stroke="#888888" d="M104,-381C104,-381 12,-381 12,-381 6,-381 0,-375 0,-369 0,-369 0,-355 0,-355 0,-349 6,-343 12,-343 12,-343 104,-343 104,-343 110,-343 116,-349 116,-355 116,-355 116,-369 116,-369 116,-375 110,-381 104,-381"/>
<text text-anchor="middle" x="58" y="-365.8" font-family="Times,serif" font-size="14.00" fill="#222222">X:0</text>
<text text-anchor="middle" x="58" y="-350.8" font-family="Times,serif" font-size="14.00" fill="#222222">FLOAT(dim,8)</text>
</g>
<!-- MatMul_4 -->
<g id="node5" class="node">
<title>MatMul_4</title>
<path fill="#ee9999" stroke="#888888" d="M231.5,-319C231.5,-319 154.5,-319 154.5,-319 148.5,-319 142.5,-313 142.5,-307 142.5,-307 142.5,-295 142.5,-295 142.5,-289 148.5,-283 154.5,-283 154.5,-283 231.5,-283 231.5,-283 237.5,-283 243.5,-289 243.5,-295 243.5,-295 243.5,-307 243.5,-307 243.5,-313 237.5,-319 231.5,-319"/>
<text text-anchor="middle" x="193" y="-297.3" font-family="Times,serif" font-size="14.00" fill="#222222">MatMul(., .)</text>
</g>
<!-- I_0&#45;&gt;MatMul_4 -->
<g id="edge1" class="edge">
<title>I_0&#45;&gt;MatMul_4</title>
<path fill="none" stroke="black" d="M99.24,-342.98C113.49,-336.75 129.58,-329.72 144.37,-323.25"/>
<polygon fill="black" stroke="black" points="153.86,-319.1 146.5,-327.23 149.28,-321.11 144.7,-323.11 144.7,-323.11 144.7,-323.11 149.28,-321.11 142.9,-318.99 153.86,-319.1 153.86,-319.1"/>
<text text-anchor="middle" x="159.5" y="-329.4" font-family="Times,serif" font-size="7.00">FLOAT(dim,8)</text>
</g>
<!-- i_1 -->
<g id="node2" class="node">
<title>i_1</title>
<path fill="#cccc00" stroke="#888888" d="M515.5,-381C515.5,-381 142.5,-381 142.5,-381 136.5,-381 130.5,-375 130.5,-369 130.5,-369 130.5,-355 130.5,-355 130.5,-349 136.5,-343 142.5,-343 142.5,-343 515.5,-343 515.5,-343 521.5,-343 527.5,-349 527.5,-355 527.5,-355 527.5,-369 527.5,-369 527.5,-375 521.5,-381 515.5,-381"/>
<text text-anchor="middle" x="329" y="-365.8" font-family="Times,serif" font-size="14.00" fill="#222222">sequential/dense/kernel:0[sequential/dense/kernel_1]</text>
<text text-anchor="middle" x="329" y="-350.8" font-family="Times,serif" font-size="14.00" fill="#222222">FLOAT(8, 16)</text>
</g>
<!-- i_1&#45;&gt;MatMul_4 -->
<g id="edge2" class="edge">
<title>i_1&#45;&gt;MatMul_4</title>
<path fill="none" stroke="black" d="M287.46,-342.98C273.1,-336.75 256.89,-329.72 241.99,-323.25"/>
<polygon fill="black" stroke="black" points="232.43,-319.1 243.39,-318.96 237.02,-321.09 241.6,-323.08 241.6,-323.08 241.6,-323.08 237.02,-321.09 239.81,-327.21 232.43,-319.1 232.43,-319.1"/>
<text text-anchor="middle" x="289.5" y="-329.4" font-family="Times,serif" font-size="7.00">FLOAT(8, 16)</text>
</g>
<!-- i_2 -->
<g id="node3" class="node">
<title>i_2</title>
<path fill="#cccc00" stroke="#888888" d="M664.5,-266C664.5,-266 251.5,-266 251.5,-266 245.5,-266 239.5,-260 239.5,-254 239.5,-254 239.5,-240 239.5,-240 239.5,-234 245.5,-228 251.5,-228 251.5,-228 664.5,-228 664.5,-228 670.5,-228 676.5,-234 676.5,-240 676.5,-240 676.5,-254 676.5,-254 676.5,-260 670.5,-266 664.5,-266"/>
<text text-anchor="middle" x="458" y="-250.8" font-family="Times,serif" font-size="14.00" fill="#222222">sequential/dense_1/kernel:0[sequential/dense_1/kernel_23]</text>
<text text-anchor="middle" x="458" y="-235.8" font-family="Times,serif" font-size="14.00" fill="#222222">FLOAT(16, 8)</text>
</g>
<!-- MatMul_6 -->
<g id="node7" class="node">
<title>MatMul_6</title>
<path fill="#ee9999" stroke="#888888" d="M363.5,-204C363.5,-204 286.5,-204 286.5,-204 280.5,-204 274.5,-198 274.5,-192 274.5,-192 274.5,-180 274.5,-180 274.5,-174 280.5,-168 286.5,-168 286.5,-168 363.5,-168 363.5,-168 369.5,-168 375.5,-174 375.5,-180 375.5,-180 375.5,-192 375.5,-192 375.5,-198 369.5,-204 363.5,-204"/>
<text text-anchor="middle" x="325" y="-182.3" font-family="Times,serif" font-size="14.00" fill="#222222">MatMul(., .)</text>
</g>
<!-- i_2&#45;&gt;MatMul_6 -->
<g id="edge5" class="edge">
<title>i_2&#45;&gt;MatMul_6</title>
<path fill="none" stroke="black" d="M417.37,-227.98C403.34,-221.75 387.48,-214.72 372.91,-208.25"/>
<polygon fill="black" stroke="black" points="363.56,-204.1 374.52,-204.05 368.13,-206.13 372.7,-208.16 372.7,-208.16 372.7,-208.16 368.13,-206.13 370.87,-212.27 363.56,-204.1 363.56,-204.1"/>
<text text-anchor="middle" x="419.5" y="-214.4" font-family="Times,serif" font-size="7.00">FLOAT(16, 8)</text>
</g>
<!-- i_3 -->
<g id="node4" class="node">
<title>i_3</title>
<path fill="#cccc00" stroke="#888888" d="M796.5,-151C796.5,-151 383.5,-151 383.5,-151 377.5,-151 371.5,-145 371.5,-139 371.5,-139 371.5,-125 371.5,-125 371.5,-119 377.5,-113 383.5,-113 383.5,-113 796.5,-113 796.5,-113 802.5,-113 808.5,-119 808.5,-125 808.5,-125 808.5,-139 808.5,-139 808.5,-145 802.5,-151 796.5,-151"/>
<text text-anchor="middle" x="590" y="-135.8" font-family="Times,serif" font-size="14.00" fill="#222222">sequential/dense_2/kernel:0[sequential/dense_2/kernel_45]</text>
<text text-anchor="middle" x="590" y="-120.8" font-family="Times,serif" font-size="14.00" fill="#222222">FLOAT(8, 4)</text>
</g>
<!-- MatMul_8 -->
<g id="node9" class="node">
<title>MatMul_8</title>
<path fill="#ee9999" stroke="#888888" d="M495.5,-89C495.5,-89 418.5,-89 418.5,-89 412.5,-89 406.5,-83 406.5,-77 406.5,-77 406.5,-65 406.5,-65 406.5,-59 412.5,-53 418.5,-53 418.5,-53 495.5,-53 495.5,-53 501.5,-53 507.5,-59 507.5,-65 507.5,-65 507.5,-77 507.5,-77 507.5,-83 501.5,-89 495.5,-89"/>
<text text-anchor="middle" x="457" y="-67.3" font-family="Times,serif" font-size="14.00" fill="#222222">MatMul(., .)</text>
</g>
<!-- i_3&#45;&gt;MatMul_8 -->
<g id="edge8" class="edge">
<title>i_3&#45;&gt;MatMul_8</title>
<path fill="none" stroke="black" d="M549.37,-112.98C535.34,-106.75 519.48,-99.72 504.91,-93.25"/>
<polygon fill="black" stroke="black" points="495.56,-89.1 506.52,-89.05 500.13,-91.13 504.7,-93.16 504.7,-93.16 504.7,-93.16 500.13,-91.13 502.87,-97.27 495.56,-89.1 495.56,-89.1"/>
<text text-anchor="middle" x="549" y="-99.4" font-family="Times,serif" font-size="7.00">FLOAT(8, 4)</text>
</g>
<!-- Relu_5 -->
<g id="node6" class="node">
<title>Relu_5</title>
<path fill="#cccccc" stroke="#888888" d="M213,-265C213,-265 173,-265 173,-265 167,-265 161,-259 161,-253 161,-253 161,-241 161,-241 161,-235 167,-229 173,-229 173,-229 213,-229 213,-229 219,-229 225,-235 225,-241 225,-241 225,-253 225,-253 225,-259 219,-265 213,-265"/>
<text text-anchor="middle" x="193" y="-243.3" font-family="Times,serif" font-size="14.00" fill="#222222">Relu(.)</text>
</g>
<!-- MatMul_4&#45;&gt;Relu_5 -->
<g id="edge3" class="edge">
<title>MatMul_4&#45;&gt;Relu_5</title>
<path fill="none" stroke="black" d="M193,-282.97C193,-280.57 193,-278.06 193,-275.52"/>
<polygon fill="black" stroke="black" points="193,-265.24 197.5,-275.24 193,-270.24 193,-275.24 193,-275.24 193,-275.24 193,-270.24 188.5,-275.24 193,-265.24 193,-265.24"/>
</g>
<!-- Relu_5&#45;&gt;MatMul_6 -->
<g id="edge4" class="edge">
<title>Relu_5&#45;&gt;MatMul_6</title>
<path fill="none" stroke="black" d="M225.31,-231.45C227.91,-230.28 230.5,-229.12 233,-228 247.4,-221.55 263.08,-214.55 277.35,-208.2"/>
<polygon fill="black" stroke="black" points="286.49,-204.12 279.19,-212.3 281.92,-206.16 277.36,-208.19 277.36,-208.19 277.36,-208.19 281.92,-206.16 275.52,-204.08 286.49,-204.12 286.49,-204.12"/>
</g>
<!-- Relu_7 -->
<g id="node8" class="node">
<title>Relu_7</title>
<path fill="#cccccc" stroke="#888888" d="M345,-150C345,-150 305,-150 305,-150 299,-150 293,-144 293,-138 293,-138 293,-126 293,-126 293,-120 299,-114 305,-114 305,-114 345,-114 345,-114 351,-114 357,-120 357,-126 357,-126 357,-138 357,-138 357,-144 351,-150 345,-150"/>
<text text-anchor="middle" x="325" y="-128.3" font-family="Times,serif" font-size="14.00" fill="#222222">Relu(.)</text>
</g>
<!-- MatMul_6&#45;&gt;Relu_7 -->
<g id="edge6" class="edge">
<title>MatMul_6&#45;&gt;Relu_7</title>
<path fill="none" stroke="black" d="M325,-167.97C325,-165.57 325,-163.06 325,-160.52"/>
<polygon fill="black" stroke="black" points="325,-150.24 329.5,-160.24 325,-155.24 325,-160.24 325,-160.24 325,-160.24 325,-155.24 320.5,-160.24 325,-150.24 325,-150.24"/>
</g>
<!-- Relu_7&#45;&gt;MatMul_8 -->
<g id="edge7" class="edge">
<title>Relu_7&#45;&gt;MatMul_8</title>
<path fill="none" stroke="black" d="M357.31,-116.45C359.91,-115.28 362.5,-114.12 365,-113 379.4,-106.55 395.08,-99.55 409.35,-93.2"/>
<polygon fill="black" stroke="black" points="418.49,-89.12 411.19,-97.3 413.92,-91.16 409.36,-93.19 409.36,-93.19 409.36,-93.19 413.92,-91.16 407.52,-89.08 418.49,-89.12 418.49,-89.12"/>
</g>
<!-- O_9 -->
<g id="node10" class="node">
<title>O_9</title>
<path fill="#aaaaee" stroke="#888888" d="M488,-36C488,-36 426,-36 426,-36 420,-36 414,-30 414,-24 414,-24 414,-12 414,-12 414,-6 420,0 426,0 426,0 488,0 488,0 494,0 500,-6 500,-12 500,-12 500,-24 500,-24 500,-30 494,-36 488,-36"/>
<text text-anchor="middle" x="457" y="-14.3" font-family="Times,serif" font-size="14.00" fill="#222222">Identity:0</text>
</g>
<!-- MatMul_8&#45;&gt;O_9 -->
<g id="edge9" class="edge">
<title>MatMul_8&#45;&gt;O_9</title>
<path fill="none" stroke="black" d="M457,-52.73C457,-50.66 457,-48.5 457,-46.32"/>
<polygon fill="black" stroke="black" points="457,-36.25 461.5,-46.25 457,-41.25 457,-46.25 457,-46.25 457,-46.25 457,-41.25 452.5,-46.25 457,-36.25 457,-36.25"/>
</g>
</g>
</svg>
