<?xml version="1.0" encoding="UTF-8" standalone="no"?>
<!DOCTYPE svg PUBLIC "-//W3C//DTD SVG 1.1//EN"
 "http://www.w3.org/Graphics/SVG/1.1/DTD/svg11.dtd">
<!-- Generated by graphviz version 2.43.0 (0)
 -->
<!-- Title: %3 Pages: 1 -->
<svg width="860pt" height="345pt"
 viewBox="0.00 0.00 860.00 345.00" xmlns="http://www.w3.org/2000/svg" xmlns:xlink="http://www.w3.org/1999/xlink">
<g id="graph0" class="graph" transform="scale(1 1) rotate(0) translate(4 341)">
<title>%3</title>
<!-- I_0 -->
<g id="node1" class="node">
<title>I_0</title>
<path fill="#aaeeaa" stroke="#888888" d="M153.5,-337C153.5,-337 71.5,-337 71.5,-337 65.5,-337 59.5,-331 59.5,-325 59.5,-325 59.5,-311 59.5,-311 59.5,-305 65.5,-299 71.5,-299 71.5,-299 153.5,-299 153.5,-299 159.5,-299 165.5,-305 165.5,-311 165.5,-311 165.5,-325 165.5,-325 165.5,-331 159.5,-337 153.5,-337"/>
<text text-anchor="middle" x="112.5" y="-321.8" font-family="Times,serif" font-size="14.00" fill="#222222">X</text>
<text text-anchor="middle" x="112.5" y="-306.8" font-family="Times,serif" font-size="14.00" fill="#222222">FLOAT(a,16)</text>
</g>
<!-- Split_9 -->
<g id="node10" class="node">
<title>Split_9</title>
<path fill="#cccccc" stroke="#888888" d="M240,-275C240,-275 127,-275 127,-275 121,-275 115,-269 115,-263 115,-263 115,-251 115,-251 115,-245 121,-239 127,-239 127,-239 240,-239 240,-239 246,-239 252,-245 252,-251 252,-251 252,-263 252,-263 252,-269 246,-275 240,-275"/>
<text text-anchor="middle" x="183.5" y="-253.3" font-family="Times,serif" font-size="14.00" fill="#222222">Split(., ., axis=1)</text>
</g>
<!-- I_0&#45;&gt;Split_9 -->
<g id="edge2" class="edge">
<title>I_0&#45;&gt;Split_9</title>
<path fill="none" stroke="black" d="M134.19,-298.98C140.75,-293.52 148.07,-287.44 155.01,-281.68"/>
<polygon fill="black" stroke="black" points="162.92,-275.1 158.1,-284.96 159.07,-278.3 155.23,-281.5 155.23,-281.5 155.23,-281.5 159.07,-278.3 152.35,-278.04 162.92,-275.1 162.92,-275.1"/>
<text text-anchor="middle" x="175.5" y="-285.4" font-family="Times,serif" font-size="7.00">FLOAT(a,16)</text>
</g>
<!-- I_1 -->
<g id="node2" class="node">
<title>I_1</title>
<path fill="#aaeeaa" stroke="#888888" d="M411.5,-337C411.5,-337 355.5,-337 355.5,-337 349.5,-337 343.5,-331 343.5,-325 343.5,-325 343.5,-311 343.5,-311 343.5,-305 349.5,-299 355.5,-299 355.5,-299 411.5,-299 411.5,-299 417.5,-299 423.5,-305 423.5,-311 423.5,-311 423.5,-325 423.5,-325 423.5,-331 417.5,-337 411.5,-337"/>
<text text-anchor="middle" x="383.5" y="-321.8" font-family="Times,serif" font-size="14.00" fill="#222222">split</text>
<text text-anchor="middle" x="383.5" y="-306.8" font-family="Times,serif" font-size="14.00" fill="#222222">INT64(2)</text>
</g>
<!-- I_2 -->
<g id="node3" class="node">
<title>I_2</title>
<path fill="#aaeeaa" stroke="#888888" d="M523,-337C523,-337 450,-337 450,-337 444,-337 438,-331 438,-325 438,-325 438,-311 438,-311 438,-305 444,-299 450,-299 450,-299 523,-299 523,-299 529,-299 535,-305 535,-311 535,-311 535,-325 535,-325 535,-331 529,-337 523,-337"/>
<text text-anchor="middle" x="486.5" y="-321.8" font-family="Times,serif" font-size="14.00" fill="#222222">x1</text>
<text text-anchor="middle" x="486.5" y="-306.8" font-family="Times,serif" font-size="14.00" fill="#222222">FLOAT(a,8)</text>
</g>
<!-- I_3 -->
<g id="node4" class="node">
<title>I_3</title>
<path fill="#aaeeaa" stroke="#888888" d="M617.5,-337C617.5,-337 561.5,-337 561.5,-337 555.5,-337 549.5,-331 549.5,-325 549.5,-325 549.5,-311 549.5,-311 549.5,-305 555.5,-299 561.5,-299 561.5,-299 617.5,-299 617.5,-299 623.5,-299 629.5,-305 629.5,-311 629.5,-311 629.5,-325 629.5,-325 629.5,-331 623.5,-337 617.5,-337"/>
<text text-anchor="middle" x="589.5" y="-321.8" font-family="Times,serif" font-size="14.00" fill="#222222">shape</text>
<text text-anchor="middle" x="589.5" y="-306.8" font-family="Times,serif" font-size="14.00" fill="#222222">INT64(2)</text>
</g>
<!-- I_4 -->
<g id="node5" class="node">
<title>I_4</title>
<path fill="#aaeeaa" stroke="#888888" d="M729,-337C729,-337 656,-337 656,-337 650,-337 644,-331 644,-325 644,-325 644,-311 644,-311 644,-305 650,-299 656,-299 656,-299 729,-299 729,-299 735,-299 741,-305 741,-311 741,-311 741,-325 741,-325 741,-331 735,-337 729,-337"/>
<text text-anchor="middle" x="692.5" y="-321.8" font-family="Times,serif" font-size="14.00" fill="#222222">nx1</text>
<text text-anchor="middle" x="692.5" y="-306.8" font-family="Times,serif" font-size="14.00" fill="#222222">FLOAT(a,8)</text>
</g>
<!-- I_5 -->
<g id="node6" class="node">
<title>I_5</title>
<path fill="#aaeeaa" stroke="#888888" d="M840,-337C840,-337 767,-337 767,-337 761,-337 755,-331 755,-325 755,-325 755,-311 755,-311 755,-305 761,-299 767,-299 767,-299 840,-299 840,-299 846,-299 852,-305 852,-311 852,-311 852,-325 852,-325 852,-331 846,-337 840,-337"/>
<text text-anchor="middle" x="803.5" y="-321.8" font-family="Times,serif" font-size="14.00" fill="#222222">x2</text>
<text text-anchor="middle" x="803.5" y="-306.8" font-family="Times,serif" font-size="14.00" fill="#222222">FLOAT(a,8)</text>
</g>
<!-- Constant_6 -->
<g id="node7" class="node">
<title>Constant_6</title>
<path fill="#cccccc" stroke="#888888" d="M540,-275C540,-275 405,-275 405,-275 399,-275 393,-269 393,-263 393,-263 393,-251 393,-251 393,-245 399,-239 405,-239 405,-239 540,-239 540,-239 546,-239 552,-245 552,-251 552,-251 552,-263 552,-263 552,-269 546,-275 540,-275"/>
<text text-anchor="middle" x="472.5" y="-253.3" font-family="Times,serif" font-size="14.00" fill="#222222">Constant() &#45;&gt; shape</text>
</g>
<!-- ConstantOfShape_8 -->
<g id="node9" class="node">
<title>ConstantOfShape_8</title>
<path fill="#cccccc" stroke="#888888" d="M513,-214C513,-214 380,-214 380,-214 374,-214 368,-208 368,-202 368,-202 368,-190 368,-190 368,-184 374,-178 380,-178 380,-178 513,-178 513,-178 519,-178 525,-184 525,-190 525,-190 525,-202 525,-202 525,-208 519,-214 513,-214"/>
<text text-anchor="middle" x="446.5" y="-192.3" font-family="Times,serif" font-size="14.00" fill="#222222">ConstantOfShape(.)</text>
</g>
<!-- Constant_6&#45;&gt;ConstantOfShape_8 -->
<g id="edge1" class="edge">
<title>Constant_6&#45;&gt;ConstantOfShape_8</title>
<path fill="none" stroke="black" d="M464.98,-238.93C462.84,-234.09 460.46,-228.69 458.14,-223.42"/>
<polygon fill="black" stroke="black" points="454.09,-214.23 462.24,-221.57 456.11,-218.81 458.13,-223.38 458.13,-223.38 458.13,-223.38 456.11,-218.81 454.01,-225.2 454.09,-214.23 454.09,-214.23"/>
<text text-anchor="middle" x="477.5" y="-225.4" font-family="Times,serif" font-size="7.00">INT64(2)</text>
</g>
<!-- ConstantOfShape_12 -->
<g id="node13" class="node">
<title>ConstantOfShape_12</title>
<path fill="#cccccc" stroke="#888888" d="M684,-214C684,-214 551,-214 551,-214 545,-214 539,-208 539,-202 539,-202 539,-190 539,-190 539,-184 545,-178 551,-178 551,-178 684,-178 684,-178 690,-178 696,-184 696,-190 696,-190 696,-202 696,-202 696,-208 690,-214 684,-214"/>
<text text-anchor="middle" x="617.5" y="-192.3" font-family="Times,serif" font-size="14.00" fill="#222222">ConstantOfShape(.)</text>
</g>
<!-- Constant_6&#45;&gt;ConstantOfShape_12 -->
<g id="edge7" class="edge">
<title>Constant_6&#45;&gt;ConstantOfShape_12</title>
<path fill="none" stroke="black" d="M514.44,-238.93C530.52,-232.39 549.06,-224.85 565.94,-217.98"/>
<polygon fill="black" stroke="black" points="575.65,-214.03 568.09,-221.96 571.02,-215.91 566.39,-217.8 566.39,-217.8 566.39,-217.8 571.02,-215.91 564.7,-213.63 575.65,-214.03 575.65,-214.03"/>
<text text-anchor="middle" x="565.5" y="-225.4" font-family="Times,serif" font-size="7.00">INT64(2)</text>
</g>
<!-- Constant_7 -->
<g id="node8" class="node">
<title>Constant_7</title>
<path fill="#cccccc" stroke="#888888" d="M317,-336C317,-336 192,-336 192,-336 186,-336 180,-330 180,-324 180,-324 180,-312 180,-312 180,-306 186,-300 192,-300 192,-300 317,-300 317,-300 323,-300 329,-306 329,-312 329,-312 329,-324 329,-324 329,-330 323,-336 317,-336"/>
<text text-anchor="middle" x="254.5" y="-314.3" font-family="Times,serif" font-size="14.00" fill="#222222">Constant() &#45;&gt; split</text>
</g>
<!-- Constant_7&#45;&gt;Split_9 -->
<g id="edge3" class="edge">
<title>Constant_7&#45;&gt;Split_9</title>
<path fill="none" stroke="black" d="M233.96,-299.93C227.11,-294.24 219.34,-287.78 211.99,-281.67"/>
<polygon fill="black" stroke="black" points="204.24,-275.23 214.8,-278.16 208.08,-278.43 211.93,-281.62 211.93,-281.62 211.93,-281.62 208.08,-278.43 209.05,-285.08 204.24,-275.23 204.24,-275.23"/>
<text text-anchor="middle" x="238.5" y="-285.4" font-family="Times,serif" font-size="7.00">INT64(2)</text>
</g>
<!-- Neg_10 -->
<g id="node11" class="node">
<title>Neg_10</title>
<path fill="#cccccc" stroke="#888888" d="M271,-214C271,-214 234,-214 234,-214 228,-214 222,-208 222,-202 222,-202 222,-190 222,-190 222,-184 228,-178 234,-178 234,-178 271,-178 271,-178 277,-178 283,-184 283,-190 283,-190 283,-202 283,-202 283,-208 277,-214 271,-214"/>
<text text-anchor="middle" x="252.5" y="-192.3" font-family="Times,serif" font-size="14.00" fill="#222222">Neg(.)</text>
</g>
<!-- Split_9&#45;&gt;Neg_10 -->
<g id="edge4" class="edge">
<title>Split_9&#45;&gt;Neg_10</title>
<path fill="none" stroke="black" d="M203.46,-238.93C209.98,-233.36 217.35,-227.05 224.36,-221.06"/>
<polygon fill="black" stroke="black" points="232.35,-214.23 227.67,-224.15 228.55,-217.48 224.75,-220.73 224.75,-220.73 224.75,-220.73 228.55,-217.48 221.82,-217.31 232.35,-214.23 232.35,-214.23"/>
<text text-anchor="middle" x="241.5" y="-225.4" font-family="Times,serif" font-size="7.00">FLOAT(a,8)</text>
</g>
<!-- Concat_13 -->
<g id="node14" class="node">
<title>Concat_13</title>
<path fill="#cccccc" stroke="#888888" d="M563,-152C563,-152 434,-152 434,-152 428,-152 422,-146 422,-140 422,-140 422,-128 422,-128 422,-122 428,-116 434,-116 434,-116 563,-116 563,-116 569,-116 575,-122 575,-128 575,-128 575,-140 575,-140 575,-146 569,-152 563,-152"/>
<text text-anchor="middle" x="498.5" y="-130.3" font-family="Times,serif" font-size="14.00" fill="#222222">Concat(., ., axis=1)</text>
</g>
<!-- Split_9&#45;&gt;Concat_13 -->
<g id="edge9" class="edge">
<title>Split_9&#45;&gt;Concat_13</title>
<path fill="none" stroke="black" d="M246.45,-238.88C252.99,-236.49 259.45,-233.86 265.5,-231 277.09,-225.52 280.08,-223.69 289.5,-215 305.31,-200.41 301.34,-188.55 319.5,-177 323.8,-174.26 368.44,-163.79 412.06,-153.98"/>
<polygon fill="black" stroke="black" points="421.92,-151.77 413.15,-158.35 417.04,-152.87 412.16,-153.96 412.16,-153.96 412.16,-153.96 417.04,-152.87 411.18,-149.57 421.92,-151.77 421.92,-151.77"/>
<text text-anchor="middle" x="340.5" y="-194.4" font-family="Times,serif" font-size="7.00">FLOAT(a,8)</text>
</g>
<!-- O_17 -->
<g id="node18" class="node">
<title>O_17</title>
<path fill="#aaaaee" stroke="#888888" d="M85,-215C85,-215 12,-215 12,-215 6,-215 0,-209 0,-203 0,-203 0,-189 0,-189 0,-183 6,-177 12,-177 12,-177 85,-177 85,-177 91,-177 97,-183 97,-189 97,-189 97,-203 97,-203 97,-209 91,-215 85,-215"/>
<text text-anchor="middle" x="48.5" y="-199.8" font-family="Times,serif" font-size="14.00" fill="#222222">x1</text>
<text text-anchor="middle" x="48.5" y="-184.8" font-family="Times,serif" font-size="14.00" fill="#222222">FLOAT(a,8)</text>
</g>
<!-- Split_9&#45;&gt;O_17 -->
<g id="edge14" class="edge">
<title>Split_9&#45;&gt;O_17</title>
<path fill="none" stroke="black" d="M144.45,-238.93C130.27,-232.73 114.03,-225.64 98.99,-219.07"/>
<polygon fill="black" stroke="black" points="89.81,-215.06 100.78,-214.94 94.39,-217.06 98.98,-219.06 98.98,-219.06 98.98,-219.06 94.39,-217.06 97.17,-223.18 89.81,-215.06 89.81,-215.06"/>
</g>
<!-- O_19 -->
<g id="node20" class="node">
<title>O_19</title>
<path fill="#aaaaee" stroke="#888888" d="M196,-215C196,-215 123,-215 123,-215 117,-215 111,-209 111,-203 111,-203 111,-189 111,-189 111,-183 117,-177 123,-177 123,-177 196,-177 196,-177 202,-177 208,-183 208,-189 208,-189 208,-203 208,-203 208,-209 202,-215 196,-215"/>
<text text-anchor="middle" x="159.5" y="-199.8" font-family="Times,serif" font-size="14.00" fill="#222222">x2</text>
<text text-anchor="middle" x="159.5" y="-184.8" font-family="Times,serif" font-size="14.00" fill="#222222">FLOAT(a,8)</text>
</g>
<!-- Split_9&#45;&gt;O_19 -->
<g id="edge16" class="edge">
<title>Split_9&#45;&gt;O_19</title>
<path fill="none" stroke="black" d="M176.56,-238.93C174.7,-234.37 172.65,-229.32 170.63,-224.36"/>
<polygon fill="black" stroke="black" points="166.84,-215.06 174.78,-222.62 168.73,-219.69 170.61,-224.32 170.61,-224.32 170.61,-224.32 168.73,-219.69 166.44,-226.01 166.84,-215.06 166.84,-215.06"/>
</g>
<!-- Concat_11 -->
<g id="node12" class="node">
<title>Concat_11</title>
<path fill="#cccccc" stroke="#888888" d="M396,-152C396,-152 267,-152 267,-152 261,-152 255,-146 255,-140 255,-140 255,-128 255,-128 255,-122 261,-116 267,-116 267,-116 396,-116 396,-116 402,-116 408,-122 408,-128 408,-128 408,-140 408,-140 408,-146 402,-152 396,-152"/>
<text text-anchor="middle" x="331.5" y="-130.3" font-family="Times,serif" font-size="14.00" fill="#222222">Concat(., ., axis=1)</text>
</g>
<!-- Neg_10&#45;&gt;Concat_11 -->
<g id="edge5" class="edge">
<title>Neg_10&#45;&gt;Concat_11</title>
<path fill="none" stroke="black" d="M252.12,-177.96C252.8,-172.02 254.55,-165.67 258.5,-161 259.13,-160.26 259.78,-159.54 260.45,-158.84"/>
<polygon fill="black" stroke="black" points="268.35,-152.1 263.66,-162.01 264.55,-155.34 260.74,-158.59 260.74,-158.59 260.74,-158.59 264.55,-155.34 257.82,-155.16 268.35,-152.1 268.35,-152.1"/>
<text text-anchor="middle" x="279.5" y="-163.4" font-family="Times,serif" font-size="7.00">FLOAT(a,8)</text>
</g>
<!-- O_18 -->
<g id="node19" class="node">
<title>O_18</title>
<path fill="#aaaaee" stroke="#888888" d="M229,-153C229,-153 156,-153 156,-153 150,-153 144,-147 144,-141 144,-141 144,-127 144,-127 144,-121 150,-115 156,-115 156,-115 229,-115 229,-115 235,-115 241,-121 241,-127 241,-127 241,-141 241,-141 241,-147 235,-153 229,-153"/>
<text text-anchor="middle" x="192.5" y="-137.8" font-family="Times,serif" font-size="14.00" fill="#222222">nx1</text>
<text text-anchor="middle" x="192.5" y="-122.8" font-family="Times,serif" font-size="14.00" fill="#222222">FLOAT(a,8)</text>
</g>
<!-- Neg_10&#45;&gt;O_18 -->
<g id="edge15" class="edge">
<title>Neg_10&#45;&gt;O_18</title>
<path fill="none" stroke="black" d="M235.47,-177.97C230.01,-172.51 223.84,-166.34 217.92,-160.42"/>
<polygon fill="black" stroke="black" points="210.62,-153.12 220.88,-157.01 214.16,-156.66 217.7,-160.2 217.7,-160.2 217.7,-160.2 214.16,-156.66 214.51,-163.38 210.62,-153.12 210.62,-153.12"/>
</g>
<!-- Add_14 -->
<g id="node15" class="node">
<title>Add_14</title>
<path fill="#cccccc" stroke="#888888" d="M439,-91C439,-91 390,-91 390,-91 384,-91 378,-85 378,-79 378,-79 378,-67 378,-67 378,-61 384,-55 390,-55 390,-55 439,-55 439,-55 445,-55 451,-61 451,-67 451,-67 451,-79 451,-79 451,-85 445,-91 439,-91"/>
<text text-anchor="middle" x="414.5" y="-69.3" font-family="Times,serif" font-size="14.00" fill="#222222">Add(., .)</text>
</g>
<!-- Concat_11&#45;&gt;Add_14 -->
<g id="edge10" class="edge">
<title>Concat_11&#45;&gt;Add_14</title>
<path fill="none" stroke="black" d="M355.51,-115.93C363.85,-110 373.35,-103.25 382.25,-96.92"/>
<polygon fill="black" stroke="black" points="390.55,-91.03 385,-100.49 386.47,-93.92 382.4,-96.82 382.4,-96.82 382.4,-96.82 386.47,-93.92 379.79,-93.15 390.55,-91.03 390.55,-91.03"/>
<text text-anchor="middle" x="400.5" y="-101.4" font-family="Times,serif" font-size="7.00">FLOAT(a,16)</text>
</g>
<!-- ConstantOfShape_12&#45;&gt;Concat_11 -->
<g id="edge6" class="edge">
<title>ConstantOfShape_12&#45;&gt;Concat_11</title>
<path fill="none" stroke="black" d="M538.78,-178.31C536.66,-177.87 534.57,-177.43 532.5,-177 483.58,-166.8 469.12,-164.19 418.32,-153.58"/>
<polygon fill="black" stroke="black" points="408.4,-151.51 419.11,-149.15 413.29,-152.53 418.19,-153.56 418.19,-153.56 418.19,-153.56 413.29,-152.53 417.26,-157.96 408.4,-151.51 408.4,-151.51"/>
<text text-anchor="middle" x="512.5" y="-163.4" font-family="Times,serif" font-size="7.00">FLOAT(3,8)</text>
</g>
<!-- ConstantOfShape_12&#45;&gt;Concat_13 -->
<g id="edge8" class="edge">
<title>ConstantOfShape_12&#45;&gt;Concat_13</title>
<path fill="none" stroke="black" d="M583.72,-177.97C570.53,-171.32 555.25,-163.61 541.3,-156.58"/>
<polygon fill="black" stroke="black" points="532.37,-152.08 543.32,-152.56 536.83,-154.33 541.3,-156.58 541.3,-156.58 541.3,-156.58 536.83,-154.33 539.27,-160.6 532.37,-152.08 532.37,-152.08"/>
<text text-anchor="middle" x="585.5" y="-163.4" font-family="Times,serif" font-size="7.00">FLOAT(3,8)</text>
</g>
<!-- O_16 -->
<g id="node17" class="node">
<title>O_16</title>
<path fill="#aaaaee" stroke="#888888" d="M675.5,-153C675.5,-153 601.5,-153 601.5,-153 595.5,-153 589.5,-147 589.5,-141 589.5,-141 589.5,-127 589.5,-127 589.5,-121 595.5,-115 601.5,-115 601.5,-115 675.5,-115 675.5,-115 681.5,-115 687.5,-121 687.5,-127 687.5,-127 687.5,-141 687.5,-141 687.5,-147 681.5,-153 675.5,-153"/>
<text text-anchor="middle" x="638.5" y="-137.8" font-family="Times,serif" font-size="14.00" fill="#222222">zero</text>
<text text-anchor="middle" x="638.5" y="-122.8" font-family="Times,serif" font-size="14.00" fill="#222222">FLOAT(3,8)</text>
</g>
<!-- ConstantOfShape_12&#45;&gt;O_16 -->
<g id="edge13" class="edge">
<title>ConstantOfShape_12&#45;&gt;O_16</title>
<path fill="none" stroke="black" d="M623.46,-177.97C625.12,-173.24 626.96,-167.98 628.77,-162.8"/>
<polygon fill="black" stroke="black" points="632.16,-153.12 633.1,-164.05 630.5,-157.84 628.85,-162.56 628.85,-162.56 628.85,-162.56 630.5,-157.84 624.61,-161.08 632.16,-153.12 632.16,-153.12"/>
</g>
<!-- Concat_13&#45;&gt;Add_14 -->
<g id="edge11" class="edge">
<title>Concat_13&#45;&gt;Add_14</title>
<path fill="none" stroke="black" d="M474.2,-115.93C465.76,-110 456.14,-103.25 447.14,-96.92"/>
<polygon fill="black" stroke="black" points="438.74,-91.03 449.51,-93.09 442.83,-93.9 446.92,-96.77 446.92,-96.77 446.92,-96.77 442.83,-93.9 444.34,-100.46 438.74,-91.03 438.74,-91.03"/>
<text text-anchor="middle" x="481.5" y="-101.4" font-family="Times,serif" font-size="7.00">FLOAT(3,16)</text>
</g>
<!-- O_15 -->
<g id="node16" class="node">
<title>O_15</title>
<path fill="#aaaaee" stroke="#888888" d="M455.5,-38C455.5,-38 373.5,-38 373.5,-38 367.5,-38 361.5,-32 361.5,-26 361.5,-26 361.5,-12 361.5,-12 361.5,-6 367.5,0 373.5,0 373.5,0 455.5,0 455.5,0 461.5,0 467.5,-6 467.5,-12 467.5,-12 467.5,-26 467.5,-26 467.5,-32 461.5,-38 455.5,-38"/>
<text text-anchor="middle" x="414.5" y="-22.8" font-family="Times,serif" font-size="14.00" fill="#222222">Y</text>
<text text-anchor="middle" x="414.5" y="-7.8" font-family="Times,serif" font-size="14.00" fill="#222222">FLOAT(a,16)</text>
</g>
<!-- Add_14&#45;&gt;O_15 -->
<g id="edge12" class="edge">
<title>Add_14&#45;&gt;O_15</title>
<path fill="none" stroke="black" d="M414.5,-54.97C414.5,-52.89 414.5,-50.72 414.5,-48.53"/>
<polygon fill="black" stroke="black" points="414.5,-38.32 419,-48.32 414.5,-43.32 414.5,-48.32 414.5,-48.32 414.5,-48.32 414.5,-43.32 410,-48.32 414.5,-38.32 414.5,-38.32"/>
</g>
</g>
</svg>
