<?xml version="1.0" encoding="UTF-8" standalone="no"?>
<!DOCTYPE svg PUBLIC "-//W3C//DTD SVG 1.1//EN"
 "http://www.w3.org/Graphics/SVG/1.1/DTD/svg11.dtd">
<!-- Generated by graphviz version 2.43.0 (0)
 -->
<!-- Title: %3 Pages: 1 -->
<svg width="394pt" height="161pt"
 viewBox="0.00 0.00 394.00 161.00" xmlns="http://www.w3.org/2000/svg" xmlns:xlink="http://www.w3.org/1999/xlink">
<g id="graph0" class="graph" transform="scale(1 1) rotate(0) translate(4 157)">
<title>%3</title>
<!-- I_0 -->
<g id="node1" class="node">
<title>I_0</title>
<path fill="#aaeeaa" stroke="#888888" d="M68,-153C68,-153 12,-153 12,-153 6,-153 0,-147 0,-141 0,-141 0,-127 0,-127 0,-121 6,-115 12,-115 12,-115 68,-115 68,-115 74,-115 80,-121 80,-127 80,-127 80,-141 80,-141 80,-147 74,-153 68,-153"/>
<text text-anchor="middle" x="40" y="-137.8" font-family="Times,serif" font-size="14.00" fill="#222222">shape2</text>
<text text-anchor="middle" x="40" y="-122.8" font-family="Times,serif" font-size="14.00" fill="#222222">INT64(3)</text>
</g>
<!-- I_1 -->
<g id="node2" class="node">
<title>I_1</title>
<path fill="#aaeeaa" stroke="#888888" d="M191.5,-153C191.5,-153 106.5,-153 106.5,-153 100.5,-153 94.5,-147 94.5,-141 94.5,-141 94.5,-127 94.5,-127 94.5,-121 100.5,-115 106.5,-115 106.5,-115 191.5,-115 191.5,-115 197.5,-115 203.5,-121 203.5,-127 203.5,-127 203.5,-141 203.5,-141 203.5,-147 197.5,-153 191.5,-153"/>
<text text-anchor="middle" x="149" y="-137.8" font-family="Times,serif" font-size="14.00" fill="#222222">X</text>
<text text-anchor="middle" x="149" y="-122.8" font-family="Times,serif" font-size="14.00" fill="#222222">FLOAT(a,b,c)</text>
</g>
<!-- Reshape_3 -->
<g id="node4" class="node">
<title>Reshape_3</title>
<path fill="#eeeeee" stroke="#888888" d="M266,-91C266,-91 184,-91 184,-91 178,-91 172,-85 172,-79 172,-79 172,-67 172,-67 172,-61 178,-55 184,-55 184,-55 266,-55 266,-55 272,-55 278,-61 278,-67 278,-67 278,-79 278,-79 278,-85 272,-91 266,-91"/>
<text text-anchor="middle" x="225" y="-69.3" font-family="Times,serif" font-size="14.00" fill="#222222">Reshape(., .)</text>
</g>
<!-- I_1&#45;&gt;Reshape_3 -->
<g id="edge1" class="edge">
<title>I_1&#45;&gt;Reshape_3</title>
<path fill="none" stroke="black" d="M172.22,-114.98C179.4,-109.4 187.41,-103.18 194.98,-97.3"/>
<polygon fill="black" stroke="black" points="202.97,-91.1 197.83,-100.79 199.02,-94.17 195.07,-97.24 195.07,-97.24 195.07,-97.24 199.02,-94.17 192.31,-93.68 202.97,-91.1 202.97,-91.1"/>
<text text-anchor="middle" x="216" y="-101.4" font-family="Times,serif" font-size="7.00">FLOAT(a,b,c)</text>
</g>
<!-- Constant_2 -->
<g id="node3" class="node">
<title>Constant_2</title>
<path fill="#cccccc" stroke="#888888" d="M374,-152C374,-152 230,-152 230,-152 224,-152 218,-146 218,-140 218,-140 218,-128 218,-128 218,-122 224,-116 230,-116 230,-116 374,-116 374,-116 380,-116 386,-122 386,-128 386,-128 386,-140 386,-140 386,-146 380,-152 374,-152"/>
<text text-anchor="middle" x="302" y="-130.3" font-family="Times,serif" font-size="14.00" fill="#222222">Constant() &#45;&gt; shape2</text>
</g>
<!-- Constant_2&#45;&gt;Reshape_3 -->
<g id="edge2" class="edge">
<title>Constant_2&#45;&gt;Reshape_3</title>
<path fill="none" stroke="black" d="M279.73,-115.93C272.07,-110.06 263.36,-103.39 255.17,-97.12"/>
<polygon fill="black" stroke="black" points="247.22,-91.03 257.9,-93.54 251.19,-94.07 255.16,-97.11 255.16,-97.11 255.16,-97.11 251.19,-94.07 252.42,-100.68 247.22,-91.03 247.22,-91.03"/>
<text text-anchor="middle" x="282" y="-101.4" font-family="Times,serif" font-size="7.00">INT64(3)</text>
</g>
<!-- O_4 -->
<g id="node5" class="node">
<title>O_4</title>
<path fill="#aaaaee" stroke="#888888" d="M267.5,-38C267.5,-38 182.5,-38 182.5,-38 176.5,-38 170.5,-32 170.5,-26 170.5,-26 170.5,-12 170.5,-12 170.5,-6 176.5,0 182.5,0 182.5,0 267.5,0 267.5,0 273.5,0 279.5,-6 279.5,-12 279.5,-12 279.5,-26 279.5,-26 279.5,-32 273.5,-38 267.5,-38"/>
<text text-anchor="middle" x="225" y="-22.8" font-family="Times,serif" font-size="14.00" fill="#222222">xrr</text>
<text text-anchor="middle" x="225" y="-7.8" font-family="Times,serif" font-size="14.00" fill="#222222">FLOAT(a,b,c)</text>
</g>
<!-- Reshape_3&#45;&gt;O_4 -->
<g id="edge3" class="edge">
<title>Reshape_3&#45;&gt;O_4</title>
<path fill="none" stroke="black" d="M225,-54.97C225,-52.89 225,-50.72 225,-48.53"/>
<polygon fill="black" stroke="black" points="225,-38.32 229.5,-48.32 225,-43.32 225,-48.32 225,-48.32 225,-48.32 225,-43.32 220.5,-48.32 225,-38.32 225,-38.32"/>
</g>
</g>
</svg>
