<?xml version="1.0" encoding="UTF-8" standalone="no"?>
<!DOCTYPE svg PUBLIC "-//W3C//DTD SVG 1.1//EN"
 "http://www.w3.org/Graphics/SVG/1.1/DTD/svg11.dtd">
<!-- Generated by graphviz version 2.43.0 (0)
 -->
<!-- Title: %3 Pages: 1 -->
<svg width="448pt" height="225pt"
 viewBox="0.00 0.00 448.00 225.00" xmlns="http://www.w3.org/2000/svg" xmlns:xlink="http://www.w3.org/1999/xlink">
<g id="graph0" class="graph" transform="scale(1 1) rotate(0) translate(4 221)">
<title>%3</title>
<!-- I_0 -->
<g id="node1" class="node">
<title>I_0</title>
<path fill="#aaeeaa" stroke="#888888" d="M115,-217C115,-217 12,-217 12,-217 6,-217 0,-211 0,-205 0,-205 0,-191 0,-191 0,-185 6,-179 12,-179 12,-179 115,-179 115,-179 121,-179 127,-185 127,-191 127,-191 127,-205 127,-205 127,-211 121,-217 115,-217"/>
<text text-anchor="middle" x="63.5" y="-201.8" font-family="Times,serif" font-size="14.00" fill="#222222">X2</text>
<text text-anchor="middle" x="63.5" y="-186.8" font-family="Times,serif" font-size="14.00" fill="#222222">FLOAT16(a,b,c)</text>
</g>
<!-- Add_4 -->
<g id="node5" class="node">
<title>Add_4</title>
<path fill="#cccccc" stroke="#888888" d="M158,-154C158,-154 109,-154 109,-154 103,-154 97,-148 97,-142 97,-142 97,-130 97,-130 97,-124 103,-118 109,-118 109,-118 158,-118 158,-118 164,-118 170,-124 170,-130 170,-130 170,-142 170,-142 170,-148 164,-154 158,-154"/>
<text text-anchor="middle" x="133.5" y="-132.3" font-family="Times,serif" font-size="14.00" fill="#222222">Add(., .)</text>
</g>
<!-- I_0&#45;&gt;Add_4 -->
<g id="edge2" class="edge">
<title>I_0&#45;&gt;Add_4</title>
<path fill="none" stroke="black" d="M84.5,-179C91.1,-173.34 98.5,-167 105.5,-161"/>
<polygon fill="black" stroke="black" points="113.47,-154.17 108.81,-164.09 109.68,-157.42 105.88,-160.67 105.88,-160.67 105.88,-160.67 109.68,-157.42 102.95,-157.26 113.47,-154.17 113.47,-154.17"/>
<text text-anchor="middle" x="132" y="-165.4" font-family="Times,serif" font-size="7.00">FLOAT16(a,b,c)</text>
</g>
<!-- I_1 -->
<g id="node2" class="node">
<title>I_1</title>
<path fill="#aaeeaa" stroke="#888888" d="M256,-217C256,-217 153,-217 153,-217 147,-217 141,-211 141,-205 141,-205 141,-191 141,-191 141,-185 147,-179 153,-179 153,-179 256,-179 256,-179 262,-179 268,-185 268,-191 268,-191 268,-205 268,-205 268,-211 262,-217 256,-217"/>
<text text-anchor="middle" x="204.5" y="-201.8" font-family="Times,serif" font-size="14.00" fill="#222222">X1</text>
<text text-anchor="middle" x="204.5" y="-186.8" font-family="Times,serif" font-size="14.00" fill="#222222">FLOAT16(a,b,c)</text>
</g>
<!-- I_1&#45;&gt;Add_4 -->
<g id="edge1" class="edge">
<title>I_1&#45;&gt;Add_4</title>
<path fill="none" stroke="black" d="M183.2,-179C176.5,-173.34 169,-167 161.9,-161"/>
<polygon fill="black" stroke="black" points="153.81,-154.17 164.36,-157.18 157.63,-157.39 161.45,-160.62 161.45,-160.62 161.45,-160.62 157.63,-157.39 158.55,-164.06 153.81,-154.17 153.81,-154.17"/>
<text text-anchor="middle" x="202" y="-165.4" font-family="Times,serif" font-size="7.00">FLOAT16(a,b,c)</text>
</g>
<!-- I_2 -->
<g id="node3" class="node">
<title>I_2</title>
<path fill="#aaeeaa" stroke="#888888" d="M306,-155C306,-155 229,-155 229,-155 223,-155 217,-149 217,-143 217,-143 217,-129 217,-129 217,-123 223,-117 229,-117 229,-117 306,-117 306,-117 312,-117 318,-123 318,-129 318,-129 318,-143 318,-143 318,-149 312,-155 306,-155"/>
<text text-anchor="middle" x="267.5" y="-139.8" font-family="Times,serif" font-size="14.00" fill="#222222">scale</text>
<text text-anchor="middle" x="267.5" y="-124.8" font-family="Times,serif" font-size="14.00" fill="#222222">FLOAT16(c)</text>
</g>
<!-- LayerNormalization_5 -->
<g id="node6" class="node">
<title>LayerNormalization_5</title>
<path fill="#cccccc" stroke="#888888" d="M428,-92C428,-92 189,-92 189,-92 183,-92 177,-86 177,-80 177,-80 177,-68 177,-68 177,-62 183,-56 189,-56 189,-56 428,-56 428,-56 434,-56 440,-62 440,-68 440,-68 440,-80 440,-80 440,-86 434,-92 428,-92"/>
<text text-anchor="middle" x="308.5" y="-70.3" font-family="Times,serif" font-size="14.00" fill="#222222">LayerNormalization(., ., ., axis=&#45;1)</text>
</g>
<!-- I_2&#45;&gt;LayerNormalization_5 -->
<g id="edge4" class="edge">
<title>I_2&#45;&gt;LayerNormalization_5</title>
<path fill="none" stroke="black" d="M279.8,-117C283.33,-111.83 287.25,-106.1 291.03,-100.57"/>
<polygon fill="black" stroke="black" points="296.77,-92.17 294.84,-102.96 293.95,-96.29 291.13,-100.42 291.13,-100.42 291.13,-100.42 293.95,-96.29 287.41,-97.88 296.77,-92.17 296.77,-92.17"/>
<text text-anchor="middle" x="312" y="-103.4" font-family="Times,serif" font-size="7.00">FLOAT16(c)</text>
</g>
<!-- I_3 -->
<g id="node4" class="node">
<title>I_3</title>
<path fill="#aaeeaa" stroke="#888888" d="M421,-155C421,-155 344,-155 344,-155 338,-155 332,-149 332,-143 332,-143 332,-129 332,-129 332,-123 338,-117 344,-117 344,-117 421,-117 421,-117 427,-117 433,-123 433,-129 433,-129 433,-143 433,-143 433,-149 427,-155 421,-155"/>
<text text-anchor="middle" x="382.5" y="-139.8" font-family="Times,serif" font-size="14.00" fill="#222222">bias</text>
<text text-anchor="middle" x="382.5" y="-124.8" font-family="Times,serif" font-size="14.00" fill="#222222">FLOAT16(c)</text>
</g>
<!-- I_3&#45;&gt;LayerNormalization_5 -->
<g id="edge5" class="edge">
<title>I_3&#45;&gt;LayerNormalization_5</title>
<path fill="none" stroke="black" d="M360.3,-117C353.17,-111.22 345.16,-104.73 337.62,-98.61"/>
<polygon fill="black" stroke="black" points="329.67,-92.17 340.27,-94.97 333.56,-95.32 337.44,-98.46 337.44,-98.46 337.44,-98.46 333.56,-95.32 334.6,-101.96 329.67,-92.17 329.67,-92.17"/>
<text text-anchor="middle" x="371" y="-103.4" font-family="Times,serif" font-size="7.00">FLOAT16(c)</text>
</g>
<!-- Add_4&#45;&gt;LayerNormalization_5 -->
<g id="edge3" class="edge">
<title>Add_4&#45;&gt;LayerNormalization_5</title>
<path fill="none" stroke="black" d="M170.03,-121.23C187.12,-114.89 207.79,-107.38 226.5,-101 232.11,-99.08 237.96,-97.14 243.83,-95.22"/>
<polygon fill="black" stroke="black" points="253.7,-92.01 245.58,-99.38 248.94,-93.56 244.19,-95.1 244.19,-95.1 244.19,-95.1 248.94,-93.56 242.8,-90.82 253.7,-92.01 253.7,-92.01"/>
<text text-anchor="middle" x="255" y="-103.4" font-family="Times,serif" font-size="7.00">FLOAT16(a,b,c)</text>
</g>
<!-- O_6 -->
<g id="node7" class="node">
<title>O_6</title>
<path fill="#aaaaee" stroke="#888888" d="M151,-93C151,-93 48,-93 48,-93 42,-93 36,-87 36,-81 36,-81 36,-67 36,-67 36,-61 42,-55 48,-55 48,-55 151,-55 151,-55 157,-55 163,-61 163,-67 163,-67 163,-81 163,-81 163,-87 157,-93 151,-93"/>
<text text-anchor="middle" x="99.5" y="-77.8" font-family="Times,serif" font-size="14.00" fill="#222222">add</text>
<text text-anchor="middle" x="99.5" y="-62.8" font-family="Times,serif" font-size="14.00" fill="#222222">FLOAT16(a,b,c)</text>
</g>
<!-- Add_4&#45;&gt;O_6 -->
<g id="edge6" class="edge">
<title>Add_4&#45;&gt;O_6</title>
<path fill="none" stroke="black" d="M123.85,-117.97C121.03,-113 117.88,-107.44 114.8,-102.01"/>
<polygon fill="black" stroke="black" points="109.77,-93.12 118.62,-99.61 112.24,-97.47 114.7,-101.82 114.7,-101.82 114.7,-101.82 112.24,-97.47 110.79,-104.04 109.77,-93.12 109.77,-93.12"/>
</g>
<!-- O_7 -->
<g id="node8" class="node">
<title>O_7</title>
<path fill="#aaaaee" stroke="#888888" d="M360,-38C360,-38 257,-38 257,-38 251,-38 245,-32 245,-26 245,-26 245,-12 245,-12 245,-6 251,0 257,0 257,0 360,0 360,0 366,0 372,-6 372,-12 372,-12 372,-26 372,-26 372,-32 366,-38 360,-38"/>
<text text-anchor="middle" x="308.5" y="-22.8" font-family="Times,serif" font-size="14.00" fill="#222222">Y</text>
<text text-anchor="middle" x="308.5" y="-7.8" font-family="Times,serif" font-size="14.00" fill="#222222">FLOAT16(a,b,c)</text>
</g>
<!-- LayerNormalization_5&#45;&gt;O_7 -->
<g id="edge7" class="edge">
<title>LayerNormalization_5&#45;&gt;O_7</title>
<path fill="none" stroke="black" d="M308.5,-55.94C308.5,-53.45 308.5,-50.83 308.5,-48.19"/>
<polygon fill="black" stroke="black" points="308.5,-38.13 313,-48.13 308.5,-43.13 308.5,-48.13 308.5,-48.13 308.5,-48.13 308.5,-43.13 304,-48.13 308.5,-38.13 308.5,-38.13"/>
</g>
</g>
</svg>
