<?xml version="1.0" encoding="UTF-8" standalone="no"?>
<!DOCTYPE svg PUBLIC "-//W3C//DTD SVG 1.1//EN"
 "http://www.w3.org/Graphics/SVG/1.1/DTD/svg11.dtd">
<!-- Generated by graphviz version 2.43.0 (0)
 -->
<!-- Title: %3 Pages: 1 -->
<svg width="538pt" height="541pt"
 viewBox="0.00 0.00 538.00 541.00" xmlns="http://www.w3.org/2000/svg" xmlns:xlink="http://www.w3.org/1999/xlink">
<g id="graph0" class="graph" transform="scale(1 1) rotate(0) translate(4 537)">
<title>%3</title>
<!-- I_0 -->
<g id="node1" class="node">
<title>I_0</title>
<path fill="#aaeeaa" stroke="#888888" d="M269,-533C269,-533 165,-533 165,-533 159,-533 153,-527 153,-521 153,-521 153,-507 153,-507 153,-501 159,-495 165,-495 165,-495 269,-495 269,-495 275,-495 281,-501 281,-507 281,-507 281,-521 281,-521 281,-527 275,-533 269,-533"/>
<text text-anchor="middle" x="217" y="-517.8" font-family="Times,serif" font-size="14.00" fill="#222222">X</text>
<text text-anchor="middle" x="217" y="-502.8" font-family="Times,serif" font-size="14.00" fill="#222222">FLOAT(batch,4)</text>
</g>
<!-- Sub_2 -->
<g id="node3" class="node">
<title>Sub_2</title>
<path fill="#cccccc" stroke="#888888" d="M422,-471C422,-471 12,-471 12,-471 6,-471 0,-465 0,-459 0,-459 0,-445 0,-445 0,-439 6,-433 12,-433 12,-433 422,-433 422,-433 428,-433 434,-439 434,-445 434,-445 434,-459 434,-459 434,-465 428,-471 422,-471"/>
<text text-anchor="middle" x="217" y="-455.8" font-family="Times,serif" font-size="14.00" fill="#222222">Sub</text>
<text text-anchor="middle" x="217" y="-440.8" font-family="Times,serif" font-size="14.00" fill="#222222">(., [&#45;0.11890265, 0.053688034, 0.25009614, 0.29648674])</text>
</g>
<!-- I_0&#45;&gt;Sub_2 -->
<g id="edge1" class="edge">
<title>I_0&#45;&gt;Sub_2</title>
<path fill="none" stroke="black" d="M217,-495C217,-490.8 217,-486.24 217,-481.71"/>
<polygon fill="black" stroke="black" points="217,-471.4 221.5,-481.4 217,-476.4 217,-481.4 217,-481.4 217,-481.4 217,-476.4 212.5,-481.4 217,-471.4 217,-471.4"/>
<text text-anchor="middle" x="246" y="-481.4" font-family="Times,serif" font-size="7.00">FLOAT(batch,4)</text>
</g>
<!-- i_1 -->
<g id="node2" class="node">
<title>i_1</title>
<path fill="#cccc00" stroke="#888888" d="M518,-416C518,-416 440,-416 440,-416 434,-416 428,-410 428,-404 428,-404 428,-390 428,-390 428,-384 434,-378 440,-378 440,-378 518,-378 518,-378 524,-378 530,-384 530,-390 530,-390 530,-404 530,-404 530,-410 524,-416 518,-416"/>
<text text-anchor="middle" x="479" y="-400.8" font-family="Times,serif" font-size="14.00" fill="#222222">init1_s1x4_</text>
<text text-anchor="middle" x="479" y="-385.8" font-family="Times,serif" font-size="14.00" fill="#222222">FLOAT(1, 4)</text>
</g>
<!-- Gemm_4 -->
<g id="node5" class="node">
<title>Gemm_4</title>
<path fill="#cccccc" stroke="#888888" d="M432,-354C432,-354 264,-354 264,-354 258,-354 252,-348 252,-342 252,-342 252,-330 252,-330 252,-324 258,-318 264,-318 264,-318 432,-318 432,-318 438,-318 444,-324 444,-330 444,-330 444,-342 444,-342 444,-348 438,-354 432,-354"/>
<text text-anchor="middle" x="348" y="-332.3" font-family="Times,serif" font-size="14.00" fill="#222222">Gemm(., ., [&#45;0.6392022])</text>
</g>
<!-- i_1&#45;&gt;Gemm_4 -->
<g id="edge4" class="edge">
<title>i_1&#45;&gt;Gemm_4</title>
<path fill="none" stroke="black" d="M438.98,-377.98C425.16,-371.75 409.54,-364.72 395.19,-358.25"/>
<polygon fill="black" stroke="black" points="385.98,-354.1 396.94,-354.11 390.54,-356.16 395.1,-358.21 395.1,-358.21 395.1,-358.21 390.54,-356.16 393.25,-362.31 385.98,-354.1 385.98,-354.1"/>
<text text-anchor="middle" x="440" y="-364.4" font-family="Times,serif" font-size="7.00">FLOAT(1, 4)</text>
</g>
<!-- Div_3 -->
<g id="node4" class="node">
<title>Div_3</title>
<path fill="#cccccc" stroke="#888888" d="M401.5,-416C401.5,-416 32.5,-416 32.5,-416 26.5,-416 20.5,-410 20.5,-404 20.5,-404 20.5,-390 20.5,-390 20.5,-384 26.5,-378 32.5,-378 32.5,-378 401.5,-378 401.5,-378 407.5,-378 413.5,-384 413.5,-390 413.5,-390 413.5,-404 413.5,-404 413.5,-410 407.5,-416 401.5,-416"/>
<text text-anchor="middle" x="217" y="-400.8" font-family="Times,serif" font-size="14.00" fill="#222222">Div</text>
<text text-anchor="middle" x="217" y="-385.8" font-family="Times,serif" font-size="14.00" fill="#222222">(., [0.8643964, 0.91257733, 1.0399438, 0.9712117])</text>
</g>
<!-- Sub_2&#45;&gt;Div_3 -->
<g id="edge2" class="edge">
<title>Sub_2&#45;&gt;Div_3</title>
<path fill="none" stroke="black" d="M217,-432.76C217,-430.66 217,-428.47 217,-426.27"/>
<polygon fill="black" stroke="black" points="217,-416.09 221.5,-426.09 217,-421.09 217,-426.09 217,-426.09 217,-426.09 217,-421.09 212.5,-426.09 217,-416.09 217,-416.09"/>
</g>
<!-- Div_3&#45;&gt;Gemm_4 -->
<g id="edge3" class="edge">
<title>Div_3&#45;&gt;Gemm_4</title>
<path fill="none" stroke="black" d="M257.02,-377.98C270.84,-371.75 286.46,-364.72 300.81,-358.25"/>
<polygon fill="black" stroke="black" points="310.02,-354.1 302.75,-362.31 305.46,-356.16 300.9,-358.21 300.9,-358.21 300.9,-358.21 305.46,-356.16 299.06,-354.11 310.02,-354.1 310.02,-354.1"/>
</g>
<!-- Sigmoid_5 -->
<g id="node6" class="node">
<title>Sigmoid_5</title>
<path fill="#cccccc" stroke="#888888" d="M381,-301C381,-301 315,-301 315,-301 309,-301 303,-295 303,-289 303,-289 303,-277 303,-277 303,-271 309,-265 315,-265 315,-265 381,-265 381,-265 387,-265 393,-271 393,-277 393,-277 393,-289 393,-289 393,-295 387,-301 381,-301"/>
<text text-anchor="middle" x="348" y="-279.3" font-family="Times,serif" font-size="14.00" fill="#222222">Sigmoid(.)</text>
</g>
<!-- Gemm_4&#45;&gt;Sigmoid_5 -->
<g id="edge5" class="edge">
<title>Gemm_4&#45;&gt;Sigmoid_5</title>
<path fill="none" stroke="black" d="M348,-317.73C348,-315.66 348,-313.5 348,-311.32"/>
<polygon fill="black" stroke="black" points="348,-301.25 352.5,-311.25 348,-306.25 348,-311.25 348,-311.25 348,-311.25 348,-306.25 343.5,-311.25 348,-301.25 348,-301.25"/>
</g>
<!-- Sub_6 -->
<g id="node7" class="node">
<title>Sub_6</title>
<path fill="#cccccc" stroke="#888888" d="M350.5,-248C350.5,-248 273.5,-248 273.5,-248 267.5,-248 261.5,-242 261.5,-236 261.5,-236 261.5,-224 261.5,-224 261.5,-218 267.5,-212 273.5,-212 273.5,-212 350.5,-212 350.5,-212 356.5,-212 362.5,-218 362.5,-224 362.5,-224 362.5,-236 362.5,-236 362.5,-242 356.5,-248 350.5,-248"/>
<text text-anchor="middle" x="312" y="-226.3" font-family="Times,serif" font-size="14.00" fill="#222222">Sub([1.0], .)</text>
</g>
<!-- Sigmoid_5&#45;&gt;Sub_6 -->
<g id="edge6" class="edge">
<title>Sigmoid_5&#45;&gt;Sub_6</title>
<path fill="none" stroke="black" d="M335.81,-264.73C333.94,-262.08 331.96,-259.28 329.99,-256.49"/>
<polygon fill="black" stroke="black" points="324.18,-248.25 333.62,-253.82 327.06,-252.33 329.94,-256.42 329.94,-256.42 329.94,-256.42 327.06,-252.33 326.27,-259.01 324.18,-248.25 324.18,-248.25"/>
</g>
<!-- Concat_7 -->
<g id="node8" class="node">
<title>Concat_7</title>
<path fill="#cccccc" stroke="#888888" d="M415,-195C415,-195 281,-195 281,-195 275,-195 269,-189 269,-183 269,-183 269,-171 269,-171 269,-165 275,-159 281,-159 281,-159 415,-159 415,-159 421,-159 427,-165 427,-171 427,-171 427,-183 427,-183 427,-189 421,-195 415,-195"/>
<text text-anchor="middle" x="348" y="-173.3" font-family="Times,serif" font-size="14.00" fill="#222222">Concat(., ., axis=&#45;1)</text>
</g>
<!-- Sigmoid_5&#45;&gt;Concat_7 -->
<g id="edge8" class="edge">
<title>Sigmoid_5&#45;&gt;Concat_7</title>
<path fill="none" stroke="black" d="M361.11,-264.88C364.33,-259.73 367.33,-253.87 369,-248 373.37,-232.61 373.37,-227.39 369,-212 368.24,-209.34 367.21,-206.68 366.01,-204.09"/>
<polygon fill="black" stroke="black" points="361.11,-195.12 369.85,-201.73 363.51,-199.51 365.91,-203.89 365.91,-203.89 365.91,-203.89 363.51,-199.51 361.96,-206.05 361.11,-195.12 361.11,-195.12"/>
</g>
<!-- Sub_6&#45;&gt;Concat_7 -->
<g id="edge7" class="edge">
<title>Sub_6&#45;&gt;Concat_7</title>
<path fill="none" stroke="black" d="M324.19,-211.73C326.06,-209.08 328.04,-206.28 330.01,-203.49"/>
<polygon fill="black" stroke="black" points="335.82,-195.25 333.73,-206.01 332.94,-199.33 330.06,-203.42 330.06,-203.42 330.06,-203.42 332.94,-199.33 326.38,-200.82 335.82,-195.25 335.82,-195.25"/>
</g>
<!-- ArgMax_8 -->
<g id="node9" class="node">
<title>ArgMax_8</title>
<path fill="#cccccc" stroke="#888888" d="M339,-142C339,-142 217,-142 217,-142 211,-142 205,-136 205,-130 205,-130 205,-118 205,-118 205,-112 211,-106 217,-106 217,-106 339,-106 339,-106 345,-106 351,-112 351,-118 351,-118 351,-130 351,-130 351,-136 345,-142 339,-142"/>
<text text-anchor="middle" x="278" y="-120.3" font-family="Times,serif" font-size="14.00" fill="#222222">ArgMax(., axis=1)</text>
</g>
<!-- Concat_7&#45;&gt;ArgMax_8 -->
<g id="edge9" class="edge">
<title>Concat_7&#45;&gt;ArgMax_8</title>
<path fill="none" stroke="black" d="M324.3,-158.73C319.63,-155.33 314.65,-151.7 309.76,-148.14"/>
<polygon fill="black" stroke="black" points="301.67,-142.25 312.41,-144.5 305.72,-145.19 309.76,-148.14 309.76,-148.14 309.76,-148.14 305.72,-145.19 307.11,-151.77 301.67,-142.25 301.67,-142.25"/>
</g>
<!-- O_11 -->
<g id="node12" class="node">
<title>O_11</title>
<path fill="#aaaaee" stroke="#888888" d="M460.5,-142C460.5,-142 377.5,-142 377.5,-142 371.5,-142 365.5,-136 365.5,-130 365.5,-130 365.5,-118 365.5,-118 365.5,-112 371.5,-106 377.5,-106 377.5,-106 460.5,-106 460.5,-106 466.5,-106 472.5,-112 472.5,-118 472.5,-118 472.5,-130 472.5,-130 472.5,-136 466.5,-142 460.5,-142"/>
<text text-anchor="middle" x="419" y="-120.3" font-family="Times,serif" font-size="14.00" fill="#222222">probabilities</text>
</g>
<!-- Concat_7&#45;&gt;O_11 -->
<g id="edge12" class="edge">
<title>Concat_7&#45;&gt;O_11</title>
<path fill="none" stroke="black" d="M372.04,-158.73C376.78,-155.33 381.83,-151.7 386.79,-148.14"/>
<polygon fill="black" stroke="black" points="394.99,-142.25 389.49,-151.74 390.93,-145.17 386.87,-148.08 386.87,-148.08 386.87,-148.08 390.93,-145.17 384.24,-144.43 394.99,-142.25 394.99,-142.25"/>
</g>
<!-- Gather_9 -->
<g id="node10" class="node">
<title>Gather_9</title>
<path fill="#cccccc" stroke="#888888" d="M359,-89C359,-89 197,-89 197,-89 191,-89 185,-83 185,-77 185,-77 185,-65 185,-65 185,-59 191,-53 197,-53 197,-53 359,-53 359,-53 365,-53 371,-59 371,-65 371,-65 371,-77 371,-77 371,-83 365,-89 359,-89"/>
<text text-anchor="middle" x="278" y="-67.3" font-family="Times,serif" font-size="14.00" fill="#222222">Gather([0, 1], ., axis=0)</text>
</g>
<!-- ArgMax_8&#45;&gt;Gather_9 -->
<g id="edge10" class="edge">
<title>ArgMax_8&#45;&gt;Gather_9</title>
<path fill="none" stroke="black" d="M278,-105.73C278,-103.66 278,-101.5 278,-99.32"/>
<polygon fill="black" stroke="black" points="278,-89.25 282.5,-99.25 278,-94.25 278,-99.25 278,-99.25 278,-99.25 278,-94.25 273.5,-99.25 278,-89.25 278,-89.25"/>
</g>
<!-- O_10 -->
<g id="node11" class="node">
<title>O_10</title>
<path fill="#aaaaee" stroke="#888888" d="M293,-36C293,-36 263,-36 263,-36 257,-36 251,-30 251,-24 251,-24 251,-12 251,-12 251,-6 257,0 263,0 263,0 293,0 293,0 299,0 305,-6 305,-12 305,-12 305,-24 305,-24 305,-30 299,-36 293,-36"/>
<text text-anchor="middle" x="278" y="-14.3" font-family="Times,serif" font-size="14.00" fill="#222222">label</text>
</g>
<!-- Gather_9&#45;&gt;O_10 -->
<g id="edge11" class="edge">
<title>Gather_9&#45;&gt;O_10</title>
<path fill="none" stroke="black" d="M278,-52.73C278,-50.66 278,-48.5 278,-46.32"/>
<polygon fill="black" stroke="black" points="278,-36.25 282.5,-46.25 278,-41.25 278,-46.25 278,-46.25 278,-46.25 278,-41.25 273.5,-46.25 278,-36.25 278,-36.25"/>
</g>
</g>
</svg>
