<?xml version="1.0" encoding="UTF-8" standalone="no"?>
<!DOCTYPE svg PUBLIC "-//W3C//DTD SVG 1.1//EN"
 "http://www.w3.org/Graphics/SVG/1.1/DTD/svg11.dtd">
<!-- Generated by graphviz version 2.43.0 (0)
 -->
<!-- Title: %3 Pages: 1 -->
<svg width="410pt" height="221pt"
 viewBox="0.00 0.00 409.50 221.00" xmlns="http://www.w3.org/2000/svg" xmlns:xlink="http://www.w3.org/1999/xlink">
<g id="graph0" class="graph" transform="scale(1 1) rotate(0) translate(4 217)">
<title>%3</title>
<!-- I_0 -->
<g id="node1" class="node">
<title>I_0</title>
<path fill="#aaeeaa" stroke="#888888" d="M309.5,-213C309.5,-213 15.5,-213 15.5,-213 9.5,-213 3.5,-207 3.5,-201 3.5,-201 3.5,-187 3.5,-187 3.5,-181 9.5,-175 15.5,-175 15.5,-175 309.5,-175 309.5,-175 315.5,-175 321.5,-181 321.5,-187 321.5,-187 321.5,-201 321.5,-201 321.5,-207 315.5,-213 309.5,-213"/>
<text text-anchor="middle" x="162.5" y="-197.8" font-family="Times,serif" font-size="14.00" fill="#222222">X</text>
<text text-anchor="middle" x="162.5" y="-182.8" font-family="Times,serif" font-size="14.00" fill="#222222">FLOAT(UNKNOWNDIM,UNKNOWNDIM1)</text>
</g>
<!-- Cast_1 -->
<g id="node2" class="node">
<title>Cast_1</title>
<path fill="#cccccc" stroke="#888888" d="M139,-151C139,-151 22,-151 22,-151 16,-151 10,-145 10,-139 10,-139 10,-127 10,-127 10,-121 16,-115 22,-115 22,-115 139,-115 139,-115 145,-115 151,-121 151,-127 151,-127 151,-139 151,-139 151,-145 145,-151 139,-151"/>
<text text-anchor="middle" x="80.5" y="-129.3" font-family="Times,serif" font-size="14.00" fill="#222222">Cast(., to=BOOL)</text>
</g>
<!-- I_0&#45;&gt;Cast_1 -->
<g id="edge1" class="edge">
<title>I_0&#45;&gt;Cast_1</title>
<path fill="none" stroke="black" d="M89.09,-174.9C86.28,-172.57 83.72,-169.95 81.5,-167 80.18,-165.25 79.23,-163.28 78.58,-161.2"/>
<polygon fill="black" stroke="black" points="77.31,-151.07 83.02,-160.43 77.93,-156.03 78.55,-160.99 78.55,-160.99 78.55,-160.99 77.93,-156.03 74.08,-161.55 77.31,-151.07 77.31,-151.07"/>
<text text-anchor="middle" x="158.5" y="-161.4" font-family="Times,serif" font-size="7.00">FLOAT(UNKNOWNDIM,UNKNOWNDIM1)</text>
</g>
<!-- Where_2 -->
<g id="node3" class="node">
<title>Where_2</title>
<path fill="#cccccc" stroke="#888888" d="M223,-91C223,-91 104,-91 104,-91 98,-91 92,-85 92,-79 92,-79 92,-67 92,-67 92,-61 98,-55 104,-55 104,-55 223,-55 223,-55 229,-55 235,-61 235,-67 235,-67 235,-79 235,-79 235,-85 229,-91 223,-91"/>
<text text-anchor="middle" x="163.5" y="-69.3" font-family="Times,serif" font-size="14.00" fill="#222222">Where(., [5.67], .)</text>
</g>
<!-- I_0&#45;&gt;Where_2 -->
<g id="edge3" class="edge">
<title>I_0&#45;&gt;Where_2</title>
<path fill="none" stroke="black" d="M227.32,-174.86C230.01,-172.54 232.44,-169.94 234.5,-167 251.87,-142.27 251.96,-123.67 234.5,-99 234.37,-98.81 234.23,-98.63 234.1,-98.44"/>
<polygon fill="black" stroke="black" points="227.11,-91.06 237.25,-95.23 230.54,-94.69 233.98,-98.32 233.98,-98.32 233.98,-98.32 230.54,-94.69 230.72,-101.42 227.11,-91.06 227.11,-91.06"/>
<text text-anchor="middle" x="324.5" y="-131.4" font-family="Times,serif" font-size="7.00">FLOAT(UNKNOWNDIM,UNKNOWNDIM1)</text>
</g>
<!-- Cast_1&#45;&gt;Where_2 -->
<g id="edge2" class="edge">
<title>Cast_1&#45;&gt;Where_2</title>
<path fill="none" stroke="black" d="M78.47,-114.82C78.69,-109.25 79.96,-103.39 83.5,-99 83.81,-98.62 84.12,-98.24 84.44,-97.87"/>
<polygon fill="black" stroke="black" points="91.91,-90.89 87.68,-101 88.26,-94.3 84.61,-97.72 84.61,-97.72 84.61,-97.72 88.26,-94.3 81.53,-94.43 91.91,-90.89 91.91,-90.89"/>
<text text-anchor="middle" x="159.5" y="-101.4" font-family="Times,serif" font-size="7.00">BOOL(UNKNOWNDIM,UNKNOWNDIM1)</text>
</g>
<!-- O_3 -->
<g id="node4" class="node">
<title>O_3</title>
<path fill="#aaaaee" stroke="#888888" d="M315,-38C315,-38 12,-38 12,-38 6,-38 0,-32 0,-26 0,-26 0,-12 0,-12 0,-6 6,0 12,0 12,0 315,0 315,0 321,0 327,-6 327,-12 327,-12 327,-26 327,-26 327,-32 321,-38 315,-38"/>
<text text-anchor="middle" x="163.5" y="-22.8" font-family="Times,serif" font-size="14.00" fill="#222222">Y</text>
<text text-anchor="middle" x="163.5" y="-7.8" font-family="Times,serif" font-size="14.00" fill="#222222">FLOAT(UNKNOWNDIM2,UNKNOWNDIM3)</text>
</g>
<!-- Where_2&#45;&gt;O_3 -->
<g id="edge4" class="edge">
<title>Where_2&#45;&gt;O_3</title>
<path fill="none" stroke="black" d="M163.5,-54.97C163.5,-52.89 163.5,-50.72 163.5,-48.53"/>
<polygon fill="black" stroke="black" points="163.5,-38.32 168,-48.32 163.5,-43.32 163.5,-48.32 163.5,-48.32 163.5,-48.32 163.5,-43.32 159,-48.32 163.5,-38.32 163.5,-38.32"/>
</g>
</g>
</svg>
