<?xml version="1.0" encoding="UTF-8" standalone="no"?>
<!DOCTYPE svg PUBLIC "-//W3C//DTD SVG 1.1//EN"
 "http://www.w3.org/Graphics/SVG/1.1/DTD/svg11.dtd">
<!-- Generated by graphviz version 2.43.0 (0)
 -->
<!-- Title: %3 Pages: 1 -->
<svg width="332pt" height="274pt"
 viewBox="0.00 0.00 331.50 274.00" xmlns="http://www.w3.org/2000/svg" xmlns:xlink="http://www.w3.org/1999/xlink">
<g id="graph0" class="graph" transform="scale(1 1) rotate(0) translate(4 270)">
<title>%3</title>
<!-- I_0 -->
<g id="node1" class="node">
<title>I_0</title>
<path fill="#aaeeaa" stroke="#888888" d="M101.5,-266C101.5,-266 29.5,-266 29.5,-266 23.5,-266 17.5,-260 17.5,-254 17.5,-254 17.5,-240 17.5,-240 17.5,-234 23.5,-228 29.5,-228 29.5,-228 101.5,-228 101.5,-228 107.5,-228 113.5,-234 113.5,-240 113.5,-240 113.5,-254 113.5,-254 113.5,-260 107.5,-266 101.5,-266"/>
<text text-anchor="middle" x="65.5" y="-250.8" font-family="Times,serif" font-size="14.00" fill="#222222">X</text>
<text text-anchor="middle" x="65.5" y="-235.8" font-family="Times,serif" font-size="14.00" fill="#222222">FLOAT(b,c)</text>
</g>
<!-- Expand_4 -->
<g id="node5" class="node">
<title>Expand_4</title>
<path fill="#cccccc" stroke="#888888" d="M154,-204C154,-204 79,-204 79,-204 73,-204 67,-198 67,-192 67,-192 67,-180 67,-180 67,-174 73,-168 79,-168 79,-168 154,-168 154,-168 160,-168 166,-174 166,-180 166,-180 166,-192 166,-192 166,-198 160,-204 154,-204"/>
<text text-anchor="middle" x="116.5" y="-182.3" font-family="Times,serif" font-size="14.00" fill="#222222">Expand(., .)</text>
</g>
<!-- I_0&#45;&gt;Expand_4 -->
<g id="edge1" class="edge">
<title>I_0&#45;&gt;Expand_4</title>
<path fill="none" stroke="black" d="M81.08,-227.98C85.49,-222.88 90.36,-217.23 95.05,-211.81"/>
<polygon fill="black" stroke="black" points="101.71,-204.1 98.58,-214.61 98.44,-207.89 95.17,-211.67 95.17,-211.67 95.17,-211.67 98.44,-207.89 91.77,-208.73 101.71,-204.1 101.71,-204.1"/>
<text text-anchor="middle" x="115" y="-214.4" font-family="Times,serif" font-size="7.00">FLOAT(b,c)</text>
</g>
<!-- I_1 -->
<g id="node2" class="node">
<title>I_1</title>
<path fill="#aaeeaa" stroke="#888888" d="M195.5,-266C195.5,-266 139.5,-266 139.5,-266 133.5,-266 127.5,-260 127.5,-254 127.5,-254 127.5,-240 127.5,-240 127.5,-234 133.5,-228 139.5,-228 139.5,-228 195.5,-228 195.5,-228 201.5,-228 207.5,-234 207.5,-240 207.5,-240 207.5,-254 207.5,-254 207.5,-260 201.5,-266 195.5,-266"/>
<text text-anchor="middle" x="167.5" y="-250.8" font-family="Times,serif" font-size="14.00" fill="#222222">exp</text>
<text text-anchor="middle" x="167.5" y="-235.8" font-family="Times,serif" font-size="14.00" fill="#222222">INT64(3)</text>
</g>
<!-- I_1&#45;&gt;Expand_4 -->
<g id="edge2" class="edge">
<title>I_1&#45;&gt;Expand_4</title>
<path fill="none" stroke="black" d="M152.2,-227.96C147.79,-222.79 142.97,-217.16 138.5,-212 138.36,-211.84 138.23,-211.68 138.09,-211.52"/>
<polygon fill="black" stroke="black" points="131.68,-204.18 141.65,-208.76 134.97,-207.95 138.26,-211.72 138.26,-211.72 138.26,-211.72 134.97,-207.95 134.87,-214.68 131.68,-204.18 131.68,-204.18"/>
<text text-anchor="middle" x="161.5" y="-214.4" font-family="Times,serif" font-size="7.00">INT64(3)</text>
</g>
<!-- I_2 -->
<g id="node3" class="node">
<title>I_2</title>
<path fill="#aaeeaa" stroke="#888888" d="M293.5,-266C293.5,-266 233.5,-266 233.5,-266 227.5,-266 221.5,-260 221.5,-254 221.5,-254 221.5,-240 221.5,-240 221.5,-234 227.5,-228 233.5,-228 233.5,-228 293.5,-228 293.5,-228 299.5,-228 305.5,-234 305.5,-240 305.5,-240 305.5,-254 305.5,-254 305.5,-260 299.5,-266 293.5,-266"/>
<text text-anchor="middle" x="263.5" y="-250.8" font-family="Times,serif" font-size="14.00" fill="#222222">cst</text>
<text text-anchor="middle" x="263.5" y="-235.8" font-family="Times,serif" font-size="14.00" fill="#222222">FLOAT(1)</text>
</g>
<!-- Constant_3 -->
<g id="node4" class="node">
<title>Constant_3</title>
<path fill="#cccccc" stroke="#888888" d="M311.5,-151C311.5,-151 197.5,-151 197.5,-151 191.5,-151 185.5,-145 185.5,-139 185.5,-139 185.5,-127 185.5,-127 185.5,-121 191.5,-115 197.5,-115 197.5,-115 311.5,-115 311.5,-115 317.5,-115 323.5,-121 323.5,-127 323.5,-127 323.5,-139 323.5,-139 323.5,-145 317.5,-151 311.5,-151"/>
<text text-anchor="middle" x="254.5" y="-129.3" font-family="Times,serif" font-size="14.00" fill="#222222">Constant() &#45;&gt; cst</text>
</g>
<!-- Where_6 -->
<g id="node7" class="node">
<title>Where_6</title>
<path fill="#cccccc" stroke="#888888" d="M204,-91C204,-91 123,-91 123,-91 117,-91 111,-85 111,-79 111,-79 111,-67 111,-67 111,-61 117,-55 123,-55 123,-55 204,-55 204,-55 210,-55 216,-61 216,-67 216,-67 216,-79 216,-79 216,-85 210,-91 204,-91"/>
<text text-anchor="middle" x="163.5" y="-69.3" font-family="Times,serif" font-size="14.00" fill="#222222">Where(., ., .)</text>
</g>
<!-- Constant_3&#45;&gt;Where_6 -->
<g id="edge6" class="edge">
<title>Constant_3&#45;&gt;Where_6</title>
<path fill="none" stroke="black" d="M227.69,-114.91C218.7,-109.18 208.53,-102.7 198.98,-96.61"/>
<polygon fill="black" stroke="black" points="190.43,-91.17 201.29,-92.75 194.65,-93.85 198.87,-96.54 198.87,-96.54 198.87,-96.54 194.65,-93.85 196.45,-100.34 190.43,-91.17 190.43,-91.17"/>
<text text-anchor="middle" x="231" y="-101.4" font-family="Times,serif" font-size="7.00">FLOAT(1)</text>
</g>
<!-- Cast_5 -->
<g id="node6" class="node">
<title>Cast_5</title>
<path fill="#cccccc" stroke="#888888" d="M129,-151C129,-151 12,-151 12,-151 6,-151 0,-145 0,-139 0,-139 0,-127 0,-127 0,-121 6,-115 12,-115 12,-115 129,-115 129,-115 135,-115 141,-121 141,-127 141,-127 141,-139 141,-139 141,-145 135,-151 129,-151"/>
<text text-anchor="middle" x="70.5" y="-129.3" font-family="Times,serif" font-size="14.00" fill="#222222">Cast(., to=BOOL)</text>
</g>
<!-- Expand_4&#45;&gt;Cast_5 -->
<g id="edge3" class="edge">
<title>Expand_4&#45;&gt;Cast_5</title>
<path fill="none" stroke="black" d="M100.93,-167.73C98.3,-164.83 95.54,-161.76 92.78,-158.71"/>
<polygon fill="black" stroke="black" points="86.06,-151.25 96.1,-155.66 89.41,-154.96 92.76,-158.67 92.76,-158.67 92.76,-158.67 89.41,-154.96 89.41,-161.69 86.06,-151.25 86.06,-151.25"/>
</g>
<!-- Expand_4&#45;&gt;Where_6 -->
<g id="edge5" class="edge">
<title>Expand_4&#45;&gt;Where_6</title>
<path fill="none" stroke="black" d="M136.22,-167.79C140.88,-162.8 145.39,-157.06 148.5,-151 156.35,-135.69 160.11,-116.74 161.9,-101.47"/>
<polygon fill="black" stroke="black" points="162.88,-91.1 166.41,-101.48 162.41,-96.08 161.93,-101.06 161.93,-101.06 161.93,-101.06 162.41,-96.08 157.45,-100.63 162.88,-91.1 162.88,-91.1"/>
</g>
<!-- Cast_5&#45;&gt;Where_6 -->
<g id="edge4" class="edge">
<title>Cast_5&#45;&gt;Where_6</title>
<path fill="none" stroke="black" d="M97.9,-114.91C107.09,-109.18 117.48,-102.7 127.24,-96.61"/>
<polygon fill="black" stroke="black" points="135.97,-91.17 129.87,-100.28 131.73,-93.81 127.49,-96.46 127.49,-96.46 127.49,-96.46 131.73,-93.81 125.11,-92.64 135.97,-91.17 135.97,-91.17"/>
</g>
<!-- O_7 -->
<g id="node8" class="node">
<title>O_7</title>
<path fill="#aaaaee" stroke="#888888" d="M206.5,-38C206.5,-38 120.5,-38 120.5,-38 114.5,-38 108.5,-32 108.5,-26 108.5,-26 108.5,-12 108.5,-12 108.5,-6 114.5,0 120.5,0 120.5,0 206.5,0 206.5,0 212.5,0 218.5,-6 218.5,-12 218.5,-12 218.5,-26 218.5,-26 218.5,-32 212.5,-38 206.5,-38"/>
<text text-anchor="middle" x="163.5" y="-22.8" font-family="Times,serif" font-size="14.00" fill="#222222">Y</text>
<text text-anchor="middle" x="163.5" y="-7.8" font-family="Times,serif" font-size="14.00" fill="#222222">FLOAT(b,b,c)</text>
</g>
<!-- Where_6&#45;&gt;O_7 -->
<g id="edge7" class="edge">
<title>Where_6&#45;&gt;O_7</title>
<path fill="none" stroke="black" d="M163.5,-54.97C163.5,-52.89 163.5,-50.72 163.5,-48.53"/>
<polygon fill="black" stroke="black" points="163.5,-38.32 168,-48.32 163.5,-43.32 163.5,-48.32 163.5,-48.32 163.5,-48.32 163.5,-43.32 159,-48.32 163.5,-38.32 163.5,-38.32"/>
</g>
</g>
</svg>
