<?xml version="1.0" encoding="UTF-8" standalone="no"?>
<!DOCTYPE svg PUBLIC "-//W3C//DTD SVG 1.1//EN"
 "http://www.w3.org/Graphics/SVG/1.1/DTD/svg11.dtd">
<!-- Generated by graphviz version 2.43.0 (0)
 -->
<!-- Title: %3 Pages: 1 -->
<svg width="963pt" height="163pt"
 viewBox="0.00 0.00 963.00 163.00" xmlns="http://www.w3.org/2000/svg" xmlns:xlink="http://www.w3.org/1999/xlink">
<g id="graph0" class="graph" transform="scale(1 1) rotate(0) translate(4 159)">
<title>%3</title>
<!-- I_0 -->
<g id="node1" class="node">
<title>I_0</title>
<path fill="#aaeeaa" stroke="#888888" d="M153,-155C153,-155 12,-155 12,-155 6,-155 0,-149 0,-143 0,-143 0,-129 0,-129 0,-123 6,-117 12,-117 12,-117 153,-117 153,-117 159,-117 165,-123 165,-129 165,-129 165,-143 165,-143 165,-149 159,-155 153,-155"/>
<text text-anchor="middle" x="82.5" y="-139.8" font-family="Times,serif" font-size="14.00" fill="#222222">add_1</text>
<text text-anchor="middle" x="82.5" y="-124.8" font-family="Times,serif" font-size="14.00" fill="#222222">FLOAT16(4,512,128)</text>
</g>
<!-- LayerNormalization_3 -->
<g id="node4" class="node">
<title>LayerNormalization_3</title>
<path fill="#cccccc" stroke="#888888" d="M476.5,-93C476.5,-93 272.5,-93 272.5,-93 266.5,-93 260.5,-87 260.5,-81 260.5,-81 260.5,-67 260.5,-67 260.5,-61 266.5,-55 272.5,-55 272.5,-55 476.5,-55 476.5,-55 482.5,-55 488.5,-61 488.5,-67 488.5,-67 488.5,-81 488.5,-81 488.5,-87 482.5,-93 476.5,-93"/>
<text text-anchor="middle" x="374.5" y="-77.8" font-family="Times,serif" font-size="14.00" fill="#222222">LayerNormalization</text>
<text text-anchor="middle" x="374.5" y="-62.8" font-family="Times,serif" font-size="14.00" fill="#222222">(., ., ., axis=&#45;1, stash_type=1)</text>
</g>
<!-- I_0&#45;&gt;LayerNormalization_3 -->
<g id="edge1" class="edge">
<title>I_0&#45;&gt;LayerNormalization_3</title>
<path fill="none" stroke="black" d="M165,-118.05C199.77,-110.9 240.49,-102.54 276.75,-95.09"/>
<polygon fill="black" stroke="black" points="286.85,-93.01 277.96,-99.43 281.95,-94.02 277.05,-95.02 277.05,-95.02 277.05,-95.02 281.95,-94.02 276.14,-90.62 286.85,-93.01 286.85,-93.01"/>
<text text-anchor="middle" x="284.5" y="-103.4" font-family="Times,serif" font-size="7.00">FLOAT16(4,512,128)</text>
</g>
<!-- Constant_1 -->
<g id="node2" class="node">
<title>Constant_1</title>
<path fill="#cccccc" stroke="#888888" d="M558,-155C558,-155 191,-155 191,-155 185,-155 179,-149 179,-143 179,-143 179,-129 179,-129 179,-123 185,-117 191,-117 191,-117 558,-117 558,-117 564,-117 570,-123 570,-129 570,-129 570,-143 570,-143 570,-149 564,-155 558,-155"/>
<text text-anchor="middle" x="374.5" y="-139.8" font-family="Times,serif" font-size="14.00" fill="#222222">Constant</text>
<text text-anchor="middle" x="374.5" y="-124.8" font-family="Times,serif" font-size="14.00" fill="#222222">() &#45;&gt; p_model_albert_embeddings_layernorm_weight</text>
</g>
<!-- Constant_1&#45;&gt;LayerNormalization_3 -->
<g id="edge2" class="edge">
<title>Constant_1&#45;&gt;LayerNormalization_3</title>
<path fill="none" stroke="black" d="M374.5,-117C374.5,-112.8 374.5,-108.24 374.5,-103.71"/>
<polygon fill="black" stroke="black" points="374.5,-93.4 379,-103.4 374.5,-98.4 374.5,-103.4 374.5,-103.4 374.5,-103.4 374.5,-98.4 370,-103.4 374.5,-93.4 374.5,-93.4"/>
<text text-anchor="middle" x="401" y="-103.4" font-family="Times,serif" font-size="7.00">FLOAT16(128)</text>
</g>
<!-- Constant_2 -->
<g id="node3" class="node">
<title>Constant_2</title>
<path fill="#cccccc" stroke="#888888" d="M943,-155C943,-155 596,-155 596,-155 590,-155 584,-149 584,-143 584,-143 584,-129 584,-129 584,-123 590,-117 596,-117 596,-117 943,-117 943,-117 949,-117 955,-123 955,-129 955,-129 955,-143 955,-143 955,-149 949,-155 943,-155"/>
<text text-anchor="middle" x="769.5" y="-139.8" font-family="Times,serif" font-size="14.00" fill="#222222">Constant</text>
<text text-anchor="middle" x="769.5" y="-124.8" font-family="Times,serif" font-size="14.00" fill="#222222">() &#45;&gt; p_model_albert_embeddings_layernorm_bias</text>
</g>
<!-- Constant_2&#45;&gt;LayerNormalization_3 -->
<g id="edge3" class="edge">
<title>Constant_2&#45;&gt;LayerNormalization_3</title>
<path fill="none" stroke="black" d="M650.99,-117C602.83,-109.68 547.18,-101.23 498.48,-93.83"/>
<polygon fill="black" stroke="black" points="488.52,-92.32 499.08,-89.37 493.46,-93.07 498.41,-93.82 498.41,-93.82 498.41,-93.82 493.46,-93.07 497.73,-98.27 488.52,-92.32 488.52,-92.32"/>
<text text-anchor="middle" x="623" y="-103.4" font-family="Times,serif" font-size="7.00">FLOAT16(128)</text>
</g>
<!-- O_4 -->
<g id="node5" class="node">
<title>O_4</title>
<path fill="#aaaaee" stroke="#888888" d="M445,-38C445,-38 304,-38 304,-38 298,-38 292,-32 292,-26 292,-26 292,-12 292,-12 292,-6 298,0 304,0 304,0 445,0 445,0 451,0 457,-6 457,-12 457,-12 457,-26 457,-26 457,-32 451,-38 445,-38"/>
<text text-anchor="middle" x="374.5" y="-22.8" font-family="Times,serif" font-size="14.00" fill="#222222">_onx_div0</text>
<text text-anchor="middle" x="374.5" y="-7.8" font-family="Times,serif" font-size="14.00" fill="#222222">FLOAT16(4,512,128)</text>
</g>
<!-- LayerNormalization_3&#45;&gt;O_4 -->
<g id="edge4" class="edge">
<title>LayerNormalization_3&#45;&gt;O_4</title>
<path fill="none" stroke="black" d="M374.5,-54.76C374.5,-52.66 374.5,-50.47 374.5,-48.27"/>
<polygon fill="black" stroke="black" points="374.5,-38.09 379,-48.09 374.5,-43.09 374.5,-48.09 374.5,-48.09 374.5,-48.09 374.5,-43.09 370,-48.09 374.5,-38.09 374.5,-38.09"/>
</g>
</g>
</svg>
