<?xml version="1.0" encoding="UTF-8" standalone="no"?>
<!DOCTYPE svg PUBLIC "-//W3C//DTD SVG 1.1//EN"
 "http://www.w3.org/Graphics/SVG/1.1/DTD/svg11.dtd">
<!-- Generated by graphviz version 2.43.0 (0)
 -->
<!-- Title: %3 Pages: 1 -->
<svg width="366pt" height="223pt"
 viewBox="0.00 0.00 366.00 223.00" xmlns="http://www.w3.org/2000/svg" xmlns:xlink="http://www.w3.org/1999/xlink">
<g id="graph0" class="graph" transform="scale(1 1) rotate(0) translate(4 219)">
<title>%3</title>
<!-- I_0 -->
<g id="node1" class="node">
<title>I_0</title>
<path fill="#aaeeaa" stroke="#888888" d="M114,-215C114,-215 14,-215 14,-215 8,-215 2,-209 2,-203 2,-203 2,-189 2,-189 2,-183 8,-177 14,-177 14,-177 114,-177 114,-177 120,-177 126,-183 126,-189 126,-189 126,-203 126,-203 126,-209 120,-215 114,-215"/>
<text text-anchor="middle" x="64" y="-199.8" font-family="Times,serif" font-size="14.00" fill="#222222">Y</text>
<text text-anchor="middle" x="64" y="-184.8" font-family="Times,serif" font-size="14.00" fill="#222222">FLOAT(a,1,3,4)</text>
</g>
<!-- Expand_3 -->
<g id="node4" class="node">
<title>Expand_3</title>
<path fill="#cccccc" stroke="#888888" d="M159.5,-153C159.5,-153 84.5,-153 84.5,-153 78.5,-153 72.5,-147 72.5,-141 72.5,-141 72.5,-129 72.5,-129 72.5,-123 78.5,-117 84.5,-117 84.5,-117 159.5,-117 159.5,-117 165.5,-117 171.5,-123 171.5,-129 171.5,-129 171.5,-141 171.5,-141 171.5,-147 165.5,-153 159.5,-153"/>
<text text-anchor="middle" x="122" y="-131.3" font-family="Times,serif" font-size="14.00" fill="#222222">Expand(., .)</text>
</g>
<!-- I_0&#45;&gt;Expand_3 -->
<g id="edge1" class="edge">
<title>I_0&#45;&gt;Expand_3</title>
<path fill="none" stroke="black" d="M81.72,-176.98C86.85,-171.76 92.54,-165.97 97.98,-160.43"/>
<polygon fill="black" stroke="black" points="105.19,-153.1 101.38,-163.39 101.68,-156.67 98.17,-160.24 98.17,-160.24 98.17,-160.24 101.68,-156.67 94.97,-157.08 105.19,-153.1 105.19,-153.1"/>
<text text-anchor="middle" x="124.5" y="-163.4" font-family="Times,serif" font-size="7.00">FLOAT(a,1,3,4)</text>
</g>
<!-- I_1 -->
<g id="node2" class="node">
<title>I_1</title>
<path fill="#aaeeaa" stroke="#888888" d="M208,-215C208,-215 152,-215 152,-215 146,-215 140,-209 140,-203 140,-203 140,-189 140,-189 140,-183 146,-177 152,-177 152,-177 208,-177 208,-177 214,-177 220,-183 220,-189 220,-189 220,-203 220,-203 220,-209 214,-215 208,-215"/>
<text text-anchor="middle" x="180" y="-199.8" font-family="Times,serif" font-size="14.00" fill="#222222">sh1</text>
<text text-anchor="middle" x="180" y="-184.8" font-family="Times,serif" font-size="14.00" fill="#222222">INT64(4)</text>
</g>
<!-- I_1&#45;&gt;Expand_3 -->
<g id="edge2" class="edge">
<title>I_1&#45;&gt;Expand_3</title>
<path fill="none" stroke="black" d="M168.19,-176.93C164.29,-171.54 159.73,-165.8 155,-161 154.67,-160.67 154.34,-160.34 154,-160"/>
<polygon fill="black" stroke="black" points="146.47,-153.25 156.92,-156.58 150.19,-156.59 153.92,-159.93 153.92,-159.93 153.92,-159.93 150.19,-156.59 150.91,-163.28 146.47,-153.25 146.47,-153.25"/>
<text text-anchor="middle" x="178" y="-163.4" font-family="Times,serif" font-size="7.00">INT64(4)</text>
</g>
<!-- I_2 -->
<g id="node3" class="node">
<title>I_2</title>
<path fill="#aaeeaa" stroke="#888888" d="M346,-215C346,-215 246,-215 246,-215 240,-215 234,-209 234,-203 234,-203 234,-189 234,-189 234,-183 240,-177 246,-177 246,-177 346,-177 346,-177 352,-177 358,-183 358,-189 358,-189 358,-203 358,-203 358,-209 352,-215 346,-215"/>
<text text-anchor="middle" x="296" y="-199.8" font-family="Times,serif" font-size="14.00" fill="#222222">y1</text>
<text text-anchor="middle" x="296" y="-184.8" font-family="Times,serif" font-size="14.00" fill="#222222">FLOAT(a,2,3,4)</text>
</g>
<!-- Identity_4 -->
<g id="node5" class="node">
<title>Identity_4</title>
<path fill="#cccccc" stroke="#888888" d="M94,-92C94,-92 30,-92 30,-92 24,-92 18,-86 18,-80 18,-80 18,-68 18,-68 18,-62 24,-56 30,-56 30,-56 94,-56 94,-56 100,-56 106,-62 106,-68 106,-68 106,-80 106,-80 106,-86 100,-92 94,-92"/>
<text text-anchor="middle" x="62" y="-70.3" font-family="Times,serif" font-size="14.00" fill="#222222">Identity(.)</text>
</g>
<!-- Expand_3&#45;&gt;Identity_4 -->
<g id="edge3" class="edge">
<title>Expand_3&#45;&gt;Identity_4</title>
<path fill="none" stroke="black" d="M104.65,-116.93C99.1,-111.48 92.84,-105.33 86.87,-99.45"/>
<polygon fill="black" stroke="black" points="79.52,-92.23 89.81,-96.03 83.09,-95.74 86.65,-99.24 86.65,-99.24 86.65,-99.24 83.09,-95.74 83.5,-102.45 79.52,-92.23 79.52,-92.23"/>
<text text-anchor="middle" x="123.5" y="-103.4" font-family="Times,serif" font-size="7.00">FLOAT(a,2,3,4)</text>
</g>
<!-- O_6 -->
<g id="node7" class="node">
<title>O_6</title>
<path fill="#aaaaee" stroke="#888888" d="M232,-93C232,-93 132,-93 132,-93 126,-93 120,-87 120,-81 120,-81 120,-67 120,-67 120,-61 126,-55 132,-55 132,-55 232,-55 232,-55 238,-55 244,-61 244,-67 244,-67 244,-81 244,-81 244,-87 238,-93 232,-93"/>
<text text-anchor="middle" x="182" y="-77.8" font-family="Times,serif" font-size="14.00" fill="#222222">y1</text>
<text text-anchor="middle" x="182" y="-62.8" font-family="Times,serif" font-size="14.00" fill="#222222">FLOAT(a,2,3,4)</text>
</g>
<!-- Expand_3&#45;&gt;O_6 -->
<g id="edge5" class="edge">
<title>Expand_3&#45;&gt;O_6</title>
<path fill="none" stroke="black" d="M145.24,-116.83C148.27,-114.31 151.27,-111.66 154,-109 156.54,-106.52 159.08,-103.83 161.54,-101.07"/>
<polygon fill="black" stroke="black" points="168.17,-93.29 165.11,-103.82 164.92,-97.1 161.68,-100.9 161.68,-100.9 161.68,-100.9 164.92,-97.1 158.26,-97.98 168.17,-93.29 168.17,-93.29"/>
</g>
<!-- O_5 -->
<g id="node6" class="node">
<title>O_5</title>
<path fill="#aaaaee" stroke="#888888" d="M112,-38C112,-38 12,-38 12,-38 6,-38 0,-32 0,-26 0,-26 0,-12 0,-12 0,-6 6,0 12,0 12,0 112,0 112,0 118,0 124,-6 124,-12 124,-12 124,-26 124,-26 124,-32 118,-38 112,-38"/>
<text text-anchor="middle" x="62" y="-22.8" font-family="Times,serif" font-size="14.00" fill="#222222">y2</text>
<text text-anchor="middle" x="62" y="-7.8" font-family="Times,serif" font-size="14.00" fill="#222222">FLOAT(a,2,3,4)</text>
</g>
<!-- Identity_4&#45;&gt;O_5 -->
<g id="edge4" class="edge">
<title>Identity_4&#45;&gt;O_5</title>
<path fill="none" stroke="black" d="M62,-55.94C62,-53.45 62,-50.83 62,-48.19"/>
<polygon fill="black" stroke="black" points="62,-38.13 66.5,-48.13 62,-43.13 62,-48.13 62,-48.13 62,-48.13 62,-43.13 57.5,-48.13 62,-38.13 62,-38.13"/>
</g>
</g>
</svg>
