<?xml version="1.0" encoding="UTF-8" standalone="no"?>
<!DOCTYPE svg PUBLIC "-//W3C//DTD SVG 1.1//EN"
 "http://www.w3.org/Graphics/SVG/1.1/DTD/svg11.dtd">
<!-- Generated by graphviz version 2.43.0 (0)
 -->
<!-- Title: %3 Pages: 1 -->
<svg width="460pt" height="285pt"
 viewBox="0.00 0.00 460.00 285.00" xmlns="http://www.w3.org/2000/svg" xmlns:xlink="http://www.w3.org/1999/xlink">
<g id="graph0" class="graph" transform="scale(1 1) rotate(0) translate(4 281)">
<title>%3</title>
<!-- I_0 -->
<g id="node1" class="node">
<title>I_0</title>
<path fill="#aaeeaa" stroke="#888888" d="M113,-277C113,-277 12,-277 12,-277 6,-277 0,-271 0,-265 0,-265 0,-251 0,-251 0,-245 6,-239 12,-239 12,-239 113,-239 113,-239 119,-239 125,-245 125,-251 125,-251 125,-265 125,-265 125,-271 119,-277 113,-277"/>
<text text-anchor="middle" x="62.5" y="-261.8" font-family="Times,serif" font-size="14.00" fill="#222222">yts</text>
<text text-anchor="middle" x="62.5" y="-246.8" font-family="Times,serif" font-size="14.00" fill="#222222">FLOAT(2,2,7,3)</text>
</g>
<!-- I_1 -->
<g id="node2" class="node">
<title>I_1</title>
<path fill="#aaeeaa" stroke="#888888" d="M238,-277C238,-277 151,-277 151,-277 145,-277 139,-271 139,-265 139,-265 139,-251 139,-251 139,-245 145,-239 151,-239 151,-239 238,-239 238,-239 244,-239 250,-245 250,-251 250,-251 250,-265 250,-265 250,-271 244,-277 238,-277"/>
<text text-anchor="middle" x="194.5" y="-261.8" font-family="Times,serif" font-size="14.00" fill="#222222">Y</text>
<text text-anchor="middle" x="194.5" y="-246.8" font-family="Times,serif" font-size="14.00" fill="#222222">FLOAT(4,3,7)</text>
</g>
<!-- Reshape_3 -->
<g id="node4" class="node">
<title>Reshape_3</title>
<path fill="#eeeeee" stroke="#888888" d="M270,-215C270,-215 119,-215 119,-215 113,-215 107,-209 107,-203 107,-203 107,-191 107,-191 107,-185 113,-179 119,-179 119,-179 270,-179 270,-179 276,-179 282,-185 282,-191 282,-191 282,-203 282,-203 282,-209 276,-215 270,-215"/>
<text text-anchor="middle" x="194.5" y="-193.3" font-family="Times,serif" font-size="14.00" fill="#222222">Reshape(., [2, 2, 3, 7])</text>
</g>
<!-- I_1&#45;&gt;Reshape_3 -->
<g id="edge1" class="edge">
<title>I_1&#45;&gt;Reshape_3</title>
<path fill="none" stroke="black" d="M194.5,-238.98C194.5,-234.71 194.5,-230.06 194.5,-225.47"/>
<polygon fill="black" stroke="black" points="194.5,-215.1 199,-225.1 194.5,-220.1 194.5,-225.1 194.5,-225.1 194.5,-225.1 194.5,-220.1 190,-225.1 194.5,-215.1 194.5,-215.1"/>
<text text-anchor="middle" x="219" y="-225.4" font-family="Times,serif" font-size="7.00">FLOAT(4,3,7)</text>
</g>
<!-- I_2 -->
<g id="node3" class="node">
<title>I_2</title>
<path fill="#aaeeaa" stroke="#888888" d="M440,-155C440,-155 339,-155 339,-155 333,-155 327,-149 327,-143 327,-143 327,-129 327,-129 327,-123 333,-117 339,-117 339,-117 440,-117 440,-117 446,-117 452,-123 452,-129 452,-129 452,-143 452,-143 452,-149 446,-155 440,-155"/>
<text text-anchor="middle" x="389.5" y="-139.8" font-family="Times,serif" font-size="14.00" fill="#222222">X</text>
<text text-anchor="middle" x="389.5" y="-124.8" font-family="Times,serif" font-size="14.00" fill="#222222">FLOAT(2,2,5,7)</text>
</g>
<!-- MatMul_5 -->
<g id="node6" class="node">
<title>MatMul_5</title>
<path fill="#ee9999" stroke="#888888" d="M394,-92C394,-92 317,-92 317,-92 311,-92 305,-86 305,-80 305,-80 305,-68 305,-68 305,-62 311,-56 317,-56 317,-56 394,-56 394,-56 400,-56 406,-62 406,-68 406,-68 406,-80 406,-80 406,-86 400,-92 394,-92"/>
<text text-anchor="middle" x="355.5" y="-70.3" font-family="Times,serif" font-size="14.00" fill="#222222">MatMul(., .)</text>
</g>
<!-- I_2&#45;&gt;MatMul_5 -->
<g id="edge3" class="edge">
<title>I_2&#45;&gt;MatMul_5</title>
<path fill="none" stroke="black" d="M379.3,-117C376.44,-111.96 373.28,-106.37 370.22,-100.97"/>
<polygon fill="black" stroke="black" points="365.23,-92.17 374.07,-98.65 367.69,-96.52 370.16,-100.87 370.16,-100.87 370.16,-100.87 367.69,-96.52 366.24,-103.08 365.23,-92.17 365.23,-92.17"/>
<text text-anchor="middle" x="402" y="-103.4" font-family="Times,serif" font-size="7.00">FLOAT(2,2,5,7)</text>
</g>
<!-- Transpose_4 -->
<g id="node5" class="node">
<title>Transpose_4</title>
<path fill="#ee99ee" stroke="#888888" d="M301,-154C301,-154 88,-154 88,-154 82,-154 76,-148 76,-142 76,-142 76,-130 76,-130 76,-124 82,-118 88,-118 88,-118 301,-118 301,-118 307,-118 313,-124 313,-130 313,-130 313,-142 313,-142 313,-148 307,-154 301,-154"/>
<text text-anchor="middle" x="194.5" y="-132.3" font-family="Times,serif" font-size="14.00" fill="#222222">Transpose(., perm=[0, 1, 3, 2])</text>
</g>
<!-- Reshape_3&#45;&gt;Transpose_4 -->
<g id="edge2" class="edge">
<title>Reshape_3&#45;&gt;Transpose_4</title>
<path fill="none" stroke="black" d="M194.5,-178.93C194.5,-174.45 194.5,-169.49 194.5,-164.61"/>
<polygon fill="black" stroke="black" points="194.5,-154.23 199,-164.23 194.5,-159.23 194.5,-164.23 194.5,-164.23 194.5,-164.23 194.5,-159.23 190,-164.23 194.5,-154.23 194.5,-154.23"/>
<text text-anchor="middle" x="222" y="-165.4" font-family="Times,serif" font-size="7.00">FLOAT(2,2,3,7)</text>
</g>
<!-- Transpose_4&#45;&gt;MatMul_5 -->
<g id="edge4" class="edge">
<title>Transpose_4&#45;&gt;MatMul_5</title>
<path fill="none" stroke="black" d="M240.21,-117.97C258.9,-111 280.7,-102.88 300.27,-95.58"/>
<polygon fill="black" stroke="black" points="309.68,-92.08 301.88,-99.78 305,-93.82 300.31,-95.57 300.31,-95.57 300.31,-95.57 305,-93.82 298.74,-91.35 309.68,-92.08 309.68,-92.08"/>
<text text-anchor="middle" x="313" y="-103.4" font-family="Times,serif" font-size="7.00">FLOAT(2,2,7,3)</text>
</g>
<!-- O_6 -->
<g id="node7" class="node">
<title>O_6</title>
<path fill="#aaaaee" stroke="#888888" d="M245,-93C245,-93 144,-93 144,-93 138,-93 132,-87 132,-81 132,-81 132,-67 132,-67 132,-61 138,-55 144,-55 144,-55 245,-55 245,-55 251,-55 257,-61 257,-67 257,-67 257,-81 257,-81 257,-87 251,-93 245,-93"/>
<text text-anchor="middle" x="194.5" y="-77.8" font-family="Times,serif" font-size="14.00" fill="#222222">yts</text>
<text text-anchor="middle" x="194.5" y="-62.8" font-family="Times,serif" font-size="14.00" fill="#222222">FLOAT(2,2,7,3)</text>
</g>
<!-- Transpose_4&#45;&gt;O_6 -->
<g id="edge5" class="edge">
<title>Transpose_4&#45;&gt;O_6</title>
<path fill="none" stroke="black" d="M194.5,-117.97C194.5,-113.36 194.5,-108.25 194.5,-103.2"/>
<polygon fill="black" stroke="black" points="194.5,-93.12 199,-103.12 194.5,-98.12 194.5,-103.12 194.5,-103.12 194.5,-103.12 194.5,-98.12 190,-103.12 194.5,-93.12 194.5,-93.12"/>
</g>
<!-- O_7 -->
<g id="node8" class="node">
<title>O_7</title>
<path fill="#aaaaee" stroke="#888888" d="M406,-38C406,-38 305,-38 305,-38 299,-38 293,-32 293,-26 293,-26 293,-12 293,-12 293,-6 299,0 305,0 305,0 406,0 406,0 412,0 418,-6 418,-12 418,-12 418,-26 418,-26 418,-32 412,-38 406,-38"/>
<text text-anchor="middle" x="355.5" y="-22.8" font-family="Times,serif" font-size="14.00" fill="#222222">Z</text>
<text text-anchor="middle" x="355.5" y="-7.8" font-family="Times,serif" font-size="14.00" fill="#222222">FLOAT(2,2,5,3)</text>
</g>
<!-- MatMul_5&#45;&gt;O_7 -->
<g id="edge6" class="edge">
<title>MatMul_5&#45;&gt;O_7</title>
<path fill="none" stroke="black" d="M355.5,-55.94C355.5,-53.45 355.5,-50.83 355.5,-48.19"/>
<polygon fill="black" stroke="black" points="355.5,-38.13 360,-48.13 355.5,-43.13 355.5,-48.13 355.5,-48.13 355.5,-48.13 355.5,-43.13 351,-48.13 355.5,-38.13 355.5,-38.13"/>
</g>
</g>
</svg>
