<?xml version="1.0" encoding="UTF-8" standalone="no"?>
<!DOCTYPE svg PUBLIC "-//W3C//DTD SVG 1.1//EN"
 "http://www.w3.org/Graphics/SVG/1.1/DTD/svg11.dtd">
<!-- Generated by graphviz version 2.43.0 (0)
 -->
<!-- Title: %3 Pages: 1 -->
<svg width="646pt" height="283pt"
 viewBox="0.00 0.00 646.00 283.00" xmlns="http://www.w3.org/2000/svg" xmlns:xlink="http://www.w3.org/1999/xlink">
<g id="graph0" class="graph" transform="scale(1 1) rotate(0) translate(4 279)">
<title>%3</title>
<!-- I_0 -->
<g id="node1" class="node">
<title>I_0</title>
<path fill="#aaeeaa" stroke="#888888" d="M99,-275C99,-275 12,-275 12,-275 6,-275 0,-269 0,-263 0,-263 0,-249 0,-249 0,-243 6,-237 12,-237 12,-237 99,-237 99,-237 105,-237 111,-243 111,-249 111,-249 111,-263 111,-263 111,-269 105,-275 99,-275"/>
<text text-anchor="middle" x="55.5" y="-259.8" font-family="Times,serif" font-size="14.00" fill="#222222">Y</text>
<text text-anchor="middle" x="55.5" y="-244.8" font-family="Times,serif" font-size="14.00" fill="#222222">FLOAT(2,3,4)</text>
</g>
<!-- Reshape_6 -->
<g id="node7" class="node">
<title>Reshape_6</title>
<path fill="#eeeeee" stroke="#888888" d="M250.5,-213C250.5,-213 168.5,-213 168.5,-213 162.5,-213 156.5,-207 156.5,-201 156.5,-201 156.5,-189 156.5,-189 156.5,-183 162.5,-177 168.5,-177 168.5,-177 250.5,-177 250.5,-177 256.5,-177 262.5,-183 262.5,-189 262.5,-189 262.5,-201 262.5,-201 262.5,-207 256.5,-213 250.5,-213"/>
<text text-anchor="middle" x="209.5" y="-191.3" font-family="Times,serif" font-size="14.00" fill="#222222">Reshape(., .)</text>
</g>
<!-- I_0&#45;&gt;Reshape_6 -->
<g id="edge2" class="edge">
<title>I_0&#45;&gt;Reshape_6</title>
<path fill="none" stroke="black" d="M102.54,-236.98C119.33,-230.54 138.38,-223.25 155.7,-216.61"/>
<polygon fill="black" stroke="black" points="165.12,-213 157.39,-220.78 160.45,-214.79 155.78,-216.58 155.78,-216.58 155.78,-216.58 160.45,-214.79 154.17,-212.38 165.12,-213 165.12,-213"/>
<text text-anchor="middle" x="166" y="-223.4" font-family="Times,serif" font-size="7.00">FLOAT(2,3,4)</text>
</g>
<!-- I_1 -->
<g id="node2" class="node">
<title>I_1</title>
<path fill="#aaeeaa" stroke="#888888" d="M500.5,-275C500.5,-275 444.5,-275 444.5,-275 438.5,-275 432.5,-269 432.5,-263 432.5,-263 432.5,-249 432.5,-249 432.5,-243 438.5,-237 444.5,-237 444.5,-237 500.5,-237 500.5,-237 506.5,-237 512.5,-243 512.5,-249 512.5,-249 512.5,-263 512.5,-263 512.5,-269 506.5,-275 500.5,-275"/>
<text text-anchor="middle" x="472.5" y="-259.8" font-family="Times,serif" font-size="14.00" fill="#222222">shape2</text>
<text text-anchor="middle" x="472.5" y="-244.8" font-family="Times,serif" font-size="14.00" fill="#222222">INT64(2)</text>
</g>
<!-- I_2 -->
<g id="node3" class="node">
<title>I_2</title>
<path fill="#aaeeaa" stroke="#888888" d="M406,-275C406,-275 319,-275 319,-275 313,-275 307,-269 307,-263 307,-263 307,-249 307,-249 307,-243 313,-237 319,-237 319,-237 406,-237 406,-237 412,-237 418,-243 418,-249 418,-249 418,-263 418,-263 418,-269 412,-275 406,-275"/>
<text text-anchor="middle" x="362.5" y="-259.8" font-family="Times,serif" font-size="14.00" fill="#222222">X</text>
<text text-anchor="middle" x="362.5" y="-244.8" font-family="Times,serif" font-size="14.00" fill="#222222">FLOAT(2,3,4)</text>
</g>
<!-- Reshape_5 -->
<g id="node6" class="node">
<title>Reshape_5</title>
<path fill="#eeeeee" stroke="#888888" d="M415,-213C415,-213 296,-213 296,-213 290,-213 284,-207 284,-201 284,-201 284,-189 284,-189 284,-183 290,-177 296,-177 296,-177 415,-177 415,-177 421,-177 427,-183 427,-189 427,-189 427,-201 427,-201 427,-207 421,-213 415,-213"/>
<text text-anchor="middle" x="355.5" y="-191.3" font-family="Times,serif" font-size="14.00" fill="#222222">Reshape(., [&#45;1, 8])</text>
</g>
<!-- I_2&#45;&gt;Reshape_5 -->
<g id="edge1" class="edge">
<title>I_2&#45;&gt;Reshape_5</title>
<path fill="none" stroke="black" d="M360.36,-236.98C359.84,-232.59 359.27,-227.8 358.71,-223.09"/>
<polygon fill="black" stroke="black" points="357.53,-213.1 363.18,-222.5 358.12,-218.07 358.71,-223.04 358.71,-223.04 358.71,-223.04 358.12,-218.07 354.24,-223.57 357.53,-213.1 357.53,-213.1"/>
<text text-anchor="middle" x="383" y="-223.4" font-family="Times,serif" font-size="7.00">FLOAT(2,3,4)</text>
</g>
<!-- I_3 -->
<g id="node4" class="node">
<title>I_3</title>
<path fill="#aaeeaa" stroke="#888888" d="M626,-275C626,-275 539,-275 539,-275 533,-275 527,-269 527,-263 527,-263 527,-249 527,-249 527,-243 533,-237 539,-237 539,-237 626,-237 626,-237 632,-237 638,-243 638,-249 638,-249 638,-263 638,-263 638,-269 632,-275 626,-275"/>
<text text-anchor="middle" x="582.5" y="-259.8" font-family="Times,serif" font-size="14.00" fill="#222222">Z</text>
<text text-anchor="middle" x="582.5" y="-244.8" font-family="Times,serif" font-size="14.00" fill="#222222">FLOAT(2,3,4)</text>
</g>
<!-- Constant_4 -->
<g id="node5" class="node">
<title>Constant_4</title>
<path fill="#cccccc" stroke="#888888" d="M281.5,-274C281.5,-274 137.5,-274 137.5,-274 131.5,-274 125.5,-268 125.5,-262 125.5,-262 125.5,-250 125.5,-250 125.5,-244 131.5,-238 137.5,-238 137.5,-238 281.5,-238 281.5,-238 287.5,-238 293.5,-244 293.5,-250 293.5,-250 293.5,-262 293.5,-262 293.5,-268 287.5,-274 281.5,-274"/>
<text text-anchor="middle" x="209.5" y="-252.3" font-family="Times,serif" font-size="14.00" fill="#222222">Constant() &#45;&gt; shape2</text>
</g>
<!-- Constant_4&#45;&gt;Reshape_6 -->
<g id="edge3" class="edge">
<title>Constant_4&#45;&gt;Reshape_6</title>
<path fill="none" stroke="black" d="M209.5,-237.93C209.5,-233.45 209.5,-228.49 209.5,-223.61"/>
<polygon fill="black" stroke="black" points="209.5,-213.23 214,-223.23 209.5,-218.23 209.5,-223.23 209.5,-223.23 209.5,-223.23 209.5,-218.23 205,-223.23 209.5,-213.23 209.5,-213.23"/>
<text text-anchor="middle" x="226.5" y="-223.4" font-family="Times,serif" font-size="7.00">INT64(2)</text>
</g>
<!-- Mul_8 -->
<g id="node9" class="node">
<title>Mul_8</title>
<path fill="#cccccc" stroke="#888888" d="M310,-153C310,-153 261,-153 261,-153 255,-153 249,-147 249,-141 249,-141 249,-129 249,-129 249,-123 255,-117 261,-117 261,-117 310,-117 310,-117 316,-117 322,-123 322,-129 322,-129 322,-141 322,-141 322,-147 316,-153 310,-153"/>
<text text-anchor="middle" x="285.5" y="-131.3" font-family="Times,serif" font-size="14.00" fill="#222222">Mul(., .)</text>
</g>
<!-- Reshape_5&#45;&gt;Mul_8 -->
<g id="edge5" class="edge">
<title>Reshape_5&#45;&gt;Mul_8</title>
<path fill="none" stroke="black" d="M334.88,-176.91C328.38,-171.53 321.09,-165.49 314.15,-159.73"/>
<polygon fill="black" stroke="black" points="306.22,-153.17 316.79,-156.08 310.07,-156.36 313.92,-159.55 313.92,-159.55 313.92,-159.55 310.07,-156.36 311.05,-163.01 306.22,-153.17 306.22,-153.17"/>
<text text-anchor="middle" x="345.5" y="-163.4" font-family="Times,serif" font-size="7.00">FLOAT(3,8)</text>
</g>
<!-- Reshape_6&#45;&gt;Mul_8 -->
<g id="edge6" class="edge">
<title>Reshape_6&#45;&gt;Mul_8</title>
<path fill="none" stroke="black" d="M231.89,-176.91C239.09,-171.41 247.2,-165.23 254.89,-159.36"/>
<polygon fill="black" stroke="black" points="263.01,-153.17 257.79,-162.81 259.03,-156.2 255.06,-159.23 255.06,-159.23 255.06,-159.23 259.03,-156.2 252.33,-155.66 263.01,-153.17 263.01,-153.17"/>
<text text-anchor="middle" x="272.5" y="-163.4" font-family="Times,serif" font-size="7.00">FLOAT(3,8)</text>
</g>
<!-- Reshape_7 -->
<g id="node8" class="node">
<title>Reshape_7</title>
<path fill="#eeeeee" stroke="#888888" d="M281,-92C281,-92 148,-92 148,-92 142,-92 136,-86 136,-80 136,-80 136,-68 136,-68 136,-62 142,-56 148,-56 148,-56 281,-56 281,-56 287,-56 293,-62 293,-68 293,-68 293,-80 293,-80 293,-86 287,-92 281,-92"/>
<text text-anchor="middle" x="214.5" y="-70.3" font-family="Times,serif" font-size="14.00" fill="#222222">Reshape(., [2, 3, 4])</text>
</g>
<!-- O_10 -->
<g id="node11" class="node">
<title>O_10</title>
<path fill="#aaaaee" stroke="#888888" d="M258,-38C258,-38 171,-38 171,-38 165,-38 159,-32 159,-26 159,-26 159,-12 159,-12 159,-6 165,0 171,0 171,0 258,0 258,0 264,0 270,-6 270,-12 270,-12 270,-26 270,-26 270,-32 264,-38 258,-38"/>
<text text-anchor="middle" x="214.5" y="-22.8" font-family="Times,serif" font-size="14.00" fill="#222222">Z</text>
<text text-anchor="middle" x="214.5" y="-7.8" font-family="Times,serif" font-size="14.00" fill="#222222">FLOAT(2,3,4)</text>
</g>
<!-- Reshape_7&#45;&gt;O_10 -->
<g id="edge8" class="edge">
<title>Reshape_7&#45;&gt;O_10</title>
<path fill="none" stroke="black" d="M214.5,-55.94C214.5,-53.45 214.5,-50.83 214.5,-48.19"/>
<polygon fill="black" stroke="black" points="214.5,-38.13 219,-48.13 214.5,-43.13 214.5,-48.13 214.5,-48.13 214.5,-48.13 214.5,-43.13 210,-48.13 214.5,-38.13 214.5,-38.13"/>
</g>
<!-- Mul_8&#45;&gt;Reshape_7 -->
<g id="edge4" class="edge">
<title>Mul_8&#45;&gt;Reshape_7</title>
<path fill="none" stroke="black" d="M264.96,-116.93C258.11,-111.24 250.34,-104.78 242.99,-98.67"/>
<polygon fill="black" stroke="black" points="235.24,-92.23 245.8,-95.16 239.08,-95.43 242.93,-98.62 242.93,-98.62 242.93,-98.62 239.08,-95.43 240.05,-102.08 235.24,-92.23 235.24,-92.23"/>
<text text-anchor="middle" x="274.5" y="-103.4" font-family="Times,serif" font-size="7.00">FLOAT(3,8)</text>
</g>
<!-- O_9 -->
<g id="node10" class="node">
<title>O_9</title>
<path fill="#aaaaee" stroke="#888888" d="M393.5,-93C393.5,-93 319.5,-93 319.5,-93 313.5,-93 307.5,-87 307.5,-81 307.5,-81 307.5,-67 307.5,-67 307.5,-61 313.5,-55 319.5,-55 319.5,-55 393.5,-55 393.5,-55 399.5,-55 405.5,-61 405.5,-67 405.5,-67 405.5,-81 405.5,-81 405.5,-87 399.5,-93 393.5,-93"/>
<text text-anchor="middle" x="356.5" y="-77.8" font-family="Times,serif" font-size="14.00" fill="#222222">xrr</text>
<text text-anchor="middle" x="356.5" y="-62.8" font-family="Times,serif" font-size="14.00" fill="#222222">FLOAT(3,8)</text>
</g>
<!-- Mul_8&#45;&gt;O_9 -->
<g id="edge7" class="edge">
<title>Mul_8&#45;&gt;O_9</title>
<path fill="none" stroke="black" d="M306.04,-116.93C312.51,-111.55 319.8,-105.5 326.78,-99.69"/>
<polygon fill="black" stroke="black" points="334.77,-93.06 329.96,-102.91 330.93,-96.25 327.08,-99.45 327.08,-99.45 327.08,-99.45 330.93,-96.25 324.21,-95.99 334.77,-93.06 334.77,-93.06"/>
</g>
</g>
</svg>
