<?xml version="1.0" encoding="UTF-8" standalone="no"?>
<!DOCTYPE svg PUBLIC "-//W3C//DTD SVG 1.1//EN"
 "http://www.w3.org/Graphics/SVG/1.1/DTD/svg11.dtd">
<!-- Generated by graphviz version 2.43.0 (0)
 -->
<!-- Title: %3 Pages: 1 -->
<svg width="215pt" height="223pt"
 viewBox="0.00 0.00 215.00 223.00" xmlns="http://www.w3.org/2000/svg" xmlns:xlink="http://www.w3.org/1999/xlink">
<g id="graph0" class="graph" transform="scale(1 1) rotate(0) translate(4 219)">
<title>%3</title>
<!-- I_0 -->
<g id="node1" class="node">
<title>I_0</title>
<path fill="#aaeeaa" stroke="#888888" d="M155.5,-215C155.5,-215 51.5,-215 51.5,-215 45.5,-215 39.5,-209 39.5,-203 39.5,-203 39.5,-189 39.5,-189 39.5,-183 45.5,-177 51.5,-177 51.5,-177 155.5,-177 155.5,-177 161.5,-177 167.5,-183 167.5,-189 167.5,-189 167.5,-203 167.5,-203 167.5,-209 161.5,-215 155.5,-215"/>
<text text-anchor="middle" x="103.5" y="-199.8" font-family="Times,serif" font-size="14.00" fill="#222222">X</text>
<text text-anchor="middle" x="103.5" y="-184.8" font-family="Times,serif" font-size="14.00" fill="#222222">FLOAT(batch,3)</text>
</g>
<!-- TreeEnsembleRegressor_1 -->
<g id="node2" class="node">
<title>TreeEnsembleRegressor_1</title>
<path fill="#cccccc" stroke="#888888" d="M195,-153C195,-153 12,-153 12,-153 6,-153 0,-147 0,-141 0,-141 0,-127 0,-127 0,-121 6,-115 12,-115 12,-115 195,-115 195,-115 201,-115 207,-121 207,-127 207,-127 207,-141 207,-141 207,-147 201,-153 195,-153"/>
<text text-anchor="middle" x="103.5" y="-137.8" font-family="Times,serif" font-size="14.00" fill="#222222">ai.onnx.ml.</text>
<text text-anchor="middle" x="103.5" y="-122.8" font-family="Times,serif" font-size="14.00" fill="#222222">TreeEnsembleRegressor(.)</text>
</g>
<!-- I_0&#45;&gt;TreeEnsembleRegressor_1 -->
<g id="edge1" class="edge">
<title>I_0&#45;&gt;TreeEnsembleRegressor_1</title>
<path fill="none" stroke="black" d="M103.5,-177C103.5,-172.8 103.5,-168.24 103.5,-163.71"/>
<polygon fill="black" stroke="black" points="103.5,-153.4 108,-163.4 103.5,-158.4 103.5,-163.4 103.5,-163.4 103.5,-163.4 103.5,-158.4 99,-163.4 103.5,-153.4 103.5,-153.4"/>
<text text-anchor="middle" x="132.5" y="-163.4" font-family="Times,serif" font-size="7.00">FLOAT(batch,3)</text>
</g>
<!-- Mul_2 -->
<g id="node3" class="node">
<title>Mul_2</title>
<path fill="#cccccc" stroke="#888888" d="M142,-91C142,-91 65,-91 65,-91 59,-91 53,-85 53,-79 53,-79 53,-67 53,-67 53,-61 59,-55 65,-55 65,-55 142,-55 142,-55 148,-55 154,-61 154,-67 154,-67 154,-79 154,-79 154,-85 148,-91 142,-91"/>
<text text-anchor="middle" x="103.5" y="-69.3" font-family="Times,serif" font-size="14.00" fill="#222222">Mul(., [0.4])</text>
</g>
<!-- TreeEnsembleRegressor_1&#45;&gt;Mul_2 -->
<g id="edge2" class="edge">
<title>TreeEnsembleRegressor_1&#45;&gt;Mul_2</title>
<path fill="none" stroke="black" d="M103.5,-114.98C103.5,-110.71 103.5,-106.06 103.5,-101.47"/>
<polygon fill="black" stroke="black" points="103.5,-91.1 108,-101.1 103.5,-96.1 103.5,-101.1 103.5,-101.1 103.5,-101.1 103.5,-96.1 99,-101.1 103.5,-91.1 103.5,-91.1"/>
<text text-anchor="middle" x="132.5" y="-101.4" font-family="Times,serif" font-size="7.00">FLOAT(batch,1)</text>
</g>
<!-- O_3 -->
<g id="node4" class="node">
<title>O_3</title>
<path fill="#aaaaee" stroke="#888888" d="M155.5,-38C155.5,-38 51.5,-38 51.5,-38 45.5,-38 39.5,-32 39.5,-26 39.5,-26 39.5,-12 39.5,-12 39.5,-6 45.5,0 51.5,0 51.5,0 155.5,0 155.5,0 161.5,0 167.5,-6 167.5,-12 167.5,-12 167.5,-26 167.5,-26 167.5,-32 161.5,-38 155.5,-38"/>
<text text-anchor="middle" x="103.5" y="-22.8" font-family="Times,serif" font-size="14.00" fill="#222222">Y</text>
<text text-anchor="middle" x="103.5" y="-7.8" font-family="Times,serif" font-size="14.00" fill="#222222">FLOAT(batch,1)</text>
</g>
<!-- Mul_2&#45;&gt;O_3 -->
<g id="edge3" class="edge">
<title>Mul_2&#45;&gt;O_3</title>
<path fill="none" stroke="black" d="M103.5,-54.97C103.5,-52.89 103.5,-50.72 103.5,-48.53"/>
<polygon fill="black" stroke="black" points="103.5,-38.32 108,-48.32 103.5,-43.32 103.5,-48.32 103.5,-48.32 103.5,-48.32 103.5,-43.32 99,-48.32 103.5,-38.32 103.5,-38.32"/>
</g>
</g>
</svg>
