<?xml version="1.0" encoding="UTF-8" standalone="no"?>
<!DOCTYPE svg PUBLIC "-//W3C//DTD SVG 1.1//EN"
 "http://www.w3.org/Graphics/SVG/1.1/DTD/svg11.dtd">
<!-- Generated by graphviz version 2.43.0 (0)
 -->
<!-- Title: %3 Pages: 1 -->
<svg width="1638pt" height="202pt"
 viewBox="0.00 0.00 1638.00 202.00" xmlns="http://www.w3.org/2000/svg" xmlns:xlink="http://www.w3.org/1999/xlink">
<g id="graph0" class="graph" transform="scale(1 1) rotate(0) translate(4 198)">
<title>%3</title>
<!-- I_0 -->
<g id="node1" class="node">
<title>I_0</title>
<path fill="#aaeeaa" stroke="#888888" d="M106,-194C106,-194 12,-194 12,-194 6,-194 0,-188 0,-182 0,-182 0,-168 0,-168 0,-162 6,-156 12,-156 12,-156 106,-156 106,-156 112,-156 118,-162 118,-168 118,-168 118,-182 118,-182 118,-188 112,-194 106,-194"/>
<text text-anchor="middle" x="59" y="-178.8" font-family="Times,serif" font-size="14.00" fill="#222222">init1_s_::RSh1</text>
<text text-anchor="middle" x="59" y="-163.8" font-family="Times,serif" font-size="14.00" fill="#222222">FLOAT(1)</text>
</g>
<!-- LocalAttentionGQASW_to1_7 -->
<g id="node8" class="node">
<title>LocalAttentionGQASW_to1_7</title>
<path fill="#cccccc" stroke="#888888" d="M977.5,-108C977.5,-108 794.5,-108 794.5,-108 788.5,-108 782.5,-102 782.5,-96 782.5,-96 782.5,-67 782.5,-67 782.5,-61 788.5,-55 794.5,-55 794.5,-55 977.5,-55 977.5,-55 983.5,-55 989.5,-61 989.5,-67 989.5,-67 989.5,-96 989.5,-96 989.5,-102 983.5,-108 977.5,-108"/>
<text text-anchor="middle" x="886" y="-92.8" font-family="Times,serif" font-size="14.00" fill="#222222">intermediate.</text>
<text text-anchor="middle" x="886" y="-77.8" font-family="Times,serif" font-size="14.00" fill="#222222">LocalAttentionGQASW_to1</text>
<text text-anchor="middle" x="886" y="-62.8" font-family="Times,serif" font-size="14.00" fill="#222222">(., ., ., ., ., ., .)</text>
</g>
<!-- I_0&#45;&gt;LocalAttentionGQASW_to1_7 -->
<g id="edge5" class="edge">
<title>I_0&#45;&gt;LocalAttentionGQASW_to1_7</title>
<path fill="none" stroke="black" d="M118.32,-157.61C120.57,-157.06 122.8,-156.52 125,-156 213.66,-135.12 235.66,-127.64 326,-116 479.78,-96.19 658.86,-88.07 772.3,-84.75"/>
<polygon fill="black" stroke="black" points="782.39,-84.46 772.52,-89.25 777.39,-84.61 772.39,-84.75 772.39,-84.75 772.39,-84.75 777.39,-84.61 772.27,-80.25 782.39,-84.46 782.39,-84.46"/>
<text text-anchor="middle" x="343.5" y="-130.4" font-family="Times,serif" font-size="7.00">FLOAT(1)</text>
</g>
<!-- I_1 -->
<g id="node2" class="node">
<title>I_1</title>
<path fill="#aaeeaa" stroke="#888888" d="M353.5,-194C353.5,-194 144.5,-194 144.5,-194 138.5,-194 132.5,-188 132.5,-182 132.5,-182 132.5,-168 132.5,-168 132.5,-162 138.5,-156 144.5,-156 144.5,-156 353.5,-156 353.5,-156 359.5,-156 365.5,-162 365.5,-168 365.5,-168 365.5,-182 365.5,-182 365.5,-188 359.5,-194 353.5,-194"/>
<text text-anchor="middle" x="249" y="-178.8" font-family="Times,serif" font-size="14.00" fill="#222222">query</text>
<text text-anchor="middle" x="249" y="-163.8" font-family="Times,serif" font-size="14.00" fill="#222222">FLOAT(batch,8,seq_length,32)</text>
</g>
<!-- I_1&#45;&gt;LocalAttentionGQASW_to1_7 -->
<g id="edge1" class="edge">
<title>I_1&#45;&gt;LocalAttentionGQASW_to1_7</title>
<path fill="none" stroke="black" d="M325.47,-156C382.19,-143.21 461.56,-126.52 532,-116 611.87,-104.07 702.55,-95.59 772.14,-90.14"/>
<polygon fill="black" stroke="black" points="782.25,-89.36 772.62,-94.62 777.26,-89.74 772.28,-90.13 772.28,-90.13 772.28,-90.13 777.26,-89.74 771.93,-85.64 782.25,-89.36 782.25,-89.36"/>
<text text-anchor="middle" x="587.5" y="-130.4" font-family="Times,serif" font-size="7.00">FLOAT(batch,8,seq_length,32)</text>
</g>
<!-- I_2 -->
<g id="node3" class="node">
<title>I_2</title>
<path fill="#aaeeaa" stroke="#888888" d="M696,-194C696,-194 392,-194 392,-194 386,-194 380,-188 380,-182 380,-182 380,-168 380,-168 380,-162 386,-156 392,-156 392,-156 696,-156 696,-156 702,-156 708,-162 708,-168 708,-168 708,-182 708,-182 708,-188 702,-194 696,-194"/>
<text text-anchor="middle" x="544" y="-178.8" font-family="Times,serif" font-size="14.00" fill="#222222">cat_1</text>
<text text-anchor="middle" x="544" y="-163.8" font-family="Times,serif" font-size="14.00" fill="#222222">FLOAT(batch,4,past_length+seq_length,32)</text>
</g>
<!-- I_2&#45;&gt;LocalAttentionGQASW_to1_7 -->
<g id="edge3" class="edge">
<title>I_2&#45;&gt;LocalAttentionGQASW_to1_7</title>
<path fill="none" stroke="black" d="M611.57,-155.92C659.77,-143.03 725.55,-125.43 780.61,-110.7"/>
<polygon fill="black" stroke="black" points="790.41,-108.07 781.92,-115.01 785.58,-109.37 780.75,-110.66 780.75,-110.66 780.75,-110.66 785.58,-109.37 779.59,-106.31 790.41,-108.07 790.41,-108.07"/>
<text text-anchor="middle" x="801.5" y="-142.4" font-family="Times,serif" font-size="7.00">FLOAT(batch,</text>
<text text-anchor="middle" x="801.5" y="-134.4" font-family="Times,serif" font-size="7.00">4,</text>
<text text-anchor="middle" x="801.5" y="-126.4" font-family="Times,serif" font-size="7.00">past_length+seq_length,</text>
<text text-anchor="middle" x="801.5" y="-118.4" font-family="Times,serif" font-size="7.00">32)</text>
</g>
<!-- I_3 -->
<g id="node4" class="node">
<title>I_3</title>
<path fill="#aaeeaa" stroke="#888888" d="M1038,-194C1038,-194 734,-194 734,-194 728,-194 722,-188 722,-182 722,-182 722,-168 722,-168 722,-162 728,-156 734,-156 734,-156 1038,-156 1038,-156 1044,-156 1050,-162 1050,-168 1050,-168 1050,-182 1050,-182 1050,-188 1044,-194 1038,-194"/>
<text text-anchor="middle" x="886" y="-178.8" font-family="Times,serif" font-size="14.00" fill="#222222">cat</text>
<text text-anchor="middle" x="886" y="-163.8" font-family="Times,serif" font-size="14.00" fill="#222222">FLOAT(batch,4,past_length+seq_length,32)</text>
</g>
<!-- I_3&#45;&gt;LocalAttentionGQASW_to1_7 -->
<g id="edge2" class="edge">
<title>I_3&#45;&gt;LocalAttentionGQASW_to1_7</title>
<path fill="none" stroke="black" d="M886,-155.92C886,-145.16 886,-131.11 886,-118.2"/>
<polygon fill="black" stroke="black" points="886,-108.16 890.5,-118.16 886,-113.16 886,-118.16 886,-118.16 886,-118.16 886,-113.16 881.5,-118.16 886,-108.16 886,-108.16"/>
<text text-anchor="middle" x="931.5" y="-142.4" font-family="Times,serif" font-size="7.00">FLOAT(batch,</text>
<text text-anchor="middle" x="931.5" y="-134.4" font-family="Times,serif" font-size="7.00">4,</text>
<text text-anchor="middle" x="931.5" y="-126.4" font-family="Times,serif" font-size="7.00">past_length+seq_length,</text>
<text text-anchor="middle" x="931.5" y="-118.4" font-family="Times,serif" font-size="7.00">32)</text>
</g>
<!-- I_4 -->
<g id="node5" class="node">
<title>I_4</title>
<path fill="#aaeeaa" stroke="#888888" d="M1288,-194C1288,-194 1076,-194 1076,-194 1070,-194 1064,-188 1064,-182 1064,-182 1064,-168 1064,-168 1064,-162 1070,-156 1076,-156 1076,-156 1288,-156 1288,-156 1294,-156 1300,-162 1300,-168 1300,-168 1300,-182 1300,-182 1300,-188 1294,-194 1288,-194"/>
<text text-anchor="middle" x="1182" y="-178.8" font-family="Times,serif" font-size="14.00" fill="#222222">to</text>
<text text-anchor="middle" x="1182" y="-163.8" font-family="Times,serif" font-size="14.00" fill="#222222">BOOL(seq_length,total_length)</text>
</g>
<!-- I_4&#45;&gt;LocalAttentionGQASW_to1_7 -->
<g id="edge4" class="edge">
<title>I_4&#45;&gt;LocalAttentionGQASW_to1_7</title>
<path fill="none" stroke="black" d="M1123.52,-155.92C1082.14,-143.13 1025.81,-125.72 978.4,-111.06"/>
<polygon fill="black" stroke="black" points="968.73,-108.07 979.61,-106.73 973.51,-109.55 978.28,-111.03 978.28,-111.03 978.28,-111.03 973.51,-109.55 976.96,-115.33 968.73,-108.07 968.73,-108.07"/>
<text text-anchor="middle" x="1151.5" y="-130.4" font-family="Times,serif" font-size="7.00">BOOL(seq_length,total_length)</text>
</g>
<!-- I_5 -->
<g id="node6" class="node">
<title>I_5</title>
<path fill="#aaeeaa" stroke="#888888" d="M1451.5,-194C1451.5,-194 1326.5,-194 1326.5,-194 1320.5,-194 1314.5,-188 1314.5,-182 1314.5,-182 1314.5,-168 1314.5,-168 1314.5,-162 1320.5,-156 1326.5,-156 1326.5,-156 1451.5,-156 1451.5,-156 1457.5,-156 1463.5,-162 1463.5,-168 1463.5,-168 1463.5,-182 1463.5,-182 1463.5,-188 1457.5,-194 1451.5,-194"/>
<text text-anchor="middle" x="1389" y="-178.8" font-family="Times,serif" font-size="14.00" fill="#222222">init7_s4_0_8_&#45;1_32</text>
<text text-anchor="middle" x="1389" y="-163.8" font-family="Times,serif" font-size="14.00" fill="#222222">INT64(4)</text>
</g>
<!-- I_5&#45;&gt;LocalAttentionGQASW_to1_7 -->
<g id="edge7" class="edge">
<title>I_5&#45;&gt;LocalAttentionGQASW_to1_7</title>
<path fill="none" stroke="black" d="M1343.16,-155.97C1307.86,-142.83 1257.55,-125.69 1212,-116 1142.27,-101.17 1062.7,-92.83 999.63,-88.18"/>
<polygon fill="black" stroke="black" points="989.66,-87.47 999.95,-83.7 994.64,-87.83 999.63,-88.18 999.63,-88.18 999.63,-88.18 994.64,-87.83 999.31,-92.67 989.66,-87.47 989.66,-87.47"/>
<text text-anchor="middle" x="1335" y="-130.4" font-family="Times,serif" font-size="7.00">INT64(4)</text>
</g>
<!-- I_6 -->
<g id="node7" class="node">
<title>I_6</title>
<path fill="#aaeeaa" stroke="#888888" d="M1618,-194C1618,-194 1490,-194 1490,-194 1484,-194 1478,-188 1478,-182 1478,-182 1478,-168 1478,-168 1478,-162 1484,-156 1490,-156 1490,-156 1618,-156 1618,-156 1624,-156 1630,-162 1630,-168 1630,-168 1630,-182 1630,-182 1630,-188 1624,-194 1618,-194"/>
<text text-anchor="middle" x="1554" y="-178.8" font-family="Times,serif" font-size="14.00" fill="#222222">init7_s5_1_1_2_1_1</text>
<text text-anchor="middle" x="1554" y="-163.8" font-family="Times,serif" font-size="14.00" fill="#222222">INT64(5)</text>
</g>
<!-- I_6&#45;&gt;LocalAttentionGQASW_to1_7 -->
<g id="edge6" class="edge">
<title>I_6&#45;&gt;LocalAttentionGQASW_to1_7</title>
<path fill="none" stroke="black" d="M1503.17,-155.94C1463.38,-142.6 1406.36,-125.21 1355,-116 1235.03,-94.48 1095.46,-86.67 999.97,-83.89"/>
<polygon fill="black" stroke="black" points="989.71,-83.61 999.83,-79.39 994.71,-83.75 999.71,-83.89 999.71,-83.89 999.71,-83.89 994.71,-83.75 999.58,-88.39 989.71,-83.61 989.71,-83.61"/>
<text text-anchor="middle" x="1491" y="-130.4" font-family="Times,serif" font-size="7.00">INT64(5)</text>
</g>
<!-- O_8 -->
<g id="node9" class="node">
<title>O_8</title>
<path fill="#aaaaee" stroke="#888888" d="M990.5,-38C990.5,-38 781.5,-38 781.5,-38 775.5,-38 769.5,-32 769.5,-26 769.5,-26 769.5,-12 769.5,-12 769.5,-6 775.5,0 781.5,0 781.5,0 990.5,0 990.5,0 996.5,0 1002.5,-6 1002.5,-12 1002.5,-12 1002.5,-26 1002.5,-26 1002.5,-32 996.5,-38 990.5,-38"/>
<text text-anchor="middle" x="886" y="-22.8" font-family="Times,serif" font-size="14.00" fill="#222222">output_0</text>
<text text-anchor="middle" x="886" y="-7.8" font-family="Times,serif" font-size="14.00" fill="#222222">FLOAT(batch,8,seq_length,32)</text>
</g>
<!-- LocalAttentionGQASW_to1_7&#45;&gt;O_8 -->
<g id="edge8" class="edge">
<title>LocalAttentionGQASW_to1_7&#45;&gt;O_8</title>
<path fill="none" stroke="black" d="M886,-54.84C886,-52.77 886,-50.66 886,-48.56"/>
<polygon fill="black" stroke="black" points="886,-38.36 890.5,-48.36 886,-43.36 886,-48.36 886,-48.36 886,-48.36 886,-43.36 881.5,-48.36 886,-38.36 886,-38.36"/>
</g>
</g>
</svg>
