<?xml version="1.0" encoding="UTF-8" standalone="no"?>
<!DOCTYPE svg PUBLIC "-//W3C//DTD SVG 1.1//EN"
 "http://www.w3.org/Graphics/SVG/1.1/DTD/svg11.dtd">
<!-- Generated by graphviz version 2.43.0 (0)
 -->
<!-- Title: %3 Pages: 1 -->
<svg width="425pt" height="161pt"
 viewBox="0.00 0.00 425.00 161.00" xmlns="http://www.w3.org/2000/svg" xmlns:xlink="http://www.w3.org/1999/xlink">
<g id="graph0" class="graph" transform="scale(1 1) rotate(0) translate(4 157)">
<title>%3</title>
<!-- I_0 -->
<g id="node1" class="node">
<title>I_0</title>
<path fill="#aaeeaa" stroke="#888888" d="M149,-153C149,-153 12,-153 12,-153 6,-153 0,-147 0,-141 0,-141 0,-127 0,-127 0,-121 6,-115 12,-115 12,-115 149,-115 149,-115 155,-115 161,-121 161,-127 161,-127 161,-141 161,-141 161,-147 155,-153 149,-153"/>
<text text-anchor="middle" x="80.5" y="-137.8" font-family="Times,serif" font-size="14.00" fill="#222222">X</text>
<text text-anchor="middle" x="80.5" y="-122.8" font-family="Times,serif" font-size="14.00" fill="#222222">FLOAT(512,3,64,64)</text>
</g>
<!-- Conv_3 -->
<g id="node4" class="node">
<title>Conv_3</title>
<path fill="#cccccc" stroke="#888888" d="M278,-91C278,-91 207,-91 207,-91 201,-91 195,-85 195,-79 195,-79 195,-67 195,-67 195,-61 201,-55 207,-55 207,-55 278,-55 278,-55 284,-55 290,-61 290,-67 290,-67 290,-79 290,-79 290,-85 284,-91 278,-91"/>
<text text-anchor="middle" x="242.5" y="-69.3" font-family="Times,serif" font-size="14.00" fill="#222222">Conv(., ., .)</text>
</g>
<!-- I_0&#45;&gt;Conv_3 -->
<g id="edge1" class="edge">
<title>I_0&#45;&gt;Conv_3</title>
<path fill="none" stroke="black" d="M124.95,-114.85C138.25,-109.58 152.91,-103.92 166.5,-99 172.5,-96.83 178.79,-94.63 185.08,-92.49"/>
<polygon fill="black" stroke="black" points="194.92,-89.18 186.88,-96.63 190.18,-90.77 185.44,-92.37 185.44,-92.37 185.44,-92.37 190.18,-90.77 184.01,-88.1 194.92,-89.18 194.92,-89.18"/>
<text text-anchor="middle" x="203" y="-101.4" font-family="Times,serif" font-size="7.00">FLOAT(512,3,64,64)</text>
</g>
<!-- I_1 -->
<g id="node2" class="node">
<title>I_1</title>
<path fill="#aaeeaa" stroke="#888888" d="M297.5,-153C297.5,-153 187.5,-153 187.5,-153 181.5,-153 175.5,-147 175.5,-141 175.5,-141 175.5,-127 175.5,-127 175.5,-121 181.5,-115 187.5,-115 187.5,-115 297.5,-115 297.5,-115 303.5,-115 309.5,-121 309.5,-127 309.5,-127 309.5,-141 309.5,-141 309.5,-147 303.5,-153 297.5,-153"/>
<text text-anchor="middle" x="242.5" y="-137.8" font-family="Times,serif" font-size="14.00" fill="#222222">W</text>
<text text-anchor="middle" x="242.5" y="-122.8" font-family="Times,serif" font-size="14.00" fill="#222222">FLOAT(64,3,4,4)</text>
</g>
<!-- I_1&#45;&gt;Conv_3 -->
<g id="edge2" class="edge">
<title>I_1&#45;&gt;Conv_3</title>
<path fill="none" stroke="black" d="M242.5,-114.98C242.5,-110.71 242.5,-106.06 242.5,-101.47"/>
<polygon fill="black" stroke="black" points="242.5,-91.1 247,-101.1 242.5,-96.1 242.5,-101.1 242.5,-101.1 242.5,-101.1 242.5,-96.1 238,-101.1 242.5,-91.1 242.5,-91.1"/>
<text text-anchor="middle" x="272.5" y="-101.4" font-family="Times,serif" font-size="7.00">FLOAT(64,3,4,4)</text>
</g>
<!-- i_2 -->
<g id="node3" class="node">
<title>i_2</title>
<path fill="#cccc00" stroke="#888888" d="M405,-153C405,-153 336,-153 336,-153 330,-153 324,-147 324,-141 324,-141 324,-127 324,-127 324,-121 330,-115 336,-115 336,-115 405,-115 405,-115 411,-115 417,-121 417,-127 417,-127 417,-141 417,-141 417,-147 411,-153 405,-153"/>
<text text-anchor="middle" x="370.5" y="-137.8" font-family="Times,serif" font-size="14.00" fill="#222222">B2</text>
<text text-anchor="middle" x="370.5" y="-122.8" font-family="Times,serif" font-size="14.00" fill="#222222">FLOAT(64)</text>
</g>
<!-- i_2&#45;&gt;Conv_3 -->
<g id="edge3" class="edge">
<title>i_2&#45;&gt;Conv_3</title>
<path fill="none" stroke="black" d="M337.43,-114.85C327.29,-109.52 316.03,-103.83 305.5,-99 302.56,-97.65 299.52,-96.3 296.44,-94.97"/>
<polygon fill="black" stroke="black" points="287.15,-91.05 298.11,-90.79 291.75,-92.99 296.36,-94.94 296.36,-94.94 296.36,-94.94 291.75,-92.99 294.61,-99.08 287.15,-91.05 287.15,-91.05"/>
<text text-anchor="middle" x="341.5" y="-101.4" font-family="Times,serif" font-size="7.00">FLOAT(64)</text>
</g>
<!-- O_4 -->
<g id="node5" class="node">
<title>O_4</title>
<path fill="#aaaaee" stroke="#888888" d="M315.5,-38C315.5,-38 169.5,-38 169.5,-38 163.5,-38 157.5,-32 157.5,-26 157.5,-26 157.5,-12 157.5,-12 157.5,-6 163.5,0 169.5,0 169.5,0 315.5,0 315.5,0 321.5,0 327.5,-6 327.5,-12 327.5,-12 327.5,-26 327.5,-26 327.5,-32 321.5,-38 315.5,-38"/>
<text text-anchor="middle" x="242.5" y="-22.8" font-family="Times,serif" font-size="14.00" fill="#222222">Y</text>
<text text-anchor="middle" x="242.5" y="-7.8" font-family="Times,serif" font-size="14.00" fill="#222222">FLOAT(512,64,32,32)</text>
</g>
<!-- Conv_3&#45;&gt;O_4 -->
<g id="edge4" class="edge">
<title>Conv_3&#45;&gt;O_4</title>
<path fill="none" stroke="black" d="M242.5,-54.97C242.5,-52.89 242.5,-50.72 242.5,-48.53"/>
<polygon fill="black" stroke="black" points="242.5,-38.32 247,-48.32 242.5,-43.32 242.5,-48.32 242.5,-48.32 242.5,-48.32 242.5,-43.32 238,-48.32 242.5,-38.32 242.5,-38.32"/>
</g>
</g>
</svg>
