<?xml version="1.0" encoding="UTF-8" standalone="no"?>
<!DOCTYPE svg PUBLIC "-//W3C//DTD SVG 1.1//EN"
 "http://www.w3.org/Graphics/SVG/1.1/DTD/svg11.dtd">
<!-- Generated by graphviz version 2.43.0 (0)
 -->
<!-- Title: %3 Pages: 1 -->
<svg width="338pt" height="161pt"
 viewBox="0.00 0.00 338.00 161.00" xmlns="http://www.w3.org/2000/svg" xmlns:xlink="http://www.w3.org/1999/xlink">
<g id="graph0" class="graph" transform="scale(1 1) rotate(0) translate(4 157)">
<title>%3</title>
<!-- I_0 -->
<g id="node1" class="node">
<title>I_0</title>
<path fill="#aaeeaa" stroke="#888888" d="M200.5,-153C200.5,-153 127.5,-153 127.5,-153 121.5,-153 115.5,-147 115.5,-141 115.5,-141 115.5,-127 115.5,-127 115.5,-121 121.5,-115 127.5,-115 127.5,-115 200.5,-115 200.5,-115 206.5,-115 212.5,-121 212.5,-127 212.5,-127 212.5,-141 212.5,-141 212.5,-147 206.5,-153 200.5,-153"/>
<text text-anchor="middle" x="164" y="-137.8" font-family="Times,serif" font-size="14.00" fill="#222222">X</text>
<text text-anchor="middle" x="164" y="-122.8" font-family="Times,serif" font-size="14.00" fill="#222222">FLOAT(a,2)</text>
</g>
<!-- Gather_1 -->
<g id="node2" class="node">
<title>Gather_1</title>
<path fill="#cccccc" stroke="#888888" d="M146,-91C146,-91 12,-91 12,-91 6,-91 0,-85 0,-79 0,-79 0,-67 0,-67 0,-61 6,-55 12,-55 12,-55 146,-55 146,-55 152,-55 158,-61 158,-67 158,-67 158,-79 158,-79 158,-85 152,-91 146,-91"/>
<text text-anchor="middle" x="79" y="-69.3" font-family="Times,serif" font-size="14.00" fill="#222222">Gather(., 0, axis=1)</text>
</g>
<!-- I_0&#45;&gt;Gather_1 -->
<g id="edge1" class="edge">
<title>I_0&#45;&gt;Gather_1</title>
<path fill="none" stroke="black" d="M138.04,-114.98C129.83,-109.28 120.66,-102.92 112.03,-96.93"/>
<polygon fill="black" stroke="black" points="103.64,-91.1 114.42,-93.11 107.75,-93.96 111.86,-96.81 111.86,-96.81 111.86,-96.81 107.75,-93.96 109.29,-100.5 103.64,-91.1 103.64,-91.1"/>
<text text-anchor="middle" x="146" y="-101.4" font-family="Times,serif" font-size="7.00">FLOAT(a,2)</text>
</g>
<!-- Gather_2 -->
<g id="node3" class="node">
<title>Gather_2</title>
<path fill="#cccccc" stroke="#888888" d="M318,-91C318,-91 184,-91 184,-91 178,-91 172,-85 172,-79 172,-79 172,-67 172,-67 172,-61 178,-55 184,-55 184,-55 318,-55 318,-55 324,-55 330,-61 330,-67 330,-67 330,-79 330,-79 330,-85 324,-91 318,-91"/>
<text text-anchor="middle" x="251" y="-69.3" font-family="Times,serif" font-size="14.00" fill="#222222">Gather(., 1, axis=1)</text>
</g>
<!-- I_0&#45;&gt;Gather_2 -->
<g id="edge2" class="edge">
<title>I_0&#45;&gt;Gather_2</title>
<path fill="none" stroke="black" d="M190.58,-114.98C199.06,-109.22 208.56,-102.78 217.47,-96.74"/>
<polygon fill="black" stroke="black" points="225.78,-91.1 220.03,-100.44 221.64,-93.91 217.5,-96.72 217.5,-96.72 217.5,-96.72 221.64,-93.91 214.98,-92.99 225.78,-91.1 225.78,-91.1"/>
<text text-anchor="middle" x="234" y="-101.4" font-family="Times,serif" font-size="7.00">FLOAT(a,2)</text>
</g>
<!-- O_4 -->
<g id="node5" class="node">
<title>O_4</title>
<path fill="#aaaaee" stroke="#888888" d="M108.5,-38C108.5,-38 49.5,-38 49.5,-38 43.5,-38 37.5,-32 37.5,-26 37.5,-26 37.5,-12 37.5,-12 37.5,-6 43.5,0 49.5,0 49.5,0 108.5,0 108.5,0 114.5,0 120.5,-6 120.5,-12 120.5,-12 120.5,-26 120.5,-26 120.5,-32 114.5,-38 108.5,-38"/>
<text text-anchor="middle" x="79" y="-22.8" font-family="Times,serif" font-size="14.00" fill="#222222">x1</text>
<text text-anchor="middle" x="79" y="-7.8" font-family="Times,serif" font-size="14.00" fill="#222222">FLOAT(a)</text>
</g>
<!-- Gather_1&#45;&gt;O_4 -->
<g id="edge4" class="edge">
<title>Gather_1&#45;&gt;O_4</title>
<path fill="none" stroke="black" d="M79,-54.97C79,-52.89 79,-50.72 79,-48.53"/>
<polygon fill="black" stroke="black" points="79,-38.32 83.5,-48.32 79,-43.32 79,-48.32 79,-48.32 79,-48.32 79,-43.32 74.5,-48.32 79,-38.32 79,-38.32"/>
</g>
<!-- O_3 -->
<g id="node4" class="node">
<title>O_3</title>
<path fill="#aaaaee" stroke="#888888" d="M280.5,-38C280.5,-38 221.5,-38 221.5,-38 215.5,-38 209.5,-32 209.5,-26 209.5,-26 209.5,-12 209.5,-12 209.5,-6 215.5,0 221.5,0 221.5,0 280.5,0 280.5,0 286.5,0 292.5,-6 292.5,-12 292.5,-12 292.5,-26 292.5,-26 292.5,-32 286.5,-38 280.5,-38"/>
<text text-anchor="middle" x="251" y="-22.8" font-family="Times,serif" font-size="14.00" fill="#222222">x2</text>
<text text-anchor="middle" x="251" y="-7.8" font-family="Times,serif" font-size="14.00" fill="#222222">FLOAT(a)</text>
</g>
<!-- Gather_2&#45;&gt;O_3 -->
<g id="edge3" class="edge">
<title>Gather_2&#45;&gt;O_3</title>
<path fill="none" stroke="black" d="M251,-54.97C251,-52.89 251,-50.72 251,-48.53"/>
<polygon fill="black" stroke="black" points="251,-38.32 255.5,-48.32 251,-43.32 251,-48.32 251,-48.32 251,-48.32 251,-43.32 246.5,-48.32 251,-38.32 251,-38.32"/>
</g>
</g>
</svg>
