<?xml version="1.0" encoding="UTF-8" standalone="no"?>
<!DOCTYPE svg PUBLIC "-//W3C//DTD SVG 1.1//EN"
 "http://www.w3.org/Graphics/SVG/1.1/DTD/svg11.dtd">
<!-- Generated by graphviz version 2.43.0 (0)
 -->
<!-- Title: %3 Pages: 1 -->
<svg width="287pt" height="223pt"
 viewBox="0.00 0.00 286.50 223.00" xmlns="http://www.w3.org/2000/svg" xmlns:xlink="http://www.w3.org/1999/xlink">
<g id="graph0" class="graph" transform="scale(1 1) rotate(0) translate(4 219)">
<title>%3</title>
<!-- I_0 -->
<g id="node1" class="node">
<title>I_0</title>
<path fill="#aaeeaa" stroke="#888888" d="M85,-153C85,-153 12,-153 12,-153 6,-153 0,-147 0,-141 0,-141 0,-127 0,-127 0,-121 6,-115 12,-115 12,-115 85,-115 85,-115 91,-115 97,-121 97,-127 97,-127 97,-141 97,-141 97,-147 91,-153 85,-153"/>
<text text-anchor="middle" x="48.5" y="-137.8" font-family="Times,serif" font-size="14.00" fill="#222222">X</text>
<text text-anchor="middle" x="48.5" y="-122.8" font-family="Times,serif" font-size="14.00" fill="#222222">FLOAT(a,1)</text>
</g>
<!-- Expand_3 -->
<g id="node4" class="node">
<title>Expand_3</title>
<path fill="#cccccc" stroke="#888888" d="M137,-91C137,-91 62,-91 62,-91 56,-91 50,-85 50,-79 50,-79 50,-67 50,-67 50,-61 56,-55 62,-55 62,-55 137,-55 137,-55 143,-55 149,-61 149,-67 149,-67 149,-79 149,-79 149,-85 143,-91 137,-91"/>
<text text-anchor="middle" x="99.5" y="-69.3" font-family="Times,serif" font-size="14.00" fill="#222222">Expand(., .)</text>
</g>
<!-- I_0&#45;&gt;Expand_3 -->
<g id="edge2" class="edge">
<title>I_0&#45;&gt;Expand_3</title>
<path fill="none" stroke="black" d="M64.08,-114.98C68.49,-109.88 73.36,-104.23 78.05,-98.81"/>
<polygon fill="black" stroke="black" points="84.71,-91.1 81.58,-101.61 81.44,-94.89 78.17,-98.67 78.17,-98.67 78.17,-98.67 81.44,-94.89 74.77,-95.73 84.71,-91.1 84.71,-91.1"/>
<text text-anchor="middle" x="97.5" y="-101.4" font-family="Times,serif" font-size="7.00">FLOAT(a,1)</text>
</g>
<!-- I_1 -->
<g id="node2" class="node">
<title>I_1</title>
<path fill="#aaeeaa" stroke="#888888" d="M222.5,-215C222.5,-215 166.5,-215 166.5,-215 160.5,-215 154.5,-209 154.5,-203 154.5,-203 154.5,-189 154.5,-189 154.5,-183 160.5,-177 166.5,-177 166.5,-177 222.5,-177 222.5,-177 228.5,-177 234.5,-183 234.5,-189 234.5,-189 234.5,-203 234.5,-203 234.5,-209 228.5,-215 222.5,-215"/>
<text text-anchor="middle" x="194.5" y="-199.8" font-family="Times,serif" font-size="14.00" fill="#222222">two</text>
<text text-anchor="middle" x="194.5" y="-184.8" font-family="Times,serif" font-size="14.00" fill="#222222">INT64(1)</text>
</g>
<!-- Concat_2 -->
<g id="node3" class="node">
<title>Concat_2</title>
<path fill="#cccccc" stroke="#888888" d="M266.5,-152C266.5,-152 122.5,-152 122.5,-152 116.5,-152 110.5,-146 110.5,-140 110.5,-140 110.5,-128 110.5,-128 110.5,-122 116.5,-116 122.5,-116 122.5,-116 266.5,-116 266.5,-116 272.5,-116 278.5,-122 278.5,-128 278.5,-128 278.5,-140 278.5,-140 278.5,-146 272.5,-152 266.5,-152"/>
<text text-anchor="middle" x="194.5" y="-130.3" font-family="Times,serif" font-size="14.00" fill="#222222">Concat([1], ., axis=0)</text>
</g>
<!-- I_1&#45;&gt;Concat_2 -->
<g id="edge1" class="edge">
<title>I_1&#45;&gt;Concat_2</title>
<path fill="none" stroke="black" d="M194.5,-177C194.5,-172.45 194.5,-167.46 194.5,-162.55"/>
<polygon fill="black" stroke="black" points="194.5,-152.17 199,-162.17 194.5,-157.17 194.5,-162.17 194.5,-162.17 194.5,-162.17 194.5,-157.17 190,-162.17 194.5,-152.17 194.5,-152.17"/>
<text text-anchor="middle" x="211.5" y="-163.4" font-family="Times,serif" font-size="7.00">INT64(1)</text>
</g>
<!-- Concat_2&#45;&gt;Expand_3 -->
<g id="edge3" class="edge">
<title>Concat_2&#45;&gt;Expand_3</title>
<path fill="none" stroke="black" d="M167.02,-115.93C157.18,-109.82 145.92,-102.83 135.47,-96.34"/>
<polygon fill="black" stroke="black" points="126.92,-91.03 137.79,-92.48 131.16,-93.66 135.41,-96.3 135.41,-96.3 135.41,-96.3 131.16,-93.66 133.04,-100.13 126.92,-91.03 126.92,-91.03"/>
<text text-anchor="middle" x="166.5" y="-101.4" font-family="Times,serif" font-size="7.00">INT64(2)</text>
</g>
<!-- O_4 -->
<g id="node5" class="node">
<title>O_4</title>
<path fill="#aaaaee" stroke="#888888" d="M136,-38C136,-38 63,-38 63,-38 57,-38 51,-32 51,-26 51,-26 51,-12 51,-12 51,-6 57,0 63,0 63,0 136,0 136,0 142,0 148,-6 148,-12 148,-12 148,-26 148,-26 148,-32 142,-38 136,-38"/>
<text text-anchor="middle" x="99.5" y="-22.8" font-family="Times,serif" font-size="14.00" fill="#222222">Y</text>
<text text-anchor="middle" x="99.5" y="-7.8" font-family="Times,serif" font-size="14.00" fill="#222222">FLOAT(a,2)</text>
</g>
<!-- Expand_3&#45;&gt;O_4 -->
<g id="edge4" class="edge">
<title>Expand_3&#45;&gt;O_4</title>
<path fill="none" stroke="black" d="M99.5,-54.97C99.5,-52.89 99.5,-50.72 99.5,-48.53"/>
<polygon fill="black" stroke="black" points="99.5,-38.32 104,-48.32 99.5,-43.32 99.5,-48.32 99.5,-48.32 99.5,-48.32 99.5,-43.32 95,-48.32 99.5,-38.32 99.5,-38.32"/>
</g>
</g>
</svg>
