<?xml version="1.0" encoding="UTF-8" standalone="no"?>
<!DOCTYPE svg PUBLIC "-//W3C//DTD SVG 1.1//EN"
 "http://www.w3.org/Graphics/SVG/1.1/DTD/svg11.dtd">
<!-- Generated by graphviz version 2.43.0 (0)
 -->
<!-- Title: %3 Pages: 1 -->
<svg width="326pt" height="161pt"
 viewBox="0.00 0.00 326.00 161.00" xmlns="http://www.w3.org/2000/svg" xmlns:xlink="http://www.w3.org/1999/xlink">
<g id="graph0" class="graph" transform="scale(1 1) rotate(0) translate(4 157)">
<title>%3</title>
<!-- I_0 -->
<g id="node1" class="node">
<title>I_0</title>
<path fill="#aaeeaa" stroke="#888888" d="M140,-153C140,-153 12,-153 12,-153 6,-153 0,-147 0,-141 0,-141 0,-127 0,-127 0,-121 6,-115 12,-115 12,-115 140,-115 140,-115 146,-115 152,-121 152,-127 152,-127 152,-141 152,-141 152,-147 146,-153 140,-153"/>
<text text-anchor="middle" x="76" y="-137.8" font-family="Times,serif" font-size="14.00" fill="#222222">xu2</text>
<text text-anchor="middle" x="76" y="-122.8" font-family="Times,serif" font-size="14.00" fill="#222222">FLOAT(1,1,32,128)</text>
</g>
<!-- MatMul_2 -->
<g id="node3" class="node">
<title>MatMul_2</title>
<path fill="#ee9999" stroke="#888888" d="M197.5,-91C197.5,-91 120.5,-91 120.5,-91 114.5,-91 108.5,-85 108.5,-79 108.5,-79 108.5,-67 108.5,-67 108.5,-61 114.5,-55 120.5,-55 120.5,-55 197.5,-55 197.5,-55 203.5,-55 209.5,-61 209.5,-67 209.5,-67 209.5,-79 209.5,-79 209.5,-85 203.5,-91 197.5,-91"/>
<text text-anchor="middle" x="159" y="-69.3" font-family="Times,serif" font-size="14.00" fill="#222222">MatMul(., .)</text>
</g>
<!-- I_0&#45;&gt;MatMul_2 -->
<g id="edge1" class="edge">
<title>I_0&#45;&gt;MatMul_2</title>
<path fill="none" stroke="black" d="M101.35,-114.98C109.36,-109.28 118.32,-102.92 126.75,-96.93"/>
<polygon fill="black" stroke="black" points="134.94,-91.1 129.39,-100.57 130.86,-94 126.79,-96.9 126.79,-96.9 126.79,-96.9 130.86,-94 124.18,-93.23 134.94,-91.1 134.94,-91.1"/>
<text text-anchor="middle" x="157.5" y="-101.4" font-family="Times,serif" font-size="7.00">FLOAT(1,1,32,128)</text>
</g>
<!-- I_1 -->
<g id="node2" class="node">
<title>I_1</title>
<path fill="#aaeeaa" stroke="#888888" d="M306,-153C306,-153 178,-153 178,-153 172,-153 166,-147 166,-141 166,-141 166,-127 166,-127 166,-121 172,-115 178,-115 178,-115 306,-115 306,-115 312,-115 318,-121 318,-127 318,-127 318,-141 318,-141 318,-147 312,-153 306,-153"/>
<text text-anchor="middle" x="242" y="-137.8" font-family="Times,serif" font-size="14.00" fill="#222222">Y</text>
<text text-anchor="middle" x="242" y="-122.8" font-family="Times,serif" font-size="14.00" fill="#222222">FLOAT(3,5,128,64)</text>
</g>
<!-- I_1&#45;&gt;MatMul_2 -->
<g id="edge2" class="edge">
<title>I_1&#45;&gt;MatMul_2</title>
<path fill="none" stroke="black" d="M217.18,-114.91C210.04,-109.74 202.23,-104.13 195,-99 194.1,-98.36 193.19,-97.72 192.26,-97.07"/>
<polygon fill="black" stroke="black" points="183.83,-91.15 194.6,-93.21 187.93,-94.02 192.02,-96.89 192.02,-96.89 192.02,-96.89 187.93,-94.02 189.44,-100.58 183.83,-91.15 183.83,-91.15"/>
<text text-anchor="middle" x="239.5" y="-101.4" font-family="Times,serif" font-size="7.00">FLOAT(3,5,128,64)</text>
</g>
<!-- O_3 -->
<g id="node4" class="node">
<title>O_3</title>
<path fill="#aaaaee" stroke="#888888" d="M218.5,-38C218.5,-38 99.5,-38 99.5,-38 93.5,-38 87.5,-32 87.5,-26 87.5,-26 87.5,-12 87.5,-12 87.5,-6 93.5,0 99.5,0 99.5,0 218.5,0 218.5,0 224.5,0 230.5,-6 230.5,-12 230.5,-12 230.5,-26 230.5,-26 230.5,-32 224.5,-38 218.5,-38"/>
<text text-anchor="middle" x="159" y="-22.8" font-family="Times,serif" font-size="14.00" fill="#222222">Z</text>
<text text-anchor="middle" x="159" y="-7.8" font-family="Times,serif" font-size="14.00" fill="#222222">FLOAT(3,5,32,64)</text>
</g>
<!-- MatMul_2&#45;&gt;O_3 -->
<g id="edge3" class="edge">
<title>MatMul_2&#45;&gt;O_3</title>
<path fill="none" stroke="black" d="M159,-54.97C159,-52.89 159,-50.72 159,-48.53"/>
<polygon fill="black" stroke="black" points="159,-38.32 163.5,-48.32 159,-43.32 159,-48.32 159,-48.32 159,-48.32 159,-43.32 154.5,-48.32 159,-38.32 159,-38.32"/>
</g>
</g>
</svg>
