<?xml version="1.0" encoding="UTF-8" standalone="no"?>
<!DOCTYPE svg PUBLIC "-//W3C//DTD SVG 1.1//EN"
 "http://www.w3.org/Graphics/SVG/1.1/DTD/svg11.dtd">
<!-- Generated by graphviz version 2.43.0 (0)
 -->
<!-- Title: %3 Pages: 1 -->
<svg width="360pt" height="161pt"
 viewBox="0.00 0.00 360.00 161.00" xmlns="http://www.w3.org/2000/svg" xmlns:xlink="http://www.w3.org/1999/xlink">
<g id="graph0" class="graph" transform="scale(1 1) rotate(0) translate(4 157)">
<title>%3</title>
<!-- I_0 -->
<g id="node1" class="node">
<title>I_0</title>
<path fill="#aaeeaa" stroke="#888888" d="M86,-153C86,-153 12,-153 12,-153 6,-153 0,-147 0,-141 0,-141 0,-127 0,-127 0,-121 6,-115 12,-115 12,-115 86,-115 86,-115 92,-115 98,-121 98,-127 98,-127 98,-141 98,-141 98,-147 92,-153 86,-153"/>
<text text-anchor="middle" x="49" y="-137.8" font-family="Times,serif" font-size="14.00" fill="#222222">B</text>
<text text-anchor="middle" x="49" y="-122.8" font-family="Times,serif" font-size="14.00" fill="#222222">FLOAT(3,2)</text>
</g>
<!-- I_1 -->
<g id="node2" class="node">
<title>I_1</title>
<path fill="#aaeeaa" stroke="#888888" d="M198,-153C198,-153 124,-153 124,-153 118,-153 112,-147 112,-141 112,-141 112,-127 112,-127 112,-121 118,-115 124,-115 124,-115 198,-115 198,-115 204,-115 210,-121 210,-127 210,-127 210,-141 210,-141 210,-147 204,-153 198,-153"/>
<text text-anchor="middle" x="161" y="-137.8" font-family="Times,serif" font-size="14.00" fill="#222222">X</text>
<text text-anchor="middle" x="161" y="-122.8" font-family="Times,serif" font-size="14.00" fill="#222222">FLOAT(2,3)</text>
</g>
<!-- Gemm_3 -->
<g id="node4" class="node">
<title>Gemm_3</title>
<path fill="#cccccc" stroke="#888888" d="M258,-91C258,-91 190,-91 190,-91 184,-91 178,-85 178,-79 178,-79 178,-67 178,-67 178,-61 184,-55 190,-55 190,-55 258,-55 258,-55 264,-55 270,-61 270,-67 270,-67 270,-79 270,-79 270,-85 264,-91 258,-91"/>
<text text-anchor="middle" x="224" y="-69.3" font-family="Times,serif" font-size="14.00" fill="#222222">Gemm(., .)</text>
</g>
<!-- I_1&#45;&gt;Gemm_3 -->
<g id="edge1" class="edge">
<title>I_1&#45;&gt;Gemm_3</title>
<path fill="none" stroke="black" d="M180.24,-114.98C185.94,-109.64 192.28,-103.71 198.32,-98.05"/>
<polygon fill="black" stroke="black" points="205.74,-91.1 201.51,-101.23 202.09,-94.52 198.44,-97.94 198.44,-97.94 198.44,-97.94 202.09,-94.52 195.36,-94.66 205.74,-91.1 205.74,-91.1"/>
<text text-anchor="middle" x="218" y="-101.4" font-family="Times,serif" font-size="7.00">FLOAT(2,3)</text>
</g>
<!-- Constant_2 -->
<g id="node3" class="node">
<title>Constant_2</title>
<path fill="#cccccc" stroke="#888888" d="M340,-152C340,-152 236,-152 236,-152 230,-152 224,-146 224,-140 224,-140 224,-128 224,-128 224,-122 230,-116 236,-116 236,-116 340,-116 340,-116 346,-116 352,-122 352,-128 352,-128 352,-140 352,-140 352,-146 346,-152 340,-152"/>
<text text-anchor="middle" x="288" y="-130.3" font-family="Times,serif" font-size="14.00" fill="#222222">Constant() &#45;&gt; B</text>
</g>
<!-- Constant_2&#45;&gt;Gemm_3 -->
<g id="edge2" class="edge">
<title>Constant_2&#45;&gt;Gemm_3</title>
<path fill="none" stroke="black" d="M269.49,-115.93C263.44,-110.36 256.6,-104.05 250.1,-98.06"/>
<polygon fill="black" stroke="black" points="242.69,-91.23 253.09,-94.7 246.37,-94.62 250.04,-98.01 250.04,-98.01 250.04,-98.01 246.37,-94.62 246.99,-101.32 242.69,-91.23 242.69,-91.23"/>
<text text-anchor="middle" x="278" y="-101.4" font-family="Times,serif" font-size="7.00">FLOAT(3,2)</text>
</g>
<!-- O_4 -->
<g id="node5" class="node">
<title>O_4</title>
<path fill="#aaaaee" stroke="#888888" d="M261,-38C261,-38 187,-38 187,-38 181,-38 175,-32 175,-26 175,-26 175,-12 175,-12 175,-6 181,0 187,0 187,0 261,0 261,0 267,0 273,-6 273,-12 273,-12 273,-26 273,-26 273,-32 267,-38 261,-38"/>
<text text-anchor="middle" x="224" y="-22.8" font-family="Times,serif" font-size="14.00" fill="#222222">Z</text>
<text text-anchor="middle" x="224" y="-7.8" font-family="Times,serif" font-size="14.00" fill="#222222">FLOAT(2,2)</text>
</g>
<!-- Gemm_3&#45;&gt;O_4 -->
<g id="edge3" class="edge">
<title>Gemm_3&#45;&gt;O_4</title>
<path fill="none" stroke="black" d="M224,-54.97C224,-52.89 224,-50.72 224,-48.53"/>
<polygon fill="black" stroke="black" points="224,-38.32 228.5,-48.32 224,-43.32 224,-48.32 224,-48.32 224,-48.32 224,-43.32 219.5,-48.32 224,-38.32 224,-38.32"/>
</g>
</g>
</svg>
