<?xml version="1.0" encoding="UTF-8" standalone="no"?>
<!DOCTYPE svg PUBLIC "-//W3C//DTD SVG 1.1//EN"
 "http://www.w3.org/Graphics/SVG/1.1/DTD/svg11.dtd">
<!-- Generated by graphviz version 2.43.0 (0)
 -->
<!-- Title: %3 Pages: 1 -->
<svg width="227pt" height="161pt"
 viewBox="0.00 0.00 227.00 161.00" xmlns="http://www.w3.org/2000/svg" xmlns:xlink="http://www.w3.org/1999/xlink">
<g id="graph0" class="graph" transform="scale(1 1) rotate(0) translate(4 157)">
<title>%3</title>
<!-- I_0 -->
<g id="node1" class="node">
<title>I_0</title>
<path fill="#aaeeaa" stroke="#888888" d="M152,-153C152,-153 67,-153 67,-153 61,-153 55,-147 55,-141 55,-141 55,-127 55,-127 55,-121 61,-115 67,-115 67,-115 152,-115 152,-115 158,-115 164,-121 164,-127 164,-127 164,-141 164,-141 164,-147 158,-153 152,-153"/>
<text text-anchor="middle" x="109.5" y="-137.8" font-family="Times,serif" font-size="14.00" fill="#222222">x3</text>
<text text-anchor="middle" x="109.5" y="-122.8" font-family="Times,serif" font-size="14.00" fill="#222222">FLOAT(a,b,c)</text>
</g>
<!-- Transpose_1 -->
<g id="node2" class="node">
<title>Transpose_1</title>
<path fill="#ee99ee" stroke="#888888" d="M207,-91C207,-91 12,-91 12,-91 6,-91 0,-85 0,-79 0,-79 0,-67 0,-67 0,-61 6,-55 12,-55 12,-55 207,-55 207,-55 213,-55 219,-61 219,-67 219,-67 219,-79 219,-79 219,-85 213,-91 207,-91"/>
<text text-anchor="middle" x="109.5" y="-69.3" font-family="Times,serif" font-size="14.00" fill="#222222">Transpose(., perm=[0, 1, 2])</text>
</g>
<!-- I_0&#45;&gt;Transpose_1 -->
<g id="edge1" class="edge">
<title>I_0&#45;&gt;Transpose_1</title>
<path fill="none" stroke="black" d="M109.5,-114.98C109.5,-110.71 109.5,-106.06 109.5,-101.47"/>
<polygon fill="black" stroke="black" points="109.5,-91.1 114,-101.1 109.5,-96.1 109.5,-101.1 109.5,-101.1 109.5,-101.1 109.5,-96.1 105,-101.1 109.5,-91.1 109.5,-91.1"/>
<text text-anchor="middle" x="133.5" y="-101.4" font-family="Times,serif" font-size="7.00">FLOAT(a,b,c)</text>
</g>
<!-- O_2 -->
<g id="node3" class="node">
<title>O_2</title>
<path fill="#aaaaee" stroke="#888888" d="M152,-38C152,-38 67,-38 67,-38 61,-38 55,-32 55,-26 55,-26 55,-12 55,-12 55,-6 61,0 67,0 67,0 152,0 152,0 158,0 164,-6 164,-12 164,-12 164,-26 164,-26 164,-32 158,-38 152,-38"/>
<text text-anchor="middle" x="109.5" y="-22.8" font-family="Times,serif" font-size="14.00" fill="#222222">Y</text>
<text text-anchor="middle" x="109.5" y="-7.8" font-family="Times,serif" font-size="14.00" fill="#222222">FLOAT(a,b,c)</text>
</g>
<!-- Transpose_1&#45;&gt;O_2 -->
<g id="edge2" class="edge">
<title>Transpose_1&#45;&gt;O_2</title>
<path fill="none" stroke="black" d="M109.5,-54.97C109.5,-52.89 109.5,-50.72 109.5,-48.53"/>
<polygon fill="black" stroke="black" points="109.5,-38.32 114,-48.32 109.5,-43.32 109.5,-48.32 109.5,-48.32 109.5,-48.32 109.5,-43.32 105,-48.32 109.5,-38.32 109.5,-38.32"/>
</g>
</g>
</svg>
