<?xml version="1.0" encoding="UTF-8" standalone="no"?>
<!DOCTYPE svg PUBLIC "-//W3C//DTD SVG 1.1//EN"
 "http://www.w3.org/Graphics/SVG/1.1/DTD/svg11.dtd">
<!-- Generated by graphviz version 2.43.0 (0)
 -->
<!-- Title: %3 Pages: 1 -->
<svg width="340pt" height="581pt"
 viewBox="0.00 0.00 340.00 581.00" xmlns="http://www.w3.org/2000/svg" xmlns:xlink="http://www.w3.org/1999/xlink">
<g id="graph0" class="graph" transform="scale(1 1) rotate(0) translate(4 577)">
<title>%3</title>
<!-- I_0 -->
<g id="node1" class="node">
<title>I_0</title>
<path fill="#aaeeaa" stroke="#888888" d="M215,-573C215,-573 122,-573 122,-573 116,-573 110,-567 110,-561 110,-561 110,-547 110,-547 110,-541 116,-535 122,-535 122,-535 215,-535 215,-535 221,-535 227,-541 227,-547 227,-547 227,-561 227,-561 227,-567 221,-573 215,-573"/>
<text text-anchor="middle" x="168.5" y="-557.8" font-family="Times,serif" font-size="14.00" fill="#222222">X</text>
<text text-anchor="middle" x="168.5" y="-542.8" font-family="Times,serif" font-size="14.00" fill="#222222">FLOAT16(a,D)</text>
</g>
<!-- Cast_3 -->
<g id="node4" class="node">
<title>Cast_3</title>
<path fill="#cccccc" stroke="#888888" d="M230,-511C230,-511 107,-511 107,-511 101,-511 95,-505 95,-499 95,-499 95,-487 95,-487 95,-481 101,-475 107,-475 107,-475 230,-475 230,-475 236,-475 242,-481 242,-487 242,-487 242,-499 242,-499 242,-505 236,-511 230,-511"/>
<text text-anchor="middle" x="168.5" y="-489.3" font-family="Times,serif" font-size="14.00" fill="#222222">Cast(., to=FLOAT)</text>
</g>
<!-- I_0&#45;&gt;Cast_3 -->
<g id="edge1" class="edge">
<title>I_0&#45;&gt;Cast_3</title>
<path fill="none" stroke="black" d="M168.5,-534.98C168.5,-530.71 168.5,-526.06 168.5,-521.47"/>
<polygon fill="black" stroke="black" points="168.5,-511.1 173,-521.1 168.5,-516.1 168.5,-521.1 168.5,-521.1 168.5,-521.1 168.5,-516.1 164,-521.1 168.5,-511.1 168.5,-511.1"/>
<text text-anchor="middle" x="194.5" y="-521.4" font-family="Times,serif" font-size="7.00">FLOAT16(a,D)</text>
</g>
<!-- I_1 -->
<g id="node2" class="node">
<title>I_1</title>
<path fill="#aaeeaa" stroke="#888888" d="M309.5,-573C309.5,-573 253.5,-573 253.5,-573 247.5,-573 241.5,-567 241.5,-561 241.5,-561 241.5,-547 241.5,-547 241.5,-541 247.5,-535 253.5,-535 253.5,-535 309.5,-535 309.5,-535 315.5,-535 321.5,-541 321.5,-547 321.5,-547 321.5,-561 321.5,-561 321.5,-567 315.5,-573 309.5,-573"/>
<text text-anchor="middle" x="281.5" y="-557.8" font-family="Times,serif" font-size="14.00" fill="#222222">axis</text>
<text text-anchor="middle" x="281.5" y="-542.8" font-family="Times,serif" font-size="14.00" fill="#222222">INT64(1)</text>
</g>
<!-- Constant_2 -->
<g id="node3" class="node">
<title>Constant_2</title>
<path fill="#cccccc" stroke="#888888" d="M251.5,-451C251.5,-451 129.5,-451 129.5,-451 123.5,-451 117.5,-445 117.5,-439 117.5,-439 117.5,-427 117.5,-427 117.5,-421 123.5,-415 129.5,-415 129.5,-415 251.5,-415 251.5,-415 257.5,-415 263.5,-421 263.5,-427 263.5,-427 263.5,-439 263.5,-439 263.5,-445 257.5,-451 251.5,-451"/>
<text text-anchor="middle" x="190.5" y="-429.3" font-family="Times,serif" font-size="14.00" fill="#222222">Constant() &#45;&gt; axis</text>
</g>
<!-- ReduceMean_5 -->
<g id="node6" class="node">
<title>ReduceMean_5</title>
<path fill="#cccccc" stroke="#888888" d="M247,-391C247,-391 134,-391 134,-391 128,-391 122,-385 122,-379 122,-379 122,-367 122,-367 122,-361 128,-355 134,-355 134,-355 247,-355 247,-355 253,-355 259,-361 259,-367 259,-367 259,-379 259,-379 259,-385 253,-391 247,-391"/>
<text text-anchor="middle" x="190.5" y="-369.3" font-family="Times,serif" font-size="14.00" fill="#222222">ReduceMean(., .)</text>
</g>
<!-- Constant_2&#45;&gt;ReduceMean_5 -->
<g id="edge4" class="edge">
<title>Constant_2&#45;&gt;ReduceMean_5</title>
<path fill="none" stroke="black" d="M190.5,-414.91C190.5,-410.7 190.5,-406.09 190.5,-401.52"/>
<polygon fill="black" stroke="black" points="190.5,-391.17 195,-401.17 190.5,-396.17 190.5,-401.17 190.5,-401.17 190.5,-401.17 190.5,-396.17 186,-401.17 190.5,-391.17 190.5,-391.17"/>
<text text-anchor="middle" x="207.5" y="-401.4" font-family="Times,serif" font-size="7.00">INT64(1)</text>
</g>
<!-- Pow_4 -->
<g id="node5" class="node">
<title>Pow_4</title>
<path fill="#cccccc" stroke="#888888" d="M91,-451C91,-451 12,-451 12,-451 6,-451 0,-445 0,-439 0,-439 0,-427 0,-427 0,-421 6,-415 12,-415 12,-415 91,-415 91,-415 97,-415 103,-421 103,-427 103,-427 103,-439 103,-439 103,-445 97,-451 91,-451"/>
<text text-anchor="middle" x="51.5" y="-429.3" font-family="Times,serif" font-size="14.00" fill="#222222">Pow(., [2.0])</text>
</g>
<!-- Cast_3&#45;&gt;Pow_4 -->
<g id="edge2" class="edge">
<title>Cast_3&#45;&gt;Pow_4</title>
<path fill="none" stroke="black" d="M134.03,-474.91C121.88,-468.89 108.06,-462.04 95.24,-455.68"/>
<polygon fill="black" stroke="black" points="86.13,-451.17 97.09,-451.58 90.61,-453.39 95.09,-455.61 95.09,-455.61 95.09,-455.61 90.61,-453.39 93.09,-459.64 86.13,-451.17 86.13,-451.17"/>
<text text-anchor="middle" x="139" y="-461.4" font-family="Times,serif" font-size="7.00">FLOAT(a,D)</text>
</g>
<!-- Mul_9 -->
<g id="node10" class="node">
<title>Mul_9</title>
<path fill="#cccccc" stroke="#888888" d="M274,-151C274,-151 225,-151 225,-151 219,-151 213,-145 213,-139 213,-139 213,-127 213,-127 213,-121 219,-115 225,-115 225,-115 274,-115 274,-115 280,-115 286,-121 286,-127 286,-127 286,-139 286,-139 286,-145 280,-151 274,-151"/>
<text text-anchor="middle" x="249.5" y="-129.3" font-family="Times,serif" font-size="14.00" fill="#222222">Mul(., .)</text>
</g>
<!-- Cast_3&#45;&gt;Mul_9 -->
<g id="edge9" class="edge">
<title>Cast_3&#45;&gt;Mul_9</title>
<path fill="none" stroke="black" d="M242.27,-480.23C265.63,-471.97 285.5,-457.92 285.5,-434 285.5,-434 285.5,-434 285.5,-192 285.5,-178.71 282.78,-173.73 273.35,-159.59"/>
<polygon fill="black" stroke="black" points="267.78,-151.26 277.08,-157.08 270.56,-155.42 273.34,-159.58 273.34,-159.58 273.34,-159.58 270.56,-155.42 269.6,-162.08 267.78,-151.26 267.78,-151.26"/>
<text text-anchor="middle" x="307" y="-311.4" font-family="Times,serif" font-size="7.00">FLOAT(a,D)</text>
</g>
<!-- Pow_4&#45;&gt;ReduceMean_5 -->
<g id="edge3" class="edge">
<title>Pow_4&#45;&gt;ReduceMean_5</title>
<path fill="none" stroke="black" d="M92.45,-414.91C107.31,-408.71 124.27,-401.64 139.86,-395.13"/>
<polygon fill="black" stroke="black" points="149.36,-391.17 141.86,-399.17 144.75,-393.09 140.13,-395.02 140.13,-395.02 140.13,-395.02 144.75,-393.09 138.4,-390.86 149.36,-391.17 149.36,-391.17"/>
<text text-anchor="middle" x="150" y="-401.4" font-family="Times,serif" font-size="7.00">FLOAT(a,D)</text>
</g>
<!-- Add_6 -->
<g id="node7" class="node">
<title>Add_6</title>
<path fill="#cccccc" stroke="#888888" d="M243,-331C243,-331 148,-331 148,-331 142,-331 136,-325 136,-319 136,-319 136,-307 136,-307 136,-301 142,-295 148,-295 148,-295 243,-295 243,-295 249,-295 255,-301 255,-307 255,-307 255,-319 255,-319 255,-325 249,-331 243,-331"/>
<text text-anchor="middle" x="195.5" y="-309.3" font-family="Times,serif" font-size="14.00" fill="#222222">Add(., [1e&#45;06])</text>
</g>
<!-- ReduceMean_5&#45;&gt;Add_6 -->
<g id="edge5" class="edge">
<title>ReduceMean_5&#45;&gt;Add_6</title>
<path fill="none" stroke="black" d="M191.97,-354.91C192.35,-350.58 192.76,-345.83 193.16,-341.14"/>
<polygon fill="black" stroke="black" points="194.02,-331.17 197.64,-341.52 193.59,-336.15 193.16,-341.13 193.16,-341.13 193.16,-341.13 193.59,-336.15 188.68,-340.74 194.02,-331.17 194.02,-331.17"/>
<text text-anchor="middle" x="213.5" y="-341.4" font-family="Times,serif" font-size="7.00">FLOAT(a,1)</text>
</g>
<!-- Sqrt_7 -->
<g id="node8" class="node">
<title>Sqrt_7</title>
<path fill="#cccccc" stroke="#888888" d="M227,-271C227,-271 188,-271 188,-271 182,-271 176,-265 176,-259 176,-259 176,-247 176,-247 176,-241 182,-235 188,-235 188,-235 227,-235 227,-235 233,-235 239,-241 239,-247 239,-247 239,-259 239,-259 239,-265 233,-271 227,-271"/>
<text text-anchor="middle" x="207.5" y="-249.3" font-family="Times,serif" font-size="14.00" fill="#222222">Sqrt(.)</text>
</g>
<!-- Add_6&#45;&gt;Sqrt_7 -->
<g id="edge6" class="edge">
<title>Add_6&#45;&gt;Sqrt_7</title>
<path fill="none" stroke="black" d="M199.04,-294.91C199.93,-290.58 200.91,-285.83 201.89,-281.14"/>
<polygon fill="black" stroke="black" points="203.95,-271.17 206.33,-281.87 202.94,-276.06 201.92,-280.96 201.92,-280.96 201.92,-280.96 202.94,-276.06 197.52,-280.05 203.95,-271.17 203.95,-271.17"/>
<text text-anchor="middle" x="222.5" y="-281.4" font-family="Times,serif" font-size="7.00">FLOAT(a,1)</text>
</g>
<!-- Div_8 -->
<g id="node9" class="node">
<title>Div_8</title>
<path fill="#cccccc" stroke="#888888" d="M250.5,-211C250.5,-211 176.5,-211 176.5,-211 170.5,-211 164.5,-205 164.5,-199 164.5,-199 164.5,-187 164.5,-187 164.5,-181 170.5,-175 176.5,-175 176.5,-175 250.5,-175 250.5,-175 256.5,-175 262.5,-181 262.5,-187 262.5,-187 262.5,-199 262.5,-199 262.5,-205 256.5,-211 250.5,-211"/>
<text text-anchor="middle" x="213.5" y="-189.3" font-family="Times,serif" font-size="14.00" fill="#222222">Div([1.0], .)</text>
</g>
<!-- Sqrt_7&#45;&gt;Div_8 -->
<g id="edge7" class="edge">
<title>Sqrt_7&#45;&gt;Div_8</title>
<path fill="none" stroke="black" d="M209.27,-234.91C209.72,-230.58 210.21,-225.83 210.69,-221.14"/>
<polygon fill="black" stroke="black" points="211.72,-211.17 215.17,-221.58 211.21,-216.14 210.7,-221.11 210.7,-221.11 210.7,-221.11 211.21,-216.14 206.22,-220.65 211.72,-211.17 211.72,-211.17"/>
<text text-anchor="middle" x="231.5" y="-221.4" font-family="Times,serif" font-size="7.00">FLOAT(a,1)</text>
</g>
<!-- Div_8&#45;&gt;Mul_9 -->
<g id="edge8" class="edge">
<title>Div_8&#45;&gt;Mul_9</title>
<path fill="none" stroke="black" d="M223.12,-174.73C225.28,-170.97 227.62,-166.97 231.99,-159.98"/>
<polygon fill="black" stroke="black" points="237.62,-151.1 236.07,-161.96 234.95,-155.33 232.27,-159.55 232.27,-159.55 232.27,-159.55 234.95,-155.33 228.47,-157.14 237.62,-151.1 237.62,-151.1"/>
<text text-anchor="middle" x="253.5" y="-161.4" font-family="Times,serif" font-size="7.00">FLOAT(a,1)</text>
</g>
<!-- Cast_10 -->
<g id="node11" class="node">
<title>Cast_10</title>
<path fill="#cccccc" stroke="#888888" d="M320,-91C320,-91 179,-91 179,-91 173,-91 167,-85 167,-79 167,-79 167,-67 167,-67 167,-61 173,-55 179,-55 179,-55 320,-55 320,-55 326,-55 332,-61 332,-67 332,-67 332,-79 332,-79 332,-85 326,-91 320,-91"/>
<text text-anchor="middle" x="249.5" y="-69.3" font-family="Times,serif" font-size="14.00" fill="#222222">Cast(., to=FLOAT16)</text>
</g>
<!-- Mul_9&#45;&gt;Cast_10 -->
<g id="edge10" class="edge">
<title>Mul_9&#45;&gt;Cast_10</title>
<path fill="none" stroke="black" d="M249.5,-114.91C249.5,-110.7 249.5,-106.09 249.5,-101.52"/>
<polygon fill="black" stroke="black" points="249.5,-91.17 254,-101.17 249.5,-96.17 249.5,-101.17 249.5,-101.17 249.5,-101.17 249.5,-96.17 245,-101.17 249.5,-91.17 249.5,-91.17"/>
<text text-anchor="middle" x="271" y="-101.4" font-family="Times,serif" font-size="7.00">FLOAT(a,D)</text>
</g>
<!-- O_11 -->
<g id="node12" class="node">
<title>O_11</title>
<path fill="#aaaaee" stroke="#888888" d="M296,-38C296,-38 203,-38 203,-38 197,-38 191,-32 191,-26 191,-26 191,-12 191,-12 191,-6 197,0 203,0 203,0 296,0 296,0 302,0 308,-6 308,-12 308,-12 308,-26 308,-26 308,-32 302,-38 296,-38"/>
<text text-anchor="middle" x="249.5" y="-22.8" font-family="Times,serif" font-size="14.00" fill="#222222">Y</text>
<text text-anchor="middle" x="249.5" y="-7.8" font-family="Times,serif" font-size="14.00" fill="#222222">FLOAT16(a,D)</text>
</g>
<!-- Cast_10&#45;&gt;O_11 -->
<g id="edge11" class="edge">
<title>Cast_10&#45;&gt;O_11</title>
<path fill="none" stroke="black" d="M249.5,-54.97C249.5,-52.89 249.5,-50.72 249.5,-48.53"/>
<polygon fill="black" stroke="black" points="249.5,-38.32 254,-48.32 249.5,-43.32 249.5,-48.32 249.5,-48.32 249.5,-48.32 249.5,-43.32 245,-48.32 249.5,-38.32 249.5,-38.32"/>
</g>
</g>
</svg>
