<?xml version="1.0" encoding="UTF-8" standalone="no"?>
<!DOCTYPE svg PUBLIC "-//W3C//DTD SVG 1.1//EN"
 "http://www.w3.org/Graphics/SVG/1.1/DTD/svg11.dtd">
<!-- Generated by graphviz version 2.43.0 (0)
 -->
<!-- Title: %3 Pages: 1 -->
<svg width="132pt" height="161pt"
 viewBox="0.00 0.00 132.00 161.00" xmlns="http://www.w3.org/2000/svg" xmlns:xlink="http://www.w3.org/1999/xlink">
<g id="graph0" class="graph" transform="scale(1 1) rotate(0) translate(4 157)">
<title>%3</title>
<!-- I_0 -->
<g id="node1" class="node">
<title>I_0</title>
<path fill="#aaeeaa" stroke="#888888" d="M112,-153C112,-153 12,-153 12,-153 6,-153 0,-147 0,-141 0,-141 0,-127 0,-127 0,-121 6,-115 12,-115 12,-115 112,-115 112,-115 118,-115 124,-121 124,-127 124,-127 124,-141 124,-141 124,-147 118,-153 112,-153"/>
<text text-anchor="middle" x="62" y="-137.8" font-family="Times,serif" font-size="14.00" fill="#222222">X</text>
<text text-anchor="middle" x="62" y="-122.8" font-family="Times,serif" font-size="14.00" fill="#222222">FLOAT(a,1,1,d)</text>
</g>
<!-- Identity_1 -->
<g id="node2" class="node">
<title>Identity_1</title>
<path fill="#cccccc" stroke="#888888" d="M94,-91C94,-91 30,-91 30,-91 24,-91 18,-85 18,-79 18,-79 18,-67 18,-67 18,-61 24,-55 30,-55 30,-55 94,-55 94,-55 100,-55 106,-61 106,-67 106,-67 106,-79 106,-79 106,-85 100,-91 94,-91"/>
<text text-anchor="middle" x="62" y="-69.3" font-family="Times,serif" font-size="14.00" fill="#222222">Identity(.)</text>
</g>
<!-- I_0&#45;&gt;Identity_1 -->
<g id="edge1" class="edge">
<title>I_0&#45;&gt;Identity_1</title>
<path fill="none" stroke="black" d="M62,-114.98C62,-110.71 62,-106.06 62,-101.47"/>
<polygon fill="black" stroke="black" points="62,-91.1 66.5,-101.1 62,-96.1 62,-101.1 62,-101.1 62,-101.1 62,-96.1 57.5,-101.1 62,-91.1 62,-91.1"/>
<text text-anchor="middle" x="89.5" y="-101.4" font-family="Times,serif" font-size="7.00">FLOAT(a,1,1,d)</text>
</g>
<!-- O_2 -->
<g id="node3" class="node">
<title>O_2</title>
<path fill="#aaaaee" stroke="#888888" d="M112,-38C112,-38 12,-38 12,-38 6,-38 0,-32 0,-26 0,-26 0,-12 0,-12 0,-6 6,0 12,0 12,0 112,0 112,0 118,0 124,-6 124,-12 124,-12 124,-26 124,-26 124,-32 118,-38 112,-38"/>
<text text-anchor="middle" x="62" y="-22.8" font-family="Times,serif" font-size="14.00" fill="#222222">Y</text>
<text text-anchor="middle" x="62" y="-7.8" font-family="Times,serif" font-size="14.00" fill="#222222">FLOAT(a,1,1,d)</text>
</g>
<!-- Identity_1&#45;&gt;O_2 -->
<g id="edge2" class="edge">
<title>Identity_1&#45;&gt;O_2</title>
<path fill="none" stroke="black" d="M62,-54.97C62,-52.89 62,-50.72 62,-48.53"/>
<polygon fill="black" stroke="black" points="62,-38.32 66.5,-48.32 62,-43.32 62,-48.32 62,-48.32 62,-48.32 62,-43.32 57.5,-48.32 62,-38.32 62,-38.32"/>
</g>
</g>
</svg>
