<?xml version="1.0" encoding="UTF-8" standalone="no"?>
<!DOCTYPE svg PUBLIC "-//W3C//DTD SVG 1.1//EN"
 "http://www.w3.org/Graphics/SVG/1.1/DTD/svg11.dtd">
<!-- Generated by graphviz version 2.43.0 (0)
 -->
<!-- Title: %3 Pages: 1 -->
<svg width="326pt" height="161pt"
 viewBox="0.00 0.00 325.50 161.00" xmlns="http://www.w3.org/2000/svg" xmlns:xlink="http://www.w3.org/1999/xlink">
<g id="graph0" class="graph" transform="scale(1 1) rotate(0) translate(4 157)">
<title>%3</title>
<!-- I_0 -->
<g id="node1" class="node">
<title>I_0</title>
<path fill="#aaeeaa" stroke="#888888" d="M126,-153C126,-153 12,-153 12,-153 6,-153 0,-147 0,-141 0,-141 0,-127 0,-127 0,-121 6,-115 12,-115 12,-115 126,-115 126,-115 132,-115 138,-121 138,-127 138,-127 138,-141 138,-141 138,-147 132,-153 126,-153"/>
<text text-anchor="middle" x="69" y="-137.8" font-family="Times,serif" font-size="14.00" fill="#222222">mul_25</text>
<text text-anchor="middle" x="69" y="-122.8" font-family="Times,serif" font-size="14.00" fill="#222222">FLOAT(2,1024,1)</text>
</g>
<!-- Mul_2 -->
<g id="node3" class="node">
<title>Mul_2</title>
<path fill="#cccccc" stroke="#888888" d="M176.5,-91C176.5,-91 127.5,-91 127.5,-91 121.5,-91 115.5,-85 115.5,-79 115.5,-79 115.5,-67 115.5,-67 115.5,-61 121.5,-55 127.5,-55 127.5,-55 176.5,-55 176.5,-55 182.5,-55 188.5,-61 188.5,-67 188.5,-67 188.5,-79 188.5,-79 188.5,-85 182.5,-91 176.5,-91"/>
<text text-anchor="middle" x="152" y="-69.3" font-family="Times,serif" font-size="14.00" fill="#222222">Mul(., .)</text>
</g>
<!-- I_0&#45;&gt;Mul_2 -->
<g id="edge1" class="edge">
<title>I_0&#45;&gt;Mul_2</title>
<path fill="none" stroke="black" d="M94.35,-114.98C102.36,-109.28 111.32,-102.92 119.75,-96.93"/>
<polygon fill="black" stroke="black" points="127.94,-91.1 122.39,-100.57 123.86,-94 119.79,-96.9 119.79,-96.9 119.79,-96.9 123.86,-94 117.18,-93.23 127.94,-91.1 127.94,-91.1"/>
<text text-anchor="middle" x="147" y="-101.4" font-family="Times,serif" font-size="7.00">FLOAT(2,1024,1)</text>
</g>
<!-- I_1 -->
<g id="node2" class="node">
<title>I_1</title>
<path fill="#aaeeaa" stroke="#888888" d="M305.5,-153C305.5,-153 164.5,-153 164.5,-153 158.5,-153 152.5,-147 152.5,-141 152.5,-141 152.5,-127 152.5,-127 152.5,-121 158.5,-115 164.5,-115 164.5,-115 305.5,-115 305.5,-115 311.5,-115 317.5,-121 317.5,-127 317.5,-127 317.5,-141 317.5,-141 317.5,-147 311.5,-153 305.5,-153"/>
<text text-anchor="middle" x="235" y="-137.8" font-family="Times,serif" font-size="14.00" fill="#222222">input66</text>
<text text-anchor="middle" x="235" y="-122.8" font-family="Times,serif" font-size="14.00" fill="#222222">FLOAT(2,1024,1024)</text>
</g>
<!-- I_1&#45;&gt;Mul_2 -->
<g id="edge2" class="edge">
<title>I_1&#45;&gt;Mul_2</title>
<path fill="none" stroke="black" d="M209.65,-114.98C201.64,-109.28 192.68,-102.92 184.25,-96.93"/>
<polygon fill="black" stroke="black" points="176.06,-91.1 186.82,-93.23 180.14,-94 184.21,-96.9 184.21,-96.9 184.21,-96.9 180.14,-94 181.61,-100.57 176.06,-91.1 176.06,-91.1"/>
<text text-anchor="middle" x="233" y="-101.4" font-family="Times,serif" font-size="7.00">FLOAT(2,1024,1024)</text>
</g>
<!-- O_3 -->
<g id="node4" class="node">
<title>O_3</title>
<path fill="#aaaaee" stroke="#888888" d="M247,-38C247,-38 57,-38 57,-38 51,-38 45,-32 45,-26 45,-26 45,-12 45,-12 45,-6 51,0 57,0 57,0 247,0 247,0 253,0 259,-6 259,-12 259,-12 259,-26 259,-26 259,-32 253,-38 247,-38"/>
<text text-anchor="middle" x="152" y="-22.8" font-family="Times,serif" font-size="14.00" fill="#222222">MulMulMulPattern&#45;&#45;mul_27</text>
<text text-anchor="middle" x="152" y="-7.8" font-family="Times,serif" font-size="14.00" fill="#222222">FLOAT(2,1024,1024)</text>
</g>
<!-- Mul_2&#45;&gt;O_3 -->
<g id="edge3" class="edge">
<title>Mul_2&#45;&gt;O_3</title>
<path fill="none" stroke="black" d="M152,-54.97C152,-52.89 152,-50.72 152,-48.53"/>
<polygon fill="black" stroke="black" points="152,-38.32 156.5,-48.32 152,-43.32 152,-48.32 152,-48.32 152,-48.32 152,-43.32 147.5,-48.32 152,-38.32 152,-38.32"/>
</g>
</g>
</svg>
