<?xml version="1.0" encoding="UTF-8" standalone="no"?>
<!DOCTYPE svg PUBLIC "-//W3C//DTD SVG 1.1//EN"
 "http://www.w3.org/Graphics/SVG/1.1/DTD/svg11.dtd">
<!-- Generated by graphviz version 2.43.0 (0)
 -->
<!-- Title: %3 Pages: 1 -->
<svg width="342pt" height="343pt"
 viewBox="0.00 0.00 342.00 343.00" xmlns="http://www.w3.org/2000/svg" xmlns:xlink="http://www.w3.org/1999/xlink">
<g id="graph0" class="graph" transform="scale(1 1) rotate(0) translate(4 339)">
<title>%3</title>
<!-- I_0 -->
<g id="node1" class="node">
<title>I_0</title>
<path fill="#aaeeaa" stroke="#888888" d="M201.5,-335C201.5,-335 115.5,-335 115.5,-335 109.5,-335 103.5,-329 103.5,-323 103.5,-323 103.5,-309 103.5,-309 103.5,-303 109.5,-297 115.5,-297 115.5,-297 201.5,-297 201.5,-297 207.5,-297 213.5,-303 213.5,-309 213.5,-309 213.5,-323 213.5,-323 213.5,-329 207.5,-335 201.5,-335"/>
<text text-anchor="middle" x="158.5" y="-319.8" font-family="Times,serif" font-size="14.00" fill="#222222">Y</text>
<text text-anchor="middle" x="158.5" y="-304.8" font-family="Times,serif" font-size="14.00" fill="#222222">FLOAT(1,c,d)</text>
</g>
<!-- Shape_2 -->
<g id="node3" class="node">
<title>Shape_2</title>
<path fill="#d2a81f" stroke="#888888" d="M185,-273C185,-273 12,-273 12,-273 6,-273 0,-267 0,-261 0,-261 0,-249 0,-249 0,-243 6,-237 12,-237 12,-237 185,-237 185,-237 191,-237 197,-243 197,-249 197,-249 197,-261 197,-261 197,-267 191,-273 185,-273"/>
<text text-anchor="middle" x="98.5" y="-251.3" font-family="Times,serif" font-size="14.00" fill="#222222">Shape(., end=1, start=0)</text>
</g>
<!-- I_0&#45;&gt;Shape_2 -->
<g id="edge1" class="edge">
<title>I_0&#45;&gt;Shape_2</title>
<path fill="none" stroke="black" d="M140.17,-296.98C134.86,-291.76 128.98,-285.97 123.35,-280.43"/>
<polygon fill="black" stroke="black" points="115.89,-273.1 126.18,-276.91 119.46,-276.61 123.03,-280.12 123.03,-280.12 123.03,-280.12 119.46,-276.61 119.87,-283.32 115.89,-273.1 115.89,-273.1"/>
<text text-anchor="middle" x="154.5" y="-283.4" font-family="Times,serif" font-size="7.00">FLOAT(1,c,d)</text>
</g>
<!-- Expand_4 -->
<g id="node5" class="node">
<title>Expand_4</title>
<path fill="#cccccc" stroke="#888888" d="M199,-152C199,-152 124,-152 124,-152 118,-152 112,-146 112,-140 112,-140 112,-128 112,-128 112,-122 118,-116 124,-116 124,-116 199,-116 199,-116 205,-116 211,-122 211,-128 211,-128 211,-140 211,-140 211,-146 205,-152 199,-152"/>
<text text-anchor="middle" x="161.5" y="-130.3" font-family="Times,serif" font-size="14.00" fill="#222222">Expand(., .)</text>
</g>
<!-- I_0&#45;&gt;Expand_4 -->
<g id="edge3" class="edge">
<title>I_0&#45;&gt;Expand_4</title>
<path fill="none" stroke="black" d="M184.94,-296.9C192.37,-290.32 199.5,-282.21 203.5,-273 220.5,-233.87 219.83,-216.42 203.5,-177 200.85,-170.6 196.7,-164.66 192.01,-159.39"/>
<polygon fill="black" stroke="black" points="184.88,-152.17 195.11,-156.13 188.4,-155.73 191.91,-159.29 191.91,-159.29 191.91,-159.29 188.4,-155.73 188.7,-162.45 184.88,-152.17 184.88,-152.17"/>
<text text-anchor="middle" x="239.5" y="-223.4" font-family="Times,serif" font-size="7.00">FLOAT(1,c,d)</text>
</g>
<!-- I_1 -->
<g id="node2" class="node">
<title>I_1</title>
<path fill="#aaeeaa" stroke="#888888" d="M322,-153C322,-153 237,-153 237,-153 231,-153 225,-147 225,-141 225,-141 225,-127 225,-127 225,-121 231,-115 237,-115 237,-115 322,-115 322,-115 328,-115 334,-121 334,-127 334,-127 334,-141 334,-141 334,-147 328,-153 322,-153"/>
<text text-anchor="middle" x="279.5" y="-137.8" font-family="Times,serif" font-size="14.00" fill="#222222">X</text>
<text text-anchor="middle" x="279.5" y="-122.8" font-family="Times,serif" font-size="14.00" fill="#222222">FLOAT(a,b,c)</text>
</g>
<!-- MatMul_5 -->
<g id="node6" class="node">
<title>MatMul_5</title>
<path fill="#ee9999" stroke="#888888" d="M259,-91C259,-91 182,-91 182,-91 176,-91 170,-85 170,-79 170,-79 170,-67 170,-67 170,-61 176,-55 182,-55 182,-55 259,-55 259,-55 265,-55 271,-61 271,-67 271,-67 271,-79 271,-79 271,-85 265,-91 259,-91"/>
<text text-anchor="middle" x="220.5" y="-69.3" font-family="Times,serif" font-size="14.00" fill="#222222">MatMul(., .)</text>
</g>
<!-- I_1&#45;&gt;MatMul_5 -->
<g id="edge5" class="edge">
<title>I_1&#45;&gt;MatMul_5</title>
<path fill="none" stroke="black" d="M261.48,-114.98C256.26,-109.76 250.47,-103.97 244.93,-98.43"/>
<polygon fill="black" stroke="black" points="237.6,-91.1 247.86,-94.99 241.14,-94.64 244.68,-98.18 244.68,-98.18 244.68,-98.18 241.14,-94.64 241.49,-101.36 237.6,-91.1 237.6,-91.1"/>
<text text-anchor="middle" x="275.5" y="-101.4" font-family="Times,serif" font-size="7.00">FLOAT(a,b,c)</text>
</g>
<!-- Concat_3 -->
<g id="node4" class="node">
<title>Concat_3</title>
<path fill="#cccccc" stroke="#888888" d="M184.5,-213C184.5,-213 22.5,-213 22.5,-213 16.5,-213 10.5,-207 10.5,-201 10.5,-201 10.5,-189 10.5,-189 10.5,-183 16.5,-177 22.5,-177 22.5,-177 184.5,-177 184.5,-177 190.5,-177 196.5,-183 196.5,-189 196.5,-189 196.5,-201 196.5,-201 196.5,-207 190.5,-213 184.5,-213"/>
<text text-anchor="middle" x="103.5" y="-191.3" font-family="Times,serif" font-size="14.00" fill="#222222">Concat(., [1, 1], axis=0)</text>
</g>
<!-- Shape_2&#45;&gt;Concat_3 -->
<g id="edge2" class="edge">
<title>Shape_2&#45;&gt;Concat_3</title>
<path fill="none" stroke="black" d="M99.97,-236.91C100.35,-232.58 100.76,-227.83 101.16,-223.14"/>
<polygon fill="black" stroke="black" points="102.02,-213.17 105.64,-223.52 101.59,-218.15 101.16,-223.13 101.16,-223.13 101.16,-223.13 101.59,-218.15 96.68,-222.74 102.02,-213.17 102.02,-213.17"/>
<text text-anchor="middle" x="118.5" y="-223.4" font-family="Times,serif" font-size="7.00">INT64(1)</text>
</g>
<!-- Concat_3&#45;&gt;Expand_4 -->
<g id="edge4" class="edge">
<title>Concat_3&#45;&gt;Expand_4</title>
<path fill="none" stroke="black" d="M120.28,-176.93C125.64,-171.48 131.69,-165.33 137.46,-159.45"/>
<polygon fill="black" stroke="black" points="144.56,-152.23 140.76,-162.52 141.06,-155.8 137.55,-159.36 137.55,-159.36 137.55,-159.36 141.06,-155.8 134.34,-156.21 144.56,-152.23 144.56,-152.23"/>
<text text-anchor="middle" x="151.5" y="-163.4" font-family="Times,serif" font-size="7.00">INT64(3)</text>
</g>
<!-- Expand_4&#45;&gt;MatMul_5 -->
<g id="edge6" class="edge">
<title>Expand_4&#45;&gt;MatMul_5</title>
<path fill="none" stroke="black" d="M177.84,-115.94C183.11,-110.49 189.02,-104.45 194.5,-99 194.66,-98.84 194.82,-98.68 194.98,-98.52"/>
<polygon fill="black" stroke="black" points="202.52,-91.13 198.53,-101.35 198.95,-94.63 195.38,-98.13 195.38,-98.13 195.38,-98.13 198.95,-94.63 192.23,-94.92 202.52,-91.13 202.52,-91.13"/>
<text text-anchor="middle" x="218.5" y="-101.4" font-family="Times,serif" font-size="7.00">FLOAT(1,c,d)</text>
</g>
<!-- O_6 -->
<g id="node7" class="node">
<title>O_6</title>
<path fill="#aaaaee" stroke="#888888" d="M263.5,-38C263.5,-38 177.5,-38 177.5,-38 171.5,-38 165.5,-32 165.5,-26 165.5,-26 165.5,-12 165.5,-12 165.5,-6 171.5,0 177.5,0 177.5,0 263.5,0 263.5,0 269.5,0 275.5,-6 275.5,-12 275.5,-12 275.5,-26 275.5,-26 275.5,-32 269.5,-38 263.5,-38"/>
<text text-anchor="middle" x="220.5" y="-22.8" font-family="Times,serif" font-size="14.00" fill="#222222">Z</text>
<text text-anchor="middle" x="220.5" y="-7.8" font-family="Times,serif" font-size="14.00" fill="#222222">FLOAT(a,b,d)</text>
</g>
<!-- MatMul_5&#45;&gt;O_6 -->
<g id="edge7" class="edge">
<title>MatMul_5&#45;&gt;O_6</title>
<path fill="none" stroke="black" d="M220.5,-54.97C220.5,-52.89 220.5,-50.72 220.5,-48.53"/>
<polygon fill="black" stroke="black" points="220.5,-38.32 225,-48.32 220.5,-43.32 220.5,-48.32 220.5,-48.32 220.5,-48.32 220.5,-43.32 216,-48.32 220.5,-38.32 220.5,-38.32"/>
</g>
</g>
</svg>
