<?xml version="1.0" encoding="UTF-8" standalone="no"?>
<!DOCTYPE svg PUBLIC "-//W3C//DTD SVG 1.1//EN"
 "http://www.w3.org/Graphics/SVG/1.1/DTD/svg11.dtd">
<!-- Generated by graphviz version 2.43.0 (0)
 -->
<!-- Title: %3 Pages: 1 -->
<svg width="124pt" height="161pt"
 viewBox="0.00 0.00 124.00 161.00" xmlns="http://www.w3.org/2000/svg" xmlns:xlink="http://www.w3.org/1999/xlink">
<g id="graph0" class="graph" transform="scale(1 1) rotate(0) translate(4 157)">
<title>%3</title>
<!-- I_0 -->
<g id="node1" class="node">
<title>I_0</title>
<path fill="#aaeeaa" stroke="#888888" d="M95,-153C95,-153 21,-153 21,-153 15,-153 9,-147 9,-141 9,-141 9,-127 9,-127 9,-121 15,-115 21,-115 21,-115 95,-115 95,-115 101,-115 107,-121 107,-127 107,-127 107,-141 107,-141 107,-147 101,-153 95,-153"/>
<text text-anchor="middle" x="58" y="-137.8" font-family="Times,serif" font-size="14.00" fill="#222222">X</text>
<text text-anchor="middle" x="58" y="-122.8" font-family="Times,serif" font-size="14.00" fill="#222222">FLOAT(3,2)</text>
</g>
<!-- ReduceSum_1 -->
<g id="node2" class="node">
<title>ReduceSum_1</title>
<path fill="#cccccc" stroke="#888888" d="M104,-91C104,-91 12,-91 12,-91 6,-91 0,-85 0,-79 0,-79 0,-67 0,-67 0,-61 6,-55 12,-55 12,-55 104,-55 104,-55 110,-55 116,-61 116,-67 116,-67 116,-79 116,-79 116,-85 110,-91 104,-91"/>
<text text-anchor="middle" x="58" y="-69.3" font-family="Times,serif" font-size="14.00" fill="#222222">ReduceSum(.)</text>
</g>
<!-- I_0&#45;&gt;ReduceSum_1 -->
<g id="edge1" class="edge">
<title>I_0&#45;&gt;ReduceSum_1</title>
<path fill="none" stroke="black" d="M58,-114.98C58,-110.71 58,-106.06 58,-101.47"/>
<polygon fill="black" stroke="black" points="58,-91.1 62.5,-101.1 58,-96.1 58,-101.1 58,-101.1 58,-101.1 58,-96.1 53.5,-101.1 58,-91.1 58,-91.1"/>
<text text-anchor="middle" x="79" y="-101.4" font-family="Times,serif" font-size="7.00">FLOAT(3,2)</text>
</g>
<!-- O_2 -->
<g id="node3" class="node">
<title>O_2</title>
<path fill="#aaaaee" stroke="#888888" d="M88,-38C88,-38 28,-38 28,-38 22,-38 16,-32 16,-26 16,-26 16,-12 16,-12 16,-6 22,0 28,0 28,0 88,0 88,0 94,0 100,-6 100,-12 100,-12 100,-26 100,-26 100,-32 94,-38 88,-38"/>
<text text-anchor="middle" x="58" y="-22.8" font-family="Times,serif" font-size="14.00" fill="#222222">Y</text>
<text text-anchor="middle" x="58" y="-7.8" font-family="Times,serif" font-size="14.00" fill="#222222">FLOAT(3)</text>
</g>
<!-- ReduceSum_1&#45;&gt;O_2 -->
<g id="edge2" class="edge">
<title>ReduceSum_1&#45;&gt;O_2</title>
<path fill="none" stroke="black" d="M58,-54.97C58,-52.89 58,-50.72 58,-48.53"/>
<polygon fill="black" stroke="black" points="58,-38.32 62.5,-48.32 58,-43.32 58,-48.32 58,-48.32 58,-48.32 58,-43.32 53.5,-48.32 58,-38.32 58,-38.32"/>
</g>
</g>
</svg>
