<?xml version="1.0" encoding="UTF-8" standalone="no"?>
<!DOCTYPE svg PUBLIC "-//W3C//DTD SVG 1.1//EN"
 "http://www.w3.org/Graphics/SVG/1.1/DTD/svg11.dtd">
<!-- Generated by graphviz version 2.43.0 (0)
 -->
<!-- Title: %3 Pages: 1 -->
<svg width="146pt" height="96pt"
 viewBox="0.00 0.00 146.00 96.00" xmlns="http://www.w3.org/2000/svg" xmlns:xlink="http://www.w3.org/1999/xlink">
<g id="graph0" class="graph" transform="scale(1 1) rotate(0) translate(4 92)">
<title>%3</title>
<!-- Constant_0 -->
<g id="node1" class="node">
<title>Constant_0</title>
<path fill="#cccccc" stroke="#888888" d="M126,-88C126,-88 12,-88 12,-88 6,-88 0,-82 0,-76 0,-76 0,-64 0,-64 0,-58 6,-52 12,-52 12,-52 126,-52 126,-52 132,-52 138,-58 138,-64 138,-64 138,-76 138,-76 138,-82 132,-88 126,-88"/>
<text text-anchor="middle" x="69" y="-66.3" font-family="Times,serif" font-size="14.00" fill="#222222">Constant() &#45;&gt; cst</text>
</g>
<!-- O_1 -->
<g id="node2" class="node">
<title>O_1</title>
<path fill="#aaaaee" stroke="#888888" d="M99,-38C99,-38 39,-38 39,-38 33,-38 27,-32 27,-26 27,-26 27,-12 27,-12 27,-6 33,0 39,0 39,0 99,0 99,0 105,0 111,-6 111,-12 111,-12 111,-26 111,-26 111,-32 105,-38 99,-38"/>
<text text-anchor="middle" x="69" y="-22.8" font-family="Times,serif" font-size="14.00" fill="#222222">cst</text>
<text text-anchor="middle" x="69" y="-7.8" font-family="Times,serif" font-size="14.00" fill="#222222">FLOAT(2)</text>
</g>
<!-- Constant_0&#45;&gt;O_1 -->
<g id="edge1" class="edge">
<title>Constant_0&#45;&gt;O_1</title>
<path fill="none" stroke="black" d="M69,-51.86C69,-50.76 69,-49.63 69,-48.49"/>
<polygon fill="black" stroke="black" points="69,-38.21 73.5,-48.21 69,-43.21 69,-48.21 69,-48.21 69,-48.21 69,-43.21 64.5,-48.21 69,-38.21 69,-38.21"/>
</g>
</g>
</svg>
