<?xml version="1.0" encoding="UTF-8" standalone="no"?>
<!DOCTYPE svg PUBLIC "-//W3C//DTD SVG 1.1//EN"
 "http://www.w3.org/Graphics/SVG/1.1/DTD/svg11.dtd">
<!-- Generated by graphviz version 2.43.0 (0)
 -->
<!-- Title: %3 Pages: 1 -->
<svg width="382pt" height="225pt"
 viewBox="0.00 0.00 381.50 225.00" xmlns="http://www.w3.org/2000/svg" xmlns:xlink="http://www.w3.org/1999/xlink">
<g id="graph0" class="graph" transform="scale(1 1) rotate(0) translate(4 221)">
<title>%3</title>
<!-- I_0 -->
<g id="node1" class="node">
<title>I_0</title>
<path fill="#aaeeaa" stroke="#888888" d="M161.5,-217C161.5,-217 75.5,-217 75.5,-217 69.5,-217 63.5,-211 63.5,-205 63.5,-205 63.5,-191 63.5,-191 63.5,-185 69.5,-179 75.5,-179 75.5,-179 161.5,-179 161.5,-179 167.5,-179 173.5,-185 173.5,-191 173.5,-191 173.5,-205 173.5,-205 173.5,-211 167.5,-217 161.5,-217"/>
<text text-anchor="middle" x="118.5" y="-201.8" font-family="Times,serif" font-size="14.00" fill="#222222">B</text>
<text text-anchor="middle" x="118.5" y="-186.8" font-family="Times,serif" font-size="14.00" fill="#222222">FLOAT(i,j,k,l)</text>
</g>
<!-- Transpose_2 -->
<g id="node3" class="node">
<title>Transpose_2</title>
<path fill="#ee99ee" stroke="#888888" d="M225,-154C225,-154 12,-154 12,-154 6,-154 0,-148 0,-142 0,-142 0,-130 0,-130 0,-124 6,-118 12,-118 12,-118 225,-118 225,-118 231,-118 237,-124 237,-130 237,-130 237,-142 237,-142 237,-148 231,-154 225,-154"/>
<text text-anchor="middle" x="118.5" y="-132.3" font-family="Times,serif" font-size="14.00" fill="#222222">Transpose(., perm=[0, 2, 1, 3])</text>
</g>
<!-- I_0&#45;&gt;Transpose_2 -->
<g id="edge1" class="edge">
<title>I_0&#45;&gt;Transpose_2</title>
<path fill="none" stroke="black" d="M118.5,-179C118.5,-174.45 118.5,-169.46 118.5,-164.55"/>
<polygon fill="black" stroke="black" points="118.5,-154.17 123,-164.17 118.5,-159.17 118.5,-164.17 118.5,-164.17 118.5,-164.17 118.5,-159.17 114,-164.17 118.5,-154.17 118.5,-154.17"/>
<text text-anchor="middle" x="143" y="-165.4" font-family="Times,serif" font-size="7.00">FLOAT(i,j,k,l)</text>
</g>
<!-- I_1 -->
<g id="node2" class="node">
<title>I_1</title>
<path fill="#aaeeaa" stroke="#888888" d="M361.5,-155C361.5,-155 263.5,-155 263.5,-155 257.5,-155 251.5,-149 251.5,-143 251.5,-143 251.5,-129 251.5,-129 251.5,-123 257.5,-117 263.5,-117 263.5,-117 361.5,-117 361.5,-117 367.5,-117 373.5,-123 373.5,-129 373.5,-129 373.5,-143 373.5,-143 373.5,-149 367.5,-155 361.5,-155"/>
<text text-anchor="middle" x="312.5" y="-139.8" font-family="Times,serif" font-size="14.00" fill="#222222">A</text>
<text text-anchor="middle" x="312.5" y="-124.8" font-family="Times,serif" font-size="14.00" fill="#222222">FLOAT(a,b,c,d)</text>
</g>
<!-- FusedMatMul_3 -->
<g id="node4" class="node">
<title>FusedMatMul_3</title>
<path fill="#cccccc" stroke="#888888" d="M276,-93C276,-93 155,-93 155,-93 149,-93 143,-87 143,-81 143,-81 143,-67 143,-67 143,-61 149,-55 155,-55 155,-55 276,-55 276,-55 282,-55 288,-61 288,-67 288,-67 288,-81 288,-81 288,-87 282,-93 276,-93"/>
<text text-anchor="middle" x="215.5" y="-77.8" font-family="Times,serif" font-size="14.00" fill="#222222">com.microsoft.</text>
<text text-anchor="middle" x="215.5" y="-62.8" font-family="Times,serif" font-size="14.00" fill="#222222">FusedMatMul(., .)</text>
</g>
<!-- I_1&#45;&gt;FusedMatMul_3 -->
<g id="edge2" class="edge">
<title>I_1&#45;&gt;FusedMatMul_3</title>
<path fill="none" stroke="black" d="M283.4,-117C273.99,-111.18 263.41,-104.64 253.46,-98.48"/>
<polygon fill="black" stroke="black" points="244.92,-93.2 255.79,-94.63 249.17,-95.83 253.42,-98.46 253.42,-98.46 253.42,-98.46 249.17,-95.83 251.06,-102.28 244.92,-93.2 244.92,-93.2"/>
<text text-anchor="middle" x="297" y="-103.4" font-family="Times,serif" font-size="7.00">FLOAT(a,b,c,d)</text>
</g>
<!-- Transpose_2&#45;&gt;FusedMatMul_3 -->
<g id="edge3" class="edge">
<title>Transpose_2&#45;&gt;FusedMatMul_3</title>
<path fill="none" stroke="black" d="M146.04,-117.97C155.84,-111.9 167.06,-104.97 177.57,-98.46"/>
<polygon fill="black" stroke="black" points="186.2,-93.12 180.06,-102.21 181.95,-95.75 177.69,-98.38 177.69,-98.38 177.69,-98.38 181.95,-95.75 175.33,-94.56 186.2,-93.12 186.2,-93.12"/>
<text text-anchor="middle" x="198" y="-103.4" font-family="Times,serif" font-size="7.00">FLOAT(i,k,j,l)</text>
</g>
<!-- O_4 -->
<g id="node5" class="node">
<title>O_4</title>
<path fill="#aaaaee" stroke="#888888" d="M267.5,-38C267.5,-38 163.5,-38 163.5,-38 157.5,-38 151.5,-32 151.5,-26 151.5,-26 151.5,-12 151.5,-12 151.5,-6 157.5,0 163.5,0 163.5,0 267.5,0 267.5,0 273.5,0 279.5,-6 279.5,-12 279.5,-12 279.5,-26 279.5,-26 279.5,-32 273.5,-38 267.5,-38"/>
<text text-anchor="middle" x="215.5" y="-22.8" font-family="Times,serif" font-size="14.00" fill="#222222">Y</text>
<text text-anchor="middle" x="215.5" y="-7.8" font-family="Times,serif" font-size="14.00" fill="#222222">FLOAT(m,n,o,p)</text>
</g>
<!-- FusedMatMul_3&#45;&gt;O_4 -->
<g id="edge4" class="edge">
<title>FusedMatMul_3&#45;&gt;O_4</title>
<path fill="none" stroke="black" d="M215.5,-54.76C215.5,-52.66 215.5,-50.47 215.5,-48.27"/>
<polygon fill="black" stroke="black" points="215.5,-38.09 220,-48.09 215.5,-43.09 215.5,-48.09 215.5,-48.09 215.5,-48.09 215.5,-43.09 211,-48.09 215.5,-38.09 215.5,-38.09"/>
</g>
</g>
</svg>
