<?xml version="1.0" encoding="UTF-8" standalone="no"?>
<!DOCTYPE svg PUBLIC "-//W3C//DTD SVG 1.1//EN"
 "http://www.w3.org/Graphics/SVG/1.1/DTD/svg11.dtd">
<!-- Generated by graphviz version 2.43.0 (0)
 -->
<!-- Title: %3 Pages: 1 -->
<svg width="236pt" height="161pt"
 viewBox="0.00 0.00 235.50 161.00" xmlns="http://www.w3.org/2000/svg" xmlns:xlink="http://www.w3.org/1999/xlink">
<g id="graph0" class="graph" transform="scale(1 1) rotate(0) translate(4 157)">
<title>%3</title>
<!-- I_0 -->
<g id="node1" class="node">
<title>I_0</title>
<path fill="#aaeeaa" stroke="#888888" d="M130,-153C130,-153 12,-153 12,-153 6,-153 0,-147 0,-141 0,-141 0,-127 0,-127 0,-121 6,-115 12,-115 12,-115 130,-115 130,-115 136,-115 142,-121 142,-127 142,-127 142,-141 142,-141 142,-147 136,-153 130,-153"/>
<text text-anchor="middle" x="71" y="-137.8" font-family="Times,serif" font-size="14.00" fill="#222222">X</text>
<text text-anchor="middle" x="71" y="-122.8" font-family="Times,serif" font-size="14.00" fill="#222222">FLOAT(a,b,16,80)</text>
</g>
<!-- Gather_2 -->
<g id="node3" class="node">
<title>Gather_2</title>
<path fill="#cccccc" stroke="#888888" d="M195.5,-91C195.5,-91 66.5,-91 66.5,-91 60.5,-91 54.5,-85 54.5,-79 54.5,-79 54.5,-67 54.5,-67 54.5,-61 60.5,-55 66.5,-55 66.5,-55 195.5,-55 195.5,-55 201.5,-55 207.5,-61 207.5,-67 207.5,-67 207.5,-79 207.5,-79 207.5,-85 201.5,-91 195.5,-91"/>
<text text-anchor="middle" x="131" y="-69.3" font-family="Times,serif" font-size="14.00" fill="#222222">Gather(., ., axis=1)</text>
</g>
<!-- I_0&#45;&gt;Gather_2 -->
<g id="edge1" class="edge">
<title>I_0&#45;&gt;Gather_2</title>
<path fill="none" stroke="black" d="M89.33,-114.98C94.64,-109.76 100.52,-103.97 106.15,-98.43"/>
<polygon fill="black" stroke="black" points="113.61,-91.1 109.63,-101.32 110.04,-94.61 106.47,-98.12 106.47,-98.12 106.47,-98.12 110.04,-94.61 103.32,-94.91 113.61,-91.1 113.61,-91.1"/>
<text text-anchor="middle" x="137" y="-101.4" font-family="Times,serif" font-size="7.00">FLOAT(a,b,16,80)</text>
</g>
<!-- I_1 -->
<g id="node2" class="node">
<title>I_1</title>
<path fill="#aaeeaa" stroke="#888888" d="M215.5,-153C215.5,-153 168.5,-153 168.5,-153 162.5,-153 156.5,-147 156.5,-141 156.5,-141 156.5,-127 156.5,-127 156.5,-121 162.5,-115 168.5,-115 168.5,-115 215.5,-115 215.5,-115 221.5,-115 227.5,-121 227.5,-127 227.5,-127 227.5,-141 227.5,-141 227.5,-147 221.5,-153 215.5,-153"/>
<text text-anchor="middle" x="192" y="-137.8" font-family="Times,serif" font-size="14.00" fill="#222222">ind</text>
<text text-anchor="middle" x="192" y="-122.8" font-family="Times,serif" font-size="14.00" fill="#222222">INT64()</text>
</g>
<!-- I_1&#45;&gt;Gather_2 -->
<g id="edge2" class="edge">
<title>I_1&#45;&gt;Gather_2</title>
<path fill="none" stroke="black" d="M183.53,-114.9C180.41,-109.39 176.52,-103.59 172,-99 171.47,-98.47 170.93,-97.94 170.38,-97.42"/>
<polygon fill="black" stroke="black" points="162.66,-91.04 173.23,-93.94 166.51,-94.23 170.37,-97.41 170.37,-97.41 170.37,-97.41 166.51,-94.23 167.51,-100.88 162.66,-91.04 162.66,-91.04"/>
<text text-anchor="middle" x="192.5" y="-101.4" font-family="Times,serif" font-size="7.00">INT64()</text>
</g>
<!-- O_3 -->
<g id="node4" class="node">
<title>O_3</title>
<path fill="#aaaaee" stroke="#888888" d="M183,-38C183,-38 79,-38 79,-38 73,-38 67,-32 67,-26 67,-26 67,-12 67,-12 67,-6 73,0 79,0 79,0 183,0 183,0 189,0 195,-6 195,-12 195,-12 195,-26 195,-26 195,-32 189,-38 183,-38"/>
<text text-anchor="middle" x="131" y="-22.8" font-family="Times,serif" font-size="14.00" fill="#222222">Y</text>
<text text-anchor="middle" x="131" y="-7.8" font-family="Times,serif" font-size="14.00" fill="#222222">FLOAT(a,16,80)</text>
</g>
<!-- Gather_2&#45;&gt;O_3 -->
<g id="edge3" class="edge">
<title>Gather_2&#45;&gt;O_3</title>
<path fill="none" stroke="black" d="M131,-54.97C131,-52.89 131,-50.72 131,-48.53"/>
<polygon fill="black" stroke="black" points="131,-38.32 135.5,-48.32 131,-43.32 131,-48.32 131,-48.32 131,-48.32 131,-43.32 126.5,-48.32 131,-38.32 131,-38.32"/>
</g>
</g>
</svg>
