<?xml version="1.0" encoding="UTF-8" standalone="no"?>
<!DOCTYPE svg PUBLIC "-//W3C//DTD SVG 1.1//EN"
 "http://www.w3.org/Graphics/SVG/1.1/DTD/svg11.dtd">
<!-- Generated by graphviz version 2.43.0 (0)
 -->
<!-- Title: %3 Pages: 1 -->
<svg width="348pt" height="223pt"
 viewBox="0.00 0.00 348.00 223.00" xmlns="http://www.w3.org/2000/svg" xmlns:xlink="http://www.w3.org/1999/xlink">
<g id="graph0" class="graph" transform="scale(1 1) rotate(0) translate(4 219)">
<title>%3</title>
<!-- I_0 -->
<g id="node1" class="node">
<title>I_0</title>
<path fill="#aaeeaa" stroke="#888888" d="M113,-153C113,-153 12,-153 12,-153 6,-153 0,-147 0,-141 0,-141 0,-127 0,-127 0,-121 6,-115 12,-115 12,-115 113,-115 113,-115 119,-115 125,-121 125,-127 125,-127 125,-141 125,-141 125,-147 119,-153 113,-153"/>
<text text-anchor="middle" x="62.5" y="-137.8" font-family="Times,serif" font-size="14.00" fill="#222222">Y</text>
<text text-anchor="middle" x="62.5" y="-122.8" font-family="Times,serif" font-size="14.00" fill="#222222">FLOAT(128,64)</text>
</g>
<!-- MatMul_3 -->
<g id="node4" class="node">
<title>MatMul_3</title>
<path fill="#ee9999" stroke="#888888" d="M163,-91C163,-91 86,-91 86,-91 80,-91 74,-85 74,-79 74,-79 74,-67 74,-67 74,-61 80,-55 86,-55 86,-55 163,-55 163,-55 169,-55 175,-61 175,-67 175,-67 175,-79 175,-79 175,-85 169,-91 163,-91"/>
<text text-anchor="middle" x="124.5" y="-69.3" font-family="Times,serif" font-size="14.00" fill="#222222">MatMul(., .)</text>
</g>
<!-- I_0&#45;&gt;MatMul_3 -->
<g id="edge3" class="edge">
<title>I_0&#45;&gt;MatMul_3</title>
<path fill="none" stroke="black" d="M81.44,-114.98C87.05,-109.64 93.28,-103.71 99.22,-98.05"/>
<polygon fill="black" stroke="black" points="106.53,-91.1 102.38,-101.26 102.9,-94.55 99.28,-98 99.28,-98 99.28,-98 102.9,-94.55 96.18,-94.74 106.53,-91.1 106.53,-91.1"/>
<text text-anchor="middle" x="124" y="-101.4" font-family="Times,serif" font-size="7.00">FLOAT(128,64)</text>
</g>
<!-- I_1 -->
<g id="node2" class="node">
<title>I_1</title>
<path fill="#aaeeaa" stroke="#888888" d="M290,-215C290,-215 189,-215 189,-215 183,-215 177,-209 177,-203 177,-203 177,-189 177,-189 177,-183 183,-177 189,-177 189,-177 290,-177 290,-177 296,-177 302,-183 302,-189 302,-189 302,-203 302,-203 302,-209 296,-215 290,-215"/>
<text text-anchor="middle" x="239.5" y="-199.8" font-family="Times,serif" font-size="14.00" fill="#222222">X</text>
<text text-anchor="middle" x="239.5" y="-184.8" font-family="Times,serif" font-size="14.00" fill="#222222">FLOAT(128,32)</text>
</g>
<!-- Transpose_2 -->
<g id="node3" class="node">
<title>Transpose_2</title>
<path fill="#ee99ee" stroke="#888888" d="M328,-152C328,-152 151,-152 151,-152 145,-152 139,-146 139,-140 139,-140 139,-128 139,-128 139,-122 145,-116 151,-116 151,-116 328,-116 328,-116 334,-116 340,-122 340,-128 340,-128 340,-140 340,-140 340,-146 334,-152 328,-152"/>
<text text-anchor="middle" x="239.5" y="-130.3" font-family="Times,serif" font-size="14.00" fill="#222222">Transpose(., perm=[1, 0])</text>
</g>
<!-- I_1&#45;&gt;Transpose_2 -->
<g id="edge1" class="edge">
<title>I_1&#45;&gt;Transpose_2</title>
<path fill="none" stroke="black" d="M239.5,-177C239.5,-172.45 239.5,-167.46 239.5,-162.55"/>
<polygon fill="black" stroke="black" points="239.5,-152.17 244,-162.17 239.5,-157.17 239.5,-162.17 239.5,-162.17 239.5,-162.17 239.5,-157.17 235,-162.17 239.5,-152.17 239.5,-152.17"/>
<text text-anchor="middle" x="267" y="-163.4" font-family="Times,serif" font-size="7.00">FLOAT(128,32)</text>
</g>
<!-- Transpose_2&#45;&gt;MatMul_3 -->
<g id="edge2" class="edge">
<title>Transpose_2&#45;&gt;MatMul_3</title>
<path fill="none" stroke="black" d="M206.24,-115.93C193.96,-109.64 179.88,-102.41 166.9,-95.75"/>
<polygon fill="black" stroke="black" points="157.69,-91.03 168.64,-91.59 162.14,-93.31 166.59,-95.59 166.59,-95.59 166.59,-95.59 162.14,-93.31 164.53,-99.6 157.69,-91.03 157.69,-91.03"/>
<text text-anchor="middle" x="212" y="-101.4" font-family="Times,serif" font-size="7.00">FLOAT(32,128)</text>
</g>
<!-- O_4 -->
<g id="node5" class="node">
<title>O_4</title>
<path fill="#aaaaee" stroke="#888888" d="M170.5,-38C170.5,-38 78.5,-38 78.5,-38 72.5,-38 66.5,-32 66.5,-26 66.5,-26 66.5,-12 66.5,-12 66.5,-6 72.5,0 78.5,0 78.5,0 170.5,0 170.5,0 176.5,0 182.5,-6 182.5,-12 182.5,-12 182.5,-26 182.5,-26 182.5,-32 176.5,-38 170.5,-38"/>
<text text-anchor="middle" x="124.5" y="-22.8" font-family="Times,serif" font-size="14.00" fill="#222222">Z</text>
<text text-anchor="middle" x="124.5" y="-7.8" font-family="Times,serif" font-size="14.00" fill="#222222">FLOAT(32,64)</text>
</g>
<!-- MatMul_3&#45;&gt;O_4 -->
<g id="edge4" class="edge">
<title>MatMul_3&#45;&gt;O_4</title>
<path fill="none" stroke="black" d="M124.5,-54.97C124.5,-52.89 124.5,-50.72 124.5,-48.53"/>
<polygon fill="black" stroke="black" points="124.5,-38.32 129,-48.32 124.5,-43.32 124.5,-48.32 124.5,-48.32 124.5,-48.32 124.5,-43.32 120,-48.32 124.5,-38.32 124.5,-38.32"/>
</g>
</g>
</svg>
