<?xml version="1.0" encoding="UTF-8" standalone="no"?>
<!DOCTYPE svg PUBLIC "-//W3C//DTD SVG 1.1//EN"
 "http://www.w3.org/Graphics/SVG/1.1/DTD/svg11.dtd">
<!-- Generated by graphviz version 2.43.0 (0)
 -->
<!-- Title: %3 Pages: 1 -->
<svg width="300pt" height="161pt"
 viewBox="0.00 0.00 300.00 161.00" xmlns="http://www.w3.org/2000/svg" xmlns:xlink="http://www.w3.org/1999/xlink">
<g id="graph0" class="graph" transform="scale(1 1) rotate(0) translate(4 157)">
<title>%3</title>
<!-- I_0 -->
<g id="node1" class="node">
<title>I_0</title>
<path fill="#aaeeaa" stroke="#888888" d="M72,-153C72,-153 12,-153 12,-153 6,-153 0,-147 0,-141 0,-141 0,-127 0,-127 0,-121 6,-115 12,-115 12,-115 72,-115 72,-115 78,-115 84,-121 84,-127 84,-127 84,-141 84,-141 84,-147 78,-153 72,-153"/>
<text text-anchor="middle" x="42" y="-137.8" font-family="Times,serif" font-size="14.00" fill="#222222">zero</text>
<text text-anchor="middle" x="42" y="-122.8" font-family="Times,serif" font-size="14.00" fill="#222222">FLOAT(1)</text>
</g>
<!-- Clip_3 -->
<g id="node4" class="node">
<title>Clip_3</title>
<path fill="#cccccc" stroke="#888888" d="M177.5,-91C177.5,-91 114.5,-91 114.5,-91 108.5,-91 102.5,-85 102.5,-79 102.5,-79 102.5,-67 102.5,-67 102.5,-61 108.5,-55 114.5,-55 114.5,-55 177.5,-55 177.5,-55 183.5,-55 189.5,-61 189.5,-67 189.5,-67 189.5,-79 189.5,-79 189.5,-85 183.5,-91 177.5,-91"/>
<text text-anchor="middle" x="146" y="-69.3" font-family="Times,serif" font-size="14.00" fill="#222222">Clip(., ., .)</text>
</g>
<!-- I_0&#45;&gt;Clip_3 -->
<g id="edge2" class="edge">
<title>I_0&#45;&gt;Clip_3</title>
<path fill="none" stroke="black" d="M73.77,-114.98C84.22,-109.05 95.97,-102.38 106.9,-96.18"/>
<polygon fill="black" stroke="black" points="115.85,-91.1 109.37,-99.95 111.5,-93.57 107.15,-96.04 107.15,-96.04 107.15,-96.04 111.5,-93.57 104.93,-92.13 115.85,-91.1 115.85,-91.1"/>
<text text-anchor="middle" x="118.5" y="-101.4" font-family="Times,serif" font-size="7.00">FLOAT(1)</text>
</g>
<!-- I_1 -->
<g id="node2" class="node">
<title>I_1</title>
<path fill="#aaeeaa" stroke="#888888" d="M182.5,-153C182.5,-153 109.5,-153 109.5,-153 103.5,-153 97.5,-147 97.5,-141 97.5,-141 97.5,-127 97.5,-127 97.5,-121 103.5,-115 109.5,-115 109.5,-115 182.5,-115 182.5,-115 188.5,-115 194.5,-121 194.5,-127 194.5,-127 194.5,-141 194.5,-141 194.5,-147 188.5,-153 182.5,-153"/>
<text text-anchor="middle" x="146" y="-137.8" font-family="Times,serif" font-size="14.00" fill="#222222">X</text>
<text text-anchor="middle" x="146" y="-122.8" font-family="Times,serif" font-size="14.00" fill="#222222">FLOAT(a,b)</text>
</g>
<!-- I_1&#45;&gt;Clip_3 -->
<g id="edge1" class="edge">
<title>I_1&#45;&gt;Clip_3</title>
<path fill="none" stroke="black" d="M146,-114.98C146,-110.71 146,-106.06 146,-101.47"/>
<polygon fill="black" stroke="black" points="146,-91.1 150.5,-101.1 146,-96.1 146,-101.1 146,-101.1 146,-101.1 146,-96.1 141.5,-101.1 146,-91.1 146,-91.1"/>
<text text-anchor="middle" x="167" y="-101.4" font-family="Times,serif" font-size="7.00">FLOAT(a,b)</text>
</g>
<!-- I_2 -->
<g id="node3" class="node">
<title>I_2</title>
<path fill="#aaeeaa" stroke="#888888" d="M280,-153C280,-153 220,-153 220,-153 214,-153 208,-147 208,-141 208,-141 208,-127 208,-127 208,-121 214,-115 220,-115 220,-115 280,-115 280,-115 286,-115 292,-121 292,-127 292,-127 292,-141 292,-141 292,-147 286,-153 280,-153"/>
<text text-anchor="middle" x="250" y="-137.8" font-family="Times,serif" font-size="14.00" fill="#222222">one</text>
<text text-anchor="middle" x="250" y="-122.8" font-family="Times,serif" font-size="14.00" fill="#222222">FLOAT(1)</text>
</g>
<!-- I_2&#45;&gt;Clip_3 -->
<g id="edge3" class="edge">
<title>I_2&#45;&gt;Clip_3</title>
<path fill="none" stroke="black" d="M218.82,-114.91C209.86,-109.74 200.05,-104.12 191,-99 189.31,-98.04 187.58,-97.07 185.83,-96.08"/>
<polygon fill="black" stroke="black" points="177.02,-91.15 187.94,-92.11 181.38,-93.59 185.75,-96.04 185.75,-96.04 185.75,-96.04 181.38,-93.59 183.55,-99.96 177.02,-91.15 177.02,-91.15"/>
<text text-anchor="middle" x="220.5" y="-101.4" font-family="Times,serif" font-size="7.00">FLOAT(1)</text>
</g>
<!-- O_4 -->
<g id="node5" class="node">
<title>O_4</title>
<path fill="#aaaaee" stroke="#888888" d="M182,-38C182,-38 110,-38 110,-38 104,-38 98,-32 98,-26 98,-26 98,-12 98,-12 98,-6 104,0 110,0 110,0 182,0 182,0 188,0 194,-6 194,-12 194,-12 194,-26 194,-26 194,-32 188,-38 182,-38"/>
<text text-anchor="middle" x="146" y="-22.8" font-family="Times,serif" font-size="14.00" fill="#222222">Y</text>
<text text-anchor="middle" x="146" y="-7.8" font-family="Times,serif" font-size="14.00" fill="#222222">FLOAT(c,d)</text>
</g>
<!-- Clip_3&#45;&gt;O_4 -->
<g id="edge4" class="edge">
<title>Clip_3&#45;&gt;O_4</title>
<path fill="none" stroke="black" d="M146,-54.97C146,-52.89 146,-50.72 146,-48.53"/>
<polygon fill="black" stroke="black" points="146,-38.32 150.5,-48.32 146,-43.32 146,-48.32 146,-48.32 146,-48.32 146,-43.32 141.5,-48.32 146,-38.32 146,-38.32"/>
</g>
</g>
</svg>
