<?xml version="1.0" encoding="UTF-8" standalone="no"?>
<!DOCTYPE svg PUBLIC "-//W3C//DTD SVG 1.1//EN"
 "http://www.w3.org/Graphics/SVG/1.1/DTD/svg11.dtd">
<!-- Generated by graphviz version 2.43.0 (0)
 -->
<!-- Title: %3 Pages: 1 -->
<svg width="1123pt" height="355pt"
 viewBox="0.00 0.00 1123.00 355.00" xmlns="http://www.w3.org/2000/svg" xmlns:xlink="http://www.w3.org/1999/xlink">
<g id="graph0" class="graph" transform="scale(1 1) rotate(0) translate(4 351)">
<title>%3</title>
<!-- I_0 -->
<g id="node1" class="node">
<title>I_0</title>
<path fill="#aaeeaa" stroke="#888888" d="M804,-223C804,-223 671,-223 671,-223 665,-223 659,-217 659,-211 659,-211 659,-197 659,-197 659,-191 665,-185 671,-185 671,-185 804,-185 804,-185 810,-185 816,-191 816,-197 816,-197 816,-211 816,-211 816,-217 810,-223 804,-223"/>
<text text-anchor="middle" x="737.5" y="-207.8" font-family="Times,serif" font-size="14.00" fill="#222222">mask</text>
<text text-anchor="middle" x="737.5" y="-192.8" font-family="Times,serif" font-size="14.00" fill="#222222">BOOL(am,1,cm,dm)</text>
</g>
<!-- LocalAttention_to1_11 -->
<g id="node12" class="node">
<title>LocalAttention_to1_11</title>
<path fill="#cccccc" stroke="#888888" d="M741,-161C741,-161 588,-161 588,-161 582,-161 576,-155 576,-149 576,-149 576,-120 576,-120 576,-114 582,-108 588,-108 588,-108 741,-108 741,-108 747,-108 753,-114 753,-120 753,-120 753,-149 753,-149 753,-155 747,-161 741,-161"/>
<text text-anchor="middle" x="664.5" y="-145.8" font-family="Times,serif" font-size="14.00" fill="#222222">intermediate.</text>
<text text-anchor="middle" x="664.5" y="-130.8" font-family="Times,serif" font-size="14.00" fill="#222222">LocalAttention_to1</text>
<text text-anchor="middle" x="664.5" y="-115.8" font-family="Times,serif" font-size="14.00" fill="#222222">(., ., ., ., [0.31622776])</text>
</g>
<!-- I_0&#45;&gt;LocalAttention_to1_11 -->
<g id="edge11" class="edge">
<title>I_0&#45;&gt;LocalAttention_to1_11</title>
<path fill="none" stroke="black" d="M717.94,-184.91C712.41,-179.8 706.23,-174.08 700.07,-168.39"/>
<polygon fill="black" stroke="black" points="692.35,-161.25 702.75,-164.74 696.02,-164.65 699.69,-168.04 699.69,-168.04 699.69,-168.04 696.02,-164.65 696.64,-171.35 692.35,-161.25 692.35,-161.25"/>
<text text-anchor="middle" x="745" y="-171.4" font-family="Times,serif" font-size="7.00">BOOL(am,1,cm,dm)</text>
</g>
<!-- I_1 -->
<g id="node2" class="node">
<title>I_1</title>
<path fill="#aaeeaa" stroke="#888888" d="M1103,-285C1103,-285 966,-285 966,-285 960,-285 954,-279 954,-273 954,-273 954,-259 954,-259 954,-253 960,-247 966,-247 966,-247 1103,-247 1103,-247 1109,-247 1115,-253 1115,-259 1115,-259 1115,-273 1115,-273 1115,-279 1109,-285 1103,-285"/>
<text text-anchor="middle" x="1034.5" y="-269.8" font-family="Times,serif" font-size="14.00" fill="#222222">past_values</text>
<text text-anchor="middle" x="1034.5" y="-254.8" font-family="Times,serif" font-size="14.00" fill="#222222">FLOAT(pav,8,pcv,64)</text>
</g>
<!-- Concat_10 -->
<g id="node11" class="node">
<title>Concat_10</title>
<path fill="#cccccc" stroke="#888888" d="M976.5,-222C976.5,-222 842.5,-222 842.5,-222 836.5,-222 830.5,-216 830.5,-210 830.5,-210 830.5,-198 830.5,-198 830.5,-192 836.5,-186 842.5,-186 842.5,-186 976.5,-186 976.5,-186 982.5,-186 988.5,-192 988.5,-198 988.5,-198 988.5,-210 988.5,-210 988.5,-216 982.5,-222 976.5,-222"/>
<text text-anchor="middle" x="909.5" y="-200.3" font-family="Times,serif" font-size="14.00" fill="#222222">Concat(., ., axis=&#45;2)</text>
</g>
<!-- I_1&#45;&gt;Concat_10 -->
<g id="edge6" class="edge">
<title>I_1&#45;&gt;Concat_10</title>
<path fill="none" stroke="black" d="M997,-247C983.67,-240.6 968.54,-233.34 954.64,-226.67"/>
<polygon fill="black" stroke="black" points="945.26,-222.17 956.23,-222.44 949.77,-224.33 954.28,-226.49 954.28,-226.49 954.28,-226.49 949.77,-224.33 952.33,-230.55 945.26,-222.17 945.26,-222.17"/>
<text text-anchor="middle" x="1015.5" y="-233.4" font-family="Times,serif" font-size="7.00">FLOAT(pav,8,pcv,64)</text>
</g>
<!-- I_2 -->
<g id="node3" class="node">
<title>I_2</title>
<path fill="#aaeeaa" stroke="#888888" d="M882,-347C882,-347 761,-347 761,-347 755,-347 749,-341 749,-335 749,-335 749,-321 749,-321 749,-315 755,-309 761,-309 761,-309 882,-309 882,-309 888,-309 894,-315 894,-321 894,-321 894,-335 894,-335 894,-341 888,-347 882,-347"/>
<text text-anchor="middle" x="821.5" y="-331.8" font-family="Times,serif" font-size="14.00" fill="#222222">values</text>
<text text-anchor="middle" x="821.5" y="-316.8" font-family="Times,serif" font-size="14.00" fill="#222222">FLOAT(av,bv,8,64)</text>
</g>
<!-- Transpose_9 -->
<g id="node10" class="node">
<title>Transpose_9</title>
<path fill="#ee99ee" stroke="#888888" d="M928,-284C928,-284 715,-284 715,-284 709,-284 703,-278 703,-272 703,-272 703,-260 703,-260 703,-254 709,-248 715,-248 715,-248 928,-248 928,-248 934,-248 940,-254 940,-260 940,-260 940,-272 940,-272 940,-278 934,-284 928,-284"/>
<text text-anchor="middle" x="821.5" y="-262.3" font-family="Times,serif" font-size="14.00" fill="#222222">Transpose(., perm=[0, 2, 1, 3])</text>
</g>
<!-- I_2&#45;&gt;Transpose_9 -->
<g id="edge5" class="edge">
<title>I_2&#45;&gt;Transpose_9</title>
<path fill="none" stroke="black" d="M821.5,-309C821.5,-304.45 821.5,-299.46 821.5,-294.55"/>
<polygon fill="black" stroke="black" points="821.5,-284.17 826,-294.17 821.5,-289.17 821.5,-294.17 821.5,-294.17 821.5,-294.17 821.5,-289.17 817,-294.17 821.5,-284.17 821.5,-284.17"/>
<text text-anchor="middle" x="854.5" y="-295.4" font-family="Times,serif" font-size="7.00">FLOAT(av,bv,8,64)</text>
</g>
<!-- I_3 -->
<g id="node4" class="node">
<title>I_3</title>
<path fill="#aaeeaa" stroke="#888888" d="M590,-285C590,-285 463,-285 463,-285 457,-285 451,-279 451,-273 451,-273 451,-259 451,-259 451,-253 457,-247 463,-247 463,-247 590,-247 590,-247 596,-247 602,-253 602,-259 602,-259 602,-273 602,-273 602,-279 596,-285 590,-285"/>
<text text-anchor="middle" x="526.5" y="-269.8" font-family="Times,serif" font-size="14.00" fill="#222222">query</text>
<text text-anchor="middle" x="526.5" y="-254.8" font-family="Times,serif" font-size="14.00" fill="#222222">FLOAT(aq,bq,8,64)</text>
</g>
<!-- Transpose_6 -->
<g id="node7" class="node">
<title>Transpose_6</title>
<path fill="#ee99ee" stroke="#888888" d="M633,-222C633,-222 420,-222 420,-222 414,-222 408,-216 408,-210 408,-210 408,-198 408,-198 408,-192 414,-186 420,-186 420,-186 633,-186 633,-186 639,-186 645,-192 645,-198 645,-198 645,-210 645,-210 645,-216 639,-222 633,-222"/>
<text text-anchor="middle" x="526.5" y="-200.3" font-family="Times,serif" font-size="14.00" fill="#222222">Transpose(., perm=[0, 2, 1, 3])</text>
</g>
<!-- I_3&#45;&gt;Transpose_6 -->
<g id="edge1" class="edge">
<title>I_3&#45;&gt;Transpose_6</title>
<path fill="none" stroke="black" d="M526.5,-247C526.5,-242.45 526.5,-237.46 526.5,-232.55"/>
<polygon fill="black" stroke="black" points="526.5,-222.17 531,-232.17 526.5,-227.17 526.5,-232.17 526.5,-232.17 526.5,-232.17 526.5,-227.17 522,-232.17 526.5,-222.17 526.5,-222.17"/>
<text text-anchor="middle" x="561" y="-233.4" font-family="Times,serif" font-size="7.00">FLOAT(aq,bq,8,64)</text>
</g>
<!-- I_4 -->
<g id="node5" class="node">
<title>I_4</title>
<path fill="#aaeeaa" stroke="#888888" d="M405.5,-285C405.5,-285 263.5,-285 263.5,-285 257.5,-285 251.5,-279 251.5,-273 251.5,-273 251.5,-259 251.5,-259 251.5,-253 257.5,-247 263.5,-247 263.5,-247 405.5,-247 405.5,-247 411.5,-247 417.5,-253 417.5,-259 417.5,-259 417.5,-273 417.5,-273 417.5,-279 411.5,-285 405.5,-285"/>
<text text-anchor="middle" x="334.5" y="-269.8" font-family="Times,serif" font-size="14.00" fill="#222222">past_keys</text>
<text text-anchor="middle" x="334.5" y="-254.8" font-family="Times,serif" font-size="14.00" fill="#222222">FLOAT(pak,8,pck,64)</text>
</g>
<!-- Concat_8 -->
<g id="node9" class="node">
<title>Concat_8</title>
<path fill="#cccccc" stroke="#888888" d="M381.5,-222C381.5,-222 247.5,-222 247.5,-222 241.5,-222 235.5,-216 235.5,-210 235.5,-210 235.5,-198 235.5,-198 235.5,-192 241.5,-186 247.5,-186 247.5,-186 381.5,-186 381.5,-186 387.5,-186 393.5,-192 393.5,-198 393.5,-198 393.5,-210 393.5,-210 393.5,-216 387.5,-222 381.5,-222"/>
<text text-anchor="middle" x="314.5" y="-200.3" font-family="Times,serif" font-size="14.00" fill="#222222">Concat(., ., axis=&#45;2)</text>
</g>
<!-- I_4&#45;&gt;Concat_8 -->
<g id="edge3" class="edge">
<title>I_4&#45;&gt;Concat_8</title>
<path fill="none" stroke="black" d="M328.5,-247C326.9,-242.2 325.14,-236.92 323.42,-231.76"/>
<polygon fill="black" stroke="black" points="320.22,-222.17 327.65,-230.23 321.8,-226.91 323.38,-231.65 323.38,-231.65 323.38,-231.65 321.8,-226.91 319.12,-233.08 320.22,-222.17 320.22,-222.17"/>
<text text-anchor="middle" x="365" y="-233.4" font-family="Times,serif" font-size="7.00">FLOAT(pak,8,pck,64)</text>
</g>
<!-- I_5 -->
<g id="node6" class="node">
<title>I_5</title>
<path fill="#aaeeaa" stroke="#888888" d="M181,-347C181,-347 56,-347 56,-347 50,-347 44,-341 44,-335 44,-335 44,-321 44,-321 44,-315 50,-309 56,-309 56,-309 181,-309 181,-309 187,-309 193,-315 193,-321 193,-321 193,-335 193,-335 193,-341 187,-347 181,-347"/>
<text text-anchor="middle" x="118.5" y="-331.8" font-family="Times,serif" font-size="14.00" fill="#222222">keys</text>
<text text-anchor="middle" x="118.5" y="-316.8" font-family="Times,serif" font-size="14.00" fill="#222222">FLOAT(ak,bk,8,64)</text>
</g>
<!-- Transpose_7 -->
<g id="node8" class="node">
<title>Transpose_7</title>
<path fill="#ee99ee" stroke="#888888" d="M225,-284C225,-284 12,-284 12,-284 6,-284 0,-278 0,-272 0,-272 0,-260 0,-260 0,-254 6,-248 12,-248 12,-248 225,-248 225,-248 231,-248 237,-254 237,-260 237,-260 237,-272 237,-272 237,-278 231,-284 225,-284"/>
<text text-anchor="middle" x="118.5" y="-262.3" font-family="Times,serif" font-size="14.00" fill="#222222">Transpose(., perm=[0, 2, 1, 3])</text>
</g>
<!-- I_5&#45;&gt;Transpose_7 -->
<g id="edge2" class="edge">
<title>I_5&#45;&gt;Transpose_7</title>
<path fill="none" stroke="black" d="M118.5,-309C118.5,-304.45 118.5,-299.46 118.5,-294.55"/>
<polygon fill="black" stroke="black" points="118.5,-284.17 123,-294.17 118.5,-289.17 118.5,-294.17 118.5,-294.17 118.5,-294.17 118.5,-289.17 114,-294.17 118.5,-284.17 118.5,-284.17"/>
<text text-anchor="middle" x="153" y="-295.4" font-family="Times,serif" font-size="7.00">FLOAT(ak,bk,8,64)</text>
</g>
<!-- Transpose_6&#45;&gt;LocalAttention_to1_11 -->
<g id="edge8" class="edge">
<title>Transpose_6&#45;&gt;LocalAttention_to1_11</title>
<path fill="none" stroke="black" d="M561.32,-185.97C573.96,-179.78 588.65,-172.6 602.91,-165.62"/>
<polygon fill="black" stroke="black" points="612.2,-161.08 605.19,-169.52 607.71,-163.28 603.22,-165.48 603.22,-165.48 603.22,-165.48 607.71,-163.28 601.24,-161.43 612.2,-161.08 612.2,-161.08"/>
</g>
<!-- Transpose_7&#45;&gt;Concat_8 -->
<g id="edge4" class="edge">
<title>Transpose_7&#45;&gt;Concat_8</title>
<path fill="none" stroke="black" d="M174.14,-247.97C197.42,-240.84 224.64,-232.51 248.89,-225.09"/>
<polygon fill="black" stroke="black" points="258.72,-222.08 250.47,-229.31 253.94,-223.54 249.16,-225 249.16,-225 249.16,-225 253.94,-223.54 247.84,-220.7 258.72,-222.08 258.72,-222.08"/>
</g>
<!-- Concat_8&#45;&gt;LocalAttention_to1_11 -->
<g id="edge9" class="edge">
<title>Concat_8&#45;&gt;LocalAttention_to1_11</title>
<path fill="none" stroke="black" d="M393.68,-186.36C395.98,-185.9 398.26,-185.45 400.5,-185 455.06,-174.18 516.09,-162.69 565.72,-153.51"/>
<polygon fill="black" stroke="black" points="575.81,-151.65 566.79,-157.89 570.89,-152.56 565.97,-153.47 565.97,-153.47 565.97,-153.47 570.89,-152.56 565.16,-149.04 575.81,-151.65 575.81,-151.65"/>
</g>
<!-- O_15 -->
<g id="node16" class="node">
<title>O_15</title>
<path fill="#aaaaee" stroke="#888888" d="M400,-153.5C400,-153.5 229,-153.5 229,-153.5 223,-153.5 217,-147.5 217,-141.5 217,-141.5 217,-127.5 217,-127.5 217,-121.5 223,-115.5 229,-115.5 229,-115.5 400,-115.5 400,-115.5 406,-115.5 412,-121.5 412,-127.5 412,-127.5 412,-141.5 412,-141.5 412,-147.5 406,-153.5 400,-153.5"/>
<text text-anchor="middle" x="314.5" y="-138.3" font-family="Times,serif" font-size="14.00" fill="#222222">ct_keys</text>
<text text-anchor="middle" x="314.5" y="-123.3" font-family="Times,serif" font-size="14.00" fill="#222222">FLOAT(pak,8,pck+bk,64)</text>
</g>
<!-- Concat_8&#45;&gt;O_15 -->
<g id="edge15" class="edge">
<title>Concat_8&#45;&gt;O_15</title>
<path fill="none" stroke="black" d="M314.5,-185.97C314.5,-179.28 314.5,-171.42 314.5,-163.91"/>
<polygon fill="black" stroke="black" points="314.5,-153.71 319,-163.71 314.5,-158.71 314.5,-163.71 314.5,-163.71 314.5,-163.71 314.5,-158.71 310,-163.71 314.5,-153.71 314.5,-153.71"/>
</g>
<!-- Transpose_9&#45;&gt;Concat_10 -->
<g id="edge7" class="edge">
<title>Transpose_9&#45;&gt;Concat_10</title>
<path fill="none" stroke="black" d="M846.48,-247.97C855.68,-241.7 866.25,-234.49 876.07,-227.79"/>
<polygon fill="black" stroke="black" points="884.46,-222.08 878.73,-231.43 880.32,-224.89 876.19,-227.71 876.19,-227.71 876.19,-227.71 880.32,-224.89 873.66,-223.99 884.46,-222.08 884.46,-222.08"/>
</g>
<!-- Concat_10&#45;&gt;LocalAttention_to1_11 -->
<g id="edge10" class="edge">
<title>Concat_10&#45;&gt;LocalAttention_to1_11</title>
<path fill="none" stroke="black" d="M847.68,-185.97C822.06,-178.91 791.71,-170.55 763.16,-162.68"/>
<polygon fill="black" stroke="black" points="753.15,-159.92 763.98,-158.24 757.97,-161.25 762.79,-162.58 762.79,-162.58 762.79,-162.58 757.97,-161.25 761.59,-166.92 753.15,-159.92 753.15,-159.92"/>
</g>
<!-- O_13 -->
<g id="node14" class="node">
<title>O_13</title>
<path fill="#aaaaee" stroke="#888888" d="M993,-153.5C993,-153.5 826,-153.5 826,-153.5 820,-153.5 814,-147.5 814,-141.5 814,-141.5 814,-127.5 814,-127.5 814,-121.5 820,-115.5 826,-115.5 826,-115.5 993,-115.5 993,-115.5 999,-115.5 1005,-121.5 1005,-127.5 1005,-127.5 1005,-141.5 1005,-141.5 1005,-147.5 999,-153.5 993,-153.5"/>
<text text-anchor="middle" x="909.5" y="-138.3" font-family="Times,serif" font-size="14.00" fill="#222222">ct_values</text>
<text text-anchor="middle" x="909.5" y="-123.3" font-family="Times,serif" font-size="14.00" fill="#222222">FLOAT(pav,8,pcv+bv,64)</text>
</g>
<!-- Concat_10&#45;&gt;O_13 -->
<g id="edge13" class="edge">
<title>Concat_10&#45;&gt;O_13</title>
<path fill="none" stroke="black" d="M909.5,-185.97C909.5,-179.28 909.5,-171.42 909.5,-163.91"/>
<polygon fill="black" stroke="black" points="909.5,-153.71 914,-163.71 909.5,-158.71 909.5,-163.71 909.5,-163.71 909.5,-163.71 909.5,-158.71 905,-163.71 909.5,-153.71 909.5,-153.71"/>
</g>
<!-- Transpose_12 -->
<g id="node13" class="node">
<title>Transpose_12</title>
<path fill="#ee99ee" stroke="#888888" d="M771,-91C771,-91 558,-91 558,-91 552,-91 546,-85 546,-79 546,-79 546,-67 546,-67 546,-61 552,-55 558,-55 558,-55 771,-55 771,-55 777,-55 783,-61 783,-67 783,-67 783,-79 783,-79 783,-85 777,-91 771,-91"/>
<text text-anchor="middle" x="664.5" y="-69.3" font-family="Times,serif" font-size="14.00" fill="#222222">Transpose(., perm=[0, 2, 1, 3])</text>
</g>
<!-- LocalAttention_to1_11&#45;&gt;Transpose_12 -->
<g id="edge12" class="edge">
<title>LocalAttention_to1_11&#45;&gt;Transpose_12</title>
<path fill="none" stroke="black" d="M664.5,-107.92C664.5,-105.71 664.5,-103.46 664.5,-101.23"/>
<polygon fill="black" stroke="black" points="664.5,-91.14 669,-101.14 664.5,-96.14 664.5,-101.14 664.5,-101.14 664.5,-101.14 664.5,-96.14 660,-101.14 664.5,-91.14 664.5,-91.14"/>
</g>
<!-- O_14 -->
<g id="node15" class="node">
<title>O_14</title>
<path fill="#aaaaee" stroke="#888888" d="M727,-38C727,-38 602,-38 602,-38 596,-38 590,-32 590,-26 590,-26 590,-12 590,-12 590,-6 596,0 602,0 602,0 727,0 727,0 733,0 739,-6 739,-12 739,-12 739,-26 739,-26 739,-32 733,-38 727,-38"/>
<text text-anchor="middle" x="664.5" y="-22.8" font-family="Times,serif" font-size="14.00" fill="#222222">Y</text>
<text text-anchor="middle" x="664.5" y="-7.8" font-family="Times,serif" font-size="14.00" fill="#222222">FLOAT(ay,by,cy,dy)</text>
</g>
<!-- Transpose_12&#45;&gt;O_14 -->
<g id="edge14" class="edge">
<title>Transpose_12&#45;&gt;O_14</title>
<path fill="none" stroke="black" d="M664.5,-54.97C664.5,-52.89 664.5,-50.72 664.5,-48.53"/>
<polygon fill="black" stroke="black" points="664.5,-38.32 669,-48.32 664.5,-43.32 664.5,-48.32 664.5,-48.32 664.5,-48.32 664.5,-43.32 660,-48.32 664.5,-38.32 664.5,-38.32"/>
</g>
</g>
</svg>
