<?xml version="1.0" encoding="UTF-8" standalone="no"?>
<!DOCTYPE svg PUBLIC "-//W3C//DTD SVG 1.1//EN"
 "http://www.w3.org/Graphics/SVG/1.1/DTD/svg11.dtd">
<!-- Generated by graphviz version 2.43.0 (0)
 -->
<!-- Title: %3 Pages: 1 -->
<svg width="237pt" height="401pt"
 viewBox="0.00 0.00 237.00 401.00" xmlns="http://www.w3.org/2000/svg" xmlns:xlink="http://www.w3.org/1999/xlink">
<g id="graph0" class="graph" transform="scale(1 1) rotate(0) translate(4 397)">
<title>%3</title>
<!-- I_0 -->
<g id="node1" class="node">
<title>I_0</title>
<path fill="#aaeeaa" stroke="#888888" d="M175.5,-393C175.5,-393 74.5,-393 74.5,-393 68.5,-393 62.5,-387 62.5,-381 62.5,-381 62.5,-367 62.5,-367 62.5,-361 68.5,-355 74.5,-355 74.5,-355 175.5,-355 175.5,-355 181.5,-355 187.5,-361 187.5,-367 187.5,-367 187.5,-381 187.5,-381 187.5,-387 181.5,-393 175.5,-393"/>
<text text-anchor="middle" x="125" y="-377.8" font-family="Times,serif" font-size="14.00" fill="#222222">X</text>
<text text-anchor="middle" x="125" y="-362.8" font-family="Times,serif" font-size="14.00" fill="#222222">FLOAT(2,2,4,8)</text>
</g>
<!-- Div_1 -->
<g id="node2" class="node">
<title>Div_1</title>
<path fill="#cccccc" stroke="#888888" d="M140,-331C140,-331 12,-331 12,-331 6,-331 0,-325 0,-319 0,-319 0,-307 0,-307 0,-301 6,-295 12,-295 12,-295 140,-295 140,-295 146,-295 152,-301 152,-307 152,-307 152,-319 152,-319 152,-325 146,-331 140,-331"/>
<text text-anchor="middle" x="76" y="-309.3" font-family="Times,serif" font-size="14.00" fill="#222222">Div(., [1.4140625])</text>
</g>
<!-- I_0&#45;&gt;Div_1 -->
<g id="edge1" class="edge">
<title>I_0&#45;&gt;Div_1</title>
<path fill="none" stroke="black" d="M110.03,-354.98C105.8,-349.88 101.11,-344.23 96.6,-338.81"/>
<polygon fill="black" stroke="black" points="90.21,-331.1 100.06,-335.92 93.4,-334.95 96.59,-338.8 96.59,-338.8 96.59,-338.8 93.4,-334.95 93.13,-341.67 90.21,-331.1 90.21,-331.1"/>
<text text-anchor="middle" x="129.5" y="-341.4" font-family="Times,serif" font-size="7.00">FLOAT(2,2,4,8)</text>
</g>
<!-- Mul_4 -->
<g id="node5" class="node">
<title>Mul_4</title>
<path fill="#cccccc" stroke="#888888" d="M161.5,-151C161.5,-151 112.5,-151 112.5,-151 106.5,-151 100.5,-145 100.5,-139 100.5,-139 100.5,-127 100.5,-127 100.5,-121 106.5,-115 112.5,-115 112.5,-115 161.5,-115 161.5,-115 167.5,-115 173.5,-121 173.5,-127 173.5,-127 173.5,-139 173.5,-139 173.5,-145 167.5,-151 161.5,-151"/>
<text text-anchor="middle" x="137" y="-129.3" font-family="Times,serif" font-size="14.00" fill="#222222">Mul(., .)</text>
</g>
<!-- I_0&#45;&gt;Mul_4 -->
<g id="edge4" class="edge">
<title>I_0&#45;&gt;Mul_4</title>
<path fill="none" stroke="black" d="M152.67,-354.74C155.34,-352.33 157.85,-349.74 160,-347 169.85,-334.48 174,-329.93 174,-314 174,-314 174,-314 174,-192 174,-178.71 171.38,-173.67 161.75,-159.52"/>
<polygon fill="black" stroke="black" points="156.06,-151.2 165.42,-156.91 158.88,-155.32 161.71,-159.45 161.71,-159.45 161.71,-159.45 158.88,-155.32 157.99,-161.99 156.06,-151.2 156.06,-151.2"/>
<text text-anchor="middle" x="201.5" y="-251.4" font-family="Times,serif" font-size="7.00">FLOAT(2,2,4,8)</text>
</g>
<!-- Erf_2 -->
<g id="node3" class="node">
<title>Erf_2</title>
<path fill="#cccccc" stroke="#888888" d="M100,-271C100,-271 70,-271 70,-271 64,-271 58,-265 58,-259 58,-259 58,-247 58,-247 58,-241 64,-235 70,-235 70,-235 100,-235 100,-235 106,-235 112,-241 112,-247 112,-247 112,-259 112,-259 112,-265 106,-271 100,-271"/>
<text text-anchor="middle" x="85" y="-249.3" font-family="Times,serif" font-size="14.00" fill="#222222">Erf(.)</text>
</g>
<!-- Div_1&#45;&gt;Erf_2 -->
<g id="edge2" class="edge">
<title>Div_1&#45;&gt;Erf_2</title>
<path fill="none" stroke="black" d="M78.65,-294.91C79.32,-290.58 80.06,-285.83 80.79,-281.14"/>
<polygon fill="black" stroke="black" points="82.34,-271.17 85.25,-281.74 81.57,-276.11 80.8,-281.05 80.8,-281.05 80.8,-281.05 81.57,-276.11 76.36,-280.36 82.34,-271.17 82.34,-271.17"/>
<text text-anchor="middle" x="109.5" y="-281.4" font-family="Times,serif" font-size="7.00">FLOAT(2,2,4,8)</text>
</g>
<!-- Add_3 -->
<g id="node4" class="node">
<title>Add_3</title>
<path fill="#cccccc" stroke="#888888" d="M137.5,-211C137.5,-211 60.5,-211 60.5,-211 54.5,-211 48.5,-205 48.5,-199 48.5,-199 48.5,-187 48.5,-187 48.5,-181 54.5,-175 60.5,-175 60.5,-175 137.5,-175 137.5,-175 143.5,-175 149.5,-181 149.5,-187 149.5,-187 149.5,-199 149.5,-199 149.5,-205 143.5,-211 137.5,-211"/>
<text text-anchor="middle" x="99" y="-189.3" font-family="Times,serif" font-size="14.00" fill="#222222">Add(., [1.0])</text>
</g>
<!-- Erf_2&#45;&gt;Add_3 -->
<g id="edge3" class="edge">
<title>Erf_2&#45;&gt;Add_3</title>
<path fill="none" stroke="black" d="M89.12,-234.91C90.17,-230.58 91.32,-225.83 92.45,-221.14"/>
<polygon fill="black" stroke="black" points="94.86,-211.17 96.88,-221.94 93.68,-216.03 92.51,-220.89 92.51,-220.89 92.51,-220.89 93.68,-216.03 88.14,-219.83 94.86,-211.17 94.86,-211.17"/>
<text text-anchor="middle" x="120.5" y="-221.4" font-family="Times,serif" font-size="7.00">FLOAT(2,2,4,8)</text>
</g>
<!-- Add_3&#45;&gt;Mul_4 -->
<g id="edge5" class="edge">
<title>Add_3&#45;&gt;Mul_4</title>
<path fill="none" stroke="black" d="M101.67,-174.75C103.02,-169.42 105.02,-163.72 108,-159 108.06,-158.91 108.11,-158.82 108.17,-158.74"/>
<polygon fill="black" stroke="black" points="114.33,-151.05 111.59,-161.67 111.2,-154.95 108.08,-158.85 108.08,-158.85 108.08,-158.85 111.2,-154.95 104.56,-156.04 114.33,-151.05 114.33,-151.05"/>
<text text-anchor="middle" x="135.5" y="-161.4" font-family="Times,serif" font-size="7.00">FLOAT(2,2,4,8)</text>
</g>
<!-- Mul_5 -->
<g id="node6" class="node">
<title>Mul_5</title>
<path fill="#cccccc" stroke="#888888" d="M175.5,-91C175.5,-91 98.5,-91 98.5,-91 92.5,-91 86.5,-85 86.5,-79 86.5,-79 86.5,-67 86.5,-67 86.5,-61 92.5,-55 98.5,-55 98.5,-55 175.5,-55 175.5,-55 181.5,-55 187.5,-61 187.5,-67 187.5,-67 187.5,-79 187.5,-79 187.5,-85 181.5,-91 175.5,-91"/>
<text text-anchor="middle" x="137" y="-69.3" font-family="Times,serif" font-size="14.00" fill="#222222">Mul([0.5], .)</text>
</g>
<!-- Mul_4&#45;&gt;Mul_5 -->
<g id="edge6" class="edge">
<title>Mul_4&#45;&gt;Mul_5</title>
<path fill="none" stroke="black" d="M137,-114.91C137,-110.7 137,-106.09 137,-101.52"/>
<polygon fill="black" stroke="black" points="137,-91.17 141.5,-101.17 137,-96.17 137,-101.17 137,-101.17 137,-101.17 137,-96.17 132.5,-101.17 137,-91.17 137,-91.17"/>
<text text-anchor="middle" x="164.5" y="-101.4" font-family="Times,serif" font-size="7.00">FLOAT(2,2,4,8)</text>
</g>
<!-- O_6 -->
<g id="node7" class="node">
<title>O_6</title>
<path fill="#aaaaee" stroke="#888888" d="M187.5,-38C187.5,-38 86.5,-38 86.5,-38 80.5,-38 74.5,-32 74.5,-26 74.5,-26 74.5,-12 74.5,-12 74.5,-6 80.5,0 86.5,0 86.5,0 187.5,0 187.5,0 193.5,0 199.5,-6 199.5,-12 199.5,-12 199.5,-26 199.5,-26 199.5,-32 193.5,-38 187.5,-38"/>
<text text-anchor="middle" x="137" y="-22.8" font-family="Times,serif" font-size="14.00" fill="#222222">Y</text>
<text text-anchor="middle" x="137" y="-7.8" font-family="Times,serif" font-size="14.00" fill="#222222">FLOAT(2,2,4,8)</text>
</g>
<!-- Mul_5&#45;&gt;O_6 -->
<g id="edge7" class="edge">
<title>Mul_5&#45;&gt;O_6</title>
<path fill="none" stroke="black" d="M137,-54.97C137,-52.89 137,-50.72 137,-48.53"/>
<polygon fill="black" stroke="black" points="137,-38.32 141.5,-48.32 137,-43.32 137,-48.32 137,-48.32 137,-48.32 137,-43.32 132.5,-48.32 137,-38.32 137,-38.32"/>
</g>
</g>
</svg>
