<?xml version="1.0" encoding="UTF-8" standalone="no"?>
<!DOCTYPE svg PUBLIC "-//W3C//DTD SVG 1.1//EN"
 "http://www.w3.org/Graphics/SVG/1.1/DTD/svg11.dtd">
<!-- Generated by graphviz version 2.43.0 (0)
 -->
<!-- Title: %3 Pages: 1 -->
<svg width="314pt" height="223pt"
 viewBox="0.00 0.00 314.00 223.00" xmlns="http://www.w3.org/2000/svg" xmlns:xlink="http://www.w3.org/1999/xlink">
<g id="graph0" class="graph" transform="scale(1 1) rotate(0) translate(4 219)">
<title>%3</title>
<!-- I_0 -->
<g id="node1" class="node">
<title>I_0</title>
<path fill="#aaeeaa" stroke="#888888" d="M112,-215C112,-215 12,-215 12,-215 6,-215 0,-209 0,-203 0,-203 0,-189 0,-189 0,-183 6,-177 12,-177 12,-177 112,-177 112,-177 118,-177 124,-183 124,-189 124,-189 124,-203 124,-203 124,-209 118,-215 112,-215"/>
<text text-anchor="middle" x="62" y="-199.8" font-family="Times,serif" font-size="14.00" fill="#222222">Y</text>
<text text-anchor="middle" x="62" y="-184.8" font-family="Times,serif" font-size="14.00" fill="#222222">FLOAT(a,1,3,4)</text>
</g>
<!-- Add_3 -->
<g id="node4" class="node">
<title>Add_3</title>
<path fill="#cccccc" stroke="#888888" d="M155.5,-152C155.5,-152 106.5,-152 106.5,-152 100.5,-152 94.5,-146 94.5,-140 94.5,-140 94.5,-128 94.5,-128 94.5,-122 100.5,-116 106.5,-116 106.5,-116 155.5,-116 155.5,-116 161.5,-116 167.5,-122 167.5,-128 167.5,-128 167.5,-140 167.5,-140 167.5,-146 161.5,-152 155.5,-152"/>
<text text-anchor="middle" x="131" y="-130.3" font-family="Times,serif" font-size="14.00" fill="#222222">Add(., .)</text>
</g>
<!-- I_0&#45;&gt;Add_3 -->
<g id="edge1" class="edge">
<title>I_0&#45;&gt;Add_3</title>
<path fill="none" stroke="black" d="M82.7,-177C89.21,-171.34 96.5,-165 103.4,-159"/>
<polygon fill="black" stroke="black" points="111.26,-152.17 106.67,-162.12 107.49,-155.45 103.71,-158.73 103.71,-158.73 103.71,-158.73 107.49,-155.45 100.76,-155.33 111.26,-152.17 111.26,-152.17"/>
<text text-anchor="middle" x="128.5" y="-163.4" font-family="Times,serif" font-size="7.00">FLOAT(a,1,3,4)</text>
</g>
<!-- I_1 -->
<g id="node2" class="node">
<title>I_1</title>
<path fill="#aaeeaa" stroke="#888888" d="M294,-153C294,-153 194,-153 194,-153 188,-153 182,-147 182,-141 182,-141 182,-127 182,-127 182,-121 188,-115 194,-115 194,-115 294,-115 294,-115 300,-115 306,-121 306,-127 306,-127 306,-141 306,-141 306,-147 300,-153 294,-153"/>
<text text-anchor="middle" x="244" y="-137.8" font-family="Times,serif" font-size="14.00" fill="#222222">X</text>
<text text-anchor="middle" x="244" y="-122.8" font-family="Times,serif" font-size="14.00" fill="#222222">FLOAT(a,2,3,4)</text>
</g>
<!-- Add_4 -->
<g id="node5" class="node">
<title>Add_4</title>
<path fill="#cccccc" stroke="#888888" d="M212.5,-91C212.5,-91 163.5,-91 163.5,-91 157.5,-91 151.5,-85 151.5,-79 151.5,-79 151.5,-67 151.5,-67 151.5,-61 157.5,-55 163.5,-55 163.5,-55 212.5,-55 212.5,-55 218.5,-55 224.5,-61 224.5,-67 224.5,-67 224.5,-79 224.5,-79 224.5,-85 218.5,-91 212.5,-91"/>
<text text-anchor="middle" x="188" y="-69.3" font-family="Times,serif" font-size="14.00" fill="#222222">Add(., .)</text>
</g>
<!-- I_1&#45;&gt;Add_4 -->
<g id="edge4" class="edge">
<title>I_1&#45;&gt;Add_4</title>
<path fill="none" stroke="black" d="M226.89,-114.98C221.94,-109.76 216.45,-103.97 211.19,-98.43"/>
<polygon fill="black" stroke="black" points="204.24,-91.1 214.38,-95.26 207.68,-94.73 211.12,-98.36 211.12,-98.36 211.12,-98.36 207.68,-94.73 207.86,-101.46 204.24,-91.1 204.24,-91.1"/>
<text text-anchor="middle" x="244.5" y="-101.4" font-family="Times,serif" font-size="7.00">FLOAT(a,2,3,4)</text>
</g>
<!-- I_2 -->
<g id="node3" class="node">
<title>I_2</title>
<path fill="#aaeeaa" stroke="#888888" d="M250,-215C250,-215 150,-215 150,-215 144,-215 138,-209 138,-203 138,-203 138,-189 138,-189 138,-183 144,-177 150,-177 150,-177 250,-177 250,-177 256,-177 262,-183 262,-189 262,-189 262,-203 262,-203 262,-209 256,-215 250,-215"/>
<text text-anchor="middle" x="200" y="-199.8" font-family="Times,serif" font-size="14.00" fill="#222222">Z</text>
<text text-anchor="middle" x="200" y="-184.8" font-family="Times,serif" font-size="14.00" fill="#222222">FLOAT(a,1,3,4)</text>
</g>
<!-- I_2&#45;&gt;Add_3 -->
<g id="edge2" class="edge">
<title>I_2&#45;&gt;Add_3</title>
<path fill="none" stroke="black" d="M179.3,-177C172.79,-171.34 165.5,-165 158.6,-159"/>
<polygon fill="black" stroke="black" points="150.74,-152.17 161.24,-155.33 154.51,-155.45 158.29,-158.73 158.29,-158.73 158.29,-158.73 154.51,-155.45 155.33,-162.12 150.74,-152.17 150.74,-152.17"/>
<text text-anchor="middle" x="196.5" y="-163.4" font-family="Times,serif" font-size="7.00">FLOAT(a,1,3,4)</text>
</g>
<!-- Add_3&#45;&gt;Add_4 -->
<g id="edge3" class="edge">
<title>Add_3&#45;&gt;Add_4</title>
<path fill="none" stroke="black" d="M140.94,-115.89C144.65,-110.2 149.16,-104.03 154,-99 154.33,-98.66 154.67,-98.31 155.01,-97.97"/>
<polygon fill="black" stroke="black" points="162.67,-91.09 158.23,-101.12 158.95,-94.43 155.23,-97.77 155.23,-97.77 155.23,-97.77 158.95,-94.43 152.22,-94.43 162.67,-91.09 162.67,-91.09"/>
<text text-anchor="middle" x="181.5" y="-101.4" font-family="Times,serif" font-size="7.00">FLOAT(a,1,3,4)</text>
</g>
<!-- O_5 -->
<g id="node6" class="node">
<title>O_5</title>
<path fill="#aaaaee" stroke="#888888" d="M238,-38C238,-38 138,-38 138,-38 132,-38 126,-32 126,-26 126,-26 126,-12 126,-12 126,-6 132,0 138,0 138,0 238,0 238,0 244,0 250,-6 250,-12 250,-12 250,-26 250,-26 250,-32 244,-38 238,-38"/>
<text text-anchor="middle" x="188" y="-22.8" font-family="Times,serif" font-size="14.00" fill="#222222">F</text>
<text text-anchor="middle" x="188" y="-7.8" font-family="Times,serif" font-size="14.00" fill="#222222">FLOAT(a,2,3,4)</text>
</g>
<!-- Add_4&#45;&gt;O_5 -->
<g id="edge5" class="edge">
<title>Add_4&#45;&gt;O_5</title>
<path fill="none" stroke="black" d="M188,-54.97C188,-52.89 188,-50.72 188,-48.53"/>
<polygon fill="black" stroke="black" points="188,-38.32 192.5,-48.32 188,-43.32 188,-48.32 188,-48.32 188,-48.32 188,-43.32 183.5,-48.32 188,-38.32 188,-38.32"/>
</g>
</g>
</svg>
