<?xml version="1.0" encoding="UTF-8" standalone="no"?>
<!DOCTYPE svg PUBLIC "-//W3C//DTD SVG 1.1//EN"
 "http://www.w3.org/Graphics/SVG/1.1/DTD/svg11.dtd">
<!-- Generated by graphviz version 2.43.0 (0)
 -->
<!-- Title: %3 Pages: 1 -->
<svg width="249pt" height="223pt"
 viewBox="0.00 0.00 249.00 223.00" xmlns="http://www.w3.org/2000/svg" xmlns:xlink="http://www.w3.org/1999/xlink">
<g id="graph0" class="graph" transform="scale(1 1) rotate(0) translate(4 219)">
<title>%3</title>
<!-- I_0 -->
<g id="node1" class="node">
<title>I_0</title>
<path fill="#aaeeaa" stroke="#888888" d="M68,-215C68,-215 12,-215 12,-215 6,-215 0,-209 0,-203 0,-203 0,-189 0,-189 0,-183 6,-177 12,-177 12,-177 68,-177 68,-177 74,-177 80,-183 80,-189 80,-189 80,-203 80,-203 80,-209 74,-215 68,-215"/>
<text text-anchor="middle" x="40" y="-199.8" font-family="Times,serif" font-size="14.00" fill="#222222">zero</text>
<text text-anchor="middle" x="40" y="-184.8" font-family="Times,serif" font-size="14.00" fill="#222222">INT64(1)</text>
</g>
<!-- Unsqueeze_3 -->
<g id="node4" class="node">
<title>Unsqueeze_3</title>
<path fill="#eeeeee" stroke="#888888" d="M135,-152C135,-152 35,-152 35,-152 29,-152 23,-146 23,-140 23,-140 23,-128 23,-128 23,-122 29,-116 35,-116 35,-116 135,-116 135,-116 141,-116 147,-122 147,-128 147,-128 147,-140 147,-140 147,-146 141,-152 135,-152"/>
<text text-anchor="middle" x="85" y="-130.3" font-family="Times,serif" font-size="14.00" fill="#222222">Unsqueeze(., .)</text>
</g>
<!-- I_0&#45;&gt;Unsqueeze_3 -->
<g id="edge2" class="edge">
<title>I_0&#45;&gt;Unsqueeze_3</title>
<path fill="none" stroke="black" d="M53.5,-177C57.47,-171.71 61.88,-165.83 66.12,-160.18"/>
<polygon fill="black" stroke="black" points="72.13,-152.17 69.73,-162.87 69.13,-156.17 66.13,-160.17 66.13,-160.17 66.13,-160.17 69.13,-156.17 62.53,-157.47 72.13,-152.17 72.13,-152.17"/>
<text text-anchor="middle" x="83" y="-163.4" font-family="Times,serif" font-size="7.00">INT64(1)</text>
</g>
<!-- I_1 -->
<g id="node2" class="node">
<title>I_1</title>
<path fill="#aaeeaa" stroke="#888888" d="M229,-153C229,-153 173,-153 173,-153 167,-153 161,-147 161,-141 161,-141 161,-127 161,-127 161,-121 167,-115 173,-115 173,-115 229,-115 229,-115 235,-115 241,-121 241,-127 241,-127 241,-141 241,-141 241,-147 235,-153 229,-153"/>
<text text-anchor="middle" x="201" y="-137.8" font-family="Times,serif" font-size="14.00" fill="#222222">d</text>
<text text-anchor="middle" x="201" y="-122.8" font-family="Times,serif" font-size="14.00" fill="#222222">INT64(1)</text>
</g>
<!-- Div_4 -->
<g id="node5" class="node">
<title>Div_4</title>
<path fill="#cccccc" stroke="#888888" d="M165.5,-91C165.5,-91 120.5,-91 120.5,-91 114.5,-91 108.5,-85 108.5,-79 108.5,-79 108.5,-67 108.5,-67 108.5,-61 114.5,-55 120.5,-55 120.5,-55 165.5,-55 165.5,-55 171.5,-55 177.5,-61 177.5,-67 177.5,-67 177.5,-79 177.5,-79 177.5,-85 171.5,-91 165.5,-91"/>
<text text-anchor="middle" x="143" y="-69.3" font-family="Times,serif" font-size="14.00" fill="#222222">Div(., .)</text>
</g>
<!-- I_1&#45;&gt;Div_4 -->
<g id="edge3" class="edge">
<title>I_1&#45;&gt;Div_4</title>
<path fill="none" stroke="black" d="M183.28,-114.98C178.15,-109.76 172.46,-103.97 167.02,-98.43"/>
<polygon fill="black" stroke="black" points="159.81,-91.1 170.03,-95.08 163.32,-94.67 166.83,-98.24 166.83,-98.24 166.83,-98.24 163.32,-94.67 163.62,-101.39 159.81,-91.1 159.81,-91.1"/>
<text text-anchor="middle" x="190" y="-101.4" font-family="Times,serif" font-size="7.00">INT64(1)</text>
</g>
<!-- I_2 -->
<g id="node3" class="node">
<title>I_2</title>
<path fill="#aaeeaa" stroke="#888888" d="M153.5,-215C153.5,-215 106.5,-215 106.5,-215 100.5,-215 94.5,-209 94.5,-203 94.5,-203 94.5,-189 94.5,-189 94.5,-183 100.5,-177 106.5,-177 106.5,-177 153.5,-177 153.5,-177 159.5,-177 165.5,-183 165.5,-189 165.5,-189 165.5,-203 165.5,-203 165.5,-209 159.5,-215 153.5,-215"/>
<text text-anchor="middle" x="130" y="-199.8" font-family="Times,serif" font-size="14.00" fill="#222222">two</text>
<text text-anchor="middle" x="130" y="-184.8" font-family="Times,serif" font-size="14.00" fill="#222222">INT64()</text>
</g>
<!-- I_2&#45;&gt;Unsqueeze_3 -->
<g id="edge1" class="edge">
<title>I_2&#45;&gt;Unsqueeze_3</title>
<path fill="none" stroke="black" d="M116.5,-177C112.53,-171.71 108.12,-165.83 103.88,-160.18"/>
<polygon fill="black" stroke="black" points="97.87,-152.17 107.47,-157.47 100.87,-156.17 103.87,-160.17 103.87,-160.17 103.87,-160.17 100.87,-156.17 100.27,-162.87 97.87,-152.17 97.87,-152.17"/>
<text text-anchor="middle" x="124.5" y="-163.4" font-family="Times,serif" font-size="7.00">INT64()</text>
</g>
<!-- Unsqueeze_3&#45;&gt;Div_4 -->
<g id="edge4" class="edge">
<title>Unsqueeze_3&#45;&gt;Div_4</title>
<path fill="none" stroke="black" d="M101.78,-115.93C107.14,-110.48 113.19,-104.33 118.96,-98.45"/>
<polygon fill="black" stroke="black" points="126.06,-91.23 122.26,-101.52 122.56,-94.8 119.05,-98.36 119.05,-98.36 119.05,-98.36 122.56,-94.8 115.84,-95.21 126.06,-91.23 126.06,-91.23"/>
</g>
<!-- O_5 -->
<g id="node6" class="node">
<title>O_5</title>
<path fill="#aaaaee" stroke="#888888" d="M171,-38C171,-38 115,-38 115,-38 109,-38 103,-32 103,-26 103,-26 103,-12 103,-12 103,-6 109,0 115,0 115,0 171,0 171,0 177,0 183,-6 183,-12 183,-12 183,-26 183,-26 183,-32 177,-38 171,-38"/>
<text text-anchor="middle" x="143" y="-22.8" font-family="Times,serif" font-size="14.00" fill="#222222">e</text>
<text text-anchor="middle" x="143" y="-7.8" font-family="Times,serif" font-size="14.00" fill="#222222">INT64(1)</text>
</g>
<!-- Div_4&#45;&gt;O_5 -->
<g id="edge5" class="edge">
<title>Div_4&#45;&gt;O_5</title>
<path fill="none" stroke="black" d="M143,-54.97C143,-52.89 143,-50.72 143,-48.53"/>
<polygon fill="black" stroke="black" points="143,-38.32 147.5,-48.32 143,-43.32 143,-48.32 143,-48.32 143,-48.32 143,-43.32 138.5,-48.32 143,-38.32 143,-38.32"/>
</g>
</g>
</svg>
