<?xml version="1.0" encoding="UTF-8" standalone="no"?>
<!DOCTYPE svg PUBLIC "-//W3C//DTD SVG 1.1//EN"
 "http://www.w3.org/Graphics/SVG/1.1/DTD/svg11.dtd">
<!-- Generated by graphviz version 2.43.0 (0)
 -->
<!-- Title: %3 Pages: 1 -->
<svg width="182pt" height="161pt"
 viewBox="0.00 0.00 182.00 161.00" xmlns="http://www.w3.org/2000/svg" xmlns:xlink="http://www.w3.org/1999/xlink">
<g id="graph0" class="graph" transform="scale(1 1) rotate(0) translate(4 157)">
<title>%3</title>
<!-- I_0 -->
<g id="node1" class="node">
<title>I_0</title>
<path fill="#aaeeaa" stroke="#888888" d="M68,-153C68,-153 12,-153 12,-153 6,-153 0,-147 0,-141 0,-141 0,-127 0,-127 0,-121 6,-115 12,-115 12,-115 68,-115 68,-115 74,-115 80,-121 80,-127 80,-127 80,-141 80,-141 80,-147 74,-153 68,-153"/>
<text text-anchor="middle" x="40" y="-137.8" font-family="Times,serif" font-size="14.00" fill="#222222">Y</text>
<text text-anchor="middle" x="40" y="-122.8" font-family="Times,serif" font-size="14.00" fill="#222222">INT64(b)</text>
</g>
<!-- Concat_2 -->
<g id="node3" class="node">
<title>Concat_2</title>
<path fill="#cccccc" stroke="#888888" d="M151.5,-91C151.5,-91 22.5,-91 22.5,-91 16.5,-91 10.5,-85 10.5,-79 10.5,-79 10.5,-67 10.5,-67 10.5,-61 16.5,-55 22.5,-55 22.5,-55 151.5,-55 151.5,-55 157.5,-55 163.5,-61 163.5,-67 163.5,-67 163.5,-79 163.5,-79 163.5,-85 157.5,-91 151.5,-91"/>
<text text-anchor="middle" x="87" y="-69.3" font-family="Times,serif" font-size="14.00" fill="#222222">Concat(., ., axis=0)</text>
</g>
<!-- I_0&#45;&gt;Concat_2 -->
<g id="edge2" class="edge">
<title>I_0&#45;&gt;Concat_2</title>
<path fill="none" stroke="black" d="M54.36,-114.98C58.33,-110 62.71,-104.5 66.93,-99.19"/>
<polygon fill="black" stroke="black" points="73.37,-91.1 70.66,-101.73 70.26,-95.02 67.14,-98.93 67.14,-98.93 67.14,-98.93 70.26,-95.02 63.62,-96.12 73.37,-91.1 73.37,-91.1"/>
<text text-anchor="middle" x="84" y="-101.4" font-family="Times,serif" font-size="7.00">INT64(b)</text>
</g>
<!-- I_1 -->
<g id="node2" class="node">
<title>I_1</title>
<path fill="#aaeeaa" stroke="#888888" d="M162,-153C162,-153 106,-153 106,-153 100,-153 94,-147 94,-141 94,-141 94,-127 94,-127 94,-121 100,-115 106,-115 106,-115 162,-115 162,-115 168,-115 174,-121 174,-127 174,-127 174,-141 174,-141 174,-147 168,-153 162,-153"/>
<text text-anchor="middle" x="134" y="-137.8" font-family="Times,serif" font-size="14.00" fill="#222222">X</text>
<text text-anchor="middle" x="134" y="-122.8" font-family="Times,serif" font-size="14.00" fill="#222222">INT64(a)</text>
</g>
<!-- I_1&#45;&gt;Concat_2 -->
<g id="edge1" class="edge">
<title>I_1&#45;&gt;Concat_2</title>
<path fill="none" stroke="black" d="M119.64,-114.98C115.67,-110 111.29,-104.5 107.07,-99.19"/>
<polygon fill="black" stroke="black" points="100.63,-91.1 110.38,-96.12 103.74,-95.02 106.86,-98.93 106.86,-98.93 106.86,-98.93 103.74,-95.02 103.34,-101.73 100.63,-91.1 100.63,-91.1"/>
<text text-anchor="middle" x="128" y="-101.4" font-family="Times,serif" font-size="7.00">INT64(a)</text>
</g>
<!-- O_3 -->
<g id="node4" class="node">
<title>O_3</title>
<path fill="#aaaaee" stroke="#888888" d="M114.5,-38C114.5,-38 59.5,-38 59.5,-38 53.5,-38 47.5,-32 47.5,-26 47.5,-26 47.5,-12 47.5,-12 47.5,-6 53.5,0 59.5,0 59.5,0 114.5,0 114.5,0 120.5,0 126.5,-6 126.5,-12 126.5,-12 126.5,-26 126.5,-26 126.5,-32 120.5,-38 114.5,-38"/>
<text text-anchor="middle" x="87" y="-22.8" font-family="Times,serif" font-size="14.00" fill="#222222">Z</text>
<text text-anchor="middle" x="87" y="-7.8" font-family="Times,serif" font-size="14.00" fill="#222222">INT64(c)</text>
</g>
<!-- Concat_2&#45;&gt;O_3 -->
<g id="edge3" class="edge">
<title>Concat_2&#45;&gt;O_3</title>
<path fill="none" stroke="black" d="M87,-54.97C87,-52.89 87,-50.72 87,-48.53"/>
<polygon fill="black" stroke="black" points="87,-38.32 91.5,-48.32 87,-43.32 87,-48.32 87,-48.32 87,-48.32 87,-43.32 82.5,-48.32 87,-38.32 87,-38.32"/>
</g>
</g>
</svg>
