<?xml version="1.0" encoding="UTF-8" standalone="no"?>
<!DOCTYPE svg PUBLIC "-//W3C//DTD SVG 1.1//EN"
 "http://www.w3.org/Graphics/SVG/1.1/DTD/svg11.dtd">
<!-- Generated by graphviz version 2.43.0 (0)
 -->
<!-- Title: %3 Pages: 1 -->
<svg width="290pt" height="221pt"
 viewBox="0.00 0.00 290.00 221.00" xmlns="http://www.w3.org/2000/svg" xmlns:xlink="http://www.w3.org/1999/xlink">
<g id="graph0" class="graph" transform="scale(1 1) rotate(0) translate(4 217)">
<title>%3</title>
<!-- I_0 -->
<g id="node1" class="node">
<title>I_0</title>
<path fill="#aaeeaa" stroke="#888888" d="M122,-213C122,-213 12,-213 12,-213 6,-213 0,-207 0,-201 0,-201 0,-187 0,-187 0,-181 6,-175 12,-175 12,-175 122,-175 122,-175 128,-175 134,-181 134,-187 134,-187 134,-201 134,-201 134,-207 128,-213 122,-213"/>
<text text-anchor="middle" x="67" y="-197.8" font-family="Times,serif" font-size="14.00" fill="#222222">X</text>
<text text-anchor="middle" x="67" y="-182.8" font-family="Times,serif" font-size="14.00" fill="#222222">FLOAT(16,8,4,8)</text>
</g>
<!-- Add_2 -->
<g id="node3" class="node">
<title>Add_2</title>
<path fill="#cccccc" stroke="#888888" d="M165.5,-151C165.5,-151 116.5,-151 116.5,-151 110.5,-151 104.5,-145 104.5,-139 104.5,-139 104.5,-127 104.5,-127 104.5,-121 110.5,-115 116.5,-115 116.5,-115 165.5,-115 165.5,-115 171.5,-115 177.5,-121 177.5,-127 177.5,-127 177.5,-139 177.5,-139 177.5,-145 171.5,-151 165.5,-151"/>
<text text-anchor="middle" x="141" y="-129.3" font-family="Times,serif" font-size="14.00" fill="#222222">Add(., .)</text>
</g>
<!-- I_0&#45;&gt;Add_2 -->
<g id="edge1" class="edge">
<title>I_0&#45;&gt;Add_2</title>
<path fill="none" stroke="black" d="M89.6,-174.98C96.45,-169.52 104.07,-163.44 111.3,-157.68"/>
<polygon fill="black" stroke="black" points="119.55,-151.1 114.53,-160.86 115.64,-154.22 111.73,-157.34 111.73,-157.34 111.73,-157.34 115.64,-154.22 108.92,-153.82 119.55,-151.1 119.55,-151.1"/>
<text text-anchor="middle" x="139" y="-161.4" font-family="Times,serif" font-size="7.00">FLOAT(16,8,4,8)</text>
</g>
<!-- I_1 -->
<g id="node2" class="node">
<title>I_1</title>
<path fill="#aaeeaa" stroke="#888888" d="M270,-213C270,-213 160,-213 160,-213 154,-213 148,-207 148,-201 148,-201 148,-187 148,-187 148,-181 154,-175 160,-175 160,-175 270,-175 270,-175 276,-175 282,-181 282,-187 282,-187 282,-201 282,-201 282,-207 276,-213 270,-213"/>
<text text-anchor="middle" x="215" y="-197.8" font-family="Times,serif" font-size="14.00" fill="#222222">Y</text>
<text text-anchor="middle" x="215" y="-182.8" font-family="Times,serif" font-size="14.00" fill="#222222">FLOAT(16,1,4,8)</text>
</g>
<!-- I_1&#45;&gt;Add_2 -->
<g id="edge2" class="edge">
<title>I_1&#45;&gt;Add_2</title>
<path fill="none" stroke="black" d="M192.4,-174.98C185.55,-169.52 177.93,-163.44 170.7,-157.68"/>
<polygon fill="black" stroke="black" points="162.45,-151.1 173.08,-153.82 166.36,-154.22 170.27,-157.34 170.27,-157.34 170.27,-157.34 166.36,-154.22 167.47,-160.86 162.45,-151.1 162.45,-151.1"/>
<text text-anchor="middle" x="210" y="-161.4" font-family="Times,serif" font-size="7.00">FLOAT(16,1,4,8)</text>
</g>
<!-- Softmax_3 -->
<g id="node4" class="node">
<title>Softmax_3</title>
<path fill="#cccccc" stroke="#888888" d="M206,-91C206,-91 76,-91 76,-91 70,-91 64,-85 64,-79 64,-79 64,-67 64,-67 64,-61 70,-55 76,-55 76,-55 206,-55 206,-55 212,-55 218,-61 218,-67 218,-67 218,-79 218,-79 218,-85 212,-91 206,-91"/>
<text text-anchor="middle" x="141" y="-69.3" font-family="Times,serif" font-size="14.00" fill="#222222">Softmax(., axis=&#45;1)</text>
</g>
<!-- Add_2&#45;&gt;Softmax_3 -->
<g id="edge3" class="edge">
<title>Add_2&#45;&gt;Softmax_3</title>
<path fill="none" stroke="black" d="M141,-114.91C141,-110.7 141,-106.09 141,-101.52"/>
<polygon fill="black" stroke="black" points="141,-91.17 145.5,-101.17 141,-96.17 141,-101.17 141,-101.17 141,-101.17 141,-96.17 136.5,-101.17 141,-91.17 141,-91.17"/>
<text text-anchor="middle" x="171" y="-101.4" font-family="Times,serif" font-size="7.00">FLOAT(16,8,4,8)</text>
</g>
<!-- O_4 -->
<g id="node5" class="node">
<title>O_4</title>
<path fill="#aaaaee" stroke="#888888" d="M196,-38C196,-38 86,-38 86,-38 80,-38 74,-32 74,-26 74,-26 74,-12 74,-12 74,-6 80,0 86,0 86,0 196,0 196,0 202,0 208,-6 208,-12 208,-12 208,-26 208,-26 208,-32 202,-38 196,-38"/>
<text text-anchor="middle" x="141" y="-22.8" font-family="Times,serif" font-size="14.00" fill="#222222">Z</text>
<text text-anchor="middle" x="141" y="-7.8" font-family="Times,serif" font-size="14.00" fill="#222222">FLOAT(16,8,4,8)</text>
</g>
<!-- Softmax_3&#45;&gt;O_4 -->
<g id="edge4" class="edge">
<title>Softmax_3&#45;&gt;O_4</title>
<path fill="none" stroke="black" d="M141,-54.97C141,-52.89 141,-50.72 141,-48.53"/>
<polygon fill="black" stroke="black" points="141,-38.32 145.5,-48.32 141,-43.32 141,-48.32 141,-48.32 141,-48.32 141,-43.32 136.5,-48.32 141,-38.32 141,-38.32"/>
</g>
</g>
</svg>
